<svg width="196" height="297" viewBox="0 0 196 297" fill="none" xmlns="http://www.w3.org/2000/svg">
<path d="M318.052 65.0397C322.321 75.938 333.418 90.1789 346.512 105.523C351.708 111.612 357.227 117.884 362.814 124.234C371.438 134.034 380.226 144.021 388.243 153.809C401.463 169.949 412.265 185.179 416.496 197.567C418.605 203.742 418.99 208.953 417.485 213.139C416.009 217.248 412.576 220.735 406.223 223.224C396.13 227.177 383.806 233.733 369.664 241.256C364.808 243.839 359.738 246.536 354.47 249.281C333.774 260.065 309.834 271.699 283.273 280.47C230.198 297.996 166.706 304.08 97.8588 268.987C41.3243 237.682 12.7064 177.627 4.93694 122.598C1.05371 95.0946 2.40134 68.9759 8.00046 48.4979C13.6271 27.9192 23.4033 13.5002 35.9847 8.57178C49.0115 3.46894 72.1203 1.76978 100.014 2.88206C127.81 3.99041 160.055 7.87363 191.156 13.7313C222.264 19.5905 252.155 27.412 275.262 36.3725C286.82 40.8542 296.618 45.5974 304.008 50.4859C311.449 55.4086 316.203 60.3198 318.052 65.0397Z" fill="url(#paint0_linear_648_3394)" stroke="url(#paint1_linear_648_3394)" stroke-width="3.81398"/>
<defs>
<linearGradient id="paint0_linear_648_3394" x1="-30.7078" y1="79.4856" x2="430.028" y2="94.6287" gradientUnits="userSpaceOnUse">
<stop stop-color="#0B7BDC" stop-opacity="0.08"/>
<stop offset="1" stop-color="#49139A" stop-opacity="0.03"/>
</linearGradient>
<linearGradient id="paint1_linear_648_3394" x1="23.6523" y1="-35.3154" x2="290.397" y2="200.164" gradientUnits="userSpaceOnUse">
<stop stop-color="#1D58B1"/>
<stop offset="0.302083" stop-color="#1A2872" stop-opacity="0"/>
<stop offset="0.619792" stop-color="#491751" stop-opacity="0.335766"/>
<stop offset="1" stop-color="#CA19E7"/>
<stop offset="1" stop-color="#BE4BE7"/>
</linearGradient>
</defs>
</svg>
