<svg width="137" height="188" viewBox="0 0 137 188" fill="none" xmlns="http://www.w3.org/2000/svg">
<path d="M340.76 116.909C290.457 166.971 246.158 182.813 209.569 184.64C177.45 186.245 151.067 177.095 131.163 170.191C128.308 169.201 125.586 168.257 123 167.397C103.18 160.812 57.2082 140.134 28.1217 111.765C13.577 97.5795 3.58612 81.7933 2.75984 65.1721C1.9409 48.6986 10.1021 30.6628 33.5299 11.8259C37.9325 8.286 41.9365 3.83432 44.4566 -1.45507C47.7399 -8.34631 50.7294 -15.1705 53.5888 -21.6976C53.9145 -22.4409 54.2384 -23.1804 54.5609 -23.9157C57.7238 -31.1267 60.7444 -37.9272 63.8892 -44.1105C70.2113 -56.5412 76.8431 -66.0678 85.6171 -71.2422C94.2303 -76.3218 105.371 -77.4596 121.363 -72.0198C137.433 -66.5537 158.139 -54.5237 185.518 -33.6301C187.383 -32.207 189.452 -30.863 191.674 -29.8316C213.984 -19.4784 243.374 -13.5957 272.396 -8.40974C276.185 -7.73267 279.968 -7.06751 283.729 -6.4061C308.947 -1.97123 333.207 2.29493 352.106 8.85047C373.995 16.4433 387.294 26.6155 387.866 42.3397C388.158 50.3892 385.178 60.321 377.634 72.6868C370.1 85.035 358.133 99.6184 340.76 116.909Z" fill="url(#paint0_linear_250_6422)" stroke="url(#paint1_linear_250_6422)" stroke-width="5"/>
<defs>
<linearGradient id="paint0_linear_250_6422" x1="33.1027" y1="-73.3391" x2="297.571" y2="257.732" gradientUnits="userSpaceOnUse">
<stop stop-color="#0B7BDC" stop-opacity="0.08"/>
<stop offset="1" stop-color="#49139A" stop-opacity="0.03"/>
</linearGradient>
<linearGradient id="paint1_linear_250_6422" x1="79.9367" y1="-88.4222" x2="295.743" y2="232.719" gradientUnits="userSpaceOnUse">
<stop stop-color="#1D58B1"/>
<stop offset="0.302083" stop-color="#1A2872" stop-opacity="0"/>
<stop offset="0.619792" stop-color="#491751" stop-opacity="0.335766"/>
<stop offset="1" stop-color="#CA19E7"/>
<stop offset="1" stop-color="#BE4BE7"/>
</linearGradient>
</defs>
</svg>
