<svg width="102" height="270" viewBox="0 0 102 270" fill="none" xmlns="http://www.w3.org/2000/svg">
<path d="M-193.841 37.1505C-199.1 46.8796 -211.149 58.9567 -225.196 71.8386C-230.771 76.9507 -236.669 82.1967 -242.641 87.508C-251.858 95.7059 -261.249 104.059 -269.896 112.315C-284.154 125.929 -296.039 138.968 -301.434 150.099C-304.124 155.647 -305.085 160.49 -304.156 164.589C-303.244 168.612 -300.427 172.278 -294.756 175.344C-285.746 180.214 -274.943 187.783 -262.546 196.467C-258.29 199.449 -253.846 202.562 -249.222 205.743C-231.054 218.242 -209.943 231.911 -186.043 243.197C-138.287 265.749 -79.4413 278.769 -10.8307 253.788C45.7961 230.942 79.5538 177.917 93.18 127.205C99.9905 101.858 101.736 77.2076 98.8439 57.3575C95.9378 37.4096 88.4305 22.7606 77.1989 16.689C65.5698 10.4026 44.0931 6.14673 17.8048 3.97625C-8.39076 1.81343 -39.0793 1.74031 -68.9213 3.65092C-98.7707 5.56201 -127.705 9.45354 -150.408 15.1949C-161.764 18.0665 -171.5 21.3861 -178.993 25.1194C-186.539 28.8788 -191.563 32.9371 -193.841 37.1505Z" fill="url(#paint0_linear_648_3407)" stroke="url(#paint1_linear_648_3407)" stroke-width="3.6038"/>
<defs>
<linearGradient id="paint0_linear_648_3407" x1="131.576" y1="90.8785" x2="-302.266" y2="51.9998" gradientUnits="userSpaceOnUse">
<stop stop-color="#0B7BDC" stop-opacity="0.08"/>
<stop offset="1" stop-color="#49139A" stop-opacity="0.03"/>
</linearGradient>
<linearGradient id="paint1_linear_648_3407" x1="-269.192" y1="180.936" x2="101.506" y2="188.932" gradientUnits="userSpaceOnUse">
<stop stop-color="#1D58B1"/>
<stop offset="0.302083" stop-color="#1A2872" stop-opacity="0"/>
<stop offset="0.619792" stop-color="#491751" stop-opacity="0.335766"/>
<stop offset="1" stop-color="#CA19E7"/>
<stop offset="1" stop-color="#BE4BE7"/>
</linearGradient>
</defs>
</svg>
