<svg width="336" height="181" viewBox="0 0 336 181" fill="none" xmlns="http://www.w3.org/2000/svg">
<path d="M-56.2411 162.545C-66.4937 151.128 -86.6664 138.748 -109.797 125.932C-118.977 120.846 -128.636 115.684 -138.415 110.458C-153.509 102.392 -168.889 94.1729 -183.233 85.8433C-206.885 72.1076 -227.15 58.3778 -238.041 45.1145C-243.47 38.5033 -246.338 32.2826 -246.416 26.4525C-246.492 20.7293 -243.882 14.8696 -237.227 8.8931C-226.654 -0.602029 -214.539 -14.3179 -200.636 -30.057C-195.863 -35.4608 -190.879 -41.1031 -185.674 -46.895C-165.225 -69.6518 -141.185 -94.9433 -112.61 -117.925C-55.5113 -163.849 19.6392 -200.515 120.298 -189.091C204.099 -176.656 266.849 -116.088 301.692 -52.1048C319.107 -20.1251 329.463 12.5597 332.006 40.2745C334.561 68.1259 329.19 90.3232 316.011 102.159C302.365 114.414 274.776 127.127 240.02 138.588C205.387 150.01 164.014 160.07 123.14 167.181C82.255 174.293 41.9614 178.436 9.47299 178.062C-6.77669 177.874 -20.9872 176.557 -32.3072 173.954C-43.7063 171.332 -51.8009 167.489 -56.2411 162.545Z" fill="url(#paint0_linear_245_5281)" stroke="url(#paint1_linear_245_5281)" stroke-width="5"/>
<defs>
<linearGradient id="paint0_linear_245_5281" x1="365.277" y1="-15.5681" x2="-207.317" y2="177.712" gradientUnits="userSpaceOnUse">
<stop stop-color="#0B7BDC" stop-opacity="0.08"/>
<stop offset="1" stop-color="#49139A" stop-opacity="0.03"/>
</linearGradient>
<linearGradient id="paint1_linear_245_5281" x1="351.332" y1="150.367" x2="-84.4268" y2="-16.0603" gradientUnits="userSpaceOnUse">
<stop stop-color="#1D58B1"/>
<stop offset="0.302083" stop-color="#1A2872" stop-opacity="0"/>
<stop offset="0.619792" stop-color="#491751" stop-opacity="0.335766"/>
<stop offset="1" stop-color="#CA19E7"/>
<stop offset="1" stop-color="#BE4BE7"/>
</linearGradient>
</defs>
</svg>
