<svg width="257" height="429" viewBox="0 0 257 429" fill="none" xmlns="http://www.w3.org/2000/svg">
<path d="M107.409 37.699C201.205 -3.87319 269.333 -2.4006 319.861 14.1137C364.17 28.5954 395.154 54.6776 418.398 74.2452C421.729 77.0488 424.9 79.7187 427.929 82.2016C451.451 101.482 503.38 153.746 527.82 207.558C540.04 234.463 545.193 261.323 537.021 284.536C528.894 307.623 507.318 327.825 464.42 340.888C458.984 342.543 453.583 345.323 449.318 349.321C440.367 357.713 431.969 366.225 423.957 374.344L423.509 374.798C415.348 383.069 407.598 390.909 400.008 397.867C384.773 411.834 370.527 421.906 355.51 424.725C340.697 427.506 324.617 423.306 305.468 407.47C286.25 391.576 264.162 364.127 237.564 320.88C236.331 318.876 234.88 316.89 233.198 315.128C208.849 289.631 172.418 266.492 135.863 244.426C130.726 241.326 125.588 238.247 120.479 235.185C89.0709 216.364 58.7487 198.193 36.6436 179.704C10.7972 158.085 -2.66503 136.996 4.80546 114.728C8.59892 103.42 17.8827 91.3825 34.5225 78.5096C51.1459 65.6493 74.9307 52.0941 107.409 37.699Z" fill="url(#paint0_linear_245_5278)" stroke="url(#paint1_linear_245_5278)" stroke-width="5"/>
<defs>
<linearGradient id="paint0_linear_245_5278" x1="424.109" y1="453.709" x2="238.691" y2="-128.693" gradientUnits="userSpaceOnUse">
<stop stop-color="#0B7BDC" stop-opacity="0.08"/>
<stop offset="1" stop-color="#49139A" stop-opacity="0.03"/>
</linearGradient>
<linearGradient id="paint1_linear_245_5278" x1="353.241" y1="449.862" x2="228.248" y2="-94.0588" gradientUnits="userSpaceOnUse">
<stop stop-color="#1D58B1"/>
<stop offset="0.302083" stop-color="#1A2872" stop-opacity="0"/>
<stop offset="0.619792" stop-color="#491751" stop-opacity="0.335766"/>
<stop offset="1" stop-color="#CA19E7"/>
<stop offset="1" stop-color="#BE4BE7"/>
</linearGradient>
</defs>
</svg>
