<svg width="220" height="389" viewBox="0 0 220 389" fill="none" xmlns="http://www.w3.org/2000/svg">
<path d="M416.772 84.7406C422.369 99.0279 436.917 117.697 454.083 137.813C460.895 145.796 468.129 154.018 475.454 162.342C486.76 175.19 498.28 188.282 508.79 201.114C526.121 222.273 540.282 242.239 545.829 258.48C548.594 266.575 549.098 273.407 547.126 278.894C545.19 284.28 540.69 288.852 532.362 292.114C519.13 297.297 502.973 305.892 484.433 315.754C478.067 319.14 471.421 322.676 464.515 326.274C437.383 340.412 405.999 355.664 371.178 367.162C301.599 390.139 218.362 398.114 128.106 352.108C53.9912 311.068 16.4743 232.338 6.28888 160.198C1.1981 124.142 2.96479 89.9008 10.3051 63.0549C17.6815 36.0768 30.4976 17.174 46.9914 10.7131C64.0691 4.02345 94.364 1.79591 130.932 3.25406C167.371 4.70707 209.644 9.79783 250.415 17.4771C291.197 25.1583 330.384 35.4119 360.676 47.1588C375.828 53.0342 388.673 59.2524 398.361 65.6611C408.116 72.1146 414.348 78.553 416.772 84.7406Z" fill="url(#paint0_linear_245_5152)" stroke="url(#paint1_linear_245_5152)" stroke-width="5"/>
<defs>
<linearGradient id="paint0_linear_245_5152" x1="-40.4402" y1="103.679" x2="563.569" y2="123.531" gradientUnits="userSpaceOnUse">
<stop stop-color="#0B7BDC" stop-opacity="0.08"/>
<stop offset="1" stop-color="#49139A" stop-opacity="0.03"/>
</linearGradient>
<linearGradient id="paint1_linear_245_5152" x1="30.824" y1="-46.8215" x2="380.517" y2="261.884" gradientUnits="userSpaceOnUse">
<stop stop-color="#1D58B1"/>
<stop offset="0.302083" stop-color="#1A2872" stop-opacity="0"/>
<stop offset="0.619792" stop-color="#491751" stop-opacity="0.335766"/>
<stop offset="1" stop-color="#CA19E7"/>
<stop offset="1" stop-color="#BE4BE7"/>
</linearGradient>
</defs>
</svg>
