<svg width="148" height="411" viewBox="0 0 148 411" fill="none" xmlns="http://www.w3.org/2000/svg">
<path d="M-164.133 406.765C-178.404 401.126 -201.981 399.054 -228.401 397.911C-238.885 397.457 -249.833 397.15 -260.916 396.84C-278.024 396.36 -295.456 395.871 -312.009 394.821C-339.305 393.088 -363.568 389.849 -379.235 382.843C-387.044 379.35 -392.387 375.064 -395.06 369.882C-397.683 364.795 -397.963 358.386 -394.676 350.067C-389.454 336.851 -384.735 319.169 -379.321 298.879C-377.462 291.913 -375.521 284.639 -373.449 277.133C-365.309 247.64 -355.089 214.277 -339.778 180.956C-309.185 114.373 -258.307 48.0155 -163.134 13.3027C-82.5957 -12.9799 0.59206 13.2054 60.3337 54.9055C90.1931 75.7476 114.051 100.372 128.699 124.037C143.419 147.818 148.521 170.079 142.012 186.553C135.272 203.611 116.26 227.302 90.2756 253.074C64.3831 278.755 31.8531 306.227 -1.54843 330.836C-34.9583 355.451 -69.1645 377.146 -98.4032 391.314C-113.028 398.401 -126.332 403.566 -137.623 406.29C-148.994 409.032 -157.953 409.207 -164.133 406.765Z" fill="url(#paint0_linear_245_5282)" stroke="url(#paint1_linear_245_5282)" stroke-width="5"/>
<defs>
<linearGradient id="paint0_linear_245_5282" x1="133.542" y1="59.2144" x2="-292.549" y2="487.779" gradientUnits="userSpaceOnUse">
<stop stop-color="#0B7BDC" stop-opacity="0.08"/>
<stop offset="1" stop-color="#49139A" stop-opacity="0.03"/>
</linearGradient>
<linearGradient id="paint1_linear_245_5282" x1="195.139" y1="213.923" x2="-269.085" y2="259.527" gradientUnits="userSpaceOnUse">
<stop stop-color="#1D58B1"/>
<stop offset="0.302083" stop-color="#1A2872" stop-opacity="0"/>
<stop offset="0.619792" stop-color="#491751" stop-opacity="0.335766"/>
<stop offset="1" stop-color="#CA19E7"/>
<stop offset="1" stop-color="#BE4BE7"/>
</linearGradient>
</defs>
</svg>
