<?xml version="1.0" encoding="UTF-8"?>
<svg xmlns="http://www.w3.org/2000/svg" xmlns:xlink="http://www.w3.org/1999/xlink" viewBox="0 0 233.05 189.4">
  <defs>
    <style>
      .cls-1 {
        fill: url(#linear-gradient);
      }

      .cls-2 {
        fill: #ced3f4;
      }

      .cls-3 {
        fill: #afb6e5;
      }

      .cls-4 {
        mix-blend-mode: multiply;
      }

      .cls-5 {
        fill: url(#radial-gradient-2);
        mix-blend-mode: color-dodge;
        opacity: .7;
      }

      .cls-6 {
        fill: url(#radial-gradient-6);
      }

      .cls-7 {
        fill: url(#radial-gradient-5);
      }

      .cls-8 {
        fill: url(#radial-gradient-3);
      }

      .cls-9 {
        fill: url(#radial-gradient-4);
      }

      .cls-10 {
        fill: url(#linear-gradient-3);
      }

      .cls-11 {
        fill: url(#linear-gradient-2);
      }

      .cls-12 {
        fill: url(#radial-gradient);
      }

      .cls-13 {
        isolation: isolate;
      }
    </style>
    <radialGradient id="radial-gradient" cx="88.42" cy="68.07" fx="88.42" fy="68.07" r="130.69" gradientTransform="translate(177.9 -43.67) rotate(76.46)" gradientUnits="userSpaceOnUse">
      <stop offset=".14" stop-color="#6cf"/>
      <stop offset=".7" stop-color="#5277f7"/>
      <stop offset=".8" stop-color="#4f79f5"/>
      <stop offset=".86" stop-color="#4781f0"/>
      <stop offset=".91" stop-color="#398fe7"/>
      <stop offset=".95" stop-color="#25a2db"/>
      <stop offset=".99" stop-color="#0bbbcc"/>
      <stop offset="1" stop-color="#00c7c5"/>
    </radialGradient>
    <radialGradient id="radial-gradient-2" cx="213.85" cy="145.98" fx="213.85" fy="145.98" r="107.33" gradientUnits="userSpaceOnUse">
      <stop offset="0" stop-color="#afb6e5"/>
      <stop offset=".07" stop-color="#8c92b8"/>
      <stop offset=".14" stop-color="#6c708d"/>
      <stop offset=".22" stop-color="#4e5267"/>
      <stop offset=".31" stop-color="#363847"/>
      <stop offset=".4" stop-color="#22232d"/>
      <stop offset=".5" stop-color="#131318"/>
      <stop offset=".62" stop-color="#08080a"/>
      <stop offset=".76" stop-color="#010102"/>
      <stop offset="1" stop-color="#000"/>
    </radialGradient>
    <radialGradient id="radial-gradient-3" cx="90.33" cy="75.2" fx="90.33" fy="75.2" r="123.01" gradientUnits="userSpaceOnUse">
      <stop offset=".14" stop-color="#e5e9ff"/>
      <stop offset=".7" stop-color="#afb6e5"/>
      <stop offset=".84" stop-color="#b1b8e6"/>
      <stop offset=".92" stop-color="#b9c0ea"/>
      <stop offset=".98" stop-color="#c7cdf0"/>
      <stop offset="1" stop-color="#ced3f4"/>
    </radialGradient>
    <linearGradient id="linear-gradient" x1="43.45" y1="38.96" x2="218.35" y2="173.17" gradientUnits="userSpaceOnUse">
      <stop offset="0" stop-color="#5761d7"/>
      <stop offset=".15" stop-color="#2ff4e6"/>
      <stop offset=".27" stop-color="#30efe5"/>
      <stop offset=".41" stop-color="#34e0e4"/>
      <stop offset=".57" stop-color="#3ac8e1"/>
      <stop offset=".73" stop-color="#43a7de"/>
      <stop offset=".9" stop-color="#4f7dd9"/>
      <stop offset="1" stop-color="#5761d7"/>
    </linearGradient>
    <linearGradient id="linear-gradient-2" x1="-53.25" y1="36.62" x2="252.75" y2="149.17" gradientUnits="userSpaceOnUse">
      <stop offset=".12" stop-color="#681bb2"/>
      <stop offset=".16" stop-color="#6533b5"/>
      <stop offset=".3" stop-color="#5c83c2"/>
      <stop offset=".42" stop-color="#55bdcc"/>
      <stop offset=".5" stop-color="#51e1d1"/>
      <stop offset=".54" stop-color="#50efd4"/>
      <stop offset=".59" stop-color="#50e8d2"/>
      <stop offset=".64" stop-color="#50d7cc"/>
      <stop offset=".7" stop-color="#50bbc4"/>
      <stop offset=".77" stop-color="#5094b8"/>
      <stop offset=".85" stop-color="#5162a9"/>
      <stop offset=".92" stop-color="#512596"/>
      <stop offset=".94" stop-color="#521993"/>
    </linearGradient>
    <linearGradient id="linear-gradient-3" x1="59.87" y1="202.15" x2="181.43" y2="-27.24" gradientUnits="userSpaceOnUse">
      <stop offset=".02" stop-color="#681bb2"/>
      <stop offset=".09" stop-color="#5940b6"/>
      <stop offset=".26" stop-color="#3a90c1"/>
      <stop offset=".39" stop-color="#23cac8"/>
      <stop offset=".49" stop-color="#15eecd"/>
      <stop offset=".54" stop-color="#10fccf"/>
      <stop offset=".58" stop-color="#11f5cd"/>
      <stop offset=".64" stop-color="#16e4c8"/>
      <stop offset=".7" stop-color="#1ec8c1"/>
      <stop offset=".77" stop-color="#2aa1b7"/>
      <stop offset=".84" stop-color="#386fa9"/>
      <stop offset=".91" stop-color="#4a3299"/>
      <stop offset=".94" stop-color="#521993"/>
    </linearGradient>
    <radialGradient id="radial-gradient-4" cx="50.56" cy="90.55" fx="50.56" fy="90.55" r="11.97" gradientUnits="userSpaceOnUse">
      <stop offset="0" stop-color="#f7b5ea"/>
      <stop offset=".31" stop-color="#d991ee"/>
      <stop offset=".59" stop-color="#bb6df3"/>
      <stop offset=".6" stop-color="#bb6af1"/>
      <stop offset=".77" stop-color="#bb43dd"/>
      <stop offset=".91" stop-color="#bb2bd0"/>
      <stop offset="1" stop-color="#bb23cc"/>
    </radialGradient>
    <radialGradient id="radial-gradient-5" cx="173.04" cy="140.47" fx="173.04" fy="140.47" r="9.41" xlink:href="#radial-gradient-4"/>
    <radialGradient id="radial-gradient-6" cx="62.11" cy="5.96" fx="62.11" fy="5.96" r="13.46" xlink:href="#radial-gradient-4"/>
  </defs>
  <g class="cls-13">
    <g id="Layer_1" data-name="Layer 1">
      <circle class="cls-12" cx="116.67" cy="91.07" r="90.93" transform="translate(.81 183.18) rotate(-76.46)"/>
      <path class="cls-5" d="M171.57,21.84c7.9,13.7,12.44,29.58,12.44,46.53,0,51.57-41.8,93.37-93.37,93.37-11.41,0-22.34-2.05-32.45-5.8,15.27,12.84,34.97,20.59,56.48,20.59,48.5,0,87.82-39.32,87.82-87.82,0-26.79-12.01-50.76-30.92-66.87Z"/>
      <path class="cls-8" d="M43.69,83.69s2.55,.65,4.19,.52c1.64-.13,2.36,.39,4.97,2.42,2.62,2.03,4.84-.52,4.84-.52,0,0-3.86-2.03-6.67-3.4-2.81-1.37-7.33,.98-7.33,.98Zm38.42-38.55c-1.11-.51-2.49,1.31-3.14,2.29-.65,.98-.92,2.09-1.37,2.42-.46,.33,2.88,.72,3.93,.65,1.05-.07,1.37-.39,2.22,.33,.85,.72,2.16,.26,2.16-.2s-.92-1.57-.98-2.29c-.07-.72-1.64-.65-2.55-1.05-.92-.39,.59-1.77-.26-2.16Zm-26.11,36.71c-.13-.46-2.03,.72-2.36-.46-.33-1.18-1.11-2.75-1.11-2.75l-1.31-.07c-.07,1.11,.98,3.93,3.08,4.71,2.09,.79,1.83-.98,1.7-1.44Zm6.35,6.87c2.36,0,6.22-.52,7.98,.33,1.77,.85,3.67,2.55,3.67,2.55,0,0-.52-2.62-5.69-3.6-5.17-.98-9.03-1.7-9.03-1.7,0,0,.85,.92,.33,1.37-.52,.46-1.96,.98-1.96,.98l3.73,.92s.26-.85,.98-.85Zm43.72,29.38c-1.64-1.24-3.21-2.55-5.5-2.55s-5.3-2.16-6.09-2.75c-.79-.59-2.88-1.7-3.66-3.4-.79-1.7-4.97-4.52-5.89-5.3-.92-.79-3.6,.07-6.87-2.09-3.27-2.16-.66-2.68-4.52-3.27-3.86-.59-5.04-.07-7.13-.26-2.09-.2-3.4-2.09-5.11-2.09s-5.5,3.4-6.35,4.06c-.85,.65-1.05,.33-2.55-.59-1.5-.92-2.55,1.05-5.17-.2-2.62-1.24,1.05-6.87,1.11-7.79,.07-.92-1.18-.65-3.4-.39-2.22,.26-5.63,.46-5.63,.46,0,0,.2-1.9,.46-3.47,.26-1.57,2.29-3.14,1.31-4.45-.98-1.31-3.73-.2-5.24,.65-1.5,.85-1.31,4.65-5.37,3.73-4.06-.92-2.94-7.59-2.75-8.84,.2-1.24-.07-2.16,1.5-3.6,1.57-1.44,5.37-.85,7.2-.92s3.47-1.44,4.97-1.83c1.51-.39,2.81,1.11,4.52,3.21,1.7,2.09,.46,4.19,.46,4.19,0,0,2.88,.2,4.06-1.18,1.18-1.37-.92-6.61-.39-8.12,.52-1.5,6.54-3.99,7.07-4.84,.52-.85-.33-2.49,1.11-5.3,1.44-2.81,5.17-1.9,5.5-1.9s.07-.92-.59-1.83c-.65-.92,.39-1.7,1.44-2.23,1.05-.52,4.97-1.9,4.97-1.9,0,0-1.11,.79-1.05,1.9,.07,1.11,1.44-.13,3.27-.98,1.83-.85,4.97-1.9,4.97-1.9l-.79-1.11s-1.83,.46-3.34,.2c-1.5-.26-1.57-1.05-1.96-2.55-.39-1.51-6.61,.72-6.61,.72,0,0,1.96-1.64,3.47-2.36s7.59-.2,8.7-.26c1.11-.07,2.36-1.77,4.12-1.83,1.77-.07,2.09-1.37,1.77-2.29-.33-.92-3.01-1.77-6.41-3.99-3.4-2.22-5.3-5.69-5.3-5.69,0,0-1.05,1.64-2.16,2.36-1.11,.72-2.62,.26-3.99-1.44-1.37-1.7-4.12-2.88-5.82-3.08-1.7-.2-5.76-.07-5.76-.07,0,0,.13,.85,.26,2.23,.13,1.37-1.57,2.49-1.57,2.49,0,0,3.14,1.18,3.47,2.81s-4.25,2.49-4.25,2.49c0,0,1.05,3.4,.39,3.47-.65,.07-2.88-2.68-3.34-4.06-.34-1.02-2.83-1-5.48-1.35-10.29,14.71-16.36,32.59-16.39,51.9,2.33,.67,4.5,1.1,5.44,1.01,2.22-.2,1.31,1.18,5.56,2.81,4.25,1.64,5.76,3.4,6.87,5.24,1.11,1.83,5.1,3.53,6.87,2.36,1.77-1.18,2.22,0,3.14,2.75,.92,2.75-1.31,4.38-3.14,6.28-1.83,1.9-1.77,5.96-1.77,7.79s1.24,1.77,2.23,4.25c.98,2.49,3.21,7.72,6.35,9.75,3.14,2.03,5.76,3.6,5.96,6.48s-2.16,11.91-1.9,13.81c.26,1.9-.39,4.58-1.77,6.61-.34,.5-.58,.87-.75,1.19,3.61,2.98,7.47,5.67,11.52,8.08,.28-.21,.58-.42,.87-.63,1.05-.72-1.38-1.11-1.38-1.83s.59-.46,2.62-.07c2.03,.39,2.36-1.37,3.14-2.49,.79-1.11,3.93-1.44,5.24-2.36,1.31-.92,3.14-3.34,5.1-4.45,1.96-1.11,2.09-3.21,4.32-5.82,2.22-2.62,.79-2.94,2.09-5.5,1.31-2.55,6.35-3.53,8.31-4.12,1.96-.59,2.36-3.21,2.81-4.58s2.09-1.24,1.44-1.7c-.65-.46-.72-2.55-.72-4.71s2.42-3.66,4.38-5.89c1.96-2.23,1.11-3.66,.33-5.3-.79-1.64-1.24-.52-2.88-1.77ZM50.06,32.07c.22,.27,1.22-.31,1.24-.83,.02-.52-.68-.39-1.05-.2-.37,.2-.57,.48-.41,.7,.15,.22,.02,.09,.22,.33Zm.59,6.65c-.32,.01-.39,.48-.33,.72,.07,.24,.61-.22,1.13-.22s1.9-.22,2.07-.07c.17,.15,.79-.5,.13-.59s-1.55,.52-1.77,.2c-.22-.33-.46-.59-.72-.46s0,.39-.52,.41Zm2.79-10.27c2.23-.26,6.48,.72,7.98,1.57,1.51,.85,7.4,1.83,7.53,1.64,.13-.2-4.25-2.49-4.25-2.49,0,0,4.06,1.05,5.37,1.05s1.11-1.18,.2-1.7c-.92-.52-4.25-1.96-3.08-2.55,1.18-.59,2.75,1.24,4.19,1.64,1.44,.39,3.14-1.64,3.21-2.09,.07-.46-3.14-1.31-5.56-2.22-.92-.35-1.53-.72-2.02-1.12-.38-.3,.44-.7,.1-1.02-.39-.37-1.94-.68-2.53-1.07-.51-.34-1.71-.75-3.18-1.17-2.59,1.99-5.06,4.11-7.42,6.36,.13,.19,.21,.39,.2,.57-.07,.79-2.94,2.88-.72,2.62Zm113.74,30.37c-.85,.2-.13,.07-.85,.2-.72,.13-.59-.33-.72,.13s.39,.85,.39,1.44-.39,1.18,.07,1.18,1.18-.07,1.44-.39c.26-.33,.26-1.11,.26-1.44s.07-.33-.07-.98-.46-.92-.46-.92c.07-.39,.98-.98,.2-1.05-.79-.07-1.11,.2-1.11,.39s.46,.85,.46,.85l.39,.07s.85,.33,0,.52Zm22.58,7.4c-.13-.33-1.7-.59-1.96-.52-.26,.07-1.9,.65-1.9,.65,.46,0,1.57-.07,2.29,.2s1.7,0,1.57-.33Zm9.75,.46s.72-.59,.52-.59-1.11,.13-1.5,.13-.92,.46-.92,.46l-.39,.39c.52,.26,1.31,.33,1.57,.26s.72-.65,.72-.65Zm-57.59-22.77c-.33,.33-.92,.07-.52,.85,.46,.91,2.81-.07,3.8-.13,.98-.07,2.16-.65,2.16-1.18s0-1.37,.2-1.57c.2-.2,0-1.18-.59-1.37-.59-.2-2.68-.39-3.08-.07-.39,.33-.59,.92-1.18,.85-.59-.07-2.16,.26-1.57,1.11,.59,.85,1.11,1.18,.79,1.51Zm-16.33-23.1s-2.32-.36-3.7-.16c-1.37,.2-2.81,.59-3.14,.29-.33-.29,.98-.43,1.28-.56,.29-.13,1.8-.59,1.08-.62-.72-.03-2.62,.1-2.03-.13,.59-.23,2.59-.39,1.93-.39s-3.7-.39-2.22-.43c1.47-.03,3.44,.43,4.19,.88,.75,.46,1.28,.75,2.19,.75s1.31,.2,1.34-.33c.03-.52,.39-.75-.26-.98-.65-.23-1.54-.46-2.16-.62-.62-.16-1.96-.69-2-.82-.03-.13-3.44-.1-1.96-.52,1.47-.43,2.72-.43,3.24,.07,.52,.49,1.57,.98,2.32,.72,.75-.26,.75-.49,.03-.75-.72-.26-2.42-.13-2.98-.65-.56-.52,.03-.65,.03-.65l3.44,.46s1.34-.1,1.37-.2c.03-.1-.39-.36-.03-.72,.36-.36-.29-.65-.65-1.11-.36-.46,1.01,.03,1.44,.16,.43,.13,1.6,.62,1.31-.2-.29-.82-.72-1.15-.98-1.57-.26-.43-.43-.75,.03-.75s2.29,1.73,2.29,1.34-.1-1.08-.1-1.28-.23-.2-1.01-.56c-.79-.36,.33-.29,.33-.88s-.56-1.24-.16-1.73c.39-.49,.98-.43,1.57-.62,.59-.2,1.37-.85,2.32-.95,.95-.1,1.14-.29,3.11-.65,1.96-.36,4.52-.23,2.59-.49-1.93-.26-4.52-.29-5.53-.29s-3.11-.29-3.8-.1c-.69,.2-.46,.69-1.6,.26-1.14-.43,.07-.69-1.57-.69s-4.45,1.37-4.42,.79c.03-.59,3.11-.88,3.99-1.08s2.85-.56,1.86-.56-2.52-.26-3.83-.26-3.73,.23-3.76-.1c-.03-.33,.66-.69-.39-.69s-2.62-.69-3.83-.07c-1.21,.62-4.19-.23-5.46-.23s-8.93,.52-10.83,.52-3.99,.1-5.27,.13c-1.28,.03-4.09,.46-2.59,.59,1.51,.13,4.12,.2,3.57,.52-.56,.33-2.78,.39-2.68,.52,.1,.13,2.78,.26,1.93,.46-.85,.2-2.59,.49-3.44-.23-.85-.72-1.21-1.31-1.9-1.31-.18,0-.48,0-.83,.02-.58,.18-1.15,.39-1.73,.58,.41,.3,.95,.64,.49,.64-.5,0-.99-.08-1.49-.3-5.72,2.01-11.18,4.57-16.31,7.62,1.55-.02,2.88,0,4.19,.1,1.41,.1,2.49,.2,3.14,.46,.66,.26,1.73,.82,2,1.34s2.42,2.36,2.52,3.01c.1,.65-.29,1.21,1.14,1.21s2.65-.43,3.17-.39c.52,.03,1.67,.33,1.7,.79,.03,.46,.72,1.28-.07,1.05-.79-.23-2.95-.59-3.5-.43-.56,.16-.95,.43-1.01,.82-.07,.39,.1,1.15,1.15,.98,1.05-.16,1.11-.75,2.29-.75s1.54,0,1.7,.36c.16,.36,1.34,.43,0,.85-1.34,.43-1.93,.39-2.62,.39s-1.28,.39-1.28,.59,.07,.92,.07,1.51-.46,1.18-.1,1.54,1.15,.56,1.51,1.21c.36,.65,.39,.36,.46,.88,.07,.52-.23,.56,.46,.85,.69,.29,.85-.49,1.24,.69,.39,1.18,1.9,1.47,2.16,1.8s-.13,.82,1.14,.92c1.28,.1,2.62-.07,3.4,.49,.79,.56,1.93,1.37,2.72,1.15,.79-.23,.69-.85,1.24-1.8,.56-.95,.29-1.9,1.28-2.32,.98-.43,1.54,.26,1.73-1.08,.2-1.34-1.28-1.21,.56-1.7,1.83-.49,.13-.23,2.16-.65,2.03-.43,3.5-.29,3.76-.72,.26-.43,2.68-1.96,4.29-2.32,1.6-.36,2.26-.1,3.6-.39,1.34-.29,4.09-1.05,4.74-1.01,.66,.03,2.55-.72,3.31-.85s1.11-.65,1.11-.65Zm11.49,6.41c.07-.98-.26-2.09-2.95-1.64-2.68,.46-3.67,.92-5.17,.72-1.5-.2-3.93-1.37-5.5,0-1.15,1.01,2.75,3.01,5.5,3.27,2.75,.26,8.05-1.37,8.12-2.36Zm69.41,64.64c-.52-1.22-2.71-4.19-2.71-5.85s-2.62-4.45-3.05-5.93c-.44-1.48-1.75-3.4-.35-3.84,1.4-.44,4.8,4.89,5.58,6.54,.26,.54,.81,1.6,1.45,2.82-.58-9.78-2.72-19.13-6.15-27.84-.23-.03-.45-.03-.68-.02-1.77,.13-3.04,.56-4.71,1.08-1.67,.52-3.34,.39-3.8-.36s-.79-1.51-.72-1.77c.22-.86,1.05-1.21,1.21-1.67,.16-.46,1.77-1.83,2.91-2.16,1.15-.33,3.27,.49,3.4,1.11,.11,.51,.44,.4,.91,.26-3.14-7.08-7.16-13.69-11.93-19.68-1.67,.19-3.91,.82-4.23,1.16-.43,.46-.52,1.01-.75,1.57-.23,.56-.95,1.11-1.01,1.64-.07,.52,.33,.29,.49,.72,.16,.43-1.67,1.41-2.06,1.77-.39,.36-1.05-.65-2.06-.75-1.01-.1-1.87,0-2.06,.36-.2,.36-.98,.43-1.8,.16-.82-.26,.16-.43,.46-.62,.29-.2-.33-.29-1.21,.2-.88,.49-1.64,0-1.47-.36,.33-.72,1.34-.1,2.09-.69,.75-.59,1.7-.2,2.72-.72,1.01-.52,.26-1.44,.3-2.03,.03-.59,1.86-1.01,2.32-1.51,.46-.49,2.85-.85,3.86-.85,.64,0,2.43-.19,4.14-.41-1.32-1.65-2.7-3.25-4.13-4.8-.55,.09-1,.05-1.25,.27-.33,.29-.56,.88-.1,1.21s.92,.88,.52,1.37c-.39,.49-1.21,1.18-2.29,1.08-1.08-.1-1.18,.03-1.7-.13l-.13-.03c-.52-.29-.88-.82-.52-1.54,.36-.72,.95-1.18,1.6-1.5,.65-.33,1.64-.43,2.13-.52,.49-.1,1.11-.2,1.21-.59,.01-.05,.04-.07,.07-.11-2.26-2.41-4.65-4.69-7.16-6.84-.18,.03-.37,.06-.6,.11-1.11,.26-1.57,.85-1.11,.98s-.33,.92-.65,1.18c-.33,.26-1.64,.72-2.03,.92s-.85,1.31-1.11,1.77c-.21,.36-1.11,1.1-1.8,1.94-.05,.02-.11,.05-.16,.07-2.01,.79-6.81,1.05-6.63,4.1,.17,3.05,2.79,3.23,4.19,2.97,1.4-.26,3.66-1.05,3.66-1.05l1.83,3.84s-3.58-2.53-5.85-.79-.09,4.01-.09,4.01c0,0-5.06,1.13-6.37,.61-1.31-.52,1.05-2.53,1.05-2.53,0,0-3.23-.17-3.4,.44-.17,.61,1.57,1.05,1.57,1.05,0,0-.61,.35-1.31,.35s-3.66-.79-3.84-1.4c-.17-.61-1.83-1.35-1.83-1.35,0,0,1-1.22,1.18-1.53,.17-.31,.44-.48,.17-.61s-2.53,.04-2.53-.26,1.09-.79,.92-1.05c-.17-.26-2.71-.09-2.88,.22-.17,.31-.7,1.22-1,1.35-.31,.13-.74-.48-1.18-.13-.44,.35,.65,.92,.7,1.18s-.09,1.13,.17,1.27c.26,.13,1.88-.26,1.83,.22-.04,.48-.52,.96,0,1.44,.52,.48,1.83,.65,1.66,.96-.17,.31-1.53,.61-1.61,1.22-.09,.61-.7,1.31-.7,1.31l1.53,.57s-2.57,1.27-2.18,1.53c.39,.26,3.27-.22,3.97-.26,.7-.04,4.54,.04,5.1-.65,.57-.7,1.22-3.18,2.18-2.57,.96,.61-1.83,3.53-3.71,3.93-1.88,.39-3.18,.31-3.4,.39-.22,.09,.79,.7-.17,.83-.96,.13-2.88,.52-3.05,.83-.17,.31,4.32,1.22,4.67,3.19,.35,1.96,.52,3.27-1.09,3.18-1.61-.09-6.02-.26-6.85-.31-.83-.04-1.83,.09-1.92,.61-.09,.52,.65,1.88,.44,2.84-.22,.96-.92,2.36-.87,2.79,.04,.44,.79,.35,.7,1.18-.09,.83-.17,1.4-.17,1.4,0,0,.57-.04,1.35-.13,.79-.09,1.7-.09,2.01,.61,.31,.7,.92,.61,1.57,.26,.65-.35,2.88-.13,3.71-.65,.83-.52,1.75-.92,2.05-1,.31-.09,1.13-1.13,1.22-1.48s-.79-.96,.22-1.92c1-.96,3.88-1.83,3.84-2.36-.04-.52-.74-1.35,.65-1.88,1.4-.52,3.4,.7,3.67,.48,.26-.22,1.57-.74,1.92-1.05,.35-.31,1.31-1.44,2.53-.04,1.22,1.4,2.31,3.14,3.84,3.49,1.53,.35,2.23,.35,2.66,.96,.44,.61,.87,.52,1.13,.87,.26,.35,.65,.96,.48,1.22-.17,.26-.13,.61-.7,.83-.57,.22-2.53,0-3.23,.13-.7,.13-1.05,.22-.87,.48s1.7,.7,2.31,1.09c.61,.39,1.18,.44,1.18,.44l.22-.57s-.39-.57-.17-.79c.22-.22,.7-.57,1-.44,.31,.13,.79-.48,.79-.61s.44-.52,.66-.57c.22-.04,.57-.44,.22-.65-.35-.22-.72-.33-.65-.74,.07-.41,.17-.81,.72-.59,.54,.22,.96,.5,1.09,.7,.13,.2,.63-.07,.52-.35-.11-.28-.37-.76-1-.89-.63-.13-1.64-.59-1.75-.87-.11-.28,.37-.59-.54-.59s-2.16-.68-2.4-1.33c-.24-.65-.37-.74-.87-1.07-.5-.33-1.24-1.09-.7-1.61,.55-.52,1.4,.26,2.38,1,.98,.74,3.21,1.48,3.75,1.81,.55,.33,2.42,1.16,2.42,1.53s-.61,1.48-.15,1.79c.46,.31,1.46,1.2,1.75,1.79,.28,.59,.72,.85,.87,.94,.15,.09-.48,.33-.17,.63,.3,.31,.61,.09,.57,.63-.04,.55-.02,.48,.52,.55,.55,.07,1.22,.39,1.33,.48,.11,.09-.46-1.31-.2-1.31s.07-.68,.33-.74,1.16,.72,1.29,.44,.33-.74,0-.98c-.33-.24-.89-.89-1.11-1.11-.22-.22-.92-1-.68-1.33,.24-.33,.76,.44,1.33,.24,.57-.2,.52-.87,.85-.87s.48,.04,1.24,.04,1.46,.44,1.46,.44c0,0-.57,.7-.44,1.18,.13,.48,.7,.13,.79,.89,.09,.76-.02,.98,.2,1.2,.22,.22,.65,.7,.7,1,.04,.31,.37,.46,.79,.46s1.11-.07,1.29,.35c.17,.41,.55,.68,1.16,.59,.61-.09,.61-.85,1.03-.87,.41-.02,1.46,.33,2.12,.76,.65,.44,1.88,.24,2.22,.02,.35-.22,.59-.81,1.07-.65,.48,.15,1.09,.15,1.35-.04,.26-.2,.55-.22,.41,.09-.13,.31-.52,.41-.48,.79,.04,.37,0,.5,.07,.87,.07,.37,.11,1.07-.33,1.79-.44,.72-.85,3.32-1.94,3.49-1.09,.17-2.23-1.03-3.69-.63-1.46,.39-1.81,1.24-2.94,1.13-1.13-.11-4.17-.92-4.56-.81-.39,.11-.72-.31-.72-.46s-1.46,0-2.05-.44c-.59-.44-2.2-1.59-3.64-.5s-.96,1.4-.92,1.85c.04,.46-.22,1.55-1.07,1.18-.85-.37-2.46-1.35-3.23-1.31-.76,.04-1.31-.57-1.57-1.16-.26-.59-1.92-1.09-2.68-.98-.76,.11-1.33,.24-2.07-.37-.74-.61-1.59-1.22-1.48-1.46,.11-.24,1.61-.11,1.68-.57,.07-.46-.76-.31-.98-.7-.22-.39-.37-.37-.59-.63-.22-.26-.39-.5-.09-.74,.31-.24,.61-.65,.5-.76-.11-.11-.74,.41-.94,.13-.2-.28-.46-.59-1.07-.5-.61,.09-1.24,.63-2.07,.37-.83-.26-1.11-.07-1.85-.02-.74,.04-.87,.5-1.38,.5s-2.12-.41-3.47-.15c-1.35,.26-4.54,1.07-5.21,1.55-.68,.48-1.16,.74-2.07,.39-.92-.35-2.2,.39-2.55,.04-.35-.35-1-.87-1-.87l-.87,.37s-.52,1.66-2.62,2.79c-2.09,1.13-2.09,2.44-2.27,3.67-.17,1.22-.96,2.62-2.97,3.4-2.01,.79-2.79,3.67-3.93,4.36-1.13,.7-3.93,4.45-2.97,5.93,.96,1.48,1.66,3.23,.7,5.85-.96,2.62-1.75,6.11,4.01,10.21,5.76,4.1,7.85,4.97,7.85,4.97,0,0,3.23-2.09,5.5-1.22,2.27,.87,5.76-1.05,7.5-1.4,1.75-.35,3.84,1.31,4.36,2.18,.52,.87,5.24-2.01,4.89,1.92-.35,3.93-1.13,4.8-.61,5.85,.52,1.05,2.88,3.49,4.19,5.85,1.31,2.36,1.92,3.75,1.4,4.36-.52,.61,1.13,1.57,.7,2.97-.44,1.4-3.05,2.71-2.36,6.72,.7,4.01,2.97,5.24,3.58,8.46,.61,3.23,.09,4.36,2.18,6.98,2.09,2.62,3.14,4.19,3.05,5.5-.04,.63-.08,1.17,.01,1.61,16.98-16.14,27.72-38.77,28.27-63.92-.49-.39-.87-.79-1.05-1.21Z"/>
      <path class="cls-3" d="M116.52,152.75C52.27,152.75,0,128.38,0,98.41c0-12.82,9.61-25.23,27.06-34.94,.76-.42,1.71-.15,2.13,.61,.42,.76,.15,1.71-.61,2.13C12.17,75.34,3.14,86.77,3.14,98.41c0,28.24,50.87,51.21,113.39,51.21s113.39-22.97,113.39-51.21c0-11.64-9.04-23.07-25.44-32.2-.76-.42-1.03-1.38-.61-2.13,.42-.76,1.37-1.03,2.13-.61,17.45,9.71,27.06,22.12,27.06,34.94,0,29.97-52.27,54.34-116.52,54.34Z"/>
      <g class="cls-4">
        <path class="cls-2" d="M204.74,113.78c-6.19,3.46-13.31,6.56-21.26,9.2-8.33-17.17-21.49-35.57-38.55-52.63-6.9-6.9-14.01-13.14-21.17-18.7,10.69-7.05,21.41-12.65,31.72-16.48,10.63-3.94,20.16-5.76,28.25-5.5-.97-1.06-1.97-2.1-2.99-3.12-7.8,.21-16.66,2.08-26.35,5.67-10.82,4.01-22.07,9.94-33.26,17.4-15.03-11.29-30.18-19.46-43.9-23.99,.05-.35,.11-.69,.11-1.05,0-4.11-3.33-7.45-7.45-7.45-3.27,0-6.01,2.12-7.01,5.04-1.67-.24-3.32-.43-4.92-.53-1.09,.93-2.16,1.88-3.21,2.85,2.46-.01,5.06,.19,7.74,.57,.26,3.88,3.45,6.96,7.4,6.96,2.72,0,5.07-1.47,6.37-3.64,13.08,4.34,27.63,12.22,42.16,23.07-11.27,7.78-22.44,17.11-33,27.67-6.6,6.6-12.7,13.45-18.27,20.4-1.22-.87-2.7-1.4-4.31-1.4-4.11,0-7.45,3.33-7.45,7.45,0,2.38,1.13,4.47,2.87,5.83-2.75,3.95-5.33,7.92-7.68,11.88-8.2-2.66-15.55-5.81-21.92-9.33,.34,1.32,.71,2.62,1.11,3.92,5.76,3,12.21,5.71,19.25,8.05-3.02,5.28-5.66,10.54-7.91,15.73,.69,1.02,1.4,2.02,2.13,3.01,2.43-5.84,5.38-11.78,8.83-17.75,18.47,5.74,40.64,9.1,64.45,9.1,17.21,0,33.53-1.78,48.24-4.92,1.27,2.3,3.68,3.87,6.49,3.87,4.1,0,7.42-3.31,7.44-7.4,1.05-.31,2.14-.6,3.16-.93,1.39,3,2.65,5.97,3.74,8.91,1.38,3.72,2.48,7.3,3.3,10.71,.78-1.02,1.54-2.06,2.27-3.11-1.5-5.58-3.66-11.44-6.42-17.47,6.91-2.33,13.22-5.02,18.87-7.99,.4-1.3,.77-2.6,1.11-3.93Zm-26.63,10.84c-1.14-2.66-3.77-4.53-6.85-4.53-4.11,0-7.45,3.33-7.45,7.45,0,.22,.05,.42,.06,.63-14.43,3.01-30.44,4.72-47.35,4.72-23.25,0-44.88-3.18-62.89-8.62,2.29-3.82,4.79-7.64,7.46-11.46,.56,.13,1.14,.23,1.74,.23,4.11,0,7.45-3.33,7.45-7.45,0-1.35-.39-2.6-1.02-3.7,5.58-7,11.72-13.89,18.37-20.54,10.69-10.69,22-20.11,33.4-27.89,7.32,5.65,14.61,12.03,21.69,19.1,16.3,16.3,29.42,34.15,37.86,51.35-.8,.25-1.65,.47-2.46,.71Z"/>
        <path class="cls-2" d="M30.06,68.57c-.27-.99-.47-1.94-.69-2.91-.46,1.58-.88,3.18-1.25,4.8,.27,.08,.55,.11,.85,.04,.83-.23,1.33-1.09,1.1-1.93Z"/>
      </g>
      <path class="cls-1" d="M174.82,189.4c-9.54,0-20.71-2.56-32.9-7.69-.8-.34-1.17-1.26-.84-2.05,.34-.8,1.27-1.17,2.05-.84,23.85,10.04,43.37,9.96,53.56-.23,9.51-9.51,10.3-26.75,2.22-48.54-8.23-22.2-24.63-46.29-46.19-67.85-21.56-21.56-45.65-37.96-67.85-46.19-21.79-8.08-39.03-7.29-48.54,2.22-8.07,8.07-9.86,22.19-5.05,39.78,.23,.83-.26,1.7-1.1,1.93-.84,.23-1.7-.27-1.93-1.1-5.19-18.99-3.17-33.8,5.86-42.83,10.42-10.43,28.84-11.47,51.85-2.94,22.61,8.38,47.1,25.04,68.97,46.91,21.87,21.87,38.53,46.36,46.91,68.97,8.53,23.01,7.48,41.42-2.94,51.85-5.73,5.73-14,8.6-24.1,8.6Z"/>
      <path class="cls-3" d="M58.23,189.4c-10.1,0-18.38-2.87-24.1-8.59-10.43-10.43-11.47-28.84-2.94-51.85,8.38-22.61,25.04-47.1,46.91-68.97C123.53,14.55,177.73-5.17,198.92,16.01c8.9,8.9,10.99,23.45,6.06,42.08-.22,.84-1.07,1.34-1.92,1.11-.84-.22-1.33-1.08-1.11-1.92,4.63-17.49,2.82-31-5.25-39.06-19.97-19.97-72.18-.24-116.39,43.97-21.56,21.56-37.96,45.65-46.19,67.85-8.08,21.79-7.29,39.03,2.22,48.54,10.14,10.13,29.54,10.27,53.23,.37,.8-.33,1.72,.04,2.05,.84,.33,.8-.04,1.72-.84,2.05-12.05,5.03-23.1,7.54-32.55,7.54Z"/>
      <path class="cls-11" d="M116.53,152.75C52.27,152.75,0,128.38,0,98.41,0,85.59,9.61,73.18,27.06,63.47c.76-.42,1.71-.15,2.13,.61,.42,.76,.15,1.71-.61,2.13C12.17,75.34,3.14,86.77,3.14,98.41c0,28.24,50.87,51.21,113.39,51.21s113.39-22.97,113.39-51.21c0-11.64-9.04-23.07-25.44-32.2-.76-.42-1.03-1.38-.61-2.13,.42-.76,1.37-1.03,2.13-.61,17.45,9.71,27.06,22.12,27.06,34.94,0,29.97-52.27,54.34-116.52,54.34Z"/>
      <path class="cls-10" d="M58.23,189.4c-10.1,0-18.38-2.87-24.1-8.59-10.43-10.43-11.47-28.84-2.94-51.85,8.38-22.61,25.04-47.1,46.91-68.97,21.87-21.87,46.36-38.53,68.97-46.91,23.01-8.53,41.42-7.49,51.85,2.94,8.9,8.9,10.99,23.45,6.06,42.08-.22,.84-1.07,1.35-1.92,1.11-.84-.22-1.33-1.08-1.11-1.92,4.63-17.49,2.82-31-5.25-39.06-9.51-9.51-26.75-10.3-48.54-2.22-22.2,8.23-46.29,24.63-67.85,46.19-21.56,21.56-37.96,45.65-46.19,67.85-8.08,21.79-7.29,39.03,2.22,48.54,10.13,10.14,29.54,10.27,53.23,.37,.8-.33,1.72,.04,2.05,.84,.33,.8-.04,1.72-.84,2.05-12.05,5.03-23.1,7.54-32.55,7.54Z"/>
      <circle class="cls-9" cx="51.73" cy="93.71" r="9.41"/>
      <circle class="cls-7" cx="176.44" cy="143.17" r="9.41"/>
      <circle class="cls-6" cx="64.97" cy="9.41" r="9.41"/>
    </g>
  </g>
</svg>