<?xml version="1.0" encoding="UTF-8"?>
<svg id="Layer_1" data-name="Layer 1" xmlns="http://www.w3.org/2000/svg" xmlns:xlink="http://www.w3.org/1999/xlink" viewBox="0 0 255.17 221.16">
  <defs>
    <style>
      .cls-1 {
        fill: url(#linear-gradient);
      }

      .cls-2 {
        fill: url(#_ÂÁ_Ï_ÌÌ_È_ËÂÌÚ_18);
      }

      .cls-3, .cls-4 {
        fill: #fff;
      }

      .cls-5 {
        fill: #bcbeff;
      }

      .cls-6 {
        fill: url(#_ÂÁ_Ï_ÌÌ_È_ËÂÌÚ_18-4);
      }

      .cls-7 {
        fill: url(#_ÂÁ_Ï_ÌÌ_È_ËÂÌÚ_18-2);
      }

      .cls-8 {
        fill: url(#_ÂÁ_Ï_ÌÌ_È_ËÂÌÚ_18-3);
      }

      .cls-9 {
        fill: url(#_ÂÁ_Ï_ÌÌ_È_ËÂÌÚ_15-14);
        opacity: .5;
      }

      .cls-10 {
        fill: url(#_ÂÁ_Ï_ÌÌ_È_ËÂÌÚ_15-12);
      }

      .cls-10, .cls-11, .cls-12, .cls-13, .cls-14, .cls-15, .cls-16, .cls-17, .cls-18, .cls-19, .cls-20, .cls-21, .cls-22, .cls-23 {
        opacity: .48;
      }

      .cls-11 {
        fill: url(#_ÂÁ_Ï_ÌÌ_È_ËÂÌÚ_15-15);
      }

      .cls-12 {
        fill: url(#_ÂÁ_Ï_ÌÌ_È_ËÂÌÚ_15-10);
      }

      .cls-13 {
        fill: url(#_ÂÁ_Ï_ÌÌ_È_ËÂÌÚ_15-13);
      }

      .cls-14 {
        fill: url(#_ÂÁ_Ï_ÌÌ_È_ËÂÌÚ_15-11);
      }

      .cls-15 {
        fill: url(#_ÂÁ_Ï_ÌÌ_È_ËÂÌÚ_15-9);
      }

      .cls-16 {
        fill: url(#_ÂÁ_Ï_ÌÌ_È_ËÂÌÚ_15-3);
      }

      .cls-17 {
        fill: url(#_ÂÁ_Ï_ÌÌ_È_ËÂÌÚ_15-7);
      }

      .cls-18 {
        fill: url(#_ÂÁ_Ï_ÌÌ_È_ËÂÌÚ_15-4);
      }

      .cls-19 {
        fill: url(#_ÂÁ_Ï_ÌÌ_È_ËÂÌÚ_15-8);
      }

      .cls-20 {
        fill: url(#_ÂÁ_Ï_ÌÌ_È_ËÂÌÚ_15-6);
      }

      .cls-21 {
        fill: url(#_ÂÁ_Ï_ÌÌ_È_ËÂÌÚ_15-5);
      }

      .cls-22 {
        fill: url(#_ÂÁ_Ï_ÌÌ_È_ËÂÌÚ_15-2);
      }

      .cls-24 {
        fill: url(#linear-gradient-3);
      }

      .cls-25 {
        fill: url(#linear-gradient-4);
      }

      .cls-26 {
        fill: url(#linear-gradient-2);
      }

      .cls-27 {
        fill: url(#linear-gradient-6);
      }

      .cls-28 {
        fill: url(#linear-gradient-7);
      }

      .cls-29 {
        fill: url(#linear-gradient-5);
      }

      .cls-23 {
        fill: url(#_ÂÁ_Ï_ÌÌ_È_ËÂÌÚ_15);
      }

      .cls-30 {
        fill: url(#_ÂÁ_Ï_ÌÌ_È_ËÂÌÚ_2);
      }

      .cls-4 {
        opacity: .3;
      }
    </style>
    <linearGradient id="linear-gradient" x1="60.19" y1="30.98" x2="192.37" y2="208.23" gradientUnits="userSpaceOnUse">
      <stop offset="0" stop-color="#9c51e5"/>
      <stop offset=".4" stop-color="#992fbb"/>
      <stop offset=".56" stop-color="#92a"/>
      <stop offset=".92" stop-color="#631aaa"/>
    </linearGradient>
    <linearGradient id="linear-gradient-2" x1="57.2" y1="136.57" x2="177.78" y2="136.57" gradientUnits="userSpaceOnUse">
      <stop offset="0" stop-color="#7c1dc9"/>
      <stop offset=".14" stop-color="#871fbc"/>
      <stop offset=".36" stop-color="#9421ae"/>
      <stop offset=".56" stop-color="#92a"/>
      <stop offset=".92" stop-color="#631aaa"/>
    </linearGradient>
    <linearGradient id="_ÂÁ_Ï_ÌÌ_È_ËÂÌÚ_15" data-name="¡ÂÁ˚ÏˇÌÌ˚È „‡‰ËÂÌÚ 15" x1="52.8" y1="87.26" x2="171.2" y2="87.26" gradientUnits="userSpaceOnUse">
      <stop offset="0" stop-color="#42e8e0"/>
      <stop offset=".15" stop-color="#42e3df"/>
      <stop offset=".33" stop-color="#44d4de"/>
      <stop offset=".52" stop-color="#48bddd"/>
      <stop offset=".72" stop-color="#4d9bda"/>
      <stop offset=".93" stop-color="#5471d8"/>
      <stop offset="1" stop-color="#5761d7"/>
    </linearGradient>
    <linearGradient id="_ÂÁ_Ï_ÌÌ_È_ËÂÌÚ_15-2" data-name="¡ÂÁ˚ÏˇÌÌ˚È „‡‰ËÂÌÚ 15" x1="59.5" y1="92.15" x2="181.9" y2="92.15" xlink:href="#_ÂÁ_Ï_ÌÌ_È_ËÂÌÚ_15"/>
    <linearGradient id="_ÂÁ_Ï_ÌÌ_È_ËÂÌÚ_15-3" data-name="¡ÂÁ˚ÏˇÌÌ˚È „‡‰ËÂÌÚ 15" x1="60.53" y1="99" x2="197.95" y2="99" xlink:href="#_ÂÁ_Ï_ÌÌ_È_ËÂÌÚ_15"/>
    <linearGradient id="_ÂÁ_Ï_ÌÌ_È_ËÂÌÚ_15-4" data-name="¡ÂÁ˚ÏˇÌÌ˚È „‡‰ËÂÌÚ 15" x1="61.57" y1="107.5" x2="212.97" y2="107.5" xlink:href="#_ÂÁ_Ï_ÌÌ_È_ËÂÌÚ_15"/>
    <linearGradient id="_ÂÁ_Ï_ÌÌ_È_ËÂÌÚ_15-5" data-name="¡ÂÁ˚ÏˇÌÌ˚È „‡‰ËÂÌÚ 15" x1="62.56" y1="117.32" x2="226.34" y2="117.32" xlink:href="#_ÂÁ_Ï_ÌÌ_È_ËÂÌÚ_15"/>
    <linearGradient id="_ÂÁ_Ï_ÌÌ_È_ËÂÌÚ_15-6" data-name="¡ÂÁ˚ÏˇÌÌ˚È „‡‰ËÂÌÚ 15" x1="63.47" y1="128.03" x2="237.5" y2="128.03" xlink:href="#_ÂÁ_Ï_ÌÌ_È_ËÂÌÚ_15"/>
    <linearGradient id="_ÂÁ_Ï_ÌÌ_È_ËÂÌÚ_15-7" data-name="¡ÂÁ˚ÏˇÌÌ˚È „‡‰ËÂÌÚ 15" x1="64.26" y1="139.21" x2="246" y2="139.21" xlink:href="#_ÂÁ_Ï_ÌÌ_È_ËÂÌÚ_15"/>
    <linearGradient id="_ÂÁ_Ï_ÌÌ_È_ËÂÌÚ_15-8" data-name="¡ÂÁ˚ÏˇÌÌ˚È „‡‰ËÂÌÚ 15" x1="64.89" y1="150.38" x2="251.47" y2="150.38" xlink:href="#_ÂÁ_Ï_ÌÌ_È_ËÂÌÚ_15"/>
    <linearGradient id="_ÂÁ_Ï_ÌÌ_È_ËÂÌÚ_15-9" data-name="¡ÂÁ˚ÏˇÌÌ˚È „‡‰ËÂÌÚ 15" x1="65.35" y1="161.08" x2="253.69" y2="161.08" xlink:href="#_ÂÁ_Ï_ÌÌ_È_ËÂÌÚ_15"/>
    <linearGradient id="_ÂÁ_Ï_ÌÌ_È_ËÂÌÚ_15-10" data-name="¡ÂÁ˚ÏˇÌÌ˚È „‡‰ËÂÌÚ 15" x1="36.72" y1="84.52" x2="170.3" y2="84.52" xlink:href="#_ÂÁ_Ï_ÌÌ_È_ËÂÌÚ_15"/>
    <linearGradient id="_ÂÁ_Ï_ÌÌ_È_ËÂÌÚ_2" data-name="¡ÂÁ˚ÏˇÌÌ˚È „‡‰ËÂÌÚ 2" x1="-413.95" y1="1454.47" x2="-289.24" y2="1533.45" gradientTransform="translate(372.1 -1401.53) rotate(30) skewX(30)" gradientUnits="userSpaceOnUse">
      <stop offset="0" stop-color="#5761d7"/>
      <stop offset="1" stop-color="#5761d7"/>
    </linearGradient>
    <linearGradient id="_ÂÁ_Ï_ÌÌ_È_ËÂÌÚ_18" data-name="¡ÂÁ˚ÏˇÌÌ˚È „‡‰ËÂÌÚ 18" x1="476.88" y1="1382.13" x2="487.46" y2="1382.13" gradientTransform="translate(1006.02 -906.63) rotate(30) skewX(-30)" gradientUnits="userSpaceOnUse">
      <stop offset="0" stop-color="#5761d7"/>
      <stop offset=".16" stop-color="#5e67d9"/>
      <stop offset=".41" stop-color="#7179e1"/>
      <stop offset=".69" stop-color="#9197ee"/>
      <stop offset="1" stop-color="#bcbeff"/>
    </linearGradient>
    <linearGradient id="_ÂÁ_Ï_ÌÌ_È_ËÂÌÚ_18-2" data-name="¡ÂÁ˚ÏˇÌÌ˚È „‡‰ËÂÌÚ 18" x1="489.47" y1="1393.03" x2="500.05" y2="1393.03" xlink:href="#_ÂÁ_Ï_ÌÌ_È_ËÂÌÚ_18"/>
    <linearGradient id="_ÂÁ_Ï_ÌÌ_È_ËÂÌÚ_18-3" data-name="¡ÂÁ˚ÏˇÌÌ˚È „‡‰ËÂÌÚ 18" x1="502.27" y1="1404.11" x2="512.85" y2="1404.11" xlink:href="#_ÂÁ_Ï_ÌÌ_È_ËÂÌÚ_18"/>
    <linearGradient id="linear-gradient-3" x1="-70.33" y1="142.36" x2="-54.54" y2="142.36" gradientTransform="translate(101.67)" gradientUnits="userSpaceOnUse">
      <stop offset=".16" stop-color="#561b9b"/>
      <stop offset=".2" stop-color="#54219a"/>
      <stop offset=".26" stop-color="#50349a"/>
      <stop offset=".33" stop-color="#49539a"/>
      <stop offset=".4" stop-color="#407e9a"/>
      <stop offset=".46" stop-color="#38a89a"/>
      <stop offset=".59" stop-color="#407897"/>
      <stop offset=".76" stop-color="#494595"/>
      <stop offset=".88" stop-color="#4f2593"/>
      <stop offset=".95" stop-color="#521993"/>
    </linearGradient>
    <linearGradient id="_ÂÁ_Ï_ÌÌ_È_ËÂÌÚ_15-11" data-name="¡ÂÁ˚ÏˇÌÌ˚È „‡‰ËÂÌÚ 15" x1="-66.69" y1="131.09" x2="-53.74" y2="131.09" gradientTransform="translate(101.67)" xlink:href="#_ÂÁ_Ï_ÌÌ_È_ËÂÌÚ_15"/>
    <linearGradient id="_ÂÁ_Ï_ÌÌ_È_ËÂÌÚ_15-12" data-name="¡ÂÁ˚ÏˇÌÌ˚È „‡‰ËÂÌÚ 15" x1="-66.69" y1="143.68" x2="-53.74" y2="143.68" gradientTransform="translate(101.67)" xlink:href="#_ÂÁ_Ï_ÌÌ_È_ËÂÌÚ_15"/>
    <linearGradient id="_ÂÁ_Ï_ÌÌ_È_ËÂÌÚ_15-13" data-name="¡ÂÁ˚ÏˇÌÌ˚È „‡‰ËÂÌÚ 15" x1="-66.69" y1="156.48" x2="-53.74" y2="156.48" gradientTransform="translate(101.67)" xlink:href="#_ÂÁ_Ï_ÌÌ_È_ËÂÌÚ_15"/>
    <linearGradient id="linear-gradient-4" x1="-1.2" y1="104.2" x2="64.61" y2="-12.45" gradientUnits="userSpaceOnUse">
      <stop offset=".1" stop-color="#681bb2"/>
      <stop offset=".17" stop-color="#661fb1"/>
      <stop offset=".24" stop-color="#612dae"/>
      <stop offset=".32" stop-color="#5944aa"/>
      <stop offset=".4" stop-color="#4e64a5"/>
      <stop offset=".49" stop-color="#418d9e"/>
      <stop offset=".53" stop-color="#38a89a"/>
      <stop offset=".59" stop-color="#399e99"/>
      <stop offset=".68" stop-color="#3e8398"/>
      <stop offset=".79" stop-color="#465896"/>
      <stop offset=".93" stop-color="#511d93"/>
      <stop offset=".94" stop-color="#521993"/>
    </linearGradient>
    <linearGradient id="_ÂÁ_Ï_ÌÌ_È_ËÂÌÚ_18-4" data-name="¡ÂÁ˚ÏˇÌÌ˚È „‡‰ËÂÌÚ 18" x1="-14.92" y1="32.69" x2="-90.29" y2="87.88" gradientTransform="translate(101.67)" xlink:href="#_ÂÁ_Ï_ÌÌ_È_ËÂÌÚ_18"/>
    <linearGradient id="_ÂÁ_Ï_ÌÌ_È_ËÂÌÚ_15-14" data-name="¡ÂÁ˚ÏˇÌÌ˚È „‡‰ËÂÌÚ 15" x1="-87.25" y1="55.82" x2="-28.02" y2="55.82" gradientTransform="translate(121.19 77.82) rotate(60)" xlink:href="#_ÂÁ_Ï_ÌÌ_È_ËÂÌÚ_15"/>
    <linearGradient id="_ÂÁ_Ï_ÌÌ_È_ËÂÌÚ_15-15" data-name="¡ÂÁ˚ÏˇÌÌ˚È „‡‰ËÂÌÚ 15" x1="-89.83" y1="54.42" x2="-30.6" y2="54.42" gradientTransform="translate(118.69 79.35) rotate(60)" xlink:href="#_ÂÁ_Ï_ÌÌ_È_ËÂÌÚ_15"/>
    <linearGradient id="linear-gradient-5" x1="85.79" y1="76.4" x2="12.86" y2="39.3" gradientUnits="userSpaceOnUse">
      <stop offset=".13" stop-color="#6719b2"/>
      <stop offset=".51" stop-color="#821d93"/>
      <stop offset=".86" stop-color="#691aa5"/>
      <stop offset=".95" stop-color="#631aaa"/>
    </linearGradient>
    <linearGradient id="linear-gradient-6" x1="4.53" y1="87.01" x2="69.07" y2="4.03" gradientUnits="userSpaceOnUse">
      <stop offset=".08" stop-color="#681bb2"/>
      <stop offset=".21" stop-color="#5b5db3"/>
      <stop offset=".34" stop-color="#5097b4"/>
      <stop offset=".43" stop-color="#49bbb5"/>
      <stop offset=".48" stop-color="#47c9b6"/>
      <stop offset=".54" stop-color="#47c2b4"/>
      <stop offset=".61" stop-color="#48b1b1"/>
      <stop offset=".69" stop-color="#4a95ab"/>
      <stop offset=".78" stop-color="#4c6ea4"/>
      <stop offset=".88" stop-color="#4f3d9a"/>
      <stop offset=".94" stop-color="#521993"/>
    </linearGradient>
    <linearGradient id="linear-gradient-7" x1="23.04" y1="59.76" x2="77.47" y2="59.76" xlink:href="#linear-gradient-4"/>
  </defs>
  <g>
    <path class="cls-1" d="M254.56,152.51l-76.68-44.27s-.07-.02-.1-.03v-.02s-7.89-8.38-7.89-8.38L136.28,.82c-.15-.43-.51-.79-.81-.79L133.86,0c-.07,0-.13,.02-.18,.05h0S21,65.14,21,65.14l35.79,100.54,6.67,8.16,16.12,9.75,49.65,28.26,13.07,9.26,112.68-65.09h0s0,0,0,0c.11-.06,.18-.2,.18-.39v-2.06c0-.39-.27-.86-.61-1.05Z"/>
    <polygon class="cls-26" points="65.18 173.34 177.78 108.2 169.89 99.8 57.2 164.9 65.18 173.34"/>
  </g>
  <path class="cls-4" d="M140.39,219.75l114.76-66.26c-.02-.29-.19-.61-.41-.83l-115.18,66.5,.83,.59Z"/>
  <path class="cls-4" d="M135.53,.03L21.36,65.95l.83,.59L136.23,.7c-.15-.35-.44-.62-.7-.66Z"/>
  <polygon class="cls-23" points="58.51 165.01 52.8 74.61 165.5 9.51 171.2 99.91 58.51 165.01"/>
  <polygon class="cls-22" points="59.5 165.21 69.21 84.19 181.9 19.09 172.19 100.11 59.5 165.21"/>
  <polygon class="cls-16" points="60.53 165.68 85.26 97.41 197.95 32.31 173.23 100.58 60.53 165.68"/>
  <polygon class="cls-18" points="61.57 166.4 100.28 113.7 212.97 48.6 174.26 101.3 61.57 166.4"/>
  <polygon class="cls-21" points="62.56 167.33 113.65 132.4 226.34 67.3 175.26 102.23 62.56 167.33"/>
  <polygon class="cls-20" points="176.17 103.34 237.5 87.63 124.81 152.73 63.47 168.44 176.17 103.34"/>
  <polygon class="cls-17" points="176.95 104.58 246 108.74 133.3 173.84 64.26 169.68 176.95 104.58"/>
  <polygon class="cls-19" points="177.59 105.9 251.47 129.76 138.77 194.86 64.89 171 177.59 105.9"/>
  <polygon class="cls-15" points="178.04 107.24 253.69 149.81 140.99 214.91 65.35 172.34 178.04 107.24"/>
  <polygon class="cls-12" points="170.3 99.97 57.6 165.08 36.72 69.06 149.41 3.96 170.3 99.97 170.3 99.97"/>
  <path class="cls-30" d="M141.86,217.61l-76.68-44.27s-.07-.02-.1-.03v-.02s-7.89-8.38-7.89-8.38L23.58,65.92c-.15-.43-.51-.79-.81-.79l-1.6-.02c-.3,0-.43,.34-.28,.78l33.61,98.99c.15,.43,.51,.79,.81,.79l.39,.42c-.02,.32,.14,.73,.41,1.02l7.26,7.92c.28,.3,.59,.4,.79,.28l.42,.45c0,.39,.27,.86,.61,1.05l76.68,44.27c.34,.19,.61,.04,.61-.35v-2.06c0-.39-.27-.86-.61-1.05Z"/>
  <path class="cls-2" d="M46.04,135.14c2.53-1.46,2.53-3.83,0-5.29-2.53-1.46-6.63-1.46-9.16,0s-2.53,3.83,0,5.29c2.53,1.46,6.63,1.46,9.16,0Z"/>
  <path class="cls-3" d="M46.04,134.82c-2.53,1.46-6.63,1.46-9.16,0-1.2-.69-1.82-1.58-1.88-2.49-.07,1.01,.55,2.03,1.88,2.8,2.53,1.46,6.63,1.46,9.16,0,1.34-.77,1.96-1.79,1.88-2.8-.07,.9-.69,1.8-1.88,2.49Z"/>
  <path class="cls-7" d="M46.04,147.72c2.53-1.46,2.53-3.83,0-5.29-2.53-1.46-6.63-1.46-9.16,0-2.53,1.46-2.53,3.83,0,5.29,2.53,1.46,6.63,1.46,9.16,0Z"/>
  <path class="cls-8" d="M46.04,160.53c2.53-1.46,2.53-3.83,0-5.29-2.53-1.46-6.63-1.46-9.16,0-2.53,1.46-2.53,3.83,0,5.29,2.53,1.46,6.63,1.46,9.16,0Z"/>
  <path class="cls-24" d="M34.97,132.49v-6.54c0,.96,.63,1.91,1.9,2.64,2.53,1.46,6.63,1.46,9.16,0,1.23-.71,1.85-1.63,1.89-2.56v-27.7h-12.95v81.57c0,3.58,2.9,6.48,6.48,6.48s6.48-2.9,6.48-6.48v-22.12c.04,.99-.59,1.98-1.89,2.73-2.53,1.46-6.63,1.46-9.16,0-1.26-.73-1.89-1.68-1.9-2.64h0v-6.55c0,.96,.63,1.91,1.9,2.64,2.53,1.46,6.63,1.46,9.16,0,1.23-.71,1.85-1.63,1.89-2.56v-6.43c.04,.99-.59,1.98-1.89,2.73-2.53,1.46-6.63,1.46-9.16,0-1.26-.73-1.89-1.68-1.9-2.64h0v-6.55c0,.96,.63,1.91,1.9,2.64,2.53,1.46,6.63,1.46,9.16,0,1.23-.71,1.85-1.63,1.89-2.56v-6.21c.04,.99-.59,1.98-1.89,2.73-2.53,1.46-6.63,1.46-9.16,0-1.26-.73-1.89-1.68-1.9-2.64h0Z"/>
  <path class="cls-3" d="M46.04,147.41c-2.53,1.46-6.63,1.46-9.16,0-1.2-.69-1.82-1.58-1.88-2.49-.07,1.01,.55,2.03,1.88,2.8,2.53,1.46,6.63,1.46,9.16,0,1.34-.77,1.96-1.79,1.88-2.8-.07,.9-.69,1.8-1.88,2.49Z"/>
  <path class="cls-3" d="M46.04,160.21c-2.53,1.46-6.63,1.46-9.16,0-1.2-.69-1.82-1.58-1.88-2.49-.07,1.01,.55,2.03,1.88,2.8,2.53,1.46,6.63,1.46,9.16,0,1.34-.77,1.96-1.79,1.88-2.8-.07,.9-.69,1.8-1.88,2.49Z"/>
  <path class="cls-14" d="M46.04,128.59c-2.53,1.46-6.63,1.46-9.16,0-1.26-.73-1.9-1.69-1.9-2.64v6.54s0,0,0,0h0s0,0,0,0c0,.95,.64,1.91,1.9,2.64,2.53,1.46,6.63,1.46,9.16,0,1.3-.75,1.93-1.75,1.89-2.73v-6.37c-.04,.93-.66,1.85-1.89,2.56Z"/>
  <path class="cls-10" d="M46.04,141.18c-2.53,1.46-6.63,1.46-9.16,0-1.26-.73-1.9-1.69-1.9-2.64v6.54h0s0,0,0,0h0c0,.95,.64,1.91,1.9,2.64,2.53,1.46,6.63,1.46,9.16,0,1.3-.75,1.93-1.75,1.89-2.73v-6.37c-.04,.93-.66,1.85-1.89,2.56Z"/>
  <path class="cls-13" d="M46.04,153.98c-2.53,1.46-6.63,1.46-9.16,0-1.26-.73-1.9-1.69-1.9-2.64v6.54h0s0,0,0,0c0,.95,.64,1.91,1.9,2.64,2.53,1.46,6.63,1.46,9.16,0,1.3-.75,1.93-1.75,1.89-2.73v-6.37c-.04,.93-.66,1.85-1.89,2.56Z"/>
  <path class="cls-25" d="M18.04,88.27c-.3-.17-.59-.34-.88-.52l-3.17-17.94,3.97-23.81,11.04-12.03,11.37-11.04,18.1-7.51,.48-.19c.86,.43,1.66,.96,2.42,1.56,4.53-.57,9.05-1.13,13.58-1.7-.76-1.87-1.66-3.57-2.73-5.06l2.17-.85-8.11-4.67c-.1-.06-.19-.11-.29-.17l-.3-.18h-.02c-6.97-3.75-16.46-3.07-26.93,2.97C17.35,19.5,0,49.55,0,74.26c0,12.26,4.27,20.9,11.19,24.98h0s.05,.03,.05,.03c.08,.05,.16,.09,.24,.14l8.61,4.92-.44-2.5c1.07,.08,2.18,.09,3.31,.02-2.39-4.21-5.61-8.87-4.92-13.6Z"/>
  <path class="cls-6" d="M77.48,30.52c0-.33,.02-.67,.02-1,0-5.6-.91-10.42-2.54-14.42-4.53,.57-9.05,1.13-13.58,1.7,4.35,3.44,6.99,9.6,6.99,18,0,18.88-13.26,41.85-29.61,51.29-8.07,4.66-15.37,5.14-20.71,2.18-.69,4.73,2.54,9.39,4.92,13.6,3.59-.22,7.48-1.22,11.55-3.05l-1.28,1.44s16.12-5.59,16.45-5.95c.33-.36,19.1-19.3,19.1-19.3l12.25-26.43-3.55-18.05Z"/>
  <ellipse class="cls-9" cx="44.03" cy="55.82" rx="41.88" ry="24.18" transform="translate(-26.32 66.04) rotate(-60)"/>
  <ellipse class="cls-11" cx="41.45" cy="54.42" rx="41.88" ry="24.18" transform="translate(-26.4 63.11) rotate(-60)"/>
  <path class="cls-5" d="M47.27,12.06C25.87,24.42,8.52,54.46,8.52,79.17s17.35,34.73,38.75,22.37c21.4-12.36,38.75-42.4,38.75-67.11S68.67-.3,47.27,12.06Zm0,78.93c-16.35,9.44-29.61,1.79-29.61-17.1s13.26-41.85,29.61-51.29c16.35-9.44,29.61-1.79,29.61,17.1s-13.26,41.85-29.61,51.29Z"/>
  <path class="cls-29" d="M47.27,12.06C25.87,24.42,8.52,54.46,8.52,79.17s17.35,34.73,38.75,22.37c21.4-12.36,38.75-42.4,38.75-67.11S68.67-.3,47.27,12.06Zm0,78.93c-16.35,9.44-29.61,1.79-29.61-17.1s13.26-41.85,29.61-51.29c16.35-9.44,29.61-1.79,29.61,17.1s-13.26,41.85-29.61,51.29Z"/>
  <g>
    <path class="cls-27" d="M9.11,79.84c0-24.71,17.35-54.76,38.75-67.11,13.17-7.61,24.8-6.72,31.8,.83-6.93-8.16-18.84-9.32-32.39-1.49C25.87,24.42,8.52,54.46,8.52,79.17c0,9.5,2.57,16.82,6.95,21.54-4.01-4.73-6.36-11.81-6.36-20.88Z"/>
    <path class="cls-28" d="M47.86,91.66c16.35-9.44,29.61-32.41,29.61-51.29,0-7.32-2-12.94-5.39-16.54,3.03,3.61,4.8,9,4.8,15.88,0,18.88-13.26,41.85-29.61,51.29-10.02,5.78-18.87,5.14-24.23-.55,5.28,6.31,14.42,7.22,24.82,1.22Z"/>
  </g>
</svg>