<?xml version="1.0" encoding="UTF-8"?>
<svg id="Layer_1" data-name="Layer 1" xmlns="http://www.w3.org/2000/svg" xmlns:xlink="http://www.w3.org/1999/xlink" viewBox="0 0 160.66 202.33">
  <defs>
    <style>
      .cls-1 {
        fill: url(#linear-gradient);
      }

      .cls-2 {
        fill: url(#linear-gradient-8);
      }

      .cls-3 {
        fill: url(#linear-gradient-9);
      }

      .cls-4 {
        fill: url(#linear-gradient-3);
      }

      .cls-5 {
        fill: url(#linear-gradient-4);
      }

      .cls-6 {
        fill: url(#linear-gradient-2);
      }

      .cls-7 {
        fill: url(#linear-gradient-6);
      }

      .cls-8 {
        fill: url(#linear-gradient-7);
      }

      .cls-9 {
        fill: url(#linear-gradient-5);
      }
    </style>
    <linearGradient id="linear-gradient" x1="117.24" y1="127.58" x2="176.56" y2="230.52" gradientUnits="userSpaceOnUse">
      <stop offset="0" stop-color="#9874c6"/>
      <stop offset=".1" stop-color="#c1a1d5"/>
      <stop offset=".16" stop-color="#c7abd9"/>
      <stop offset=".25" stop-color="#d9c6e5"/>
      <stop offset=".36" stop-color="#f6f2f9"/>
      <stop offset=".39" stop-color="#fff"/>
      <stop offset=".44" stop-color="#f1e8f6"/>
      <stop offset=".5" stop-color="#dfcbeb"/>
      <stop offset=".56" stop-color="#d4bae5"/>
      <stop offset=".61" stop-color="#d1b4e3"/>
      <stop offset=".67" stop-color="#b092d4"/>
      <stop offset=".72" stop-color="#9a7bca"/>
      <stop offset=".75" stop-color="#9273c7"/>
      <stop offset=".77" stop-color="#8d6ec5"/>
      <stop offset=".82" stop-color="#8969c3"/>
      <stop offset=".89" stop-color="#9371c5"/>
      <stop offset="1" stop-color="#b086cc"/>
    </linearGradient>
    <linearGradient id="linear-gradient-2" x1="24.99" y1="103.5" x2="137.52" y2="103.5" gradientUnits="userSpaceOnUse">
      <stop offset=".12" stop-color="#6a1db5"/>
      <stop offset=".17" stop-color="#6626b3"/>
      <stop offset=".26" stop-color="#5e3eb0"/>
      <stop offset=".37" stop-color="#5167ab"/>
      <stop offset=".49" stop-color="#3e9ea3"/>
      <stop offset=".53" stop-color="#38b2a1"/>
      <stop offset=".58" stop-color="#3ca7a3"/>
      <stop offset=".67" stop-color="#4a8aab"/>
      <stop offset=".79" stop-color="#5f5bb8"/>
      <stop offset=".92" stop-color="#7c1dc9"/>
    </linearGradient>
    <linearGradient id="linear-gradient-3" x1="115.75" y1="122.23" x2="171.08" y2="222.33" gradientUnits="userSpaceOnUse">
      <stop offset="0" stop-color="#9874c6"/>
      <stop offset=".25" stop-color="#c1a1d5"/>
      <stop offset=".29" stop-color="#c7abd9"/>
      <stop offset=".36" stop-color="#d9c6e5"/>
      <stop offset=".44" stop-color="#f6f2f9"/>
      <stop offset=".47" stop-color="#fff"/>
      <stop offset=".49" stop-color="#f1e8f6"/>
      <stop offset=".53" stop-color="#dfcbeb"/>
      <stop offset=".57" stop-color="#d4bae5"/>
      <stop offset=".6" stop-color="#d1b4e3"/>
      <stop offset=".66" stop-color="#b294d5"/>
      <stop offset=".72" stop-color="#9b7ccb"/>
      <stop offset=".77" stop-color="#8d6ec5"/>
      <stop offset=".82" stop-color="#8969c3"/>
      <stop offset=".89" stop-color="#9371c5"/>
      <stop offset="1" stop-color="#b086cc"/>
    </linearGradient>
    <linearGradient id="linear-gradient-4" x1="114.86" y1="17.47" x2="174.16" y2="117.8" gradientUnits="userSpaceOnUse">
      <stop offset="0" stop-color="#9874c6"/>
      <stop offset=".36" stop-color="#c1a1d5"/>
      <stop offset=".38" stop-color="#c7abd9"/>
      <stop offset=".41" stop-color="#d9c6e5"/>
      <stop offset=".45" stop-color="#f6f2f9"/>
      <stop offset=".46" stop-color="#fff"/>
      <stop offset=".51" stop-color="#f1e8f6"/>
      <stop offset=".57" stop-color="#dfcbeb"/>
      <stop offset=".63" stop-color="#d4bae5"/>
      <stop offset=".67" stop-color="#d1b4e3"/>
      <stop offset=".82" stop-color="#8969c3"/>
      <stop offset=".89" stop-color="#9371c5"/>
      <stop offset="1" stop-color="#b086cc"/>
    </linearGradient>
    <linearGradient id="linear-gradient-5" x1="18.03" y1="26.69" x2="137.52" y2="26.69" gradientUnits="userSpaceOnUse">
      <stop offset=".1" stop-color="#631ba8"/>
      <stop offset=".14" stop-color="#6e1bb6"/>
      <stop offset=".19" stop-color="#781cc4"/>
      <stop offset=".24" stop-color="#7c1dc9"/>
      <stop offset=".31" stop-color="#6a4cc4"/>
      <stop offset=".41" stop-color="#528dbe"/>
      <stop offset=".49" stop-color="#43b6ba"/>
      <stop offset=".52" stop-color="#3ec6b9"/>
      <stop offset=".53" stop-color="#3fc1b9"/>
      <stop offset=".66" stop-color="#597bc0"/>
      <stop offset=".77" stop-color="#6c48c4"/>
      <stop offset=".86" stop-color="#7728c7"/>
      <stop offset=".9" stop-color="#7c1dc9"/>
    </linearGradient>
    <linearGradient id="linear-gradient-6" x1="100.23" y1="-7.69" x2="191.98" y2="144.7" gradientUnits="userSpaceOnUse">
      <stop offset="0" stop-color="#9874c6"/>
      <stop offset=".23" stop-color="#c1a1d5"/>
      <stop offset=".27" stop-color="#c7abd9"/>
      <stop offset=".35" stop-color="#d9c6e5"/>
      <stop offset=".44" stop-color="#f6f2f9"/>
      <stop offset=".46" stop-color="#fff"/>
      <stop offset=".49" stop-color="#f1e8f6"/>
      <stop offset=".53" stop-color="#dfcbeb"/>
      <stop offset=".57" stop-color="#d4bae5"/>
      <stop offset=".6" stop-color="#d1b4e3"/>
      <stop offset=".66" stop-color="#b294d5"/>
      <stop offset=".72" stop-color="#9b7ccb"/>
      <stop offset=".77" stop-color="#8d6ec5"/>
      <stop offset=".82" stop-color="#8969c3"/>
      <stop offset=".89" stop-color="#9371c5"/>
      <stop offset="1" stop-color="#b086cc"/>
    </linearGradient>
    <linearGradient id="linear-gradient-7" x1="0" y1="101.81" x2="112.69" y2="101.81" gradientUnits="userSpaceOnUse">
      <stop offset="0" stop-color="#9f19ab"/>
      <stop offset=".02" stop-color="#9c18aa"/>
      <stop offset=".46" stop-color="#6d1498"/>
      <stop offset=".8" stop-color="#4f118e"/>
      <stop offset=".99" stop-color="#45108a"/>
    </linearGradient>
    <linearGradient id="linear-gradient-8" x1="101.95" y1="181.38" x2="208.75" y2="181.38" gradientUnits="userSpaceOnUse">
      <stop offset="0" stop-color="#9874c6"/>
      <stop offset=".36" stop-color="#c1a1d5"/>
      <stop offset=".38" stop-color="#c7abd9"/>
      <stop offset=".41" stop-color="#d9c6e5"/>
      <stop offset=".45" stop-color="#f6f2f9"/>
      <stop offset=".46" stop-color="#fff"/>
      <stop offset=".49" stop-color="#f1e8f6"/>
      <stop offset=".53" stop-color="#dfcbeb"/>
      <stop offset=".57" stop-color="#d4bae5"/>
      <stop offset=".6" stop-color="#d1b4e3"/>
      <stop offset=".66" stop-color="#b294d5"/>
      <stop offset=".72" stop-color="#9b7ccb"/>
      <stop offset=".77" stop-color="#8d6ec5"/>
      <stop offset=".82" stop-color="#8969c3"/>
      <stop offset=".89" stop-color="#9371c5"/>
      <stop offset="1" stop-color="#b086cc"/>
    </linearGradient>
    <linearGradient id="linear-gradient-9" x1="79.4" y1="74.42" x2="229.9" y2="74.42" gradientUnits="userSpaceOnUse">
      <stop offset="0" stop-color="#9874c6"/>
      <stop offset=".33" stop-color="#c1a1d5"/>
      <stop offset=".36" stop-color="#c7abd9"/>
      <stop offset=".4" stop-color="#d9c6e5"/>
      <stop offset=".45" stop-color="#f6f2f9"/>
      <stop offset=".46" stop-color="#fff"/>
      <stop offset=".49" stop-color="#f1e8f6"/>
      <stop offset=".53" stop-color="#dfcbeb"/>
      <stop offset=".57" stop-color="#d4bae5"/>
      <stop offset=".6" stop-color="#d1b4e3"/>
      <stop offset=".66" stop-color="#b294d5"/>
      <stop offset=".72" stop-color="#9b7ccb"/>
      <stop offset=".77" stop-color="#8d6ec5"/>
      <stop offset=".82" stop-color="#8969c3"/>
      <stop offset=".89" stop-color="#9371c5"/>
      <stop offset="1" stop-color="#b086cc"/>
    </linearGradient>
  </defs>
  <polygon class="cls-1" points="160.34 159.2 160.26 187.9 135.43 202.33 135.52 173.61 160.34 159.2"/>
  <path class="cls-6" d="M137.52,146.02l-24.82,14.41h-.02l-53.8-31.05c-1.44-.84-2.89-1.78-4.28-2.8-.49-.33-.97-.7-1.44-1.08-.09-.03-.16-.1-.24-.19-.56-.42-1.1-.85-1.64-1.32-.09-.05-.16-.12-.24-.23-.57-.47-1.15-.97-1.71-1.5-.56-.5-1.1-1.01-1.64-1.55-1.25-1.2-2.45-2.49-3.64-3.83-.49-.54-.96-1.11-1.43-1.69-.45-.52-.89-1.06-1.31-1.62-.47-.59-.94-1.2-1.38-1.81-.97-1.29-1.9-2.63-2.77-4-.33-.47-.63-.96-.92-1.44-.85-1.37-1.67-2.78-2.45-4.21-.28-.52-.56-1.04-.82-1.57-.33-.64-.66-1.29-.97-1.95-.3-.59-.57-1.18-.84-1.79-.1-.21-.21-.44-.3-.64-.96-2.16-1.79-4.33-2.54-6.53-.24-.7-.47-1.41-.68-2.12-.19-.61-.37-1.24-.54-1.86-.05-.21-.12-.44-.17-.64-.16-.57-.3-1.15-.42-1.72-.21-.85-.38-1.71-.54-2.58-.24-1.15-.42-2.28-.56-3.41-.12-.91-.21-1.79-.28-2.7-.1-1.25-.16-2.51-.16-3.74v-.19c.05-18.26,11.05-27.31,25.81-23.05-.64,2.59-.97,5.47-.99,8.62-.02,8.18,2.16,17.06,5.88,25.5,3.32,7.5,7.87,14.67,13.19,20.73,4.47,5.1,9.5,9.42,14.83,12.5l53.8,31.07Z"/>
  <polygon class="cls-4" points="160.34 159.2 135.52 173.61 115.59 162.1 112.7 160.43 137.52 146.02 138.46 146.56 160.34 159.2"/>
  <polygon class="cls-5" points="160.66 52.31 160.57 81.03 135.75 95.46 135.82 66.74 160.66 52.31"/>
  <path class="cls-9" d="M137.52,38.96l-24.82,14.43h-.02L59.2,22.49c-1.18-.68-2.37-1.32-3.53-1.91-1.17-.61-2.33-1.15-3.48-1.65-.73-.33-1.46-.63-2.19-.91-9.4-3.74-18.07-4.49-25.46-2.58-1.93,.5-3.79,1.18-5.57,2.05-.31,.14-.63,.3-.92,.47L42.05,3.99c10.74-6.23,25.59-5.38,41.97,4.09l53.51,30.88Z"/>
  <polygon class="cls-7" points="160.66 52.31 135.82 66.74 122.55 59.08 115.31 54.9 112.7 53.39 137.52 38.96 138.48 39.51 160.66 52.31"/>
  <path class="cls-8" d="M24.99,70.65v.19c0,1.24,.05,2.49,.16,3.74,.07,.91,.16,1.79,.28,2.7,.14,1.13,.31,2.26,.56,3.41,.16,.87,.33,1.72,.54,2.58,.12,.57,.26,1.15,.42,1.72,.05,.21,.12,.44,.17,.64,.17,.63,.35,1.25,.54,1.86,.21,.71,.44,1.43,.68,2.12,.75,2.19,1.58,4.37,2.54,6.53,.09,.21,.19,.44,.3,.64,.26,.61,.54,1.2,.84,1.79,.31,.66,.64,1.31,.97,1.95,.26,.52,.54,1.04,.82,1.57,.78,1.43,1.6,2.84,2.45,4.21,.3,.49,.59,.97,.92,1.44,.87,1.38,1.79,2.72,2.77,4,.44,.61,.91,1.22,1.38,1.81,.42,.56,.85,1.1,1.31,1.62,.47,.57,.94,1.15,1.43,1.69,1.18,1.34,2.38,2.63,3.64,3.83,.54,.54,1.08,1.06,1.64,1.55,.56,.54,1.13,1.04,1.71,1.5,.09,.1,.16,.17,.24,.23,.54,.47,1.08,.91,1.64,1.32,.09,.09,.16,.16,.24,.19,.47,.38,.96,.75,1.44,1.08,1.39,1.03,2.84,1.97,4.28,2.8l53.8,31.05v28.75l-53.87-31.1C26.27,139.3-.1,93.61,0,56.22,.05,37.63,6.63,24.56,17.23,18.42l.12-.07,.02-.02h.03c.5-.3,1.03-.57,1.55-.84,1.78-.87,3.64-1.55,5.57-2.05,7.4-1.91,16.07-1.17,25.46,2.58,.73,.28,1.46,.57,2.19,.91,1.15,.5,2.31,1.06,3.48,1.65,1.17,.59,2.35,1.24,3.53,1.91l53.49,30.9v28.75l-53.58-30.93c-2.85-1.65-5.64-2.85-8.3-3.6-14.76-4.26-25.76,4.79-25.81,23.05Z"/>
  <polygon class="cls-2" points="135.52 173.61 135.43 202.33 119.46 193.1 112.69 189.2 112.69 160.43 112.7 160.43 115.59 162.1 119.46 164.35 135.52 173.61"/>
  <polygon class="cls-3" points="135.82 66.74 135.75 95.46 122.55 87.83 112.69 82.14 112.69 53.39 112.7 53.39 115.31 54.9 122.55 59.08 135.82 66.74"/>
</svg>