<?xml version="1.0" encoding="UTF-8"?>
<svg xmlns="http://www.w3.org/2000/svg" xmlns:xlink="http://www.w3.org/1999/xlink" viewBox="0 0 258.18 203.89">
  <defs>
    <style>
      .cls-1 {
        fill: url(#linear-gradient);
      }

      .cls-2 {
        fill: #8f8f8f;
      }

      .cls-3 {
        fill: #30393f;
      }

      .cls-4 {
        fill: #4c585f;
      }

      .cls-5 {
        fill: url(#linear-gradient-21);
        opacity: .12;
      }

      .cls-5, .cls-6, .cls-7, .cls-8, .cls-9, .cls-10, .cls-11, .cls-12, .cls-13, .cls-14 {
        mix-blend-mode: overlay;
      }

      .cls-15 {
        fill: url(#linear-gradient-27);
      }

      .cls-15, .cls-16, .cls-17, .cls-18 {
        opacity: .51;
      }

      .cls-15, .cls-16, .cls-17, .cls-18, .cls-19, .cls-20, .cls-21, .cls-22, .cls-23, .cls-24, .cls-25, .cls-26, .cls-27, .cls-28 {
        mix-blend-mode: multiply;
      }

      .cls-16 {
        fill: url(#linear-gradient-25);
      }

      .cls-17 {
        fill: url(#linear-gradient-28);
      }

      .cls-18 {
        fill: url(#linear-gradient-32);
      }

      .cls-19 {
        fill: url(#linear-gradient-11);
      }

      .cls-19, .cls-20, .cls-21 {
        opacity: .44;
      }

      .cls-20 {
        fill: url(#linear-gradient-12);
      }

      .cls-21 {
        fill: url(#linear-gradient-18);
      }

      .cls-22 {
        fill: url(#linear-gradient-47);
      }

      .cls-22, .cls-23, .cls-24, .cls-25 {
        opacity: .43;
      }

      .cls-23 {
        fill: url(#linear-gradient-45);
      }

      .cls-24 {
        fill: url(#linear-gradient-46);
      }

      .cls-25 {
        fill: url(#linear-gradient-44);
      }

      .cls-26 {
        fill: url(#linear-gradient-49);
        opacity: .41;
      }

      .cls-27 {
        fill: url(#linear-gradient-5);
      }

      .cls-27, .cls-28 {
        opacity: .54;
      }

      .cls-28 {
        fill: url(#linear-gradient-4);
      }

      .cls-29 {
        fill: url(#linear-gradient-3);
      }

      .cls-30 {
        fill: url(#linear-gradient-2);
      }

      .cls-31 {
        fill: url(#linear-gradient-6);
      }

      .cls-32 {
        fill: url(#linear-gradient-7);
      }

      .cls-6 {
        fill: url(#linear-gradient-39);
        opacity: .25;
      }

      .cls-7 {
        fill: url(#linear-gradient-34);
        opacity: .36;
      }

      .cls-8 {
        fill: url(#linear-gradient-8);
      }

      .cls-8, .cls-9, .cls-10, .cls-11, .cls-12, .cls-13 {
        opacity: .56;
      }

      .cls-9 {
        fill: url(#linear-gradient-33);
      }

      .cls-10 {
        fill: url(#linear-gradient-37);
      }

      .cls-11 {
        fill: url(#linear-gradient-20);
      }

      .cls-12 {
        fill: url(#linear-gradient-10);
      }

      .cls-13 {
        fill: url(#linear-gradient-13);
      }

      .cls-33 {
        fill: url(#linear-gradient-41);
      }

      .cls-34 {
        fill: url(#linear-gradient-40);
      }

      .cls-35 {
        fill: url(#linear-gradient-43);
      }

      .cls-36 {
        fill: url(#linear-gradient-42);
      }

      .cls-37 {
        fill: url(#linear-gradient-48);
      }

      .cls-38 {
        fill: url(#linear-gradient-14);
      }

      .cls-39 {
        fill: url(#linear-gradient-22);
      }

      .cls-40 {
        fill: url(#linear-gradient-23);
      }

      .cls-41 {
        fill: url(#linear-gradient-15);
      }

      .cls-42 {
        fill: url(#linear-gradient-19);
      }

      .cls-43 {
        fill: url(#linear-gradient-16);
      }

      .cls-44 {
        fill: url(#linear-gradient-17);
      }

      .cls-45 {
        fill: url(#linear-gradient-24);
      }

      .cls-46 {
        fill: url(#linear-gradient-26);
      }

      .cls-47 {
        fill: url(#linear-gradient-38);
      }

      .cls-48 {
        fill: url(#linear-gradient-35);
      }

      .cls-49 {
        fill: url(#linear-gradient-36);
      }

      .cls-50 {
        fill: url(#linear-gradient-29);
      }

      .cls-51 {
        fill: url(#linear-gradient-30);
      }

      .cls-52 {
        fill: url(#linear-gradient-31);
      }

      .cls-14 {
        fill: url(#linear-gradient-9);
        opacity: .19;
      }

      .cls-53 {
        isolation: isolate;
      }
    </style>
    <linearGradient id="linear-gradient" x1="148.48" y1="86.15" x2="175.13" y2="-53.88" gradientUnits="userSpaceOnUse">
      <stop offset="0" stop-color="#42e8e0"/>
      <stop offset=".55" stop-color="#4d9bda"/>
      <stop offset="1" stop-color="#5761d7"/>
    </linearGradient>
    <linearGradient id="linear-gradient-2" x1="165.87" y1="89.46" x2="192.53" y2="-50.57" xlink:href="#linear-gradient"/>
    <linearGradient id="linear-gradient-3" x1="104.29" y1="77.74" x2="130.94" y2="-62.29" xlink:href="#linear-gradient"/>
    <linearGradient id="linear-gradient-4" x1="165.87" y1="89.46" x2="192.53" y2="-50.57" xlink:href="#linear-gradient"/>
    <linearGradient id="linear-gradient-5" x1="104.29" y1="77.74" x2="130.94" y2="-62.29" xlink:href="#linear-gradient"/>
    <linearGradient id="linear-gradient-6" x1="121.93" y1="81.1" x2="148.59" y2="-58.93" xlink:href="#linear-gradient"/>
    <linearGradient id="linear-gradient-7" x1="121.57" y1="81.03" x2="148.23" y2="-59" xlink:href="#linear-gradient"/>
    <linearGradient id="linear-gradient-8" x1="121.93" y1="81.1" x2="148.59" y2="-58.93" xlink:href="#linear-gradient"/>
    <linearGradient id="linear-gradient-9" x1="121.53" y1="81.02" x2="148.18" y2="-59.01" xlink:href="#linear-gradient"/>
    <linearGradient id="linear-gradient-10" x1="233.9" y1="54.29" x2="254.5" y2="54.29" gradientUnits="userSpaceOnUse">
      <stop offset="0" stop-color="#9f19ab"/>
      <stop offset=".02" stop-color="#9c18aa"/>
      <stop offset=".46" stop-color="#6d1498"/>
      <stop offset=".8" stop-color="#4f118e"/>
      <stop offset=".99" stop-color="#45108a"/>
    </linearGradient>
    <linearGradient id="linear-gradient-11" x1="234.07" y1="83.8" x2="258.18" y2="83.8" gradientUnits="userSpaceOnUse">
      <stop offset="0" stop-color="#4c4c4c"/>
      <stop offset=".7" stop-color="#fff"/>
    </linearGradient>
    <linearGradient id="linear-gradient-12" x1="146.93" y1="94.28" x2="297.85" y2="-69.58" xlink:href="#linear-gradient-10"/>
    <linearGradient id="linear-gradient-13" x1="180.44" y1="125.14" x2="331.35" y2="-38.73" gradientUnits="userSpaceOnUse">
      <stop offset=".43" stop-color="#9f19ab"/>
      <stop offset=".44" stop-color="#9c18aa"/>
      <stop offset=".69" stop-color="#6d1498"/>
      <stop offset=".88" stop-color="#4f118e"/>
      <stop offset=".99" stop-color="#45108a"/>
    </linearGradient>
    <linearGradient id="linear-gradient-14" x1="168.6" y1="114.24" x2="319.52" y2="-49.63" gradientUnits="userSpaceOnUse">
      <stop offset="0" stop-color="#9f19ab"/>
      <stop offset=".06" stop-color="#9818a8"/>
      <stop offset=".48" stop-color="#6b1398"/>
      <stop offset=".8" stop-color="#4f118d"/>
      <stop offset=".99" stop-color="#45108a"/>
    </linearGradient>
    <linearGradient id="linear-gradient-15" x1="172.92" y1="88.44" x2="78.32" y2="31.56" xlink:href="#linear-gradient-10"/>
    <linearGradient id="linear-gradient-16" x1="194.58" y1="52.43" x2="99.97" y2="-4.45" xlink:href="#linear-gradient-10"/>
    <linearGradient id="linear-gradient-17" x1="177.11" y1="81.48" x2="82.5" y2="24.61" xlink:href="#linear-gradient-10"/>
    <linearGradient id="linear-gradient-18" x1="186.42" y1="130.65" x2="337.34" y2="-33.22" xlink:href="#linear-gradient-10"/>
    <linearGradient id="linear-gradient-19" x1="168.91" y1="114.53" x2="319.83" y2="-49.34" xlink:href="#linear-gradient-10"/>
    <linearGradient id="linear-gradient-20" x1="139.39" y1="73.96" x2="465.43" y2="72.27" gradientUnits="userSpaceOnUse">
      <stop offset="0" stop-color="#9f19ab"/>
      <stop offset=".19" stop-color="#9317a6"/>
      <stop offset=".53" stop-color="#76149c"/>
      <stop offset=".97" stop-color="#46108a"/>
      <stop offset=".99" stop-color="#45108a"/>
    </linearGradient>
    <linearGradient id="linear-gradient-21" x1="168.89" y1="114.5" x2="319.81" y2="-49.36" xlink:href="#linear-gradient-10"/>
    <linearGradient id="linear-gradient-22" x1="106.9" y1="70.69" x2="129.13" y2="70.69" xlink:href="#linear-gradient-10"/>
    <linearGradient id="linear-gradient-23" x1="129.63" y1="90.77" x2="-30.67" y2="29.2" xlink:href="#linear-gradient-10"/>
    <linearGradient id="linear-gradient-24" x1="128.91" y1="84.97" x2="-103.09" y2="60.75" gradientUnits="userSpaceOnUse">
      <stop offset="0" stop-color="#9f19ab"/>
      <stop offset=".99" stop-color="#9f19ab"/>
    </linearGradient>
    <linearGradient id="linear-gradient-25" x1="128.91" y1="84.97" x2="-103.09" y2="60.75" xlink:href="#linear-gradient-10"/>
    <linearGradient id="linear-gradient-26" x1="127.91" y1="94.57" x2="-104.1" y2="70.36" xlink:href="#linear-gradient-10"/>
    <linearGradient id="linear-gradient-27" x1="130.62" y1="68.61" x2="-101.39" y2="44.4" xlink:href="#linear-gradient-10"/>
    <linearGradient id="linear-gradient-28" x1="127.91" y1="94.57" x2="-104.1" y2="70.36" xlink:href="#linear-gradient-10"/>
    <linearGradient id="linear-gradient-29" x1="129.57" y1="78.62" x2="-102.43" y2="54.41" gradientUnits="userSpaceOnUse">
      <stop offset="0" stop-color="#9f19ab"/>
      <stop offset=".44" stop-color="#6f1499"/>
      <stop offset=".8" stop-color="#50118e"/>
      <stop offset="1" stop-color="#45108a"/>
    </linearGradient>
    <linearGradient id="linear-gradient-30" x1="129.43" y1="80.01" x2="-102.58" y2="55.8" gradientUnits="userSpaceOnUse">
      <stop offset="0" stop-color="#9f19ab"/>
      <stop offset=".02" stop-color="#9c18aa"/>
      <stop offset=".46" stop-color="#6d1498"/>
      <stop offset=".79" stop-color="#4f118e"/>
      <stop offset=".98" stop-color="#45108a"/>
    </linearGradient>
    <linearGradient id="linear-gradient-31" x1="126.04" y1="112.42" x2="-105.96" y2="88.21" xlink:href="#linear-gradient-10"/>
    <linearGradient id="linear-gradient-32" x1="126.04" y1="112.42" x2="-105.96" y2="88.21" gradientUnits="userSpaceOnUse">
      <stop offset="0" stop-color="#9f19ab"/>
      <stop offset=".37" stop-color="#9c18aa"/>
      <stop offset=".55" stop-color="#9518a7"/>
      <stop offset=".69" stop-color="#8816a2"/>
      <stop offset=".8" stop-color="#75149b"/>
      <stop offset=".91" stop-color="#5e1293"/>
      <stop offset=".99" stop-color="#45108a"/>
    </linearGradient>
    <linearGradient id="linear-gradient-33" x1="129.57" y1="78.62" x2="-102.43" y2="54.41" gradientUnits="userSpaceOnUse">
      <stop offset="0" stop-color="#9f19ab"/>
      <stop offset=".18" stop-color="#9918a8"/>
      <stop offset=".42" stop-color="#8916a3"/>
      <stop offset=".68" stop-color="#6f1499"/>
      <stop offset=".95" stop-color="#4b108c"/>
      <stop offset="1" stop-color="#45108a"/>
    </linearGradient>
    <linearGradient id="linear-gradient-34" x1="129.43" y1="80.02" x2="-102.58" y2="55.8" xlink:href="#linear-gradient-10"/>
    <linearGradient id="linear-gradient-35" x1="167.62" y1="123.71" x2="163.68" y2="221.69" xlink:href="#linear-gradient"/>
    <linearGradient id="linear-gradient-36" x1="134.67" y1="122.38" x2="130.73" y2="220.37" xlink:href="#linear-gradient"/>
    <linearGradient id="linear-gradient-37" x1="134.67" y1="122.38" x2="130.73" y2="220.37" xlink:href="#linear-gradient"/>
    <linearGradient id="linear-gradient-38" x1="134.71" y1="122.39" x2="130.77" y2="220.37" xlink:href="#linear-gradient"/>
    <linearGradient id="linear-gradient-39" x1="134.67" y1="122.38" x2="130.72" y2="220.37" xlink:href="#linear-gradient"/>
    <linearGradient id="linear-gradient-40" x1="120.12" y1="121.8" x2="116.17" y2="219.78" xlink:href="#linear-gradient"/>
    <linearGradient id="linear-gradient-41" x1="184.38" y1="124.38" x2="180.44" y2="222.37" xlink:href="#linear-gradient"/>
    <linearGradient id="linear-gradient-42" x1="100.96" y1="121.03" x2="97.01" y2="219.01" xlink:href="#linear-gradient"/>
    <linearGradient id="linear-gradient-43" x1="187.5" y1="124.51" x2="183.56" y2="222.49" xlink:href="#linear-gradient"/>
    <linearGradient id="linear-gradient-44" x1="120.12" y1="121.8" x2="116.17" y2="219.78" xlink:href="#linear-gradient"/>
    <linearGradient id="linear-gradient-45" x1="184.38" y1="124.38" x2="180.44" y2="222.37" xlink:href="#linear-gradient"/>
    <linearGradient id="linear-gradient-46" x1="100.96" y1="121.03" x2="97.01" y2="219.01" xlink:href="#linear-gradient"/>
    <linearGradient id="linear-gradient-47" x1="187.5" y1="124.51" x2="183.56" y2="222.49" xlink:href="#linear-gradient"/>
    <linearGradient id="linear-gradient-48" x1="154.28" y1="123.17" x2="150.34" y2="221.16" xlink:href="#linear-gradient"/>
    <linearGradient id="linear-gradient-49" x1="154.28" y1="123.17" x2="150.34" y2="221.16" xlink:href="#linear-gradient"/>
  </defs>
  <g class="cls-53">
    <g id="Layer_1" data-name="Layer 1">
      <path class="cls-2" d="M121.48,41.7s-.02-.02-.03-.02c-.39-.23-.84-.4-1.26-.59-.28-.13-.55-.28-.84-.39-.48-.18-.99-.31-1.49-.45-.28-.08-.55-.18-.84-.25-.56-.13-1.14-.21-1.71-.29-.26-.03-.51-.1-.77-.13-.79-.09-1.58-.13-2.38-.13-.06,0-.12,0-.18,0-.85,0-1.71,.05-2.54,.14-.23,.02-.45,.08-.69,.12-.6,.09-1.21,.18-1.78,.31-.33,.08-.62,.19-.94,.28-.47,.13-.94,.25-1.38,.42-.31,.13-.58,.28-.88,.42-.41,.18-.84,.36-1.21,.58h0c5.22-3.01,13.67-3,18.9,.02,.02,0,.03,.02,.06,.03v-.02s-.02-.02-.04-.02Z"/>
      <path class="cls-2" d="M125.43,47.21c0-.31-.09-.62-.15-.92-.04-.18-.03-.38-.09-.56-.12-.35-.33-.69-.53-1.03-.08-.13-.12-.28-.21-.41-.33-.47-.73-.92-1.22-1.35-.11-.1-.28-.19-.4-.29-.4-.32-.81-.64-1.3-.93h0v.02c3.63,2.12,4.67,5.15,3.2,7.81h0c.43-.76,.69-1.56,.7-2.35Z"/>
      <path class="cls-2" d="M125.37,51.42s.03-.02,.04-.03h0s-.02,.02-.04,.03Z"/>
      <path class="cls-2" d="M102.56,41.7h0s0,0,0,0t.02,0h0Z"/>
      <path class="cls-2" d="M98.89,45.75v.02s0-.02,.02-.03c0-.02,0-.02,0-.04,0,.02-.02,.04-.02,.06Z"/>
      <path class="cls-2" d="M99.67,44.22s-.02,.02-.04,.04c0,0,0,.02,0,.02,.02-.02,.03-.04,.05-.07Z"/>
      <path class="cls-4" d="M98.66,47.39s0,.02,0,.03h0s0-.02,0-.03h0Z"/>
      <path class="cls-2" d="M98.92,45.69s0,.02,0,.04c.15-.47,.35-.92,.65-1.38v.02c-.28,.43-.49,.86-.64,1.32Z"/>
      <path class="cls-2" d="M102.54,41.71c-.18,.11-.29,.22-.46,.33,.17-.12,.29-.23,.47-.33h0s0,0-.02,0Z"/>
      <path class="cls-2" d="M99.67,44.22s-.03,.04-.05,.07c-.02,.02-.04,.05-.06,.07,.23-.33,.54-.64,.85-.96-.27,.28-.54,.54-.74,.83Z"/>
      <path class="cls-3" d="M171.37,50.2h0s0,0,0,0h0s0,0,.02,0Z"/>
      <path class="cls-2" d="M98.13,48.89s-.02,.02-.04,.04c.02-.02,.03-.02,.04-.04Z"/>
      <path class="cls-2" d="M97.49,49.58s-.11,.07-.16,.11c.05-.03,.12-.08,.16-.11Z"/>
      <path class="cls-2" d="M98.52,48.15s-.04,.07-.06,.11c.02-.04,.04-.08,.06-.11Z"/>
      <path class="cls-2" d="M86.61,50.22v-.02l-22.23-12.83v.02l22.21,12.82s.02,0,.02,0Z"/>
      <path class="cls-2" d="M171.35,50.21h.02s0,0-.02,0Z"/>
      <path class="cls-2" d="M118.32,53.99c.18-.04,.36-.09,.53-.15-.25,.08-.52,.15-.78,.23,.08-.02,.17-.04,.25-.08Z"/>
      <path class="cls-2" d="M120.8,53.01c-.08,.04-.17,.08-.25,.12-.14,.07-.28,.13-.43,.2,.11-.05,.22-.1,.33-.15,.12-.06,.23-.11,.35-.17Z"/>
      <path class="cls-2" d="M118.07,54.07s-.09,.02-.13,.04c-.33,.09-.64,.21-.97,.28h.02c.38-.08,.73-.22,1.09-.33Z"/>
      <path class="cls-2" d="M115.4,54.66c.46-.07,.91-.13,1.36-.23-.59,.13-1.2,.22-1.8,.29,.14-.02,.29-.05,.44-.07Z"/>
      <path class="cls-2" d="M120.8,53.01c.22-.12,.48-.19,.69-.32,.02,0,.02-.02,.03-.02-.23,.13-.48,.22-.72,.33Z"/>
      <path class="cls-2" d="M114.5,54.79h.05c.14-.02,.27-.05,.41-.07-.15,.02-.31,.05-.46,.07Z"/>
      <path class="cls-2" d="M112.14,54.93c.2,0,.37-.03,.56-.03-.3,0-.59,.04-.9,.04,.1,0,.23-.02,.33,0Z"/>
      <path class="cls-2" d="M120.12,53.33c-.37,.17-.74,.33-1.13,.46-.04,.02-.09,.03-.14,.05-.17,.06-.35,.11-.53,.15-.44,.14-.87,.29-1.33,.4h-.02c-.06,.02-.12,.02-.17,.03-.02,0-.03,0-.04,0-.44,.09-.9,.16-1.36,.23-.28,.04-.56,.1-.85,.13h-.06c-.33,.03-.68,.03-1,.06-.26,.02-.52,.03-.79,.04-.19,0-.36,.02-.56,.03-.08,0-.16,0-.25,0,.65,0,1.36,0,2.14-.03,.22,0,.45-.03,.68-.05,.24-.02,.48-.04,.74-.08,.26-.02,.54-.08,.8-.13,.25-.04,.51-.08,.77-.14,.55-.12,1.06-.26,1.51-.41,.02,0,.02,0,.03,0,.49-.17,.92-.34,1.3-.52,.68-.31,1.2-.63,1.62-.88-.33,.18-.69,.32-1.04,.49-.11,.05-.22,.1-.33,.15Z"/>
      <path class="cls-3" d="M169.5,54.04c.03,.08,.06,.15,.09,.23,.02,.02,.03,.02,.04,.04-.05-.09-.1-.2-.14-.3,0,0,0,.02,0,.03Z"/>
      <path class="cls-3" d="M169.33,53.05s0,.03,0,.05c0,.05,0,.11,0,.17,0,.13,.02,.25,.04,.38h0c-.04-.18-.05-.38-.04-.59Z"/>
      <path class="cls-3" d="M169.57,52c-.11,.23-.18,.45-.22,.68h0c.04-.24,.12-.47,.22-.68Z"/>
      <path class="cls-3" d="M169.58,54.25s.02,0,.02,.02c-.03-.08-.06-.16-.09-.23,.02,.07,.04,.14,.07,.21Z"/>
      <path class="cls-2" d="M171.19,50.32c.06-.03,.1-.08,.16-.11,0,0,0,0,.02,0h0c-.05,.03-.11,.08-.17,.12Z"/>
      <path class="cls-2" d="M169.49,54.02c-.05-.13-.09-.25-.13-.38h0c.04,.22,.1,.43,.19,.58,0,0,.02,.02,.02,.03-.03-.07-.05-.14-.07-.21,0,0,0-.02,0-.03Z"/>
      <path class="cls-2" d="M169.33,53.26c0-.06,0-.12,0-.17,0,.06,0,.11,0,.17Z"/>
      <path class="cls-2" d="M169.57,52c.03-.07,.08-.13,.12-.19-.07,.1-.14,.19-.18,.29-.08,.17-.13,.37-.15,.58,.04-.23,.11-.45,.22-.68Z"/>
      <path class="cls-2" d="M170.77,55.6s-.02,0-.02,0c0,0,.02,0,.02,0Z"/>
      <path class="cls-2" d="M173.53,56.84c-.64-.18-1.24-.41-1.8-.69,.59,.3,1.2,.54,1.8,.69Z"/>
      <path class="cls-2" d="M173.75,56.9c.57,.13,1.1,.22,1.54,.26,.3,.03,.7,.04,1,.06v-.02c-.86,0-1.72-.11-2.53-.3Z"/>
      <path class="cls-4" d="M104.89,59.45c.02,.12,.02,.23,.06,.34-.04-.11-.04-.23-.06-.34Z"/>
      <path class="cls-4" d="M105.99,61.28c-.09-.08-.14-.17-.23-.24,.08,.08,.13,.16,.23,.24Z"/>
      <path class="cls-4" d="M105.74,57c-.15,.16-.31,.31-.43,.48-.07,.09-.1,.2-.16,.3-.08,.15-.18,.3-.23,.45-.03,.11-.03,.22-.05,.33-.03,.18-.08,.35-.07,.53v-.08c0-1.04,.68-2.09,2.04-2.89-.34,.2-.64,.41-.9,.64-.09,.08-.14,.16-.22,.24Z"/>
      <path class="cls-4" d="M105.17,60.24c.06,.11,.09,.22,.17,.32-.07-.1-.11-.21-.17-.32Z"/>
      <path class="cls-4" d="M111.72,54.94h0c-1.77,0-3.52,.4-4.88,1.19,1.35-.79,3.1-1.18,4.87-1.19v.1h0s0-.07,0-.1Z"/>
      <path class="cls-2" d="M157.89,60.83c.78,.11,1.52,.29,2.22,.56-.69-.27-1.44-.45-2.22-.56h0Z"/>
      <path class="cls-2" d="M158.57,61.67c.14,.05,.29,.15,.43,.23-.13-.08-.28-.18-.43-.23h0Z"/>
      <path class="cls-2" d="M153.23,61.09h0c.72-.18,1.5-.31,2.27-.35-.32,.02-.61,.1-.93,.14-.45,.07-.91,.1-1.34,.21Z"/>
      <path class="cls-2" d="M155.53,60.73s0,0-.02,0c.75-.04,1.5,0,2.23,.08-.2-.03-.41,0-.61-.03-.54-.04-1.07-.09-1.61-.07Z"/>
      <path class="cls-2" d="M151.23,61.91h0c.51-.29,1.1-.51,1.71-.69-.19,.06-.36,.15-.54,.22-.39,.15-.81,.28-1.16,.48Z"/>
      <path class="cls-2" d="M151.23,61.91h0s0,0-.02,0h0s.02,0,.02,0Z"/>
      <path class="cls-2" d="M105.99,61.28c-.09-.08-.14-.17-.23-.24-.15-.16-.31-.31-.43-.48-.07-.1-.11-.21-.17-.32-.08-.14-.18-.29-.23-.44-.04-.11-.04-.23-.06-.34-.03-.14-.08-.29-.08-.44h0s0,.08,0,.08c.03,1.03,.71,2.06,2.07,2.84h.02s0,0,0,0c-.34-.2-.64-.42-.9-.64Z"/>
      <g>
        <path class="cls-1" d="M163,9.74v.31s0-.02,0-.04c0-.09,0-.19,0-.27Z"/>
        <path class="cls-30" d="M189.61,10.67c-.03,.21-.03,.42-.1,.62-.1,.29-.28,.58-.44,.87-.1,.18-.16,.38-.28,.56-.23,.32-.54,.62-.84,.93-.14,.13-.23,.28-.38,.42-.49,.44-1.05,.84-1.71,1.22-2.69,1.56-6.26,2.3-9.81,2.24-1.76,.03-3.51,.43-4.85,1.2-.34,.2-.64,.42-.9,.64-.09,.07-.15,.17-.23,.25-.15,.15-.31,.3-.42,.46-.07,.1-.1,.19-.15,.29-.08,.15-.18,.31-.24,.47-.03,.11-.03,.22-.05,.33-.19,.97,.21,1.97,1.21,2.81,.23-.19,.48-.38,.76-.54,1.34-.79,3.09-1.17,4.86-1.2,3.54,.06,7.11-.69,9.8-2.25,2.59-1.51,3.9-3.48,3.9-5.45l.02-4.72c0,.28-.08,.56-.14,.84Z"/>
        <path class="cls-29" d="M125.16,26.74c-.03-.21-.03-.42-.11-.63-.09-.29-.28-.58-.44-.86-.11-.19-.17-.39-.3-.58-.22-.31-.53-.59-.81-.89-.15-.15-.26-.32-.43-.47-.49-.43-1.07-.84-1.72-1.22-2.71-1.57-6.29-2.31-9.81-2.26-1.77-.02-3.55-.41-4.91-1.2-.34-.2-.64-.42-.91-.64-.08-.08-.13-.15-.2-.23-.16-.16-.33-.33-.44-.49-.08-.1-.1-.2-.16-.3-.08-.16-.18-.31-.23-.46-.03-.11-.03-.23-.06-.33-.02-.15-.07-.3-.08-.45v4.7c-.02,1.05,.68,2.12,2.07,2.92,1.37,.79,3.14,1.17,4.91,1.2,3.52-.06,7.1,.69,9.81,2.25,1.59,.92,2.64,2.02,3.27,3.18,.44-.77,.69-1.57,.69-2.38,0-.29-.08-.58-.14-.86Z"/>
        <path class="cls-28" d="M189.61,10.67c-.03,.21-.03,.42-.1,.62-.1,.29-.28,.58-.44,.87-.1,.18-.16,.38-.28,.56-.23,.32-.54,.62-.84,.93-.14,.13-.23,.28-.38,.42-.49,.44-1.05,.84-1.71,1.22-2.69,1.56-6.26,2.3-9.81,2.24-1.76,.03-3.51,.43-4.85,1.2-.34,.2-.64,.42-.9,.64-.09,.07-.15,.17-.23,.25-.15,.15-.31,.3-.42,.46-.07,.1-.1,.19-.15,.29-.08,.15-.18,.31-.24,.47-.03,.11-.03,.22-.05,.33-.19,.97,.21,1.97,1.21,2.81,.23-.19,.48-.38,.76-.54,1.34-.79,3.09-1.17,4.86-1.2,3.54,.06,7.11-.69,9.8-2.25,2.59-1.51,3.9-3.48,3.9-5.45l.02-4.72c0,.28-.08,.56-.14,.84Z"/>
        <path class="cls-27" d="M125.16,26.74c-.03-.21-.03-.42-.11-.63-.09-.29-.28-.58-.44-.86-.11-.19-.17-.39-.3-.58-.22-.31-.53-.59-.81-.89-.15-.15-.26-.32-.43-.47-.49-.43-1.07-.84-1.72-1.22-2.71-1.57-6.29-2.31-9.81-2.26-1.77-.02-3.55-.41-4.91-1.2-.34-.2-.64-.42-.91-.64-.08-.08-.13-.15-.2-.23-.16-.16-.33-.33-.44-.49-.08-.1-.1-.2-.16-.3-.08-.16-.18-.31-.23-.46-.03-.11-.03-.23-.06-.33-.02-.15-.07-.3-.08-.45v4.7c-.02,1.05,.68,2.12,2.07,2.92,1.37,.79,3.14,1.17,4.91,1.2,3.52-.06,7.1,.69,9.81,2.25,1.59,.92,2.64,2.02,3.27,3.18,.44-.77,.69-1.57,.69-2.38,0-.29-.08-.58-.14-.86Z"/>
        <path class="cls-31" d="M94.63,47.98c.81-.48,1.21-1.08,1.23-1.62-.12-2.48,1.45-4.98,4.72-6.88,.79-.47,1.62-.85,2.51-1.2,.3-.11,.64-.18,.94-.28,.58-.19,1.15-.39,1.77-.54h0s.05-.02,.08-.03c.1-.02,.21-.03,.31-.06,.78-.18,1.58-.31,2.39-.41,.28-.03,.57-.06,.84-.09,.69-.06,1.36-.1,2.05-.11,.28,0,.54-.02,.82-.02,.93,0,1.86,.06,2.79,.16,.05,0,.11,.02,.17,.02,.86,.1,1.71,.25,2.53,.44,.27,.06,.53,.13,.79,.19,.64,.17,1.26,.36,1.87,.57,.25,.09,.49,.17,.74,.27,.8,.32,1.59,.67,2.3,1.09,.74,.42,1.37,.89,1.94,1.36,.18,.16,.32,.31,.49,.48,.35,.34,.68,.68,.94,1.04,.14,.19,.27,.39,.39,.59,.21,.33,.39,.69,.54,1.04,.08,.2,.16,.4,.22,.61,.11,.37,.16,.74,.19,1.11,.02,.18,.05,.37,.04,.56,0,.48-.09,.98-.23,1.46-.02,.07-.02,.13-.04,.19-.18,.55-.46,1.09-.81,1.61-.11,.16-.25,.3-.38,.46-.23,.29-.49,.59-.79,.87-.08,.08-.13,.17-.23,.24-.1,.1-.21,.2-.33,.29,0,0-.02,.02-.04,.03-.54,.46-1.15,.9-1.85,1.31-3.25,1.89-7.56,2.79-11.76,2.74-1.06,0-2.1,.24-2.91,.71-1.66,.96-1.63,2.53,.03,3.5l20.23,11.69,20.1-11.69c3.36-1.95,8.57-2.21,12.43-.74,.55,.21,1.04,.3,1.56,.74,1.92,1.1,2.84,2.53,2.92,4.04-.08,1.61,.96,3.24,3.1,4.48,4.13,2.38,10.84,2.38,14.95,0,4.11-2.39,4.09-6.27-.05-8.66-2.14-1.24-4.96-1.82-7.9-1.78-2.43-.04-4.9-.58-6.82-1.68-.56-.22-.69-.43-.99-.66-2.86-2.25-2.53-5.42,.96-7.45l20.08-11.67-20.23-11.69c-3.86-2.23-3.88-5.87-.02-8.11,1.87-1.09,4.32-1.63,6.93-1.67,2.8,.05,5.61-.54,7.74-1.77,4.12-2.4,4.11-6.28-.03-8.67-4.13-2.39-10.83-2.39-14.96,0-2.12,1.24-3.15,2.86-3.04,4.57-.07,1.41-1.01,2.83-2.88,3.92-3.86,2.24-10.12,2.26-14.01,.02L128.7,1.22l-20.1,11.68c-1.65,.95-1.64,2.54,.02,3.5,.82,.47,1.89,.7,2.84,.73,4.26-.08,8.6,.84,11.88,2.73,6.34,3.66,6.39,9.61,.09,13.27-6.31,3.66-16.57,3.65-22.91-.02-3.28-1.89-4.88-4.38-4.76-6.77-.04-.64-.44-1.27-1.26-1.74-1.65-.96-4.39-.96-6.06,0l-20.08,11.68,20.23,11.68c1.67,.97,4.37,.97,6.03,0Z"/>
        <path class="cls-32" d="M186.1,59.47c-2.7-1.56-6.29-2.31-9.81-2.27v.02c-.29-.02-.69-.03-1-.06-.43-.04-.97-.13-1.54-.26-.07-.02-.14-.04-.22-.06-.6-.15-1.21-.39-1.8-.69-.33-.17-.67-.32-.96-.55,0,0-.02,0-.02,0-.44-.34-.81-.77-1.11-1.27,0-.02-.02-.02-.04-.04,0-.02,0-.02-.02-.02,0,0,0-.02-.02-.03-.09-.16-.15-.37-.19-.58-.02-.13-.03-.25-.04-.38,0-.06,0-.11,0-.17,0-.02,0-.03,0-.05,0-.13,0-.24,.03-.36h0c.02-.22,.08-.42,.15-.59,.04-.1,.12-.19,.18-.29,.36-.56,.98-1.08,1.51-1.49,.06-.04,.12-.08,.17-.13h0s22.07-12.81,22.07-12.81l-22.22-12.83c-.3-.18-.56-.37-.79-.56-1-.84-1.41-1.84-1.21-2.81,.02-.11,.02-.22,.05-.33,.06-.16,.16-.32,.24-.47,.05-.1,.08-.19,.15-.29,.11-.16,.27-.31,.42-.46,.08-.08,.13-.18,.23-.25,.26-.23,.56-.44,.9-.64,1.34-.78,3.09-1.17,4.85-1.2,3.55,.06,7.12-.68,9.81-2.24,.65-.38,1.22-.79,1.71-1.22,.15-.13,.24-.28,.38-.42,.3-.31,.61-.61,.84-.93,.13-.18,.18-.38,.28-.56,.16-.29,.34-.58,.44-.87,.07-.2,.07-.41,.1-.62,.44-2.27-.79-4.62-3.81-6.36-5.24-3.02-13.71-3.02-18.94,0-2.68,1.56-3.98,3.63-3.86,5.68,0,.02,0,.02,0,.04-.06,1.01-.73,2.01-2.05,2.78-2.76,1.61-7.25,1.61-10.03,0L128.68,0l-22.08,12.83c-1.36,.79-2.05,1.84-2.05,2.89,0,.15,.05,.3,.08,.45,.03,.11,.03,.23,.06,.33,.05,.15,.15,.3,.23,.46,.06,.1,.08,.2,.16,.3,.12,.17,.28,.33,.44,.49,.08,.08,.13,.15,.2,.23,.27,.23,.57,.44,.91,.64,1.36,.79,3.14,1.17,4.91,1.2,3.52-.05,7.1,.69,9.81,2.26,.65,.38,1.23,.79,1.72,1.22,.17,.15,.28,.32,.43,.47,.28,.29,.59,.58,.81,.89,.13,.19,.19,.39,.3,.58,.16,.28,.34,.57,.44,.86,.08,.21,.08,.42,.11,.63,.06,.28,.14,.57,.14,.86,0,.8-.26,1.61-.69,2.38-.62,1.13-1.64,2.19-3.18,3.09-5.2,3.02-13.69,3.01-18.94-.02-2.71-1.56-4.02-3.62-3.93-5.67-.06-1.03-.72-2.05-2.08-2.84-2.77-1.59-7.27-1.59-10.04,.02l-22.07,12.82,22.23,12.83c2.78,1.61,7.23,1.61,10,0h0s0,0,.02,0c.27-.16,.49-.33,.71-.51,.05-.03,.12-.08,.16-.11,.24-.21,.44-.43,.59-.65,.02-.02,.03-.02,.04-.04h0c.13-.2,.23-.4,.31-.6,.02-.04,.06-.09,.07-.13,.05-.16,.06-.31,.08-.47,.02-.08,.05-.17,.05-.26,0,0,0-.02,0-.03h0c-.02-.54,.05-1.07,.21-1.59,0-.02,.02-.03,.02-.05,0-.02,.02-.03,.02-.06,.15-.46,.36-.9,.64-1.32,.02-.03,.05-.08,.08-.11,.02-.02,.03-.03,.04-.04,.2-.28,.48-.55,.74-.83,.46-.48,1.01-.93,1.67-1.35,.17-.12,.28-.23,.46-.33-.27,.12-.23,.13,0,0h0s0,0,0,0c0,0,.02,0,.02,0,0,0,.02-.02,.03-.02q.2-.18,0,0c.37-.21,.79-.38,1.2-.56,.3-.13,.57-.29,.88-.42,.44-.17,.91-.28,1.38-.42,.32-.09,.61-.21,.94-.28,.58-.13,1.18-.22,1.78-.31,.23-.03,.45-.09,.69-.12,.84-.09,1.69-.14,2.54-.14,.06,0,.12,0,.18,0,.79,0,1.59,.04,2.38,.13,.26,.02,.51,.09,.77,.13,.57,.08,1.15,.17,1.71,.29,.28,.07,.55,.18,.84,.25,.5,.14,1.01,.27,1.49,.45,.29,.11,.56,.27,.84,.39,.42,.19,.86,.36,1.25,.58,.02,0,.03,0,.05,.03,.02,0,.02,.02,.04,.02h0c.49,.29,.9,.61,1.3,.93,.13,.1,.29,.19,.4,.29,.49,.43,.9,.88,1.22,1.35,.09,.13,.13,.28,.21,.41,.2,.34,.41,.68,.53,1.03,.06,.18,.05,.38,.09,.56,.06,.3,.15,.61,.15,.92,0,.79-.28,1.59-.7,2.36-.57,1.03-1.5,1.99-2.83,2.84-.13,.08-.23,.18-.37,.26h0s0,0,0,0h0s-.02,.02-.03,.02c.02,0,.03-.02,.05-.02,.08-.03,.18-.06,.26-.08-.1,.03-.21,.05-.31,.11-.42,.25-.94,.57-1.62,.88-.38,.18-.81,.35-1.3,.52,0,0-.02,0-.03,0-.4,.13-.84,.27-1.33,.38-.07,.02-.12,.03-.18,.03-.26,.06-.52,.1-.77,.14-.27,.05-.54,.1-.8,.13-.25,.03-.49,.05-.74,.08-.23,.02-.45,.04-.68,.05-.78,.04-1.49,.04-2.14,.03h-.17s0,.07,0,.1c0,.15,.03,.31,.03,.44,4.2,.05,8.51-.85,11.76-2.74,.7-.41,1.3-.85,1.85-1.31,.02-.02,.03-.02,.04-.04,.12-.09,.23-.18,.33-.28,.09-.08,.14-.17,.23-.24,.29-.28,.55-.58,.79-.87,.13-.16,.27-.3,.38-.46,.35-.53,.63-1.06,.81-1.61,.02-.07,.02-.13,.04-.19,.14-.49,.23-.98,.23-1.46,0-.19-.02-.38-.04-.56-.03-.38-.08-.75-.19-1.11-.06-.21-.14-.41-.22-.61-.14-.35-.33-.7-.54-1.04-.13-.2-.25-.39-.39-.59-.27-.36-.59-.69-.94-1.04-.17-.17-.31-.33-.49-.48-.57-.48-1.2-.95-1.94-1.36-.71-.42-1.5-.77-2.3-1.09-.24-.09-.48-.18-.74-.27-.6-.21-1.22-.4-1.87-.57-.26-.07-.52-.13-.79-.19-.83-.18-1.67-.33-2.53-.44-.06,0-.12-.02-.17-.02-.92-.1-1.86-.15-2.79-.16-.28,0-.54,0-.82,.02-.69,0-1.36,.05-2.05,.11-.28,.03-.56,.06-.84,.09-.81,.1-1.61,.23-2.39,.41-.1,.02-1.58,.44-2.16,.63-.31,.1-.64,.18-.94,.28-.89,.34-1.72,.73-2.51,1.2-3.27,1.9-4.83,4.4-4.72,6.88-.02,.54-.42,1.15-1.23,1.62-1.67,.96-4.36,.96-6.03,0l-20.23-11.68,20.08-11.68c1.66-.97,4.41-.97,6.06,0,.82,.47,1.22,1.1,1.26,1.74-.12,2.38,1.48,4.88,4.76,6.77,6.34,3.66,16.6,3.68,22.91,.02,6.3-3.66,6.25-9.61-.09-13.27-3.28-1.89-7.62-2.8-11.88-2.73-.95-.02-2.02-.26-2.84-.73-1.66-.95-1.67-2.54-.02-3.5L128.7,1.22l20.23,11.68c3.89,2.24,10.15,2.23,14.01-.02,1.87-1.09,2.81-2.5,2.88-3.92-.1-1.71,.92-3.34,3.04-4.57,4.13-2.4,10.83-2.4,14.96,0,4.14,2.38,4.16,6.26,.03,8.67-2.12,1.23-4.94,1.82-7.74,1.77-2.61,.04-5.05,.59-6.93,1.67-3.86,2.24-3.84,5.88,.02,8.11l20.23,11.69-20.08,11.67c-3.5,2.03-3.82,5.2-.96,7.45,.3,.23,.43,.44,.99,.66,1.92,1.1,4.38,1.64,6.82,1.68,2.94-.04,5.76,.54,7.9,1.78,4.14,2.38,4.16,6.27,.05,8.66-4.11,2.38-10.81,2.38-14.95,0-2.14-1.24-3.18-2.86-3.1-4.48-.08-1.51-1-2.94-2.92-4.04-.52-.43-1-.53-1.56-.74-3.86-1.47-9.07-1.21-12.43,.74l-20.1,11.69-20.23-11.69c-1.66-.96-1.69-2.53-.03-3.5,.81-.47,1.85-.7,2.91-.71l-.03-.44v-.1c-1.77,0-3.52,.4-4.88,1.19-1.36,.79-2.04,1.84-2.04,2.89,0,.15,.04,.3,.08,.44,.02,.12,.02,.23,.06,.34,.05,.15,.14,.3,.23,.44,.06,.11,.09,.22,.17,.32,.12,.17,.28,.32,.43,.48,.08,.08,.13,.16,.23,.24,.26,.23,.56,.44,.9,.64l22.23,12.83,22.07-12.82h.02s.02-.02,.02-.02c.35-.2,.77-.33,1.16-.48,.28-.11,.54-.26,.84-.34,.43-.11,.89-.14,1.34-.21,.33-.04,.63-.13,.96-.15,.54-.02,1.07,.02,1.61,.07,.25,.03,.5,0,.75,.03,.78,.11,1.52,.29,2.22,.56,.39,.15,.77,.33,1.11,.53,1.02,.58,1.66,1.31,1.93,2.07,.09,.26,.14,.51,.16,.77-.09,2.05,1.22,4.11,3.93,5.67,5.24,3.03,13.72,3.03,18.92,0,5.2-3.02,5.18-7.93-.07-10.96Z"/>
        <path class="cls-8" d="M94.63,47.98c.81-.48,1.21-1.08,1.23-1.62-.12-2.48,1.45-4.98,4.72-6.88,.79-.47,1.62-.85,2.51-1.2,.3-.11,.64-.18,.94-.28,.58-.19,1.15-.39,1.77-.54h0s.05-.02,.08-.03c.1-.02,.21-.03,.31-.06,.78-.18,1.58-.31,2.39-.41,.28-.03,.57-.06,.84-.09,.69-.06,1.36-.1,2.05-.11,.28,0,.54-.02,.82-.02,.93,0,1.86,.06,2.79,.16,.05,0,.11,.02,.17,.02,.86,.1,1.71,.25,2.53,.44,.27,.06,.53,.13,.79,.19,.64,.17,1.26,.36,1.87,.57,.25,.09,.49,.17,.74,.27,.8,.32,1.59,.67,2.3,1.09,.74,.42,1.37,.89,1.94,1.36,.18,.16,.32,.31,.49,.48,.35,.34,.68,.68,.94,1.04,.14,.19,.27,.39,.39,.59,.21,.33,.39,.69,.54,1.04,.08,.2,.16,.4,.22,.61,.11,.37,.16,.74,.19,1.11,.02,.18,.05,.37,.04,.56,0,.48-.09,.98-.23,1.46-.02,.07-.02,.13-.04,.19-.18,.55-.46,1.09-.81,1.61-.11,.16-.25,.3-.38,.46-.23,.29-.49,.59-.79,.87-.08,.08-.13,.17-.23,.24-.1,.1-.21,.2-.33,.29,0,0-.02,.02-.04,.03-.54,.46-1.15,.9-1.85,1.31-3.25,1.89-7.56,2.79-11.76,2.74-1.06,0-2.1,.24-2.91,.71-1.66,.96-1.63,2.53,.03,3.5l20.23,11.69,20.1-11.69c3.36-1.95,8.57-2.21,12.43-.74,.55,.21,1.04,.3,1.56,.74,1.92,1.1,2.84,2.53,2.92,4.04-.08,1.61,.96,3.24,3.1,4.48,4.13,2.38,10.84,2.38,14.95,0,4.11-2.39,4.09-6.27-.05-8.66-2.14-1.24-4.96-1.82-7.9-1.78-2.43-.04-4.9-.58-6.82-1.68-.56-.22-.69-.43-.99-.66-2.86-2.25-2.53-5.42,.96-7.45l20.08-11.67-20.23-11.69c-3.86-2.23-3.88-5.87-.02-8.11,1.87-1.09,4.32-1.63,6.93-1.67,2.8,.05,5.61-.54,7.74-1.77,4.12-2.4,4.11-6.28-.03-8.67-4.13-2.39-10.83-2.39-14.96,0-2.12,1.24-3.15,2.86-3.04,4.57-.07,1.41-1.01,2.83-2.88,3.92-3.86,2.24-10.12,2.26-14.01,.02L128.7,1.22l-20.1,11.68c-1.65,.95-1.64,2.54,.02,3.5,.82,.47,1.89,.7,2.84,.73,4.26-.08,8.6,.84,11.88,2.73,6.34,3.66,6.39,9.61,.09,13.27-6.31,3.66-16.57,3.65-22.91-.02-3.28-1.89-4.88-4.38-4.76-6.77-.04-.64-.44-1.27-1.26-1.74-1.65-.96-4.39-.96-6.06,0l-20.08,11.68,20.23,11.68c1.67,.97,4.37,.97,6.03,0Z"/>
        <path class="cls-14" d="M186.06,59.48c-2.71-1.56-6.29-2.31-9.81-2.26h0c-.3-.02-.69-.03-1-.05-.44-.04-.98-.13-1.55-.26-.07-.02-.14-.05-.21-.07-.6-.15-1.2-.38-1.8-.69-.33-.18-.67-.33-.96-.56,0,0-.02,0-.02,0-.44-.33-.81-.77-1.11-1.26,0-.02-.02-.03-.04-.05,0,0,0,0-.02-.02,0,0-.02-.02-.02-.03-.09-.17-.15-.38-.19-.59-.02-.12-.04-.24-.04-.37,0-.06,0-.12,0-.18,0-.02,0-.03,0-.05,0-.13,0-.24,.02-.36h0c.02-.22,.08-.42,.14-.58,.05-.1,.13-.2,.18-.29,.37-.56,.99-1.08,1.51-1.49,.06-.04,.12-.09,.17-.13h0s22.07-12.82,22.07-12.82l-22.23-12.83c-.3-.17-.55-.36-.79-.56-1.01-.83-1.4-1.83-1.21-2.81,.02-.11,.02-.22,.05-.32,.06-.16,.16-.32,.24-.48,.05-.09,.08-.19,.14-.28,.12-.16,.28-.31,.43-.47,.08-.08,.13-.17,.23-.25,.25-.23,.55-.44,.9-.64,1.33-.78,3.09-1.17,4.85-1.21,3.55,.05,7.12-.69,9.81-2.25,.64-.38,1.21-.79,1.71-1.21,.15-.13,.24-.28,.38-.43,.29-.3,.61-.6,.83-.92,.13-.18,.19-.38,.29-.57,.16-.28,.34-.57,.44-.86,.07-.21,.06-.42,.1-.63,.44-2.26-.79-4.62-3.81-6.35-5.24-3.03-13.71-3.03-18.94,0-2.69,1.56-3.98,3.62-3.86,5.68,0,0,0,.03,0,.04-.07,1.01-.73,2.01-2.05,2.77-2.76,1.61-7.25,1.62-10.03,.02L128.64,0l-22.08,12.84c-1.36,.79-2.05,1.84-2.05,2.89,0,.15,.05,.3,.08,.46,.02,.11,.02,.22,.06,.33,.05,.16,.15,.31,.23,.46,.05,.1,.08,.21,.15,.31,.13,.17,.29,.33,.45,.49,.08,.07,.13,.15,.2,.22,.26,.23,.56,.44,.91,.64,1.36,.79,3.14,1.17,4.9,1.2,3.53-.05,7.11,.69,9.82,2.26,.65,.38,1.23,.79,1.72,1.22,.17,.15,.28,.31,.43,.47,.28,.29,.59,.58,.8,.89,.13,.18,.2,.38,.31,.58,.15,.28,.33,.57,.44,.86,.08,.2,.07,.42,.11,.63,.06,.28,.14,.57,.14,.85,0,.81-.26,1.61-.69,2.38-.62,1.12-1.64,2.19-3.18,3.08-5.2,3.03-13.7,3.02-18.94,0-2.71-1.56-4.02-3.63-3.93-5.68-.06-1.02-.73-2.05-2.09-2.84-2.76-1.6-7.27-1.6-10.03,0l-22.07,12.82,22.22,12.84c2.78,1.6,7.24,1.61,10,0h.02c.27-.16,.49-.33,.71-.51,.05-.04,.11-.08,.16-.12,.23-.2,.43-.43,.59-.64,0-.02,.03-.03,.04-.05h0c.14-.19,.23-.39,.32-.59,.02-.05,.05-.09,.07-.14,.06-.15,.07-.31,.09-.46,.02-.09,.04-.18,.05-.26,0,0,0-.03,0-.03h0c-.03-.54,.05-1.07,.21-1.6,0-.02,0-.03,.02-.05,0-.02,.03-.03,.03-.05,.15-.46,.35-.9,.64-1.32,.02-.04,.05-.08,.08-.11,0-.02,.03-.03,.04-.05,.2-.28,.48-.55,.74-.82,.46-.48,1.01-.93,1.66-1.35,.17-.12,.28-.22,.46-.33-.27,.11-.24,.13,0,0h0s.02,0,.02,0c0,0,.02,0,.03-.02q.2-.17,0,0c.37-.2,.79-.37,1.2-.55,.3-.14,.57-.3,.88-.42,.44-.17,.91-.28,1.38-.42,.31-.09,.61-.22,.94-.28,.58-.14,1.18-.23,1.78-.31,.23-.03,.45-.09,.69-.12,.84-.09,1.69-.14,2.54-.14,.06,0,.12,0,.17,0,.8,0,1.6,.04,2.38,.13,.26,.03,.51,.09,.77,.13,.57,.08,1.15,.16,1.71,.29,.28,.07,.55,.17,.83,.25,.51,.14,1.02,.27,1.49,.44,.3,.12,.57,.28,.85,.4,.42,.19,.85,.36,1.25,.59,.02,0,.03,.02,.05,.02,0,0,.03,.02,.03,.03h.02c.49,.29,.9,.61,1.3,.93,.12,.09,.28,.18,.4,.28,.49,.43,.9,.88,1.22,1.35,.09,.13,.13,.27,.21,.41,.2,.33,.41,.68,.52,1.02,.07,.19,.06,.38,.09,.56,.07,.31,.15,.61,.15,.92,0,.8-.27,1.6-.69,2.37-.57,1.02-1.5,1.99-2.83,2.83-.13,.09-.23,.18-.37,.27h-.02s-.02,.02-.03,.02c.02,0,.03-.02,.05-.02,.07-.03,.18-.06,.26-.08-.11,.02-.21,.04-.31,.1-.42,.26-.94,.57-1.62,.89-.38,.18-.81,.35-1.3,.51,0,0-.02,0-.03,0-.4,.14-.84,.27-1.33,.38-.07,.02-.13,.02-.18,.03-.27,.06-.52,.09-.77,.13-.28,.05-.54,.1-.8,.13-.25,.04-.49,.06-.74,.08-.23,.02-.46,.04-.68,.06-.78,.04-1.49,.04-2.14,.03h-.17s0,.07,0,.1c0,.14,.02,.31,.03,.44,4.2,.04,8.51-.85,11.76-2.74,.7-.41,1.3-.86,1.85-1.32,.02,0,.03-.02,.04-.03,.11-.09,.23-.19,.33-.28,.09-.08,.14-.17,.23-.25,.28-.28,.55-.57,.79-.87,.12-.15,.27-.3,.37-.46,.36-.52,.64-1.06,.82-1.61,.03-.07,.02-.13,.04-.2,.14-.49,.23-.97,.23-1.46,0-.18-.03-.37-.04-.55-.03-.38-.08-.75-.19-1.12-.06-.2-.14-.4-.23-.61-.14-.35-.32-.69-.54-1.04-.12-.19-.24-.39-.38-.59-.28-.35-.6-.69-.94-1.03-.17-.16-.31-.33-.49-.48-.56-.48-1.2-.94-1.93-1.37-.72-.41-1.5-.76-2.3-1.08-.24-.1-.49-.18-.74-.27-.6-.22-1.23-.4-1.87-.57-.26-.07-.52-.14-.79-.2-.83-.18-1.67-.33-2.53-.44-.06,0-.12-.02-.18-.02-.91-.1-1.85-.14-2.78-.15-.28,0-.54,0-.82,.02-.69,0-1.37,.05-2.05,.1-.28,.03-.56,.06-.84,.09-.81,.11-1.61,.24-2.4,.42-.1,.02-1.57,.43-2.16,.62-.31,.1-.64,.18-.94,.29-.89,.34-1.73,.74-2.51,1.19-3.27,1.91-4.83,4.4-4.72,6.89-.02,.54-.42,1.15-1.23,1.61-1.67,.97-4.36,.97-6.03,0l-20.24-11.69,20.09-11.67c1.66-.97,4.4-.97,6.06-.02,.81,.48,1.22,1.1,1.26,1.74-.12,2.38,1.48,4.88,4.76,6.77,6.34,3.67,16.6,3.68,22.91,.02,6.3-3.67,6.24-9.61-.09-13.27-3.29-1.89-7.62-2.79-11.88-2.73-.95-.02-2.03-.25-2.84-.73-1.67-.95-1.67-2.54-.02-3.5L128.66,1.22l20.23,11.68c3.89,2.24,10.15,2.23,14.01,0,1.87-1.09,2.8-2.5,2.87-3.92-.09-1.71,.93-3.34,3.05-4.57,4.12-2.39,10.83-2.39,14.96,0,4.13,2.39,4.16,6.27,.03,8.67-2.12,1.24-4.93,1.82-7.74,1.77-2.62,.04-5.06,.59-6.93,1.68-3.86,2.24-3.84,5.87,.02,8.11l20.23,11.68-20.08,11.68c-3.5,2.03-3.82,5.19-.96,7.44,.29,.23,.43,.44,.99,.67,1.92,1.1,4.38,1.63,6.81,1.67,2.94-.04,5.77,.55,7.91,1.78,4.13,2.39,4.16,6.27,.05,8.66s-10.82,2.38-14.95,0c-2.14-1.24-3.18-2.85-3.1-4.48-.08-1.51-1-2.94-2.92-4.04-.52-.43-1-.52-1.56-.73-3.86-1.47-9.07-1.22-12.43,.73l-20.11,11.69-20.23-11.69c-1.66-.95-1.68-2.53-.02-3.49,.81-.47,1.85-.7,2.91-.71l-.03-.44v-.11c-1.77,.02-3.52,.41-4.88,1.19-1.37,.79-2.05,1.85-2.04,2.89,0,.14,.04,.29,.08,.44,.02,.11,.02,.23,.06,.34,.05,.15,.14,.29,.23,.44,.06,.1,.09,.21,.17,.32,.11,.16,.28,.32,.43,.47,.08,.08,.13,.17,.22,.24,.27,.23,.57,.44,.91,.64l22.23,12.83,22.07-12.82h.02s0,0,0,0c.36-.21,.78-.33,1.17-.48,.28-.11,.54-.26,.85-.34,.43-.12,.89-.15,1.34-.21,.33-.05,.63-.13,.95-.15,.54-.03,1.07,.02,1.61,.07,.25,.02,.51,0,.76,.03,.78,.11,1.52,.29,2.22,.55,.39,.15,.76,.33,1.11,.53,1.02,.59,1.66,1.31,1.93,2.07,.09,.25,.14,.51,.16,.76-.1,2.06,1.22,4.12,3.93,5.68,5.24,3.03,13.71,3.03,18.92,0,5.2-3.03,5.17-7.94-.07-10.96Z"/>
      </g>
      <path class="cls-3" d="M227.73,47.14v.27s0-.02,0-.03c0-.09,0-.16,0-.23Z"/>
      <path class="cls-12" d="M254.36,48.04c-.04,.21-.03,.42-.11,.63-.09,.3-.28,.59-.44,.89-.1,.18-.16,.37-.28,.54-.23,.33-.54,.64-.84,.94-.13,.13-.23,.28-.37,.41-.49,.44-1.06,.84-1.71,1.22-2.68,1.56-6.26,2.31-9.8,2.24-1.77,.03-3.52,.43-4.86,1.21-.34,.2-.64,.42-.9,.64-.08,.08-.14,.16-.23,.25-.14,.15-.3,.3-.42,.46-.07,.1-.1,.2-.15,.3-.08,.16-.18,.31-.23,.46-.03,.12-.03,.23-.06,.34-.18,.97,.22,1.97,1.22,2.79,.23-.19,.47-.38,.76-.54,1.34-.78,3.09-1.17,4.86-1.2,3.54,.06,7.11-.69,9.8-2.25,2.59-1.51,3.89-3.48,3.9-5.45l.02-4.71c0,.28-.09,.55-.14,.83Z"/>
      <path class="cls-19" d="M236.12,87.58c-.35,.2-.65,.42-.91,.64-.08,.08-.13,.16-.21,.24-.16,.15-.32,.31-.43,.47-.07,.1-.1,.21-.16,.31-.08,.15-.18,.3-.23,.45-.04,.12-.04,.23-.06,.35-.18,.96,.22,1.95,1.22,2.79,.23-.19,.47-.38,.76-.54l22.07-12.82,.02-4.71-22.07,12.82Z"/>
      <path class="cls-20" d="M186.21,83.79c1.58,.91,2.63,2.01,3.26,3.16,.43-.78,.69-1.57,.69-2.38,0-.28-.08-.56-.13-.84-.04-.21-.04-.43-.11-.64-.1-.28-.28-.56-.44-.85-.11-.19-.18-.4-.31-.59-.22-.32-.54-.62-.83-.92-.14-.14-.24-.29-.4-.44-.49-.43-1.07-.84-1.72-1.22-5.26-3.03-13.73-3.03-18.94,0-.67,.39-1.24,.8-1.73,1.24-.16,.15-.27,.31-.41,.45-.29,.31-.58,.61-.8,.92-.13,.19-.19,.39-.29,.59-.16,.28-.32,.58-.41,.87-.07,.22-.08,.43-.11,.64-.06,.33-.13,.66-.12,.98-.02,1.03-.72,2.05-2.06,2.83-2.76,1.61-7.23,1.61-10.01,0l-22.22-12.83-.02,4.71,22.23,12.83c2.78,1.61,7.25,1.61,10.01,0,1.34-.78,2.02-1.8,2.06-2.82v-.32c.02-1.95,1.3-3.88,3.86-5.38,5.2-3.02,13.68-3.02,18.94,.02Z"/>
      <path class="cls-13" d="M254.36,48.04c-.04,.21-.03,.42-.11,.63-.09,.3-.28,.59-.44,.89-.1,.18-.16,.37-.28,.54-.23,.33-.54,.64-.84,.94-.13,.13-.23,.28-.37,.41-.49,.44-1.06,.84-1.71,1.22-2.68,1.56-6.26,2.31-9.8,2.24-1.77,.03-3.52,.43-4.86,1.21-.34,.2-.64,.42-.9,.64-.08,.08-.14,.16-.23,.25-.14,.15-.3,.3-.42,.46-.07,.1-.1,.2-.15,.3-.08,.16-.18,.31-.23,.46-.03,.12-.03,.23-.06,.34-.18,.97,.22,1.97,1.22,2.79,.23-.19,.47-.38,.76-.54,1.34-.78,3.09-1.17,4.86-1.2,3.54,.06,7.11-.69,9.8-2.25,2.59-1.51,3.89-3.48,3.9-5.45l.02-4.71c0,.28-.09,.55-.14,.83Z"/>
      <path class="cls-38" d="M233.97,62c-3.86-2.23-3.89-5.87-.03-8.11,1.87-1.09,4.32-1.63,6.93-1.67,2.79,.05,5.61-.54,7.73-1.77,4.13-2.4,4.11-6.28-.02-8.67-4.16-2.4-10.86-2.4-14.98,0-2.12,1.23-3.14,2.87-3.05,4.56-.04,1.43-.99,2.84-2.86,3.94-3.85,2.24-10.11,2.26-14,.02l-20.23-11.69-20.1,11.69c-1.51,.87-1.65,2.24-.41,3.2,.13,.1,.47,.21,.43,.29,.81,.47,1.89,.7,2.84,.73,4.26-.07,8.59,.84,11.87,2.73,6.35,3.65,6.38,9.59,.08,13.26-6.3,3.66-16.55,3.66-22.88,0-3.28-1.89-4.88-4.39-4.77-6.77-.03-.64-.44-1.27-1.25-1.74-.08,0-.16-.04-.25-.09-.13-.08-.28-.18-.43-.23h0c-.83-.32-1.81-.45-2.77-.39-.95,.06-1.88,.29-2.61,.72l-20.09,11.68,20.23,11.68c1.68,.97,4.37,.97,6.05,0,.8-.47,1.22-1.09,1.24-1.61-.14-2.48,1.41-4.99,4.68-6.9,6.3-3.66,16.55-3.66,22.91,.02,6.34,3.66,6.37,9.59,.08,13.26-3.28,1.91-7.6,2.81-11.76,2.74-1.06,0-2.12,.25-2.92,.72-1.66,.96-1.65,2.53,.02,3.5l20.23,11.69,20.11-11.69c3.84-2.23,10.1-2.24,13.98,0,1.92,1.1,2.84,2.53,2.9,4.02-.06,1.64,.98,3.26,3.12,4.5,4.13,2.38,10.84,2.38,14.94,0,4.12-2.39,4.09-6.27-.04-8.66-2.14-1.24-4.97-1.82-7.9-1.79-2.43-.03-4.9-.57-6.82-1.67-3.89-2.24-3.88-5.87-.02-8.11l20.08-11.67-20.23-11.68Z"/>
      <g>
        <path class="cls-41" d="M186.21,83.79c1.58,.91,2.63,2.01,3.26,3.16,.43-.78,.69-1.57,.69-2.38,0-.28-.08-.56-.13-.84-.04-.21-.04-.43-.11-.64-.1-.28-.28-.56-.44-.85-.11-.19-.18-.4-.31-.59-.22-.32-.54-.62-.83-.92-.14-.14-.24-.29-.4-.44-.49-.43-1.07-.84-1.72-1.22-5.26-3.03-13.73-3.03-18.94,0-.67,.39-1.24,.8-1.73,1.24-.16,.15-.27,.31-.41,.45-.29,.31-.58,.61-.8,.92-.13,.19-.19,.39-.29,.59-.16,.28-.32,.58-.41,.87-.07,.22-.08,.43-.11,.64-.06,.33-.13,.66-.12,.98-.02,1.03-.72,2.05-2.06,2.83-2.76,1.61-7.23,1.61-10.01,0l-22.22-12.83-.02,4.71,22.23,12.83c2.78,1.61,7.25,1.61,10.01,0,1.34-.78,2.02-1.8,2.06-2.82v-.32c.02-1.95,1.3-3.88,3.86-5.38,5.2-3.02,13.68-3.02,18.94,.02Z"/>
        <path class="cls-43" d="M236.12,87.58c-.35,.2-.65,.42-.91,.64-.08,.08-.13,.16-.21,.24-.16,.15-.32,.31-.43,.47-.07,.1-.1,.21-.16,.31-.08,.15-.18,.3-.23,.45-.04,.12-.04,.23-.06,.35-.18,.96,.22,1.95,1.22,2.79,.23-.19,.47-.38,.76-.54l22.07-12.82,.02-4.71-22.07,12.82Z"/>
        <path class="cls-44" d="M254.55,103.83c-.1,.29-.28,.57-.43,.85-.1,.19-.16,.39-.29,.58-.22,.31-.53,.61-.82,.9-.14,.14-.23,.29-.39,.44-.49,.43-1.05,.83-1.71,1.21-5.2,3.02-13.68,3.02-18.91,0-.67-.39-1.25-.81-1.75-1.25-.18-.15-.29-.32-.44-.47-.28-.3-.59-.59-.81-.91-.13-.19-.19-.39-.3-.59-.15-.28-.33-.58-.43-.88-.07-.21-.07-.43-.11-.64-.04-.26-.12-.51-.12-.77v-.18c-.04-1.03-.71-2.04-2.07-2.83-2.79-1.61-7.27-1.6-10.01,0l-22.08,12.83-22.23-12.83c-.34-.2-.65-.42-.91-.64-.08-.07-.12-.15-.19-.22-.17-.17-.33-.33-.46-.5-.07-.09-.09-.19-.15-.29-.08-.16-.18-.31-.24-.47-.03-.12-.03-.23-.06-.34-.02-.15-.07-.3-.07-.44,0,0,0,0,0-.02v4.71c-.02,1.06,.69,2.12,2.07,2.93l22.23,12.83,22.08-12.83c2.74-1.6,7.24-1.61,10.01,0,1.36,.78,2.02,1.8,2.07,2.81v.17c0,2.02,1.3,4.02,3.95,5.54,5.24,3.02,13.72,3.02,18.92,0,2.58-1.51,3.88-3.47,3.88-5.45l.02-4.71c0,.28-.08,.54-.13,.81-.04,.22-.04,.43-.11,.64Z"/>
      </g>
      <path class="cls-21" d="M254.55,103.83c-.1,.29-.28,.57-.43,.85-.1,.19-.16,.39-.29,.58-.22,.31-.53,.61-.82,.9-.14,.14-.23,.29-.39,.44-.49,.43-1.05,.83-1.71,1.21-5.2,3.02-13.68,3.02-18.91,0-.67-.39-1.25-.81-1.75-1.25-.18-.15-.29-.32-.44-.47-.28-.3-.59-.59-.81-.91-.13-.19-.19-.39-.3-.59-.15-.28-.33-.58-.43-.88-.07-.21-.07-.43-.11-.64-.04-.26-.12-.51-.12-.77v-.18c-.04-1.03-.71-2.04-2.07-2.83-2.79-1.61-7.27-1.6-10.01,0l-22.08,12.83-22.23-12.83c-.34-.2-.65-.42-.91-.64-.08-.07-.12-.15-.19-.22-.17-.17-.33-.33-.46-.5-.07-.09-.09-.19-.15-.29-.08-.16-.18-.31-.24-.47-.03-.12-.03-.23-.06-.34-.02-.15-.07-.3-.07-.44,0,0,0,0,0-.02v4.71c-.02,1.06,.69,2.12,2.07,2.93l22.23,12.83,22.08-12.83c2.74-1.6,7.24-1.61,10.01,0,1.36,.78,2.02,1.8,2.07,2.81v.17c0,2.02,1.3,4.02,3.95,5.54,5.24,3.02,13.72,3.02,18.92,0,2.58-1.51,3.88-3.47,3.88-5.45l.02-4.71c0,.28-.08,.54-.13,.81-.04,.22-.04,.43-.11,.64Z"/>
      <path class="cls-42" d="M250.84,96.85c-2.71-1.56-6.29-2.31-9.83-2.27-1.76-.02-3.53-.4-4.89-1.19-.3-.18-.55-.37-.79-.56-1-.84-1.41-1.82-1.22-2.79,.02-.12,.02-.23,.06-.35,.05-.15,.15-.3,.23-.45,.06-.1,.09-.21,.16-.31,.12-.16,.28-.32,.43-.47,.08-.08,.13-.17,.21-.24,.26-.23,.56-.44,.91-.64l22.07-12.82-22.23-12.83c-.3-.18-.55-.37-.79-.56-1-.83-1.4-1.82-1.22-2.79,.02-.12,.02-.23,.06-.34,.05-.15,.15-.3,.23-.46,.05-.1,.08-.2,.15-.3,.12-.16,.28-.31,.42-.46,.08-.09,.14-.17,.23-.25,.26-.23,.56-.44,.9-.64,1.34-.78,3.09-1.17,4.86-1.21,3.54,.07,7.12-.68,9.8-2.24,.65-.38,1.22-.79,1.71-1.22,.14-.13,.23-.28,.37-.41,.31-.3,.62-.61,.84-.94,.13-.18,.18-.36,.28-.54,.16-.29,.35-.58,.44-.89,.08-.21,.07-.42,.11-.63,.43-2.27-.8-4.61-3.81-6.35-5.25-3.04-13.73-3.04-18.95,0-2.69,1.56-3.96,3.64-3.86,5.68,0,0,0,.03,0,.03-.04,1.02-.71,2.02-2.03,2.79-2.76,1.61-7.25,1.61-10.04,0l-22.22-12.83-22.07,12.82h0s-.02,0-.02,0h0c-.06,.03-.1,.08-.16,.11-.53,.41-1.15,.93-1.51,1.49-.04,.07-.08,.13-.12,.19-.1,.21-.18,.44-.22,.69-.02,.12-.03,.23-.03,.36,0,.21,0,.41,.04,.59,.03,.13,.08,.25,.13,.38,.04,.1,.09,.21,.14,.3,.3,.5,.68,.93,1.11,1.27,0,0,.02,0,.02,0,.29,.23,.64,.38,.96,.55,.56,.28,1.15,.52,1.8,.69,.07,.02,.14,.04,.22,.06,.81,.19,1.67,.3,2.53,.3,3.52-.04,7.11,.7,9.81,2.27,5.24,3.03,5.27,7.94,.07,10.96-5.2,3.03-13.68,3.03-18.92,0-2.71-1.56-4.02-3.62-3.93-5.67-.02-.26-.07-.51-.16-.77-.28-.75-.91-1.48-1.93-2.07-.34-.2-.72-.38-1.11-.53-.69-.27-1.44-.45-2.22-.56-.05,0-.1,0-.14,0-.74-.09-1.49-.13-2.23-.08h-.02c-.78,.04-1.56,.17-2.28,.36-.1,.03-.18,.08-.28,.12-.61,.18-1.2,.4-1.71,.69,0,0,0,0-.02,0h-.02s-22.07,12.83-22.07,12.83l22.22,12.83c2.79,1.61,7.25,1.61,10.01,0,1.34-.78,2.03-1.8,2.06-2.83-.02-.32,.06-.65,.12-.98,.03-.22,.04-.43,.11-.64,.09-.29,.25-.58,.41-.87,.1-.2,.17-.39,.29-.59,.22-.31,.51-.61,.8-.92,.14-.14,.25-.3,.41-.45,.49-.44,1.06-.85,1.73-1.24,5.2-3.02,13.68-3.02,18.94,0,.65,.38,1.23,.79,1.72,1.22,.16,.14,.26,.29,.4,.44,.29,.3,.61,.6,.83,.92,.13,.19,.2,.4,.31,.59,.15,.28,.33,.56,.44,.85,.07,.22,.07,.43,.11,.64,.05,.28,.13,.56,.13,.84,0,.8-.27,1.6-.69,2.38-.63,1.12-1.65,2.19-3.19,3.09-2.71,1.57-6.28,2.32-9.8,2.27-1.77,0-3.54,.41-4.88,1.19-1.37,.8-2.06,1.85-2.05,2.89,0,.14,.04,.29,.07,.44,.02,.11,.02,.23,.06,.34,.06,.16,.16,.31,.24,.47,.06,.1,.08,.2,.15,.29,.13,.18,.29,.33,.46,.5,.07,.07,.12,.14,.19,.22,.26,.23,.57,.44,.91,.64l22.23,12.83,22.08-12.83c2.74-1.6,7.23-1.61,10.01,0,1.36,.79,2.03,1.8,2.07,2.83-.02,.31,.07,.63,.12,.95,.04,.22,.04,.44,.11,.64,.1,.3,.28,.59,.43,.88,.11,.2,.18,.4,.3,.59,.22,.32,.53,.61,.81,.91,.15,.15,.26,.32,.44,.47,.49,.44,1.08,.85,1.75,1.25,5.24,3.02,13.71,3.02,18.91,0,.65-.38,1.22-.79,1.71-1.21,.16-.15,.25-.3,.39-.44,.29-.29,.6-.59,.82-.9,.13-.18,.19-.39,.29-.58,.16-.28,.33-.56,.43-.85,.07-.21,.07-.43,.11-.64,.42-2.26-.82-4.6-3.81-6.33Zm-1.93,8.73c-4.1,2.38-10.81,2.38-14.94,0-2.14-1.24-3.18-2.86-3.12-4.5-.06-1.48-.99-2.91-2.9-4.02-3.89-2.24-10.15-2.23-13.98,0l-20.11,11.69-20.23-11.69c-1.66-.96-1.68-2.53-.02-3.5,.8-.47,1.86-.71,2.92-.72,4.16,.07,8.48-.84,11.76-2.74,6.3-3.66,6.27-9.59-.08-13.26-6.36-3.67-16.61-3.67-22.91-.02-3.28,1.91-4.83,4.42-4.68,6.9-.02,.53-.43,1.15-1.24,1.61-1.67,.97-4.37,.97-6.05,0l-20.23-11.68,20.09-11.68c.73-.43,1.66-.66,2.61-.72,.96-.06,1.94,.08,2.77,.39h0c.14,.05,.29,.15,.43,.23,.09,.05,.18,.1,.25,.09,.81,.47,1.22,1.1,1.25,1.74-.11,2.38,1.49,4.88,4.77,6.77,6.34,3.66,16.59,3.66,22.88,0,6.31-3.66,6.27-9.6-.08-13.26-3.28-1.9-7.61-2.8-11.87-2.73-.95-.03-2.03-.26-2.84-.73,.04-.08-.3-.19-.43-.29-1.24-.96-1.1-2.33,.41-3.2l20.1-11.69,20.23,11.69c3.89,2.24,10.15,2.23,14-.02,1.87-1.1,2.82-2.51,2.86-3.94-.08-1.69,.93-3.33,3.05-4.56,4.12-2.4,10.82-2.4,14.98,0,4.13,2.38,4.16,6.27,.02,8.67-2.12,1.23-4.94,1.82-7.73,1.77-2.62,.04-5.06,.59-6.93,1.67-3.86,2.24-3.83,5.88,.03,8.11l20.23,11.68-20.08,11.67c-3.86,2.24-3.86,5.87,.02,8.11,1.92,1.1,4.39,1.64,6.82,1.67,2.94-.03,5.76,.55,7.9,1.79,4.13,2.38,4.16,6.26,.04,8.66Z"/>
      <path class="cls-11" d="M233.97,62c-3.86-2.23-3.89-5.87-.03-8.11,1.87-1.09,4.32-1.63,6.93-1.67,2.79,.05,5.61-.54,7.73-1.77,4.13-2.4,4.11-6.28-.02-8.67-4.16-2.4-10.86-2.4-14.98,0-2.12,1.23-3.14,2.87-3.05,4.56-.04,1.43-.99,2.84-2.86,3.94-3.85,2.24-10.11,2.26-14,.02l-20.23-11.69-20.1,11.69c-1.51,.87-1.65,2.24-.41,3.2,.13,.1,.47,.21,.43,.29,.81,.47,1.89,.7,2.84,.73,4.26-.07,8.59,.84,11.87,2.73,6.35,3.65,6.38,9.59,.08,13.26-6.3,3.66-16.55,3.66-22.88,0-3.28-1.89-4.88-4.39-4.77-6.77-.03-.64-.44-1.27-1.25-1.74-.08,0-.16-.04-.25-.09-.13-.08-.28-.18-.43-.23h0c-.83-.32-1.81-.45-2.77-.39-.95,.06-1.88,.29-2.61,.72l-20.09,11.68,20.23,11.68c1.68,.97,4.37,.97,6.05,0,.8-.47,1.22-1.09,1.24-1.61-.14-2.48,1.41-4.99,4.68-6.9,6.3-3.66,16.55-3.66,22.91,.02,6.34,3.66,6.37,9.59,.08,13.26-3.28,1.91-7.6,2.81-11.76,2.74-1.06,0-2.12,.25-2.92,.72-1.66,.96-1.65,2.53,.02,3.5l20.23,11.69,20.11-11.69c3.84-2.23,10.1-2.24,13.98,0,1.92,1.1,2.84,2.53,2.9,4.02-.06,1.64,.98,3.26,3.12,4.5,4.13,2.38,10.84,2.38,14.94,0,4.12-2.39,4.09-6.27-.04-8.66-2.14-1.24-4.97-1.82-7.9-1.79-2.43-.03-4.9-.57-6.82-1.67-3.89-2.24-3.88-5.87-.02-8.11l20.08-11.67-20.23-11.68Z"/>
      <path class="cls-5" d="M250.8,96.85c-2.71-1.56-6.29-2.31-9.83-2.27-1.76-.02-3.53-.4-4.89-1.19-.3-.18-.55-.37-.79-.56-1.01-.84-1.41-1.82-1.23-2.79,.03-.12,.03-.23,.06-.35,.06-.15,.15-.3,.23-.45,.06-.1,.09-.21,.16-.31,.12-.16,.28-.32,.43-.47,.08-.08,.13-.17,.22-.24,.26-.23,.56-.44,.9-.64l22.07-12.82-22.22-12.83c-.3-.18-.55-.37-.79-.56-1-.83-1.4-1.82-1.22-2.79,.02-.12,.02-.23,.06-.34,.05-.15,.15-.3,.23-.46,.05-.1,.08-.2,.15-.3,.11-.16,.27-.31,.42-.46,.08-.09,.13-.17,.23-.25,.26-.23,.56-.44,.9-.64,1.34-.78,3.09-1.17,4.86-1.21,3.54,.07,7.11-.68,9.8-2.24,.65-.38,1.22-.79,1.71-1.22,.15-.13,.24-.28,.38-.41,.3-.3,.62-.61,.84-.94,.13-.18,.18-.36,.28-.54,.16-.29,.34-.58,.44-.89,.07-.21,.07-.42,.11-.63,.43-2.27-.8-4.61-3.81-6.35-5.26-3.04-13.73-3.04-18.95,0-2.69,1.56-3.97,3.64-3.86,5.68,0,0,0,.03,0,.03-.05,1.02-.71,2.02-2.03,2.79-2.77,1.61-7.25,1.61-10.04,0l-22.22-12.83-22.07,12.82h0s-.02,0-.02,0h0c-.06,.03-.1,.08-.16,.11-.53,.41-1.15,.93-1.51,1.49-.03,.07-.08,.13-.11,.19-.1,.21-.18,.44-.22,.69-.02,.12-.02,.23-.02,.36,0,.21,0,.41,.04,.59,.03,.13,.08,.25,.13,.38,.04,.1,.09,.21,.14,.3,.3,.5,.68,.93,1.11,1.27,0,0,.02,0,.02,0,.29,.23,.63,.38,.96,.55,.55,.28,1.15,.52,1.8,.69,.07,.02,.14,.04,.21,.06,.82,.19,1.68,.3,2.54,.3,3.52-.04,7.1,.7,9.81,2.27,5.24,3.03,5.27,7.94,.07,10.96-5.21,3.03-13.68,3.03-18.92,0-2.71-1.56-4.03-3.62-3.93-5.67-.02-.26-.07-.51-.16-.77-.28-.75-.91-1.48-1.93-2.07-.35-.2-.72-.38-1.11-.53-.69-.27-1.45-.45-2.22-.56-.05,0-.1,0-.14,0-.74-.09-1.49-.13-2.23-.08h-.02c-.79,.04-1.56,.17-2.28,.36-.1,.03-.18,.08-.28,.12-.61,.18-1.2,.4-1.71,.69,0,0-.02,0-.02,0h-.02s-22.07,12.83-22.07,12.83l22.22,12.83c2.79,1.61,7.25,1.61,10.01,0,1.34-.78,2.03-1.8,2.06-2.83-.02-.32,.06-.65,.12-.98,.03-.22,.04-.43,.1-.64,.09-.29,.26-.58,.41-.87,.11-.2,.18-.39,.3-.59,.21-.31,.51-.61,.79-.92,.15-.14,.25-.3,.42-.45,.49-.44,1.06-.85,1.72-1.24,5.21-3.02,13.68-3.02,18.95,0,.65,.38,1.23,.79,1.72,1.22,.16,.14,.25,.29,.39,.44,.3,.3,.61,.6,.84,.92,.13,.19,.2,.4,.31,.59,.15,.28,.33,.56,.43,.85,.08,.22,.08,.43,.12,.64,.05,.28,.13,.56,.13,.84,0,.8-.27,1.6-.69,2.38-.63,1.12-1.65,2.19-3.19,3.09-2.71,1.57-6.28,2.32-9.8,2.27-1.77,0-3.54,.41-4.88,1.19-1.38,.8-2.06,1.85-2.06,2.89,0,.14,.05,.29,.08,.44,.03,.11,.03,.23,.06,.34,.06,.16,.15,.31,.24,.47,.05,.1,.08,.2,.15,.29,.13,.18,.29,.33,.45,.5,.08,.07,.12,.14,.2,.22,.26,.23,.56,.44,.91,.64l22.22,12.83,22.08-12.83c2.75-1.6,7.24-1.61,10.02,0,1.36,.79,2.02,1.8,2.07,2.83,0,.31,.07,.63,.13,.95,.04,.22,.04,.44,.11,.64,.09,.3,.27,.59,.43,.88,.11,.2,.17,.4,.3,.59,.22,.32,.52,.61,.81,.91,.15,.15,.26,.32,.43,.47,.5,.44,1.08,.85,1.75,1.25,5.24,3.02,13.72,3.02,18.92,0,.65-.38,1.21-.79,1.71-1.21,.16-.15,.25-.3,.39-.44,.29-.29,.6-.59,.82-.9,.13-.18,.19-.39,.29-.58,.15-.28,.33-.56,.44-.85,.07-.21,.07-.43,.1-.64,.42-2.26-.81-4.6-3.81-6.33Zm-1.93,8.73c-4.11,2.38-10.81,2.38-14.94,0-2.15-1.24-3.19-2.86-3.12-4.5-.06-1.48-1-2.91-2.9-4.02-3.89-2.24-10.15-2.23-13.99,0l-20.1,11.69-20.23-11.69c-1.66-.96-1.68-2.53-.02-3.5,.8-.47,1.86-.71,2.92-.72,4.16,.07,8.48-.84,11.76-2.74,6.3-3.66,6.27-9.59-.08-13.26-6.36-3.67-16.61-3.67-22.91-.02-3.28,1.91-4.83,4.42-4.68,6.9-.02,.53-.44,1.15-1.25,1.61-1.67,.97-4.36,.97-6.04,0l-20.23-11.68,20.08-11.68c.74-.43,1.66-.66,2.62-.72,.95-.06,1.94,.08,2.77,.39h0c.14,.05,.29,.15,.43,.23,.09,.05,.18,.1,.25,.09,.81,.47,1.22,1.1,1.25,1.74-.12,2.38,1.49,4.88,4.76,6.77,6.35,3.66,16.59,3.66,22.89,0,6.3-3.66,6.27-9.6-.08-13.26-3.28-1.9-7.61-2.8-11.87-2.73-.95-.03-2.03-.26-2.84-.73,.04-.08-.3-.19-.43-.29-1.23-.96-1.09-2.33,.41-3.2l20.11-11.69,20.23,11.69c3.89,2.24,10.15,2.23,14-.02,1.87-1.1,2.82-2.51,2.86-3.94-.08-1.69,.93-3.33,3.04-4.56,4.13-2.4,10.83-2.4,14.98,0,4.14,2.38,4.17,6.27,.03,8.67-2.12,1.23-4.93,1.82-7.74,1.77-2.61,.04-5.05,.59-6.93,1.67-3.86,2.24-3.84,5.88,.03,8.11l20.23,11.68-20.09,11.67c-3.85,2.24-3.86,5.87,.03,8.11,1.92,1.1,4.39,1.64,6.82,1.67,2.94-.03,5.76,.55,7.9,1.79,4.14,2.38,4.17,6.26,.05,8.66Z"/>
      <polygon class="cls-39" points="106.9 61.92 106.9 61.94 129.11 74.76 129.09 79.45 129.11 79.46 129.13 74.75 106.9 61.92"/>
      <path class="cls-40" d="M60.84,64.12c-.04-.21-.03-.42-.11-.63-.1-.29-.28-.58-.43-.86-.11-.19-.18-.39-.31-.59-.21-.3-.52-.59-.8-.89-.15-.15-.26-.32-.43-.47-.49-.43-1.07-.84-1.73-1.22-2.7-1.56-6.28-2.31-9.83-2.24-1.77-.03-3.52-.43-4.89-1.21-.35-.2-.65-.42-.91-.64-.08-.08-.13-.15-.2-.23-.16-.16-.33-.32-.45-.49-.07-.1-.1-.21-.16-.32-.08-.14-.18-.29-.23-.44-.04-.12-.04-.23-.07-.36-.02-.14-.07-.28-.07-.43h0s-.02,4.7-.02,4.7c0,1.05,.69,2.12,2.08,2.92,1.36,.79,3.12,1.18,4.89,1.21,3.54-.07,7.12,.69,9.83,2.25,1.59,.91,2.64,2.02,3.27,3.17,.43-.77,.69-1.56,.69-2.38,0-.28-.08-.57-.14-.86Z"/>
      <g>
        <path class="cls-45" d="M107.03,87.59c-.34,.2-.64,.42-.9,.64-.07,.07-.12,.14-.19,.21-.16,.17-.33,.33-.45,.5-.07,.09-.1,.2-.15,.3-.08,.15-.18,.3-.23,.45-.03,.12-.03,.23-.06,.34-.18,.96,.22,1.96,1.23,2.79,.23-.18,.46-.37,.75-.53l22.08-12.84v-.02l.02-4.69-22.08,12.83Z"/>
        <path class="cls-16" d="M107.03,87.59c-.34,.2-.64,.42-.9,.64-.07,.07-.12,.14-.19,.21-.16,.17-.33,.33-.45,.5-.07,.09-.1,.2-.15,.3-.08,.15-.18,.3-.23,.45-.03,.12-.03,.23-.06,.34-.18,.96,.22,1.96,1.23,2.79,.23-.18,.46-.37,.75-.53l22.08-12.84v-.02l.02-4.69-22.08,12.83Z"/>
        <path class="cls-46" d="M57.13,83.8c1.58,.91,2.64,2.01,3.27,3.16,.43-.77,.69-1.57,.69-2.38,0-.29-.08-.58-.14-.86-.04-.21-.04-.42-.11-.62-.1-.3-.28-.58-.44-.87-.1-.19-.17-.39-.3-.58-.22-.32-.54-.61-.83-.91-.14-.14-.24-.3-.4-.44-.49-.43-1.07-.84-1.72-1.22-5.24-3.03-13.7-3.04-18.92,0-.66,.38-1.23,.79-1.72,1.23-.17,.15-.27,.31-.42,.46-.28,.3-.59,.59-.79,.9-.13,.19-.2,.39-.3,.59-.15,.28-.32,.58-.41,.87-.07,.21-.08,.43-.11,.64-.05,.33-.13,.66-.12,.98-.04,1.04-.72,2.05-2.07,2.84-2.74,1.6-7.23,1.61-10.01,0L.04,74.76l-.02,4.71,22.23,12.84c2.78,1.61,7.27,1.59,10.01,0,1.35-.79,2.02-1.81,2.07-2.83v-.33c.02-1.94,1.31-3.87,3.86-5.35,5.23-3.04,13.68-3.03,18.92,0Z"/>
        <path class="cls-15" d="M60.84,64.12c-.04-.21-.03-.42-.11-.63-.1-.29-.28-.58-.43-.86-.11-.19-.18-.39-.31-.59-.21-.3-.52-.59-.8-.89-.15-.15-.26-.32-.43-.47-.49-.43-1.07-.84-1.73-1.22-2.7-1.56-6.28-2.31-9.83-2.24-1.77-.03-3.52-.43-4.89-1.21-.35-.2-.65-.42-.91-.64-.08-.08-.13-.15-.2-.23-.16-.16-.33-.32-.45-.49-.07-.1-.1-.21-.16-.32-.08-.14-.18-.29-.23-.44-.04-.12-.04-.23-.07-.36-.02-.14-.07-.28-.07-.43h0s-.02,4.7-.02,4.7c0,1.05,.69,2.12,2.08,2.92,1.36,.79,3.12,1.18,4.89,1.21,3.54-.07,7.12,.69,9.83,2.25,1.59,.91,2.64,2.02,3.27,3.17,.43-.77,.69-1.56,.69-2.38,0-.28-.08-.57-.14-.86Z"/>
        <path class="cls-17" d="M57.13,83.8c1.58,.91,2.64,2.01,3.27,3.16,.43-.77,.69-1.57,.69-2.38,0-.29-.08-.58-.14-.86-.04-.21-.04-.42-.11-.62-.1-.3-.28-.58-.44-.87-.1-.19-.17-.39-.3-.58-.22-.32-.54-.61-.83-.91-.14-.14-.24-.3-.4-.44-.49-.43-1.07-.84-1.72-1.22-5.24-3.03-13.7-3.04-18.92,0-.66,.38-1.23,.79-1.72,1.23-.17,.15-.27,.31-.42,.46-.28,.3-.59,.59-.79,.9-.13,.19-.2,.39-.3,.59-.15,.28-.32,.58-.41,.87-.07,.21-.08,.43-.11,.64-.05,.33-.13,.66-.12,.98-.04,1.04-.72,2.05-2.07,2.84-2.74,1.6-7.23,1.61-10.01,0L.04,74.76l-.02,4.71,22.23,12.84c2.78,1.61,7.27,1.59,10.01,0,1.35-.79,2.02-1.81,2.07-2.83v-.33c.02-1.94,1.31-3.87,3.86-5.35,5.23-3.04,13.68-3.03,18.92,0Z"/>
        <path class="cls-50" d="M125.14,73.68l-20.23-11.68c-3.86-2.23-3.89-5.86-.03-8.11,1.89-1.1,4.33-1.65,6.92-1.67,2.83,.03,5.63-.55,7.75-1.79,4.11-2.38,4.08-6.27-.05-8.65-4.13-2.38-10.83-2.38-14.95,0-2.13,1.24-3.15,2.86-3.07,4.57-.04,1.41-.98,2.83-2.87,3.94-3.85,2.23-10.1,2.24-13.99,0l-20.23-11.69-20.1,11.69c-1.66,.95-1.65,2.54,.02,3.5,.83,.48,1.89,.72,2.81,.74,4.28-.08,8.62,.83,11.91,2.73,6.33,3.65,6.39,9.59,.09,13.27-6.32,3.67-16.59,3.66-22.94,0-3.28-1.89-4.85-4.4-4.76-6.79-.02-.64-.44-1.25-1.25-1.72-1.66-.96-4.38-.96-6.04,0l-20.11,11.68,20.23,11.69c1.67,.96,4.39,.96,6.04,0,.82-.48,1.23-1.1,1.26-1.63-.14-2.48,1.43-4.99,4.68-6.88,6.32-3.67,16.55-3.66,22.89,0,6.34,3.66,6.39,9.59,.08,13.25-3.26,1.91-7.59,2.81-11.72,2.74-1.1,.02-2.14,.25-2.96,.73-1.66,.95-1.64,2.54,.02,3.5l20.23,11.68,20.11-11.68c3.86-2.24,10.1-2.24,13.99,0,1.9,1.1,2.85,2.52,2.94,4.02-.08,1.62,.96,3.25,3.1,4.48,4.13,2.38,10.82,2.4,14.94,0,4.12-2.38,4.09-6.27-.04-8.66-2.14-1.24-4.97-1.82-7.88-1.78-2.48-.03-4.94-.58-6.84-1.68-3.88-2.24-3.88-5.87-.04-8.1l20.1-11.69Z"/>
        <path class="cls-51" d="M121.78,96.85c-2.71-1.56-6.29-2.31-9.81-2.25-1.79-.02-3.55-.42-4.91-1.2-.3-.18-.55-.37-.79-.56-1.01-.84-1.4-1.83-1.23-2.79,.02-.12,.02-.23,.06-.34,.05-.15,.15-.3,.23-.45,.05-.1,.08-.21,.15-.3,.13-.18,.29-.33,.45-.5,.07-.07,.12-.14,.19-.21,.26-.23,.56-.44,.9-.64l22.08-12.83-22.22-12.82h-.02c-1.35-.79-2.04-1.82-2.07-2.85,0-.18,.03-.35,.07-.53,.02-.11,.02-.22,.05-.33,.05-.15,.15-.3,.23-.45,.06-.1,.09-.21,.16-.3,.12-.17,.28-.32,.43-.48,.08-.08,.13-.16,.22-.24,.26-.23,.55-.43,.9-.64,1.35-.79,3.1-1.18,4.88-1.2,.59,0,1.17-.04,1.76-.08,.33-.02,.68-.02,1-.06,.78-.08,1.56-.21,2.31-.37,.05-.02,.11-.02,.17-.03,.33-.08,.64-.19,.97-.28,.36-.1,.71-.19,1.05-.32,.38-.13,.76-.29,1.13-.46,.14-.07,.28-.13,.43-.2,.33-.16,.69-.28,.99-.47h0c.14-.08,.23-.18,.37-.26,1.33-.85,2.26-1.82,2.83-2.84,1.46-2.66,.43-5.69-3.2-7.81-.02,0-.04-.02-.06-.03-5.23-3.02-13.68-3.03-18.9-.02,0,0-.02,0-.02,0h0c-.18,.11-1.67,1.21-2.13,1.69-.31,.32-.63,.64-.85,.96h0c-.3,.46-.5,.91-.65,1.38,0,.02-.02,.03-.02,.03,0,.02-.02,.03-.02,.04-.16,.52-.23,1.05-.21,1.58h0s0,.03,0,.04c0,.09-.03,.18-.05,.26-.02,.16-.03,.31-.08,.47h0s-.04,.07-.06,.11c0,0-.02,.02-.02,.02-.08,.2-.18,.4-.31,.59h0s-.02,.03-.04,.05c-.16,.23-.35,.44-.59,.65-.04,.03-.11,.07-.16,.11-.22,.18-.44,.35-.71,.51t-.02,0h0c-2.74,1.6-7.22,1.61-10,0,0,0-.02,0-.02,0l-22.21-12.82h-.02s-22.08,12.82-22.08,12.82c-1.37,.79-2.05,1.85-2.05,2.89,0,.14,.04,.28,.07,.43,.02,.13,.02,.24,.07,.36,.05,.15,.14,.3,.23,.44,.06,.11,.09,.22,.16,.32,.13,.18,.29,.33,.45,.49,.08,.08,.12,.15,.2,.23,.26,.23,.56,.44,.91,.64,1.36,.79,3.12,1.18,4.89,1.21,3.55-.07,7.13,.68,9.83,2.24,.66,.38,1.24,.79,1.73,1.22,.17,.15,.28,.32,.43,.47,.28,.29,.59,.59,.8,.89,.13,.19,.2,.39,.31,.59,.15,.28,.33,.57,.43,.86,.08,.21,.07,.42,.11,.63,.06,.29,.14,.58,.14,.86,0,.81-.27,1.61-.69,2.38-.62,1.13-1.65,2.19-3.18,3.09-5.22,3.04-13.72,3.02-18.95,0-2.71-1.56-4.01-3.64-3.93-5.68-.04-1.04-.73-2.05-2.09-2.84-2.76-1.6-7.25-1.61-10.01,0L.04,74.76l22.22,12.83c2.79,1.61,7.27,1.6,10.01,0,1.35-.79,2.03-1.8,2.07-2.84-.02-.32,.07-.64,.12-.98,.03-.21,.04-.43,.11-.64,.09-.29,.26-.58,.41-.87,.1-.19,.17-.39,.3-.59,.21-.31,.51-.6,.79-.9,.15-.15,.25-.31,.42-.46,.49-.44,1.06-.84,1.72-1.23,5.22-3.04,13.68-3.03,18.92,0,.65,.38,1.23,.79,1.72,1.22,.16,.13,.26,.29,.4,.44,.29,.3,.61,.59,.83,.91,.13,.19,.2,.38,.3,.58,.16,.28,.34,.57,.44,.87,.07,.2,.07,.41,.11,.62,.06,.28,.14,.57,.14,.86,0,.8-.27,1.61-.69,2.38-.63,1.12-1.66,2.19-3.2,3.09-2.69,1.56-6.26,2.31-9.79,2.26-1.79,.02-3.54,.41-4.89,1.2-1.37,.79-2.05,1.85-2.05,2.89,0,.15,.05,.29,.08,.44,.02,.12,.02,.23,.06,.34,.05,.15,.14,.3,.23,.44,.06,.11,.09,.22,.17,.32,.12,.18,.28,.33,.44,.49,.08,.07,.13,.15,.2,.23,.26,.23,.57,.44,.91,.64l22.22,12.83,22.09-12.83c2.76-1.61,7.23-1.61,10.01,0,1.36,.79,2.05,1.79,2.11,2.83-.02,.32,.07,.64,.12,.95,.03,.22,.04,.44,.11,.65,.09,.28,.27,.59,.43,.87,.1,.2,.17,.39,.3,.58,.22,.32,.52,.62,.82,.92,.14,.15,.24,.31,.41,.45,.5,.44,1.08,.86,1.75,1.25,5.24,3.02,13.69,3.03,18.91,0,.65-.38,1.22-.79,1.71-1.21,.16-.15,.25-.29,.39-.44,.29-.3,.6-.59,.82-.91,.13-.18,.19-.39,.29-.57,.15-.28,.33-.57,.44-.86,.07-.21,.07-.42,.1-.63,.43-2.27-.8-4.61-3.81-6.35Zm-1.93,8.73c-4.12,2.4-10.81,2.38-14.94,0-2.14-1.24-3.18-2.86-3.1-4.48-.08-1.51-1.04-2.93-2.94-4.02-3.88-2.24-10.13-2.24-13.99,0l-20.11,11.68-20.23-11.68c-1.66-.95-1.67-2.54-.02-3.5,.82-.48,1.86-.71,2.96-.73,4.13,.07,8.46-.84,11.72-2.74,6.32-3.66,6.27-9.59-.08-13.25-6.34-3.66-16.58-3.67-22.89,0-3.25,1.89-4.83,4.39-4.68,6.88-.03,.54-.44,1.15-1.26,1.63-1.65,.96-4.37,.96-6.04,0l-20.23-11.69,20.11-11.68c1.66-.96,4.38-.96,6.04,0,.82,.48,1.23,1.09,1.25,1.72-.09,2.39,1.48,4.9,4.76,6.79,6.35,3.66,16.61,3.67,22.94,0,6.3-3.67,6.24-9.61-.09-13.27-3.29-1.9-7.63-2.8-11.91-2.73-.92-.02-1.98-.26-2.81-.74-1.66-.95-1.67-2.54-.02-3.5l20.1-11.69,20.23,11.69c3.89,2.24,10.15,2.23,13.99,0,1.89-1.11,2.83-2.53,2.87-3.94-.08-1.71,.94-3.33,3.07-4.57,4.11-2.38,10.82-2.38,14.95,0,4.13,2.38,4.16,6.27,.05,8.65-2.12,1.24-4.93,1.82-7.75,1.79-2.58,.02-5.03,.58-6.92,1.67-3.86,2.24-3.83,5.87,.03,8.11l20.23,11.68-20.1,11.69c-3.84,2.23-3.84,5.86,.04,8.1,1.91,1.1,4.36,1.65,6.84,1.68,2.91-.04,5.74,.54,7.88,1.78,4.13,2.38,4.16,6.27,.04,8.66Z"/>
        <path class="cls-52" d="M125.48,103.83c-.1,.29-.28,.58-.44,.86-.1,.18-.17,.39-.29,.57-.22,.32-.53,.61-.82,.91-.14,.14-.23,.28-.39,.44-.48,.43-1.05,.83-1.71,1.21-5.22,3.03-13.68,3.02-18.91,0-.67-.38-1.25-.8-1.75-1.25-.17-.14-.27-.3-.41-.45-.3-.3-.6-.6-.82-.92-.13-.19-.2-.38-.3-.58-.16-.28-.33-.59-.43-.87-.07-.22-.08-.44-.11-.65-.04-.24-.12-.48-.12-.74v-.22c-.06-1.04-.74-2.04-2.11-2.83-2.79-1.61-7.25-1.61-10.01,0l-22.09,12.83-22.22-12.83c-.34-.2-.65-.42-.91-.64-.08-.08-.13-.15-.2-.23-.16-.16-.33-.32-.44-.49-.08-.1-.11-.21-.17-.32-.08-.14-.18-.29-.23-.44-.04-.11-.04-.23-.06-.34-.02-.15-.08-.29-.08-.44h0s-.02,4.7-.02,4.7c0,1.05,.69,2.12,2.08,2.92l22.23,12.83,22.08-12.83c2.76-1.61,7.24-1.61,10.01,0,1.35,.79,2.04,1.79,2.11,2.81v.22c0,1.98,1.3,3.96,3.93,5.48,5.24,3.02,13.69,3.03,18.92,0,2.58-1.51,3.88-3.47,3.88-5.45l.02-4.71c0,.28-.08,.55-.14,.83-.03,.21-.03,.42-.1,.63Z"/>
        <path class="cls-18" d="M125.48,103.83c-.1,.29-.28,.58-.44,.86-.1,.18-.17,.39-.29,.57-.22,.32-.53,.61-.82,.91-.14,.14-.23,.28-.39,.44-.48,.43-1.05,.83-1.71,1.21-5.22,3.03-13.68,3.02-18.91,0-.67-.38-1.25-.8-1.75-1.25-.17-.14-.27-.3-.41-.45-.3-.3-.6-.6-.82-.92-.13-.19-.2-.38-.3-.58-.16-.28-.33-.59-.43-.87-.07-.22-.08-.44-.11-.65-.04-.24-.12-.48-.12-.74v-.22c-.06-1.04-.74-2.04-2.11-2.83-2.79-1.61-7.25-1.61-10.01,0l-22.09,12.83-22.22-12.83c-.34-.2-.65-.42-.91-.64-.08-.08-.13-.15-.2-.23-.16-.16-.33-.32-.44-.49-.08-.1-.11-.21-.17-.32-.08-.14-.18-.29-.23-.44-.04-.11-.04-.23-.06-.34-.02-.15-.08-.29-.08-.44h0s-.02,4.7-.02,4.7c0,1.05,.69,2.12,2.08,2.92l22.23,12.83,22.08-12.83c2.76-1.61,7.24-1.61,10.01,0,1.35,.79,2.04,1.79,2.11,2.81v.22c0,1.98,1.3,3.96,3.93,5.48,5.24,3.02,13.69,3.03,18.92,0,2.58-1.51,3.88-3.47,3.88-5.45l.02-4.71c0,.28-.08,.55-.14,.83-.03,.21-.03,.42-.1,.63Z"/>
        <path class="cls-9" d="M125.14,73.68l-20.23-11.68c-3.86-2.23-3.89-5.86-.03-8.11,1.89-1.1,4.33-1.65,6.92-1.67,2.83,.03,5.63-.55,7.75-1.79,4.11-2.38,4.08-6.27-.05-8.65-4.13-2.38-10.83-2.38-14.95,0-2.13,1.24-3.15,2.86-3.07,4.57-.04,1.41-.98,2.83-2.87,3.94-3.85,2.23-10.1,2.24-13.99,0l-20.23-11.69-20.1,11.69c-1.66,.95-1.65,2.54,.02,3.5,.83,.48,1.89,.72,2.81,.74,4.28-.08,8.62,.83,11.91,2.73,6.33,3.65,6.39,9.59,.09,13.27-6.32,3.67-16.59,3.66-22.94,0-3.28-1.89-4.85-4.4-4.76-6.79-.02-.64-.44-1.25-1.25-1.72-1.66-.96-4.38-.96-6.04,0l-20.11,11.68,20.23,11.69c1.67,.96,4.39,.96,6.04,0,.82-.48,1.23-1.1,1.26-1.63-.14-2.48,1.43-4.99,4.68-6.88,6.32-3.67,16.55-3.66,22.89,0,6.34,3.66,6.39,9.59,.08,13.25-3.26,1.91-7.59,2.81-11.72,2.74-1.1,.02-2.14,.25-2.96,.73-1.66,.95-1.64,2.54,.02,3.5l20.23,11.68,20.11-11.68c3.86-2.24,10.1-2.24,13.99,0,1.9,1.1,2.85,2.52,2.94,4.02-.08,1.62,.96,3.25,3.1,4.48,4.13,2.38,10.82,2.4,14.94,0,4.12-2.38,4.09-6.27-.04-8.66-2.14-1.24-4.97-1.82-7.88-1.78-2.48-.03-4.94-.58-6.84-1.68-3.88-2.24-3.88-5.87-.04-8.1l20.1-11.69Z"/>
        <path class="cls-7" d="M121.73,96.85c-2.71-1.56-6.29-2.31-9.81-2.25-1.79-.02-3.55-.42-4.91-1.2-.3-.18-.55-.37-.79-.56-1.01-.84-1.41-1.83-1.23-2.79,.02-.12,.02-.23,.06-.34,.05-.15,.15-.3,.23-.45,.05-.1,.08-.21,.15-.3,.12-.18,.28-.33,.45-.5,.07-.07,.12-.14,.19-.21,.26-.23,.55-.44,.9-.64l22.09-12.83-22.22-12.82h-.02c-1.35-.79-2.04-1.82-2.07-2.85,0-.18,.03-.35,.07-.53,.02-.11,.02-.22,.06-.33,.05-.15,.14-.3,.23-.45,.06-.1,.09-.21,.16-.3,.11-.17,.28-.32,.43-.48,.08-.08,.13-.16,.22-.24,.25-.23,.55-.43,.9-.64,1.35-.79,3.1-1.18,4.88-1.2,.58,0,1.17-.04,1.75-.08,.33-.02,.69-.02,1-.06,.79-.08,1.56-.21,2.32-.37,.05-.02,.11-.02,.16-.03,.34-.08,.65-.19,.98-.28,.35-.1,.71-.19,1.05-.32,.38-.13,.75-.29,1.13-.46,.14-.07,.29-.13,.43-.2,.33-.16,.68-.28,.99-.47h0c.14-.08,.23-.18,.37-.26,1.33-.85,2.26-1.82,2.83-2.84,1.46-2.66,.42-5.69-3.21-7.81-.02,0-.03-.02-.05-.03-5.23-3.02-13.68-3.03-18.9-.02,0,0-.02,0-.02,0,0,0,0,0,0,0-.18,.1-1.67,1.2-2.13,1.68-.31,.32-.63,.64-.85,.96h0c-.3,.46-.5,.91-.65,1.38,0,.02-.02,.03-.02,.03,0,.02-.02,.03-.02,.04-.16,.52-.23,1.05-.21,1.58h0s0,.03,0,.04c0,.09-.03,.18-.05,.26-.02,.16-.03,.31-.09,.47h0s-.04,.07-.05,.11c0,0-.02,.02-.02,.02-.08,.2-.18,.4-.32,.59h0s-.03,.03-.04,.05c-.17,.23-.36,.44-.59,.65-.05,.03-.11,.07-.16,.11-.22,.18-.44,.35-.71,.51,0,0-.02,0-.02,0h0c-2.74,1.6-7.21,1.61-10,0,0,0,0,0-.02,0l-22.21-12.82h-.02s-22.08,12.82-22.08,12.82c-1.37,.79-2.05,1.85-2.05,2.89,0,.14,.04,.28,.07,.43,.02,.13,.02,.24,.07,.36,.05,.15,.14,.3,.23,.44,.06,.11,.09,.22,.16,.32,.12,.18,.28,.33,.45,.49,.07,.08,.12,.15,.2,.23,.26,.23,.56,.44,.91,.64,1.36,.79,3.11,1.18,4.88,1.21,3.54-.07,7.12,.68,9.83,2.24,.66,.38,1.24,.79,1.73,1.22,.17,.15,.28,.32,.43,.47,.28,.29,.58,.59,.8,.89,.13,.19,.2,.39,.3,.59,.16,.28,.34,.57,.44,.86,.07,.21,.07,.42,.11,.63,.06,.29,.14,.58,.14,.86,0,.81-.27,1.61-.69,2.38-.63,1.13-1.65,2.19-3.18,3.09-5.23,3.04-13.72,3.02-18.95,0-2.71-1.56-4.01-3.64-3.93-5.68-.04-1.04-.73-2.05-2.09-2.84-2.76-1.6-7.25-1.61-10.01,0L0,74.76l22.22,12.83c2.78,1.61,7.27,1.6,10.01,0,1.35-.79,2.03-1.8,2.07-2.84-.02-.32,.06-.64,.12-.98,.03-.21,.04-.43,.11-.64,.09-.29,.26-.58,.41-.87,.1-.19,.17-.39,.3-.59,.21-.31,.51-.6,.79-.9,.14-.15,.25-.31,.42-.46,.49-.44,1.06-.84,1.72-1.23,5.22-3.04,13.68-3.03,18.91,0,.66,.38,1.24,.79,1.73,1.22,.16,.13,.25,.29,.4,.44,.29,.3,.6,.59,.83,.91,.13,.19,.19,.38,.3,.58,.16,.28,.34,.57,.44,.87,.07,.2,.07,.41,.11,.62,.05,.28,.14,.57,.14,.86,0,.8-.27,1.61-.7,2.38-.62,1.12-1.65,2.19-3.19,3.09-2.69,1.56-6.26,2.31-9.79,2.26-1.79,.02-3.54,.41-4.89,1.2-1.37,.79-2.05,1.85-2.05,2.89,0,.15,.04,.29,.08,.44,.02,.12,.02,.23,.06,.34,.05,.15,.14,.3,.23,.44,.06,.11,.09,.22,.16,.32,.13,.18,.29,.33,.45,.49,.07,.07,.12,.15,.2,.23,.26,.23,.56,.44,.91,.64l22.22,12.83,22.08-12.83c2.77-1.61,7.24-1.61,10.01,0,1.37,.79,2.05,1.79,2.11,2.83,0,.32,.07,.64,.13,.95,.03,.22,.04,.44,.11,.65,.09,.28,.27,.59,.42,.87,.11,.2,.18,.39,.3,.58,.22,.32,.53,.62,.82,.92,.15,.15,.25,.31,.42,.45,.49,.44,1.08,.86,1.74,1.25,5.24,3.02,13.7,3.03,18.92,0,.65-.38,1.22-.79,1.71-1.21,.16-.15,.25-.29,.39-.44,.29-.3,.6-.59,.82-.91,.13-.18,.18-.39,.29-.57,.15-.28,.33-.57,.44-.86,.07-.21,.07-.42,.1-.63,.43-2.27-.8-4.61-3.81-6.35Zm-1.93,8.73c-4.12,2.4-10.81,2.38-14.94,0-2.14-1.24-3.18-2.86-3.1-4.48-.08-1.51-1.04-2.93-2.94-4.02-3.89-2.24-10.14-2.24-13.99,0l-20.1,11.68-20.23-11.68c-1.66-.95-1.67-2.54-.02-3.5,.82-.48,1.87-.71,2.97-.73,4.13,.07,8.46-.84,11.72-2.74,6.32-3.66,6.26-9.59-.07-13.25-6.34-3.66-16.58-3.67-22.89,0-3.26,1.89-4.83,4.39-4.68,6.88-.03,.54-.44,1.15-1.26,1.63-1.65,.96-4.37,.96-6.04,0L3.97,73.68l20.1-11.68c1.66-.96,4.38-.96,6.04,0,.83,.48,1.24,1.09,1.26,1.72-.09,2.39,1.48,4.9,4.76,6.79,6.34,3.66,16.61,3.67,22.93,0,6.31-3.67,6.25-9.61-.09-13.27-3.28-1.9-7.62-2.8-11.9-2.73-.92-.02-1.99-.26-2.81-.74-1.66-.95-1.67-2.54-.02-3.5l20.11-11.69,20.23,11.69c3.89,2.24,10.15,2.23,13.99,0,1.89-1.11,2.84-2.53,2.88-3.94-.08-1.71,.94-3.33,3.06-4.57,4.12-2.38,10.82-2.38,14.95,0,4.14,2.38,4.17,6.27,.06,8.65-2.12,1.24-4.94,1.82-7.75,1.79-2.58,.02-5.03,.58-6.92,1.67-3.86,2.24-3.83,5.87,.03,8.11l20.23,11.68-20.11,11.69c-3.83,2.23-3.84,5.86,.05,8.1,1.9,1.1,4.36,1.65,6.84,1.68,2.91-.04,5.74,.54,7.87,1.78,4.14,2.38,4.17,6.27,.05,8.66Z"/>
      </g>
      <g>
        <path class="cls-48" d="M167.19,134.19v.27s0-.02,0-.03c0-.08,0-.16,0-.23Z"/>
        <path class="cls-49" d="M173.4,140.94c1.89-1.1,4.32-1.65,6.94-1.69,2.8,.05,5.61-.54,7.74-1.77,4.11-2.38,4.1-6.28-.05-8.67-4.13-2.39-10.86-2.38-14.96,0-2.12,1.24-3.13,2.87-3.05,4.56-.04,1.44-.98,2.86-2.87,3.96-3.85,2.22-10.1,2.24-13.99,0l-20.23-11.69-20.1,11.69c-1.66,.96-1.66,2.53,.02,3.49,.82,.48,1.86,.72,2.84,.73,4.27-.05,8.6,.84,11.88,2.74,6.34,3.66,6.37,9.59,.08,13.26-6.31,3.66-16.55,3.66-22.89,0-3.28-1.89-4.88-4.38-4.78-6.81-.02-.62-.43-1.24-1.25-1.71-1.67-.97-4.38-.97-6.06,.02l-20.08,11.67,20.23,11.69c1.67,.97,4.37,.97,6.04,0,.8-.47,1.22-1.09,1.24-1.62-.14-2.48,1.41-4.98,4.67-6.88,6.32-3.67,16.56-3.67,22.91,0,6.36,3.67,6.39,9.61,.08,13.28-3.26,1.89-7.59,2.79-11.74,2.74-1.05,0-2.12,.24-2.92,.71-1.66,.97-1.66,2.53,.02,3.5l20.24,11.68,20.08-11.68c3.86-2.23,10.11-2.25,14,0,1.89,1.1,2.84,2.53,2.9,4.02-.06,1.61,.98,3.25,3.12,4.49,4.13,2.39,10.84,2.39,14.95,0,4.11-2.38,4.08-6.27-.05-8.66-2.14-1.24-4.98-1.83-7.9-1.79-2.43-.03-4.93-.58-6.82-1.66-3.88-2.25-3.88-5.87-.04-8.11l20.1-11.69-20.23-11.68c-3.88-2.24-3.88-5.86-.04-8.1Z"/>
        <path class="cls-10" d="M173.4,140.94c1.89-1.1,4.32-1.65,6.94-1.69,2.8,.05,5.61-.54,7.74-1.77,4.11-2.38,4.1-6.28-.05-8.67-4.13-2.39-10.86-2.38-14.96,0-2.12,1.24-3.13,2.87-3.05,4.56-.04,1.44-.98,2.86-2.87,3.96-3.85,2.22-10.1,2.24-13.99,0l-20.23-11.69-20.1,11.69c-1.66,.96-1.66,2.53,.02,3.49,.82,.48,1.86,.72,2.84,.73,4.27-.05,8.6,.84,11.88,2.74,6.34,3.66,6.37,9.59,.08,13.26-6.31,3.66-16.55,3.66-22.89,0-3.28-1.89-4.88-4.38-4.78-6.81-.02-.62-.43-1.24-1.25-1.71-1.67-.97-4.38-.97-6.06,.02l-20.08,11.67,20.23,11.69c1.67,.97,4.37,.97,6.04,0,.8-.47,1.22-1.09,1.24-1.62-.14-2.48,1.41-4.98,4.67-6.88,6.32-3.67,16.56-3.67,22.91,0,6.36,3.67,6.39,9.61,.08,13.28-3.26,1.89-7.59,2.79-11.74,2.74-1.05,0-2.12,.24-2.92,.71-1.66,.97-1.66,2.53,.02,3.5l20.24,11.68,20.08-11.68c3.86-2.23,10.11-2.25,14,0,1.89,1.1,2.84,2.53,2.9,4.02-.06,1.61,.98,3.25,3.12,4.49,4.13,2.39,10.84,2.39,14.95,0,4.11-2.38,4.08-6.27-.05-8.66-2.14-1.24-4.98-1.83-7.9-1.79-2.43-.03-4.93-.58-6.82-1.66-3.88-2.25-3.88-5.87-.04-8.11l20.1-11.69-20.23-11.68c-3.88-2.24-3.88-5.86-.04-8.1Z"/>
        <path class="cls-47" d="M190.31,183.9c-2.71-1.56-6.31-2.33-9.83-2.28-1.75-.02-3.54-.41-4.88-1.2-.3-.17-.56-.35-.79-.55-1.01-.83-1.4-1.82-1.22-2.79,.02-.12,.02-.23,.05-.33,.06-.16,.15-.32,.23-.46,.06-.1,.08-.2,.16-.3,.12-.17,.28-.33,.44-.49,.07-.08,.12-.15,.19-.22,.26-.23,.56-.45,.9-.64l22.08-12.84-22.23-12.83c-.3-.18-.55-.36-.79-.56-1-.83-1.4-1.81-1.23-2.77,.02-.13,.02-.24,.06-.36,.05-.14,.13-.27,.2-.4,.07-.12,.11-.24,.18-.36,.11-.15,.25-.28,.38-.43,.09-.09,.16-.19,.26-.28,.26-.23,.56-.44,.9-.64,1.35-.79,3.1-1.18,4.87-1.21,3.55,.06,7.12-.69,9.81-2.25,.64-.38,1.21-.79,1.7-1.21,.18-.16,.3-.33,.45-.5,.27-.28,.56-.55,.76-.84,.14-.19,.2-.39,.31-.59,.15-.28,.33-.55,.43-.84,.07-.21,.07-.43,.11-.64,.42-2.26-.82-4.61-3.82-6.35-5.24-3.02-13.73-3.01-18.94,.02-2.69,1.56-3.96,3.63-3.86,5.67,0,.02,0,.03,0,.03-.04,1.03-.71,2.02-2.05,2.81-2.74,1.59-7.23,1.61-10.01,0l-22.23-12.84-22.08,12.84c-1.37,.79-2.06,1.84-2.06,2.89,0,.15,.05,.29,.08,.44,.02,.12,.02,.23,.06,.34,.05,.15,.15,.3,.23,.44,.06,.11,.09,.22,.17,.32,.11,.16,.27,.31,.42,.46,.08,.08,.14,.18,.23,.26,.26,.23,.56,.44,.91,.64,1.36,.79,3.12,1.18,4.88,1.19,3.55-.03,7.13,.71,9.84,2.27,.65,.38,1.23,.79,1.72,1.22,.15,.13,.25,.28,.39,.42,.3,.31,.62,.61,.84,.93,.13,.18,.18,.38,.29,.56,.16,.29,.35,.58,.45,.88,.07,.21,.07,.43,.1,.64,.06,.28,.14,.57,.14,.85,0,.8-.27,1.61-.69,2.38-.63,1.13-1.65,2.19-3.19,3.09-5.2,3.02-13.68,3.02-18.92,0-2.71-1.56-4.02-3.63-3.95-5.69-.04-1.01-.71-2.04-2.07-2.83-2.78-1.61-7.27-1.6-10.03,0l-22.07,12.82,22.23,12.83c2.78,1.61,7.24,1.61,10.01,0,1.34-.77,2.02-1.8,2.06-2.81-.02-.33,.06-.66,.11-1,.03-.22,.04-.43,.11-.64,.09-.3,.26-.58,.41-.88,.1-.19,.17-.39,.29-.58,.22-.33,.51-.61,.79-.91,.15-.15,.25-.31,.42-.46,.49-.43,1.05-.84,1.71-1.23,5.22-3.04,13.7-3.04,18.94,0,.66,.38,1.24,.79,1.73,1.21,.18,.17,.29,.34,.45,.51,.28,.28,.58,.55,.79,.85,.13,.2,.2,.41,.31,.61,.15,.28,.33,.54,.43,.83,.08,.22,.08,.43,.12,.64,.05,.29,.13,.56,.13,.84,0,.81-.27,1.61-.69,2.38-.63,1.13-1.66,2.2-3.2,3.1-2.69,1.56-6.26,2.31-9.79,2.26-1.76,0-3.54,.42-4.88,1.2-1.37,.79-2.06,1.84-2.06,2.89,0,.15,.04,.3,.07,.45,.02,.11,.02,.23,.06,.33,.05,.16,.15,.31,.23,.47,.06,.09,.09,.2,.16,.29,.12,.18,.29,.33,.45,.5,.08,.07,.12,.14,.2,.22,.26,.23,.57,.44,.91,.64l22.23,12.83,22.07-12.82c2.76-1.61,7.25-1.61,10.03,0,1.35,.78,2.03,1.81,2.07,2.83-.02,.32,.07,.63,.12,.94,.03,.22,.03,.44,.1,.65,.1,.29,.28,.58,.44,.88,.1,.19,.17,.39,.3,.59,.22,.33,.53,.63,.82,.93,.14,.15,.25,.31,.42,.46,.49,.44,1.08,.86,1.75,1.25,5.24,3.02,13.72,3.02,18.92,0,.64-.38,1.21-.79,1.7-1.21,.17-.15,.28-.31,.42-.46,.28-.29,.58-.58,.79-.89,.13-.18,.19-.38,.3-.58,.15-.28,.33-.56,.43-.85,.07-.21,.07-.43,.11-.64,.42-2.26-.82-4.61-3.81-6.33Zm-1.92,8.72c-4.11,2.39-10.82,2.39-14.95,0-2.14-1.24-3.18-2.88-3.12-4.49-.06-1.49-1.01-2.93-2.9-4.02-3.89-2.24-10.15-2.23-14,0l-20.08,11.68-20.24-11.68c-1.67-.97-1.68-2.53-.02-3.5,.8-.47,1.87-.71,2.92-.71,4.16,.06,8.48-.85,11.74-2.74,6.32-3.67,6.28-9.61-.08-13.28-6.35-3.66-16.59-3.66-22.91,0-3.26,1.9-4.81,4.41-4.67,6.88-.02,.54-.44,1.15-1.24,1.62-1.67,.97-4.37,.97-6.04,0l-20.23-11.69,20.08-11.67c1.67-.99,4.38-.99,6.06-.02,.81,.47,1.22,1.09,1.25,1.71-.1,2.43,1.5,4.92,4.78,6.81,6.34,3.66,16.59,3.66,22.89,0,6.3-3.66,6.27-9.59-.08-13.26-3.28-1.9-7.61-2.79-11.88-2.74-.98,0-2.02-.24-2.84-.73-1.67-.95-1.67-2.53-.02-3.49l20.1-11.69,20.23,11.69c3.89,2.24,10.15,2.22,13.99,0,1.89-1.1,2.83-2.52,2.87-3.96-.08-1.69,.93-3.32,3.05-4.56,4.11-2.39,10.83-2.4,14.96,0,4.15,2.39,4.16,6.29,.05,8.67-2.12,1.24-4.93,1.82-7.74,1.77-2.62,.04-5.05,.59-6.94,1.69-3.84,2.23-3.84,5.86,.04,8.1l20.23,11.68-20.1,11.69c-3.84,2.23-3.84,5.86,.04,8.11,1.89,1.09,4.39,1.63,6.82,1.66,2.91-.04,5.75,.55,7.9,1.79,4.13,2.38,4.16,6.27,.05,8.66Z"/>
        <path class="cls-6" d="M190.27,183.9c-2.71-1.56-6.31-2.32-9.83-2.27-1.76-.02-3.55-.41-4.89-1.19-.3-.18-.55-.37-.79-.56-1.01-.84-1.4-1.83-1.23-2.79,.02-.13,.02-.23,.06-.34,.06-.15,.15-.3,.23-.46,.06-.09,.08-.2,.15-.29,.13-.18,.29-.33,.45-.5,.07-.07,.12-.14,.19-.21,.26-.23,.56-.44,.9-.64l22.08-12.83-22.23-12.83c-.3-.18-.55-.37-.79-.56-1-.83-1.4-1.81-1.23-2.78,.02-.12,.02-.24,.06-.36,.04-.13,.13-.27,.2-.39,.07-.13,.1-.24,.18-.36,.1-.15,.25-.28,.39-.43,.09-.09,.16-.19,.26-.28,.26-.23,.56-.44,.9-.64,1.35-.79,3.11-1.18,4.88-1.21,3.55,.07,7.12-.68,9.8-2.24,.65-.38,1.22-.79,1.71-1.21,.18-.16,.29-.33,.45-.5,.27-.28,.56-.55,.76-.85,.13-.19,.2-.4,.31-.59,.15-.28,.33-.55,.42-.84,.08-.22,.08-.44,.11-.64,.42-2.27-.81-4.62-3.81-6.35-5.24-3.03-13.73-3.01-18.94,0-2.69,1.56-3.96,3.64-3.86,5.68,0,0,0,.02,0,.03-.04,1.02-.71,2.02-2.05,2.8-2.74,1.6-7.23,1.61-10.02,0l-22.22-12.83-22.08,12.83c-1.37,.79-2.06,1.84-2.06,2.89,0,.14,.05,.29,.08,.44,.02,.11,.02,.22,.06,.33,.05,.16,.15,.3,.23,.45,.06,.11,.09,.21,.17,.32,.11,.16,.27,.3,.41,.45,.08,.09,.14,.18,.24,.26,.26,.23,.56,.45,.91,.65,1.36,.79,3.12,1.18,4.89,1.19,3.55-.04,7.13,.7,9.83,2.27,.66,.38,1.24,.79,1.73,1.22,.15,.13,.24,.28,.38,.43,.3,.3,.62,.6,.84,.93,.13,.18,.18,.38,.29,.56,.16,.29,.34,.58,.44,.88,.07,.2,.07,.42,.11,.63,.06,.28,.14,.57,.14,.86,0,.8-.27,1.6-.69,2.38-.63,1.12-1.65,2.19-3.19,3.08-5.2,3.03-13.68,3.03-18.92,0-2.71-1.56-4.02-3.62-3.95-5.68-.04-1.02-.71-2.04-2.07-2.84-2.78-1.6-7.27-1.59-10.03,.02l-22.06,12.82,22.22,12.83c2.79,1.61,7.25,1.61,10.02,0,1.33-.78,2.02-1.8,2.06-2.82-.02-.33,.05-.66,.11-.99,.03-.22,.04-.43,.11-.64,.09-.29,.25-.58,.4-.87,.11-.19,.18-.39,.3-.58,.21-.31,.51-.61,.79-.91,.15-.15,.25-.31,.41-.45,.49-.44,1.06-.85,1.72-1.24,5.22-3.03,13.69-3.03,18.94,0,.65,.38,1.23,.79,1.72,1.21,.18,.17,.3,.34,.46,.51,.28,.28,.57,.56,.78,.85,.14,.2,.21,.41,.32,.61,.15,.28,.33,.55,.43,.84,.08,.21,.07,.43,.11,.64,.06,.28,.14,.56,.14,.85,0,.8-.27,1.59-.69,2.38-.63,1.13-1.66,2.19-3.2,3.09-2.69,1.56-6.26,2.31-9.79,2.26-1.77,0-3.54,.41-4.88,1.19-1.37,.8-2.06,1.85-2.06,2.89,0,.15,.04,.3,.08,.45,.02,.11,.02,.22,.06,.33,.05,.16,.15,.32,.23,.47,.06,.1,.08,.2,.15,.3,.13,.17,.29,.33,.46,.5,.08,.07,.12,.14,.2,.21,.26,.23,.56,.45,.91,.65l22.23,12.83,22.07-12.82c2.76-1.61,7.24-1.61,10.03,0,1.35,.77,2.03,1.81,2.07,2.83-.02,.31,.07,.63,.13,.94,.03,.22,.03,.43,.1,.64,.1,.3,.28,.58,.43,.88,.11,.2,.18,.4,.3,.59,.23,.32,.53,.62,.83,.92,.14,.16,.25,.32,.42,.46,.49,.44,1.08,.86,1.75,1.25,5.24,3.03,13.71,3.03,18.91,0,.65-.38,1.22-.78,1.71-1.21,.17-.15,.27-.32,.42-.47,.28-.28,.58-.58,.79-.88,.13-.19,.19-.39,.3-.58,.15-.28,.33-.56,.43-.85,.07-.21,.07-.43,.11-.64,.42-2.26-.82-4.6-3.81-6.33Zm-1.92,8.73c-4.11,2.38-10.82,2.38-14.95,0-2.14-1.24-3.19-2.89-3.12-4.5-.06-1.48-1.01-2.93-2.9-4.01-3.89-2.25-10.15-2.23-14,0l-20.09,11.67-20.23-11.68c-1.68-.97-1.69-2.53-.02-3.5,.8-.47,1.86-.71,2.92-.72,4.16,.07,8.48-.84,11.74-2.74,6.32-3.67,6.28-9.61-.08-13.28-6.35-3.66-16.59-3.66-22.91,.02-3.26,1.89-4.81,4.4-4.67,6.88-.02,.53-.44,1.15-1.24,1.61-1.67,.97-4.37,.97-6.05,0l-20.23-11.68,20.09-11.68c1.67-.97,4.38-.99,6.06,0,.81,.47,1.21,1.09,1.24,1.7-.09,2.43,1.51,4.93,4.78,6.82,6.34,3.66,16.59,3.66,22.89,0,6.3-3.66,6.27-9.6-.08-13.27-3.29-1.89-7.61-2.79-11.88-2.74-.98,0-2.02-.23-2.84-.71-1.67-.97-1.67-2.54-.02-3.5l20.1-11.69,20.23,11.69c3.89,2.24,10.15,2.22,13.98,0,1.89-1.1,2.84-2.53,2.88-3.96-.08-1.69,.93-3.33,3.05-4.56,4.11-2.39,10.83-2.4,14.96-.02,4.15,2.4,4.16,6.3,.04,8.68-2.12,1.23-4.94,1.81-7.73,1.77-2.62,.04-5.06,.58-6.95,1.68-3.83,2.23-3.84,5.86,.05,8.11l20.23,11.69-20.1,11.68c-3.84,2.23-3.84,5.86,.04,8.11,1.89,1.1,4.39,1.64,6.82,1.67,2.91-.04,5.75,.55,7.9,1.79,4.13,2.38,4.16,6.26,.05,8.66Z"/>
        <path class="cls-34" d="M110.84,147.77c1.36,.79,3.12,1.18,4.89,1.2,3.54-.04,7.12,.7,9.83,2.27,1.58,.91,2.63,2.01,3.26,3.16,.43-.77,.69-1.57,.69-2.38,0-.28-.08-.57-.14-.85-.03-.21-.03-.43-.1-.64-.1-.29-.29-.59-.45-.88-.11-.18-.17-.38-.29-.56-.23-.32-.54-.62-.84-.93-.13-.14-.23-.28-.39-.42-.49-.44-1.07-.84-1.72-1.22-2.71-1.56-6.29-2.31-9.84-2.27-1.76,0-3.52-.4-4.88-1.19-.35-.2-.65-.42-.91-.64-.09-.08-.15-.18-.23-.26-.15-.15-.31-.3-.42-.46-.08-.1-.11-.21-.17-.32-.08-.14-.18-.29-.23-.44-.03-.12-.03-.23-.06-.34-.03-.15-.08-.29-.08-.44h0s0,4.7,0,4.7c0,1.05,.69,2.12,2.08,2.92Z"/>
        <path class="cls-33" d="M175.37,147.89c1.35-.79,3.1-1.18,4.88-1.21,3.54,.06,7.11-.69,9.8-2.25,2.58-1.51,3.89-3.47,3.89-5.46l.02-4.7c0,.28-.08,.54-.13,.82-.04,.22-.04,.44-.11,.64-.1,.28-.28,.56-.43,.84-.11,.2-.17,.4-.31,.59-.2,.29-.49,.57-.76,.84-.15,.17-.27,.34-.45,.5-.48,.43-1.05,.84-1.7,1.21-2.69,1.56-6.27,2.31-9.81,2.25-1.76,.03-3.51,.43-4.87,1.21-.34,.19-.64,.41-.9,.64-.1,.09-.17,.19-.26,.28-.13,.14-.28,.28-.38,.43-.08,.12-.12,.24-.18,.36-.07,.13-.15,.26-.2,.4-.03,.12-.03,.23-.06,.36-.17,.95,.23,1.94,1.23,2.77,.23-.18,.46-.36,.74-.53Z"/>
        <path class="cls-36" d="M125.67,170.83c1.59,.91,2.64,2.02,3.28,3.17,.43-.78,.69-1.57,.69-2.38,0-.28-.08-.55-.13-.84-.04-.21-.04-.43-.12-.64-.09-.29-.28-.55-.43-.83-.11-.2-.18-.41-.31-.61-.21-.3-.51-.58-.79-.85-.16-.17-.28-.34-.45-.51-.49-.43-1.07-.84-1.73-1.21-5.24-3.03-13.72-3.03-18.94,0-.66,.38-1.23,.79-1.71,1.23-.17,.15-.27,.31-.42,.46-.28,.3-.58,.59-.79,.91-.13,.18-.19,.38-.29,.58-.15,.29-.32,.58-.41,.88-.07,.21-.08,.43-.11,.64-.05,.33-.13,.66-.11,1-.03,1.01-.72,2.04-2.06,2.81-2.77,1.61-7.23,1.61-10.01,0l-22.23-12.83-.02,4.71,22.23,12.84c2.78,1.61,7.25,1.61,10.01,0,1.34-.78,2.03-1.81,2.06-2.82v-.33c.03-1.94,1.3-3.88,3.85-5.36,5.23-3.04,13.7-3.04,18.94,0Z"/>
        <path class="cls-35" d="M175.57,174.64c-.34,.18-.64,.41-.9,.64-.08,.07-.13,.14-.19,.22-.16,.16-.33,.33-.44,.49-.08,.1-.1,.2-.16,.3-.08,.14-.18,.3-.23,.46-.03,.11-.03,.22-.05,.33-.18,.97,.21,1.97,1.22,2.79,.23-.18,.46-.36,.74-.53l22.08-12.84,.02-4.71-22.08,12.84Z"/>
        <path class="cls-25" d="M110.84,147.77c1.36,.79,3.12,1.18,4.89,1.2,3.54-.04,7.12,.7,9.83,2.27,1.58,.91,2.63,2.01,3.26,3.16,.43-.77,.69-1.57,.69-2.38,0-.28-.08-.57-.14-.85-.03-.21-.03-.43-.1-.64-.1-.29-.29-.59-.45-.88-.11-.18-.17-.38-.29-.56-.23-.32-.54-.62-.84-.93-.13-.14-.23-.28-.39-.42-.49-.44-1.07-.84-1.72-1.22-2.71-1.56-6.29-2.31-9.84-2.27-1.76,0-3.52-.4-4.88-1.19-.35-.2-.65-.42-.91-.64-.09-.08-.15-.18-.23-.26-.15-.15-.31-.3-.42-.46-.08-.1-.11-.21-.17-.32-.08-.14-.18-.29-.23-.44-.03-.12-.03-.23-.06-.34-.03-.15-.08-.29-.08-.44h0s0,4.7,0,4.7c0,1.05,.69,2.12,2.08,2.92Z"/>
        <path class="cls-23" d="M175.37,147.89c1.35-.79,3.1-1.18,4.88-1.21,3.54,.06,7.11-.69,9.8-2.25,2.58-1.51,3.89-3.47,3.89-5.46l.02-4.7c0,.28-.08,.54-.13,.82-.04,.22-.04,.44-.11,.64-.1,.28-.28,.56-.43,.84-.11,.2-.17,.4-.31,.59-.2,.29-.49,.57-.76,.84-.15,.17-.27,.34-.45,.5-.48,.43-1.05,.84-1.7,1.21-2.69,1.56-6.27,2.31-9.81,2.25-1.76,.03-3.51,.43-4.87,1.21-.34,.19-.64,.41-.9,.64-.1,.09-.17,.19-.26,.28-.13,.14-.28,.28-.38,.43-.08,.12-.12,.24-.18,.36-.07,.13-.15,.26-.2,.4-.03,.12-.03,.23-.06,.36-.17,.95,.23,1.94,1.23,2.77,.23-.18,.46-.36,.74-.53Z"/>
        <path class="cls-24" d="M125.67,170.83c1.59,.91,2.64,2.02,3.28,3.17,.43-.78,.69-1.57,.69-2.38,0-.28-.08-.55-.13-.84-.04-.21-.04-.43-.12-.64-.09-.29-.28-.55-.43-.83-.11-.2-.18-.41-.31-.61-.21-.3-.51-.58-.79-.85-.16-.17-.28-.34-.45-.51-.49-.43-1.07-.84-1.73-1.21-5.24-3.03-13.72-3.03-18.94,0-.66,.38-1.23,.79-1.71,1.23-.17,.15-.27,.31-.42,.46-.28,.3-.58,.59-.79,.91-.13,.18-.19,.38-.29,.58-.15,.29-.32,.58-.41,.88-.07,.21-.08,.43-.11,.64-.05,.33-.13,.66-.11,1-.03,1.01-.72,2.04-2.06,2.81-2.77,1.61-7.23,1.61-10.01,0l-22.23-12.83-.02,4.71,22.23,12.84c2.78,1.61,7.25,1.61,10.01,0,1.34-.78,2.03-1.81,2.06-2.82v-.33c.03-1.94,1.3-3.88,3.85-5.36,5.23-3.04,13.7-3.04,18.94,0Z"/>
        <path class="cls-22" d="M175.57,174.64c-.34,.18-.64,.41-.9,.64-.08,.07-.13,.14-.19,.22-.16,.16-.33,.33-.44,.49-.08,.1-.1,.2-.16,.3-.08,.14-.18,.3-.23,.46-.03,.11-.03,.22-.05,.33-.18,.97,.21,1.97,1.22,2.79,.23-.18,.46-.36,.74-.53l22.08-12.84,.02-4.71-22.08,12.84Z"/>
        <path class="cls-37" d="M194.02,190.87c-.09,.29-.28,.57-.43,.85-.11,.19-.17,.39-.3,.58-.21,.31-.51,.59-.79,.89-.14,.15-.25,.31-.42,.46-.48,.43-1.05,.84-1.7,1.21-5.2,3.02-13.68,3.02-18.92,0-.67-.39-1.25-.8-1.75-1.25-.17-.15-.28-.31-.42-.46-.29-.3-.6-.6-.82-.93-.13-.19-.2-.39-.3-.59-.16-.29-.33-.59-.44-.88-.07-.22-.07-.44-.1-.65-.04-.25-.12-.5-.12-.76v-.18c-.04-1.01-.73-2.05-2.07-2.83-2.78-1.61-7.27-1.6-10.03,0l-22.07,12.82-22.23-12.83c-.34-.2-.65-.42-.91-.64-.08-.08-.13-.15-.2-.22-.16-.17-.33-.33-.45-.5-.07-.09-.1-.2-.16-.29-.08-.16-.18-.31-.23-.47-.04-.11-.04-.23-.06-.33-.03-.15-.07-.3-.07-.45h0s-.02,4.7-.02,4.7c0,1.05,.69,2.12,2.1,2.92l22.22,12.83,22.06-12.82c2.76-1.61,7.25-1.61,10.03,0,1.35,.78,2.02,1.81,2.07,2.82v.17c0,1.99,1.31,4.01,3.95,5.53,5.24,3.03,13.72,3.03,18.92,0,2.58-1.51,3.88-3.47,3.89-5.45v-4.71c0,.28-.08,.54-.13,.82-.04,.21-.04,.43-.11,.64Z"/>
        <path class="cls-26" d="M194.02,190.87c-.09,.29-.28,.57-.43,.85-.11,.19-.17,.39-.3,.58-.21,.31-.51,.59-.79,.89-.14,.15-.25,.31-.42,.46-.48,.43-1.05,.84-1.7,1.21-5.2,3.02-13.68,3.02-18.92,0-.67-.39-1.25-.8-1.75-1.25-.17-.15-.28-.31-.42-.46-.29-.3-.6-.6-.82-.93-.13-.19-.2-.39-.3-.59-.16-.29-.33-.59-.44-.88-.07-.22-.07-.44-.1-.65-.04-.25-.12-.5-.12-.76v-.18c-.04-1.01-.73-2.05-2.07-2.83-2.78-1.61-7.27-1.6-10.03,0l-22.07,12.82-22.23-12.83c-.34-.2-.65-.42-.91-.64-.08-.08-.13-.15-.2-.22-.16-.17-.33-.33-.45-.5-.07-.09-.1-.2-.16-.29-.08-.16-.18-.31-.23-.47-.04-.11-.04-.23-.06-.33-.03-.15-.07-.3-.07-.45h0s-.02,4.7-.02,4.7c0,1.05,.69,2.12,2.1,2.92l22.22,12.83,22.06-12.82c2.76-1.61,7.25-1.61,10.03,0,1.35,.78,2.02,1.81,2.07,2.82v.17c0,1.99,1.31,4.01,3.95,5.53,5.24,3.03,13.72,3.03,18.92,0,2.58-1.51,3.88-3.47,3.89-5.45v-4.71c0,.28-.08,.54-.13,.82-.04,.21-.04,.43-.11,.64Z"/>
      </g>
    </g>
  </g>
</svg>