<?xml version="1.0" encoding="UTF-8"?>
<svg id="Layer_1" data-name="Layer 1" xmlns="http://www.w3.org/2000/svg" xmlns:xlink="http://www.w3.org/1999/xlink" viewBox="0 0 201.63 165.71">
  <defs>
    <style>
      .cls-1 {
        fill: url(#linear-gradient);
      }

      .cls-2 {
        fill: #fff;
      }

      .cls-3 {
        fill: #6c00c1;
      }

      .cls-4 {
        fill: #1b75bb;
      }

      .cls-5 {
        fill: #6cf8ff;
      }

      .cls-6 {
        fill: #53c3ea;
      }

      .cls-7 {
        fill: #26a9e0;
      }

      .cls-8 {
        fill: #360066;
      }

      .cls-9 {
        fill: #4d00b2;
      }

      .cls-10 {
        fill: url(#linear-gradient-8);
      }

      .cls-11 {
        fill: url(#linear-gradient-9);
      }

      .cls-12 {
        fill: url(#linear-gradient-3);
      }

      .cls-13 {
        fill: url(#linear-gradient-4);
      }

      .cls-14 {
        fill: url(#linear-gradient-2);
      }

      .cls-15 {
        fill: url(#linear-gradient-6);
      }

      .cls-16 {
        fill: url(#linear-gradient-7);
      }

      .cls-17 {
        fill: url(#linear-gradient-5);
      }
    </style>
    <linearGradient id="linear-gradient" x1="4.62" y1="110.46" x2="130.45" y2="154.23" gradientUnits="userSpaceOnUse">
      <stop offset=".35" stop-color="#7c1dc9"/>
      <stop offset=".49" stop-color="#921fca"/>
      <stop offset=".67" stop-color="#a821cb"/>
      <stop offset=".85" stop-color="#b622cb"/>
      <stop offset="1" stop-color="#bb23cc"/>
    </linearGradient>
    <linearGradient id="linear-gradient-2" x1="-270.25" y1="113.57" x2="-135.14" y2="113.57" gradientTransform="translate(-68.63) rotate(-180) scale(1 -1)" gradientUnits="userSpaceOnUse">
      <stop offset=".3" stop-color="#0089e5"/>
      <stop offset=".49" stop-color="#009be5"/>
      <stop offset=".65" stop-color="#00aee5"/>
      <stop offset=".94" stop-color="#0064a8"/>
    </linearGradient>
    <linearGradient id="linear-gradient-3" x1="49.12" y1="84.87" x2="201.62" y2="84.87" xlink:href="#linear-gradient"/>
    <linearGradient id="linear-gradient-4" x1="-270.25" y1="95.73" x2="-135.14" y2="95.73" gradientTransform="translate(-68.63) rotate(-180) scale(1 -1)" gradientUnits="userSpaceOnUse">
      <stop offset="0" stop-color="#68f5ea"/>
      <stop offset=".09" stop-color="#538bea"/>
      <stop offset=".24" stop-color="#569dea"/>
      <stop offset=".54" stop-color="#5fcbea"/>
      <stop offset=".83" stop-color="#6affea"/>
      <stop offset="1" stop-color="#5390ea"/>
    </linearGradient>
    <linearGradient id="linear-gradient-5" x1="-242.45" y1="27.72" x2="-68.64" y2="27.72" gradientTransform="translate(-68.63) rotate(-180) scale(1 -1)" gradientUnits="userSpaceOnUse">
      <stop offset="0" stop-color="#538bea"/>
      <stop offset=".17" stop-color="#569dea"/>
      <stop offset=".51" stop-color="#5fcbea"/>
      <stop offset=".83" stop-color="#6affea"/>
      <stop offset="1" stop-color="#5390ea"/>
    </linearGradient>
    <linearGradient id="linear-gradient-6" x1="-182.45" y1="28.92" x2="76.65" y2="28.92" gradientTransform="translate(-68.63) rotate(-180) scale(1 -1)" gradientUnits="userSpaceOnUse">
      <stop offset="0" stop-color="#7c1dc9"/>
      <stop offset=".05" stop-color="#6c40ca"/>
      <stop offset=".15" stop-color="#459bce"/>
      <stop offset=".21" stop-color="#2dd6d1"/>
      <stop offset=".24" stop-color="#3cb2d2"/>
      <stop offset=".27" stop-color="#4b92d4"/>
      <stop offset=".31" stop-color="#5679d6"/>
      <stop offset=".35" stop-color="#5e67d7"/>
      <stop offset=".39" stop-color="#635cd7"/>
      <stop offset=".43" stop-color="#6559d8"/>
      <stop offset=".57" stop-color="#6f3ed1"/>
      <stop offset=".74" stop-color="#7826cb"/>
      <stop offset=".84" stop-color="#7c1dc9"/>
      <stop offset=".87" stop-color="#7a20c9"/>
      <stop offset=".9" stop-color="#762bcc"/>
      <stop offset=".92" stop-color="#6f3ed1"/>
      <stop offset=".95" stop-color="#6459d8"/>
      <stop offset=".98" stop-color="#587be0"/>
      <stop offset=".99" stop-color="#5090e6"/>
    </linearGradient>
    <linearGradient id="linear-gradient-7" x1="-239.33" y1="54.64" x2="-120.46" y2="54.64" gradientTransform="translate(-68.63) rotate(-180) scale(1 -1)" gradientUnits="userSpaceOnUse">
      <stop offset="0" stop-color="#538bea"/>
      <stop offset=".11" stop-color="#569dea"/>
      <stop offset=".34" stop-color="#5fcbea"/>
      <stop offset=".56" stop-color="#6affea"/>
      <stop offset="1" stop-color="#5390ea"/>
    </linearGradient>
    <linearGradient id="linear-gradient-8" x1="-231.39" y1="56.39" x2="-111.3" y2="56.39" gradientTransform="translate(-68.63) rotate(-180) scale(1 -1)" gradientUnits="userSpaceOnUse">
      <stop offset=".06" stop-color="#7c1dc9"/>
      <stop offset=".09" stop-color="#6c40ca"/>
      <stop offset=".16" stop-color="#459bce"/>
      <stop offset=".21" stop-color="#2dd6d1"/>
      <stop offset=".24" stop-color="#3cb2d2"/>
      <stop offset=".28" stop-color="#4b92d4"/>
      <stop offset=".32" stop-color="#5679d6"/>
      <stop offset=".37" stop-color="#5e67d7"/>
      <stop offset=".41" stop-color="#635cd7"/>
      <stop offset=".47" stop-color="#6559d8"/>
      <stop offset=".6" stop-color="#6f3ed1"/>
      <stop offset=".74" stop-color="#7826cb"/>
      <stop offset=".84" stop-color="#7c1dc9"/>
      <stop offset=".87" stop-color="#7a20c9"/>
      <stop offset=".9" stop-color="#762bcc"/>
      <stop offset=".92" stop-color="#6f3ed1"/>
      <stop offset=".95" stop-color="#6459d8"/>
      <stop offset=".98" stop-color="#587be0"/>
      <stop offset=".99" stop-color="#5090e6"/>
    </linearGradient>
    <linearGradient id="linear-gradient-9" x1="-242.46" y1="67.88" x2="-68.63" y2="67.88" xlink:href="#linear-gradient-8"/>
  </defs>
  <path class="cls-7" d="M201.63,61.44h0s0,16.86,0,29.95c0-10.31,0-24.19,0-29.95Z"/>
  <path class="cls-7" d="M201.62,91.38c0,5.86,0,10.57,0,11.98,0,.03,0,.06,0,.08,0-2.75,0-7.14,0-12.06Z"/>
  <path class="cls-2" d="M66.52,101.8h0s0,.02,0,.03v-.03Z"/>
  <path class="cls-9" d="M44.45,123.76c0-11.11,14.4-10.68,19.49-9.96l26.62,3.92-7.17,42.76s-24.26-15.66-27.48-17.68c-5.55-3.47-11.48-9.67-11.48-18.17,0-.3,.03-.59,.03-.87Z"/>
  <path class="cls-1" d="M44.45,123.76c0-11.11,14.4-10.68,19.49-9.96l26.62,3.92-7.17,42.76s-24.26-15.66-27.48-17.68c-5.55-3.47-11.48-9.67-11.48-18.17,0-.3,.03-.59,.03-.87Z"/>
  <path class="cls-9" d="M151.95,61.49c0-11.11,14.4-10.68,19.49-9.96l24.32,3.58-4.87,43.09s-24.25-15.66-27.48-17.68c-5.55-3.47-11.48-9.67-11.48-18.17,0-.3,.03-.59,.03-.87Z"/>
  <path class="cls-6" d="M169.31,75.05c-.01-.54-.03-1.09-.03-1.66,0-18.46,32.35-22.98,32.35-13.75,0,.46-.04,.92-.09,1.38-1.78-8.1-31.68-3.47-32.23,14.03Z"/>
  <path class="cls-7" d="M169.31,75.05c.56-17.51,30.46-22.13,32.23-14.03,.05,.25,.09,.51,.09,.78,0,5.17-3.36,10.6-9.1,15.48,0,0-15.56,10.04-16.8,10.8l-2.41-1.18s-4.05-4.68-4.05-11.36c0-.17,.02-.32,.03-.49Z"/>
  <path class="cls-14" d="M66.56,132.13c.97-18.57,22.48-11.35,29.34-10.98,9.7,.51,20.05-1.47,29.21-5.3,0,0,13.48-6.01,35.25-18.57,5.98-3.45,11.09-6.54,15.37-9.2,11.32-7.05,16.8-11.15,16.8-11.15,5.73-4.89,9.16-10.31,9.1-15.48h0c0,5.75,0,19.63,0,29.95,0,4.92,0,9.31,0,12.06,0,1.2,0,2.1,0,2.59,.01,5.14-3.4,10.52-9.1,15.37,0,0-10.4,7.78-32.17,20.35-21.77,12.57-35.25,18.57-35.25,18.57-9.16,3.83-19.51,5.82-29.21,5.31-7.02-.37-29.39-11.95-29.39-32.19,0-.46,.02-.89,.05-1.31Z"/>
  <g>
    <g>
      <path class="cls-6" d="M159.53,82.02s0,.04,0,.04c-.43,.21-.38,.18,0-.04Z"/>
      <path class="cls-6" d="M48.97,115.69h0s-.01,0,0,0Z"/>
      <path class="cls-6" d="M48.98,115.68s.08-.04,.12-.07c0,0,0,0,.01,0-.07,.04-.13,.07-.15,.08,0,0,0,0,0-.01Z"/>
    </g>
    <path class="cls-6" d="M66.52,101.78h0s0,.02,0,.03v-.03Z"/>
    <path class="cls-6" d="M201.62,91.36c0-10.31,0-24.19,0-29.95h0s0,16.86,0,29.95Z"/>
    <path class="cls-6" d="M201.63,103.42c0-2.75,0-7.14,0-12.06,0,5.86,0,10.57,0,11.98,0,.03,0,.06,0,.08Z"/>
  </g>
  <path class="cls-12" d="M67.76,110.58c7.2,.97,14.52-.48,20.8-4.13l77.48-44.99c3.16-1.84,2.21-6.64-1.42-7.13,0,0-.53-.05-4.2-.57-5.63-.79-8.45,7.01-8.45,7.01,.39-5.78,4.78-7.5,4.78-7.5,.15-.08,.31-.17,.47-.24,.07-.03,.14-.07,.21-.1,.28-.13,.57-.25,.86-.37,.06-.03,.13-.05,.19-.07,.23-.09,.47-.17,.71-.25,.1-.03,.2-.06,.3-.09,.22-.06,.43-.13,.65-.18,.1-.03,.2-.05,.29-.08,.27-.07,.55-.13,.82-.18,.04,0,.08-.02,.12-.02,.32-.06,.63-.12,.95-.16,.09-.01,.19-.03,.28-.04,.23-.03,.46-.06,.68-.09,.11-.01,.22-.02,.32-.03,.23-.02,.46-.04,.69-.06,.09,0,.18-.01,.26-.02,.31-.02,.62-.04,.93-.05,.05,0,.09,0,.14,0,.26,0,.52-.01,.78-.02,.1,0,.19,0,.29,0,.21,0,.41,0,.61,0,.1,0,.19,0,.29,0,.23,0,.45,.01,.67,.02,.05,0,.11,0,.16,0,.27,.01,.53,.03,.78,.05,.07,0,.13,.01,.2,.02,.18,.01,.37,.03,.54,.04,.08,0,.16,.01,.23,.02,.16,.02,.32,.03,.47,.05,.07,0,.13,.01,.2,.02,.21,.03,.4,.05,.59,.08,0,0,16.45,1.82,24.32,3.6,.98,.22,1.56,.27,2.73,.71,1.14,.43,1.99,1.07,2.43,1.67,.27,.37,.36,.54,.49,.86,.1,.27,.19,.6,.22,.97,0,0,.04,1.36-.19,2.51-.44,2.19-1.48,5.11-3.2,7.76l-7.23,7.34s-22.89,13.08-23.23,13.28c-.23,.13-.45,.27-.68,.4-.32,.19-.64,.38-.96,.57-.32,.19-.65,.38-.98,.58-.28,.16-.56,.33-.84,.5-.4,.24-.81,.47-1.22,.71-.24,.14-.48,.28-.72,.42-.66,.38-1.33,.77-2.01,1.17-21.77,12.57-35.25,18.57-35.25,18.57-9.16,3.83-19.51,5.81-29.21,5.3-.2-.01-.41-.03-.64-.05-.07,0-.14-.01-.21-.02-.17-.02-.34-.04-.52-.06-.07,0-.15-.02-.22-.03-.24-.03-.48-.07-.74-.1-.01,0-.02,0-.03,0-.28-.04-.57-.09-.86-.13-.08-.01-.17-.03-.25-.04-.26-.04-.52-.08-.79-.13-.14-.02-.29-.05-.44-.07-.21-.03-.43-.07-.64-.1,0,0,0,0,0,0h0s-.71-.11-.71-.11l-.68-.1c-.5-.08-.99-.15-1.51-.22h0l-23.72-3.5c-.18-.03-.38-.05-.59-.08-.06,0-.13-.01-.19-.02-.15-.02-.31-.03-.48-.05-.08,0-.15-.01-.23-.02-.17-.02-.35-.03-.54-.04-.07,0-.14-.01-.21-.02-.25-.02-.51-.03-.78-.05-.05,0-.11,0-.16,0-.22,0-.44-.02-.67-.02-.09,0-.19,0-.28,0-.2,0-.4,0-.61,0-.1,0-.19,0-.29,0-.26,0-.52,0-.78,.02-.04,0-.09,0-.13,0-.31,.01-.61,.03-.93,.05-.09,0-.18,.01-.27,.02-.23,.02-.46,.04-.68,.06-.11,.01-.21,.02-.32,.03-.23,.03-.46,.06-.68,.09-.09,.01-.19,.03-.28,.04-.32,.05-.63,.1-.95,.16-.04,0-.08,.02-.12,.02-.28,.06-.55,.12-.82,.18-.1,.02-.2,.05-.3,.08-.22,.06-.43,.12-.65,.18-.1,.03-.2,.06-.3,.09-.24,.08-.47,.16-.7,.24-.07,.02-.14,.05-.2,.07-.29,.11-.58,.24-.86,.37-.07,.03-.14,.07-.2,.1-.21,.1-.41,.21-.61,.32,.53-.31,5.22-3.01,6.95-4.01,2.74-1.59,11.69-1.02,11.69-1.02Z"/>
  <path class="cls-13" d="M192.53,76.92s-5.48,4.1-16.8,11.15c-4.28,2.67-9.4,5.75-15.37,9.2-21.77,12.57-35.25,18.57-35.25,18.57-9.16,3.83-19.51,5.81-29.21,5.3-6.86-.36-28.37-7.59-29.34,10.98-.02-.45-.05-.9-.05-1.35,0-20.24,22.36-12.67,29.39-12.3,9.7,.51,20.05-1.47,29.21-5.3,0,0,13.48-6.01,35.25-18.57,5.98-3.45,11.09-6.54,15.37-9.2,11.32-7.05,16.8-11.15,16.8-11.15,5.52-4.71,8.9-9.91,9.09-14.91,0,0,0,.29,0,.62,0,.4,0,.9,0,1.47h0c.06,5.17-3.36,10.6-9.1,15.48Z"/>
  <path class="cls-8" d="M150.41,87.15c11.86-6.9,13.72-10.29,11.12-10.64h0c-2.61-.34-5.83,.02-7.2,.82l-14.41,8.32-14.45,8.34c-1.37,.79-.37,1.71,2.23,2.06h0c2.6,.34,10.85-2,22.72-8.9Z"/>
  <path class="cls-6" d="M148.38,17.63C114.44,3.45,59.4,7.87,25.46,27.5,10.87,35.93,2.57,45.8,.52,55.44c-2.72-12.36,5.58-26.08,24.94-37.27C59.4-1.45,114.44-5.87,148.38,8.3c19.36,8.08,27.66,20.47,24.94,33.26-2.05-9.31-10.35-17.85-24.94-23.94Z"/>
  <path class="cls-17" d="M148.38,17.63C114.44,3.45,59.4,7.87,25.46,27.5,10.87,35.93,2.57,45.8,.52,55.44c-2.72-12.36,5.58-26.08,24.94-37.27C59.4-1.45,114.44-5.87,148.38,8.3c19.36,8.08,27.66,20.47,24.94,33.26-2.05-9.31-10.35-17.85-24.94-23.94Z"/>
  <path class="cls-15" d="M148.38,18.83C114.44,4.66,59.4,9.07,25.46,28.7,10.87,37.13,2.57,47,.52,56.64c-2.72-12.36,5.58-26.08,24.94-37.27C59.4-.25,114.44-4.67,148.38,9.51c19.36,8.08,27.66,20.47,24.94,33.26-2.05-9.31-10.35-17.85-24.94-23.94Z"/>
  <path class="cls-16" d="M129.61,29.36c-22.49,13-40.01,51.49-65.24,57.9-9.86-.45-8.43-.68-12.54-1.19,31.49,3.94,50.5-43.63,76.09-58.43,18.08-10.45,35.83-3.28,40.1-2.32,1.61,.37,2.08,.47,2.08,.47,0,0,.42,.65,.59,.98,.09,.18-.31,.32-.66,.28-3.67-.03-21.84-8.45-40.43,2.3Z"/>
  <path class="cls-10" d="M64.65,87.03c25.22-6.41,42.47-44.67,64.96-57.67,18.59-10.75,36.75-2.33,40.43-2.3,.37,0,.6-.08,.66-.28,8.04,13.88,.61,30.67-22.32,43.93-25.59,14.79-63.16,20.95-94.64,17.01,3.81,.48,7.44,.19,10.92-.69Z"/>
  <path class="cls-6" d="M25.46,79.18c22.36,9.34,53.86,10.61,82.46,4.78,14.83-3.02,28.87-12.51,40.46-19.21,11.61-6.71,19.24-9.78,22.9-17.47,.94-1.97,1.59-3.34,2.03-5.91,.45-2.57,.52-5.23,.52-5.23,0,0-.02,8.96-.02,9.78,.01,3.56-.85,7.18-2.59,10.79-3.68,7.65-11.3,22.06-22.85,28.74-11.59,6.7-25.65,4.81-40.48,7.83-28.6,5.82-60.09,4.55-82.44-4.78C8.38,81.38-.09,70.9,.02,59.75c0-.78-.02-9.65-.02-9.65l.52,5.14c2.05,9.31,10.35,17.85,24.94,23.94Z"/>
  <path class="cls-11" d="M25.46,80.58c22.36,9.34,53.86,10.61,82.46,4.78,14.83-3.02,28.87-12.51,40.46-19.21,11.61-6.71,19.24-9.78,22.9-17.47,.94-1.97,1.53-3.53,2.03-5.91,.5-2.38,.52-5.23,.52-5.23,0,0-.02,8.96-.02,9.78,.01,3.56-.85,7.18-2.59,10.79-3.68,7.65-11.3,22.06-22.85,28.74-11.59,6.7-25.65,4.81-40.48,7.83-28.6,5.82-60.09,4.55-82.44-4.78C8.38,82.78-.09,72.3,.02,61.15c0-.78-.02-9.65-.02-9.65l.52,5.14c2.05,9.31,10.35,17.85,24.94,23.94Z"/>
  <path class="cls-3" d="M201.62,71.74s0-.05,0-.07h0c0,4.74,0,14.98,0,24.21,0-1.42,0-2.93,0-4.5,0-6.11,0-13.46,0-19.65Z"/>
  <path class="cls-5" d="M95.9,131.38c-1.36-.07-3.28-.41-5.51-.77-2.97-.47-5.16-3.04-5.16-6.04v-4.88c4.33,.43,8.34,1.34,10.67,1.46,5.02,.27,10.21-.14,15.32-1.12v5.52c0,2.78-2.08,5.13-4.84,5.46-3.52,.42-7.04,.55-10.47,.37Z"/>
  <path class="cls-5" d="M197.53,71.77c2.65-3.4,4.13-6.92,4.09-10.33h0c0,2.34,0,6.05,0,10.3,0,1.45-.26,2.93-.77,4.4-.63,1.8-3.32,1.31-3.32-.6v-3.78Z"/>
  <path class="cls-4" d="M201.62,95.88c0,3.04,0,5.69,0,7.56,0,1.2,0,2.1,0,2.59,0,.03,0,.07,0,.1,0-1.43,0-2.94,0-4.52,0-1.82,0-3.76,0-5.73Z"/>
  <g>
    <path class="cls-5" d="M111.22,159.98v4.52c-5.11,.98-10.3,1.39-15.32,1.13-2.33-.12-6.34-1.48-10.67-3.98v-4.67c0-2.05,2.11-3.39,3.99-2.57,2.72,1.2,5.09,1.86,6.68,1.95,3.53,.19,7.16,.04,10.78-.41,2.41-.3,4.54,1.59,4.54,4.02Z"/>
    <path class="cls-4" d="M201.62,71.77s0-.02,0-.03c0,4.49,0,9.59,0,14.39,0-1.28,0-2.62,0-4,0-3.22,0-6.79,0-10.35Z"/>
    <path class="cls-5" d="M201.62,101.61c0,1.58,0,3.09,0,4.52-.02,3.34-1.49,6.79-4.09,10.12v-4.45c0-2.8,.76-5.54,2.11-7.99,1.26-2.3,1.96-4.62,1.98-6.9,0,1.62,0,3.2,0,4.7Z"/>
    <path class="cls-3" d="M201.62,91.38c0-1.67,0-3.45,0-5.26,0,3.25,0,6.08,0,8.06,0,1.2,0,2.1,0,2.59,0,.05,0,.09,0,.14v-1.03c0-1.42,0-2.93,0-4.5Z"/>
  </g>
  <path class="cls-5" d="M151.83,129.85l17.95-10.36c1.56-.9,2.52-2.56,2.52-4.37v-3.49c0-1.87-2.02-3.03-3.64-2.1l-17.73,10.24c-1.67,.96-2.69,2.74-2.69,4.67v3.34c0,1.85,2,3,3.6,2.08Z"/>
</svg>