<?xml version="1.0" encoding="UTF-8"?>
<svg id="Layer_1" data-name="Layer 1" xmlns="http://www.w3.org/2000/svg" xmlns:xlink="http://www.w3.org/1999/xlink" viewBox="0 0 170.09 274.71">
  <defs>
    <style>
      .cls-1 {
        fill: url(#_ÂÁ_Ï_ÌÌ_È_ËÂÌÚ_180-3);
      }

      .cls-2 {
        fill: url(#_ÂÁ_Ï_ÌÌ_È_ËÂÌÚ_180-5);
      }

      .cls-3 {
        fill: url(#_ÂÁ_Ï_ÌÌ_È_ËÂÌÚ_180-2);
      }

      .cls-4 {
        fill: url(#_ÂÁ_Ï_ÌÌ_È_ËÂÌÚ_180-4);
      }

      .cls-5 {
        fill: url(#linear-gradient);
      }

      .cls-6 {
        fill: #f7f5ed;
      }

      .cls-7 {
        fill: #eee8de;
      }

      .cls-8 {
        fill: #ffa081;
      }

      .cls-9 {
        fill: #cbc7bc;
      }

      .cls-10 {
        fill: #d597d0;
      }

      .cls-11 {
        fill: #08f7e0;
      }

      .cls-12 {
        fill: url(#_ÂÁ_Ï_ÌÌ_È_ËÂÌÚ_15-3);
      }

      .cls-12, .cls-13, .cls-14, .cls-15 {
        opacity: .48;
      }

      .cls-13 {
        fill: url(#_ÂÁ_Ï_ÌÌ_È_ËÂÌÚ_15-4);
      }

      .cls-14 {
        fill: url(#_ÂÁ_Ï_ÌÌ_È_ËÂÌÚ_15-2);
      }

      .cls-16 {
        fill: url(#linear-gradient-3);
      }

      .cls-17 {
        fill: url(#linear-gradient-4);
      }

      .cls-18 {
        fill: url(#linear-gradient-2);
      }

      .cls-19 {
        fill: url(#linear-gradient-5);
      }

      .cls-15 {
        fill: url(#_ÂÁ_Ï_ÌÌ_È_ËÂÌÚ_15);
      }

      .cls-20 {
        fill: url(#_ÂÁ_Ï_ÌÌ_È_ËÂÌÚ_180);
      }
    </style>
    <linearGradient id="_ÂÁ_Ï_ÌÌ_È_ËÂÌÚ_15" data-name="¡ÂÁ˚ÏˇÌÌ˚È „‡‰ËÂÌÚ 15" x1="10.49" y1="79.39" x2="144.08" y2="228.46" gradientUnits="userSpaceOnUse">
      <stop offset="0" stop-color="#42e8e0"/>
      <stop offset=".15" stop-color="#42e3df"/>
      <stop offset=".33" stop-color="#44d4de"/>
      <stop offset=".52" stop-color="#48bddd"/>
      <stop offset=".72" stop-color="#4d9bda"/>
      <stop offset=".93" stop-color="#5471d8"/>
      <stop offset="1" stop-color="#5761d7"/>
    </linearGradient>
    <linearGradient id="_ÂÁ_Ï_ÌÌ_È_ËÂÌÚ_15-2" data-name="¡ÂÁ˚ÏˇÌÌ˚È „‡‰ËÂÌÚ 15" x1="0" y1="99.16" x2="124.88" y2="99.16" xlink:href="#_ÂÁ_Ï_ÌÌ_È_ËÂÌÚ_15"/>
    <linearGradient id="_ÂÁ_Ï_ÌÌ_È_ËÂÌÚ_15-3" data-name="¡ÂÁ˚ÏˇÌÌ˚È „‡‰ËÂÌÚ 15" x1="37.96" y1="27.76" x2="144.66" y2="92.65" xlink:href="#_ÂÁ_Ï_ÌÌ_È_ËÂÌÚ_15"/>
    <linearGradient id="_ÂÁ_Ï_ÌÌ_È_ËÂÌÚ_180" data-name="¡ÂÁ˚ÏˇÌÌ˚È „‡‰ËÂÌÚ 180" x1="70.43" y1="123.74" x2="80.28" y2="123.74" gradientUnits="userSpaceOnUse">
      <stop offset="0" stop-color="#7b7be6"/>
      <stop offset="1" stop-color="#9481ff"/>
    </linearGradient>
    <linearGradient id="_ÂÁ_Ï_ÌÌ_È_ËÂÌÚ_180-2" data-name="¡ÂÁ˚ÏˇÌÌ˚È „‡‰ËÂÌÚ 180" x1="83.82" y1="100.97" x2="93.67" y2="100.97" xlink:href="#_ÂÁ_Ï_ÌÌ_È_ËÂÌÚ_180"/>
    <linearGradient id="_ÂÁ_Ï_ÌÌ_È_ËÂÌÚ_180-3" data-name="¡ÂÁ˚ÏˇÌÌ˚È „‡‰ËÂÌÚ 180" x1="97.21" y1="90.05" x2="107.06" y2="90.05" xlink:href="#_ÂÁ_Ï_ÌÌ_È_ËÂÌÚ_180"/>
    <linearGradient id="_ÂÁ_Ï_ÌÌ_È_ËÂÌÚ_180-4" data-name="¡ÂÁ˚ÏˇÌÌ˚È „‡‰ËÂÌÚ 180" x1="249.56" y1="245.11" x2="258.86" y2="245.11" gradientTransform="translate(281.17 -293.08) rotate(90) skewX(30)" xlink:href="#_ÂÁ_Ï_ÌÌ_È_ËÂÌÚ_180"/>
    <linearGradient id="_ÂÁ_Ï_ÌÌ_È_ËÂÌÚ_180-5" data-name="¡ÂÁ˚ÏˇÌÌ˚È „‡‰ËÂÌÚ 180" x1="268.54" y1="237.73" x2="281.87" y2="237.73" gradientTransform="translate(299.49 -321.97) rotate(90) skewX(30)" xlink:href="#_ÂÁ_Ï_ÌÌ_È_ËÂÌÚ_180"/>
    <linearGradient id="linear-gradient" x1="159.06" y1="116.95" x2="113.96" y2="190.57" gradientUnits="userSpaceOnUse">
      <stop offset=".1" stop-color="#681bb2"/>
      <stop offset=".17" stop-color="#661fb1"/>
      <stop offset=".24" stop-color="#612dae"/>
      <stop offset=".32" stop-color="#5944aa"/>
      <stop offset=".4" stop-color="#4e64a5"/>
      <stop offset=".49" stop-color="#418d9e"/>
      <stop offset=".53" stop-color="#38a89a"/>
      <stop offset=".59" stop-color="#399e99"/>
      <stop offset=".68" stop-color="#3e8398"/>
      <stop offset=".79" stop-color="#465896"/>
      <stop offset=".93" stop-color="#511d93"/>
      <stop offset=".94" stop-color="#521993"/>
    </linearGradient>
    <linearGradient id="linear-gradient-2" x1="100.29" y1="145.14" x2="216.39" y2="145.14" gradientUnits="userSpaceOnUse">
      <stop offset=".1" stop-color="#681bb2"/>
      <stop offset=".39" stop-color="#641aad"/>
      <stop offset=".73" stop-color="#5a199f"/>
      <stop offset=".94" stop-color="#521993"/>
    </linearGradient>
    <linearGradient id="_ÂÁ_Ï_ÌÌ_È_ËÂÌÚ_15-4" data-name="¡ÂÁ˚ÏˇÌÌ˚È „‡‰ËÂÌÚ 15" x1="87.52" y1="142.42" x2="162.5" y2="142.42" xlink:href="#_ÂÁ_Ï_ÌÌ_È_ËÂÌÚ_15"/>
    <linearGradient id="linear-gradient-3" x1="137.54" y1="91.11" x2="95.46" y2="163.99" gradientUnits="userSpaceOnUse">
      <stop offset=".1" stop-color="#681bb2"/>
      <stop offset=".16" stop-color="#642eb3"/>
      <stop offset=".28" stop-color="#5c5fb5"/>
      <stop offset=".45" stop-color="#4eaeb9"/>
      <stop offset=".52" stop-color="#48d3bc"/>
      <stop offset=".57" stop-color="#48c9b9"/>
      <stop offset=".64" stop-color="#49aeb3"/>
      <stop offset=".74" stop-color="#4c83aa"/>
      <stop offset=".86" stop-color="#4f489d"/>
      <stop offset=".94" stop-color="#521993"/>
    </linearGradient>
    <linearGradient id="linear-gradient-4" x1="91.81" y1="145.84" x2="170.09" y2="145.84" gradientUnits="userSpaceOnUse">
      <stop offset=".13" stop-color="#6719b2"/>
      <stop offset=".51" stop-color="#821d93"/>
      <stop offset=".86" stop-color="#691aa5"/>
      <stop offset=".95" stop-color="#631aaa"/>
    </linearGradient>
    <linearGradient id="linear-gradient-5" x1="91.81" y1="131.75" x2="153.29" y2="131.75" gradientUnits="userSpaceOnUse">
      <stop offset=".08" stop-color="#681bb2"/>
      <stop offset=".21" stop-color="#5b5db3"/>
      <stop offset=".34" stop-color="#5097b4"/>
      <stop offset=".43" stop-color="#49bbb5"/>
      <stop offset=".48" stop-color="#47c9b6"/>
      <stop offset=".54" stop-color="#47c2b4"/>
      <stop offset=".61" stop-color="#48b1b1"/>
      <stop offset=".69" stop-color="#4a95ab"/>
      <stop offset=".78" stop-color="#4c6ea4"/>
      <stop offset=".88" stop-color="#4f3d9a"/>
      <stop offset=".94" stop-color="#521993"/>
    </linearGradient>
  </defs>
  <polygon class="cls-15" points="124.88 202.61 0 274.71 0 72.1 124.88 0 124.88 202.61"/>
  <path class="cls-11" d="M16.36,173.9l-3.49,2.02v-1.33l3.49-2.02v1.33Zm16.52-10.87l-3.81,2.2v1.33l3.81-2.2v-1.33Zm-18.59,7.11l-5.36,3.09v1.33l5.36-3.09v-1.33Zm1.55,.44l3.49-2.02v-1.33l-3.49,2.02v1.33Zm5.04-2.91l4.27-2.46v-1.33l-4.27,2.46v1.33Zm10.01-5.78l7.63-4.4v-1.33l-7.63,4.4v1.33Zm13.76-7.95l8.12-4.69v-1.33l-8.12,4.69v1.33Zm-33.34,14.3l-2.39,1.38v1.33l2.39-1.38v-1.33Zm1.55,.44l3.49-2.02v-1.33l-3.49,2.02v1.33Zm5.04-2.91l3.62-2.09v-1.33s-3.62,2.09-3.62,2.09v1.33Zm16.52-9.54l6.18-3.57v-1.33l-6.18,3.57v1.33Zm-15.1,3.77l-3.49,2.02v1.33l3.49-2.02v-1.33Zm10.01-5.78l-2.64,1.53v1.33l2.64-1.53v-1.33Zm1.55,.44l7.63-4.4v-1.33s-7.63,4.4-7.63,4.4v1.33Zm9.18-5.3l3.03-1.75v-1.33l-3.03,1.75v1.33Zm4.58-2.65l8.89-5.13v-1.33l-8.89,5.13v1.33Zm-33.34,14.3l-2.39,1.38v1.33l2.39-1.38v-1.33Zm1.55,.44l3.49-2.02v-1.33l-3.49,2.02v1.33Zm5.04-2.91l10.34-5.97,4.63-2.67v-1.33l-5.17,2.99-9.8,5.66v1.33Zm32.19-18.59v-1.33l-2.94,1.7v1.33l2.94-1.7Zm-35.81,15.72l-5.36,3.09v1.33l5.36-3.09v-1.33Zm8.43-4.86l-1.83,1.06v1.33l1.83-1.06v-1.33Zm6.63-3.83l-5.08,2.93v1.33s5.08-2.93,5.08-2.93v-1.33Zm1.55,.44l7.63-4.4v-1.33l-7.63,4.4v1.33Zm9.18-5.3l3.03-1.75v-1.33l-3.03,1.75v1.33Zm21.97,4.08l-3.49,2.02v1.33l3.49-2.02v-1.33Zm30.57-16.32v-1.33l-3.45,1.99v1.33l3.45-1.99Zm-38.3,18.49l5.66-3.27v-1.33l-5.66,3.27v1.33Zm7.21-4.16l3.49-2.02v-1.33l-3.49,2.02v1.33Zm5.04-2.91l4.27-2.46v-1.33l-4.27,2.46v1.33Zm-14.93,5l5.37-3.1v-1.33l-5.37,3.1v1.33Zm6.92-3.99l3.49-2.02v-1.33l-3.49,2.02v1.33Zm18.58-15.68l-3.42,1.97v1.33l3.42-1.97v-1.33Zm6.31-3.64l-4.76,2.75v1.33l4.76-2.75v-1.33Zm-31.8,16.08l5.37-3.1v-1.33l-5.37,3.1v1.33Zm11.96-6.9l7.24-4.18v-1.33l-7.24,4.18v1.33Zm-7.74,.85l4.12-2.38v-1.33l-4.12,2.38v1.33Zm-44.54,13.54l-2.39,1.38v1.33l2.39-1.38v-1.33Zm21.56-12.45l-3.81,2.2v1.33l3.81-2.2v-1.33Zm9.28-4.03l3.45-1.99v-1.33l-3.45,1.99v1.33Zm-17.01,4.87l-4.27,2.46v1.33l4.27-2.46v-1.33Zm13.38-7.72l-7.63,4.4v1.33l7.63-4.4v-1.33Zm1.55,.44l3.03-1.75v-1.33l-3.03,1.75v1.33Zm11.56-3.06l5.37-3.1v-1.33l-5.37,3.1v1.33Zm11.96-6.91l9.78-5.65v-1.33l-9.78,5.65v1.33Zm-3.62-2.86l-5.66,3.27v1.33l5.66-3.27v-1.33Zm17.15-9.9l-4.74,2.74v1.33s4.74-2.74,4.74-2.74v-1.33Zm6.31-3.64l-4.76,2.75v1.33l4.76-2.75v-1.33Zm6.68-3.86l-5.13,2.96v1.33l5.13-2.96v-1.33ZM11.32,132.06l-2.39,1.38v1.33l2.39-1.38v-1.33Zm1.55,.44l3.49-2.02v-1.33l-3.49,2.02v1.33Zm5.04-2.91l9.61-5.55v-1.33l-9.61,5.55v1.33Zm22.7-14.44l-6.18,3.57v1.33l6.18-3.57v-1.33Zm-21.28,8.67l-3.49,2.02v1.33l3.49-2.02v-1.33Zm7.37-2.92l2.64-1.53v-1.33l-2.64,1.53v1.33Zm4.19-2.42l7.63-4.4v-1.33l-7.63,4.4v1.33Zm13.76-7.95l8.12-4.69v-1.33l-8.12,4.69v1.33Zm-31.79,14.74l3.49-2.02v-1.33l-3.49,2.02v1.33Zm20.01-12.89l-9.8,5.66v1.33l9.8-5.66v-1.33Zm7.73-4.46l-6.18,3.57v1.33l6.18-3.57v-1.33Zm5-2.89l-3.45,1.99v1.33l3.45-1.99v-1.33Zm1.55-.9v1.33l2.94-1.7v-1.33l-2.94,1.7Zm-27.83,12.45l-3.49,2.02v1.33l3.49-2.02v-1.33Zm23.78-13.73l-3.03,1.75v1.33l3.03-1.75v-1.33Zm-3.03-4.15l3.03-1.75v-1.33l-3.03,1.75v1.33Zm11.56,11.42l5.37-3.1v-1.33l-5.37,3.1v1.33Zm6.92-3.99l3.49-2.02v-1.33l-3.49,2.02v1.33Zm5.04-2.91l9.78-5.65v-1.33l-9.78,5.65v1.33Zm1.42-5.77l-3.49,2.02v1.33l3.49-2.02v-1.33Zm7.37-2.92l4.74-2.74v-1.33l-4.74,2.74v1.33Zm17.73-11.57l-5.13,2.96v1.33l5.13-2.96v-1.33Zm-.95-1.74l3.45-1.99v-1.33l-3.45,1.99v1.33Zm-34.08,16.06l4.89-2.82v-1.33l-4.89,2.82v1.33Zm6.44-3.72l3.49-2.02v-1.33l-3.49,2.02v1.33Zm5.04-2.91l5.59-3.23v-1.33l-5.59,3.23v1.33Zm10.56-6.1v-1.33l-3.42,1.97v1.33l3.42-1.97Zm6.31-4.98l-4.76,2.75v1.33l4.76-2.75v-1.33Zm6.68-3.86l-5.13,2.96v1.33l5.13-2.96v-1.33Zm-38.48,19.93l5.37-3.1v-1.33l-5.37,3.1v1.33Zm10.41-7.34l-3.49,2.02v1.33l3.49-2.02v-1.33Zm20.17-10.31l5.41-3.12v-1.33l-5.41,3.12v1.33Zm6.96-4.02l3.45-1.99v-1.33l-3.45,1.99v1.33Zm-24.15,8.99l-3.49,2.02v1.33l3.49-2.02v-1.33Zm12.11-6.99l-6.62,3.82v1.33l6.62-3.82v-1.33ZM12.87,103.54l3.49-2.02v-1.33l-3.49,2.02v1.33Zm20.01-12.89l-3.81,2.2v1.33s3.81-2.2,3.81-2.2v-1.33Zm-6.18,1.28l2.64-1.53v-1.33l-2.64,1.53v1.33Zm4.2-2.42l7.63-4.4v-1.33l-7.63,4.4v1.33Zm9.18-5.3l3.03-1.75v-1.33l-3.03,1.75v1.33Zm11.56-3.06l5.37-3.1v-1.33l-5.37,3.1v1.33Zm6.92-3.99l3.49-2.02v-1.33l-3.49,2.02v1.33Zm16.37-9.45l5.74-3.31v-1.33l-5.74,3.31v1.33Zm7.29-4.21l5.41-3.12v-1.33l-5.41,3.12v1.33Zm6.96-4.02l3.45-1.99v-1.33l-3.45,1.99v1.33Zm-24.15,8.99l-3.49,2.02v1.33l3.49-2.02v-1.33Zm5.82-2.03v-1.33l-4.27,2.46v1.33s4.27-2.46,4.27-2.46ZM11.32,175.48l-2.39,1.38v1.33l2.39-1.38v-1.33Zm38.79-22.39l-2.94,1.7v1.33l2.94-1.7v-1.33Zm-10.02,3.5l3.03-1.75v-1.33l-3.03,1.75v1.33Zm-17,6.19l9.8-5.66v-1.33l-9.8,5.66v1.33Zm-8.79,.12l-5.36,3.09v1.33l5.36-3.09v-1.33Zm66.38-27.46l-5.74,3.31v1.33l5.74-3.31v-1.33Zm-3.53-.25v-1.33l-4.74,2.74v1.33l4.74-2.74Zm5.09-6.56l5.41-3.12v-1.33l-5.41,3.12v1.33Zm-20.69,8.32l3.49-2.02v-1.33l-3.49,2.02v1.33Zm3.49-10.59l-3.49,2.02v1.33l3.49-2.02v-1.33Zm24.15-23.46l3.45-1.99v-1.33l-3.45,1.99v1.33ZM14.29,126.72l-5.36,3.09v1.33l5.36-3.09v-1.33Zm39.26-29.91l-8.89,5.13v1.33l8.89-5.13v-1.33Zm-34.22,12.52l-3.49,2.02v1.33l3.49-2.02v-1.33Zm44.27-13.37l5.58-3.22v-1.33l-5.58,3.22v1.33Zm7.14-4.12l9.93-5.73v-1.33l-9.93,5.73v1.33Zm-23.57-8.1l2.94-1.7v-1.33l-2.94,1.7v1.33Zm-6.55,74.82l-6.18,3.57v1.33l6.18-3.57v-1.33Zm-15.46-.6v-1.33l-4.27,2.46v1.33l4.27-2.46Zm62.47-26.54l-5.41,3.12v1.33s5.41-3.12,5.41-3.12v-1.33Zm2.5-5.06l-5.13,2.96v1.33l5.13-2.96v-1.33Zm-35.03,14.32l4.89-2.82v-1.33l-4.89,2.82v1.33Zm-42.22,6.29l3.49-2.02v-1.33l-3.49,2.02v1.33Zm37.23-21.5v-1.33l-2.94,1.7v1.33l2.94-1.7Zm-35.81,15.72l-5.36,3.09v1.33l5.36-3.09v-1.33Zm12.41-5.83l2.64-1.53v-1.33l-2.64,1.53v1.33Zm17.96-10.37l8.12-4.69v-1.33l-8.12,4.69v1.33Zm13.89-4.4l3.49-2.02v-1.33l-3.49,2.02v1.33Zm-33.41-7.38l-4.27,2.46v1.33l4.27-2.46v-1.33Zm1.55-.9v1.33l2.64-1.53v-1.33l-2.64,1.53Zm-13.83,5.7l3.49-2.02v-1.33l-3.49,2.02v1.33Zm27.74-17.35l-6.18,3.57v1.33l6.18-3.57v-1.33Zm-26.32,11.58l-5.36,3.09v1.33l5.36-3.09v-1.33Zm15.06-8.69l-5.08,2.93v1.33l5.08-2.93v-1.33Zm45.58-6.89l5.74-3.31v-1.33l-5.74,3.31v1.33Zm7.29-4.21l5.41-3.12v-1.33l-5.41,3.12v1.33Zm-30.58,10.42l5.37-3.1v-1.33l-5.37,3.1v1.33Zm31.8-30.55l-4.76,2.75v1.33l4.76-2.75v-1.33Zm6.68-3.86l-5.13,2.96v1.33l5.13-2.96v-1.33Zm-47.96,18.17l3.45-1.99v-1.33l-3.45,1.99v1.33Zm-27.87,11.14l-5.36,3.09v1.33l5.36-3.09v-1.33Zm5.04-2.91l-3.49,2.02v1.33l3.49-2.02v-1.33Zm5.82-3.36l-4.27,2.46v1.33l4.27-2.46v-1.33Zm34.83-20.11l-5.66,3.27v1.33l5.66-3.27v-1.33ZM27.52,166.12l-9.61,5.55v1.33l9.61-5.55v-1.33Zm1.82-3.34v-1.33l-2.64,1.53v1.33s2.64-1.53,2.64-1.53Zm20.76-15.6v-1.33l-2.94,1.7v1.33l2.94-1.7Zm-15.67,1.81l6.18-3.57v-1.33l-6.18,3.57v1.33Zm-15.1,3.76l-3.49,2.02v1.33l3.49-2.02v-1.33Zm54.05-13.11l-9.78,5.65v1.33l9.78-5.65v-1.33Zm1.55-28.5l5.74-3.31v-1.33l-5.74,3.31v1.33Zm7.29-4.21l5.41-3.12v-1.33l-5.41,3.12v1.33Zm-57.07,13.51l-4.27,2.46v1.33s4.27-2.46,4.27-2.46v-1.33Zm17.96-10.37l-3.03,1.75v1.33l3.03-1.75v-1.33Zm-31.79,14.74l-2.39,1.38v1.33l2.39-1.38v-1.33Zm38.79-29.63l-2.94,1.7v1.33l2.94-1.7v-1.33Zm39.07-6.75l3.45-1.99v-1.33l-3.45,1.99v1.33Zm-6.96-3.22l5.41-3.12v-1.33l-5.41,3.12v1.33Zm-11.38-2l-7.24,4.18v1.33l7.24-4.18v-1.33Zm1.55,.44l8.27-4.78v-1.33l-8.27,4.78v1.33Zm-5.82-1.59v1.33l2.39-1.38v-1.33l-2.39,1.38ZM11.32,103.1l-2.39,1.38v1.33l2.39-1.38v-1.33Zm41.47-27.56l-8.12,4.69v1.33l8.12-4.69v-1.33Zm-7.18,80.14l-3.45,1.99v1.33l3.45-1.99v-1.33Zm-3.45-3.91l3.45-1.99v-1.33l-3.45,1.99v1.33Zm0-7.24l3.45-1.99v-1.33l-3.45,1.99v1.33Zm14.84,4.57l-5.37,3.1v1.33l5.37-3.1v-1.33Zm6.59-9.71l5.58-3.22v-1.33l-5.58,3.22v1.33Zm25.58-14.77l3.45-1.99v-1.33l-3.45,1.99v1.33Zm.95-5.5l-5.13,2.96v1.33l5.13-2.96v-1.33Zm-31.57,15.94l3.49-2.02v-1.33l-3.49,2.02v1.33Zm10.41-9.63v-1.33l-2.39,1.38v1.33l2.39-1.38Zm-51.05,18.63l9.61-5.55v-1.33l-9.61,5.55v1.33Zm1.42-5.77l-3.49,2.02v1.33l3.49-2.02v-1.33Zm45.69-26.38l-3.49,2.02v1.33l3.49-2.02v-1.33Zm-14.92-.92v-1.33s-2.94,1.7-2.94,1.7v1.33l2.94-1.7Zm-35.81,8.49l-5.36,3.09v1.33l5.36-3.09v-1.33Zm31.32-21.7l-3.45,1.99v1.33l3.45-1.99v-1.33Zm-14.71,6.21l7.63-4.4v-1.33l-7.63,4.4v1.33Zm13.76-7.95l9.66-5.58v-1.33l-9.66,5.58v1.33Zm26.18-1.97l-4.27,2.46v1.33l4.27-2.46v-1.33Zm-12.28,4.81l3.49-2.02v-1.33l-3.49,2.02v1.33Zm1.42-13.01l-4.12,2.38v1.33l4.12-2.38v-1.33Zm-42.07,14.76l9.61-5.55v-1.33l-9.61,5.55v1.33Zm26.75,38.83l9.66-5.58v-1.33l-9.66,5.58v1.33Zm38.78-9.25l-4.76,2.75v1.33l4.76-2.75v-1.33Zm-12.71,5.05l9.93-5.73v-1.33l-9.93,5.73v1.33Zm-4.16-1.22l5.59-3.23v-1.33l-5.59,3.23v1.33Zm-32.14,.47l6.18-3.57v-1.33l-6.18,3.57v1.33Zm36.41-24.64v-1.33l-4.27,2.46v1.33l4.27-2.46Zm-37.96,9.72l-3.81,2.2v1.33l3.81-2.2v-1.33Zm9.28-4.03l3.45-1.99v-1.33l-3.45,1.99v1.33Zm-24.25,6.76l3.62-2.09v-1.33l-3.62,2.09v1.33Zm20.62-16.85l-7.63,4.4v1.33l7.63-4.4v-1.33Zm-27.21,12.09l-2.39,1.38v1.33l2.39-1.38v-1.33Zm6.59-2.47l9.8-5.66,5.17-2.99v-1.33l-5.17,2.99-9.8,5.66v1.33Zm4.81-7.73l-1.83,1.06v1.33l1.83-1.06v-1.33Zm37.26-7.04l-5.66,3.27v1.33l5.66-3.27v-1.33Zm23.46-13.55l-4.76,2.75v1.33l4.76-2.75v-1.33Zm-49.01,4.3l6.18-3.57v-1.33l-6.18,3.57v1.33Zm29.17-16.84l9.78-5.65v-1.33l-9.78,5.65v1.33Zm13.53-12.76l-4.74,2.74v1.33l4.74-2.74v-1.33Zm6.31-3.64l-4.76,2.75v1.33l4.76-2.75v-1.33Zm6.68-3.86l-5.13,2.96v1.33l5.13-2.96v-1.33Zm8.68,70.98l-3.49,2.02v1.33l3.49-2.02v-1.33Zm16.52-9.54l-3.81,2.2v1.33l3.81-2.2v-1.33Zm-18.59,7.11l-5.36,3.09v1.33l5.36-3.09v-1.33Zm1.55,.44l3.49-2.02v-1.33l-3.49,2.02v1.33Zm5.04-2.91l4.27-2.46v-1.33l-4.27,2.46v1.33Zm10.01-5.78l7.63-4.4v-1.33l-7.63,4.4v1.33Zm-19.24,7.49l4.7-2.71v-1.33l-4.7,2.71v1.33Zm6.25-3.61l3.62-2.09v-1.33l-3.62,2.09v1.33Zm16.52-9.54l4.24-2.45v-1.33l-4.24,2.45v1.33Zm-15.1,3.77l-3.49,2.02v1.33l3.49-2.02v-1.33Zm10.01-5.78l-2.64,1.53v1.33l2.64-1.53v-1.33Zm1.55,.44l7.63-4.4v-1.33l-7.63,4.4v1.33Zm-19.58,6.35l-2.39,1.38v1.33l2.39-1.38v-1.33Zm1.55,.44l3.49-2.02v-1.33l-3.49,2.02v1.33Zm5.04-2.91l10.34-5.97,4.63-2.67v-1.33l-5.17,2.99-9.8,5.66v1.33Zm-3.62-2.86l-5.36,3.09v1.33l5.36-3.09v-1.33Zm8.43-4.87l-1.83,1.06v1.33s1.83-1.06,1.83-1.06v-1.33Zm6.63-3.83l-5.08,2.93v1.33l5.08-2.93v-1.33Zm1.55,.44l7.63-4.4v-1.33l-7.63,4.4v1.33Zm1.98-13.32l-3.81,2.2v1.33l3.81-2.2v-1.33Zm-7.73,.84l-4.27,2.46v1.33l4.27-2.46v-1.33Zm13.38-7.72l-7.63,4.4v1.33l7.63-4.4v-1.33Zm-26.83,5.96l4.66-2.69v-1.33l-4.66,2.69v1.33Zm6.21-3.59l9.61-5.55v-1.33l-9.61,5.55v1.33Zm20.76-13.32l-4.24,2.45v1.33l4.24-2.45v-1.33Zm-19.34,7.55l-3.49,2.02v1.33l3.49-2.02v-1.33Zm7.37-2.92l2.64-1.53v-1.33l-2.64,1.53v1.33Zm4.2-2.42l7.63-4.4v-1.33l-7.63,4.4v1.33Zm-18.03,6.79l3.49-2.02v-1.33l-3.49,2.02v1.33Zm20.01-12.89l-9.8,5.66v1.33l9.8-5.66v-1.33Zm5.79-3.34l-4.24,2.45v1.33l4.24-2.45v-1.33Zm-19.34,7.55l-3.49,2.02v1.33l3.49-2.02v-1.33Zm-6.46-13.03l3.49-2.02v-1.33l-3.49,2.02v1.33Zm20.01-12.89l-3.81,2.2v1.33l3.81-2.2v-1.33Zm-6.18,1.28l2.64-1.53v-1.33l-2.64,1.53v1.33Zm4.19-2.42l7.63-4.4v-1.33l-7.63,4.4v1.33Zm-7.82,73.27l9.8-5.66v-1.33l-9.8,5.66v1.33Zm-8.79,.12l-5.36,3.09v1.33l5.36-3.09v-1.33Zm0-36.18l-5.36,3.09v1.33l5.36-3.09v-1.33Zm5.04-17.39l-3.49,2.02v1.33s3.49-2.02,3.49-2.02v-1.33Zm19.34,50.35l-4.24,2.45v1.33l4.24-2.45v-1.33Zm-13.52-1.72v-1.33l-4.27,2.46v1.33l4.27-2.46Zm-13.42-10.34l4.62-2.67v-1.33l-4.62,2.67v1.33Zm2.55-6.43l-5.36,3.09v1.33l5.36-3.09v-1.33Zm12.41-5.83l2.64-1.53v-1.33l-2.64,1.53v1.33Zm-1.55-22.16l-4.27,2.46v1.33l4.27-2.46v-1.33Zm1.55-.9v1.33l2.64-1.53v-1.33l-2.64,1.53Zm-13.83,5.7l3.49-2.02v-1.33l-3.49,2.02v1.33Zm25.8-16.23l-4.24,2.45v1.33l4.24-2.45v-1.33Zm-24.38,10.46l-5.36,3.09v1.33l5.36-3.09v-1.33Zm15.06-8.69l-5.08,2.93v1.33l5.08-2.93v-1.33Zm-15.06-5.78l-5.36,3.09v1.33l5.36-3.09v-1.33Zm5.04-2.91l-3.49,2.02v1.33l3.49-2.02v-1.33Zm5.82-3.36l-4.27,2.46v1.33l4.27-2.46v-1.33Zm2.37,74.62l-9.61,5.55v1.33l9.61-5.55v-1.33Zm1.82-3.34v-1.33l-2.64,1.53v1.33l2.64-1.53Zm5.09-13.79l4.24-2.45v-1.33l-4.24,2.45v1.33Zm-15.1,3.76l-3.49,2.02v1.33l3.49-2.02v-1.33Zm5.82-32.3l-4.27,2.46v1.33l4.27-2.46v-1.33Zm-7.24,23.61l9.61-5.55v-1.33l-9.61,5.55v1.33Zm1.42-5.77l-3.49,2.02v1.33l3.49-2.02v-1.33Zm-5.04-18.81l-5.36,3.09v1.33l5.36-3.09v-1.33Zm16.61-15.49l7.63-4.4v-1.33l-7.63,4.4v1.33Zm-12.99-3.36l9.61-5.55v-1.33l-9.61,5.55v1.33Zm16.52,33.89l4.24-2.45v-1.33l-4.24,2.45v1.33Zm-1.55-14.92l-3.81,2.2v1.33l3.81-2.2v-1.33Zm-14.97,2.74l3.62-2.09v-1.33l-3.62,2.09v1.33Zm20.62-16.85l-7.63,4.4v1.33l7.63-4.4v-1.33Zm-20.62,9.62l9.8-5.66,5.17-2.99v-1.33l-5.17,2.99-9.8,5.66v1.33Zm4.81-7.73l-1.83,1.06v1.33l1.83-1.06v-1.33Zm11.72-16.29l4.24-2.45v-1.33l-4.24,2.45v1.33ZM6.79,179.42v-1.33l-2.39,1.38v1.33l2.39-1.38Zm-2.39-2.24l2.39-1.38v-1.33l-2.39,1.38v1.33Zm0-3.62l2.39-1.38v-1.33l-2.39,1.38v1.33Zm0-3.62l2.39-1.38v-1.33l-2.39,1.38v1.33Zm0-3.62l2.39-1.38v-1.33l-2.39,1.38v1.33Zm0-3.62l2.39-1.38v-1.33l-2.39,1.38v1.33Zm0-3.62l2.39-1.38v-1.33l-2.39,1.38v1.33Zm0-3.62l2.39-1.38v-1.33l-2.39,1.38v1.33Zm0-3.62l2.39-1.38v-1.33l-2.39,1.38v1.33Zm0-3.62l2.39-1.38v-1.33l-2.39,1.38v1.33Zm0-3.62l2.39-1.38v-1.33l-2.39,1.38v1.33Zm0-3.62l2.39-1.38v-1.33l-2.39,1.38v1.33Zm0-3.62l2.39-1.38v-1.33l-2.39,1.38v1.33Zm0-3.62l2.39-1.38v-1.33l-2.39,1.38v1.33Zm0-3.62l2.39-1.38v-1.33l-2.39,1.38v1.33Zm0-3.62l2.39-1.38v-1.33l-2.39,1.38v1.33Zm0-3.62l2.39-1.38v-1.33l-2.39,1.38v1.33Zm0-3.62l2.39-1.38v-1.33s-2.39,1.38-2.39,1.38v1.33Zm0-3.62l2.39-1.38v-1.33l-2.39,1.38v1.33Zm0-3.62l2.39-1.38v-1.33l-2.39,1.38v1.33Zm0-3.62l2.39-1.38v-1.33l-2.39,1.38v1.33Zm0-3.62l2.39-1.38v-1.33l-2.39,1.38v1.33Zm11.96,147.38l-3.49,2.02v1.33l3.49-2.02v-1.33Zm16.52-9.54l-3.81,2.2v1.33l3.81-2.2v-1.33Zm-18.59,7.11l-5.36,3.09v1.33l5.36-3.09v-1.33Zm1.55,.44l3.49-2.02v-1.33l-3.49,2.02v1.33Zm5.04-2.91l4.27-2.46v-1.33l-4.27,2.46v1.33Zm10.01-5.78l7.63-4.4v-1.33l-7.63,4.4v1.33Zm13.76-7.95l8.12-4.69v-1.33l-8.12,4.69v1.33Zm-33.34,14.3l-2.39,1.38v1.33l2.39-1.38v-1.33Zm1.55,.44l3.49-2.02v-1.33l-3.49,2.02v1.33Zm5.04-2.91l3.62-2.09v-1.33s-3.62,2.09-3.62,2.09v1.33Zm16.52-9.54l6.18-3.57v-1.33l-6.18,3.57v1.33Zm-15.1,3.77l-3.49,2.02v1.33l3.49-2.02v-1.33Zm10.01-5.78l-2.64,1.53v1.33l2.64-1.53v-1.33Zm1.55,.44l7.63-4.4v-1.33s-7.63,4.4-7.63,4.4v1.33Zm9.18-5.3l3.03-1.75v-1.33l-3.03,1.75v1.33Zm4.58-2.65l8.89-5.13v-1.33l-8.89,5.13v1.33Zm-33.34,14.3l-2.39,1.38v1.33l2.39-1.38v-1.33Zm1.55,.44l3.49-2.02v-1.33l-3.49,2.02v1.33Zm5.04-2.91l10.34-5.97,4.63-2.67v-1.33l-5.17,2.99-9.8,5.66v1.33Zm32.19-18.59v-1.33l-2.94,1.7v1.33l2.94-1.7Zm-35.81,15.72l-5.36,3.09v1.33l5.36-3.09v-1.33Zm8.43-4.86l-1.83,1.06v1.33l1.83-1.06v-1.33Zm6.63-3.83l-5.08,2.93v1.33s5.08-2.93,5.08-2.93v-1.33Zm1.55,.44l7.63-4.4v-1.33l-7.63,4.4v1.33Zm9.18-5.3l3.03-1.75v-1.33l-3.03,1.75v1.33Zm21.97,4.08l-3.49,2.02v1.33l3.49-2.02v-1.33Zm30.57-16.32v-1.33l-3.45,1.99v1.33l3.45-1.99Zm-38.3,18.49l5.66-3.27v-1.33l-5.66,3.27v1.33Zm7.21-4.16l3.49-2.02v-1.33l-3.49,2.02v1.33Zm5.04-2.91l4.27-2.46v-1.33l-4.27,2.46v1.33Zm-14.93,5l5.37-3.1v-1.33l-5.37,3.1v1.33Zm6.92-3.99l3.49-2.02v-1.33l-3.49,2.02v1.33Zm18.58-15.68l-3.42,1.97v1.33l3.42-1.97v-1.33Zm6.31-3.64l-4.76,2.75v1.33l4.76-2.75v-1.33Zm-31.8,16.08l5.37-3.1v-1.33l-5.37,3.1v1.33Zm11.96-6.9l7.24-4.18v-1.33l-7.24,4.18v1.33Zm-7.74,.85l4.12-2.38v-1.33l-4.12,2.38v1.33Zm-44.54,13.54l-2.39,1.38v1.33l2.39-1.38v-1.33Zm21.56-12.45l-3.81,2.2v1.33l3.81-2.2v-1.33Zm9.28-4.03l3.45-1.99v-1.33l-3.45,1.99v1.33Zm-17.01,4.87l-4.27,2.46v1.33l4.27-2.46v-1.33Zm13.38-7.72l-7.63,4.4v1.33l7.63-4.4v-1.33Zm1.55,.44l3.03-1.75v-1.33l-3.03,1.75v1.33Zm11.56-3.06l5.37-3.1v-1.33l-5.37,3.1v1.33Zm11.96-6.91l9.78-5.65v-1.33l-9.78,5.65v1.33Zm-3.62-2.86l-5.66,3.27v1.33l5.66-3.27v-1.33Zm17.15-9.9l-4.74,2.74v1.33s4.74-2.74,4.74-2.74v-1.33Zm6.31-3.64l-4.76,2.75v1.33l4.76-2.75v-1.33Zm6.68-3.86l-5.13,2.96v1.33l5.13-2.96v-1.33ZM11.32,211.67l-2.39,1.38v1.33l2.39-1.38v-1.33Zm1.55,.44l3.49-2.02v-1.33l-3.49,2.02v1.33Zm5.04-2.91l9.61-5.55v-1.33l-9.61,5.55v1.33Zm22.7-14.44l-6.18,3.57v1.33l6.18-3.57v-1.33Zm-21.28,8.67l-3.49,2.02v1.33l3.49-2.02v-1.33Zm7.37-2.92l2.64-1.53v-1.33l-2.64,1.53v1.33Zm4.19-2.42l7.63-4.4v-1.33l-7.63,4.4v1.33Zm13.76-7.95l8.12-4.69v-1.33l-8.12,4.69v1.33Zm-31.79,14.74l3.49-2.02v-1.33l-3.49,2.02v1.33Zm20.01-12.89l-9.8,5.66v1.33l9.8-5.66v-1.33Zm7.73-4.46l-6.18,3.57v1.33l6.18-3.57v-1.33Zm5-2.89l-3.45,1.99v1.33l3.45-1.99v-1.33Zm1.55-.9v1.33l2.94-1.7v-1.33l-2.94,1.7Zm-27.83,12.45l-3.49,2.02v1.33l3.49-2.02v-1.33Zm23.78-13.73l-3.03,1.75v1.33l3.03-1.75v-1.33Zm-3.03-4.15l3.03-1.75v-1.33l-3.03,1.75v1.33Zm11.56,11.42l5.37-3.1v-1.33l-5.37,3.1v1.33Zm6.92-3.99l3.49-2.02v-1.33l-3.49,2.02v1.33Zm5.04-2.91l9.78-5.65v-1.33l-9.78,5.65v1.33Zm1.42-5.77l-3.49,2.02v1.33l3.49-2.02v-1.33Zm7.37-2.92l4.74-2.74v-1.33l-4.74,2.74v1.33Zm17.73-11.57l-5.13,2.96v1.33l5.13-2.96v-1.33Zm-.95-1.74l3.45-1.99v-1.33l-3.45,1.99v1.33Zm-34.08,16.06l4.89-2.82v-1.33l-4.89,2.82v1.33Zm6.44-3.72l3.49-2.02v-1.33l-3.49,2.02v1.33Zm5.04-2.91l5.59-3.23v-1.33l-5.59,3.23v1.33Zm10.56-6.1v-1.33l-3.42,1.97v1.33l3.42-1.97Zm6.31-4.98l-4.76,2.75v1.33l4.76-2.75v-1.33Zm6.68-3.86l-5.13,2.96v1.33l5.13-2.96v-1.33Zm-38.48,19.93l5.37-3.1v-1.33l-5.37,3.1v1.33Zm10.41-7.34l-3.49,2.02v1.33l3.49-2.02v-1.33Zm20.17-10.31l5.41-3.12v-1.33l-5.41,3.12v1.33Zm6.96-4.02l3.45-1.99v-1.33l-3.45,1.99v1.33Zm-24.15,8.99l-3.49,2.02v1.33l3.49-2.02v-1.33Zm12.11-6.99l-6.62,3.82v1.33l6.62-3.82v-1.33ZM12.87,183.16l3.49-2.02v-1.33l-3.49,2.02v1.33Zm20.01-12.89l-3.81,2.2v1.33s3.81-2.2,3.81-2.2v-1.33Zm-6.18,1.28l2.64-1.53v-1.33l-2.64,1.53v1.33Zm4.2-2.42l7.63-4.4v-1.33l-7.63,4.4v1.33Zm9.18-5.3l3.03-1.75v-1.33l-3.03,1.75v1.33Zm11.56-3.06l5.37-3.1v-1.33l-5.37,3.1v1.33Zm6.92-3.99l3.49-2.02v-1.33l-3.49,2.02v1.33Zm16.37-9.45l5.74-3.31v-1.33l-5.74,3.31v1.33Zm7.29-4.21l5.41-3.12v-1.33l-5.41,3.12v1.33Zm6.96-4.02l3.45-1.99v-1.33l-3.45,1.99v1.33Zm-24.15,8.99l-3.49,2.02v1.33l3.49-2.02v-1.33Zm5.82-2.03v-1.33l-4.27,2.46v1.33s4.27-2.46,4.27-2.46ZM11.32,255.09l-2.39,1.38v1.33l2.39-1.38v-1.33Zm38.79-22.39l-2.94,1.7v1.33l2.94-1.7v-1.33Zm-10.02,3.5l3.03-1.75v-1.33l-3.03,1.75v1.33Zm-17,6.19l9.8-5.66v-1.33l-9.8,5.66v1.33Zm-8.79,.12l-5.36,3.09v1.33l5.36-3.09v-1.33Zm66.38-27.46l-5.74,3.31v1.33l5.74-3.31v-1.33Zm-3.53-.25v-1.33l-4.74,2.74v1.33l4.74-2.74Zm5.09-6.56l5.41-3.12v-1.33l-5.41,3.12v1.33Zm-20.69,8.32l3.49-2.02v-1.33l-3.49,2.02v1.33Zm3.49-10.59l-3.49,2.02v1.33l3.49-2.02v-1.33Zm24.15-23.46l3.45-1.99v-1.33l-3.45,1.99v1.33ZM14.29,206.34l-5.36,3.09v1.33l5.36-3.09v-1.33Zm39.26-29.91l-8.89,5.13v1.33l8.89-5.13v-1.33Zm-34.22,12.52l-3.49,2.02v1.33l3.49-2.02v-1.33Zm44.27-13.37l5.58-3.22v-1.33l-5.58,3.22v1.33Zm7.14-4.12l9.93-5.73v-1.33l-9.93,5.73v1.33Zm-23.57-8.1l2.94-1.7v-1.33l-2.94,1.7v1.33Zm-6.55,74.82l-6.18,3.57v1.33l6.18-3.57v-1.33Zm-15.46-.6v-1.33l-4.27,2.46v1.33l4.27-2.46Zm62.47-26.54l-5.41,3.12v1.33s5.41-3.12,5.41-3.12v-1.33Zm2.5-5.06l-5.13,2.96v1.33l5.13-2.96v-1.33Zm-35.03,14.32l4.89-2.82v-1.33l-4.89,2.82v1.33Zm-42.22,6.29l3.49-2.02v-1.33l-3.49,2.02v1.33Zm37.23-21.5v-1.33l-2.94,1.7v1.33l2.94-1.7Zm-35.81,15.72l-5.36,3.09v1.33l5.36-3.09v-1.33Zm12.41-5.83l2.64-1.53v-1.33l-2.64,1.53v1.33Zm17.96-10.37l8.12-4.69v-1.33l-8.12,4.69v1.33Zm13.89-4.4l3.49-2.02v-1.33l-3.49,2.02v1.33Zm-33.41-7.38l-4.27,2.46v1.33l4.27-2.46v-1.33Zm1.55-.9v1.33l2.64-1.53v-1.33l-2.64,1.53Zm-13.83,5.7l3.49-2.02v-1.33l-3.49,2.02v1.33Zm27.74-17.35l-6.18,3.57v1.33l6.18-3.57v-1.33Zm-26.32,11.58l-5.36,3.09v1.33l5.36-3.09v-1.33Zm15.06-8.69l-5.08,2.93v1.33l5.08-2.93v-1.33Zm45.58-6.89l5.74-3.31v-1.33l-5.74,3.31v1.33Zm7.29-4.21l5.41-3.12v-1.33l-5.41,3.12v1.33Zm-30.58,10.42l5.37-3.1v-1.33l-5.37,3.1v1.33Zm31.8-30.55l-4.76,2.75v1.33l4.76-2.75v-1.33Zm6.68-3.86l-5.13,2.96v1.33l5.13-2.96v-1.33Zm-47.96,18.17l3.45-1.99v-1.33l-3.45,1.99v1.33Zm-27.87,11.14l-5.36,3.09v1.33l5.36-3.09v-1.33Zm5.04-2.91l-3.49,2.02v1.33l3.49-2.02v-1.33Zm5.82-3.36l-4.27,2.46v1.33l4.27-2.46v-1.33Zm34.83-20.11l-5.66,3.27v1.33l5.66-3.27v-1.33ZM27.52,245.74l-9.61,5.55v1.33l9.61-5.55v-1.33Zm1.82-3.34v-1.33l-2.64,1.53v1.33s2.64-1.53,2.64-1.53Zm20.76-15.6v-1.33l-2.94,1.7v1.33l2.94-1.7Zm-15.67,1.81l6.18-3.57v-1.33l-6.18,3.57v1.33Zm-15.1,3.77l-3.49,2.02v1.33l3.49-2.02v-1.33Zm54.05-13.11l-9.78,5.65v1.33l9.78-5.65v-1.33Zm1.55-28.5l5.74-3.31v-1.33l-5.74,3.31v1.33Zm7.29-4.21l5.41-3.12v-1.33l-5.41,3.12v1.33Zm-57.07,13.51l-4.27,2.46v1.33s4.27-2.46,4.27-2.46v-1.33Zm17.96-10.37l-3.03,1.75v1.33l3.03-1.75v-1.33Zm-31.79,14.74l-2.39,1.38v1.33l2.39-1.38v-1.33Zm38.79-29.63l-2.94,1.7v1.33l2.94-1.7v-1.33Zm39.07-6.75l3.45-1.99v-1.33l-3.45,1.99v1.33Zm-6.96-3.22l5.41-3.12v-1.33l-5.41,3.12v1.33Zm-11.38-2l-7.24,4.18v1.33l7.24-4.18v-1.33Zm1.55,.44l8.27-4.78v-1.33l-8.27,4.78v1.33Zm-5.82-1.59v1.33l2.39-1.38v-1.33l-2.39,1.38Zm-55.26,21.05l-2.39,1.38v1.33l2.39-1.38v-1.33Zm41.47-27.56l-8.12,4.69v1.33l8.12-4.69v-1.33Zm-7.18,80.14l-3.45,1.99v1.33l3.45-1.99v-1.33Zm-3.45-3.91l3.45-1.99v-1.33l-3.45,1.99v1.33Zm0-7.24l3.45-1.99v-1.33l-3.45,1.99v1.33Zm14.84,4.57l-5.37,3.1v1.33l5.37-3.1v-1.33Zm6.59-9.71l5.58-3.22v-1.33l-5.58,3.22v1.33Zm25.58-14.77l3.45-1.99v-1.33l-3.45,1.99v1.33Zm.95-5.5l-5.13,2.96v1.33l5.13-2.96v-1.33Zm-31.57,15.94l3.49-2.02v-1.33l-3.49,2.02v1.33Zm10.41-9.63v-1.33l-2.39,1.38v1.33l2.39-1.38Zm-51.05,18.63l9.61-5.55v-1.33l-9.61,5.55v1.33Zm1.42-5.77l-3.49,2.02v1.33l3.49-2.02v-1.33Zm45.69-26.38l-3.49,2.02v1.33l3.49-2.02v-1.33Zm-14.92-.92v-1.33s-2.94,1.7-2.94,1.7v1.33l2.94-1.7Zm-35.81,8.49l-5.36,3.09v1.33l5.36-3.09v-1.33Zm31.32-21.7l-3.45,1.99v1.33l3.45-1.99v-1.33Zm-14.71,6.21l7.63-4.4v-1.33l-7.63,4.4v1.33Zm13.76-7.95l9.66-5.58v-1.33l-9.66,5.58v1.33Zm26.18-1.97l-4.27,2.46v1.33l4.27-2.46v-1.33Zm-12.28,4.81l3.49-2.02v-1.33l-3.49,2.02v1.33Zm1.42-13.01l-4.12,2.38v1.33l4.12-2.38v-1.33Zm-42.07,14.76l9.61-5.55v-1.33l-9.61,5.55v1.33Zm26.75,38.83l9.66-5.58v-1.33l-9.66,5.58v1.33Zm38.78-9.25l-4.76,2.75v1.33l4.76-2.75v-1.33Zm-12.71,5.05l9.93-5.73v-1.33l-9.93,5.73v1.33Zm-4.16-1.22l5.59-3.23v-1.33l-5.59,3.23v1.33Zm-32.14,.47l6.18-3.57v-1.33l-6.18,3.57v1.33Zm36.41-24.64v-1.33l-4.27,2.46v1.33l4.27-2.46Zm-37.96,9.72l-3.81,2.2v1.33l3.81-2.2v-1.33Zm9.28-4.03l3.45-1.99v-1.33l-3.45,1.99v1.33Zm-24.25,6.76l3.62-2.09v-1.33l-3.62,2.09v1.33Zm20.62-16.85l-7.63,4.4v1.33l7.63-4.4v-1.33Zm-27.21,12.09l-2.39,1.38v1.33l2.39-1.38v-1.33Zm6.59-2.47l9.8-5.66,5.17-2.99v-1.33l-5.17,2.99-9.8,5.66v1.33Zm4.81-7.73l-1.83,1.06v1.33l1.83-1.06v-1.33Zm37.26-7.04l-5.66,3.27v1.33l5.66-3.27v-1.33Zm23.46-13.55l-4.76,2.75v1.33l4.76-2.75v-1.33Zm-49.01,4.3l6.18-3.57v-1.33l-6.18,3.57v1.33Zm29.17-16.84l9.78-5.65v-1.33l-9.78,5.65v1.33Zm13.53-12.76l-4.74,2.74v1.33l4.74-2.74v-1.33Zm6.31-3.64l-4.76,2.75v1.33l4.76-2.75v-1.33Zm6.68-3.86l-5.13,2.96v1.33l5.13-2.96v-1.33Zm8.68,70.98l-3.49,2.02v1.33l3.49-2.02v-1.33Zm16.52-9.54l-3.81,2.2v1.33l3.81-2.2v-1.33Zm-18.59,7.11l-5.36,3.09v1.33l5.36-3.09v-1.33Zm1.55,.44l3.49-2.02v-1.33l-3.49,2.02v1.33Zm5.04-2.91l4.27-2.46v-1.33l-4.27,2.46v1.33Zm10.01-5.78l7.63-4.4v-1.33l-7.63,4.4v1.33Zm-19.24,7.49l4.7-2.71v-1.33l-4.7,2.71v1.33Zm6.25-3.61l3.62-2.09v-1.33l-3.62,2.09v1.33Zm16.52-9.54l4.24-2.45v-1.33l-4.24,2.45v1.33Zm-15.1,3.77l-3.49,2.02v1.33l3.49-2.02v-1.33Zm10.01-5.78l-2.64,1.53v1.33l2.64-1.53v-1.33Zm1.55,.44l7.63-4.4v-1.33l-7.63,4.4v1.33Zm-19.58,6.35l-2.39,1.38v1.33l2.39-1.38v-1.33Zm1.55,.44l3.49-2.02v-1.33l-3.49,2.02v1.33Zm5.04-2.91l10.34-5.97,4.63-2.67v-1.33l-5.17,2.99-9.8,5.66v1.33Zm-3.62-2.86l-5.36,3.09v1.33l5.36-3.09v-1.33Zm8.43-4.86l-1.83,1.06v1.33s1.83-1.06,1.83-1.06v-1.33Zm6.63-3.83l-5.08,2.93v1.33l5.08-2.93v-1.33Zm1.55,.44l7.63-4.4v-1.33l-7.63,4.4v1.33Zm1.98-13.32l-3.81,2.2v1.33l3.81-2.2v-1.33Zm-7.73,.84l-4.27,2.46v1.33l4.27-2.46v-1.33Zm13.38-7.72l-7.63,4.4v1.33l7.63-4.4v-1.33Zm-26.83,5.96l4.66-2.69v-1.33l-4.66,2.69v1.33Zm6.21-3.59l9.61-5.55v-1.33l-9.61,5.55v1.33Zm20.76-13.32l-4.24,2.45v1.33l4.24-2.45v-1.33Zm-19.34,7.55l-3.49,2.02v1.33l3.49-2.02v-1.33Zm7.37-2.92l2.64-1.53v-1.33l-2.64,1.53v1.33Zm4.2-2.42l7.63-4.4v-1.33l-7.63,4.4v1.33Zm-18.03,6.79l3.49-2.02v-1.33l-3.49,2.02v1.33Zm20.01-12.89l-9.8,5.66v1.33l9.8-5.66v-1.33Zm5.79-3.34l-4.24,2.45v1.33l4.24-2.45v-1.33Zm-19.34,7.55l-3.49,2.02v1.33l3.49-2.02v-1.33Zm-6.46-13.03l3.49-2.02v-1.33l-3.49,2.02v1.33Zm20.01-12.89l-3.81,2.2v1.33l3.81-2.2v-1.33Zm-6.18,1.28l2.64-1.53v-1.33l-2.64,1.53v1.33Zm4.19-2.42l7.63-4.4v-1.33l-7.63,4.4v1.33Zm-7.82,73.27l9.8-5.66v-1.33l-9.8,5.66v1.33Zm-8.79,.12l-5.36,3.09v1.33l5.36-3.09v-1.33Zm0-36.18l-5.36,3.09v1.33l5.36-3.09v-1.33Zm5.04-17.39l-3.49,2.02v1.33s3.49-2.02,3.49-2.02v-1.33Zm19.34,50.35l-4.24,2.45v1.33l4.24-2.45v-1.33Zm-13.52-1.72v-1.33l-4.27,2.46v1.33l4.27-2.46Zm-13.42-10.34l4.62-2.67v-1.33l-4.62,2.67v1.33Zm2.55-6.43l-5.36,3.09v1.33l5.36-3.09v-1.33Zm12.41-5.83l2.64-1.53v-1.33l-2.64,1.53v1.33Zm-1.55-22.16l-4.27,2.46v1.33l4.27-2.46v-1.33Zm1.55-.9v1.33l2.64-1.53v-1.33l-2.64,1.53Zm-13.83,5.7l3.49-2.02v-1.33l-3.49,2.02v1.33Zm25.8-16.23l-4.24,2.45v1.33l4.24-2.45v-1.33Zm-24.38,10.46l-5.36,3.09v1.33l5.36-3.09v-1.33Zm15.06-8.69l-5.08,2.93v1.33l5.08-2.93v-1.33Zm-15.06-5.78l-5.36,3.09v1.33l5.36-3.09v-1.33Zm5.04-2.91l-3.49,2.02v1.33l3.49-2.02v-1.33Zm5.82-3.36l-4.27,2.46v1.33l4.27-2.46v-1.33Zm2.37,74.62l-9.61,5.55v1.33l9.61-5.55v-1.33Zm1.82-3.34v-1.33l-2.64,1.53v1.33l2.64-1.53Zm5.09-13.79l4.24-2.45v-1.33l-4.24,2.45v1.33Zm-15.1,3.76l-3.49,2.02v1.33l3.49-2.02v-1.33Zm5.82-32.3l-4.27,2.46v1.33l4.27-2.46v-1.33Zm-7.24,23.61l9.61-5.55v-1.33l-9.61,5.55v1.33Zm1.42-5.77l-3.49,2.02v1.33l3.49-2.02v-1.33Zm-5.04-18.81l-5.36,3.09v1.33l5.36-3.09v-1.33Zm16.61-15.49l7.63-4.4v-1.33l-7.63,4.4v1.33Zm-12.99-3.36l9.61-5.55v-1.33l-9.61,5.55v1.33Zm16.52,33.89l4.24-2.45v-1.33l-4.24,2.45v1.33Zm-1.55-14.92l-3.81,2.2v1.33l3.81-2.2v-1.33Zm-14.97,2.74l3.62-2.09v-1.33l-3.62,2.09v1.33Zm20.62-16.85l-7.63,4.4v1.33l7.63-4.4v-1.33Zm-20.62,9.62l9.8-5.66,5.17-2.99v-1.33l-5.17,2.99-9.8,5.66v1.33Zm4.81-7.73l-1.83,1.06v1.33l1.83-1.06v-1.33Zm11.72-16.29l4.24-2.45v-1.33l-4.24,2.45v1.33ZM6.79,259.04v-1.33l-2.39,1.38v1.33l2.39-1.38Zm-2.39-2.24l2.39-1.38v-1.33l-2.39,1.38v1.33Zm0-3.62l2.39-1.38v-1.33l-2.39,1.38v1.33Zm0-3.62l2.39-1.38v-1.33l-2.39,1.38v1.33Zm0-3.62l2.39-1.38v-1.33l-2.39,1.38v1.33Zm0-3.62l2.39-1.38v-1.33l-2.39,1.38v1.33Zm0-3.62l2.39-1.38v-1.33l-2.39,1.38v1.33Zm0-3.62l2.39-1.38v-1.33l-2.39,1.38v1.33Zm0-3.62l2.39-1.38v-1.33l-2.39,1.38v1.33Zm0-3.62l2.39-1.38v-1.33l-2.39,1.38v1.33Zm0-3.62l2.39-1.38v-1.33l-2.39,1.38v1.33Zm0-3.62l2.39-1.38v-1.33l-2.39,1.38v1.33Zm0-3.62l2.39-1.38v-1.33l-2.39,1.38v1.33Zm0-3.62l2.39-1.38v-1.33l-2.39,1.38v1.33Zm0-3.62l2.39-1.38v-1.33l-2.39,1.38v1.33Zm0-3.62l2.39-1.38v-1.33l-2.39,1.38v1.33Zm0-3.62l2.39-1.38v-1.33l-2.39,1.38v1.33Zm0-3.62l2.39-1.38v-1.33s-2.39,1.38-2.39,1.38v1.33Zm0-3.62l2.39-1.38v-1.33l-2.39,1.38v1.33Zm0-3.62l2.39-1.38v-1.33l-2.39,1.38v1.33Zm0-3.62l2.39-1.38v-1.33l-2.39,1.38v1.33Zm0-3.62l2.39-1.38v-1.33l-2.39,1.38v1.33Zm8.46,78.36l3.49-2.02v-1.33l-3.49,2.02v1.33Zm20.01-12.89l-3.81,2.2v1.33s3.81-2.2,3.81-2.2v-1.33Zm-6.18,1.28l2.64-1.53v-1.33l-2.64,1.53v1.33Zm4.2-2.42l7.63-4.4v-1.33l-7.63,4.4v1.33Zm9.18-5.3l3.03-1.75v-1.33l-3.03,1.75v1.33Zm11.56-3.06l5.37-3.1v-1.33l-5.37,3.1v1.33Zm6.92-3.99l3.49-2.02v-1.33l-3.49,2.02v1.33Zm16.37-9.45l5.74-3.31v-1.33l-5.74,3.31v1.33Zm7.29-4.21l5.41-3.12v-1.33l-5.41,3.12v1.33Zm6.96-4.02l3.45-1.99v-1.33l-3.45,1.99v1.33Zm-24.15,8.99l-3.49,2.02v1.33l3.49-2.02v-1.33Zm5.82-2.03v-1.33l-4.27,2.46v1.33s4.27-2.46,4.27-2.46Zm-23.68,17.29l2.94-1.7v-1.33l-2.94,1.7v1.33Zm-5,2.89l3.45-1.99v-1.33l-3.45,1.99v1.33Zm-27.87,11.14l-5.36,3.09v1.33l5.36-3.09v-1.33Zm5.04-2.91l-3.49,2.02v1.33l3.49-2.02v-1.33Zm5.82-3.36l-4.27,2.46v1.33l4.27-2.46v-1.33Zm34.83-20.11l-5.66,3.27v1.33l5.66-3.27v-1.33Zm-48.66,31.71l-2.39,1.38v1.33l2.39-1.38v-1.33Zm41.47-27.56l-8.12,4.69v1.33l8.12-4.69v-1.33Zm-34.87,25.09l9.61-5.55v-1.33l-9.61,5.55v1.33Zm16.52-9.54l6.18-3.57v-1.33l-6.18,3.57v1.33Zm29.17-16.84l9.78-5.65v-1.33l-9.78,5.65v1.33Zm13.53-12.76l-4.74,2.74v1.33l4.74-2.74v-1.33Zm6.31-3.64l-4.76,2.75v1.33l4.76-2.75v-1.33Zm6.68-3.86l-5.13,2.96v1.33l5.13-2.96v-1.33Zm5.19,1.96l3.49-2.02v-1.33l-3.49,2.02v1.33Zm20.01-12.89l-3.81,2.2v1.33l3.81-2.2v-1.33Zm-6.18,1.28l2.64-1.53v-1.33l-2.64,1.53v1.33Zm4.19-2.42l7.63-4.4v-1.33l-7.63,4.4v1.33Zm-16.61,8.26l-5.36,3.09v1.33l5.36-3.09v-1.33Zm5.04-2.91l-3.49,2.02v1.33l3.49-2.02v-1.33Zm5.82-3.36l-4.27,2.46v1.33l4.27-2.46v-1.33Zm-7.24,9.13l9.61-5.55v-1.33l-9.61,5.55v1.33Zm16.52-9.54l4.24-2.45v-1.33l-4.24,2.45v1.33ZM4.4,267.66l2.39-1.38v-1.33l-2.39,1.38v1.33Zm0-3.62l2.39-1.38v-1.33l-2.39,1.38v1.33Z"/>
  <polygon class="cls-14" points="124.88 126.22 0 198.32 0 72.1 124.88 0 124.88 126.22"/>
  <polygon class="cls-7" points="142.53 110.8 17.65 182.9 17.65 96.13 142.53 24.03 142.53 110.8"/>
  <polygon class="cls-12" points="142.53 24.48 17.65 96.58 17.65 82.29 142.53 10.19 142.53 24.48"/>
  <g>
    <polygon class="cls-6" points="40.11 157.55 30.26 163.24 30.26 153.2 40.11 147.51 40.11 157.55"/>
    <polygon class="cls-6" points="53.5 135.16 43.65 140.84 43.65 155.51 53.5 149.82 53.5 135.16"/>
    <polygon class="cls-6" points="66.89 120.6 57.04 126.28 57.04 147.78 66.89 142.09 66.89 120.6"/>
    <polygon class="cls-20" points="80.28 107.43 70.43 113.11 70.43 140.05 80.28 134.36 80.28 107.43"/>
    <polygon class="cls-3" points="93.67 69.62 83.82 75.31 83.82 132.31 93.67 126.63 93.67 69.62"/>
    <polygon class="cls-1" points="107.06 55.51 97.21 61.2 97.21 124.58 107.06 118.9 107.06 55.51"/>
    <polygon class="cls-8" points="120.45 58.51 110.6 64.2 110.6 116.85 120.45 111.17 120.45 58.51"/>
    <polygon class="cls-10" points="133.84 44.1 123.99 49.78 123.99 109.12 133.84 103.44 133.84 44.1"/>
    <polygon class="cls-9" points="26.93 168.24 26.93 98.01 26.29 98.38 26.29 169.25 134.05 107.04 134.05 106.4 26.93 168.24"/>
    <g>
      <polygon class="cls-9" points="36.9 122.06 31.74 125.04 31.74 123.93 36.9 120.95 36.9 122.06"/>
      <polygon class="cls-9" points="41.75 119.26 38.39 121.2 38.39 120.09 41.75 118.15 41.75 119.26"/>
      <polygon class="cls-9" points="50.2 114.38 43.24 118.4 43.24 117.29 50.2 113.27 50.2 114.38"/>
      <polygon class="cls-9" points="59.64 108.93 51.69 113.52 51.69 112.41 59.64 107.82 59.64 108.93"/>
      <polygon class="cls-9" points="61.13 106.96 61.13 108.07 69.09 103.48 69.09 102.37 61.13 106.96"/>
      <polygon class="cls-9" points="73.89 100.7 70.58 102.62 70.58 101.51 73.89 99.59 73.89 100.7"/>
      <polygon class="cls-9" points="78.37 98.12 75.39 99.84 75.39 98.73 78.37 97.01 78.37 98.12"/>
      <polygon class="cls-9" points="39.76 123.42 31.74 128.05 31.74 126.94 39.76 122.31 39.76 123.42"/>
      <polygon class="cls-9" points="44.6 120.63 41.25 122.56 41.25 121.45 44.6 119.52 44.6 120.63"/>
      <polygon class="cls-9" points="50.2 117.4 46.1 119.76 46.1 118.65 50.2 116.29 50.2 117.4"/>
      <polygon class="cls-9" points="56.25 113.9 51.69 116.53 51.69 115.43 56.25 112.79 56.25 113.9"/>
      <polygon class="cls-9" points="57.74 111.93 57.74 113.04 65.07 108.81 65.07 107.7 57.74 111.93"/>
      <polygon class="cls-9" points="71.49 105.1 66.56 107.95 66.56 106.84 71.49 103.99 71.49 105.1"/>
      <polygon class="cls-9" points="78.37 101.13 72.98 104.24 72.98 103.13 78.37 100.02 78.37 101.13"/>
      <polygon class="cls-9" points="36.9 128.09 31.74 131.06 31.74 129.96 36.9 126.98 36.9 128.09"/>
      <polygon class="cls-9" points="41.75 125.29 38.39 127.23 38.39 126.12 41.75 124.18 41.75 125.29"/>
      <polygon class="cls-9" points="50.2 120.41 43.24 124.43 43.24 123.32 50.2 119.3 50.2 120.41"/>
      <polygon class="cls-9" points="59.64 114.96 51.69 119.55 51.69 118.44 59.64 113.85 59.64 114.96"/>
      <polygon class="cls-9" points="61.13 112.98 61.13 114.09 69.09 109.5 69.09 108.39 61.13 112.98"/>
      <polygon class="cls-9" points="73.89 106.73 70.58 108.64 70.58 107.53 73.89 105.62 73.89 106.73"/>
      <polygon class="cls-9" points="78.37 104.14 75.39 105.87 75.39 104.76 78.37 103.03 78.37 104.14"/>
      <polygon class="cls-9" points="39.76 129.45 31.74 134.08 31.74 132.97 39.76 128.34 39.76 129.45"/>
      <polygon class="cls-9" points="44.6 126.65 41.25 128.59 41.25 127.48 44.6 125.54 44.6 126.65"/>
      <polygon class="cls-9" points="50.2 123.42 46.1 125.79 46.1 124.68 50.2 122.31 50.2 123.42"/>
      <polygon class="cls-9" points="56.25 119.93 51.69 122.56 51.69 121.45 56.25 118.82 56.25 119.93"/>
      <polygon class="cls-9" points="36.9 134.11 31.74 137.09 31.74 135.98 36.9 133 36.9 134.11"/>
      <polygon class="cls-9" points="41.75 131.31 38.39 133.25 38.39 132.14 41.75 130.2 41.75 131.31"/>
      <polygon class="cls-9" points="50.2 126.43 43.24 130.45 43.24 129.34 50.2 125.32 50.2 126.43"/>
      <polygon class="cls-9" points="39.76 135.47 31.74 140.1 31.74 138.99 39.76 134.36 39.76 135.47"/>
      <polygon class="cls-9" points="44.6 132.68 41.25 134.61 41.25 133.5 44.6 131.57 44.6 132.68"/>
      <polygon class="cls-9" points="50.2 129.45 46.1 131.82 46.1 130.71 50.2 128.34 50.2 129.45"/>
    </g>
    <g>
      <path class="cls-8" d="M48.86,94.17c-2.54-2.03-6.82-.95-10.93,2.76l3.02,7.55,9.78-5.65c0-2.16-.6-3.65-1.87-4.67Z"/>
      <path class="cls-4" d="M40.95,104.48l-9.78,5.65c0-4.32,2.65-9.49,6.76-13.2l3.02,7.55Z"/>
      <path class="cls-10" d="M40.95,104.48l-5.75,11.23c-2.62-.39-4.03-2.34-4.03-5.58l9.78-5.65Z"/>
      <path class="cls-6" d="M43.97,112.04c4.11-3.71,6.76-8.88,6.76-13.2l-9.78,5.65-5.75,11.23c2.62,.39,5.69-.89,8.77-3.67Z"/>
    </g>
    <g>
      <path class="cls-2" d="M66.69,89.62l-4.7-5.92c-1.91,2.14-3.24,4.32-4.18,6.82-1.4,3.75-1.32,6.82,.24,8.78l8.63-9.68Z"/>
      <path class="cls-10" d="M66.69,89.62l-4.7-5.92c4.77-5.35,10.74-7.03,13.33-3.76s.83,10.25-3.94,15.6c-1.91,2.14-3.82,3.6-5.97,4.56l1.27-10.48Z"/>
      <path class="cls-6" d="M66.69,89.62l-1.27,10.48c-3.23,1.44-5.8,1.16-7.36-.8l8.63-9.68Z"/>
    </g>
  </g>
  <path class="cls-11" d="M158.7,109.56c-.57,.33-1.01,.72-1.33,1.17-.32,.45-.47,.93-.47,1.42v3.33c0,.49,.16,.78,.47,.87s.76-.03,1.33-.36l1.15-.67c.56-.32,1-.71,1.32-1.17s.47-.93,.47-1.41v-.5c-.27-1.29-.6-2.51-.99-3.68-.23,.05-.49,.16-.8,.33l-1.15,.67Zm1.82,.54v3.25c0,.49-.28,.9-.83,1.22l-.82,.47c-.55,.32-.83,.23-.83-.26v-3.25c0-.49,.28-.9,.83-1.22l.82-.47c.55-.32,.83-.23,.83,.26Zm-2.48,18.1v-5.22l-1.26,1.36c-.15,.15-.23,.16-.23,.03v-.59c0-.11,.05-.22,.16-.33l1.2-1.32c.15-.16,.27-.27,.37-.32l.69-.4c.13-.08,.2-.06,.2,.06v6.09c0,.11-.06,.21-.18,.28l-.75,.43c-.13,.08-.2,.06-.2-.06Zm-56.82,2.56c.13-.08,.2-.06,.2,.06v6.09c0,.11-.06,.21-.18,.28l-.75,.43c-.13,.08-.2,.06-.2-.06v-5.22s-1.26,1.36-1.26,1.36c-.15,.15-.23,.16-.23,.03v-.59c0-.11,.05-.22,.16-.33l1.2-1.32c.15-.16,.27-.27,.37-.32l.69-.4Zm54.47-30.47c0-.08,.06-.16,.12-.24,.14,.15,.29,.3,.42,.46l-.31,.33c-.15,.15-.23,.16-.23,.03v-.59Zm-50.7,28.29c.13-.08,.2-.06,.2,.06v6.09c0,.11-.06,.21-.18,.28l-.75,.43c-.13,.08-.2,.06-.2-.06v-5.22s-1.26,1.36-1.26,1.36c-.15,.15-.23,.16-.23,.03v-.59c0-.11,.05-.22,.16-.33l1.2-1.32c.15-.16,.27-.27,.37-.32l.69-.4Zm-4.05,14.33c-.57,.33-1.01,.72-1.33,1.17-.32,.45-.47,.93-.47,1.42v3.33c0,.49,.16,.78,.47,.87,.32,.09,.76-.03,1.33-.36l1.15-.67c.56-.32,1-.71,1.32-1.17,.32-.46,.47-.93,.47-1.41v-3.33c0-.49-.16-.78-.47-.87-.32-.09-.75,.03-1.32,.36l-1.15,.67Zm1.82,.54v3.25c0,.49-.28,.9-.83,1.22l-.82,.47c-.55,.32-.83,.23-.83-.26v-3.25c0-.49,.28-.9,.83-1.22l.82-.47c.55-.32,.83-.23,.83,.26Zm35.54,8.14v-5.22s-1.26,1.36-1.26,1.36c-.15,.15-.23,.16-.23,.03v-.59c0-.11,.05-.22,.16-.33l1.2-1.32c.15-.16,.27-.27,.37-.32l.69-.4c.13-.08,.2-.06,.2,.06v6.09c0,.11-.06,.21-.18,.28l-.75,.43c-.13,.08-.2,.06-.2-.06Zm18.87-49.82c.39,.54,.78,1.09,1.13,1.67v.61c0,.11-.06,.21-.18,.28l-.75,.43c-.13,.08-.2,.06-.2-.06v-2.93Zm-58.45,24.8c.44-.76,.91-1.49,1.37-2.24-.01,.47-.16,.92-.46,1.36-.23,.33-.55,.62-.91,.88Zm10.78,41.4c.32-.46,.47-.93,.47-1.41v-3.33c0-.49-.16-.78-.47-.87-.32-.09-.75,.03-1.32,.36l-1.15,.67c-.57,.33-1.01,.72-1.33,1.17-.32,.45-.47,.93-.47,1.42v3.33c0,.49,.16,.78,.47,.87,.32,.09,.76-.03,1.33-.36l1.15-.67c.56-.32,1-.71,1.32-1.17Zm-2.3,.89c-.55,.32-.83,.23-.83-.26v-3.25c0-.49,.28-.9,.83-1.22l.82-.47c.55-.32,.83-.23,.83,.26v3.25c0,.49-.28,.9-.83,1.22l-.82,.47Zm5.26-26.35v-5.22s-1.26,1.36-1.26,1.36c-.15,.15-.23,.16-.23,.03v-.59c0-.11,.05-.22,.16-.33l1.2-1.32c.15-.16,.27-.26,.37-.32l.69-.4c.13-.08,.2-.06,.2,.06v6.09c0,.11-.06,.21-.18,.28l-.75,.43c-.13,.08-.2,.06-.2-.06Zm-.51,12.46l-.75,.43c-.13,.08-.2,.06-.2-.06v-5.22l-1.26,1.36c-.15,.15-.23,.16-.23,.03v-.59c0-.11,.05-.22,.16-.33l1.2-1.32c.15-.16,.27-.27,.37-.32l.69-.4c.13-.08,.2-.06,.2,.06v6.09c0,.11-.06,.21-.18,.28Zm-4.56,35.86v-2.08c0-.49-.28-.58-.83-.26l-.82,.47c-.55,.32-.83,.73-.83,1.22v.36c-.36-.06-.72-.1-1.07-.17,.07-.34,.18-.67,.4-.98,.32-.45,.76-.84,1.33-1.17l1.15-.67c.56-.32,1-.44,1.32-.36,.32,.09,.47,.38,.47,.87v2.75c-.37,0-.76,.03-1.12,.02Zm34.84-19.77v-2.42c0-.49-.28-.58-.83-.26l-.82,.47c-.55,.32-.83,.73-.83,1.22v3.25c0,.2,.08,.29,.17,.36-.34,.36-.68,.71-1.02,1.06-.18-.14-.29-.36-.29-.72v-3.33c0-.49,.16-.97,.47-1.42,.32-.45,.76-.84,1.33-1.17l1.15-.67c.56-.32,1-.44,1.32-.36,.32,.09,.47,.38,.47,.87v1.77c-.37,.45-.74,.9-1.12,1.34Zm-.03-75.23l1.2-1.32c.15-.16,.27-.27,.37-.32,.37-.03,.63,0,.89,.04v5.71c0,.11-.06,.21-.18,.28l-.75,.43c-.13,.08-.2,.06-.2-.06v-5.22l-1.26,1.36c-.15,.15-.23,.16-.23,.03v-.59c0-.11,.05-.22,.16-.33Zm-39.6,24.7v2.27c0,.49,.28,.58,.83,.26l.82-.47c.55-.32,.83-.73,.83-1.22v-3.25c0-.36-.2-.43-.5-.35,.31-.41,.63-.8,.94-1.2,.07,0,.15-.03,.21,0,.32,.09,.47,.38,.47,.87v3.33c0,.49-.16,.96-.47,1.41-.32,.46-.75,.85-1.32,1.17l-1.15,.67c-.57,.33-1.01,.45-1.33,.36-.32-.09-.47-.38-.47-.87v-1.32c.37-.56,.76-1.1,1.14-1.65Zm59.9,.38c0,1.65-.1,3.34-.25,5.03l-.23,.13c-.13,.08-.2,.06-.2-.06v-5.22l-1.26,1.36c-.15,.15-.23,.16-.23,.03v-.59c0-.11,.05-.22,.16-.33l1.2-1.32c.15-.16,.27-.27,.37-.32l.37-.22c.02,.51,.07,.98,.07,1.5Zm-15.19-26.11v2.19c0,.49,.28,.58,.83,.26l.82-.47c.5-.29,.75-.66,.79-1.1,.28,.13,.56,.26,.83,.4-.05,.09-.08,.19-.15,.28-.32,.46-.75,.85-1.32,1.17l-1.15,.67c-.57,.33-1.01,.45-1.33,.36-.32-.09-.47-.38-.47-.87v-3.23c.39,.09,.76,.23,1.14,.34Zm-49.15,62.12c-.32,.45-.47,.93-.47,1.42v3.33c0,.49,.16,.78,.47,.87,.32,.09,.76-.03,1.33-.36l1.15-.67c.56-.32,1-.71,1.32-1.17,.32-.46,.47-.93,.47-1.41v-3.33c0-.49-.16-.78-.47-.87-.32-.09-.75,.03-1.32,.36l-1.15,.67c-.57,.33-1.01,.72-1.33,1.17Zm.67,.8c0-.49,.28-.9,.83-1.22l.82-.47c.55-.32,.83-.23,.83,.26v3.25c0,.49-.28,.9-.83,1.22l-.82,.47c-.55,.32-.83,.23-.83-.26v-3.25Zm19.74,5.27v-5.22l-1.26,1.36c-.15,.15-.23,.16-.23,.03v-.59c0-.11,.05-.22,.16-.33l1.2-1.32c.15-.16,.27-.27,.37-.32l.69-.4c.13-.08,.2-.06,.2,.06v6.09c0,.11-.06,.21-.18,.28l-.75,.43c-.13,.08-.2,.06-.2-.06Zm-15.18,20.52c.32,.09,.76-.03,1.33-.36l1.15-.67c.56-.32,1-.71,1.32-1.17,.32-.46,.47-.93,.47-1.41v-3.33c0-.49-.16-.78-.47-.87-.32-.09-.75,.03-1.32,.36l-1.15,.67c-.57,.33-1.01,.72-1.33,1.17-.32,.45-.47,.93-.47,1.42v3.33c0,.49,.16,.78,.47,.87Zm.67-4.81c0-.49,.28-.9,.83-1.22l.82-.47c.55-.32,.83-.23,.83,.26v3.25c0,.49-.28,.9-.83,1.22l-.82,.47c-.55,.32-.83,.23-.83-.26v-3.25Zm16.83,6.95v-5.22l-1.26,1.36c-.15,.15-.23,.16-.23,.03v-.59c0-.11,.05-.22,.16-.33l1.2-1.32c.15-.16,.27-.27,.37-.32l.69-.4c.13-.08,.2-.06,.2,.06v6.09c0,.11-.06,.21-.18,.28l-.75,.43c-.13,.08-.2,.06-.2-.06Zm-25.87-38.33c0-.11,.05-.22,.16-.33l1.2-1.32c.15-.16,.27-.27,.37-.32l.69-.4c.13-.08,.2-.06,.2,.06v6.09c0,.11-.06,.21-.18,.28l-.75,.43c-.13,.08-.2,.06-.2-.06v-5.22s-1.26,1.36-1.26,1.36c-.15,.15-.23,.16-.23,.03v-.59Zm-2.96,18.74c.32,.09,.76-.03,1.33-.36l1.15-.67c.56-.32,1-.71,1.32-1.17,.32-.46,.47-.93,.47-1.41v-3.33c0-.49-.16-.78-.47-.87-.32-.09-.75,.03-1.32,.36l-1.15,.67c-.57,.33-1.01,.72-1.33,1.17-.32,.45-.47,.93-.47,1.42v3.33c0,.49,.16,.78,.47,.87Zm.67-4.81c0-.49,.28-.9,.83-1.22l.82-.47c.55-.32,.83-.23,.83,.26v3.25c0,.49-.28,.9-.83,1.22l-.82,.47c-.55,.32-.83,.23-.83-.26v-3.25Zm33.38,9.39v-5.22s-1.26,1.36-1.26,1.36c-.15,.15-.23,.16-.23,.03v-.59c0-.11,.05-.22,.16-.33l1.2-1.32c.15-.16,.27-.27,.37-.32l.69-.4c.13-.08,.2-.06,.2,.06v6.09c0,.11-.06,.21-.18,.28l-.75,.43c-.13,.08-.2,.06-.2-.06Zm-29.61-30.89v-5.22l-1.26,1.36c-.15,.15-.23,.16-.23,.03v-.59c0-.11,.05-.22,.16-.33l1.2-1.32c.15-.16,.27-.27,.37-.32l.69-.4c.13-.08,.2-.06,.2,.06v6.09c0,.11-.06,.21-.18,.28l-.75,.43c-.13,.08-.2,.06-.2-.06Zm-3.77,14.17v-5.22l-1.26,1.36c-.15,.15-.23,.16-.23,.03v-.59c0-.11,.05-.22,.16-.33l1.2-1.32c.15-.16,.27-.27,.37-.32l.69-.4c.13-.08,.2-.06,.2,.06v6.09c0,.11-.06,.21-.18,.28l-.75,.43c-.13,.08-.2,.06-.2-.06Zm30.41,18.19c.32-.46,.47-.93,.47-1.41v-3.33c0-.49-.16-.78-.47-.87-.32-.09-.75,.03-1.32,.36l-1.15,.67c-.57,.33-1.01,.72-1.33,1.17-.32,.45-.47,.93-.47,1.42v3.33c0,.49,.16,.78,.47,.87,.32,.09,.76-.03,1.33-.36l1.15-.67c.56-.32,1-.71,1.32-1.17Zm-.65-.81c0,.49-.28,.9-.83,1.22l-.82,.47c-.55,.32-.83,.23-.83-.26v-3.25c0-.49,.28-.9,.83-1.22l.82-.47c.55-.32,.83-.23,.83,.26v3.25Zm-22.22,14.25v-5.22l-1.26,1.36c-.15,.15-.23,.16-.23,.03v-.59c0-.11,.05-.22,.16-.33l1.2-1.32c.15-.16,.27-.27,.37-.32l.69-.4c.13-.08,.2-.06,.2,.06v6.09c0,.11-.06,.21-.18,.28l-.75,.43c-.13,.08-.2,.06-.2-.06Zm3.97-32.14c-.32,.45-.47,.93-.47,1.42v3.33c0,.49,.16,.78,.47,.87s.76-.03,1.33-.36l1.15-.67c.56-.32,1-.71,1.32-1.17,.32-.46,.47-.93,.47-1.41v-3.33c0-.49-.16-.78-.47-.87-.32-.09-.75,.03-1.32,.36l-1.15,.67c-.57,.33-1.01,.72-1.33,1.17Zm.67,.8c0-.49,.28-.9,.83-1.22l.82-.47c.55-.32,.83-.23,.83,.26v3.25c0,.49-.28,.9-.83,1.22l-.82,.47c-.55,.32-.83,.23-.83-.26v-3.25Zm-2.32,18v-5.22l-1.26,1.36c-.15,.15-.23,.16-.23,.03v-.59c0-.11,.05-.22,.16-.33l1.2-1.32c.15-.16,.27-.27,.37-.32l.69-.4c.13-.08,.2-.06,.2,.06v6.09c0,.11-.06,.21-.18,.28l-.75,.43c-.13,.08-.2,.06-.2-.06Zm7.55,7.64v-5.22l-1.26,1.36c-.15,.15-.23,.16-.23,.03v-.59c0-.11,.05-.22,.16-.33l1.2-1.32c.15-.16,.27-.27,.37-.32l.69-.4c.13-.08,.2-.06,.2,.06v6.09c0,.11-.06,.21-.18,.28l-.75,.43c-.13,.08-.2,.06-.2-.06Zm22.06-.74v-5.22l-1.26,1.36c-.15,.15-.23,.16-.23,.03v-.59c0-.11,.05-.22,.16-.33l1.2-1.32c.15-.16,.27-.27,.37-.32l.69-.4c.13-.08,.2-.06,.2,.06v6.09c0,.11-.06,.21-.18,.28l-.75,.43c-.13,.08-.2,.06-.2-.06Zm-26.5-38.54c-.32,.45-.47,.92-.47,1.42v3.33c0,.49,.16,.77,.47,.87,.32,.09,.76-.03,1.33-.36l1.15-.67c.56-.32,1-.71,1.32-1.17,.32-.46,.47-.93,.47-1.41v-3.33c0-.49-.16-.78-.47-.87-.32-.09-.75,.03-1.32,.36l-1.15,.67c-.57,.33-1.01,.72-1.33,1.17Zm.67,.8c0-.49,.28-.9,.83-1.22l.82-.47c.55-.32,.83-.23,.83,.26v3.25c0,.49-.28,.9-.83,1.22l-.82,.47c-.55,.32-.83,.23-.83-.26v-3.25Zm5.42,25.29c.32,.09,.76-.03,1.33-.36l1.15-.67c.56-.32,1-.71,1.32-1.17,.32-.46,.47-.93,.47-1.41v-3.33c0-.49-.16-.78-.47-.87-.32-.09-.75,.03-1.32,.36l-1.15,.67c-.57,.33-1.01,.72-1.33,1.17-.32,.45-.47,.92-.47,1.42v3.33c0,.49,.16,.78,.47,.87Zm.67-4.81c0-.49,.28-.9,.83-1.22l.82-.47c.55-.32,.83-.23,.83,.26v3.25c0,.49-.28,.9-.83,1.22l-.82,.47c-.55,.32-.83,.23-.83-.26v-3.25Zm23.51,15.08v-5.22s-1.26,1.36-1.26,1.36c-.15,.15-.23,.16-.23,.03v-.59c0-.11,.05-.22,.16-.33l1.2-1.32c.15-.16,.27-.27,.37-.32l.69-.4c.13-.08,.2-.06,.2,.06v6.09c0,.11-.06,.21-.18,.28l-.75,.43c-.13,.08-.2,.06-.2-.06Zm-7.55,4.36v-5.22l-1.26,1.36c-.15,.15-.23,.16-.23,.03v-.59c0-.11,.05-.22,.16-.33l1.2-1.32c.15-.16,.27-.27,.37-.32l.69-.4c.13-.08,.2-.06,.2,.06v6.09c0,.11-.06,.21-.18,.28l-.75,.43c-.13,.08-.2,.06-.2-.06Zm-21.93-52.83l1.2-1.32c.15-.16,.27-.27,.37-.32l.69-.4c.13-.08,.2-.06,.2,.06v6.09c0,.11-.06,.21-.18,.28l-.75,.43c-.13,.08-.2,.06-.2-.06v-5.22l-1.26,1.36c-.15,.15-.23,.16-.23,.03v-.59c0-.11,.05-.22,.16-.33Zm2.19-7.74v-5.22l-1.26,1.36c-.15,.15-.23,.16-.23,.03v-.59c0-.11,.05-.22,.16-.33l1.2-1.32c.15-.16,.27-.27,.37-.32l.69-.4c.13-.08,.2-.06,.2,.06v6.09c0,.11-.06,.21-.18,.28l-.75,.43c-.13,.08-.2,.06-.2-.06Zm-12.86,55.17c.32,.09,.76-.03,1.33-.36l1.15-.67c.56-.32,1-.71,1.32-1.17,.32-.46,.47-.93,.47-1.41v-3.33c0-.49-.16-.78-.47-.87-.32-.09-.75,.03-1.32,.36l-1.15,.67c-.57,.33-1.01,.72-1.33,1.17-.32,.45-.47,.92-.47,1.42v3.33c0,.49,.16,.78,.47,.87Zm.67-4.81c0-.49,.28-.9,.83-1.22l.82-.47c.55-.32,.83-.23,.83,.26v3.25c0,.49-.28,.9-.83,1.22l-.82,.47c-.55,.32-.83,.23-.83-.26v-3.25Zm36.98-9.4c0-.49-.16-.78-.47-.87-.32-.09-.75,.03-1.32,.36l-1.15,.67c-.57,.33-1.01,.72-1.33,1.17-.32,.45-.47,.93-.47,1.42v3.33c0,.49,.16,.78,.47,.87,.32,.09,.76-.03,1.33-.36l1.15-.67c.56-.32,1-.71,1.32-1.17s.47-.93,.47-1.41v-3.33Zm-1.12,3.94c0,.49-.28,.9-.83,1.22l-.82,.47c-.55,.32-.83,.23-.83-.26v-3.25c0-.49,.28-.9,.83-1.22l.82-.47c.55-.32,.83-.23,.83,.26v3.25Zm1.65-29.78l-1.15,.67c-.57,.33-1.01,.72-1.33,1.17-.32,.45-.47,.93-.47,1.42v3.33c0,.49,.16,.78,.47,.87s.76-.03,1.33-.36l1.15-.67c.56-.32,1-.71,1.32-1.17,.32-.46,.47-.93,.47-1.41v-3.33c0-.49-.16-.78-.47-.87-.32-.09-.75,.03-1.32,.36Zm.67,4.45c0,.49-.28,.9-.83,1.22l-.82,.47c-.55,.32-.83,.23-.83-.26v-3.25c0-.49,.28-.9,.83-1.22l.82-.47c.55-.32,.83-.23,.83,.26v3.25Zm16.59,3.6c.32,.09,.76-.03,1.33-.36l1.15-.67c.56-.32,1-.71,1.32-1.17,.32-.46,.47-.93,.47-1.41v-3.33c0-.49-.16-.78-.47-.87-.32-.09-.75,.03-1.32,.36l-1.15,.67c-.57,.33-1.01,.72-1.33,1.17-.32,.45-.47,.92-.47,1.42v3.33c0,.49,.16,.78,.47,.87Zm.67-4.81c0-.49,.28-.9,.83-1.22l.82-.47c.55-.32,.83-.23,.83,.26v3.25c0,.49-.28,.9-.83,1.22l-.82,.47c-.55,.32-.83,.23-.83-.26v-3.25Zm-14.83,25.23c0,.11-.06,.21-.18,.28l-.75,.43c-.13,.08-.2,.06-.2-.06v-5.22l-1.26,1.36c-.15,.15-.23,.16-.23,.03v-.59c0-.11,.05-.22,.16-.33l1.2-1.32c.15-.16,.27-.27,.37-.32l.69-.4c.13-.08,.2-.06,.2,.06v6.09Zm14.19-44.42c.32-.46,.47-.93,.47-1.41v-3.33c0-.49-.16-.78-.47-.87-.32-.09-.75,.03-1.32,.36l-1.15,.67c-.57,.33-1.01,.72-1.33,1.17-.32,.45-.47,.92-.47,1.42v3.33c0,.49,.16,.78,.47,.87,.32,.09,.76-.03,1.33-.36l1.15-.67c.56-.32,1-.71,1.32-1.17Zm-2.3,.89c-.55,.32-.83,.23-.83-.26v-3.25c0-.49,.28-.9,.83-1.22l.82-.47c.55-.32,.83-.23,.83,.26v3.25c0,.49-.28,.9-.83,1.22l-.82,.47Zm5.26-2.36v-5.22l-1.26,1.36c-.15,.15-.23,.16-.23,.03v-.59c0-.11,.05-.22,.16-.33l1.2-1.32c.15-.16,.27-.27,.37-.32l.69-.4c.13-.08,.2-.06,.2,.06v6.09c0,.11-.06,.21-.18,.28l-.75,.43c-.13,.08-.2,.06-.2-.06Zm-30.16,.71v3.33c0,.49,.16,.78,.47,.87,.32,.09,.76-.03,1.33-.36l1.15-.67c.56-.32,1-.71,1.32-1.17,.32-.46,.47-.93,.47-1.41v-3.33c0-.49-.16-.78-.47-.87-.32-.09-.75,.03-1.32,.36l-1.15,.67c-.57,.33-1.01,.72-1.33,1.17-.32,.45-.47,.92-.47,1.42Zm1.14-.62c0-.49,.28-.9,.83-1.22l.82-.47c.55-.32,.83-.23,.83,.26v3.25c0,.49-.28,.9-.83,1.22l-.82,.47c-.55,.32-.83,.23-.83-.26v-3.25Zm30.3,6.46c0-.49-.16-.78-.47-.87-.32-.09-.75,.03-1.32,.36l-1.15,.67c-.57,.33-1.01,.72-1.33,1.17-.32,.45-.47,.92-.47,1.42v3.33c0,.49,.16,.78,.47,.87,.32,.09,.76-.03,1.33-.36l1.15-.67c.56-.32,1-.71,1.32-1.17,.32-.46,.47-.93,.47-1.41v-3.33Zm-1.12,3.94c0,.49-.28,.9-.83,1.22l-.82,.47c-.55,.32-.83,.23-.83-.26v-3.25c0-.49,.28-.9,.83-1.22l.82-.47c.55-.32,.83-.23,.83,.26v3.25Zm-15.34,34.03c.32,.09,.76-.03,1.33-.36l1.15-.67c.56-.32,1-.71,1.32-1.17,.32-.46,.47-.93,.47-1.41v-3.33c0-.49-.16-.78-.47-.87-.32-.09-.75,.03-1.32,.36l-1.15,.67c-.57,.33-1.01,.72-1.33,1.17-.32,.45-.47,.93-.47,1.42v3.33c0,.49,.16,.78,.47,.87Zm.67-4.81c0-.49,.28-.9,.83-1.22l.82-.47c.55-.32,.83-.23,.83,.26v3.25c0,.49-.28,.9-.83,1.22l-.82,.47c-.55,.32-.83,.23-.83-.26v-3.25Zm5.45-10.71c.32-.46,.47-.93,.47-1.41v-3.33c0-.49-.16-.78-.47-.87-.32-.09-.75,.03-1.32,.36l-1.15,.67c-.57,.33-1.01,.72-1.33,1.17-.32,.45-.47,.93-.47,1.42v3.33c0,.49,.16,.78,.47,.87s.76-.03,1.33-.36l1.15-.67c.56-.32,1-.71,1.32-1.17Zm-2.3,.89c-.55,.32-.83,.23-.83-.26v-3.25c0-.49,.28-.9,.83-1.22l.82-.47c.55-.32,.83-.23,.83,.26v3.25c0,.49-.28,.9-.83,1.22l-.82,.47Zm-18.18-43.06c.13-.08,.2-.06,.2,.06v6.09c0,.11-.06,.21-.18,.28l-.75,.43c-.13,.08-.2,.06-.2-.06v-5.22l-1.26,1.36c-.15,.15-.23,.16-.23,.03v-.59c0-.11,.05-.22,.16-.33l1.2-1.32c.15-.16,.27-.27,.37-.32l.69-.4Zm20.45,54.19c.32,.09,.76-.03,1.33-.36l1.15-.67c.56-.32,1-.71,1.32-1.17,.32-.46,.47-.93,.47-1.41v-3.33c0-.49-.16-.78-.47-.87-.32-.09-.75,.03-1.32,.36l-1.15,.67c-.57,.33-1.01,.72-1.33,1.17-.32,.45-.47,.93-.47,1.42v3.33c0,.49,.16,.78,.47,.87Zm.67-4.81c0-.49,.28-.9,.83-1.22l.82-.47c.55-.32,.83-.23,.83,.26v3.25c0,.49-.28,.9-.83,1.22l-.82,.47c-.55,.32-.83,.23-.83-.26v-3.25Zm2.32-8.67v-5.22l-1.26,1.36c-.15,.15-.23,.16-.23,.03v-.59c0-.11,.05-.22,.16-.33l1.2-1.32c.15-.16,.27-.27,.37-.32l.69-.4c.13-.08,.2-.06,.2,.06v6.09c0,.11-.06,.21-.18,.28l-.75,.43c-.13,.08-.2,.06-.2-.06Zm-.87-35.49v-5.22l-1.26,1.36c-.15,.15-.23,.16-.23,.03v-.59c0-.11,.05-.22,.16-.33l1.2-1.32c.15-.16,.27-.27,.37-.32l.69-.4c.13-.08,.2-.06,.2,.06v6.09c0,.11-.06,.21-.18,.28l-.75,.43c-.13,.08-.2,.06-.2-.06Zm2,22.84c0,.11-.06,.21-.18,.28l-.75,.43c-.13,.08-.2,.06-.2-.06v-5.22l-1.26,1.36c-.15,.15-.23,.16-.23,.03v-.59c0-.11,.05-.22,.16-.33l1.2-1.32c.15-.16,.27-.27,.37-.32l.69-.4c.13-.08,.2-.06,.2,.06v6.09Zm4.91-32.68c-.32-.09-.75,.03-1.32,.36l-1.15,.67c-.57,.33-1.01,.72-1.33,1.17-.32,.45-.47,.93-.47,1.42v3.33c0,.49,.16,.78,.47,.87,.32,.09,.76-.03,1.33-.36l1.15-.67c.56-.32,1-.71,1.32-1.17,.32-.46,.47-.93,.47-1.41v-3.33c0-.49-.16-.78-.47-.87Zm-.65,4.81c0,.49-.28,.9-.83,1.22l-.82,.47c-.55,.32-.83,.23-.83-.26v-3.25c0-.49,.28-.9,.83-1.22l.82-.47c.55-.32,.83-.23,.83,.26v3.25Zm-37.32,10.97v-5.22l-1.26,1.36c-.15,.15-.23,.16-.23,.03v-.59c0-.11,.05-.22,.16-.33l1.2-1.32c.15-.16,.27-.27,.37-.32l.69-.4c.13-.08,.2-.06,.2,.06v6.09c0,.11-.06,.21-.18,.28l-.75,.43c-.13,.08-.2,.06-.2-.06Zm9.36,66.74l-.75,.43c-.13,.08-.2,.06-.2-.06v-5.22l-1.26,1.36c-.15,.15-.23,.16-.23,.03v-.59c0-.11,.05-.22,.16-.33l1.2-1.32c.15-.16,.27-.27,.37-.32l.69-.4c.13-.08,.2-.06,.2,.06v6.09c0,.11-.06,.21-.18,.28Zm-14.62-68.39v-.59c0-.11,.05-.22,.16-.33l1.2-1.32c.15-.16,.27-.27,.37-.32l.69-.4c.13-.08,.2-.06,.2,.06v6.09c0,.11-.06,.21-.18,.28l-.75,.43c-.13,.08-.2,.06-.2-.06v-5.22l-1.26,1.36c-.15,.15-.23,.16-.23,.03Zm48.85,23.75c-.1,.35-.18,.7-.28,1.05l-.85,.49c-.57,.33-1.01,.45-1.33,.36-.32-.09-.47-.38-.47-.87v-3.33c0-.49,.16-.97,.47-1.42,.32-.45,.76-.84,1.33-1.17l1.15-.67c.56-.32,1-.44,1.32-.36-.14,1.14-.38,2.23-.65,3.32v-1.76c0-.49-.28-.58-.83-.26l-.82,.47c-.55,.32-.83,.73-.83,1.22v3.25c0,.49,.28,.58,.83,.26l.82-.47c.06-.04,.08-.08,.14-.12Zm-3.45,8.45l.65-.38c-.15,.37-.29,.74-.45,1.11-.59,.34-.86,.75-.86,1.24v.77c-.37,.81-.75,1.62-1.14,2.42v-2.58c0-.49,.16-.97,.47-1.42,.32-.45,.76-.84,1.33-1.17Zm-45.36,43.81v-4.58l-1.26,1.36c-.15,.15-.23,.16-.23,.03v-.59c0-.11,.05-.22,.16-.33l1.2-1.32c.15-.16,.27-.27,.37-.32l.69-.4c.13-.08,.2-.06,.2,.06v5.94c-.38,.06-.76,.13-1.13,.17Zm42.06-41.74v6.04c-.04,.08-.09,.17-.13,.25-.05,.07-.8,.51-.8,.51-.13,.08-.2,.06-.2-.06v-5.22s-1.26,1.36-1.26,1.36c-.15,.15-.23,.16-.23,.03v-.59c0-.11,.05-.22,.16-.33l1.2-1.32c.15-.16,.27-.27,.37-.32l.69-.4c.13-.08,.2-.06,.2,.06Zm-60.35-7.05v-2.97c.37-.94,.73-1.88,1.13-2.8v5.12c0,.11-.06,.21-.18,.28l-.75,.43c-.13,.08-.2,.06-.2-.06Zm17.54-15.65l1.2-1.32c.15-.16,.27-.27,.37-.32l.69-.4c.13-.08,.2-.06,.2,.06v6.09c0,.11-.06,.21-.18,.28l-.75,.43c-.13,.08-.2,.06-.2-.06v-5.22l-1.26,1.36c-.15,.15-.23,.16-.23,.03v-.59c0-.11,.05-.22,.16-.33Zm-13.77,60.64v-4.4l-1.26,1.36c-.15,.15-.23,.16-.23,.03v-.59c0-.11,.05-.22,.16-.33l1.2-1.32c.15-.16,.27-.27,.37-.32l.69-.4c.13-.08,.2-.06,.2,.06v6.09c0,.11-.06,.21-.18,.28l-.18,.1c-.26-.18-.52-.34-.77-.54Zm-2.64-2.49c-.27-.31-.5-.67-.75-1l.55-.32c.13-.08,.2-.06,.2,.06v1.26Zm-2.62-10.35v-.59c0-.11,.05-.22,.16-.33l1.2-1.32c.15-.16,.27-.27,.37-.32l.69-.4c.13-.08,.2-.06,.2,.06v6.09c0,.11-.06,.21-.18,.28l-.75,.43c-.13,.08-.2,.06-.2-.06v-5.22l-1.26,1.36c-.15,.15-.23,.16-.23,.03Zm54.61-7.53v-.53l-1.26,1.36c-.15,.15-.23,.16-.23,.03v-.59c0-.11,.05-.22,.16-.33l1.2-1.32c.15-.16,.27-.27,.37-.32l.69-.4c.13-.08,.2-.06,.2,.06v.44c-.38,.54-.74,1.09-1.13,1.61Zm-31.73,22.77c.32,.09,.76-.03,1.33-.36l1.15-.67c.56-.32,1-.71,1.32-1.17,.32-.46,.47-.93,.47-1.41v-3.33c0-.49-.16-.78-.47-.87-.32-.09-.75,.03-1.32,.36l-1.15,.67c-.57,.33-1.01,.72-1.33,1.17-.32,.45-.47,.93-.47,1.42v3.33c0,.49,.16,.78,.47,.87Zm.67-4.81c0-.49,.28-.9,.83-1.22l.82-.47c.55-.32,.83-.23,.83,.26v3.25c0,.49-.28,.9-.83,1.22l-.82,.47c-.55,.32-.83,.23-.83-.26v-3.25Zm-1.54-6.68c.32,.09,.76-.03,1.33-.36l1.15-.67c.56-.32,1-.71,1.32-1.17,.32-.46,.47-.93,.47-1.41v-3.33c0-.49-.16-.78-.47-.87-.32-.09-.75,.03-1.32,.36l-1.15,.67c-.57,.33-1.01,.72-1.33,1.17-.32,.45-.47,.93-.47,1.42v3.33c0,.49,.16,.78,.47,.87Zm.67-4.81c0-.49,.28-.9,.83-1.22l.82-.47c.55-.32,.83-.23,.83,.26v3.25c0,.49-.28,.9-.83,1.22l-.82,.47c-.55,.32-.83,.23-.83-.26v-3.25Zm-.28-23.87v3.33c0,.49,.16,.77,.47,.87,.32,.09,.76-.03,1.33-.36l1.15-.67c.56-.32,1-.71,1.32-1.17,.32-.46,.47-.93,.47-1.41v-3.33c0-.49-.16-.78-.47-.87-.32-.09-.75,.03-1.32,.36l-1.15,.67c-.57,.33-1.01,.72-1.33,1.17-.32,.45-.47,.92-.47,1.42Zm1.14-.62c0-.49,.28-.9,.83-1.22l.82-.47c.55-.32,.83-.23,.83,.26v3.25c0,.49-.28,.9-.83,1.22l-.82,.47c-.55,.32-.83,.23-.83-.26v-3.25Zm25.83-22.24v-5.22l-1.26,1.36c-.15,.15-.23,.16-.23,.03v-.59c0-.11,.05-.22,.16-.33l1.2-1.32c.15-.16,.27-.27,.37-.32l.69-.4c.13-.08,.2-.06,.2,.06v6.09c0,.11-.06,.21-.18,.28l-.75,.43c-.13,.08-.2,.06-.2-.06Zm-15.16,32.5c.32-.46,.47-.93,.47-1.41v-3.33c0-.49-.16-.78-.47-.87-.32-.09-.75,.03-1.32,.36l-1.15,.67c-.57,.33-1.01,.72-1.33,1.17-.32,.45-.47,.92-.47,1.42v3.33c0,.49,.16,.78,.47,.87,.32,.09,.76-.03,1.33-.36l1.15-.67c.56-.32,1-.71,1.32-1.17Zm-2.3,.89c-.55,.32-.83,.23-.83-.26v-3.25c0-.49,.28-.9,.83-1.22l.82-.47c.55-.32,.83-.23,.83,.26v3.25c0,.49-.28,.9-.83,1.22l-.82,.47Zm-2.22-52.28c.13-.08,.2-.06,.2,.06v6.09c0,.11-.06,.21-.18,.28l-.75,.43c-.13,.08-.2,.06-.2-.06v-5.22s-1.26,1.36-1.26,1.36c-.15,.15-.23,.16-.23,.03v-.59c0-.11,.05-.22,.16-.33l1.2-1.32c.15-.16,.27-.27,.37-.32l.69-.4Zm17.35,32.23v-5.22l-1.26,1.36c-.15,.15-.23,.16-.23,.03v-.59c0-.11,.05-.22,.16-.33l1.2-1.32c.15-.16,.27-.27,.37-.32l.69-.4c.13-.08,.2-.06,.2,.06v6.09c0,.11-.06,.21-.18,.28l-.75,.43c-.13,.08-.2,.06-.2-.06Zm-12.36-9.57c0-.49-.16-.78-.47-.87-.32-.09-.75,.03-1.32,.36l-1.15,.67c-.57,.33-1.01,.72-1.33,1.17-.32,.45-.47,.92-.47,1.42v3.33c0,.49,.16,.77,.47,.87s.76-.03,1.33-.36l1.15-.67c.56-.32,1-.71,1.32-1.17,.32-.46,.47-.93,.47-1.41v-3.33Zm-1.12,3.94c0,.49-.28,.9-.83,1.22l-.82,.47c-.55,.32-.83,.23-.83-.26v-3.25c0-.49,.28-.9,.83-1.22l.82-.47c.55-.32,.83-.23,.83,.26v3.25Zm-.16,13.51v-5.22l-1.26,1.36c-.15,.15-.23,.16-.23,.03v-.59c0-.11,.05-.22,.16-.33l1.2-1.32c.15-.16,.27-.27,.37-.32l.69-.4c.13-.08,.2-.06,.2,.06v6.09c0,.11-.06,.21-.18,.28l-.75,.43c-.13,.08-.2,.06-.2-.06Zm-10.42-22.68v3.33c0,.49,.16,.78,.47,.87,.32,.09,.76-.03,1.33-.36l1.15-.67c.56-.32,1-.71,1.32-1.17,.32-.46,.47-.93,.47-1.41v-3.33c0-.49-.16-.78-.47-.87-.32-.09-.75,.03-1.32,.36l-1.15,.67c-.57,.33-1.01,.72-1.33,1.17-.32,.45-.47,.93-.47,1.42Zm1.14-.62c0-.49,.28-.9,.83-1.22l.82-.47c.55-.32,.83-.23,.83,.26v3.25c0,.49-.28,.9-.83,1.22l-.82,.47c-.55,.32-.83,.23-.83-.26v-3.25Zm19.96,28.89c.32-.46,.47-.93,.47-1.41v-3.33c0-.49-.16-.78-.47-.87-.32-.09-.75,.03-1.32,.36l-1.15,.67c-.57,.33-1.01,.72-1.33,1.17-.32,.45-.47,.93-.47,1.42v3.33c0,.49,.16,.78,.47,.87,.32,.09,.76-.03,1.33-.36l1.15-.67c.56-.32,1-.71,1.32-1.17Zm-2.3,.89c-.55,.32-.83,.23-.83-.26v-3.25c0-.49,.28-.9,.83-1.22l.82-.47c.55-.32,.83-.23,.83,.26v3.25c0,.49-.28,.9-.83,1.22l-.82,.47Zm-10.63-35.43c.13-.08,.2-.06,.2,.06v6.09c0,.11-.06,.21-.18,.28l-.75,.43c-.13,.08-.2,.06-.2-.06v-5.22l-1.26,1.36c-.15,.15-.23,.16-.23,.03v-.59c0-.11,.05-.22,.16-.33l1.2-1.32c.15-.16,.27-.27,.37-.32l.69-.4Zm-2.56,15.02c0-.49-.16-.78-.47-.87-.32-.09-.75,.03-1.32,.36l-1.15,.67c-.57,.33-1.01,.72-1.33,1.17-.32,.45-.47,.93-.47,1.42v3.33c0,.49,.16,.78,.47,.87,.32,.09,.76-.03,1.33-.36l1.15-.67c.56-.32,1-.71,1.32-1.17,.32-.46,.47-.93,.47-1.41v-3.33Zm-1.12,3.94c0,.49-.28,.9-.83,1.22l-.82,.47c-.55,.32-.83,.23-.83-.26v-3.25c0-.49,.28-.9,.83-1.22l.82-.47c.55-.32,.83-.23,.83,.26v3.25Zm2.16,12.17v-5.22l-1.26,1.36c-.15,.15-.23,.16-.23,.03v-.59c0-.11,.05-.22,.16-.33l1.2-1.32c.15-.16,.27-.27,.37-.32l.69-.4c.13-.08,.2-.06,.2,.06v6.09c0,.11-.06,.21-.18,.28l-.75,.43c-.13,.08-.2,.06-.2-.06Zm9.81-47.51c-.32-.09-.75,.03-1.32,.36l-1.15,.67c-.57,.33-1.01,.72-1.33,1.17-.32,.45-.47,.92-.47,1.42v3.33c0,.49,.16,.78,.47,.87,.32,.09,.76-.03,1.33-.36l1.15-.67c.56-.32,1-.71,1.32-1.17s.47-.93,.47-1.41v-3.33c0-.49-.16-.78-.47-.87Zm-.65,4.81c0,.49-.28,.9-.83,1.22l-.82,.47c-.55,.32-.83,.23-.83-.26v-3.25c0-.49,.28-.9,.83-1.22l.82-.47c.55-.32,.83-.23,.83,.26v3.25Zm4.55-7.46c.13-.08,.2-.06,.2,.06v6.09c0,.11-.06,.21-.18,.28l-.75,.43c-.13,.08-.2,.06-.2-.06v-5.22l-1.26,1.36c-.15,.15-.23,.16-.23,.03v-.59c0-.11,.05-.22,.16-.33l1.2-1.32c.15-.16,.27-.27,.37-.32l.69-.4Zm-6.83,28.34c-.32,.45-.47,.93-.47,1.42v3.33c0,.49,.16,.78,.47,.87,.32,.09,.76-.03,1.33-.36l1.15-.67c.56-.32,1-.71,1.32-1.17,.32-.46,.47-.93,.47-1.41v-3.33c0-.49-.16-.78-.47-.87-.32-.09-.75,.03-1.32,.36l-1.15,.67c-.57,.33-1.01,.72-1.33,1.17Zm.67,.8c0-.49,.28-.9,.83-1.22l.82-.47c.55-.32,.83-.23,.83,.26v3.25c0,.49-.28,.9-.83,1.22l-.82,.47c-.55,.32-.83,.23-.83-.26v-3.25Zm3.15-15.4l.69-.4c.13-.08,.2-.06,.2,.06v6.09c0,.11-.06,.21-.18,.28l-.75,.43c-.13,.08-.2,.06-.2-.06v-5.22l-1.26,1.36c-.15,.15-.23,.16-.23,.03v-.59c0-.11,.05-.22,.16-.33l1.2-1.32c.15-.16,.27-.27,.37-.32Zm-4.48,27.32l1.2-1.32c.15-.16,.27-.27,.37-.32l.69-.4c.13-.08,.2-.06,.2,.06v6.09c0,.11-.06,.21-.18,.28l-.75,.43c-.13,.08-.2,.06-.2-.06v-5.22l-1.26,1.36c-.15,.15-.23,.16-.23,.03v-.59c0-.11,.05-.22,.16-.33Zm-.16,12.33c0-.11,.05-.22,.16-.33l1.2-1.32c.15-.16,.27-.27,.37-.32l.69-.4c.13-.08,.2-.06,.2,.06v6.09c0,.11-.06,.21-.18,.28l-.75,.43c-.13,.08-.2,.06-.2-.06v-5.22l-1.26,1.36c-.15,.15-.23,.16-.23,.03v-.59Zm10.71-25.14c.32-.46,.47-.93,.47-1.41v-3.33c0-.49-.16-.78-.47-.87-.32-.09-.75,.03-1.32,.36l-1.15,.67c-.57,.33-1.01,.72-1.33,1.17-.32,.45-.47,.93-.47,1.42v3.33c0,.49,.16,.78,.47,.87s.76-.03,1.33-.36l1.15-.67c.56-.32,1-.71,1.32-1.17Zm-2.3,.89c-.55,.32-.83,.23-.83-.26v-3.25c0-.49,.28-.9,.83-1.22l.82-.47c.55-.32,.83-.23,.83,.26v3.25c0,.49-.28,.9-.83,1.22l-.82,.47Zm6.05,8.94c.32,.09,.76-.03,1.33-.36l1.15-.67c.56-.32,1-.71,1.32-1.17,.32-.46,.47-.93,.47-1.41v-3.33c0-.49-.16-.78-.47-.87-.32-.09-.75,.03-1.32,.36l-1.15,.67c-.57,.33-1.01,.72-1.33,1.17-.32,.45-.47,.92-.47,1.42v3.33c0,.49,.16,.78,.47,.87Zm.67-4.81c0-.49,.28-.9,.83-1.22l.82-.47c.55-.32,.83-.23,.83,.26v3.25c0,.49-.28,.9-.83,1.22l-.82,.47c-.55,.32-.83,.23-.83-.26v-3.25Zm3.26-15.47c.13-.08,.2-.06,.2,.06v6.09c0,.11-.06,.21-.18,.28l-.75,.43c-.13,.08-.2,.06-.2-.06v-5.22l-1.26,1.36c-.15,.15-.23,.16-.23,.03v-.59c0-.11,.05-.22,.16-.33l1.2-1.32c.15-.16,.27-.27,.37-.32l.69-.4Zm-10.89-5.31c-.32,.45-.47,.92-.47,1.42v3.33c0,.49,.16,.78,.47,.87,.32,.09,.76-.03,1.33-.36l1.15-.67c.56-.32,1-.71,1.32-1.17,.32-.46,.47-.93,.47-1.41v-3.33c0-.49-.16-.78-.47-.87-.32-.09-.75,.03-1.32,.36l-1.15,.67c-.57,.33-1.01,.72-1.33,1.17Zm2.32-.89c.55-.32,.83-.23,.83,.26v3.25c0,.49-.28,.9-.83,1.22l-.82,.47c-.55,.32-.83,.23-.83-.26v-3.25c0-.49,.28-.9,.83-1.22l.82-.47Zm3.8-14.63c-.32-.09-.75,.03-1.32,.36l-1.15,.67c-.57,.33-1.01,.72-1.33,1.17-.32,.45-.47,.92-.47,1.42v3.33c0,.49,.16,.78,.47,.87s.76-.03,1.33-.36l1.15-.67c.56-.32,1-.71,1.32-1.17,.32-.46,.47-.93,.47-1.41v-3.33c0-.49-.16-.78-.47-.87Zm-.65,4.81c0,.49-.28,.9-.83,1.22l-.82,.47c-.55,.32-.83,.23-.83-.26v-3.25c0-.49,.28-.9,.83-1.22l.82-.47c.55-.32,.83-.23,.83,.26v3.25Zm4.42,5.01c-.32-.09-.75,.03-1.32,.36l-1.15,.67c-.57,.33-1.01,.72-1.33,1.17-.32,.45-.47,.92-.47,1.42v3.33c0,.49,.16,.78,.47,.87s.76-.03,1.33-.36l1.15-.67c.56-.32,1-.71,1.32-1.17,.32-.46,.47-.93,.47-1.41v-3.33c0-.49-.16-.78-.47-.87Zm-.65,4.81c0,.49-.28,.9-.83,1.22l-.82,.47c-.55,.32-.83,.23-.83-.26v-3.25c0-.49,.28-.9,.83-1.22l.82-.47c.55-.32,.83-.23,.83,.26v3.25Z"/>
  <path class="cls-5" d="M157.31,99.87l-9.92-5.69c6.86,3.94,11.12,12.41,11.12,24.46,0,23.95-16.82,53.08-37.49,64.94-10.27,5.89-19.58,6.43-26.36,2.54l9.92,5.69c6.78,3.89,16.09,3.35,26.36-2.54,20.68-11.86,37.49-40.99,37.49-64.94,0-12.05-4.26-20.52-11.12-24.46h0Z"/>
  <path class="cls-18" d="M125.01,185.85c20.68-11.86,37.49-40.99,37.49-64.94,0-11.05-3.59-19.09-9.48-23.38,7.82,3.48,12.77,12.3,12.77,25.28,0,23.95-16.82,53.08-37.49,64.94-11.13,6.38-21.13,6.47-28,1.46,6.6,2.94,15.25,2.07,24.72-3.36Z"/>
  <path class="cls-13" d="M125.01,98.99c-20.67,11.86-37.49,40.98-37.49,64.93s16.82,33.79,37.49,21.93c20.68-11.86,37.49-40.99,37.49-64.94s-16.82-33.78-37.49-21.92Z"/>
  <path class="cls-16" d="M158.47,97.85l-9.92-5.69c-7.08-4.06-16.81-3.5-27.53,2.65-21.58,12.38-39.14,42.79-39.14,67.79,0,12.58,4.45,21.44,11.62,25.55l9.92,5.69c-7.17-4.11-11.62-12.96-11.62-25.55,0-25,17.56-55.41,39.14-67.79,10.72-6.15,20.45-6.71,27.53-2.65h0Z"/>
  <path class="cls-17" d="M130.94,191.19c-21.58,12.38-39.14,2.1-39.14-22.9s17.56-55.41,39.14-67.79c8.3-4.76,16.01-6.17,22.35-4.68,10.14,2.38,16.79,12.19,16.79,27.57,0,25-17.56,55.42-39.14,67.8Zm-37.49-23.85c0,23.95,16.82,33.79,37.49,21.93,20.68-11.86,37.49-40.99,37.49-64.94s-16.82-33.78-37.49-21.92c-20.67,11.86-37.49,40.98-37.49,64.93h0Z"/>
  <path class="cls-19" d="M91.81,168.29c.59-41.13,36.61-78.32,61.49-72.47-24.37-4.19-58.58,31.52-61.49,72.47Z"/>
</svg>