<?xml version="1.0" encoding="UTF-8"?>
<svg xmlns="http://www.w3.org/2000/svg" xmlns:xlink="http://www.w3.org/1999/xlink" viewBox="0 0 127.87 212.61">
  <defs>
    <style>
      .cls-1 {
        fill: url(#radial-gradient-2);
      }

      .cls-1, .cls-2, .cls-3, .cls-4, .cls-5, .cls-6 {
        mix-blend-mode: multiply;
      }

      .cls-2 {
        fill: url(#radial-gradient-6);
      }

      .cls-3 {
        fill: url(#radial-gradient-4);
      }

      .cls-7 {
        fill: url(#radial-gradient);
      }

      .cls-7, .cls-8 {
        opacity: .5;
      }

      .cls-7, .cls-8, .cls-9, .cls-10 {
        mix-blend-mode: screen;
      }

      .cls-11 {
        filter: url(#luminosity-noclip-6);
      }

      .cls-12 {
        filter: url(#luminosity-noclip-4);
      }

      .cls-13 {
        fill: url(#_ÂÁ_Ï_ÌÌ_È_ËÂÌÚ_15);
      }

      .cls-14 {
        mask: url(#mask);
      }

      .cls-15 {
        filter: url(#luminosity-noclip-2);
      }

      .cls-16 {
        fill: #f14c23;
      }

      .cls-17 {
        fill: #30393f;
      }

      .cls-4 {
        fill: url(#linear-gradient);
      }

      .cls-4, .cls-5, .cls-6, .cls-9 {
        opacity: .45;
      }

      .cls-8 {
        fill: url(#radial-gradient-7);
      }

      .cls-5 {
        fill: url(#linear-gradient-2);
      }

      .cls-6 {
        fill: url(#linear-gradient-3);
      }

      .cls-9 {
        fill: url(#radial-gradient-5);
      }

      .cls-10 {
        fill: url(#radial-gradient-3);
        opacity: .3;
      }

      .cls-18 {
        fill: url(#linear-gradient-4);
      }

      .cls-19 {
        fill: url(#linear-gradient-6);
      }

      .cls-20 {
        fill: url(#linear-gradient-7);
      }

      .cls-21 {
        fill: url(#linear-gradient-5);
      }

      .cls-22 {
        isolation: isolate;
      }

      .cls-23 {
        mask: url(#mask-3);
      }

      .cls-24 {
        mask: url(#mask-2);
      }

      .cls-25 {
        mask: url(#mask-5);
      }

      .cls-26 {
        mask: url(#mask-4);
      }

      .cls-27 {
        mask: url(#mask-1);
      }
    </style>
    <linearGradient id="linear-gradient" x1="63.4" y1="213" x2="63.64" y2="180.32" gradientUnits="userSpaceOnUse">
      <stop offset="0" stop-color="#4c4c4c"/>
      <stop offset=".04" stop-color="#686868"/>
      <stop offset=".13" stop-color="#969696"/>
      <stop offset=".21" stop-color="#bcbcbc"/>
      <stop offset=".29" stop-color="#d9d9d9"/>
      <stop offset=".36" stop-color="#eee"/>
      <stop offset=".44" stop-color="#fafafa"/>
      <stop offset=".52" stop-color="#fff"/>
      <stop offset=".57" stop-color="#f8f8f8"/>
      <stop offset=".65" stop-color="#e7e7e7"/>
      <stop offset=".74" stop-color="#c9c9c9"/>
      <stop offset=".83" stop-color="#a1a1a1"/>
      <stop offset=".94" stop-color="#6e6e6e"/>
      <stop offset="1" stop-color="#4c4c4c"/>
    </linearGradient>
    <linearGradient id="linear-gradient-2" x1="63.05" y1="196.5" x2="63.79" y2="162.84" xlink:href="#linear-gradient"/>
    <linearGradient id="linear-gradient-3" x1="63.55" y1="179.34" x2="63.8" y2="134.87" xlink:href="#linear-gradient"/>
    <linearGradient id="linear-gradient-4" x1="102.08" y1="195.02" x2="-97.01" y2="195.02" gradientUnits="userSpaceOnUse">
      <stop offset=".18" stop-color="#7c1dc9"/>
      <stop offset=".29" stop-color="#921fca"/>
      <stop offset=".42" stop-color="#a821cb"/>
      <stop offset=".55" stop-color="#b622cb"/>
      <stop offset=".66" stop-color="#bb23cc"/>
    </linearGradient>
    <linearGradient id="linear-gradient-5" x1="102.12" y1="178.35" x2="-57.33" y2="178.35" gradientUnits="userSpaceOnUse">
      <stop offset=".09" stop-color="#7c1dc9"/>
      <stop offset=".21" stop-color="#921fca"/>
      <stop offset=".37" stop-color="#a821cb"/>
      <stop offset=".53" stop-color="#b622cb"/>
      <stop offset=".66" stop-color="#bb23cc"/>
    </linearGradient>
    <linearGradient id="linear-gradient-6" x1="102.17" y1="157.98" x2="25.23" y2="157.98" gradientUnits="userSpaceOnUse">
      <stop offset=".09" stop-color="#7c1dc9"/>
      <stop offset=".23" stop-color="#921fca"/>
      <stop offset=".42" stop-color="#a821cb"/>
      <stop offset=".59" stop-color="#b622cb"/>
      <stop offset=".75" stop-color="#bb23cc"/>
    </linearGradient>
    <linearGradient id="_ÂÁ_Ï_ÌÌ_È_ËÂÌÚ_15" data-name="¡ÂÁ˚ÏˇÌÌ˚È „‡‰ËÂÌÚ 15" x1="63.4" y1="139.3" x2="128.39" y2="139.3" gradientUnits="userSpaceOnUse">
      <stop offset="0" stop-color="#42e8e0"/>
      <stop offset=".15" stop-color="#42e3df"/>
      <stop offset=".33" stop-color="#44d4de"/>
      <stop offset=".52" stop-color="#48bddd"/>
      <stop offset=".72" stop-color="#4d9bda"/>
      <stop offset=".93" stop-color="#5471d8"/>
      <stop offset="1" stop-color="#5761d7"/>
    </linearGradient>
    <linearGradient id="linear-gradient-7" x1="30.7" y1="124.58" x2="114.65" y2="-25.99" gradientUnits="userSpaceOnUse">
      <stop offset="0" stop-color="#42e8e0"/>
      <stop offset=".55" stop-color="#4d9bda"/>
      <stop offset="1" stop-color="#5761d7"/>
    </linearGradient>
    <radialGradient id="radial-gradient" cx="88.78" cy="46.28" fx="88.78" fy="46.28" r="21.13" gradientUnits="userSpaceOnUse">
      <stop offset=".07" stop-color="#fff"/>
      <stop offset=".28" stop-color="#fcfcfc"/>
      <stop offset=".42" stop-color="#f3f3f3"/>
      <stop offset=".54" stop-color="#e4e4e4"/>
      <stop offset=".65" stop-color="#cecece"/>
      <stop offset=".76" stop-color="#b3b3b3"/>
      <stop offset=".85" stop-color="#919191"/>
      <stop offset=".94" stop-color="#696969"/>
      <stop offset="1" stop-color="#4c4c4c"/>
    </radialGradient>
    <filter id="luminosity-noclip-2" data-name="luminosity-noclip" x="83.38" y="189.73" width="12.34" height="7.7" color-interpolation-filters="sRGB" filterUnits="userSpaceOnUse">
      <feFlood flood-color="#fff" result="bg"/>
      <feBlend in="SourceGraphic" in2="bg"/>
    </filter>
    <filter id="luminosity-noclip-3" x="8274.21" y="-8322.05" width="-32766" height="32766" color-interpolation-filters="sRGB" filterUnits="userSpaceOnUse">
      <feFlood flood-color="#fff" result="bg"/>
      <feBlend in="SourceGraphic" in2="bg"/>
    </filter>
    <mask id="mask-1" x="8274.21" y="-8322.05" width="-32766" height="32766" maskUnits="userSpaceOnUse"/>
    <radialGradient id="radial-gradient-2" cx="149.03" cy="-94.83" fx="149.03" fy="-94.83" r="17.47" gradientTransform="translate(43.49 232.53) rotate(-28.62) scale(.4 .13)" gradientUnits="userSpaceOnUse">
      <stop offset=".07" stop-color="#fff"/>
      <stop offset=".26" stop-color="#fcfcfc"/>
      <stop offset=".38" stop-color="#f3f3f3"/>
      <stop offset=".49" stop-color="#e4e4e4"/>
      <stop offset=".59" stop-color="#cecece"/>
      <stop offset=".68" stop-color="#b3b3b3"/>
      <stop offset=".76" stop-color="#909090"/>
      <stop offset=".84" stop-color="#686868"/>
      <stop offset=".92" stop-color="#393939"/>
      <stop offset=".99" stop-color="#050505"/>
      <stop offset="1" stop-color="#000"/>
    </radialGradient>
    <mask id="mask" x="83.38" y="189.73" width="12.34" height="7.7" maskUnits="userSpaceOnUse">
      <g class="cls-15">
        <g class="cls-27">
          <path class="cls-1" d="M95.62,190.27c.59,1.08-1.65,3.44-5.01,5.28-3.36,1.83-6.56,2.44-7.15,1.35-.59-1.08,1.65-3.45,5.01-5.28,3.36-1.83,6.56-2.44,7.15-1.35Z"/>
        </g>
      </g>
    </mask>
    <radialGradient id="radial-gradient-3" cx="149.03" cy="-94.83" fx="149.03" fy="-94.83" r="17.47" gradientTransform="translate(43.49 232.53) rotate(-28.62) scale(.4 .13)" xlink:href="#radial-gradient"/>
    <filter id="luminosity-noclip-4" x="81.57" y="173.95" width="14.93" height="10.44" color-interpolation-filters="sRGB" filterUnits="userSpaceOnUse">
      <feFlood flood-color="#fff" result="bg"/>
      <feBlend in="SourceGraphic" in2="bg"/>
    </filter>
    <filter id="luminosity-noclip-5" x="8274.21" y="-8322.05" width="-32766" height="32766" color-interpolation-filters="sRGB" filterUnits="userSpaceOnUse">
      <feFlood flood-color="#fff" result="bg"/>
      <feBlend in="SourceGraphic" in2="bg"/>
    </filter>
    <mask id="mask-3" x="8274.21" y="-8322.05" width="-32766" height="32766" maskUnits="userSpaceOnUse"/>
    <radialGradient id="radial-gradient-4" cx="192.28" cy="808.28" fx="192.28" fy="808.28" r="21.14" gradientTransform="translate(-45.56 99.15) rotate(-30.15) scale(.4 .17)" xlink:href="#radial-gradient-2"/>
    <mask id="mask-2" x="81.57" y="173.95" width="14.93" height="10.44" maskUnits="userSpaceOnUse">
      <g class="cls-12">
        <g class="cls-23">
          <path class="cls-3" d="M96.28,174.97c.99,1.71-1.44,4.97-5.45,7.3-4,2.32-8.05,2.82-9.04,1.11-.99-1.71,1.45-4.98,5.45-7.3,4-2.32,8.05-2.82,9.04-1.11Z"/>
        </g>
      </g>
    </mask>
    <radialGradient id="radial-gradient-5" cx="192.28" cy="808.28" fx="192.28" fy="808.28" r="21.14" gradientTransform="translate(-45.56 99.15) rotate(-30.15) scale(.4 .17)" xlink:href="#radial-gradient"/>
    <filter id="luminosity-noclip-6" x="77.97" y="156.62" width="18.87" height="13.35" color-interpolation-filters="sRGB" filterUnits="userSpaceOnUse">
      <feFlood flood-color="#fff" result="bg"/>
      <feBlend in="SourceGraphic" in2="bg"/>
    </filter>
    <filter id="luminosity-noclip-7" x="8274.21" y="-8322.05" width="-32766" height="32766" color-interpolation-filters="sRGB" filterUnits="userSpaceOnUse">
      <feFlood flood-color="#fff" result="bg"/>
      <feBlend in="SourceGraphic" in2="bg"/>
    </filter>
    <mask id="mask-5" x="8274.21" y="-8322.05" width="-32766" height="32766" maskUnits="userSpaceOnUse"/>
    <radialGradient id="radial-gradient-6" cx="192.48" cy="849.77" fx="192.48" fy="849.77" r="26.44" gradientTransform="translate(-55.92 64.62) rotate(-29.45) scale(.4 .18)" xlink:href="#radial-gradient-2"/>
    <mask id="mask-4" x="77.97" y="156.62" width="18.87" height="13.35" maskUnits="userSpaceOnUse">
      <g class="cls-11">
        <g class="cls-25">
          <path class="cls-2" d="M96.53,158.13c1.32,2.34-1.69,6.55-6.73,9.39-5.04,2.85-10.2,3.26-11.52,.92-1.32-2.34,1.7-6.55,6.73-9.39,5.04-2.84,10.2-3.26,11.52-.92Z"/>
        </g>
      </g>
    </mask>
    <radialGradient id="radial-gradient-7" cx="192.48" cy="849.77" fx="192.48" fy="849.77" r="26.44" gradientTransform="translate(-55.92 64.62) rotate(-29.45) scale(.4 .18)" xlink:href="#radial-gradient"/>
  </defs>
  <g class="cls-22">
    <g id="Layer_1" data-name="Layer 1">
      <path class="cls-17" d="M46.2,209.84c-.51-.17-1.03-.38-1.54-.57,.51,.19,1.03,.4,1.54,.57Z"/>
      <path class="cls-17" d="M39.72,207.08c-.59-.31-1.17-.64-1.73-.96,.56,.33,1.14,.65,1.73,.96Z"/>
      <path class="cls-17" d="M36.73,205.3c-.27-.18-.55-.35-.81-.54,.26,.19,.53,.36,.81,.54Z"/>
      <path class="cls-17" d="M42.74,208.54s.07,.03,.12,.04c-.9-.38-1.78-.79-2.59-1.21,.81,.41,1.63,.81,2.48,1.16Z"/>
      <path class="cls-17" d="M31.4,200.9c-1.05-1.12-1.97-2.28-2.75-3.48,.75,1.19,1.68,2.35,2.75,3.48Z"/>
      <path class="cls-17" d="M25.89,191.39c-.14-.51-.27-1.03-.38-1.55,.1,.54,.24,1.05,.38,1.55Z"/>
      <path class="cls-17" d="M26.51,193.21c-.18-.46-.35-.93-.5-1.39,.16,.48,.32,.95,.5,1.39Z"/>
      <path class="cls-17" d="M25.42,189.25c-.08-.45-.15-.89-.19-1.34,.04,.46,.12,.9,.19,1.34Z"/>
      <path class="cls-17" d="M28.38,197.02c.07,.13,.17,.25,.25,.38-.38-.59-.73-1.18-1.05-1.78,.27,.5,.53,.97,.8,1.4Z"/>
      <path class="cls-17" d="M32.91,202.36c-.39-.35-.77-.71-1.12-1.07,.36,.36,.73,.72,1.12,1.07Z"/>
      <path class="cls-17" d="M27.31,195.05c-.2-.41-.4-.83-.58-1.25,.19,.44,.38,.85,.58,1.25Z"/>
      <path class="cls-17" d="M101.79,189.44c.04-.27,.1-.72,.15-1.24-.17,1.62-.53,3.08-.98,4.39,.39-1.15,.66-2.04,.82-3.16Z"/>
      <path class="cls-17" d="M100.77,193.21c.02-.07,.04-.13,.07-.2-.14,.39-.29,.77-.45,1.13,.17-.39,.31-.74,.38-.94Z"/>
      <path class="cls-17" d="M100.21,194.53c-.08,.19-.17,.37-.26,.55,.09-.2,.18-.37,.26-.55Z"/>
      <path class="cls-17" d="M99.58,195.81c-.07,.11-.12,.22-.18,.32,.06-.11,.12-.22,.18-.32Z"/>
      <path class="cls-17" d="M102.02,184.59s0-.01,0-.02c0,.03,0,.06,0,.09v-.07Z"/>
      <path class="cls-17" d="M25.92,180.4c.29-.94,.62-1.83,1-2.69-.39,.89-.75,1.78-1,2.69Z"/>
      <path class="cls-17" d="M98.38,197.78c-.68,.99-1.39,1.89-2.12,2.7,.78-.87,1.39-1.62,2.12-2.7Z"/>
      <path class="cls-17" d="M98.87,197.05s.04-.08,.06-.12c-.06,.08-.11,.16-.15,.24,.03-.04,.05-.08,.09-.12Z"/>
      <path class="cls-17" d="M90.78,205.16c-.85,.56-1.68,1.08-2.48,1.54,.49-.28,1.4-.82,2.48-1.54Z"/>
      <path class="cls-17" d="M83.29,209.07s-.07,.03-.09,.04c.03,0,.06-.02,.09-.04Z"/>
      <path class="cls-17" d="M92.11,204.23c-.38,.28-.76,.55-1.14,.81,.37-.25,.75-.52,1.14-.81Z"/>
      <path class="cls-17" d="M34.63,203.79c-.25-.2-.5-.39-.73-.59,.24,.2,.48,.4,.73,.59Z"/>
      <path class="cls-17" d="M101.98,187.88c.06-.62,.09-1.32,.09-2.07,0,.12,0,.25,0,.35-.01,.59-.04,1.16-.09,1.71Z"/>
      <path class="cls-17" d="M92.22,204.15c1.17-.87,2.41-1.91,3.5-3.08,.09-.1,.17-.19,.26-.28-1.23,1.32-2.49,2.42-3.76,3.37Z"/>
      <path class="cls-17" d="M100.44,178.24c-.06-.14-.11-.27-.17-.42h0c.06,.14,.12,.28,.17,.42Z"/>
      <path class="cls-17" d="M26.97,177.61s-.01,.04-.03,.05c0-.01,.02-.03,.03-.05h0Z"/>
      <path class="cls-17" d="M99.72,178.95c-.05,.09-.09,.18-.14,.27-.14,.25-.29,.51-.43,.76-.09,.14-.17,.27-.25,.4-.18,.3-.38,.59-.59,.89-.03,.04-.06,.09-.09,.13-.52,.74-1.08,1.47-1.74,2.21-.04,.05-.08,.09-.12,.14-2.87,3.3-6.75,5.55-8.02,6.29-2.83,1.47-2.94,1.53-4.74,2.26-2.14,.87-4.33,1.52-4.94,1.67-.27,.07-.56,.14-.84,.22-.03,0-.04,.01-.07,.01-1.6,.4-3.35,.79-5.43,1.1-.18,.03-.37,.06-.56,.09-1.5,.2-3.19,.37-5.12,.47-.28,.01-.56,.04-.84,.05h-.04c-1.2,.05-3.06,.07-5.3-.07-.2,0-.4-.01-.6-.03-1.61-.11-3.41-.31-5.35-.62-.19-.03-.37-.05-.56-.09-1.68-.29-3.45-.69-5.26-1.2-.23-.06-.46-.12-.69-.2-1.65-.48-3.31-1.03-4.98-1.74-.05-.02-.1-.04-.15-.07-.02-.01-.05-.02-.07-.03-.66-.28-1.45-.66-2.29-1.08-.18-.09-.36-.18-.54-.27-.53-.27-1.07-.59-1.63-.92-3.6-2.12-6.41-4.58-8.47-7.23-.14-.17-.26-.36-.4-.54-.37-.51-.73-1.02-1.05-1.53-.09-.15-.2-.27-.29-.43-.16-.27-.29-.54-.44-.82-.07-.13-.14-.26-.21-.39-.18-.35-.36-.71-.53-1.08,0,.02-.02,.04-.03,.05,0,.02,0,.04-.02,.05-.38,.86-.71,1.75-1,2.69-.71,2.35-.96,4.91-.69,7.52,.04,.45,.12,.89,.19,1.34,.03,.2,.06,.4,.09,.59,.1,.52,.23,1.03,.38,1.55,.04,.14,.08,.27,.12,.42,.14,.46,.32,.93,.5,1.39,.07,.2,.14,.4,.22,.59,.17,.42,.38,.84,.58,1.25,.09,.19,.18,.38,.27,.57,.32,.6,.67,1.19,1.05,1.78,0,0,.01,.01,.02,.02,.78,1.19,1.7,2.36,2.75,3.48,.12,.13,.27,.26,.39,.39,.35,.36,.73,.72,1.12,1.07,.31,.29,.64,.56,.98,.85,.23,.2,.48,.39,.73,.59,.42,.33,.85,.66,1.3,.97,.26,.19,.53,.36,.81,.54,.41,.27,.82,.55,1.26,.82,.56,.33,1.13,.65,1.73,.96,.18,.1,.35,.2,.54,.3,.82,.42,1.69,.82,2.59,1.21,.04,.02,.09,.04,.14,.07,.55,.24,1.11,.41,1.66,.62,.51,.19,1.03,.4,1.54,.57,.63,.22,1.25,.39,1.88,.57,.53,.16,1.08,.33,1.61,.46,.43,.12,.85,.2,1.27,.3,.76,.17,1.51,.34,2.24,.48,.21,.04,.4,.07,.61,.11,.92,.16,1.82,.3,2.68,.4,.07,0,.12,.01,.18,.02,.94,.12,1.84,.2,2.69,.27,.08,0,.14,0,.21,.01,.78,.06,1.51,.09,2.2,.12,.27,0,.51,0,.75,.01,.46,0,.91,.01,1.31,.01,.72,0,1.36-.01,1.87-.04h.02c2.33-.1,4.29-.29,6.03-.53,0,0,.02,0,.04,0,.04,0,.07,0,.1-.01,.09-.01,.18-.03,.27-.04,2.04-.3,3.76-.66,5.32-1.05,.21-.05,.41-.11,.62-.16,.17-.04,.35-.09,.53-.13,.56-.15,2.54-.74,4.57-1.53,.03,0,.06-.02,.09-.04,.09-.04,.19-.07,.28-.1,1.81-.74,1.98-.82,4.74-2.27,.8-.46,1.63-.97,2.48-1.54,.07-.04,.12-.08,.18-.12,.38-.26,.76-.53,1.14-.81,.04-.03,.08-.05,.12-.08,1.26-.95,2.53-2.05,3.76-3.37,.09-.1,.18-.2,.27-.3,.73-.82,1.45-1.71,2.12-2.7,.06-.08,.12-.16,.17-.25,.08-.11,.15-.24,.23-.36,.04-.08,.09-.16,.15-.24,.15-.25,.31-.52,.47-.8,.06-.11,.12-.22,.18-.32,.12-.23,.25-.48,.37-.73,.09-.18,.18-.36,.26-.55,.06-.12,.12-.25,.17-.38,.16-.37,.3-.74,.45-1.13,.05-.14,.09-.28,.14-.43,.45-1.31,.8-2.77,.98-4.39,0-.11,.02-.21,.04-.32,.05-.56,.08-1.13,.09-1.71,0-.11,0-.24,0-.35,0-.35-.02-.73-.05-1.16,0-.04,0-.07,0-.09-.13-1.65-.53-3.87-1.57-6.33-.06-.14-.12-.27-.17-.41-.17,.37-.35,.74-.55,1.13Z"/>
      <path class="cls-17" d="M100.41,161.36c-.04-.09-.06-.18-.1-.27h0c.04,.1,.08,.19,.11,.27Z"/>
      <path class="cls-17" d="M25.97,163.7c.28-.93,.62-1.83,1-2.69-.4,.89-.75,1.78-1,2.69Z"/>
      <path class="cls-17" d="M25.23,170.53c-.02-.26-.03-.52-.04-.78,0,.26,.02,.52,.04,.78Z"/>
      <path class="cls-17" d="M25.52,172.94c-.09-.51-.16-1.01-.22-1.51,.05,.51,.12,1.01,.22,1.51Z"/>
      <path class="cls-17" d="M26.68,176.92c-.51-1.26-.88-2.53-1.13-3.79,.25,1.28,.62,2.54,1.13,3.79Z"/>
      <path class="cls-17" d="M27.01,160.92s-.01,.03-.01,.04c0-.01,0-.03,.01-.04h0Z"/>
      <path class="cls-17" d="M101.27,175.2c.26-.78,.58-2.08,.74-3.77-.14,1.26-.39,2.6-.82,3.99,.03-.07,.06-.15,.08-.22Z"/>
      <path class="cls-17" d="M101.88,166.32c-.07-.53-.25-1.34-.5-2.24,.22,.81,.39,1.57,.5,2.27v-.03Z"/>
      <path class="cls-17" d="M100.97,162.78c.1,.29,.21,.58,.29,.86-.08-.28-.18-.56-.29-.86Z"/>
      <path class="cls-17" d="M96.35,183.76c.04-.05,.08-.09,.12-.14-1.99,2.24-4.64,4.43-8.14,6.44,1.27-.74,5.15-2.99,8.02-6.29Z"/>
      <path class="cls-17" d="M48.02,193.73c.22,.07,.46,.14,.69,.2-.23-.06-.46-.12-.69-.2Z"/>
      <path class="cls-17" d="M59.87,195.83c.2,.01,.4,.02,.6,.03-.21,0-.39-.01-.6-.03Z"/>
      <path class="cls-17" d="M53.96,195.12c.19,.04,.37,.06,.56,.09-.19-.03-.37-.05-.56-.09Z"/>
      <path class="cls-17" d="M38.35,189.62c.56,.33,1.11,.64,1.63,.92-.56-.3-1.1-.61-1.63-.92Z"/>
      <path class="cls-17" d="M71.77,195.4c.19-.03,.38-.06,.56-.09-.19,.03-.36,.06-.56,.09Z"/>
      <path class="cls-17" d="M66.65,195.87c-.29,.02-.54,.04-.84,.05,.28,0,.56-.04,.84-.05Z"/>
      <path class="cls-17" d="M77.75,194.22s.04,0,.07-.01c-.03,0-.04,.01-.07,.01Z"/>
      <path class="cls-17" d="M42.88,191.92c-.82-.35-1.6-.72-2.36-1.11,.84,.42,1.63,.79,2.29,1.08,.02,0,.05,.01,.07,.03Z"/>
      <path class="cls-17" d="M28.43,180.32c-.25-.41-.51-.82-.73-1.24,.15,.27,.28,.55,.44,.82,.09,.15,.2,.27,.29,.43Z"/>
      <path class="cls-17" d="M29.48,181.85c.14,.18,.26,.37,.4,.54-.14-.18-.26-.36-.4-.54Z"/>
      <path class="cls-17" d="M98.89,180.39c.09-.14,.17-.27,.25-.4-.09,.14-.17,.27-.25,.4Z"/>
      <path class="cls-17" d="M99.58,179.23c.05-.09,.09-.19,.14-.27-.05,.09-.09,.18-.14,.27Z"/>
      <path class="cls-17" d="M27.49,178.69c-.29-.58-.56-1.16-.79-1.73,.09,.22,.17,.44,.27,.66h0c.17,.36,.35,.72,.53,1.08Z"/>
      <path class="cls-17" d="M98.22,181.41s.06-.09,.09-.13c-.03,.04-.06,.09-.09,.13Z"/>
      <path class="cls-17" d="M100.17,161.4c-.07,.13-.12,.27-.18,.4-.45,.91-.95,1.76-1.48,2.55-.03,.04-.04,.09-.07,.14-.07,.09-.14,.17-.21,.27-.53,.76-1.05,1.42-1.52,1.97-.09,.09-.16,.19-.25,.3-.02,.01-.04,.04-.05,.06-2.15,2.3-4.06,3.99-8.02,6.29-2.83,1.47-2.94,1.53-4.74,2.26-.09,.04-.17,.07-.25,.09-.06,.02-.1,.04-.15,.06-2.01,.79-3.97,1.36-4.54,1.52-.16,.04-.35,.09-.52,.13-.21,.06-.41,.11-.62,.16-1.38,.35-3.14,.74-5.38,1.07-.07,0-.12,.01-.19,.03-1.76,.25-3.81,.45-6.18,.55h0c-.89,.04-1.74,.04-2.58,.03-.35,0-.69-.01-1.04-.02-.48-.01-.95-.04-1.41-.06-.81-.04-1.61-.11-2.42-.18-.2-.02-.41-.04-.6-.06-.62-.07-1.24-.14-1.84-.23-.6-.08-1.14-.16-1.63-.24-.17-.03-.35-.05-.51-.09-.38-.06-.71-.12-.98-.17-1.6-.28-3.97-.83-6.95-1.88-1.03-.36-2.03-.73-2.98-1.15-1.74-.72-4.18-1.92-6.71-3.7-.08-.06-.17-.11-.25-.17-.3-.21-.59-.45-.9-.69-.41-.32-.83-.64-1.23-.97-.09-.07-.17-.15-.25-.23-.61-.53-1.19-1.08-1.74-1.63-.04-.04-.07-.09-.12-.12-.61-.64-1.19-1.31-1.73-1.99-.04-.04-.07-.09-.11-.14-.58-.74-1.11-1.49-1.57-2.27-.02-.04-.04-.07-.07-.09,0-.01-.02-.04-.03-.06-.08-.12-.15-.26-.22-.39-.2-.35-.42-.76-.64-1.24-.09-.19-.19-.39-.29-.59,0,.01-.01,.03-.01,.04,0,.01-.02,.03-.03,.04-.38,.86-.72,1.76-1,2.69-.58,1.91-.83,3.96-.78,6.05,0,.26,.01,.52,.04,.78,.01,.3,.04,.6,.07,.9,.06,.5,.12,1,.22,1.51,.01,.07,.02,.12,.04,.19,.25,1.26,.62,2.53,1.13,3.79,0,0,0,.02,.02,.04,.23,.58,.51,1.16,.79,1.73,.07,.13,.14,.26,.21,.39,.22,.42,.48,.83,.73,1.24,.32,.51,.68,1.03,1.05,1.53,.14,.18,.25,.36,.4,.54,2.06,2.65,4.86,5.11,8.47,7.23,.53,.31,1.07,.62,1.63,.92,.18,.09,.36,.19,.54,.27,.76,.38,1.55,.75,2.36,1.11,.05,.02,.1,.04,.15,.07,1.68,.71,3.34,1.26,4.98,1.74,.22,.07,.46,.14,.69,.2,1.81,.51,3.58,.91,5.26,1.2,.19,.04,.37,.06,.56,.09,1.94,.31,3.73,.51,5.35,.62,.21,.01,.39,.02,.6,.03,2.24,.13,4.1,.12,5.3,.07h.04c.3-.01,.55-.03,.84-.05,1.93-.1,3.63-.27,5.12-.47,.19-.03,.37-.06,.56-.09,2.08-.31,3.83-.69,5.43-1.1,.02,0,.04,0,.07-.01,.28-.07,.56-.14,.84-.22,.61-.15,2.8-.79,4.94-1.67,1.8-.73,1.91-.79,4.74-2.26,3.5-2.01,6.15-4.2,8.14-6.44,.66-.74,1.22-1.47,1.74-2.21,.03-.04,.06-.09,.09-.13,.2-.3,.4-.59,.59-.89,.09-.14,.17-.27,.25-.4,.14-.25,.3-.51,.43-.76,.05-.09,.09-.19,.14-.27,.2-.38,.38-.76,.55-1.13h0c.36-.82,.67-1.62,.92-2.41,.43-1.39,.68-2.73,.82-3.99,.07-.68,.11-1.33,.12-1.95,.01-.78-.04-1.85-.24-3.13-.11-.69-.27-1.46-.5-2.27-.04-.14-.07-.29-.12-.44-.08-.28-.19-.57-.29-.86-.16-.46-.35-.93-.56-1.42-.03-.09-.07-.17-.11-.27-.04,.1-.09,.2-.14,.3Z"/>
      <path class="cls-17" d="M95.68,137.58c.38,.38,.72,.78,1.06,1.18-.38-.45-.74-.84-1.06-1.18Z"/>
      <path class="cls-17" d="M100.98,145.95c.32,.87,.54,1.69,.72,2.47-.2-.91-.45-1.73-.72-2.47Z"/>
      <path class="cls-17" d="M98.85,141.61c.3,.47,.59,.94,.85,1.42-.27-.5-.56-.97-.85-1.42Z"/>
      <path class="cls-17" d="M101.79,148.87c.11,.55,.18,1.06,.24,1.56-.07-.54-.14-1.06-.24-1.56Z"/>
      <path class="cls-17" d="M27,160.91c-.08-.18-.14-.37-.22-.55,.07,.18,.14,.38,.22,.55Z"/>
      <path class="cls-17" d="M102.12,151.39c0-.05,0-.1,0-.15,.02,.31,.03,.59,.03,.87,0-.25,0-.48-.02-.72Z"/>
      <path class="cls-17" d="M25.91,147.41c-.06,.22-.08,.43-.13,.66,.09-.37,.17-.74,.27-1.11-.04,.15-.1,.3-.14,.45Z"/>
      <path class="cls-17" d="M25.34,150.63c.04-.4,.11-.81,.17-1.21-.07,.41-.14,.82-.17,1.21Z"/>
      <path class="cls-17" d="M95.47,137.38c-.12-.12-.24-.25-.35-.35v.03c.11,.11,.23,.21,.35,.32Z"/>
      <path class="cls-17" d="M25.23,152.9c0-.32,.02-.64,.04-.96,0,.32-.04,.65-.04,.96Z"/>
      <path class="cls-17" d="M26.38,145.96c.12-.34,.24-.67,.37-1-.13,.33-.25,.66-.37,1Z"/>
      <path class="cls-17" d="M28.22,142.04c.31-.51,.64-1.03,1-1.53-.35,.5-.69,1.01-1,1.53Z"/>
      <path class="cls-17" d="M29.5,140.13c.36-.49,.77-.97,1.17-1.46-.41,.48-.8,.97-1.17,1.46Z"/>
      <path class="cls-17" d="M27.24,143.89c.18-.38,.37-.76,.59-1.13-.21,.37-.4,.75-.59,1.13Z"/>
      <path class="cls-17" d="M99.69,143.04c.53,1,.94,1.96,1.28,2.89-.47-1.32-.97-2.33-1.28-2.89Z"/>
      <path class="cls-17" d="M31.31,137.93c.09-.1,.19-.2,.28-.3-.09,.1-.19,.2-.28,.3Z"/>
      <path class="cls-17" d="M102.16,152.85c-.04,2.1-.35,4.07-.95,5.96,.43-1.34,.92-3.4,.95-5.96Z"/>
      <path class="cls-17" d="M100.17,161.4c.05-.1,.09-.2,.14-.3h0c.16-.36,.34-.7,.47-1.06,.1-.27,.25-.66,.4-1.13-.28,.85-.61,1.68-1.01,2.5Z"/>
      <path class="cls-17" d="M60.78,179.18c.46,.02,.92,.04,1.41,.06-.47-.01-.95-.04-1.41-.06Z"/>
      <path class="cls-17" d="M57.76,178.94c.19,.01,.4,.04,.6,.06-.2-.02-.4-.04-.6-.06Z"/>
      <path class="cls-17" d="M65.8,179.23c-.86,.03-1.71,.04-2.58,.03,.84,0,1.69,0,2.58-.03Z"/>
      <path class="cls-17" d="M71.99,178.68c.07-.01,.12-.02,.19-.03-.07,0-.12,.01-.19,.03Z"/>
      <path class="cls-17" d="M54.29,178.47c.48,.08,1.03,.16,1.63,.24-.55-.07-1.08-.15-1.63-.24Z"/>
      <path class="cls-17" d="M53.78,178.38c-2.76-.48-5.43-1.18-7.93-2.04,2.98,1.05,5.35,1.6,6.95,1.88,.27,.05,.61,.11,.98,.17Z"/>
      <path class="cls-17" d="M77.56,177.58c.21-.05,.41-.1,.62-.16-.2,.05-.4,.1-.62,.16Z"/>
      <path class="cls-17" d="M42.86,175.19c-2.49-1.06-4.72-2.31-6.71-3.7,2.53,1.78,4.97,2.98,6.71,3.7Z"/>
      <path class="cls-17" d="M83.24,175.77c.05-.02,.09-.04,.15-.06-.06,.02-.1,.04-.15,.06Z"/>
      <path class="cls-17" d="M98.51,164.35c.53-.79,1.03-1.64,1.48-2.55-.43,.85-.92,1.71-1.48,2.55Z"/>
      <path class="cls-17" d="M29.84,165.56c.04,.05,.07,.09,.11,.14-.04-.04-.07-.09-.11-.14Z"/>
      <path class="cls-17" d="M31.79,167.81s-.07-.09-.12-.12c.04,.04,.08,.08,.12,.12Z"/>
      <path class="cls-17" d="M96.7,166.72c.48-.54,1-1.21,1.52-1.97-.46,.67-.97,1.32-1.52,1.97Z"/>
      <path class="cls-17" d="M28.26,163.29c-.03-.05-.07-.1-.09-.15,0,.01,.02,.04,.03,.06,.02,.03,.04,.06,.07,.09Z"/>
      <path class="cls-17" d="M27.3,161.51c.22,.48,.44,.89,.64,1.24-.23-.4-.45-.82-.64-1.24Z"/>
      <path class="cls-17" d="M35.01,170.64c.3,.23,.59,.48,.9,.69-.31-.22-.59-.45-.9-.69Z"/>
      <path class="cls-17" d="M96.4,167.07s.03-.04,.05-.06c-2.09,2.33-4.8,4.46-8.07,6.35,3.96-2.3,5.87-3.99,8.02-6.29Z"/>
      <path class="cls-17" d="M33.53,169.44c.09,.08,.17,.16,.25,.23-.09-.07-.17-.15-.25-.23Z"/>
      <path class="cls-17" d="M94.93,140.46h0c-.07,.5-.07,1-.05,1.51,.01,.58,.04,1.16,.04,1.73,0,.14,0,.27,0,.4,0,.12,0,.24-.01,.35,0,.1,0,.2-.02,.31,0,.09-.01,.17-.01,.26,0,.07-.01,.14-.03,.21,0,.06,0,.12,0,.17,0,.04-.01,.09-.02,.12v.07h0s0,0,0-.01c-.17,2.11-.97,4.2-2.41,6.18-1.57,2.15-3.91,4.16-6.99,5.89-.77,.43-1.57,.84-2.39,1.21-2.48,1.13-5.17,2.02-8,2.64-3.76,.84-7.76,1.24-11.74,1.2-3.99-.04-7.96-.52-11.68-1.44-3.73-.92-7.21-2.27-10.2-4.06h0c-3-1.79-5.23-3.85-6.69-6.03-1.25-1.86-1.94-3.81-2.09-5.77v.03h0s0-.07,0-.09c0-.03,0-.08,0-.12,0-.05-.01-.11-.02-.17,0-.07,0-.14-.01-.22l-.02-.26c0-.1,0-.2-.02-.3,0-.12,0-.24,0-.35,0-.13,0-.27,0-.4,0-.58,.03-1.16,.05-1.74,0-.51,.01-1-.05-1.5h0c0-1.19-.09-2.3-.18-3.42-.25,.25-.5,.5-.74,.76-.09,.1-.19,.2-.28,.3-.09,.1-.2,.2-.3,.31-.12,.14-.22,.29-.35,.43-.4,.48-.81,.97-1.17,1.46-.09,.12-.18,.25-.27,.38-.36,.51-.69,1.02-1,1.53-.14,.24-.27,.48-.4,.72-.22,.38-.4,.75-.59,1.13-.17,.35-.33,.71-.48,1.07-.13,.33-.25,.66-.37,1-.07,.21-.17,.41-.23,.62-.04,.13-.06,.25-.1,.38-.1,.37-.19,.74-.27,1.11-.1,.45-.2,.9-.26,1.34-.07,.4-.14,.81-.17,1.21-.05,.43-.07,.87-.08,1.31-.01,.32-.04,.64-.04,.96,.03,2.57,.57,5.08,1.56,7.46,.07,.18,.14,.37,.22,.55,0,0,0,0,0,.01h0c.09,.2,.2,.4,.29,.59,.2,.42,.41,.83,.64,1.24,.07,.13,.14,.27,.22,.39,.03,.05,.07,.1,.09,.15,.47,.78,1,1.53,1.57,2.27,.04,.05,.07,.09,.11,.14,.53,.68,1.11,1.34,1.73,1.99,.04,.04,.08,.08,.12,.12,.55,.56,1.13,1.11,1.74,1.63,.09,.08,.17,.16,.25,.23,.4,.33,.82,.65,1.23,.97,.3,.23,.59,.46,.9,.69,.08,.06,.17,.11,.25,.17,1.99,1.39,4.23,2.64,6.71,3.7,.95,.42,1.96,.79,2.98,1.15,2.51,.87,5.17,1.56,7.93,2.04,.17,.04,.34,.06,.51,.09,.54,.09,1.08,.17,1.63,.24,.61,.09,1.22,.16,1.84,.23,.2,.02,.4,.04,.6,.06,.81,.07,1.61,.14,2.42,.18,.46,.02,.94,.04,1.41,.06,.35,0,.69,.02,1.04,.02,.87,0,1.72,0,2.58-.03h0c2.38-.1,4.42-.3,6.18-.55,.07-.01,.12-.02,.19-.03,2.25-.33,4-.72,5.38-1.07,.22-.06,.42-.11,.62-.16,.17-.04,.36-.09,.52-.13,.56-.15,2.53-.73,4.54-1.52,.05-.02,.09-.04,.15-.06,.09-.03,.17-.06,.25-.09,1.8-.73,1.91-.79,4.74-2.26,3.27-1.89,5.97-4.02,8.07-6.35,.09-.1,.16-.2,.25-.3,.56-.64,1.06-1.3,1.52-1.97,.07-.09,.14-.18,.21-.27,.03-.04,.04-.09,.07-.14,.56-.85,1.05-1.7,1.48-2.55,.07-.13,.12-.27,.18-.4,.4-.82,.74-1.65,1.01-2.5,0-.03,.02-.06,.04-.09,.6-1.89,.9-3.86,.95-5.96,0-.03,0-.05,0-.08,0-.2-.02-.45-.03-.66,0-.28,0-.56-.03-.87-.02-.26-.05-.53-.09-.81-.06-.5-.13-1.01-.24-1.56-.04-.14-.06-.29-.09-.44-.17-.78-.4-1.6-.72-2.47,0-.01,0-.02,0-.03-.34-.92-.75-1.89-1.28-2.89-.25-.48-.55-.95-.85-1.42-.62-.98-1.32-1.94-2.11-2.85-.34-.4-.69-.8-1.06-1.18-.07-.07-.14-.14-.2-.2-.12-.12-.24-.22-.35-.32-.08,1.13-.2,2.26-.2,3.41Z"/>
      <path class="cls-4" d="M99.72,178.93c-.05,.09-.09,.19-.14,.28-.14,.25-.29,.51-.43,.76-.09,.13-.17,.27-.25,.4-.18,.3-.38,.59-.59,.89-.03,.04-.06,.09-.09,.13-.52,.74-1.08,1.47-1.74,2.21-.04,.05-.08,.09-.12,.14-2.87,3.29-6.75,5.56-8.02,6.29-2.83,1.47-2.94,1.53-4.74,2.26-2.14,.87-4.33,1.52-4.94,1.67-.27,.07-.56,.14-.84,.22-.03,0-.04,0-.07,.01-1.6,.4-3.35,.79-5.43,1.1-.18,.03-.37,.06-.56,.09-1.5,.2-3.19,.37-5.12,.47-.28,.01-.56,.04-.84,.05h-.04c-1.2,.05-3.06,.06-5.3-.07-.2,0-.4-.01-.6-.03-1.61-.11-3.41-.31-5.35-.62-.19-.03-.37-.05-.56-.09-1.68-.29-3.45-.69-5.26-1.2-.23-.06-.46-.12-.69-.2-1.65-.48-3.31-1.03-4.98-1.74-.05-.02-.1-.04-.15-.07-.02-.01-.05-.02-.07-.03-.66-.28-1.45-.66-2.29-1.08-.18-.09-.36-.18-.54-.27-.53-.27-1.07-.59-1.63-.92-3.6-2.12-6.41-4.58-8.47-7.23-.14-.17-.26-.36-.4-.54-.37-.51-.73-1.02-1.05-1.53-.09-.15-.2-.27-.29-.43-.16-.27-.29-.54-.44-.82-.07-.13-.14-.26-.21-.39-.18-.35-.36-.72-.53-1.08,0,.02-.02,.04-.03,.05,0,.02,0,.04-.02,.05-.38,.86-.71,1.75-1,2.68-.71,2.36-.96,4.92-.69,7.53,.04,.44,.12,.89,.19,1.34,.03,.2,.06,.4,.09,.59,.1,.52,.23,1.03,.38,1.55,.04,.14,.08,.27,.12,.42,.14,.46,.32,.93,.5,1.39,.07,.2,.14,.4,.22,.59,.17,.42,.38,.84,.58,1.25,.09,.19,.18,.38,.27,.57,.32,.6,.67,1.19,1.05,1.78,0,0,.01,.01,.02,.02,.78,1.19,1.7,2.35,2.75,3.47,.12,.14,.27,.27,.39,.4,.35,.36,.73,.72,1.12,1.07,.31,.29,.64,.56,.98,.84,.23,.2,.48,.39,.73,.59,.42,.33,.85,.65,1.3,.97,.26,.19,.53,.36,.81,.54,.41,.27,.82,.55,1.26,.82,.56,.32,1.13,.65,1.73,.96,.18,.1,.35,.2,.54,.3,.82,.42,1.69,.82,2.59,1.21,.04,.02,.09,.04,.14,.07,.55,.23,1.11,.41,1.66,.62,.51,.19,1.03,.4,1.54,.57,.63,.22,1.25,.39,1.88,.57,.53,.16,1.08,.32,1.61,.46,.43,.12,.85,.2,1.27,.3,.76,.17,1.51,.34,2.24,.48,.21,.04,.4,.07,.61,.11,.92,.16,1.82,.3,2.68,.4,.07,0,.12,.01,.18,.02,.94,.12,1.84,.2,2.69,.27,.08,0,.14,0,.21,.01,.78,.06,1.51,.09,2.2,.12,.27,0,.51,0,.75,.01,.46,0,.91,.01,1.31,.01,.72,0,1.36-.01,1.87-.04h.02c2.33-.1,4.29-.29,6.03-.53,0,0,.02,0,.04,0,.04,0,.07,0,.1-.01,.09-.01,.18-.03,.27-.04,2.04-.3,3.76-.67,5.32-1.05,.21-.05,.41-.11,.62-.16,.17-.04,.35-.09,.53-.13,.56-.15,2.54-.74,4.57-1.53,.03,0,.06-.02,.09-.04,.09-.04,.19-.07,.28-.1,1.81-.74,1.98-.82,4.74-2.27,.8-.46,1.63-.97,2.48-1.54,.07-.04,.12-.08,.18-.12,.38-.26,.76-.53,1.14-.81,.04-.03,.08-.05,.12-.08,1.26-.95,2.53-2.05,3.76-3.37,.09-.1,.18-.2,.27-.3,.73-.82,1.45-1.71,2.12-2.7,.06-.09,.12-.16,.17-.25,.08-.11,.15-.25,.23-.36,.04-.08,.09-.16,.15-.24,.15-.25,.31-.52,.47-.8,.06-.11,.12-.22,.18-.33,.12-.24,.25-.48,.37-.73,.09-.18,.18-.36,.26-.55,.06-.13,.12-.25,.17-.38,.16-.37,.3-.74,.45-1.13,.05-.14,.09-.28,.14-.43,.45-1.32,.8-2.77,.98-4.39,0-.11,.02-.22,.04-.32,.05-.56,.08-1.13,.09-1.71,0-.11,0-.24,0-.35,0-.35-.02-.73-.05-1.16,0-.04,0-.07,0-.09-.13-1.65-.53-3.87-1.57-6.33-.06-.14-.12-.27-.17-.41-.17,.37-.35,.74-.55,1.12Z"/>
      <path class="cls-5" d="M100.17,161.38c-.07,.13-.12,.27-.18,.4-.45,.91-.95,1.76-1.48,2.55-.03,.04-.04,.09-.07,.14-.07,.09-.14,.17-.21,.27-.53,.76-1.05,1.42-1.52,1.96-.09,.09-.16,.2-.25,.3-.02,.01-.04,.04-.05,.05-2.15,2.3-4.06,3.99-8.02,6.3-2.83,1.47-2.94,1.53-4.74,2.26-.09,.04-.17,.06-.25,.09-.06,.02-.1,.04-.15,.06-2.01,.79-3.97,1.37-4.54,1.52-.16,.04-.35,.09-.52,.13-.21,.06-.41,.11-.62,.16-1.38,.35-3.14,.74-5.38,1.07-.07,0-.12,.01-.19,.03-1.76,.25-3.81,.45-6.18,.55h0c-.89,.04-1.74,.04-2.58,.03-.35,0-.69-.01-1.04-.02-.48-.01-.95-.04-1.41-.06-.81-.04-1.61-.11-2.42-.18-.2-.02-.41-.04-.6-.06-.62-.07-1.24-.14-1.84-.23-.6-.08-1.14-.16-1.63-.24-.17-.03-.35-.05-.51-.09-.38-.06-.71-.12-.98-.17-1.6-.28-3.97-.83-6.95-1.89-1.03-.35-2.03-.72-2.98-1.14-1.74-.72-4.18-1.92-6.71-3.7-.08-.06-.17-.11-.25-.17-.3-.22-.59-.46-.9-.69-.41-.32-.83-.64-1.23-.97-.09-.07-.17-.16-.25-.23-.61-.53-1.19-1.08-1.74-1.63-.04-.04-.07-.09-.12-.12-.61-.64-1.19-1.31-1.73-1.99-.04-.04-.07-.09-.11-.14-.58-.74-1.11-1.49-1.57-2.27-.02-.04-.04-.07-.07-.09,0-.01-.02-.04-.03-.06-.08-.12-.15-.26-.22-.39-.2-.35-.42-.76-.64-1.24-.09-.2-.19-.39-.29-.59,0,.01-.01,.03-.01,.04,0,.01-.02,.03-.03,.04-.38,.86-.72,1.76-1,2.69-.58,1.91-.83,3.96-.78,6.05,0,.26,.01,.52,.04,.78,.01,.3,.04,.6,.07,.9,.06,.51,.12,1.01,.22,1.52,.01,.07,.02,.12,.04,.19,.25,1.26,.62,2.53,1.13,3.78,0,.01,0,.03,.02,.04,.23,.58,.51,1.16,.79,1.73,.07,.13,.14,.26,.21,.39,.22,.42,.48,.83,.73,1.24,.32,.51,.68,1.03,1.05,1.53,.14,.18,.25,.36,.4,.54,2.06,2.65,4.86,5.11,8.47,7.23,.53,.31,1.07,.62,1.63,.92,.18,.09,.36,.19,.54,.27,.76,.38,1.55,.75,2.36,1.11,.05,.02,.1,.04,.15,.07,1.68,.71,3.34,1.26,4.98,1.74,.22,.07,.46,.14,.69,.2,1.81,.51,3.58,.91,5.26,1.2,.19,.04,.37,.06,.56,.09,1.94,.31,3.73,.51,5.35,.62,.21,.01,.39,.02,.6,.03,2.24,.13,4.1,.12,5.3,.07h.04c.3-.01,.55-.04,.84-.05,1.93-.1,3.63-.27,5.12-.47,.19-.03,.37-.06,.56-.09,2.08-.31,3.83-.69,5.43-1.1,.02,0,.04,0,.07-.01,.28-.07,.56-.14,.84-.22,.61-.15,2.8-.79,4.94-1.67,1.8-.73,1.91-.79,4.74-2.26,3.5-2.01,6.15-4.2,8.14-6.44,.66-.74,1.22-1.47,1.74-2.21,.03-.04,.06-.09,.09-.13,.2-.3,.4-.59,.59-.89,.09-.14,.17-.27,.25-.4,.14-.25,.3-.51,.43-.76,.05-.09,.09-.19,.14-.28,.2-.38,.38-.75,.55-1.12h0c.36-.82,.67-1.62,.92-2.41,.43-1.39,.68-2.73,.82-4,.07-.68,.11-1.33,.12-1.96,.01-.77-.04-1.84-.24-3.12-.11-.69-.27-1.46-.5-2.27-.04-.14-.07-.29-.12-.44-.08-.28-.19-.57-.29-.86-.16-.46-.35-.93-.56-1.42-.03-.09-.07-.17-.11-.27-.04,.1-.09,.2-.14,.3Z"/>
      <path class="cls-6" d="M94.93,140.45h0c-.07,.5-.07,1-.05,1.51,.01,.58,.04,1.16,.04,1.73,0,.14,0,.27,0,.4,0,.12,0,.23-.01,.35,0,.1,0,.2-.02,.3,0,.09-.01,.18-.01,.27,0,.07-.01,.14-.03,.21,0,.06,0,.12,0,.17,0,.04-.01,.09-.02,.12v.06h0s0,0,0-.01c-.17,2.11-.97,4.2-2.41,6.18-1.57,2.16-3.91,4.17-6.99,5.89-.77,.43-1.57,.84-2.39,1.21-2.48,1.13-5.17,2.02-8,2.64-3.76,.85-7.76,1.24-11.74,1.2-3.99-.04-7.96-.52-11.68-1.44-3.73-.92-7.21-2.27-10.2-4.06h0c-3-1.79-5.23-3.85-6.69-6.03-1.25-1.86-1.94-3.81-2.09-5.77v.03h0s0-.07,0-.09c0-.03,0-.08,0-.12,0-.06-.01-.11-.02-.17,0-.07,0-.14-.01-.22,0-.09-.01-.17-.02-.26,0-.1,0-.2-.02-.31,0-.12,0-.23,0-.35,0-.13,0-.27,0-.4,0-.58,.03-1.16,.05-1.74,0-.51,.01-1-.05-1.5h0c0-1.19-.09-2.31-.18-3.42-.25,.25-.5,.5-.74,.76-.09,.1-.19,.2-.28,.3s-.2,.2-.3,.31c-.12,.14-.22,.29-.35,.43-.4,.48-.81,.97-1.17,1.46-.09,.12-.18,.25-.27,.38-.36,.51-.69,1.02-1,1.53-.14,.24-.27,.48-.4,.72-.22,.38-.4,.75-.59,1.13-.17,.35-.33,.71-.48,1.07-.13,.33-.25,.67-.37,1-.07,.21-.17,.41-.23,.62-.04,.13-.06,.25-.1,.38-.1,.37-.19,.74-.27,1.11-.1,.45-.2,.9-.26,1.34-.07,.4-.14,.81-.17,1.21-.05,.43-.07,.87-.08,1.31-.01,.32-.04,.64-.04,.96,.03,2.57,.57,5.08,1.56,7.46,.07,.18,.14,.37,.22,.55,0,0,0,0,0,.01h0c.09,.2,.2,.4,.29,.59,.2,.42,.41,.83,.64,1.24,.07,.13,.14,.27,.22,.39,.03,.05,.07,.1,.09,.15,.47,.78,1,1.53,1.57,2.27,.04,.04,.07,.09,.11,.14,.53,.68,1.11,1.34,1.73,1.99,.04,.04,.08,.08,.12,.12,.55,.56,1.13,1.11,1.74,1.63,.09,.08,.17,.16,.25,.23,.4,.33,.82,.65,1.23,.97,.3,.23,.59,.46,.9,.69,.08,.06,.17,.11,.25,.17,1.99,1.39,4.23,2.64,6.71,3.7,.95,.42,1.96,.79,2.98,1.14,2.51,.87,5.17,1.57,7.93,2.05,.17,.04,.34,.06,.51,.09,.54,.09,1.08,.17,1.63,.24,.61,.09,1.22,.16,1.84,.23,.2,.01,.4,.04,.6,.06,.81,.07,1.61,.14,2.42,.18,.46,.02,.94,.04,1.41,.06,.35,0,.69,.02,1.04,.02,.87,0,1.72,0,2.58-.03h0c2.38-.1,4.42-.3,6.18-.55,.07-.01,.12-.02,.19-.03,2.25-.32,4-.72,5.38-1.07,.22-.06,.42-.11,.62-.16,.17-.04,.36-.09,.52-.13,.56-.15,2.53-.73,4.54-1.52,.05-.02,.09-.04,.15-.06,.09-.04,.17-.06,.25-.09,1.8-.73,1.91-.79,4.74-2.26,3.27-1.89,5.97-4.02,8.07-6.35,.09-.1,.16-.2,.25-.3,.56-.64,1.06-1.3,1.52-1.96,.07-.09,.14-.18,.21-.27,.03-.05,.04-.09,.07-.14,.56-.85,1.05-1.7,1.48-2.55,.07-.13,.12-.27,.18-.4,.4-.82,.74-1.65,1.01-2.5,0-.03,.02-.06,.04-.09,.6-1.89,.9-3.86,.95-5.96,0-.03,0-.05,0-.08,0-.2-.02-.46-.03-.67,0-.28,0-.56-.03-.87-.02-.26-.05-.53-.09-.81-.06-.5-.13-1.01-.24-1.56-.04-.14-.06-.29-.09-.44-.17-.78-.4-1.6-.72-2.47,0-.01,0-.02,0-.03-.34-.92-.75-1.89-1.28-2.89-.25-.48-.55-.95-.85-1.42-.62-.98-1.32-1.94-2.11-2.85-.34-.4-.69-.8-1.06-1.19-.07-.06-.14-.14-.2-.2-.12-.12-.24-.22-.35-.32-.08,1.13-.2,2.26-.2,3.41Z"/>
      <path class="cls-18" d="M99.72,178.86c-.05,.09-.09,.18-.14,.27-.14,.25-.29,.51-.43,.77-.09,.13-.17,.27-.25,.4-.18,.3-.38,.59-.59,.89-.03,.04-.06,.09-.09,.13-.52,.74-1.08,1.47-1.74,2.21-.04,.05-.08,.09-.12,.14-2.87,3.29-6.75,5.55-8.02,6.29-2.83,1.47-2.94,1.53-4.74,2.26-2.14,.87-4.33,1.51-4.94,1.67-.27,.07-.56,.14-.84,.22-.03,0-.04,0-.07,.01-1.6,.4-3.35,.79-5.43,1.1-.18,.03-.37,.06-.56,.08-1.5,.21-3.19,.38-5.12,.48-.28,.01-.56,.04-.84,.05h-.04c-1.2,.05-3.06,.07-5.3-.07-.2,0-.4-.01-.6-.03-1.61-.11-3.41-.31-5.35-.62-.19-.03-.37-.06-.56-.09-1.68-.29-3.45-.69-5.26-1.2-.23-.07-.46-.13-.69-.2-1.65-.48-3.31-1.03-4.98-1.74-.05-.02-.1-.04-.15-.07-.02,0-.05-.01-.07-.02-.66-.28-1.45-.66-2.29-1.08-.18-.09-.36-.18-.54-.27-.53-.28-1.07-.59-1.63-.92-3.6-2.12-6.41-4.59-8.47-7.23-.14-.17-.26-.37-.4-.54-.37-.51-.73-1.02-1.05-1.54-.09-.14-.2-.27-.29-.42-.16-.27-.29-.55-.44-.82-.07-.13-.14-.26-.21-.39-.18-.36-.36-.72-.53-1.08,0,.02-.02,.04-.03,.05,0,.01,0,.03-.02,.05-.38,.85-.71,1.75-1,2.68-.71,2.36-.96,4.92-.69,7.53,.04,.44,.12,.89,.19,1.33,.03,.2,.06,.4,.09,.6,.1,.51,.23,1.03,.38,1.55,.04,.14,.08,.27,.12,.41,.14,.47,.32,.94,.5,1.4,.07,.2,.14,.4,.22,.59,.17,.42,.38,.83,.58,1.25,.09,.19,.18,.38,.27,.57,.32,.6,.67,1.19,1.05,1.78,0,0,.01,.01,.02,.02,.78,1.19,1.7,2.35,2.75,3.47,.12,.14,.27,.27,.39,.4,.35,.36,.73,.72,1.12,1.07,.31,.28,.64,.56,.98,.85,.23,.19,.48,.39,.73,.59,.42,.33,.85,.65,1.3,.97,.26,.18,.53,.36,.81,.54,.41,.27,.82,.55,1.26,.81,.56,.33,1.13,.65,1.73,.97,.18,.09,.35,.2,.54,.3,.82,.42,1.69,.82,2.59,1.21,.04,.02,.09,.04,.14,.07,.55,.23,1.11,.41,1.66,.61,.51,.2,1.03,.4,1.54,.58,.63,.21,1.25,.39,1.88,.57,.53,.16,1.08,.32,1.61,.46,.43,.11,.85,.2,1.27,.3,.76,.17,1.51,.34,2.24,.48,.21,.04,.4,.07,.61,.1,.92,.17,1.82,.3,2.68,.41,.07,0,.12,.01,.18,.02,.94,.12,1.84,.2,2.69,.27,.08,0,.14,0,.21,.01,.78,.05,1.51,.09,2.2,.12,.27,0,.51,0,.75,.01,.46,0,.91,.01,1.31,.01,.72,0,1.36-.01,1.87-.04h.02c2.33-.1,4.29-.29,6.03-.53,0,0,.02,0,.04,0,.04,0,.07-.01,.1-.01,.09-.01,.18-.03,.27-.04,2.04-.3,3.76-.67,5.32-1.05,.21-.05,.41-.11,.62-.16,.17-.04,.35-.09,.53-.14,.56-.14,2.54-.73,4.57-1.52,.03-.01,.06-.02,.09-.04,.09-.04,.19-.07,.28-.11,1.81-.73,1.98-.82,4.74-2.26,.8-.47,1.63-.97,2.48-1.54,.07-.04,.12-.09,.18-.12,.38-.26,.76-.53,1.14-.81,.04-.03,.08-.06,.12-.09,1.26-.94,2.53-2.04,3.76-3.36,.09-.1,.18-.2,.27-.31,.73-.81,1.45-1.7,2.12-2.69,.06-.09,.12-.16,.17-.25,.08-.11,.15-.25,.23-.36,.04-.08,.09-.16,.15-.24,.15-.25,.31-.52,.47-.8,.06-.11,.12-.22,.18-.32,.12-.24,.25-.48,.37-.74,.09-.17,.18-.35,.26-.54,.06-.13,.12-.25,.17-.38,.16-.36,.3-.74,.45-1.13,.05-.14,.09-.29,.14-.43,.45-1.31,.8-2.78,.98-4.4,0-.1,.02-.21,.04-.32,.05-.55,.08-1.12,.09-1.71,0-.11,0-.24,0-.36,0-.34-.02-.72-.05-1.15,0-.04,0-.07,0-.09-.13-1.65-.53-3.87-1.57-6.33-.06-.14-.12-.27-.17-.42-.17,.38-.35,.75-.55,1.13Z"/>
      <path class="cls-21" d="M100.17,161.31c-.07,.13-.12,.26-.18,.39-.45,.91-.95,1.77-1.48,2.56-.03,.04-.04,.09-.07,.13-.07,.09-.14,.18-.21,.27-.53,.77-1.05,1.43-1.52,1.97-.09,.1-.16,.2-.25,.3-.02,.02-.04,.04-.05,.06-2.15,2.3-4.06,3.99-8.02,6.29-2.83,1.47-2.94,1.53-4.74,2.27-.09,.03-.17,.06-.25,.09-.06,.02-.1,.04-.15,.06-2.01,.79-3.97,1.36-4.54,1.51-.16,.04-.35,.09-.52,.14-.21,.05-.41,.1-.62,.16-1.38,.34-3.14,.74-5.38,1.07-.07,0-.12,.01-.19,.02-1.76,.25-3.81,.45-6.18,.55h0c-.89,.04-1.74,.04-2.58,.04-.35,0-.69-.01-1.04-.02-.48-.01-.95-.04-1.41-.07-.81-.04-1.61-.1-2.42-.18-.2-.02-.41-.04-.6-.06-.62-.07-1.24-.14-1.84-.22-.6-.08-1.14-.16-1.63-.24-.17-.03-.35-.06-.51-.09-.38-.07-.71-.12-.98-.17-1.6-.28-3.97-.83-6.95-1.88-1.03-.35-2.03-.73-2.98-1.14-1.74-.72-4.18-1.92-6.71-3.7-.08-.06-.17-.11-.25-.17-.3-.22-.59-.45-.9-.69-.41-.32-.83-.64-1.23-.97-.09-.08-.17-.16-.25-.23-.61-.53-1.19-1.08-1.74-1.64-.04-.04-.07-.08-.12-.12-.61-.64-1.19-1.3-1.73-1.98-.04-.05-.07-.09-.11-.14-.58-.74-1.11-1.5-1.57-2.27-.02-.04-.04-.07-.07-.1,0-.01-.02-.04-.03-.05-.08-.13-.15-.26-.22-.39-.2-.35-.42-.77-.64-1.24-.09-.19-.19-.39-.29-.59,0,.01-.01,.03-.01,.04,0,.02-.02,.04-.03,.05-.38,.86-.72,1.75-1,2.69-.58,1.91-.83,3.96-.78,6.05,0,.26,.01,.52,.04,.78,.01,.3,.04,.6,.07,.9,.06,.51,.12,1.01,.22,1.52,.01,.06,.02,.12,.04,.18,.25,1.26,.62,2.53,1.13,3.79,0,.01,0,.03,.02,.04,.23,.59,.51,1.16,.79,1.74,.07,.13,.14,.26,.21,.39,.22,.41,.48,.83,.73,1.24,.32,.52,.68,1.03,1.05,1.54,.14,.18,.25,.36,.4,.54,2.06,2.64,4.86,5.11,8.47,7.23,.53,.31,1.07,.62,1.63,.92,.18,.09,.36,.18,.54,.27,.76,.38,1.55,.75,2.36,1.1,.05,.03,.1,.05,.15,.07,1.68,.71,3.34,1.26,4.98,1.74,.22,.07,.46,.13,.69,.2,1.81,.51,3.58,.91,5.26,1.2,.19,.04,.37,.06,.56,.09,1.94,.31,3.73,.51,5.35,.62,.21,.01,.39,.02,.6,.03,2.24,.13,4.1,.12,5.3,.07h.04c.3-.01,.55-.04,.84-.05,1.93-.1,3.63-.27,5.12-.48,.19-.02,.37-.05,.56-.08,2.08-.31,3.83-.7,5.43-1.1,.02,0,.04-.01,.07-.01,.28-.07,.56-.14,.84-.22,.61-.16,2.8-.79,4.94-1.67,1.8-.73,1.91-.79,4.74-2.26,3.5-2.02,6.15-4.2,8.14-6.44,.66-.74,1.22-1.47,1.74-2.21,.03-.04,.06-.09,.09-.13,.2-.3,.4-.59,.59-.89,.09-.14,.17-.27,.25-.4,.14-.25,.3-.51,.43-.77,.05-.09,.09-.18,.14-.27,.2-.38,.38-.75,.55-1.13h0c.36-.81,.67-1.61,.92-2.4,.43-1.39,.68-2.74,.82-4,.07-.67,.11-1.33,.12-1.95,.01-.77-.04-1.85-.24-3.12-.11-.7-.27-1.47-.5-2.27-.04-.15-.07-.3-.12-.45-.08-.28-.19-.57-.29-.86-.16-.46-.35-.93-.56-1.41-.03-.09-.07-.18-.11-.27-.04,.1-.09,.2-.14,.3Z"/>
      <path class="cls-19" d="M94.93,140.38h0c-.07,.5-.07,1-.05,1.5,.01,.59,.04,1.16,.04,1.74,0,.13,0,.27,0,.4,0,.12,0,.23-.01,.35,0,.11,0,.21-.02,.31,0,.09-.01,.17-.01,.26,0,.07-.01,.14-.03,.22,0,.06,0,.12,0,.17,0,.04-.01,.08-.02,.12v.07h0s0,0,0-.02c-.17,2.12-.97,4.21-2.41,6.18-1.57,2.16-3.91,4.17-6.99,5.89-.77,.43-1.57,.84-2.39,1.21-2.48,1.13-5.17,2.01-8,2.64-3.76,.84-7.76,1.24-11.74,1.2-3.99-.04-7.96-.52-11.68-1.44-3.73-.92-7.21-2.28-10.2-4.06h0c-3-1.8-5.23-3.85-6.69-6.04-1.25-1.86-1.94-3.81-2.09-5.77v.01s0-.04,0-.07c0-.04,0-.08,0-.12,0-.06-.01-.12-.02-.17,0-.07,0-.14-.01-.22,0-.09-.01-.17-.02-.26,0-.1,0-.21-.02-.31,0-.12,0-.23,0-.35,0-.13,0-.26,0-.39,0-.58,.03-1.16,.05-1.74,0-.51,.01-1-.05-1.5h0c0-1.19-.09-2.3-.18-3.42-.25,.24-.5,.5-.74,.76-.09,.1-.19,.2-.28,.3-.09,.11-.2,.21-.3,.31-.12,.14-.22,.29-.35,.43-.4,.48-.81,.97-1.17,1.46-.09,.12-.18,.25-.27,.37-.36,.51-.69,1.03-1,1.54-.14,.24-.27,.47-.4,.71-.22,.38-.4,.76-.59,1.14-.17,.35-.33,.71-.48,1.06-.13,.34-.25,.67-.37,1-.07,.21-.17,.42-.23,.63-.04,.12-.06,.25-.1,.38-.1,.37-.19,.74-.27,1.11-.1,.45-.2,.9-.26,1.35-.07,.4-.14,.81-.17,1.21-.05,.44-.07,.87-.08,1.31-.01,.32-.04,.64-.04,.96,.03,2.57,.57,5.08,1.56,7.46,.07,.18,.14,.36,.22,.54,0,0,0,.01,0,.02h0c.09,.2,.2,.4,.29,.59,.2,.41,.41,.83,.64,1.24,.07,.13,.14,.26,.22,.39,.03,.05,.07,.1,.09,.15,.47,.77,1,1.53,1.57,2.27,.04,.04,.07,.09,.11,.14,.53,.68,1.11,1.34,1.73,1.98,.04,.04,.08,.09,.12,.12,.55,.56,1.13,1.11,1.74,1.64,.09,.07,.17,.15,.25,.23,.4,.33,.82,.65,1.23,.97,.3,.22,.59,.46,.9,.69,.08,.06,.17,.11,.25,.17,1.99,1.39,4.23,2.64,6.71,3.7,.95,.41,1.96,.79,2.98,1.14,2.51,.87,5.17,1.56,7.93,2.05,.17,.03,.34,.06,.51,.09,.54,.09,1.08,.17,1.63,.24,.61,.09,1.22,.16,1.84,.22,.2,.02,.4,.04,.6,.06,.81,.08,1.61,.14,2.42,.18,.46,.03,.94,.05,1.41,.07,.35,0,.69,.01,1.04,.02,.87,0,1.72,0,2.58-.04h0c2.38-.09,4.42-.3,6.18-.55,.07,0,.12-.01,.19-.02,2.25-.33,4-.73,5.38-1.07,.22-.06,.42-.11,.62-.16,.17-.04,.36-.09,.52-.14,.56-.14,2.53-.72,4.54-1.51,.05-.02,.09-.04,.15-.06,.09-.04,.17-.06,.25-.09,1.8-.74,1.91-.8,4.74-2.27,3.27-1.89,5.97-4.01,8.07-6.35,.09-.09,.16-.2,.25-.3,.56-.64,1.06-1.29,1.52-1.97,.07-.09,.14-.17,.21-.27,.03-.04,.04-.09,.07-.13,.56-.84,1.05-1.7,1.48-2.56,.07-.13,.12-.26,.18-.39,.4-.82,.74-1.65,1.01-2.5,0-.03,.02-.07,.04-.09,.6-1.89,.9-3.86,.95-5.95,0-.03,0-.06,0-.08,0-.2-.02-.45-.03-.67,0-.27,0-.56-.03-.87-.02-.26-.05-.53-.09-.82-.06-.49-.13-1-.24-1.55-.04-.15-.06-.29-.09-.44-.17-.78-.4-1.6-.72-2.47,0-.01,0-.02,0-.04-.34-.92-.75-1.89-1.28-2.88-.25-.48-.55-.95-.85-1.42-.62-.99-1.32-1.94-2.11-2.85-.34-.4-.69-.8-1.06-1.18-.07-.07-.14-.14-.2-.2-.12-.12-.24-.22-.35-.32-.08,1.13-.2,2.26-.2,3.41Z"/>
      <path class="cls-16" d="M32.65,141.89c.01-.07,.03-.14,.04-.21-.06-.46-.17-.92-.17-1.39,0,.44,.03,.88,.09,1.32,0,.09,.04,.18,.05,.27Z"/>
      <path class="cls-16" d="M29.24,119.6c-.4-.24-.73-.5-1.11-.74h0c.38,.26,.72,.51,1.11,.74Z"/>
      <path class="cls-16" d="M94.97,139.24c.03-.81,.09-1.79,.2-2.91,0-.09,0-.18,.01-.27-.1,1-.17,2.08-.21,3.19Z"/>
      <path class="cls-16" d="M32.31,136.15c.1,1.37,.21,2.75,.2,4.14,0-.93-.04-2.38-.2-4.14Z"/>
      <path class="cls-16" d="M95.5,133.68c-.06,.34-.11,.68-.16,1.03,.05-.33,.1-.68,.16-1.03Z"/>
      <path class="cls-16" d="M95.16,136.32c.04-.33,.07-.67,.11-1.01-.03,.25-.07,.48-.09,.74,0,.09,0,.19-.01,.27Z"/>
      <path class="cls-16" d="M97.19,127c-.17,.47-.34,.99-.51,1.55,.16-.51,.31-1.03,.51-1.55Z"/>
      <path class="cls-16" d="M95.81,132c-.04,.22-.08,.43-.13,.66,.04-.22,.09-.43,.13-.66Z"/>
      <path class="cls-16" d="M97.24,126.85c.64-1.76,1.32-3.27,1.99-4.57-.67,1.27-1.33,2.75-1.94,4.44-.01,.04-.03,.09-.04,.13Z"/>
      <path class="cls-16" d="M100.53,118.38c.22-.15,.45-.3,.66-.45-.22,.15-.44,.3-.66,.45Z"/>
      <path class="cls-16" d="M96.16,130.45c-.03,.1-.06,.2-.08,.3,.02-.1,.05-.2,.08-.3Z"/>
      <path class="cls-16" d="M94.97,139.24c0,.4-.04,.81-.04,1.23,0-1.15,.12-2.28,.2-3.41v-.03c.01-.23,.01-.47,.04-.7-.11,1.12-.17,2.1-.2,2.91Z"/>
      <path class="cls-16" d="M94.87,141.61v-.09h0c0,.15,.01,.3,.01,.45-.01-.51-.01-1.01,.05-1.51,0,.44-.03,.88-.09,1.32,0-.06,.01-.12,.02-.17Z"/>
      <path class="cls-16" d="M94.92,143.71c0-.58-.03-1.16-.04-1.73,.01,.57,.04,1.15,.04,1.73Z"/>
      <path class="cls-16" d="M32.57,141.35h0s0,.06,0,.09c0,.05,.01,.12,.02,.17-.06-.44-.09-.88-.09-1.32h0c.07,.5,.06,1,.05,1.5,0-.15,0-.3,0-.45h0Z"/>
      <path class="cls-16" d="M31.56,131.17c-.22-1.08-.53-2.19-.9-3.32,.33,1.05,.64,2.15,.9,3.32Z"/>
      <path class="cls-16" d="M32.22,135.2c-.14-1.19-.33-2.49-.63-3.88,.27,1.23,.47,2.53,.63,3.88Z"/>
      <path class="cls-16" d="M26.27,118.63c-.44-.64-.85-1.16-1.21-1.59,.39,.46,.8,1,1.21,1.59Z"/>
      <path class="cls-16" d="M27.52,120.6c-.37-.63-.72-1.21-1.06-1.71,.35,.51,.71,1.11,1.06,1.71Z"/>
      <path class="cls-16" d="M28.59,122.65c-.15-.3-.28-.59-.43-.86,.15,.27,.28,.57,.43,.86Z"/>
      <path class="cls-16" d="M29.84,125.5c.18,.48,.38,.94,.55,1.45-.03-.09-.05-.17-.09-.26-.14-.43-.31-.79-.46-1.19Z"/>
      <path class="cls-16" d="M23.97,115.88s-.04-.03-.07-.05c.32,.3,.64,.62,1,1.03-.2-.23-.38-.43-.55-.61-.13-.12-.25-.26-.38-.38Z"/>
      <path class="cls-16" d="M28.14,118.86c-.73-.46-1.46-.92-2.12-1.41,.67,.49,1.39,.96,2.12,1.42h0Z"/>
      <path class="cls-16" d="M32.52,140.29c0-1.39-.1-2.77-.2-4.14,0-.08-.01-.17-.02-.24,.03,.3,.03,.64,.04,.96,.09,1.11,.18,2.23,.18,3.42Z"/>
      <path class="cls-16" d="M.52,57.94c-.27,1.94-.45,4.41-.49,6.56,.06-2.21,.25-4.53,.53-6.78-.01,.07-.03,.15-.04,.22Z"/>
      <path class="cls-16" d="M4.46,42.63c.19-.46,.38-.92,.55-1.34-.2,.48-.38,.9-.55,1.34Z"/>
      <path class="cls-16" d="M10.6,30.78c-.4,.65-.85,1.37-1.3,2.12,.93-1.5,1.97-3.14,3.03-4.61-.66,.9-1.26,1.75-1.73,2.48Z"/>
      <path class="cls-16" d="M2.56,48.11c-.04,.17-.09,.38-.14,.56,.31-1.12,.66-2.28,1.03-3.38-.42,1.22-.72,2.21-.89,2.83Z"/>
      <path class="cls-16" d="M3.53,45.07c.11-.34,.23-.65,.35-.97-.12,.34-.25,.66-.35,.97Z"/>
      <path class="cls-16" d="M12.48,28.09c.27-.37,.53-.69,.8-1.03-.27,.35-.54,.69-.8,1.03Z"/>
      <path class="cls-16" d="M.42,73.19c-.14-1.33-.23-2.52-.29-3.37,.06,1.18,.15,2.24,.29,3.37Z"/>
      <path class="cls-16" d="M29.14,12.43c-1.86,1.24-2.9,1.95-3.97,2.78,1.51-1.14,3.54-2.54,6.26-4.19-.95,.56-1.75,1.05-2.28,1.41Z"/>
      <path class="cls-16" d="M6.26,38.44c-.04,.1-.07,.18-.12,.28,.06-.12,.12-.26,.18-.38-.01,.04-.04,.07-.06,.11Z"/>
      <path class="cls-16" d="M8.5,97.83c-.04-.06-.07-.12-.1-.17,.03,.06,.07,.12,.1,.17Z"/>
      <path class="cls-16" d="M124.67,85.93c-.1,.32-.2,.67-.31,.98,.11-.32,.21-.66,.31-.98Z"/>
      <path class="cls-16" d="M117.13,101.48c-.21,.33-.42,.64-.64,.97,.21-.3,.43-.64,.64-.97Z"/>
      <path class="cls-16" d="M102.97,15.44c.2,.16,.38,.3,.57,.45-.2-.15-.38-.3-.57-.45Z"/>
      <path class="cls-16" d="M122.7,91.23c-.04,.09-.08,.19-.12,.28,.04-.09,.09-.19,.12-.28Z"/>
      <path class="cls-16" d="M120.93,94.98c-.27,.54-.64,1.24-1.08,2.01,.37-.66,.71-1.3,1.08-2.01Z"/>
      <path class="cls-16" d="M119.4,97.8c-.45,.78-.96,1.64-1.53,2.54,.51-.79,1.01-1.64,1.53-2.54Z"/>
      <path class="cls-16" d="M116.91,30.23c.3,.43,.62,.92,.94,1.42-.26-.42-.58-.9-.94-1.42Z"/>
      <path class="cls-16" d="M108.13,19.86s0-.01-.01-.02c0,.01,.01,.02,.03,.03h-.01Z"/>
      <path class="cls-16" d="M109.68,21.38c.19,.2,.38,.38,.56,.57-.19-.19-.38-.38-.56-.57Z"/>
      <path class="cls-16" d="M111.02,22.8c2.72,2.99,4.71,5.76,5.69,7.15-1.38-2-3.35-4.58-5.69-7.15Z"/>
      <path class="cls-16" d="M97.28,11.52c-2.13-1.32-3.53-2.02-3.93-2.22,1,.52,1.88,1.01,2.69,1.47,.43,.25,.83,.49,1.24,.74Z"/>
      <path class="cls-16" d="M12.15,103.51c.12,.16,.23,.29,.34,.44-.27-.35-.51-.72-.77-1.07,.15,.21,.28,.42,.43,.63Z"/>
      <path class="cls-16" d="M10.27,100.73c-.08-.13-.17-.25-.25-.38,.08,.13,.17,.25,.25,.38Z"/>
      <path class="cls-16" d="M14.64,106.71c-.42-.5-.83-1.04-1.26-1.58,.43,.54,.84,1.08,1.26,1.58Z"/>
      <path class="cls-16" d="M111.19,109.06c-.08,.09-.17,.18-.26,.28,.09-.09,.18-.19,.26-.28Z"/>
      <path class="cls-16" d="M104.42,115.45c1.55-1.26,3.25-2.75,5.11-4.64-1.38,1.39-3.05,2.95-5.11,4.64Z"/>
      <path class="cls-16" d="M16.53,108.9c-.49-.54-1-1.13-1.5-1.73,.5,.6,1,1.18,1.5,1.73Z"/>
      <path class="cls-16" d="M1.01,77.35c.22,1.31,1.01,5.14,2.08,8.34,.19,.53,.43,1.26,.72,2.05-1.44-4.11-1.93-6.13-2.72-9.95-.03-.14-.05-.3-.08-.44Z"/>
      <path class="cls-16" d="M22.03,17.79c-.26,.22-.51,.44-.81,.69-2.41,2.05-5.14,5.03-7.36,7.82,3.55-4.25,4.57-5.29,8.17-8.51Z"/>
      <path class="cls-16" d="M17.03,109.44c.83,.89,1.63,1.7,2.4,2.45-.78-.74-1.57-1.56-2.4-2.45Z"/>
      <path class="cls-16" d="M25.77,117.28c-1.55-1.21-3.5-2.73-5.71-4.79,1.48,1.39,2.78,2.49,3.84,3.34,.02,.02,.04,.04,.07,.05,.74,.59,1.38,1.08,1.8,1.4Z"/>
      <path class="cls-13" d="M101.82,117.5c-.2,.14-.42,.28-.62,.43-.22,.15-.44,.3-.66,.45-.97,.66-1.97,1.29-3.06,1.91-19.11,10.72-49.65,10.41-68.22-.69-.39-.24-.73-.48-1.11-.73-.73-.46-1.45-.93-2.12-1.42-.07-.06-.17-.11-.25-.17-.42-.32-1.06-.81-1.8-1.4,.13,.12,.25,.26,.38,.38,.17,.17,.35,.38,.55,.61,.05,.06,.1,.12,.15,.17,.37,.43,.77,.95,1.21,1.59,.07,.09,.12,.17,.19,.27,.34,.5,.69,1.08,1.06,1.71,.22,.38,.43,.77,.65,1.19,.14,.27,.28,.56,.43,.86,.42,.85,.84,1.81,1.24,2.85,.15,.4,.32,.77,.46,1.19,.04,.09,.06,.17,.09,.26,.1,.3,.19,.59,.28,.89,.37,1.13,.67,2.25,.9,3.32,.01,.05,.02,.1,.03,.16,.3,1.39,.49,2.69,.63,3.88,.03,.25,.04,.48,.07,.71,0,.07,.01,.16,.02,.24,.16,1.76,.2,3.21,.2,4.14h0v3.24c0,.13,0,.27,0,.4,0,.12,0,.23,0,.35,.01,.1,.01,.2,.02,.3l.02,.26c0,.07,0,.14,.01,.22,0,.06,.01,.12,.02,.17,0,.04,0,.09,0,.12,0,.02,0,.05,0,.07h0s0,0,0-.01c.14,1.96,.84,3.91,2.09,5.77,1.46,2.18,3.69,4.24,6.69,6.03h0c2.99,1.79,6.47,3.14,10.2,4.06,3.72,.92,7.69,1.4,11.68,1.44,3.98,.04,7.98-.35,11.74-1.2,2.83-.63,5.53-1.51,8-2.64,.82-.38,1.62-.78,2.39-1.21,3.08-1.73,5.41-3.73,6.99-5.89,1.44-1.98,2.25-4.07,2.41-6.18v.03h0v-.08s.01-.09,.02-.12c0-.05,0-.11,0-.17,.01-.06,.02-.14,.03-.21,0-.09,.01-.17,.01-.26,.01-.11,.01-.21,.02-.31,0-.12,0-.24,.01-.35,0-.13,0-.26,0-.4,0-.59,0-2.77,0-3.24h0c0-.42,.03-.82,.04-1.23,.04-1.11,.11-2.18,.21-3.19,.03-.25,.07-.49,.09-.74,.03-.2,.05-.4,.07-.6,.05-.35,.1-.69,.16-1.03,.06-.35,.12-.69,.17-1.03,.05-.22,.09-.44,.13-.66,.09-.42,.18-.84,.27-1.24,.02-.11,.05-.2,.08-.3,.17-.69,.35-1.31,.53-1.91,.17-.56,.34-1.08,.51-1.55,.01-.05,.03-.1,.05-.15,.01-.04,.03-.09,.04-.13,.61-1.69,1.28-3.16,1.94-4.44,1.63-3.14,3.25-5.03,4.17-5.95,.1-.09,.19-.2,.3-.29-.6,.48-1.21,.96-1.88,1.46Z"/>
      <path class="cls-20" d="M127.87,66.22c0-1.26-.03-2.34-.07-3.19C127.33,28.14,98.93,0,63.93,0S.04,28.6,.04,63.89c0,.05,0,.1,0,.16,0,.14-.02,.3-.02,.45-.05,1.57-.04,3.08,.05,4.47,0,.22,.03,.51,.05,.85,.06,.85,.14,2.04,.29,3.37,.14,1.34,.33,2.8,.59,4.17,.03,.14,.05,.3,.08,.44,.79,3.82,1.27,5.84,2.72,9.95,.1,.27,.19,.53,.29,.82,.46,1.29,1.85,4.8,4.3,9.1,.03,.06,.07,.12,.1,.17,.47,.82,.98,1.65,1.52,2.51,.08,.13,.17,.25,.25,.38,.45,.71,.95,1.42,1.46,2.15,.25,.35,.5,.71,.77,1.07,.11,.14,.2,.28,.3,.42,.2,.27,.4,.5,.59,.75,.43,.54,.84,1.08,1.26,1.58,.13,.16,.26,.3,.4,.46,.5,.6,1,1.19,1.5,1.73,.17,.19,.33,.35,.51,.53,.83,.89,1.63,1.71,2.4,2.45,.2,.2,.42,.42,.62,.61,2.2,2.06,4.15,3.58,5.71,4.79,.08,.06,.17,.11,.25,.17,.67,.48,1.39,.95,2.12,1.41,.38,.25,.71,.51,1.11,.74,18.57,11.1,49.12,11.41,68.22,.69,1.09-.61,2.09-1.25,3.06-1.91,.22-.15,.45-.3,.66-.45,.2-.14,.42-.28,.62-.43,.66-.5,1.28-.98,1.88-1.46,.25-.2,.48-.39,.72-.59,2.07-1.68,3.73-3.24,5.11-4.64,.51-.52,.97-1,1.39-1.47,.09-.1,.18-.19,.26-.28,.94-1.03,1.71-1.95,2.34-2.69,1.09-1.3,2.07-2.63,2.96-3.92,.22-.33,.43-.64,.64-.97,.26-.38,.51-.77,.74-1.13,.57-.9,1.08-1.76,1.53-2.54,.16-.28,.31-.55,.46-.81,.43-.77,.8-1.47,1.08-2.01,.16-.3,.3-.57,.4-.78,.35-.68,.78-1.63,1.24-2.69,.04-.09,.09-.19,.12-.28,.53-1.23,1.09-2.65,1.66-4.32,.11-.31,.21-.66,.31-.98,.35-1.06,.68-2.19,1-3.4,.17-.61,.32-1.23,.48-1.87,.35-1.47,.66-3.01,.92-4.65,.07-.51,.12-1.05,.19-1.57,.19-1.37,.34-2.78,.43-4.25,.01-.3,.07-.56,.09-.86,.06-1.1,.08-2.14,.09-3.08h0v-.02Z"/>
      <path class="cls-7" d="M109.92,46.28c0,11.67-9.46,21.14-21.13,21.14s-21.14-9.46-21.14-21.14,9.47-21.13,21.14-21.13,21.13,9.46,21.13,21.13Z"/>
      <g class="cls-14">
        <path class="cls-10" d="M95.62,190.27c.59,1.08-1.65,3.44-5.01,5.28-3.36,1.83-6.56,2.44-7.15,1.35-.59-1.08,1.65-3.45,5.01-5.28,3.36-1.83,6.56-2.44,7.15-1.35Z"/>
      </g>
      <g class="cls-24">
        <path class="cls-9" d="M96.28,174.97c.99,1.71-1.44,4.97-5.45,7.3-4,2.32-8.05,2.82-9.04,1.11-.99-1.71,1.45-4.98,5.45-7.3,4-2.32,8.05-2.82,9.04-1.11Z"/>
      </g>
      <g class="cls-26">
        <path class="cls-8" d="M96.53,158.13c1.32,2.34-1.69,6.55-6.73,9.39-5.04,2.85-10.2,3.26-11.52,.92-1.32-2.34,1.7-6.55,6.73-9.39,5.04-2.84,10.2-3.26,11.52-.92Z"/>
      </g>
    </g>
  </g>
</svg>