<?xml version="1.0" encoding="UTF-8"?>
<svg xmlns="http://www.w3.org/2000/svg" xmlns:xlink="http://www.w3.org/1999/xlink" viewBox="0 0 238.63 189.35">
  <defs>
    <style>
      .cls-1 {
        fill: url(#Radial_Gradient_1-2);
      }

      .cls-1, .cls-2, .cls-3, .cls-4, .cls-5, .cls-6, .cls-7, .cls-8, .cls-9, .cls-10, .cls-11, .cls-12, .cls-13 {
        mix-blend-mode: color-dodge;
      }

      .cls-2 {
        fill: url(#Radial_Gradient_1-5);
      }

      .cls-3 {
        fill: url(#Radial_Gradient_1-4);
      }

      .cls-4 {
        fill: url(#Radial_Gradient_1-7);
      }

      .cls-5 {
        fill: url(#Radial_Gradient_1-8);
      }

      .cls-6 {
        fill: url(#Radial_Gradient_1-3);
      }

      .cls-7 {
        fill: url(#Radial_Gradient_1-6);
      }

      .cls-8 {
        fill: url(#Radial_Gradient_1-9);
      }

      .cls-14 {
        fill: url(#linear-gradient);
      }

      .cls-15 {
        opacity: .09;
      }

      .cls-16, .cls-17, .cls-18 {
        fill: #ff63ce;
      }

      .cls-19, .cls-20, .cls-21, .cls-22 {
        fill: #2af6ff;
      }

      .cls-23 {
        fill: url(#New_Gradient_Swatch_copy_25-2);
      }

      .cls-24 {
        fill: url(#New_Gradient_Swatch_copy_25);
      }

      .cls-20, .cls-17, .cls-25 {
        opacity: .2;
      }

      .cls-26 {
        mix-blend-mode: screen;
      }

      .cls-27 {
        fill: url(#linear-gradient-8);
      }

      .cls-28 {
        fill: url(#linear-gradient-9);
      }

      .cls-29 {
        fill: url(#linear-gradient-3);
      }

      .cls-30 {
        fill: url(#linear-gradient-4);
      }

      .cls-31 {
        fill: url(#linear-gradient-2);
      }

      .cls-32 {
        fill: url(#linear-gradient-6);
      }

      .cls-33 {
        fill: url(#linear-gradient-7);
      }

      .cls-34 {
        fill: url(#linear-gradient-5);
      }

      .cls-35 {
        opacity: .18;
      }

      .cls-36 {
        opacity: .27;
      }

      .cls-37 {
        opacity: .45;
      }

      .cls-38 {
        opacity: .36;
      }

      .cls-39 {
        opacity: .64;
      }

      .cls-40 {
        opacity: .55;
      }

      .cls-41 {
        opacity: .91;
      }

      .cls-42 {
        opacity: .82;
      }

      .cls-43 {
        opacity: .73;
      }

      .cls-21, .cls-44 {
        opacity: 0;
      }

      .cls-45 {
        fill: url(#linear-gradient-14);
      }

      .cls-46 {
        fill: url(#linear-gradient-15);
      }

      .cls-47 {
        fill: url(#linear-gradient-16);
      }

      .cls-48 {
        fill: url(#linear-gradient-13);
      }

      .cls-49 {
        fill: url(#linear-gradient-12);
      }

      .cls-50 {
        fill: url(#linear-gradient-10);
      }

      .cls-51 {
        fill: url(#linear-gradient-11);
      }

      .cls-52 {
        isolation: isolate;
      }

      .cls-9 {
        fill: url(#Radial_Gradient_1);
      }

      .cls-22, .cls-18 {
        opacity: .5;
      }

      .cls-10 {
        fill: url(#Radial_Gradient_1-10);
      }

      .cls-11 {
        fill: url(#Radial_Gradient_1-13);
      }

      .cls-12 {
        fill: url(#Radial_Gradient_1-11);
      }

      .cls-13 {
        fill: url(#Radial_Gradient_1-12);
      }
    </style>
    <linearGradient id="linear-gradient" x1="7.42" y1="91.38" x2="233.73" y2="91.38" gradientUnits="userSpaceOnUse">
      <stop offset=".04" stop-color="#25054d"/>
      <stop offset=".14" stop-color="#26054f"/>
      <stop offset=".21" stop-color="#2b0758"/>
      <stop offset=".27" stop-color="#320967"/>
      <stop offset=".32" stop-color="#3d0d7c"/>
      <stop offset=".34" stop-color="#45108a"/>
      <stop offset=".38" stop-color="#4d1294"/>
      <stop offset=".44" stop-color="#6517af"/>
      <stop offset=".49" stop-color="#7c1dc9"/>
      <stop offset=".53" stop-color="#6a18b5"/>
      <stop offset=".59" stop-color="#45108a"/>
      <stop offset=".66" stop-color="#3b0c78"/>
      <stop offset=".79" stop-color="#2f0860"/>
      <stop offset=".9" stop-color="#270552"/>
      <stop offset="1" stop-color="#25054d"/>
    </linearGradient>
    <linearGradient id="New_Gradient_Swatch_copy_25" data-name="New Gradient Swatch copy 25" x1="204.6" y1="-131.35" x2="111.48" y2="109.04" gradientUnits="userSpaceOnUse">
      <stop offset="0" stop-color="#25054d"/>
      <stop offset="1" stop-color="#45108a"/>
    </linearGradient>
    <linearGradient id="linear-gradient-2" x1="12.59" y1="81.85" x2="228.5" y2="81.85" gradientUnits="userSpaceOnUse">
      <stop offset=".04" stop-color="#b086cc"/>
      <stop offset=".21" stop-color="#c1a1d5"/>
      <stop offset=".29" stop-color="#c7abd9"/>
      <stop offset=".41" stop-color="#dac6e7"/>
      <stop offset=".51" stop-color="#ebdef3"/>
      <stop offset=".56" stop-color="#e3d2ee"/>
      <stop offset=".69" stop-color="#d5bce6"/>
      <stop offset=".78" stop-color="#d1b4e3"/>
      <stop offset=".78" stop-color="#cfb1e1"/>
      <stop offset=".86" stop-color="#be99d5"/>
      <stop offset=".94" stop-color="#b38bce"/>
      <stop offset="1" stop-color="#b086cc"/>
    </linearGradient>
    <linearGradient id="linear-gradient-3" x1="7.23" y1="75.01" x2="233.55" y2="75.01" xlink:href="#linear-gradient"/>
    <linearGradient id="New_Gradient_Swatch_copy_25-2" data-name="New Gradient Swatch copy 25" x1="204.42" y1="-151.56" x2="111.29" y2="88.82" xlink:href="#New_Gradient_Swatch_copy_25"/>
    <linearGradient id="linear-gradient-4" x1="138.89" y1="17.59" x2="66.76" y2="203.78" gradientUnits="userSpaceOnUse">
      <stop offset=".01" stop-color="#9f19ab"/>
      <stop offset=".77" stop-color="#5f27bd"/>
      <stop offset=".9" stop-color="#3d065f"/>
    </linearGradient>
    <radialGradient id="Radial_Gradient_1" data-name="Radial Gradient 1" cx="120.39" cy="98.02" fx="120.39" fy="98.02" r="83.44" gradientUnits="userSpaceOnUse">
      <stop offset="0" stop-color="#fff"/>
      <stop offset="1" stop-color="#000"/>
    </radialGradient>
    <linearGradient id="linear-gradient-5" x1="221.63" y1="95.71" x2="237.27" y2="120.96" gradientUnits="userSpaceOnUse">
      <stop offset="0" stop-color="#9874c6"/>
      <stop offset=".36" stop-color="#c1a1d5"/>
      <stop offset=".38" stop-color="#c7abd9"/>
      <stop offset=".41" stop-color="#d9c6e5"/>
      <stop offset=".45" stop-color="#f6f2f9"/>
      <stop offset=".46" stop-color="#fff"/>
      <stop offset=".49" stop-color="#f1e8f6"/>
      <stop offset=".53" stop-color="#dfcbeb"/>
      <stop offset=".57" stop-color="#d4bae5"/>
      <stop offset=".6" stop-color="#d1b4e3"/>
      <stop offset=".66" stop-color="#b294d5"/>
      <stop offset=".72" stop-color="#9b7ccb"/>
      <stop offset=".77" stop-color="#8d6ec5"/>
      <stop offset=".82" stop-color="#8969c3"/>
      <stop offset=".89" stop-color="#9371c5"/>
      <stop offset="1" stop-color="#b086cc"/>
    </linearGradient>
    <radialGradient id="Radial_Gradient_1-2" data-name="Radial Gradient 1" cx="224.26" cy="108.68" fx="224.26" fy="108.68" r="10.38" xlink:href="#Radial_Gradient_1"/>
    <linearGradient id="linear-gradient-6" x1="206.52" y1="104.59" x2="222.16" y2="129.84" xlink:href="#linear-gradient-5"/>
    <radialGradient id="Radial_Gradient_1-3" data-name="Radial Gradient 1" cx="209.14" cy="117.57" fx="209.14" fy="117.57" r="10.38" xlink:href="#Radial_Gradient_1"/>
    <linearGradient id="linear-gradient-7" x1="190.97" y1="113.57" x2="206.61" y2="138.83" xlink:href="#linear-gradient-5"/>
    <radialGradient id="Radial_Gradient_1-4" data-name="Radial Gradient 1" cx="193.6" cy="126.55" fx="193.6" fy="126.55" r="10.38" xlink:href="#Radial_Gradient_1"/>
    <linearGradient id="linear-gradient-8" x1="175.43" y1="122.56" x2="191.06" y2="147.81" xlink:href="#linear-gradient-5"/>
    <radialGradient id="Radial_Gradient_1-5" data-name="Radial Gradient 1" cx="178.05" cy="135.53" fx="178.05" fy="135.53" r="10.38" xlink:href="#Radial_Gradient_1"/>
    <linearGradient id="linear-gradient-9" x1="159.88" y1="131.54" x2="175.52" y2="156.79" xlink:href="#linear-gradient-5"/>
    <radialGradient id="Radial_Gradient_1-6" data-name="Radial Gradient 1" cx="162.5" cy="144.52" fx="162.5" fy="144.52" r="10.38" xlink:href="#Radial_Gradient_1"/>
    <linearGradient id="linear-gradient-10" x1="144.33" y1="140.52" x2="159.97" y2="165.78" xlink:href="#linear-gradient-5"/>
    <radialGradient id="Radial_Gradient_1-7" data-name="Radial Gradient 1" cx="146.96" cy="153.5" fx="146.96" fy="153.5" r="10.38" xlink:href="#Radial_Gradient_1"/>
    <linearGradient id="linear-gradient-11" x1="7896.66" y1="95.61" x2="7912.29" y2="120.86" gradientTransform="translate(7915.81) rotate(-180) scale(1 -1)" xlink:href="#linear-gradient-5"/>
    <radialGradient id="Radial_Gradient_1-8" data-name="Radial Gradient 1" cx="7899.28" cy="108.58" fx="7899.28" fy="108.58" r="10.38" gradientTransform="translate(7915.81) rotate(-180) scale(1 -1)" xlink:href="#Radial_Gradient_1"/>
    <linearGradient id="linear-gradient-12" x1="7881.11" y1="104.59" x2="7896.75" y2="129.84" gradientTransform="translate(7915.81) rotate(-180) scale(1 -1)" xlink:href="#linear-gradient-5"/>
    <radialGradient id="Radial_Gradient_1-9" data-name="Radial Gradient 1" cx="7883.73" cy="117.57" fx="7883.73" fy="117.57" r="10.38" gradientTransform="translate(7915.81) rotate(-180) scale(1 -1)" xlink:href="#Radial_Gradient_1"/>
    <linearGradient id="linear-gradient-13" x1="7865.56" y1="113.57" x2="7881.2" y2="138.82" gradientTransform="translate(7915.81) rotate(-180) scale(1 -1)" xlink:href="#linear-gradient-5"/>
    <radialGradient id="Radial_Gradient_1-10" data-name="Radial Gradient 1" cx="7868.19" cy="126.55" fx="7868.19" fy="126.55" r="10.38" gradientTransform="translate(7915.81) rotate(-180) scale(1 -1)" xlink:href="#Radial_Gradient_1"/>
    <linearGradient id="linear-gradient-14" x1="7850.02" y1="122.56" x2="7865.65" y2="147.81" gradientTransform="translate(7915.81) rotate(-180) scale(1 -1)" xlink:href="#linear-gradient-5"/>
    <radialGradient id="Radial_Gradient_1-11" data-name="Radial Gradient 1" cx="7852.64" cy="135.53" fx="7852.64" fy="135.53" r="10.38" gradientTransform="translate(7915.81) rotate(-180) scale(1 -1)" xlink:href="#Radial_Gradient_1"/>
    <linearGradient id="linear-gradient-15" x1="7834.47" y1="131.54" x2="7850.11" y2="156.79" gradientTransform="translate(7915.81) rotate(-180) scale(1 -1)" xlink:href="#linear-gradient-5"/>
    <radialGradient id="Radial_Gradient_1-12" data-name="Radial Gradient 1" cx="7837.09" cy="144.52" fx="7837.09" fy="144.52" r="10.38" gradientTransform="translate(7915.81) rotate(-180) scale(1 -1)" xlink:href="#Radial_Gradient_1"/>
    <linearGradient id="linear-gradient-16" x1="7818.92" y1="140.52" x2="7834.56" y2="165.78" gradientTransform="translate(7915.81) rotate(-180) scale(1 -1)" xlink:href="#linear-gradient-5"/>
    <radialGradient id="Radial_Gradient_1-13" data-name="Radial Gradient 1" cx="7821.55" cy="153.5" fx="7821.55" fy="153.5" r="10.38" gradientTransform="translate(7915.81) rotate(-180) scale(1 -1)" xlink:href="#Radial_Gradient_1"/>
  </defs>
  <g class="cls-52">
    <g id="Layer_1" data-name="Layer 1">
      <g>
        <g class="cls-25">
          <path class="cls-44" d="M117.21,189.35c5.64,0,10.76-1.23,14.81-3.57l98.11-56.77c5.4-3.12,8.5-8.05,8.5-13.54,0-6.01-3.73-11.61-10.23-15.36l-89-51.38c-5.11-2.95-11.49-4.57-17.98-4.57-5.64,0-10.76,1.23-14.81,3.57L8.5,104.49c-5.4,3.12-8.5,8.05-8.5,13.53,0,6.01,3.73,11.61,10.23,15.37l89,51.38c5.11,2.95,11.49,4.57,17.98,4.57Z"/>
          <path class="cls-15" d="M107.38,51.15L14.08,105.14c-4.91,2.83-8.2,7.67-8.33,12.66-.15,5.64,3.13,11.03,9.38,14.64l85.19,49.18c4.85,2.8,10.93,4.33,17.08,4.32,3.74,0,7.24-.6,10.3-1.71,1.27-.46,2.63-1.09,3.74-1.73l93.17-53.91c4.91-2.83,8.18-7.66,8.31-12.64,.15-5.64-3.13-11.03-9.38-14.64l-84.9-49.02c-1.85-1.07-4.16-2.09-6.3-2.77-3.4-1.08-7.09-1.68-10.82-1.7-5.38-.03-10.28,1.13-14.13,3.35Z"/>
          <path class="cls-35" d="M108.16,54.57L19.66,105.78c-4.42,2.55-7.91,7.3-8.17,11.78-.3,5.29,2.53,10.44,8.54,13.91l81.38,46.98c4.6,2.65,10.37,4.09,16.18,4.06,3.54-.02,6.85-.61,9.74-1.67,1.15-.42,2.53-1.08,3.53-1.66l88.23-51.05c4.42-2.55,7.87-7.28,8.13-11.75,.3-5.29-2.53-10.44-8.54-13.91l-80.81-46.66c-1.66-.96-4.06-2.05-5.98-2.67-3.22-1.04-6.72-1.66-10.27-1.7-5.11-.06-9.8,1.02-13.46,3.13Z"/>
          <path class="cls-36" d="M108.93,58L25.25,106.42c-3.93,2.27-7.64,6.93-8,10.9-.45,4.95,1.93,9.86,7.69,13.19l77.56,44.78c4.34,2.51,9.81,3.85,15.28,3.81,3.35-.03,6.47-.61,9.19-1.62,1.02-.38,2.43-1.07,3.32-1.58l83.29-48.2c3.93-2.27,7.58-6.89,7.94-10.86,.45-4.95-1.93-9.86-7.69-13.19l-76.72-44.29c-1.48-.85-3.95-2.01-5.66-2.57-3.05-1-6.36-1.64-9.73-1.7-4.84-.09-9.32,.91-12.79,2.92Z"/>
          <path class="cls-38" d="M109.71,61.42L30.83,107.06c-3.44,1.98-7.39,6.56-7.83,10.02-.6,4.63,1.33,9.28,6.84,12.46l73.75,42.58c4.09,2.36,9.25,3.61,14.38,3.56,3.15-.04,6.08-.61,8.63-1.57,.89-.33,2.34-1.05,3.11-1.5l78.35-45.34c3.44-1.98,7.31-6.51,7.76-9.97,.6-4.63-1.33-9.28-6.84-12.46l-72.63-41.93c-1.29-.75-3.85-1.97-5.34-2.48-2.87-.97-6-1.62-9.19-1.7-4.58-.12-8.84,.81-12.11,2.7Z"/>
          <path class="cls-37" d="M110.48,64.85L36.41,107.71c-2.95,1.7-7.16,6.19-7.67,9.14-.76,4.33,.73,8.69,6,11.73l69.94,40.38c3.83,2.21,8.69,3.37,13.48,3.3,2.95-.04,5.69-.62,8.07-1.53,.76-.29,2.24-1.04,2.91-1.42l73.41-42.48c2.95-1.7,7.06-6.14,7.57-9.08,.76-4.33-.73-8.69-6-11.73l-68.53-39.57c-1.11-.64-3.75-1.94-5.02-2.38-2.69-.93-5.64-1.6-8.64-1.7-4.31-.14-8.36,.7-11.44,2.48Z"/>
          <path class="cls-40" d="M111.26,68.27L42,108.35c-2.45,1.42-7.5,5.77-7.5,8.26-1.79,3.76,.13,8.11,5.15,11.01l66.13,38.18c3.58,2.06,8.12,3.13,12.57,3.05,2.76-.05,5.31-.62,7.51-1.48,.63-.25,2.14-1.03,2.7-1.35l68.47-39.62c2.45-1.42,7.39-5.7,7.39-8.19,1.79-3.76-.13-8.11-5.15-11.01l-64.44-37.21c-.92-.53-3.64-1.9-4.7-2.28-2.52-.9-5.28-1.58-8.1-1.7-4.05-.17-7.88,.59-10.76,2.26Z"/>
          <path class="cls-39" d="M112.03,71.7L47.58,108.99c-1.96,1.13-7.34,5.39-7.34,7.38-2.08,3.39-.47,7.53,4.3,10.28l62.32,35.98c3.32,1.92,7.56,2.89,11.67,2.8,2.56-.06,4.92-.62,6.95-1.44,.5-.2,2.04-1.01,2.49-1.27l63.53-36.76c1.96-1.13,7.2-5.31,7.2-7.3,2.08-3.39,.47-7.53-4.3-10.28l-60.35-34.84c-.74-.43-3.53-1.87-4.38-2.18-2.34-.86-4.91-1.56-7.56-1.7-3.78-.2-7.4,.49-10.09,2.04Z"/>
          <path class="cls-43" d="M112.81,75.12l-59.64,34.51c-1.47,.85-7.17,5.01-7.17,6.5-2.38,3.01-1.07,6.94,3.46,9.56l58.51,33.78c3.07,1.77,7,2.65,10.77,2.54,2.36-.07,4.53-.63,6.39-1.39,.38-.15,1.95-1,2.28-1.19l58.59-33.9c1.47-.85,7.02-4.92,7.02-6.41,2.38-3.01,1.07-6.94-3.46-9.56l-56.26-32.48c-.55-.32-3.43-1.84-4.06-2.08-2.17-.83-4.55-1.54-7.01-1.7-3.51-.23-6.92,.38-9.42,1.82Z"/>
          <path class="cls-42" d="M113.58,78.55l-54.83,31.73c-.98,.57-7.01,4.63-7.01,5.62-2.68,2.64-1.67,6.36,2.61,8.83l54.7,31.58c2.81,1.62,6.44,2.42,9.87,2.29,2.16-.08,4.15-.63,5.83-1.35,.25-.11,1.85-.99,2.07-1.11l53.65-31.05c.98-.57,6.83-4.52,6.83-5.52,2.68-2.64,1.67-6.36-2.61-8.83l-52.16-30.12c-.37-.21-3.32-1.82-3.74-1.98-2-.79-4.19-1.52-6.47-1.7-3.25-.26-6.44,.27-8.74,1.61Z"/>
          <path class="cls-41" d="M114.36,81.97l-50.03,28.95c-.49,.28-6.84,4.24-6.84,4.74-2.98,2.27-2.27,5.78,1.76,8.1l50.89,29.38c2.56,1.48,5.88,2.18,8.97,2.04,1.97-.09,3.76-.63,5.27-1.3,.12-.05,1.75-.97,1.86-1.04l48.71-28.19c.49-.28,6.65-4.13,6.65-4.63,2.98-2.27,2.27-5.78-1.76-8.1l-48.07-27.75c-.18-.11-3.21-1.8-3.42-1.89-1.83-.76-3.83-1.5-5.93-1.7-2.98-.29-5.96,.17-8.07,1.39Z"/>
          <path d="M124.01,150.51l51.89-30.03c3.28-1.89,2.86-5.19-.92-7.38l-47.07-27.18c-3.78-2.18-9.5-2.42-12.78-.53l-51.89,30.03c-3.28,1.89-2.86,5.19,.92,7.38l47.07,27.18c3.78,2.18,9.5,2.42,12.78,.53Z"/>
        </g>
        <path class="cls-14" d="M233.73,85.25h-2.25c-1.15-1.46-2.72-2.82-4.76-3.99L138.99,30.6c-10.38-6-28.52-5.24-40.51,1.68L17.33,79.12c-3.19,1.84-5.59,3.93-7.25,6.12h-2.67v7h.07c.33,3.48,2.6,6.77,6.94,9.27l87.74,50.66c10.38,5.99,28.52,5.24,40.51-1.68l81.14-46.85c5.69-3.29,8.94-7.37,9.71-11.4h.21v-7Z"/>
        <path class="cls-24" d="M102.17,146.84L14.43,96.18c-10.38-6-9.08-16.47,2.91-23.39L98.47,25.94c11.99-6.92,30.13-7.67,40.51-1.68l87.74,50.66c10.38,6,9.08,16.47-2.91,23.39l-81.14,46.85c-11.99,6.92-30.13,7.67-40.51,1.68Z"/>
        <path class="cls-31" d="M230.9,73.16h-2.2c-1.12-1.43-2.65-2.75-4.65-3.9L138.37,19.79c-10.14-5.85-27.85-5.12-39.56,1.64L19.57,67.18c-3.11,1.8-5.46,3.84-7.08,5.98h-2.6v12.23h.07c.33,3.4,2.54,6.61,6.78,9.05l85.68,49.47c10.14,5.85,27.85,5.12,39.56-1.64l79.24-45.75c5.56-3.21,8.73-7.2,9.48-11.13h.2v-12.23Z"/>
        <path class="cls-29" d="M233.55,65.03h-2.25c-1.15-1.46-2.72-2.82-4.76-3.99L138.8,10.38c-10.38-6-28.52-5.24-40.51,1.68L17.15,58.9c-3.19,1.84-5.59,3.93-7.25,6.12h-2.67v14.7h.07c.33,3.48,2.6,6.77,6.94,9.27l87.74,50.66c10.38,5.99,28.52,5.24,40.51-1.68l81.14-46.85c5.69-3.29,8.94-7.37,9.71-11.4h.21v-14.7Z"/>
        <path class="cls-23" d="M101.98,126.62L14.24,75.96c-10.38-6-9.08-16.47,2.91-23.39L98.29,5.73c11.99-6.92,30.13-7.67,40.51-1.68l87.74,50.66c10.38,6,9.08,16.47-2.91,23.39l-81.14,46.85c-11.99,6.92-30.13,7.67-40.51,1.68Z"/>
        <path class="cls-30" d="M106.14,112.8L38.18,73.57c-8.04-4.64-7.03-12.75,2.25-18.12L103.28,19.17c9.29-5.36,23.33-5.94,31.38-1.3l67.96,39.23c8.04,4.64,7.03,12.75-2.25,18.12l-62.84,36.28c-9.29,5.36-23.33,5.94-31.38,1.3Z"/>
        <path class="cls-9" d="M223.63,76.28l-81.14,46.85c-11.99,6.92-30.13,7.67-40.51,1.68L14.24,74.15c-4.17-2.41-6.42-5.54-6.89-8.87-.64,4.31,1.6,8.53,6.89,11.58l87.74,50.66c10.38,5.99,28.52,5.24,40.51-1.68l81.14-46.85c7.18-4.14,10.49-9.56,9.8-14.52-.62,4.16-3.91,8.41-9.8,11.81Z"/>
        <g>
          <path class="cls-34" d="M213.87,98.92l8.09-4.76,13.04,7.88c.95,.58,1.43,1.7,1.18,2.79l-1.58,14.21-4.91-9.96c-.96-1.19-2.14-2.19-3.46-2.97l-12.35-7.2Z"/>
          <path class="cls-1" d="M230.31,108.25c-.96-1.19-2.14-2.19-3.46-2.97l-11.95-6.96-1.03,.6,12.35,7.2c1.32,.77,2.5,1.78,3.46,2.97l4.91,9.96,.06-.27-4.34-10.52Z"/>
        </g>
        <g>
          <path class="cls-32" d="M198.75,107.81l8.09-4.76,13.04,7.88c.95,.58,1.43,1.7,1.18,2.79l-1.58,14.21-4.91-9.96c-.96-1.19-2.14-2.19-3.46-2.97l-12.35-7.2Z"/>
          <path class="cls-6" d="M215.19,117.13c-.96-1.19-2.14-2.19-3.46-2.97l-11.95-6.96-1.03,.6,12.35,7.2c1.32,.77,2.5,1.78,3.46,2.97l4.91,9.96,.06-.27-4.34-10.52Z"/>
        </g>
        <g>
          <path class="cls-33" d="M183.21,116.79l8.09-4.76,13.04,7.88c.95,.58,1.43,1.7,1.18,2.79l-1.58,14.21-4.91-9.96c-.96-1.19-2.14-2.19-3.46-2.97l-12.35-7.2Z"/>
          <path class="cls-3" d="M199.65,126.12c-.96-1.19-2.14-2.19-3.46-2.97l-11.95-6.96-1.03,.6,12.35,7.2c1.32,.77,2.5,1.78,3.46,2.97l4.91,9.96,.06-.27-4.34-10.52Z"/>
        </g>
        <g>
          <path class="cls-27" d="M167.66,125.77l8.09-4.76,13.04,7.88c.95,.58,1.43,1.7,1.18,2.79l-1.58,14.21-4.91-9.96c-.96-1.19-2.14-2.19-3.46-2.97l-12.35-7.2Z"/>
          <path class="cls-2" d="M184.1,135.1c-.96-1.19-2.14-2.19-3.46-2.97l-11.95-6.96-1.03,.6,12.35,7.2c1.32,.77,2.5,1.78,3.46,2.97l4.91,9.96,.06-.27-4.34-10.52Z"/>
        </g>
        <g>
          <path class="cls-28" d="M152.11,134.76l8.09-4.76,13.04,7.88c.95,.58,1.43,1.7,1.18,2.79l-1.58,14.21-4.91-9.96c-.96-1.19-2.14-2.19-3.46-2.97l-12.35-7.2Z"/>
          <path class="cls-7" d="M168.55,144.08c-.96-1.19-2.14-2.19-3.46-2.97l-11.95-6.96-1.03,.6,12.35,7.2c1.32,.77,2.5,1.78,3.46,2.97l4.91,9.96,.06-.27-4.34-10.52Z"/>
        </g>
        <g>
          <path class="cls-50" d="M136.56,143.74l8.09-4.76,13.04,7.88c.95,.58,1.43,1.7,1.18,2.79l-1.58,14.21-4.91-9.96c-.96-1.19-2.14-2.19-3.46-2.97l-12.35-7.2Z"/>
          <path class="cls-4" d="M153,153.07c-.96-1.19-2.14-2.19-3.46-2.97l-11.95-6.96-1.03,.6,12.35,7.2c1.32,.77,2.5,1.78,3.46,2.97l4.91,9.96,.06-.27-4.34-10.52Z"/>
        </g>
        <g>
          <path class="cls-51" d="M26.93,98.82l-8.09-4.76-13.04,7.88c-.95,.58-1.43,1.7-1.18,2.79l1.58,14.21,4.91-9.96c.96-1.19,2.14-2.19,3.46-2.97l12.35-7.2Z"/>
          <path class="cls-5" d="M10.49,108.15c.96-1.19,2.14-2.19,3.46-2.97l11.95-6.96,1.03,.6-12.35,7.2c-1.32,.77-2.5,1.78-3.46,2.97l-4.91,9.96-.06-.27,4.34-10.52Z"/>
        </g>
        <g>
          <path class="cls-49" d="M42.47,107.81l-8.09-4.76-13.04,7.88c-.95,.58-1.43,1.7-1.18,2.79l1.58,14.21,4.91-9.96c.96-1.19,2.14-2.19,3.46-2.97l12.35-7.2Z"/>
          <path class="cls-8" d="M26.03,117.13c.96-1.19,2.14-2.19,3.46-2.97l11.95-6.96,1.03,.6-12.35,7.2c-1.32,.77-2.5,1.78-3.46,2.97l-4.91,9.96-.06-.27,4.34-10.52Z"/>
        </g>
        <g>
          <path class="cls-48" d="M58.02,116.79l-8.09-4.76-13.04,7.88c-.95,.58-1.43,1.7-1.18,2.79l1.58,14.21,4.91-9.96c.96-1.19,2.14-2.19,3.46-2.97l12.35-7.2Z"/>
          <path class="cls-10" d="M41.58,126.12c.96-1.19,2.14-2.19,3.46-2.97l11.95-6.96,1.03,.6-12.35,7.2c-1.32,.77-2.5,1.78-3.46,2.97l-4.91,9.96-.06-.27,4.34-10.52Z"/>
        </g>
        <g>
          <path class="cls-45" d="M73.57,125.77l-8.09-4.76-13.04,7.88c-.95,.58-1.43,1.7-1.18,2.79l1.58,14.21,4.91-9.96c.96-1.19,2.14-2.19,3.46-2.97l12.35-7.2Z"/>
          <path class="cls-12" d="M57.13,135.1c.96-1.19,2.14-2.19,3.46-2.97l11.95-6.96,1.03,.6-12.35,7.2c-1.32,.77-2.5,1.78-3.46,2.97l-4.91,9.96-.06-.27,4.34-10.52Z"/>
        </g>
        <g>
          <path class="cls-46" d="M89.11,134.76l-8.09-4.76-13.04,7.88c-.95,.58-1.43,1.7-1.18,2.79l1.58,14.21,4.91-9.96c.96-1.19,2.14-2.19,3.46-2.97l12.35-7.2Z"/>
          <path class="cls-13" d="M72.67,144.08c.96-1.19,2.14-2.19,3.46-2.97l11.95-6.96,1.03,.6-12.35,7.2c-1.32,.77-2.5,1.78-3.46,2.97l-4.91,9.96-.06-.27,4.34-10.52Z"/>
        </g>
        <g>
          <path class="cls-47" d="M104.66,143.74l-8.09-4.76-13.04,7.88c-.95,.58-1.43,1.7-1.18,2.79l1.58,14.21,4.91-9.96c.96-1.19,2.14-2.19,3.46-2.97l12.35-7.2Z"/>
          <path class="cls-11" d="M88.22,153.07c.96-1.19,2.14-2.19,3.46-2.97l11.95-6.96,1.03,.6-12.35,7.2c-1.32,.77-2.5,1.78-3.46,2.97l-4.91,9.96-.06-.27,4.34-10.52Z"/>
        </g>
        <g class="cls-26">
          <g>
            <polygon class="cls-20" points="119.36 20.26 122.93 18.2 119.39 16.15 115.82 18.21 119.36 20.26"/>
            <polygon class="cls-22" points="112.66 24.13 116.23 22.07 112.68 20.02 109.12 22.08 112.66 24.13"/>
            <polygon class="cls-19" points="105.96 28 109.53 25.94 105.98 23.89 102.41 25.95 105.96 28"/>
            <polygon class="cls-19" points="99.26 31.86 102.83 29.8 99.28 27.76 95.71 29.82 99.26 31.86"/>
            <polygon class="cls-22" points="92.56 35.73 96.12 33.67 92.58 31.63 89.01 33.69 92.56 35.73"/>
            <polygon class="cls-19" points="85.85 39.6 89.42 37.54 85.88 35.5 82.31 37.56 85.85 39.6"/>
            <polygon class="cls-19" points="79.15 43.47 82.72 41.41 79.17 39.37 75.61 41.43 79.15 43.47"/>
            <polygon class="cls-22" points="72.45 47.34 76.02 45.28 72.47 43.24 68.9 45.3 72.45 47.34"/>
            <polygon class="cls-19" points="65.75 51.21 69.31 49.15 65.77 47.11 62.2 49.17 65.75 51.21"/>
            <polygon class="cls-19" points="59.04 55.08 62.61 53.02 59.07 50.98 55.5 53.04 59.04 55.08"/>
            <polygon class="cls-22" points="52.34 58.95 55.91 56.89 52.36 54.84 48.8 56.9 52.34 58.95"/>
            <polygon class="cls-22" points="45.64 62.82 49.21 60.76 45.66 58.71 42.09 60.77 45.64 62.82"/>
            <polygon class="cls-19" points="38.94 66.69 42.51 64.63 38.96 62.58 35.39 64.64 38.94 66.69"/>
          </g>
          <g>
            <polygon class="cls-22" points="125.7 23.91 129.27 21.85 125.72 19.81 122.15 21.87 125.7 23.91"/>
            <polygon class="cls-22" points="119 27.78 122.56 25.72 119.02 23.68 115.45 25.74 119 27.78"/>
            <polygon class="cls-22" points="112.29 31.65 115.86 29.59 112.32 27.55 108.75 29.61 112.29 31.65"/>
            <polygon class="cls-22" points="105.59 35.52 109.16 33.46 105.61 31.42 102.05 33.47 105.59 35.52"/>
            <polygon class="cls-19" points="98.89 39.39 102.46 37.33 98.91 35.28 95.34 37.34 98.89 39.39"/>
            <polygon class="cls-22" points="92.19 43.26 95.76 41.2 92.21 39.15 88.64 41.21 92.19 43.26"/>
            <polygon class="cls-20" points="85.49 47.13 89.05 45.07 85.51 43.02 81.94 45.08 85.49 47.13"/>
            <polygon class="cls-19" points="78.78 51 82.35 48.94 78.81 46.89 75.24 48.95 78.78 51"/>
            <polygon class="cls-22" points="72.08 54.87 75.65 52.81 72.1 50.76 68.54 52.82 72.08 54.87"/>
            <polygon class="cls-19" points="65.38 58.74 68.95 56.68 65.4 54.63 61.83 56.69 65.38 58.74"/>
            <polygon class="cls-22" points="58.68 62.61 62.24 60.55 58.7 58.5 55.13 60.56 58.68 62.61"/>
            <polygon class="cls-22" points="51.97 66.48 55.54 64.42 52 62.37 48.43 64.43 51.97 66.48"/>
            <polygon class="cls-22" points="45.27 70.35 48.84 68.29 45.29 66.24 41.73 68.3 45.27 70.35"/>
          </g>
          <g>
            <polygon class="cls-19" points="132.03 27.57 135.6 25.51 132.06 23.46 128.49 25.52 132.03 27.57"/>
            <polygon class="cls-22" points="125.33 31.44 128.9 29.38 125.35 27.33 121.79 29.39 125.33 31.44"/>
            <polygon class="cls-20" points="118.63 35.31 122.2 33.25 118.65 31.2 115.08 33.26 118.63 35.31"/>
            <polygon class="cls-20" points="111.93 39.18 115.5 37.12 111.95 35.07 108.38 37.13 111.93 39.18"/>
            <polygon class="cls-20" points="105.22 43.05 108.79 40.99 105.25 38.94 101.68 41 105.22 43.05"/>
            <polygon class="cls-22" points="98.52 46.92 102.09 44.86 98.54 42.81 94.98 44.87 98.52 46.92"/>
            <polygon class="cls-20" points="91.82 50.79 95.39 48.73 91.84 46.68 88.27 48.74 91.82 50.79"/>
            <polygon class="cls-20" points="85.12 54.66 88.69 52.6 85.14 50.55 81.57 52.61 85.12 54.66"/>
            <polygon class="cls-20" points="78.42 58.53 81.98 56.47 78.44 54.42 74.87 56.48 78.42 58.53"/>
            <polygon class="cls-20" points="71.71 62.4 75.28 60.34 71.74 58.29 68.17 60.35 71.71 62.4"/>
            <polygon class="cls-22" points="65.01 66.27 68.58 64.21 65.03 62.16 61.47 64.22 65.01 66.27"/>
            <polygon class="cls-22" points="58.31 70.14 61.88 68.08 58.33 66.03 54.76 68.09 58.31 70.14"/>
            <polygon class="cls-19" points="51.61 74.01 55.17 71.95 51.63 69.9 48.06 71.96 51.61 74.01"/>
          </g>
          <g>
            <polygon class="cls-22" points="138.37 31.23 141.94 29.17 138.39 27.12 134.82 29.18 138.37 31.23"/>
            <polygon class="cls-20" points="131.67 35.1 135.23 33.04 131.69 30.99 128.12 33.05 131.67 35.1"/>
            <polygon class="cls-18" points="124.96 38.97 128.53 36.91 124.99 34.86 121.42 36.92 124.96 38.97"/>
            <polygon class="cls-16" points="118.26 42.84 121.83 40.78 118.28 38.73 114.72 40.79 118.26 42.84"/>
            <polygon class="cls-20" points="111.56 46.71 115.13 44.65 111.58 42.6 108.01 44.66 111.56 46.71"/>
            <polygon class="cls-20" points="104.86 50.58 108.43 48.52 104.88 46.47 101.31 48.53 104.86 50.58"/>
            <polygon class="cls-21" points="98.15 54.45 101.72 52.39 98.18 50.34 94.61 52.4 98.15 54.45"/>
            <polygon class="cls-16" points="91.45 58.31 95.02 56.25 91.47 54.21 87.91 56.27 91.45 58.31"/>
            <polygon class="cls-18" points="84.75 62.18 88.32 60.12 84.77 58.08 81.2 60.14 84.75 62.18"/>
            <polygon class="cls-21" points="78.05 66.05 81.62 63.99 78.07 61.95 74.5 64.01 78.05 66.05"/>
            <polygon class="cls-20" points="71.35 69.92 74.91 67.86 71.37 65.82 67.8 67.88 71.35 69.92"/>
            <polygon class="cls-19" points="64.64 73.79 68.21 71.73 64.67 69.69 61.1 71.75 64.64 73.79"/>
            <polygon class="cls-19" points="57.94 77.66 61.51 75.6 57.96 73.56 54.4 75.62 57.94 77.66"/>
          </g>
          <g>
            <polygon class="cls-19" points="144.7 34.89 148.27 32.83 144.73 30.78 141.16 32.84 144.7 34.89"/>
            <polygon class="cls-20" points="138 38.75 141.57 36.69 138.02 34.65 134.46 36.71 138 38.75"/>
            <polygon class="cls-16" points="131.3 42.62 134.87 40.56 131.32 38.52 127.75 40.58 131.3 42.62"/>
            <polygon class="cls-16" points="124.6 46.49 128.16 44.43 124.62 42.39 121.05 44.45 124.6 46.49"/>
            <polygon class="cls-21" points="117.89 50.36 121.46 48.3 117.92 46.26 114.35 48.32 117.89 50.36"/>
            <polygon class="cls-20" points="111.19 54.23 114.76 52.17 111.21 50.13 107.65 52.19 111.19 54.23"/>
            <polygon class="cls-21" points="104.49 58.1 108.06 56.04 104.51 54 100.94 56.06 104.49 58.1"/>
            <polygon class="cls-16" points="97.79 61.97 101.36 59.91 97.81 57.87 94.24 59.93 97.79 61.97"/>
            <polygon class="cls-16" points="91.08 65.84 94.65 63.78 91.11 61.73 87.54 63.79 91.08 65.84"/>
            <polygon class="cls-21" points="84.38 69.71 87.95 67.65 84.4 65.6 80.84 67.66 84.38 69.71"/>
            <polygon class="cls-22" points="77.68 73.58 81.25 71.52 77.7 69.47 74.13 71.53 77.68 73.58"/>
            <polygon class="cls-20" points="70.98 77.45 74.55 75.39 71 73.34 67.43 75.4 70.98 77.45"/>
            <polygon class="cls-22" points="64.28 81.32 67.84 79.26 64.3 77.21 60.73 79.27 64.28 81.32"/>
          </g>
          <g>
            <polygon class="cls-22" points="151.04 38.54 154.61 36.48 151.06 34.44 147.49 36.5 151.04 38.54"/>
            <polygon class="cls-20" points="144.34 42.41 147.9 40.35 144.36 38.31 140.79 40.36 144.34 42.41"/>
            <polygon class="cls-16" points="137.63 46.28 141.2 44.22 137.66 42.17 134.09 44.23 137.63 46.28"/>
            <polygon class="cls-18" points="130.93 50.15 134.5 48.09 130.95 46.04 127.39 48.1 130.93 50.15"/>
            <polygon class="cls-21" points="124.23 54.02 127.8 51.96 124.25 49.91 120.68 51.97 124.23 54.02"/>
            <polygon class="cls-21" points="117.53 57.89 121.09 55.83 117.55 53.78 113.98 55.84 117.53 57.89"/>
            <polygon class="cls-18" points="110.82 61.76 114.39 59.7 110.85 57.65 107.28 59.71 110.82 61.76"/>
            <polygon class="cls-16" points="104.12 65.63 107.69 63.57 104.14 61.52 100.58 63.58 104.12 65.63"/>
            <polygon class="cls-16" points="97.42 69.5 100.99 67.44 97.44 65.39 93.87 67.45 97.42 69.5"/>
            <polygon class="cls-18" points="90.72 73.37 94.29 71.31 90.74 69.26 87.17 71.32 90.72 73.37"/>
            <polygon class="cls-21" points="84.02 77.24 87.58 75.18 84.04 73.13 80.47 75.19 84.02 77.24"/>
            <polygon class="cls-20" points="77.31 81.11 80.88 79.05 77.33 77 73.77 79.06 77.31 81.11"/>
            <polygon class="cls-22" points="70.61 84.98 74.18 82.92 70.63 80.87 67.06 82.93 70.61 84.98"/>
          </g>
          <g>
            <polygon class="cls-19" points="157.37 42.2 160.94 40.14 157.39 38.09 153.83 40.15 157.37 42.2"/>
            <polygon class="cls-20" points="150.67 46.07 154.24 44.01 150.69 41.96 147.12 44.02 150.67 46.07"/>
            <polygon class="cls-16" points="143.97 49.94 147.54 47.88 143.99 45.83 140.42 47.89 143.97 49.94"/>
            <polygon class="cls-16" points="137.27 53.81 140.83 51.75 137.29 49.7 133.72 51.76 137.27 53.81"/>
            <polygon class="cls-21" points="130.56 57.68 134.13 55.62 130.59 53.57 127.02 55.63 130.56 57.68"/>
            <polygon class="cls-21" points="123.86 61.55 127.43 59.49 123.88 57.44 120.32 59.5 123.86 61.55"/>
            <polygon class="cls-16" points="117.16 65.42 120.73 63.36 117.18 61.31 113.61 63.37 117.16 65.42"/>
            <polygon class="cls-21" points="110.46 69.29 114.02 67.23 110.48 65.18 106.91 67.24 110.46 69.29"/>
            <polygon class="cls-21" points="103.75 73.16 107.32 71.1 103.78 69.05 100.21 71.11 103.75 73.16"/>
            <polygon class="cls-16" points="97.05 77.03 100.62 74.97 97.07 72.92 93.51 74.98 97.05 77.03"/>
            <polygon class="cls-21" points="90.35 80.9 93.92 78.84 90.37 76.79 86.8 78.85 90.35 80.9"/>
            <polygon class="cls-19" points="83.65 84.76 87.22 82.71 83.67 80.66 80.1 82.72 83.65 84.76"/>
            <polygon class="cls-22" points="76.95 88.63 80.51 86.57 76.97 84.53 73.4 86.59 76.95 88.63"/>
          </g>
          <g>
            <polygon class="cls-19" points="163.71 45.86 167.27 43.8 163.73 41.75 160.16 43.81 163.71 45.86"/>
            <polygon class="cls-20" points="157 49.73 160.57 47.67 157.03 45.62 153.46 47.68 157 49.73"/>
            <polygon class="cls-18" points="150.3 53.6 153.87 51.54 150.32 49.49 146.76 51.55 150.3 53.6"/>
            <polygon class="cls-16" points="143.6 57.47 147.17 55.41 143.62 53.36 140.05 55.42 143.6 57.47"/>
            <polygon class="cls-21" points="136.9 61.34 140.47 59.28 136.92 57.23 133.35 59.29 136.9 61.34"/>
            <polygon class="cls-21" points="130.2 65.2 133.76 63.14 130.22 61.1 126.65 63.16 130.2 65.2"/>
            <polygon class="cls-16" points="123.49 69.07 127.06 67.01 123.52 64.97 119.95 67.03 123.49 69.07"/>
            <polygon class="cls-16" points="116.79 72.94 120.36 70.88 116.81 68.84 113.25 70.9 116.79 72.94"/>
            <polygon class="cls-16" points="110.09 76.81 113.66 74.75 110.11 72.71 106.54 74.77 110.09 76.81"/>
            <polygon class="cls-16" points="103.39 80.68 106.95 78.62 103.41 76.58 99.84 78.64 103.39 80.68"/>
            <polygon class="cls-21" points="96.68 84.55 100.25 82.49 96.71 80.45 93.14 82.51 96.68 84.55"/>
            <polygon class="cls-22" points="89.98 88.42 93.55 86.36 90 84.32 86.44 86.38 89.98 88.42"/>
            <polygon class="cls-19" points="83.28 92.29 86.85 90.23 83.3 88.18 79.73 90.24 83.28 92.29"/>
          </g>
          <g>
            <polygon class="cls-22" points="170.04 49.51 173.61 47.45 170.06 45.41 166.5 47.47 170.04 49.51"/>
            <polygon class="cls-20" points="163.34 53.38 166.91 51.32 163.36 49.28 159.79 51.34 163.34 53.38"/>
            <polygon class="cls-16" points="156.64 57.25 160.2 55.19 156.66 53.15 153.09 55.21 156.64 57.25"/>
            <polygon class="cls-18" points="149.93 61.12 153.5 59.06 149.96 57.02 146.39 59.08 149.93 61.12"/>
            <polygon class="cls-21" points="143.23 64.99 146.8 62.93 143.25 60.89 139.69 62.95 143.23 64.99"/>
            <polygon class="cls-18" points="136.53 68.86 140.1 66.8 136.55 64.76 132.98 66.82 136.53 68.86"/>
            <polygon class="cls-16" points="129.83 72.73 133.4 70.67 129.85 68.62 126.28 70.68 129.83 72.73"/>
            <polygon class="cls-16" points="123.13 76.6 126.69 74.54 123.15 72.49 119.58 74.55 123.13 76.6"/>
            <polygon class="cls-16" points="116.42 80.47 119.99 78.41 116.45 76.36 112.88 78.42 116.42 80.47"/>
            <polygon class="cls-16" points="109.72 84.34 113.29 82.28 109.74 80.23 106.18 82.29 109.72 84.34"/>
            <polygon class="cls-18" points="103.02 88.21 106.59 86.15 103.04 84.1 99.47 86.16 103.02 88.21"/>
            <polygon class="cls-20" points="96.32 92.08 99.88 90.02 96.34 87.97 92.77 90.03 96.32 92.08"/>
            <polygon class="cls-19" points="89.61 95.95 93.18 93.89 89.64 91.84 86.07 93.9 89.61 95.95"/>
          </g>
          <g>
            <polygon class="cls-22" points="176.38 53.17 179.94 51.11 176.4 49.06 172.83 51.12 176.38 53.17"/>
            <polygon class="cls-20" points="169.67 57.04 173.24 54.98 169.7 52.93 166.13 54.99 169.67 57.04"/>
            <polygon class="cls-16" points="162.97 60.91 166.54 58.85 162.99 56.8 159.43 58.86 162.97 60.91"/>
            <polygon class="cls-16" points="156.27 64.78 159.84 62.72 156.29 60.67 152.72 62.73 156.27 64.78"/>
            <polygon class="cls-21" points="149.57 68.65 153.13 66.59 149.59 64.54 146.02 66.6 149.57 68.65"/>
            <polygon class="cls-18" points="142.86 72.52 146.43 70.46 142.89 68.41 139.32 70.47 142.86 72.52"/>
            <polygon class="cls-16" points="136.16 76.39 139.73 74.33 136.18 72.28 132.62 74.34 136.16 76.39"/>
            <polygon class="cls-21" points="129.46 80.26 133.03 78.2 129.48 76.15 125.91 78.21 129.46 80.26"/>
            <polygon class="cls-21" points="122.76 84.13 126.33 82.07 122.78 80.02 119.21 82.08 122.76 84.13"/>
            <polygon class="cls-16" points="116.06 88 119.62 85.94 116.08 83.89 112.51 85.95 116.06 88"/>
            <polygon class="cls-16" points="109.35 91.87 112.92 89.81 109.38 87.76 105.81 89.82 109.35 91.87"/>
            <polygon class="cls-22" points="102.65 95.74 106.22 93.68 102.67 91.63 99.11 93.69 102.65 95.74"/>
            <polygon class="cls-19" points="95.95 99.61 99.52 97.55 95.97 95.5 92.4 97.56 95.95 99.61"/>
          </g>
          <g>
            <polygon class="cls-19" points="182.71 56.83 186.28 54.77 182.73 52.72 179.17 54.78 182.71 56.83"/>
            <polygon class="cls-20" points="176.01 60.7 179.58 58.64 176.03 56.59 172.46 58.65 176.01 60.7"/>
            <polygon class="cls-17" points="169.31 64.57 172.87 62.51 169.33 60.46 165.76 62.52 169.31 64.57"/>
            <polygon class="cls-16" points="162.6 68.44 166.17 66.38 162.63 64.33 159.06 66.39 162.6 68.44"/>
            <polygon class="cls-21" points="155.9 72.31 159.47 70.25 155.92 68.2 152.36 70.26 155.9 72.31"/>
            <polygon class="cls-16" points="149.2 76.18 152.77 74.12 149.22 72.07 145.65 74.13 149.2 76.18"/>
            <polygon class="cls-16" points="142.5 80.05 146.06 77.99 142.52 75.94 138.95 78 142.5 80.05"/>
            <polygon class="cls-21" points="135.79 83.92 139.36 81.86 135.82 79.81 132.25 81.87 135.79 83.92"/>
            <polygon class="cls-21" points="129.09 87.79 132.66 85.73 129.11 83.68 125.55 85.74 129.09 87.79"/>
            <polygon class="cls-18" points="122.39 91.65 125.96 89.6 122.41 87.55 118.84 89.61 122.39 91.65"/>
            <polygon class="cls-16" points="115.69 95.52 119.26 93.46 115.71 91.42 112.14 93.48 115.69 95.52"/>
            <polygon class="cls-20" points="108.99 99.39 112.55 97.33 109.01 95.29 105.44 97.35 108.99 99.39"/>
            <polygon class="cls-19" points="102.28 103.26 105.85 101.2 102.31 99.16 98.74 101.22 102.28 103.26"/>
          </g>
          <g>
            <polygon class="cls-19" points="189.05 60.49 192.61 58.43 189.07 56.38 185.5 58.44 189.05 60.49"/>
            <polygon class="cls-22" points="182.34 64.36 185.91 62.3 182.37 60.25 178.8 62.31 182.34 64.36"/>
            <polygon class="cls-20" points="175.64 68.23 179.21 66.17 175.66 64.12 172.1 66.18 175.64 68.23"/>
            <polygon class="cls-20" points="168.94 72.09 172.51 70.03 168.96 67.99 165.39 70.05 168.94 72.09"/>
            <polygon class="cls-20" points="162.24 75.96 165.8 73.9 162.26 71.86 158.69 73.92 162.24 75.96"/>
            <polygon class="cls-20" points="155.53 79.83 159.1 77.77 155.56 75.73 151.99 77.79 155.53 79.83"/>
            <polygon class="cls-20" points="148.83 83.7 152.4 81.64 148.85 79.6 145.29 81.66 148.83 83.7"/>
            <polygon class="cls-20" points="142.13 87.57 145.7 85.51 142.15 83.47 138.58 85.53 142.13 87.57"/>
            <polygon class="cls-20" points="135.43 91.44 139 89.38 135.45 87.34 131.88 89.4 135.43 91.44"/>
            <polygon class="cls-21" points="128.72 95.31 132.29 93.25 128.75 91.21 125.18 93.27 128.72 95.31"/>
            <polygon class="cls-20" points="122.02 99.18 125.59 97.12 122.04 95.07 118.48 97.13 122.02 99.18"/>
            <polygon class="cls-22" points="115.32 103.05 118.89 100.99 115.34 98.94 111.77 101 115.32 103.05"/>
            <polygon class="cls-22" points="108.62 106.92 112.19 104.86 108.64 102.81 105.07 104.87 108.62 106.92"/>
          </g>
          <g>
            <polygon class="cls-20" points="195.38 64.14 198.95 62.08 195.4 60.04 191.83 62.1 195.38 64.14"/>
            <polygon class="cls-19" points="188.68 68.01 192.25 65.95 188.7 63.91 185.13 65.97 188.68 68.01"/>
            <polygon class="cls-19" points="181.98 71.88 185.54 69.82 182 67.78 178.43 69.84 181.98 71.88"/>
            <polygon class="cls-22" points="175.27 75.75 178.84 73.69 175.3 71.65 171.73 73.71 175.27 75.75"/>
            <polygon class="cls-22" points="168.57 79.62 172.14 77.56 168.59 75.51 165.03 77.57 168.57 79.62"/>
            <polygon class="cls-19" points="161.87 83.49 165.44 81.43 161.89 79.38 158.32 81.44 161.87 83.49"/>
            <polygon class="cls-19" points="155.17 87.36 158.73 85.3 155.19 83.25 151.62 85.31 155.17 87.36"/>
            <polygon class="cls-19" points="148.46 91.23 152.03 89.17 148.49 87.12 144.92 89.18 148.46 91.23"/>
            <polygon class="cls-19" points="141.76 95.1 145.33 93.04 141.78 90.99 138.22 93.05 141.76 95.1"/>
            <polygon class="cls-22" points="135.06 98.97 138.63 96.91 135.08 94.86 131.51 96.92 135.06 98.97"/>
            <polygon class="cls-19" points="128.36 102.84 131.93 100.78 128.38 98.73 124.81 100.79 128.36 102.84"/>
            <polygon class="cls-22" points="121.65 106.71 125.22 104.65 121.68 102.6 118.11 104.66 121.65 106.71"/>
            <polygon class="cls-22" points="114.95 110.58 118.52 108.52 114.97 106.47 111.41 108.53 114.95 110.58"/>
          </g>
          <g>
            <polygon class="cls-20" points="201.71 67.8 205.28 65.74 201.74 63.69 198.17 65.75 201.71 67.8"/>
            <polygon class="cls-19" points="195.01 71.67 198.58 69.61 195.03 67.56 191.47 69.62 195.01 71.67"/>
            <polygon class="cls-22" points="188.31 75.54 191.88 73.48 188.33 71.43 184.76 73.49 188.31 75.54"/>
            <polygon class="cls-22" points="181.61 79.41 185.18 77.35 181.63 75.3 178.06 77.36 181.61 79.41"/>
            <polygon class="cls-19" points="174.91 83.28 178.47 81.22 174.93 79.17 171.36 81.23 174.91 83.28"/>
            <polygon class="cls-19" points="168.2 87.15 171.77 85.09 168.23 83.04 164.66 85.1 168.2 87.15"/>
            <polygon class="cls-19" points="161.5 91.02 165.07 88.96 161.52 86.91 157.96 88.97 161.5 91.02"/>
            <polygon class="cls-22" points="154.8 94.89 158.37 92.83 154.82 90.78 151.25 92.84 154.8 94.89"/>
            <polygon class="cls-22" points="148.1 98.76 151.66 96.7 148.12 94.65 144.55 96.71 148.1 98.76"/>
            <polygon class="cls-22" points="141.39 102.63 144.96 100.57 141.42 98.52 137.85 100.58 141.39 102.63"/>
            <polygon class="cls-19" points="134.69 106.5 138.26 104.44 134.71 102.39 131.15 104.45 134.69 106.5"/>
            <polygon class="cls-22" points="127.99 110.37 131.56 108.31 128.01 106.26 124.44 108.32 127.99 110.37"/>
            <polygon class="cls-20" points="121.29 114.24 124.86 112.18 121.31 110.13 117.74 112.19 121.29 114.24"/>
          </g>
        </g>
      </g>
    </g>
  </g>
</svg>