<?xml version="1.0" encoding="UTF-8"?>
<svg xmlns="http://www.w3.org/2000/svg" xmlns:xlink="http://www.w3.org/1999/xlink" viewBox="0 0 172.28 240.02">
  <defs>
    <style>
      .cls-1 {
        fill: url(#radial-gradient);
      }

      .cls-1, .cls-2 {
        opacity: .6;
      }

      .cls-1, .cls-2, .cls-3, .cls-4, .cls-5, .cls-6, .cls-7, .cls-8 {
        mix-blend-mode: screen;
      }

      .cls-9 {
        fill: url(#linear-gradient);
      }

      .cls-10 {
        opacity: .09;
      }

      .cls-11 {
        fill: #f8b505;
      }

      .cls-12 {
        fill: #ed4069;
      }

      .cls-13 {
        fill: #fff;
      }

      .cls-14 {
        fill: #ffc9b6;
      }

      .cls-15 {
        fill: #ffb9a4;
      }

      .cls-16 {
        fill: #e79ce1;
      }

      .cls-17 {
        fill: #fed03d;
      }

      .cls-18 {
        fill: #ff5a72;
      }

      .cls-19 {
        fill: #672a5c;
      }

      .cls-20 {
        fill: #bdd6e5;
      }

      .cls-21 {
        fill: #dceaf4;
      }

      .cls-22 {
        fill: #d680d4;
      }

      .cls-23 {
        fill: #e43c5d;
      }

      .cls-24 {
        fill: #1cb6d7;
      }

      .cls-25 {
        fill: #138bbd;
      }

      .cls-26 {
        fill: #21cbe5;
      }

      .cls-27 {
        fill: #23234c;
      }

      .cls-28 {
        fill: #18a0ca;
      }

      .cls-29 {
        fill: #25e1f2;
      }

      .cls-30 {
        fill: #2af6ff;
      }

      .cls-31 {
        fill: #2fd1c1;
      }

      .cls-32 {
        fill: #bcbec0;
      }

      .cls-32, .cls-33 {
        mix-blend-mode: multiply;
      }

      .cls-2 {
        fill: url(#radial-gradient-2);
      }

      .cls-33 {
        fill: url(#linear-gradient-3);
        opacity: .82;
      }

      .cls-3 {
        fill: url(#linear-gradient-8);
      }

      .cls-4 {
        fill: url(#linear-gradient-7);
      }

      .cls-5 {
        fill: url(#linear-gradient-12);
      }

      .cls-6 {
        fill: url(#linear-gradient-17);
      }

      .cls-7 {
        fill: url(#linear-gradient-21);
      }

      .cls-8 {
        fill: url(#linear-gradient-25);
      }

      .cls-34 {
        fill: url(#linear-gradient-9);
      }

      .cls-35 {
        fill: url(#linear-gradient-4);
      }

      .cls-36 {
        fill: url(#linear-gradient-2);
      }

      .cls-37 {
        fill: url(#linear-gradient-6);
      }

      .cls-38 {
        fill: url(#linear-gradient-5);
      }

      .cls-39 {
        opacity: .18;
      }

      .cls-40 {
        opacity: .2;
      }

      .cls-41 {
        opacity: .27;
      }

      .cls-42 {
        opacity: .45;
      }

      .cls-43 {
        opacity: .36;
      }

      .cls-44 {
        opacity: .64;
      }

      .cls-45 {
        opacity: .55;
      }

      .cls-46 {
        opacity: .9;
      }

      .cls-47 {
        opacity: .91;
      }

      .cls-48 {
        opacity: .82;
      }

      .cls-49 {
        opacity: .73;
      }

      .cls-50 {
        fill: url(#linear-gradient-14);
      }

      .cls-51 {
        fill: url(#linear-gradient-18);
      }

      .cls-52 {
        fill: url(#linear-gradient-22);
      }

      .cls-53 {
        fill: url(#linear-gradient-20);
      }

      .cls-54 {
        fill: url(#linear-gradient-23);
      }

      .cls-55 {
        fill: url(#linear-gradient-15);
      }

      .cls-56 {
        fill: url(#linear-gradient-19);
      }

      .cls-57 {
        fill: url(#linear-gradient-16);
      }

      .cls-58 {
        fill: url(#linear-gradient-13);
      }

      .cls-59 {
        fill: url(#linear-gradient-10);
      }

      .cls-60 {
        fill: url(#linear-gradient-11);
      }

      .cls-61 {
        fill: url(#linear-gradient-27);
      }

      .cls-62 {
        fill: url(#linear-gradient-24);
      }

      .cls-63 {
        fill: url(#linear-gradient-26);
      }

      .cls-64 {
        fill: url(#linear-gradient-28);
      }

      .cls-65 {
        isolation: isolate;
      }

      .cls-66 {
        opacity: 0;
      }

      .cls-67 {
        fill: #27c1ae;
        opacity: .93;
      }
    </style>
    <linearGradient id="linear-gradient" x1="-3507.55" y1="202.92" x2="-3392.55" y2="202.92" gradientTransform="translate(-3359.11) rotate(-180) scale(1 -1)" gradientUnits="userSpaceOnUse">
      <stop offset=".06" stop-color="#200041"/>
      <stop offset=".26" stop-color="#210143"/>
      <stop offset=".36" stop-color="#25084a"/>
      <stop offset=".43" stop-color="#2c1357"/>
      <stop offset=".47" stop-color="#311b61"/>
      <stop offset=".48" stop-color="#351f65"/>
      <stop offset=".5" stop-color="#422c72"/>
      <stop offset=".51" stop-color="#574188"/>
      <stop offset=".52" stop-color="#755fa6"/>
      <stop offset=".53" stop-color="#8770b8"/>
      <stop offset=".54" stop-color="#7d66ae"/>
      <stop offset=".56" stop-color="#5c458c"/>
      <stop offset=".59" stop-color="#442e74"/>
      <stop offset=".61" stop-color="#351f66"/>
      <stop offset=".63" stop-color="#311b61"/>
      <stop offset=".67" stop-color="#2a1054"/>
      <stop offset=".75" stop-color="#220446"/>
      <stop offset=".81" stop-color="#200041"/>
      <stop offset="1" stop-color="#200041"/>
    </linearGradient>
    <linearGradient id="linear-gradient-2" x1="-3476.78" y1="210.31" x2="-3424.65" y2="181.47" gradientTransform="translate(-3359.11) rotate(-180) scale(1 -1)" gradientUnits="userSpaceOnUse">
      <stop offset="0" stop-color="#311b61"/>
      <stop offset=".2" stop-color="#290e52"/>
      <stop offset=".49" stop-color="#200041"/>
      <stop offset="1" stop-color="#0f001f"/>
    </linearGradient>
    <linearGradient id="linear-gradient-3" x1="-3449.13" y1="196.68" x2="-3438.9" y2="179.52" gradientTransform="translate(-3359.11) rotate(-180) scale(1 -1)" gradientUnits="userSpaceOnUse">
      <stop offset="0" stop-color="#fff"/>
      <stop offset="1" stop-color="#000"/>
    </linearGradient>
    <radialGradient id="radial-gradient" cx="-3448.79" cy="219.99" fx="-3448.79" fy="219.99" r="40.91" gradientTransform="translate(-3359.11) rotate(-180) scale(1 -1)" gradientUnits="userSpaceOnUse">
      <stop offset="0" stop-color="#af8afc"/>
      <stop offset="1" stop-color="#10054d"/>
    </radialGradient>
    <linearGradient id="linear-gradient-4" x1="-3364.74" y1="230.56" x2="-3540.72" y2="-12.95" xlink:href="#linear-gradient-2"/>
    <linearGradient id="linear-gradient-5" x1="-3516.92" y1="11.31" x2="-3367.2" y2="236.44" gradientTransform="translate(-3359.11) rotate(-180) scale(1 -1)" gradientUnits="userSpaceOnUse">
      <stop offset=".01" stop-color="#9f19ab"/>
      <stop offset=".43" stop-color="#5f27bd"/>
      <stop offset=".9" stop-color="#3d065f"/>
    </linearGradient>
    <linearGradient id="linear-gradient-6" x1="-3327.35" y1="235.85" x2="-3465.87" y2="14.53" xlink:href="#linear-gradient"/>
    <radialGradient id="radial-gradient-2" cx="-3366.65" cy="109.81" fx="-3366.65" fy="109.81" r="23.58" xlink:href="#radial-gradient"/>
    <linearGradient id="linear-gradient-7" x1="-3439.63" y1="81.69" x2="-3423.89" y2="71.07" gradientTransform="translate(-3359.11) rotate(-180) scale(1 -1)" gradientUnits="userSpaceOnUse">
      <stop offset="0" stop-color="#fdd65b"/>
      <stop offset=".01" stop-color="#f6d058"/>
      <stop offset=".13" stop-color="#bda044"/>
      <stop offset=".25" stop-color="#8b7532"/>
      <stop offset=".37" stop-color="#605122"/>
      <stop offset=".49" stop-color="#3d3416"/>
      <stop offset=".62" stop-color="#221d0c"/>
      <stop offset=".74" stop-color="#0f0c05"/>
      <stop offset=".87" stop-color="#030301"/>
      <stop offset="1" stop-color="#000"/>
    </linearGradient>
    <linearGradient id="linear-gradient-8" x1="-3401.11" y1="191.05" x2="-3377.77" y2="175.29" gradientTransform="translate(-3359.11) rotate(-180) scale(1 -1)" gradientUnits="userSpaceOnUse">
      <stop offset="0" stop-color="#2af6ff"/>
      <stop offset=".02" stop-color="#28eef6"/>
      <stop offset=".13" stop-color="#1fb7bd"/>
      <stop offset=".25" stop-color="#16868b"/>
      <stop offset=".37" stop-color="#0f5d60"/>
      <stop offset=".49" stop-color="#0a3b3d"/>
      <stop offset=".62" stop-color="#052122"/>
      <stop offset=".74" stop-color="#020e0f"/>
      <stop offset=".87" stop-color="#000303"/>
      <stop offset="1" stop-color="#000"/>
    </linearGradient>
    <linearGradient id="linear-gradient-9" x1="-3392.53" y1="193.91" x2="-3368.31" y2="186.66" gradientTransform="translate(-3359.11) rotate(-180) scale(1 -1)" gradientUnits="userSpaceOnUse">
      <stop offset=".04" stop-color="#138bbd"/>
      <stop offset=".23" stop-color="#169ac6"/>
      <stop offset=".59" stop-color="#1ec2df"/>
      <stop offset="1" stop-color="#2af6ff"/>
    </linearGradient>
    <linearGradient id="linear-gradient-10" x1="-3429.43" y1="196.93" x2="-3373.94" y2="184.49" xlink:href="#linear-gradient-9"/>
    <linearGradient id="linear-gradient-11" x1="-3390.6" y1="164.61" x2="-3399.29" y2="181.16" xlink:href="#linear-gradient-9"/>
    <linearGradient id="linear-gradient-12" x1="-3401.11" y1="159.66" x2="-3377.77" y2="143.9" gradientTransform="translate(-3359.11) rotate(-180) scale(1 -1)" gradientUnits="userSpaceOnUse">
      <stop offset="0" stop-color="#c211a1"/>
      <stop offset=".01" stop-color="#bc109c"/>
      <stop offset=".15" stop-color="#8b0c73"/>
      <stop offset=".29" stop-color="#60084f"/>
      <stop offset=".42" stop-color="#3d0533"/>
      <stop offset=".56" stop-color="#22031c"/>
      <stop offset=".7" stop-color="#0f010c"/>
      <stop offset=".85" stop-color="#030003"/>
      <stop offset="1" stop-color="#000"/>
    </linearGradient>
    <linearGradient id="linear-gradient-13" x1="-3392.53" y1="162.53" x2="-3368.31" y2="155.27" gradientTransform="translate(-3359.11) rotate(-180) scale(1 -1)" gradientUnits="userSpaceOnUse">
      <stop offset=".04" stop-color="#9f19ab"/>
      <stop offset=".24" stop-color="#ae24b0"/>
      <stop offset=".65" stop-color="#d643bf"/>
      <stop offset="1" stop-color="#ff63ce"/>
    </linearGradient>
    <linearGradient id="linear-gradient-14" x1="-3429.43" y1="165.54" x2="-3373.94" y2="153.1" xlink:href="#linear-gradient-13"/>
    <linearGradient id="linear-gradient-15" x1="-3390.6" y1="133.22" x2="-3399.29" y2="149.77" xlink:href="#linear-gradient-13"/>
    <linearGradient id="linear-gradient-16" x1="116.93" y1="53.99" x2="126.91" y2="53.99" gradientUnits="userSpaceOnUse">
      <stop offset="0" stop-color="#9f19ab"/>
      <stop offset=".18" stop-color="#80159f"/>
      <stop offset=".37" stop-color="#661396"/>
      <stop offset=".57" stop-color="#53118f"/>
      <stop offset=".77" stop-color="#48108b"/>
      <stop offset="1" stop-color="#45108a"/>
    </linearGradient>
    <linearGradient id="linear-gradient-17" x1="-3401.11" y1="136.28" x2="-3377.77" y2="120.53" xlink:href="#linear-gradient-12"/>
    <linearGradient id="linear-gradient-18" y1="139.15" x2="-3368.31" y2="131.9" xlink:href="#linear-gradient-13"/>
    <linearGradient id="linear-gradient-19" x1="-3429.43" y1="142.17" x2="-3373.94" y2="129.73" xlink:href="#linear-gradient-13"/>
    <linearGradient id="linear-gradient-20" x1="-3390.6" y1="109.84" x2="-3399.29" y2="126.4" xlink:href="#linear-gradient-13"/>
    <linearGradient id="linear-gradient-21" x1="-3401.11" y1="112.35" x2="-3377.77" y2="96.59" xlink:href="#linear-gradient-12"/>
    <linearGradient id="linear-gradient-22" x1="-3392.53" y1="115.22" x2="-3368.31" y2="107.97" xlink:href="#linear-gradient-13"/>
    <linearGradient id="linear-gradient-23" x1="-3429.43" y1="118.24" x2="-3373.94" y2="105.8" xlink:href="#linear-gradient-13"/>
    <linearGradient id="linear-gradient-24" x1="-3390.6" y1="85.91" x2="-3399.29" y2="102.47" xlink:href="#linear-gradient-13"/>
    <linearGradient id="linear-gradient-25" x1="-3484.98" y1="151.2" x2="-3460.81" y2="122.99" gradientTransform="translate(-3359.11) rotate(-180) scale(1 -1)" gradientUnits="userSpaceOnUse">
      <stop offset="0" stop-color="#b086cc"/>
      <stop offset=".04" stop-color="#a27bbc"/>
      <stop offset=".17" stop-color="#775b8b"/>
      <stop offset=".3" stop-color="#533f60"/>
      <stop offset=".44" stop-color="#35283d"/>
      <stop offset=".57" stop-color="#1d1622"/>
      <stop offset=".71" stop-color="#0d0a0f"/>
      <stop offset=".85" stop-color="#030203"/>
      <stop offset="1" stop-color="#000"/>
    </linearGradient>
    <linearGradient id="linear-gradient-26" x1="-3452.81" y1="164.42" x2="-3426.95" y2="151.89" gradientTransform="translate(-3359.11) rotate(-180) scale(1 -1)" gradientUnits="userSpaceOnUse">
      <stop offset="0" stop-color="#9f79c8"/>
      <stop offset=".14" stop-color="#a47fca"/>
      <stop offset=".33" stop-color="#b491d3"/>
      <stop offset=".55" stop-color="#cdafe1"/>
      <stop offset=".58" stop-color="#d1b4e3"/>
      <stop offset=".76" stop-color="#dac3e8"/>
      <stop offset="1" stop-color="#ebdef3"/>
    </linearGradient>
    <linearGradient id="linear-gradient-27" x1="-3520.49" y1="168.3" x2="-3454.41" y2="123.87" xlink:href="#linear-gradient-26"/>
    <linearGradient id="linear-gradient-28" x1="-3466.95" y1="109.03" x2="-3483.16" y2="132.7" xlink:href="#linear-gradient-26"/>
  </defs>
  <g class="cls-65">
    <g id="Layer_1" data-name="Layer 1">
      <g class="cls-40">
        <path class="cls-66" d="M86.64,240.02c3.18,0,6.06-.69,8.34-2.01l57.91-33.63c3.04-1.76,4.78-4.53,4.78-7.62,0-3.38-2.1-6.54-5.76-8.65l-50.82-19.55c-2.88-1.66-6.47-2.57-10.13-2.57-3.18,0-6.06,.69-8.34,2.01l-38.92,22.8c-3.04,1.76-4.78,4.53-4.78,7.62,0,3.38,2.1,6.54,5.76,8.65l31.83,30.38c2.88,1.66,6.47,2.57,10.13,2.57Z"/>
        <path class="cls-10" d="M82.85,168.37l-38.48,22.55s-.46,.27-.48,.28c-3.03,1.78-4.39,4.59-4.22,7.62s2.48,6.49,5.81,8.41l31.26,29.83c2.98,1.72,6.8,2.57,10.44,2.39,2.89,0,6.11-.98,8.18-2.18l57.3-33.28c2.92-1.69,4.58-4.34,4.56-7.27-.01-3.21-2.03-6.21-5.54-8.24l-50.5-19.43c-1.02-.59-2.46-1.19-3.64-1.57-2.01-.65-4.19-1.04-6.41-1.06-3.15-.03-6.04,.64-8.29,1.94Z"/>
        <path class="cls-39" d="M83.07,168.75l-38.53,22.57s-.45,.26-.48,.28c-3.03,1.81-4,4.62-3.65,7.61,.32,2.75,2.87,6.45,5.86,8.18l30.68,29.28c3.08,1.78,7.13,2.57,10.76,2.21,2.6,0,6.16-1.27,8.03-2.34l56.7-32.93c2.8-1.62,4.37-4.14,4.34-6.92-.03-3.03-1.95-5.88-5.32-7.82l-50.19-19.31c-.92-.53-2.56-1.19-3.62-1.55-1.98-.66-4.15-1.09-6.34-1.13-3.12-.06-6.01,.58-8.25,1.87Z"/>
        <path class="cls-41" d="M83.29,169.14l-38.57,22.6s-.44,.26-.48,.29c-3.02,1.84-4.13,4.75-3.08,7.6,0,2.46,3.25,6.4,5.91,7.94l30.11,28.73c3.19,1.84,7.47,2.57,11.08,2.03,2.31,0,6.21-1.55,7.87-2.51l56.1-32.58c2.68-1.55,4.16-3.94,4.12-6.57-.04-2.85-1.88-5.55-5.09-7.41l-49.87-19.18c-.82-.47-2.67-1.2-3.61-1.52-1.96-.68-4.1-1.14-6.28-1.21-3.1-.09-5.99,.53-8.2,1.8Z"/>
        <path class="cls-43" d="M83.51,169.52l-38.61,22.62c-.06,.04-.42,.25-.48,.29-3.01,1.86-3.91,4.83-2.52,7.6,0,2.15,3.64,6.36,5.97,7.7l29.53,28.18c3.29,1.9,7.8,2.58,11.39,1.84,2.02,0,6.26-1.84,7.71-2.68l55.5-32.23c2.56-1.48,3.95-3.74,3.89-6.22-.06-2.68-1.8-5.22-4.87-6.99l-49.56-19.06c-.71-.41-2.77-1.21-3.59-1.5-1.93-.69-4.05-1.2-6.22-1.28-3.07-.12-5.97,.47-8.15,1.73Z"/>
        <path class="cls-42" d="M83.73,169.9l-38.66,22.65c-.08,.04-.41,.24-.48,.29-3,1.89-3.69,4.9-1.95,7.59,0,1.85,4.02,6.31,6.02,7.46l28.96,27.64c3.4,1.96,8.13,2.58,11.71,1.66,1.73,0,6.31-2.13,7.56-2.84l54.9-31.88c2.44-1.41,3.74-3.55,3.67-5.87-.07-2.5-1.73-4.89-4.65-6.58l-49.24-18.94c-.61-.35-2.87-1.22-3.57-1.48-1.91-.7-4-1.25-6.15-1.36-3.04-.15-5.94,.41-8.11,1.66Z"/>
        <path class="cls-45" d="M83.95,170.28l-38.7,22.67c-.09,.05-.39,.23-.48,.29-3,1.92-3.47,4.97-1.38,7.58,0,1.54,4.4,6.26,6.07,7.22l28.38,27.09c3.5,2.02,8.46,2.58,12.02,1.48,1.44,0,6.36-2.41,7.4-3.01l54.3-31.53c2.32-1.34,3.53-3.35,3.45-5.52-.09-2.32-1.65-4.56-4.43-6.16l-48.93-18.82c-.51-.29-2.97-1.23-3.55-1.45-1.88-.71-3.95-1.31-6.09-1.43-3.01-.18-5.92,.36-8.06,1.6Z"/>
        <path class="cls-44" d="M84.17,170.67l-38.74,22.7c-.11,.06-.38,.23-.48,.29-2.99,1.94-3.25,5.05-.81,7.58,0,1.23,4.79,6.22,6.12,6.99l27.81,26.54c3.61,2.08,8.79,2.58,12.34,1.29,1.16,0,6.42-2.7,7.24-3.18l53.69-31.18c2.2-1.27,3.32-3.15,3.23-5.17-.1-2.14-1.58-4.23-4.2-5.75l-48.61-18.7c-.41-.24-3.07-1.25-3.54-1.43-1.86-.73-3.91-1.36-6.03-1.51-2.99-.21-5.89,.3-8.02,1.53Z"/>
        <path class="cls-49" d="M84.39,171.05l-38.79,22.72c-.12,.07-.37,.22-.48,.29-2.98,1.97-3.04,5.12-.25,7.57,0,.92,5.17,6.17,6.17,6.75l27.23,25.99c3.71,2.14,9.12,2.58,12.66,1.11,.87,0,6.47-2.98,7.09-3.34l53.09-30.84c2.08-1.2,3.12-2.95,3-4.82-.12-1.97-1.5-3.9-3.98-5.33l-48.3-18.58c-.31-.18-3.17-1.27-3.52-1.4-1.84-.74-3.86-1.42-5.96-1.59-2.96-.24-5.87,.24-7.97,1.46Z"/>
        <path class="cls-48" d="M84.61,171.43l-38.83,22.75c-.14,.08-.35,.21-.48,.3-2.97,2-2.82,5.19,.32,7.57,0,.62,5.56,6.13,6.22,6.51l26.66,25.44c3.82,2.2,9.45,2.58,12.97,.93,.58,0,6.52-3.27,6.93-3.51l52.49-30.49c1.96-1.13,2.91-2.76,2.78-4.47-.13-1.79-1.43-3.57-3.76-4.92l-47.98-18.46c-.2-.12-3.27-1.29-3.5-1.38-1.82-.75-3.81-1.47-5.9-1.66-2.93-.27-5.85,.19-7.92,1.39Z"/>
        <path class="cls-47" d="M84.83,171.82l-38.87,22.78c-.15,.09-.34,.2-.48,.3-2.97,2.02-2.6,5.27,.89,7.56,0,.31,5.94,6.08,6.27,6.27l26.08,24.89c3.92,2.26,9.79,2.58,13.29,.75,.29,0,6.57-3.56,6.77-3.68l51.89-30.14c1.84-1.07,2.7-2.56,2.56-4.12-.14-1.61-1.35-3.24-3.53-4.5l-47.67-18.34c-.1-.06-3.37-1.31-3.48-1.36-1.79-.77-3.76-1.52-5.84-1.74-2.91-.3-5.82,.13-7.88,1.32Z"/>
        <path d="M92.55,233.8l57.91-33.63c3.49-2.01,3.05-5.53-.98-7.85l-50.82-19.55c-4.03-2.32-10.12-2.58-13.61-.56l-38.92,22.8c-3.49,2.01-3.05,5.53,.98,7.85l31.83,30.38c4.03,2.32,10.12,2.58,13.61,.56Z"/>
      </g>
      <path class="cls-9" d="M92.55,233.72l57.91-33.63c1.55-.9,2.33-2.09,2.35-3.35,0-.04,0-4.33,0-4.37-.03-1.53-1.16,1.12-3.33-.13l-50.82-19.55c-4.03-2.32-10.12-2.58-13.61-.56l-38.92,22.8c-1.16,.67-2.01-2.18-2.31-1.27-.1,.3-.04,4.3-.04,4.62-.03,1.56,1.1,3.22,3.33,4.51l31.83,30.38c4.03,2.32,10.12,2.58,13.61,.56Z"/>
      <path class="cls-36" d="M92.55,229.42l57.91-33.63c3.49-2.01,3.05-5.53-.98-7.85l-50.82-19.55c-4.03-2.32-10.12-2.58-13.61-.56l-38.92,22.8c-3.49,2.01-3.05,5.53,.98,7.85l31.83,30.38c4.03,2.32,10.12,2.58,13.61,.56Z"/>
      <path class="cls-33" d="M46.14,190.62l38.92-22.8c3.49-2.01,9.58-1.76,13.61,.56l25.6,9.85c-.24,.19-.5,.38-.79,.55l-57.91,33.63c-.8,.46-1.75,.8-2.77,1.03l-15.68-14.96c-4.03-2.32-4.46-5.84-.98-7.85Z"/>
      <path class="cls-1" d="M47.11,197.75l31.83,30.38c4.03,2.32,10.12,2.58,13.61,.56l57.91-33.63c1.45-.84,2.21-1.93,2.33-3.09,.18,1.42-.58,2.81-2.33,3.82l-57.91,33.63c-3.49,2.01-9.58,1.76-13.61-.56l-31.83-30.38c-2.36-1.36-3.47-3.13-3.3-4.76,.18,1.42,1.3,2.88,3.3,4.04Z"/>
      <path class="cls-35" d="M16.9,229.61l142.21-82.17c7.27-4.2,13.17-15.46,13.17-25.15V13.51c0-9.69-5.89-14.15-13.17-9.95L16.9,85.74c-7.27,4.2-13.17,15.46-13.17,25.15v108.77c0,9.69,5.89,14.15,13.17,9.95Z"/>
      <path class="cls-38" d="M15.2,222.04l140.21-81c5.85-3.72,9.47-11.15,9.47-18.75V12.8c0-1.8-1.96-2.92-3.51-2.01-.18,.11-.32,.19-.41,.24L20.59,92.14c-6.97,4.02-9.47,11.15-9.47,18.75v109.13c0,1.93,2.09,3.14,3.77,2.19,.13-.08,.24-.14,.31-.18Z"/>
      <path class="cls-32" d="M11.13,110.89v109.13c0,1.93,2.09,3.14,3.77,2.19,.13-.08,.24-.14,.31-.18l140.21-81c5.85-3.72,9.47-11.15,9.47-18.75V12.8c0-1.8-1.96-2.92-3.51-2.01-.18,.11-.32,.19-.41,.24L20.6,92.14c-6.97,4.02-9.47,11.15-9.47,18.75Zm1.48,0c0-5.67,1.51-13.31,8.73-17.47L162.11,12.07c.14-.08,.28-.12,.43-.12,.41,0,.86,.33,.86,.85V122.28c0,7.24-3.45,14.11-8.73,17.47L14.16,220.93c-.16,.09-.34,.14-.51,.14-.5,0-1.04-.4-1.04-1.04V110.89Z"/>
      <g>
        <g>
          <path class="cls-22" d="M108.08,102.19l-6.61,3.82c-1.05,.61-1.91-.04-1.91-1.45v-8.81c0-1.4,.86-3.05,1.91-3.66l6.61-3.82c1.05-.61,1.91,.04,1.91,1.45v8.81c0,1.4-.86,3.05-1.91,3.66Z"/>
          <path class="cls-22" d="M100.73,104.08c-.04,.09-.5,2-.5,2l2.41,1.4,1.08-2.88-2.98-.53Z"/>
          <polygon class="cls-22" points="109.26 88.13 111.67 89.52 110.66 91.31 108.61 90.09 109.26 88.13"/>
          <path class="cls-16" d="M110.46,103.56l-6.61,3.82c-1.05,.61-1.91-.04-1.91-1.45v-8.81c0-1.4,.86-3.05,1.91-3.66l6.61-3.82c1.05-.61,1.91,.04,1.91,1.45v8.81c0,1.4-.86,3.05-1.91,3.66Z"/>
        </g>
        <g>
          <path class="cls-13" d="M107.86,102.47c1.93-1.72,3.13-4.88,2.67-7.07-.45-2.19-2.38-2.57-4.31-.86s-3.13,4.88-2.67,7.07c.45,2.19,2.38,2.57,4.31,.86Zm-2.29-2.65c-.19-.9,.31-2.21,1.11-2.92,.8-.71,1.59-.55,1.78,.35s-.31,2.21-1.11,2.92c-.8,.71-1.59,.55-1.78-.35Z"/>
          <g>
            <polygon class="cls-13" points="111.27 95.73 111.18 95.28 111.02 94.51 110.93 94.06 109.96 94.45 110.13 95.27 110.3 96.09 110.47 96.91 111.27 95.73"/>
            <polygon class="cls-13" points="103.16 102.94 103.07 102.49 102.91 101.73 102.82 101.28 103.62 100.09 103.79 100.91 103.96 101.73 104.13 102.55 103.16 102.94"/>
          </g>
          <g>
            <polygon class="cls-13" points="107.26 103.76 107.66 103.41 108.33 102.81 108.73 102.45 108.87 101.14 108.15 101.78 107.42 102.42 106.7 103.07 107.26 103.76"/>
            <polygon class="cls-13" points="105.36 94.55 105.76 94.2 106.43 93.6 106.83 93.25 107.38 93.94 106.66 94.58 105.94 95.23 105.22 95.87 105.36 94.55"/>
          </g>
          <g>
            <polygon class="cls-13" points="110.18 100.26 110.4 99.69 110.76 98.73 110.98 98.16 110.4 97.5 110 98.54 109.61 99.57 109.22 100.6 110.18 100.26"/>
            <polygon class="cls-13" points="103.11 98.85 103.32 98.28 103.69 97.32 103.9 96.75 104.86 96.4 104.47 97.44 104.08 98.47 103.69 99.5 103.11 98.85"/>
          </g>
          <g>
            <polygon class="cls-13" points="104.21 104.18 104.55 104.25 105.14 104.37 105.49 104.44 106.27 103.23 105.64 103.1 105.01 102.98 104.38 102.85 104.21 104.18"/>
            <polygon class="cls-13" points="108.6 92.57 108.94 92.64 109.53 92.76 109.88 92.83 109.7 94.15 109.07 94.03 108.44 93.9 107.81 93.78 108.6 92.57"/>
          </g>
        </g>
      </g>
      <path class="cls-37" d="M13.16,83.75L155.38,1.58c2.88-1.66,5.54-1.97,7.7-1.13,.28,.11,3.95,2.06,4.2,2.2,0,0,.01,0,.02,.01-2.25-1.09-5.1-.89-8.2,.9L16.9,85.74c-7.27,4.2-13.17,15.46-13.17,25.15v108.77c0,6.05,2.3,10.06,5.79,11.2-.28,.02-.64-.1-1.15-.39-.17-.1-4.15-2.34-4.31-2.46C1.56,226.25,0,222.66,0,217.67V108.91c0-9.69,5.89-20.96,13.16-25.15Z"/>
      <path class="cls-2" d="M16.26,85.42L158.48,3.25c2.98-1.72,5.72-1.97,7.93-1.01-1.88-.3-4.05,.16-6.35,1.49L17.84,85.89c-7.27,4.2-13.16,15.46-13.16,25.15v108.76c0,5.72,2.06,9.59,5.24,10.97-4.06-.64-6.81-4.82-6.81-11.44V110.57c0-9.69,5.89-20.96,13.16-25.15Z"/>
      <polygon class="cls-4" points="63.69 72.47 74.76 66.66 86.99 72.94 86.99 83.91 75.95 89.66 75.95 89.67 75.95 89.66 75.94 89.67 75.94 89.66 63.69 83.44 63.69 72.47"/>
      <g>
        <polygon class="cls-3" points="17.5 176.7 33.49 167.39 51.14 177.45 51.14 195.02 35.21 204.22 35.21 204.24 35.2 204.23 35.19 204.24 35.19 204.22 17.5 194.26 17.5 176.7"/>
        <g class="cls-46">
          <polygon class="cls-34" points="35.21 186.81 35.21 204.24 27.96 200.05 27.96 182.49 35.21 186.81"/>
          <polygon class="cls-59" points="35.19 186.81 35.19 204.24 51.14 195.02 51.14 177.45 35.19 186.81"/>
          <polygon class="cls-60" points="51.14 177.45 35.19 186.81 27.96 182.49 43.95 173.18 51.14 177.45"/>
        </g>
      </g>
      <g>
        <polygon class="cls-5" points="17.5 145.31 33.49 136 51.14 146.06 51.14 163.63 35.21 172.84 35.21 172.85 35.2 172.84 35.19 172.85 35.19 172.84 17.5 162.88 17.5 145.31"/>
        <g class="cls-46">
          <polygon class="cls-58" points="35.21 155.42 35.21 172.85 27.96 168.67 27.96 151.1 35.21 155.42"/>
          <polygon class="cls-50" points="35.19 155.42 35.19 172.85 51.14 163.63 51.14 146.06 35.19 155.42"/>
          <polygon class="cls-55" points="51.14 146.06 35.19 155.42 27.96 151.1 43.95 141.79 51.14 146.06"/>
        </g>
      </g>
      <path class="cls-19" d="M116.54,115.62c-.2,.22-.85,.82-.95,1.46-.1,.65-.3,1.19,0,2.14,.3,.95,.78,.79,.78,.79,0,0,.27,1.75,.96,2.79,.7,1.05,2.54,1.44,3.44,1.44,1.54,0,1.36-1.05,.49-2.64-.92-1.69-1.57-2.97-1.53-4.25,.05-1.27,0-2.72,0-2.72l-3.19,.98Z"/>
      <path class="cls-19" d="M131.05,107.8s.21-.38-.21,.39c-.43,.77-.85,2.18-.89,3.21-.04,1.03,1.77,1.37,1.77,1.37l.49-.32s.22,.54,1.7,1.42c1.49,.87,3.27,.95,4.01,.54,.73-.41,1.13-.6-.32-1.97-1.45-1.37-3.8-4.3-3.8-4.3l-2.75-.33Z"/>
      <path class="cls-67" d="M125.27,88.54c.43,1.58,2.26,4.95,3.55,5.9-1.07,5.57,.44,10.41,1.15,15.02,2.04,1.14,3.23,.67,4.45-.43,.07-1.99-.37-14.4-.14-15.42,.29-1.31,.03-1.4,0-1.84-.12-1.99-.09-3.52-.41-5.46-.57-3.42-2.62-10.05-2.61-10.05,.47-.35-7.28,1.55-8.04,2.02-1.37,.85,1.25,7.33,2.05,10.26Z"/>
      <path class="cls-20" d="M121.6,59.48c.45-.89,1.16-1.07,1.91-1.32,3.71-1.25,6.91,1.33,6.03,3.5,.79,.48,2.63,6.42,2.69,7.4,.04,.04,.09,.08,.16,.13-.16,1.15-1.19,2.02-2.44,2.58-.05-.12-.1-.24-.13-.36-1.28-.14-3.86-2.88-4.44-5.3-1.77-1.42-4.29-5.58-3.77-6.63Z"/>
      <path class="cls-31" d="M119.79,116.27c-.42,.17-.81,.44-1.26,.54-.96,.22-1.92-.24-2.74-.76-.6-3.27-.09-7.92,.44-11.09,.33-1.97,.99-4.12,2.68-6.5-.57-1.09-.97-3.71-1.03-4.49-.16-2.01-.1-5.31,.59-7.34-.3-.62-.54-1.26-.74-1.75-.87-2.1-.16-4.88,1.25-6.9,.32-.46,3.06,.98,4.61,1.49,1.36,.45,3.15,1.13,4.64,.74,.2,1.08,.13,2.2-.24,3.28-.24,.69-.49,2.61-.91,3.21-.49,2.77-1.25,9.16-2.17,12.97-.16,.67-.33,1.59-1.03,1.97-1.52,6.24-3.99,14.28-4.08,14.62Z"/>
      <path class="cls-27" d="M130.17,78.28s0,0,0,0c.02,.03,.02,.04,0,0Z"/>
      <path class="cls-21" d="M123.15,59.09c1.29-.44,2.13-.75,4.54,1.9,1.7,1.86,2.7,7.18,2.56,8.03-.11,.67-.06,6.02,2.34,9.26-1.29,1.99-4.51,4.24-7.02,4.53-3.65,.42-6-.42-7.94-1.97,.13-.8,1.33-3.58,.68-5.22-1.12-2.83-2.09-4.65-2.68-7.73-.94-4.91,4.66-7.82,7.53-8.8Z"/>
      <path class="cls-15" d="M123.83,58.53s.13,1.61,1.14,3.99c.17,1.72-.5,2.91-2.34,1.59-1.84-1.32-3.67-3.18-3.67-3.18l.39-3.08,4.48,.68Z"/>
      <path class="cls-20" d="M118.57,62.31c.17,.76,1.08,1.54,1.7,1.77,.68,.25,3.39,1.04,3.12,2.29,.63,.14,1.11-.2,1.16-.65,.03-.31-.04-.66,.2-.95,.36-.43,.43-.2,.89-.11-.27-1.13-.78-1.62-1.96-1.81-1.12-.17-1.72,.05-2.97-.84-.92-.65-1.33-1.2-1.64-2.13-.63,.38-.76,1.34-.52,2.41Z"/>
      <path class="cls-20" d="M124.35,59.36s1.09,1.14,1.6,1.81c.51,.68,.44,1.44,.88,1.77,.44,.33,.86,.45,.86,.45,0,0-.85,.21-1.15,.05-.3-.15-.67-.24-.75-.15-.08,.09-.67,.74-.71,.65-.04-.08-.94-.51-.94-.51,0,0,.48-.79,.25-1.73-.23-.94-.76-1.82-.76-1.82l.72-.54Z"/>
      <path class="cls-14" d="M121.6,60.5c2.76,1.49,4.09-1,4.14-3,.04-1.9-.24-4.5-2.18-5.2-1.29-.46-4.98,.57-5.25,1.89-.53,2.57,1.05,5.09,3.29,6.31Z"/>
      <path class="cls-57" d="M116.93,55.38c-.02,1.72,1.97,2.93,2.37,3.63,.46-1.33,1.65-2.61,1.62-3.78,.59,.37,2.36,.61,3-.88,.93,.02,1.91-.35,2.56-1,.39-.39,.66-1.09,.18-1.54-.2-.19-.43-.23-.64-.18,.36-1.67-1.43-3.74-2.49-1.95-.34,.58-.22,.8-.87,1.16-.6,.34-.86,.21-1.53,.22-.75,0-1.53,.08-2.18,.5-.7,.46-1.12,1.25-.95,2.02-.64,.28-1.06,1.16-1.07,1.81Z"/>
      <path class="cls-14" d="M120.74,56.75s-.75-.9-1.22-.13c-.42,.68-.23,1.54,.71,1.66,.83,.11,.51-1.53,.51-1.53Z"/>
      <path class="cls-20" d="M131.63,69.56c.22-.06,4.21,.93,6.09,2.22s2.52,2.24,2.12,4.03c-.4,1.79-6.23,.21-7.94-.99-1.71-1.2-1.27-4.77-1.27-4.77l1.01-.49Z"/>
      <path class="cls-22" d="M126.42,64.68c.31-.49-.02-1.3-.02-1.3,0,0-.2-.04-.45-.12-.2-.06-.29,.18-.29,.18,0,0,.21,.81,.21,1.17,0,0-.51-.12-.74-.17-.62-.12-.51,.58-.51,.58,0,0,.53,.11,.96,.15,.08,.26,.21,.54,.37,.82,.14,.25,.42,.35,.64,.22,.34-.2,.37-.51,.27-.85-.05-.17-.27-.45-.43-.7Z"/>
      <path class="cls-22" d="M128.02,68.28c-.61-1.69-.93-2.09-1.32-2.52-.12-.13-.51,.06-.48,.24,.3,1.75,.46,2.95,.66,5.81,.21,2.92,.54,4.99,.54,4.99,0,0,1.22,1.04,1.83,1.2,.67-1.39,.56-2.8,.56-2.8,0,0-1.15-5.13-1.79-6.91Z"/>
      <g>
        <polygon class="cls-12" points="136.55 85.96 134.22 84.55 134.85 83.99 136.25 84.65 136.55 85.96"/>
        <g>
          <path class="cls-23" d="M127.61,80.72c-.81-3.9,1.33-9.54,4.76-12.6,3.44-3.06,6.87-2.37,7.68,1.53,.81,3.9-1.33,9.54-4.76,12.6-3.44,3.06-6.87,2.37-7.68-1.53Zm6.77-2.57c1.42-1.26,2.3-3.59,1.97-5.21-.33-1.61-1.75-1.89-3.17-.63-1.42,1.26-2.3,3.59-1.97,5.21s1.75,1.89,3.17,.63Z"/>
          <g>
            <polygon class="cls-23" points="141.36 70.24 141.2 69.44 140.92 68.08 140.75 67.27 139.03 67.97 139.33 69.43 139.63 70.89 139.93 72.35 141.36 70.24"/>
            <polygon class="cls-23" points="126.92 83.09 126.75 82.29 126.47 80.93 126.31 80.13 127.74 78.02 128.04 79.48 128.34 80.94 128.64 82.4 126.92 83.09"/>
          </g>
          <g>
            <polygon class="cls-23" points="134.22 84.55 134.93 83.92 136.13 82.85 136.83 82.22 137.09 79.88 135.8 81.02 134.51 82.17 133.23 83.31 134.22 84.55"/>
            <polygon class="cls-23" points="130.84 68.15 131.54 67.52 132.74 66.45 133.45 65.82 134.44 67.06 133.15 68.2 131.87 69.35 130.58 70.49 130.84 68.15"/>
          </g>
          <g>
            <polygon class="cls-23" points="139.43 78.31 139.81 77.3 140.46 75.58 140.85 74.57 139.81 73.4 139.11 75.24 138.41 77.09 137.72 78.93 139.43 78.31"/>
            <polygon class="cls-23" points="126.82 75.8 127.21 74.79 127.86 73.07 128.24 72.06 129.95 71.44 129.25 73.28 128.56 75.12 127.86 76.97 126.82 75.8"/>
          </g>
          <g>
            <polygon class="cls-23" points="128.78 85.3 131.12 86.71 132.46 83.6 131.34 83.38 130.22 83.16 129.09 82.93 128.78 85.3"/>
            <polygon class="cls-23" points="136.6 64.61 137.22 64.74 138.27 64.95 138.89 65.07 139.56 66.15 138.58 67.43 137.45 67.21 136.33 66.99 135.21 66.76 136.6 64.61"/>
          </g>
        </g>
        <path class="cls-12" d="M143.09,68.68l-2.33-1.41s-.64,1.02-.55,1.06c.09,.04,1.61,1.69,1.61,1.69l1.28-1.34Z"/>
        <g>
          <path class="cls-18" d="M129.95,82.13c-.81-3.9,1.33-9.54,4.76-12.6,3.44-3.06,6.87-2.37,7.68,1.53,.81,3.9-1.33,9.54-4.76,12.6-3.44,3.06-6.87,2.37-7.68-1.53Zm6.77-2.57c1.42-1.26,2.3-3.59,1.97-5.21-.33-1.61-1.75-1.89-3.17-.63-1.42,1.26-2.3,3.59-1.97,5.21,.33,1.61,1.75,1.89,3.17,.63Z"/>
          <g>
            <polygon class="cls-18" points="143.7 71.65 143.53 70.85 143.25 69.49 143.09 68.68 141.36 69.38 141.67 70.84 141.97 72.3 142.27 73.76 143.7 71.65"/>
            <polygon class="cls-18" points="129.25 84.5 129.09 83.7 128.81 82.34 128.64 81.54 130.07 79.43 130.37 80.89 130.67 82.35 130.97 83.81 129.25 84.5"/>
          </g>
          <g>
            <polygon class="cls-18" points="136.55 85.96 137.26 85.33 138.46 84.26 139.17 83.63 139.42 81.29 138.14 82.43 136.85 83.58 135.56 84.72 136.55 85.96"/>
            <polygon class="cls-18" points="133.17 69.56 133.88 68.93 135.08 67.86 135.78 67.23 136.78 68.47 135.49 69.61 134.2 70.76 132.92 71.9 133.17 69.56"/>
          </g>
          <g>
            <polygon class="cls-18" points="141.77 79.72 142.15 78.71 142.8 76.99 143.18 75.98 142.14 74.81 141.45 76.65 140.75 78.49 140.05 80.34 141.77 79.72"/>
            <polygon class="cls-18" points="129.16 77.21 129.54 76.2 130.19 74.48 130.57 73.47 132.29 72.85 131.59 74.69 130.89 76.53 130.2 78.38 129.16 77.21"/>
          </g>
          <g>
            <polygon class="cls-18" points="131.12 86.71 131.73 86.83 132.78 87.04 133.4 87.16 134.8 85.01 133.67 84.79 132.55 84.57 131.43 84.34 131.12 86.71"/>
            <polygon class="cls-18" points="138.94 66.02 139.56 66.15 140.6 66.36 141.22 66.48 140.91 68.84 139.79 68.62 138.67 68.4 137.54 68.17 138.94 66.02"/>
          </g>
        </g>
        <polygon class="cls-12" points="128.24 72.06 130.57 73.47 129.16 77.21 126.82 75.8 128.24 72.06"/>
        <polygon class="cls-12" points="130.84 68.15 133.17 69.56 135.78 67.23 133.45 65.82 130.84 68.15"/>
        <polygon class="cls-12" points="126.31 80.13 128.64 81.54 129.25 84.5 126.92 83.09 126.31 80.13"/>
        <polygon class="cls-12" points="138.89 65.07 141.22 66.48 138.94 66.02 136.6 64.61 138.89 65.07"/>
      </g>
      <path class="cls-20" d="M124.92,83.79c-2.4-1.33-6.35-3.02-7.46-4.89-2.14-2.19-3.21-6.86-3.23-10.71-.02-3.27,1.9-6.83,4.23-3.88,1.72,2.18,2.27,6.48,2.79,10.99,2.43,1.21,4.28,2.44,5.41,6.09-1.15,.75-1.2,2.02-1.74,2.4Z"/>
      <path class="cls-13" d="M124.92,83.79s.06-.74,.59-1.35c.53-.61,1.15-1.05,1.15-1.05l.93,1.28-1.03,1.86s-1.13-.48-1.65-.75Z"/>
      <path class="cls-14" d="M127.6,82.68c.92-.27,2.12,.43,3.16,.76s.58,1-.39,1.05c-.98,.05-1.62-.49-1.5,.05,.12,.54,1.98,2.04,1.98,2.04,0,0-1.84,.66-3.14,0-1.31-.66-1.47-2.38-1.47-2.38,0,0-.16-1.07,1.36-1.52Z"/>
      <path class="cls-14" d="M142.5,73.95s.68,.31,1.07,1.66c.39,1.35-.68,3.07-1.49,2.67s.27-3.29,.27-3.29l.15-1.04Z"/>
      <g>
        <polygon class="cls-6" points="17.5 121.94 33.49 112.63 51.14 122.69 51.14 140.26 35.21 149.46 35.21 149.47 35.2 149.47 35.19 149.47 35.19 149.46 17.5 139.5 17.5 121.94"/>
        <g class="cls-46">
          <polygon class="cls-51" points="35.21 132.05 35.21 149.47 27.96 145.29 27.96 127.73 35.21 132.05"/>
          <polygon class="cls-56" points="35.19 132.05 35.19 149.47 51.14 140.26 51.14 122.69 35.19 132.05"/>
          <polygon class="cls-53" points="51.14 122.69 35.19 132.05 27.96 127.73 43.95 118.42 51.14 122.69"/>
        </g>
      </g>
      <g>
        <polygon class="cls-7" points="17.5 98.01 33.49 88.7 51.14 98.76 51.14 116.33 35.21 125.53 35.21 125.54 35.2 125.54 35.19 125.54 35.19 125.53 17.5 115.57 17.5 98.01"/>
        <g class="cls-46">
          <polygon class="cls-52" points="35.21 108.12 35.21 125.54 27.96 121.36 27.96 103.8 35.21 108.12"/>
          <polygon class="cls-54" points="35.19 108.12 35.19 125.54 51.14 116.33 51.14 98.76 35.19 108.12"/>
          <polygon class="cls-62" points="51.14 98.76 35.19 108.12 27.96 103.8 43.95 94.49 51.14 98.76"/>
        </g>
      </g>
      <path class="cls-13" d="M38.34,198.96l.39,.22c.29,.16,.75-.11,1.04-.6l2.3-3.96c.24-.42,.28-.86,.11-1.09l.67-1.16c1.33,.39,3.24-.83,4.45-2.92,1.33-2.29,1.33-4.76,0-5.52-1.33-.76-3.48,.49-4.81,2.78-1.22,2.1-1.31,4.34-.31,5.29l-.67,1.16c-.28-.02-.65,.23-.89,.64l-2.3,3.96c-.29,.5-.29,1.03,0,1.2Zm4.98-11.78c.87-1.51,2.29-2.33,3.17-1.83,.87,.5,.87,2.13,0,3.63-.87,1.51-2.29,2.33-3.17,1.83-.87-.5-.87-2.13,0-3.63Z"/>
      <g>
        <g>
          <polygon class="cls-8" points="68.3 138.37 135.65 99.34 160.16 113.9 160.16 136.85 92.86 175.78 92.86 175.79 92.85 175.79 92.84 175.79 92.84 175.78 68.3 161.32 68.3 138.37"/>
          <g class="cls-46">
            <polygon class="cls-63" points="92.86 152.96 92.86 175.79 86.24 171.98 86.24 149.02 92.86 152.96"/>
            <polygon class="cls-61" points="92.84 152.96 92.84 175.79 160.16 136.85 160.16 113.9 92.84 152.96"/>
            <polygon class="cls-64" points="160.16 113.9 92.84 152.96 86.24 149.02 153.59 110 160.16 113.9"/>
          </g>
        </g>
        <g>
          <polygon class="cls-25" points="147.8 140.23 155.55 135.75 155.55 120.57 147.8 125.05 147.8 140.23"/>
          <polygon class="cls-28" points="137.63 146.1 145.39 141.62 145.39 126.44 137.63 130.91 137.63 146.1"/>
          <polygon class="cls-24" points="127.47 151.97 135.22 147.49 135.22 132.31 127.47 136.78 127.47 151.97"/>
          <polygon class="cls-26" points="117.3 157.84 125.06 153.36 125.06 138.17 117.3 142.65 117.3 157.84"/>
          <polygon class="cls-29" points="107.14 163.7 114.89 159.23 114.89 144.04 107.14 148.52 107.14 163.7"/>
          <polygon class="cls-30" points="96.97 169.57 104.73 165.09 104.73 149.91 96.97 154.39 96.97 169.57"/>
        </g>
      </g>
      <g>
        <g>
          <path class="cls-11" d="M91.66,136.41l-6.61,3.82c-1.05,.61-1.91-.04-1.91-1.45v-8.81c0-1.4,.86-3.05,1.91-3.66l6.61-3.82c1.05-.61,1.91,.04,1.91,1.45v8.81c0,1.4-.86,3.05-1.91,3.66Z"/>
          <path class="cls-11" d="M84.32,138.31c-.04,.09-.5,2-.5,2l2.41,1.4,1.08-2.88-2.98-.53Z"/>
          <polygon class="cls-11" points="92.85 122.36 95.25 123.75 94.25 125.54 92.2 124.32 92.85 122.36"/>
          <path class="cls-17" d="M94.04,137.78l-6.61,3.82c-1.05,.61-1.91-.04-1.91-1.45v-8.81c0-1.4,.86-3.05,1.91-3.66l6.61-3.82c1.05-.61,1.91,.04,1.91,1.45v8.81c0,1.4-.86,3.05-1.91,3.66Z"/>
        </g>
        <g>
          <path class="cls-13" d="M88.53,132.04l.67,.31-1.46,2.35,1.46,.67-.67,1.08-2.11-.99,2.11-3.42Z"/>
          <path class="cls-13" d="M90.99,129.66l1.18-.68-1.51,6.83-1.18,.68,1.51-6.83Z"/>
          <path class="cls-13" d="M93.9,131.15l-1.46-.67,.67-1.08,2.11,.99-2.11,3.41-.67-.3,1.46-2.35Z"/>
        </g>
      </g>
      <g>
        <g>
          <path class="cls-20" d="M83.72,85.85l-6.61,3.82c-1.05,.61-1.91-.04-1.91-1.45v-8.81c0-1.4,.86-3.05,1.91-3.66l6.61-3.82c1.05-.61,1.91,.04,1.91,1.45v8.81c0,1.4-.86,3.05-1.91,3.66Z"/>
          <path class="cls-20" d="M76.42,87.79c-.04,.09-.5,2-.5,2l2.41,1.4,1.08-2.88-2.98-.53Z"/>
          <polygon class="cls-20" points="84.94 71.84 87.35 73.23 86.35 75.02 84.3 73.8 84.94 71.84"/>
          <path class="cls-21" d="M86.1,87.22l-6.61,3.82c-1.05,.61-1.91-.04-1.91-1.45v-8.81c0-1.4,.86-3.05,1.91-3.66l6.61-3.82c1.05-.61,1.91,.04,1.91,1.45v8.81c0,1.4-.86,3.05-1.91,3.66Z"/>
        </g>
        <g>
          <path class="cls-13" d="M78.96,84.27v-.33c.32-.75,.63-.86,.63-2.34,0-.5,.25-1.48,1.46-2.18,.33-.19,.43-.25,.92-.44v.98c-.19,.11-.47,.19-.72,.33-.29,.17-.54,.43-.55,.93,0,1.3-.32,1.7-.52,2.05v.33c.4,.19,.47,.01,.48,1.52,0,.51,.31,.45,.63,.26,.27-.16,.55-.4,.67-.47v.99c-.44,.35-.53,.43-.87,.63-1.01,.58-1.51,.34-1.51-.35,0-1.51-.26-1.43-.63-1.9Z"/>
          <path class="cls-13" d="M84.36,83.62c.32-.19,.63-.48,.63-1,0-1.51,.08-1.42,.48-2.07v-.33c-.2-.11-.52-.15-.52-1.44,0-.5-.25-.47-.54-.3-.25,.14-.53,.38-.72,.5v-.98c.49-.38,.59-.43,.92-.63,1.18-.68,1.46-.06,1.46,.49v.02c0,1.47,.31,1.21,.63,1.59v.33c-.37,.91-.63,1.12-.63,2.63,0,.69-.5,1.51-1.51,2.09-.34,.2-.43,.21-.87,.38v-.99c.12-.07,.4-.15,.68-.31Z"/>
        </g>
      </g>
    </g>
  </g>
</svg>