<?xml version="1.0" encoding="UTF-8"?>
<svg xmlns="http://www.w3.org/2000/svg" xmlns:xlink="http://www.w3.org/1999/xlink" viewBox="0 0 139.4 250.61">
  <defs>
    <style>
      .cls-1 {
        fill: url(#linear-gradient);
      }

      .cls-2 {
        fill: #25054d;
      }

      .cls-3 {
        fill: url(#linear-gradient-4);
      }

      .cls-3, .cls-4 {
        mix-blend-mode: multiply;
      }

      .cls-4 {
        fill: url(#linear-gradient-3);
      }

      .cls-5 {
        fill: url(#New_Gradient_Swatch_copy_26);
      }

      .cls-6 {
        fill: url(#linear-gradient-9);
      }

      .cls-6, .cls-7, .cls-8 {
        mix-blend-mode: screen;
      }

      .cls-7 {
        fill: url(#linear-gradient-6);
      }

      .cls-9 {
        fill: url(#linear-gradient-8);
      }

      .cls-10 {
        fill: url(#linear-gradient-2);
      }

      .cls-11 {
        fill: url(#linear-gradient-7);
      }

      .cls-12 {
        fill: url(#linear-gradient-5);
      }

      .cls-8 {
        opacity: .5;
      }

      .cls-13 {
        fill: url(#radial-gradient);
      }

      .cls-13, .cls-14 {
        mix-blend-mode: color-dodge;
      }

      .cls-15 {
        isolation: isolate;
      }

      .cls-14 {
        fill: url(#Radial_Gradient_1);
      }
    </style>
    <linearGradient id="linear-gradient" x1="-1857.51" y1="165.66" x2="-1998.96" y2="165.66" gradientTransform="translate(-1858.84) rotate(-180) scale(1 -1)" gradientUnits="userSpaceOnUse">
      <stop offset=".06" stop-color="#7c1dc9"/>
      <stop offset=".09" stop-color="#6c40ca"/>
      <stop offset=".16" stop-color="#459bce"/>
      <stop offset=".21" stop-color="#2dd6d1"/>
      <stop offset=".24" stop-color="#3cb2d2"/>
      <stop offset=".28" stop-color="#4b92d4"/>
      <stop offset=".32" stop-color="#5679d6"/>
      <stop offset=".37" stop-color="#5e67d7"/>
      <stop offset=".41" stop-color="#635cd7"/>
      <stop offset=".47" stop-color="#6559d8"/>
      <stop offset=".6" stop-color="#6f3ed1"/>
      <stop offset=".74" stop-color="#7826cb"/>
      <stop offset=".84" stop-color="#7c1dc9"/>
      <stop offset=".87" stop-color="#7a20c9"/>
      <stop offset=".9" stop-color="#762bcc"/>
      <stop offset=".92" stop-color="#6f3ed1"/>
      <stop offset=".95" stop-color="#6459d8"/>
      <stop offset=".98" stop-color="#587be0"/>
      <stop offset=".99" stop-color="#5090e6"/>
    </linearGradient>
    <linearGradient id="linear-gradient-2" x1="-2016.41" y1="56.44" x2="-1846.02" y2="153.7" gradientTransform="translate(-1858.84) rotate(-180) scale(1 -1)" gradientUnits="userSpaceOnUse">
      <stop offset=".03" stop-color="#7c1dc9"/>
      <stop offset=".24" stop-color="#6b40cc"/>
      <stop offset=".7" stop-color="#409bd4"/>
      <stop offset="1" stop-color="#23dbdb"/>
    </linearGradient>
    <radialGradient id="Radial_Gradient_1" data-name="Radial Gradient 1" cx="-2369.62" cy="7.12" fx="-2369.62" fy="7.12" r="58.92" gradientTransform="translate(-2143.47 100.09) rotate(-180) scale(.93 -.93)" gradientUnits="userSpaceOnUse">
      <stop offset="0" stop-color="#fff"/>
      <stop offset="1" stop-color="#000"/>
    </radialGradient>
    <linearGradient id="linear-gradient-3" x1="-1953.98" y1="75" x2="-1975.34" y2="93.99" gradientTransform="translate(-1858.84) rotate(-180) scale(1 -1)" gradientUnits="userSpaceOnUse">
      <stop offset="0" stop-color="#fff"/>
      <stop offset="1" stop-color="#4b61b8"/>
    </linearGradient>
    <linearGradient id="linear-gradient-4" x1="-1882.71" y1="118.03" x2="-1904.08" y2="137.02" xlink:href="#linear-gradient-3"/>
    <linearGradient id="linear-gradient-5" x1="-1844.44" y1="66.64" x2="-2062.97" y2="66.67" gradientTransform="translate(-1858.84) rotate(-180) scale(1 -1)" gradientUnits="userSpaceOnUse">
      <stop offset=".06" stop-color="#7c1dc9"/>
      <stop offset=".1" stop-color="#8c40c9"/>
      <stop offset=".18" stop-color="#b59bcb"/>
      <stop offset=".22" stop-color="#ccc"/>
      <stop offset=".26" stop-color="#d3d3d3"/>
      <stop offset=".33" stop-color="#dcdcde"/>
      <stop offset=".41" stop-color="#e0e0e2"/>
      <stop offset=".47" stop-color="#d6d6d7"/>
      <stop offset=".54" stop-color="#cecece"/>
      <stop offset=".54" stop-color="#cdcdce"/>
      <stop offset=".67" stop-color="#97b3d8"/>
      <stop offset=".77" stop-color="#70a0df"/>
      <stop offset=".86" stop-color="#5894e4"/>
      <stop offset=".91" stop-color="#5090e6"/>
      <stop offset=".91" stop-color="#5b72de"/>
      <stop offset=".91" stop-color="#6d44d2"/>
      <stop offset=".92" stop-color="#7727cb"/>
      <stop offset=".92" stop-color="#7c1dc9"/>
    </linearGradient>
    <radialGradient id="radial-gradient" cx="-2455.8" cy="-25" fx="-2455.8" fy="-25" r="85.64" gradientTransform="translate(-2143.47 100.09) rotate(-180) scale(.93 -.93)" gradientUnits="userSpaceOnUse">
      <stop offset="0" stop-color="#f49587"/>
      <stop offset=".12" stop-color="#bc7368"/>
      <stop offset=".24" stop-color="#8b544c"/>
      <stop offset=".36" stop-color="#603a35"/>
      <stop offset=".48" stop-color="#3d2522"/>
      <stop offset=".61" stop-color="#221513"/>
      <stop offset=".74" stop-color="#0f0908"/>
      <stop offset=".86" stop-color="#030202"/>
      <stop offset="1" stop-color="#000"/>
    </radialGradient>
    <linearGradient id="linear-gradient-6" x1="-2362.04" y1="-15.75" x2="-2342.79" y2="-15.75" gradientTransform="translate(-2143.47 100.09) rotate(-180) scale(.93 -.93)" gradientUnits="userSpaceOnUse">
      <stop offset=".48" stop-color="#ffe4a7"/>
      <stop offset="1" stop-color="#000"/>
    </linearGradient>
    <linearGradient id="linear-gradient-7" x1="-1938.48" y1="63.35" x2="-2007.43" y2="27.69" gradientTransform="translate(-1858.84) rotate(-180) scale(1 -1)" gradientUnits="userSpaceOnUse">
      <stop offset=".05" stop-color="#bdf4f1"/>
      <stop offset=".09" stop-color="#c5f5f2"/>
      <stop offset=".21" stop-color="#dbf7f5"/>
      <stop offset=".29" stop-color="#e4f9f7"/>
      <stop offset=".47" stop-color="#e1f6f4"/>
      <stop offset=".56" stop-color="#daeeec"/>
      <stop offset=".64" stop-color="#cde0de"/>
      <stop offset=".71" stop-color="#bbcccb"/>
      <stop offset=".77" stop-color="#a4b3b1"/>
      <stop offset=".83" stop-color="#879392"/>
      <stop offset=".88" stop-color="#646e6d"/>
      <stop offset=".94" stop-color="#3c4242"/>
      <stop offset=".98" stop-color="#111212"/>
      <stop offset="1" stop-color="#000"/>
    </linearGradient>
    <linearGradient id="linear-gradient-8" x1="-1848.86" y1="103.23" x2="-1986.21" y2="19.55" gradientTransform="translate(-1858.84) rotate(-180) scale(1 -1)" gradientUnits="userSpaceOnUse">
      <stop offset="0" stop-color="#f7f0e2"/>
      <stop offset=".38" stop-color="#f5eee0"/>
      <stop offset=".51" stop-color="#eee7da"/>
      <stop offset=".61" stop-color="#e2dccf"/>
      <stop offset=".68" stop-color="#d1cbbf"/>
      <stop offset=".75" stop-color="#bbb6ab"/>
      <stop offset=".81" stop-color="#a09b92"/>
      <stop offset=".86" stop-color="#7f7c75"/>
      <stop offset=".91" stop-color="#5a5752"/>
      <stop offset=".96" stop-color="#312f2c"/>
      <stop offset="1" stop-color="#030303"/>
      <stop offset="1" stop-color="#000"/>
    </linearGradient>
    <linearGradient id="linear-gradient-9" x1="-1890.22" y1="1348.81" x2="-1881.32" y2="1363.5" gradientTransform="translate(-2034.66 1439.85) rotate(113.53) scale(1.13 -1)" gradientUnits="userSpaceOnUse">
      <stop offset="0" stop-color="#ffe4a7"/>
      <stop offset="1" stop-color="#000"/>
    </linearGradient>
    <linearGradient id="New_Gradient_Swatch_copy_26" data-name="New Gradient Swatch copy 26" x1="-1984.45" y1="172.63" x2="-1932.15" y2="167.08" gradientTransform="translate(-1858.84) rotate(-180) scale(1 -1)" gradientUnits="userSpaceOnUse">
      <stop offset=".03" stop-color="#7c1dc9"/>
      <stop offset=".21" stop-color="#6e41d1"/>
      <stop offset=".62" stop-color="#4c9be8"/>
      <stop offset="1" stop-color="#2af6ff"/>
    </linearGradient>
  </defs>
  <g class="cls-15">
    <g id="Layer_1" data-name="Layer 1">
      <path class="cls-1" d="M0,132.62l139.19-51.91v103.04s0,.18,0,.18c.45,3.35-1.32,6.62-5.43,8.99l-94.12,54.51c-8.15,4.71-22.39,4.12-31.81-1.32h0c-4.98-2.88-7.61-6.53-7.78-10.03l-.05,.02v-103.49Z"/>
      <path class="cls-10" d="M39.63,143.73l94.12-54.51c8.15-4.71,7.13-12.93-2.28-18.37h0c-9.41-5.44-23.66-6.03-31.81-1.32L5.54,124.04c-8.15,4.71-7.13,12.93,2.28,18.37h0c9.41,5.44,23.66,6.03,31.81,1.32Z"/>
      <path class="cls-14" d="M7.38,141.52h0c9.41,5.44,23.66,6.03,31.81,1.32l94.12-54.51c4.15-2.4,5.92-5.71,5.41-9.1,1.72,4.08,.18,8.29-4.82,11.17l-94.12,54.51c-8.15,4.71-22.39,4.12-31.81-1.32h0c-4.62-2.67-7.21-6-7.7-9.27,1.09,2.57,3.47,5.09,7.11,7.19Z"/>
      <path class="cls-4" d="M89.32,83.21c0,4.84,6.74,8.77,15.06,8.77,8.32,0,15.06-3.93,15.06-8.77s-6.74-8.77-15.06-8.77c-8.32,0-15.06,3.93-15.06,8.77Z"/>
      <path class="cls-3" d="M18.05,126.24c0,4.84,6.74,8.77,15.06,8.77,8.32,0,15.06-3.93,15.06-8.77,0-4.84-6.74-8.77-15.06-8.77-8.32,0-15.06,3.93-15.06,8.77Z"/>
      <path class="cls-12" d="M60.32,5.32h0c26.29-15.14,59.11,3.83,59.11,34.17v43.63h0s0,.06,0,.09c0,4.16-5.79,7.54-12.94,7.54-7.15,0-12.94-3.37-12.94-7.54,0-.05,.01-.1,.01-.15h-.14V45.01c0-12.85-13.89-20.89-25.03-14.49h0c-12.93,7.43-20.91,21.21-20.91,36.13v59.27h-.14c-.14,4.09-5.87,7.38-12.93,7.38-7.11,0-12.87-3.33-12.94-7.46h0v-53.3c0-27.74,14.81-53.37,38.85-67.22Z"/>
      <path class="cls-13" d="M111.41,86.68h0V45.72c0-20.3-16.52-36.82-36.82-36.82-6.42,0-12.57,1.67-18.29,4.97-3.71,2.14-7.19,4.58-10.43,7.27,4.64-4.69,9.92-8.79,15.77-12.16,5.72-3.3,11.87-4.97,18.29-4.97,20.3,0,36.82,16.52,36.82,36.82v40.96h0v2.67c0,.06,0,.12,0,.18-.08,1.57-2.16,3.24-5.35,4.13v-2.08Z"/>
      <path class="cls-7" d="M39.42,130.35h.05s0-56.58,0-56.58c0-13.82,6.5-26.81,17.29-35.13-7.55,8.1-11.95,18.88-11.95,30.23v56.58h-.05s-.09,2.59-.09,2.59c-.05,1.56-2.14,3.24-5.32,4.14l.06-1.84Z"/>
      <path class="cls-11" d="M99.1,47.08v41.4c-2.93-.91-4.83-2.49-4.92-3.98v-.04s-.13-2.87-.13-2.87V46.19c0-8.65-5.69-16-13.53-18.49,10.32,.44,18.57,8.96,18.57,19.38Z"/>
      <g class="cls-8">
        <path class="cls-9" d="M59.99,9.11c2.7-1.56,5.51-2.74,8.39-3.56C43.74,20.29,28.48,47.1,28.48,75.88v55.44c-3.53-.85-5.89-2.66-5.91-4.32v-.34s0-52.79,0-52.79c0-26.64,14.34-51.45,37.42-64.75Z"/>
      </g>
      <path class="cls-6" d="M44.79,38.91c-3.03,6.97-4.45,14.32-4.26,21.88-.53-3.03-.9-6.12-1.09-9.27-.42-6.9,.77-13.6,3.52-19.93C50.57,14.12,71.06,.61,90.9,9.25l.09,.04c-19.88-2.23-38.53,12.01-46.2,29.62Z"/>
      <path class="cls-2" d="M73.67,163.74c0-6.69,4.73-14.85,10.56-18.21,5.83-3.37,10.56-.67,10.56,6.02,0,4.51-2.15,9.68-5.34,13.61v21.2s-10.44,6.03-10.44,6.03v-21.2c-3.19-.25-5.34-2.93-5.34-7.44Z"/>
      <path class="cls-5" d="M84.5,184.12v-21.2c3.19-3.93,5.34-9.1,5.34-13.61,0-2.2-.52-3.95-1.41-5.22,3.74-.29,6.36,2.47,6.36,7.44,0,4.51-2.15,9.68-5.34,13.61v21.2s-10.44,6.03-10.44,6.03v-5.08s5.49-3.17,5.49-3.17Z"/>
    </g>
  </g>
</svg>