<?xml version="1.0" encoding="UTF-8"?>
<svg id="Layer_1" data-name="Layer 1" xmlns="http://www.w3.org/2000/svg" xmlns:xlink="http://www.w3.org/1999/xlink" viewBox="0 0 229.12 180.93">
  <defs>
    <style>
      .cls-1 {
        fill: none;
      }

      .cls-2 {
        fill: url(#_ÂÁ_Ï_ÌÌ_È_ËÂÌÚ_31-21);
      }

      .cls-3 {
        fill: url(#_ÂÁ_Ï_ÌÌ_È_ËÂÌÚ_31-20);
      }

      .cls-4 {
        fill: url(#_ÂÁ_Ï_ÌÌ_È_ËÂÌÚ_31-22);
      }

      .cls-5 {
        fill: url(#_ÂÁ_Ï_ÌÌ_È_ËÂÌÚ_31-24);
      }

      .cls-6 {
        fill: url(#_ÂÁ_Ï_ÌÌ_È_ËÂÌÚ_31-23);
      }

      .cls-7 {
        fill: url(#_ÂÁ_Ï_ÌÌ_È_ËÂÌÚ_31-18);
      }

      .cls-8 {
        fill: url(#_ÂÁ_Ï_ÌÌ_È_ËÂÌÚ_31-19);
      }

      .cls-9 {
        fill: url(#_ÂÁ_Ï_ÌÌ_È_ËÂÌÚ_31-12);
      }

      .cls-10 {
        fill: url(#_ÂÁ_Ï_ÌÌ_È_ËÂÌÚ_31-13);
      }

      .cls-11 {
        fill: url(#_ÂÁ_Ï_ÌÌ_È_ËÂÌÚ_31-10);
      }

      .cls-12 {
        fill: url(#_ÂÁ_Ï_ÌÌ_È_ËÂÌÚ_31-11);
      }

      .cls-13 {
        fill: url(#_ÂÁ_Ï_ÌÌ_È_ËÂÌÚ_31-16);
      }

      .cls-14 {
        fill: url(#_ÂÁ_Ï_ÌÌ_È_ËÂÌÚ_31-17);
      }

      .cls-15 {
        fill: url(#_ÂÁ_Ï_ÌÌ_È_ËÂÌÚ_31-15);
      }

      .cls-16 {
        fill: url(#_ÂÁ_Ï_ÌÌ_È_ËÂÌÚ_31-14);
      }

      .cls-17 {
        fill: url(#_ÂÁ_Ï_ÌÌ_È_ËÂÌÚ_85-25);
      }

      .cls-18 {
        fill: url(#_ÂÁ_Ï_ÌÌ_È_ËÂÌÚ_85-16);
      }

      .cls-19 {
        fill: url(#_ÂÁ_Ï_ÌÌ_È_ËÂÌÚ_85-20);
      }

      .cls-20 {
        fill: url(#_ÂÁ_Ï_ÌÌ_È_ËÂÌÚ_85-18);
      }

      .cls-21 {
        fill: url(#_ÂÁ_Ï_ÌÌ_È_ËÂÌÚ_85-17);
      }

      .cls-22 {
        fill: url(#_ÂÁ_Ï_ÌÌ_È_ËÂÌÚ_85-14);
      }

      .cls-23 {
        fill: url(#_ÂÁ_Ï_ÌÌ_È_ËÂÌÚ_85-11);
      }

      .cls-24 {
        fill: url(#_ÂÁ_Ï_ÌÌ_È_ËÂÌÚ_85-13);
      }

      .cls-25 {
        fill: url(#_ÂÁ_Ï_ÌÌ_È_ËÂÌÚ_85-23);
      }

      .cls-26 {
        fill: url(#_ÂÁ_Ï_ÌÌ_È_ËÂÌÚ_85-24);
      }

      .cls-27 {
        fill: url(#_ÂÁ_Ï_ÌÌ_È_ËÂÌÚ_85-21);
      }

      .cls-28 {
        fill: url(#_ÂÁ_Ï_ÌÌ_È_ËÂÌÚ_85-22);
      }

      .cls-29 {
        fill: url(#_ÂÁ_Ï_ÌÌ_È_ËÂÌÚ_85-15);
      }

      .cls-30 {
        fill: url(#_ÂÁ_Ï_ÌÌ_È_ËÂÌÚ_85-10);
      }

      .cls-31 {
        fill: url(#_ÂÁ_Ï_ÌÌ_È_ËÂÌÚ_85-12);
      }

      .cls-32 {
        fill: url(#_ÂÁ_Ï_ÌÌ_È_ËÂÌÚ_85-19);
      }

      .cls-33 {
        fill: url(#linear-gradient);
      }

      .cls-34 {
        fill: url(#_ÂÁ_Ï_ÌÌ_È_ËÂÌÚ_54);
      }

      .cls-35 {
        fill: url(#_ÂÁ_Ï_ÌÌ_È_ËÂÌÚ_31);
      }

      .cls-36 {
        fill: url(#_ÂÁ_Ï_ÌÌ_È_ËÂÌÚ_14);
      }

      .cls-37 {
        fill: url(#_ÂÁ_Ï_ÌÌ_È_ËÂÌÚ_85);
      }

      .cls-38 {
        clip-path: url(#clippath);
      }

      .cls-39 {
        fill: #e036f2;
      }

      .cls-40 {
        fill: #251c72;
      }

      .cls-41, .cls-42 {
        fill: #42e8e0;
      }

      .cls-43 {
        fill: url(#_ÂÁ_Ï_ÌÌ_È_ËÂÌÚ_31-2);
      }

      .cls-44 {
        fill: url(#_ÂÁ_Ï_ÌÌ_È_ËÂÌÚ_31-6);
      }

      .cls-45 {
        fill: url(#_ÂÁ_Ï_ÌÌ_È_ËÂÌÚ_31-5);
      }

      .cls-46 {
        fill: url(#_ÂÁ_Ï_ÌÌ_È_ËÂÌÚ_31-3);
      }

      .cls-47 {
        fill: url(#_ÂÁ_Ï_ÌÌ_È_ËÂÌÚ_31-4);
      }

      .cls-48 {
        fill: url(#_ÂÁ_Ï_ÌÌ_È_ËÂÌÚ_31-9);
      }

      .cls-49 {
        fill: url(#_ÂÁ_Ï_ÌÌ_È_ËÂÌÚ_31-7);
      }

      .cls-50 {
        fill: url(#_ÂÁ_Ï_ÌÌ_È_ËÂÌÚ_31-8);
      }

      .cls-51 {
        fill: url(#_ÂÁ_Ï_ÌÌ_È_ËÂÌÚ_85-8);
      }

      .cls-52 {
        fill: url(#_ÂÁ_Ï_ÌÌ_È_ËÂÌÚ_85-7);
      }

      .cls-53 {
        fill: url(#_ÂÁ_Ï_ÌÌ_È_ËÂÌÚ_85-9);
      }

      .cls-54 {
        fill: url(#_ÂÁ_Ï_ÌÌ_È_ËÂÌÚ_85-2);
      }

      .cls-55 {
        fill: url(#_ÂÁ_Ï_ÌÌ_È_ËÂÌÚ_85-5);
      }

      .cls-56 {
        fill: url(#_ÂÁ_Ï_ÌÌ_È_ËÂÌÚ_85-3);
      }

      .cls-57 {
        fill: url(#_ÂÁ_Ï_ÌÌ_È_ËÂÌÚ_85-6);
      }

      .cls-58 {
        fill: url(#_ÂÁ_Ï_ÌÌ_È_ËÂÌÚ_85-4);
      }

      .cls-59 {
        fill: url(#linear-gradient-3);
      }

      .cls-60 {
        fill: url(#linear-gradient-4);
      }

      .cls-61 {
        fill: url(#linear-gradient-2);
      }

      .cls-62 {
        opacity: .6;
      }

      .cls-62, .cls-63 {
        fill: #0f054c;
      }

      .cls-63 {
        opacity: .5;
      }

      .cls-42 {
        opacity: .7;
      }

      .cls-64 {
        fill: url(#_ÂÁ_Ï_ÌÌ_È_ËÂÌÚ_5);
      }
    </style>
    <linearGradient id="_ÂÁ_Ï_ÌÌ_È_ËÂÌÚ_14" data-name="¡ÂÁ˚ÏˇÌÌ˚È „‡‰ËÂÌÚ 14" x1="-625.03" y1="-447.05" x2="-407.21" y2="-447.05" gradientTransform="translate(545.2 322.91) rotate(-30) skewX(-30)" gradientUnits="userSpaceOnUse">
      <stop offset="0" stop-color="#5778ff"/>
      <stop offset=".18" stop-color="#5b7cff"/>
      <stop offset=".39" stop-color="#6a89ff"/>
      <stop offset=".61" stop-color="#819fff"/>
      <stop offset=".85" stop-color="#a2bdff"/>
      <stop offset="1" stop-color="#bcd5ff"/>
    </linearGradient>
    <radialGradient id="_ÂÁ_Ï_ÌÌ_È_ËÂÌÚ_5" data-name="¡ÂÁ˚ÏˇÌÌ˚È „‡‰ËÂÌÚ 5" cx="-382.07" cy="62.6" fx="-466.92" fy="32.66" r="89.98" gradientTransform="translate(430.32)" gradientUnits="userSpaceOnUse">
      <stop offset="0" stop-color="#2b3aa5"/>
      <stop offset="1" stop-color="#182484"/>
    </radialGradient>
    <linearGradient id="linear-gradient" x1="-259.64" y1="58.87" x2="-628.04" y2="194.93" gradientTransform="translate(430.32)" gradientUnits="userSpaceOnUse">
      <stop offset="0" stop-color="#9f19ab"/>
      <stop offset=".18" stop-color="#80159f"/>
      <stop offset=".37" stop-color="#661396"/>
      <stop offset=".57" stop-color="#53118f"/>
      <stop offset=".77" stop-color="#48108b"/>
      <stop offset="1" stop-color="#45108a"/>
    </linearGradient>
    <linearGradient id="_ÂÁ_Ï_ÌÌ_È_ËÂÌÚ_85" data-name="¡ÂÁ˚ÏˇÌÌ˚È „‡‰ËÂÌÚ 85" x1="-582.81" y1="-410.39" x2="-364.98" y2="-410.39" gradientTransform="translate(545.2 322.91) rotate(-30) skewX(-30)" gradientUnits="userSpaceOnUse">
      <stop offset="0" stop-color="#706ec4"/>
      <stop offset=".02" stop-color="#6d6bc1"/>
      <stop offset=".25" stop-color="#5651ac"/>
      <stop offset=".49" stop-color="#463e9d"/>
      <stop offset=".73" stop-color="#3c3393"/>
      <stop offset="1" stop-color="#393091"/>
    </linearGradient>
    <linearGradient id="_ÂÁ_Ï_ÌÌ_È_ËÂÌÚ_54" data-name="¡ÂÁ˚ÏˇÌÌ˚È „‡‰ËÂÌÚ 54" x1="-1169.34" y1="-697.66" x2="-631.34" y2="-464.45" gradientTransform="translate(545.2 322.91) rotate(-30) skewX(-30)" gradientUnits="userSpaceOnUse">
      <stop offset="0" stop-color="#bcbeff"/>
      <stop offset=".23" stop-color="#aaadf7"/>
      <stop offset=".68" stop-color="#7b82e5"/>
      <stop offset="1" stop-color="#5761d7"/>
    </linearGradient>
    <linearGradient id="linear-gradient-2" x1="211.45" y1="114.82" x2="-159.19" y2="85.7" gradientTransform="translate(64.44)" gradientUnits="userSpaceOnUse">
      <stop offset="0" stop-color="#e24cf2"/>
      <stop offset=".1" stop-color="#be46dd"/>
      <stop offset=".24" stop-color="#953fc6"/>
      <stop offset=".38" stop-color="#7439b3"/>
      <stop offset=".53" stop-color="#5a35a4"/>
      <stop offset=".68" stop-color="#473299"/>
      <stop offset=".83" stop-color="#3c3093"/>
      <stop offset="1" stop-color="#393091"/>
    </linearGradient>
    <linearGradient id="linear-gradient-3" x1="8.77" y1="33.21" x2="133.96" y2="33.21" gradientTransform="translate(121.1)" gradientUnits="userSpaceOnUse">
      <stop offset="0" stop-color="#9874c6"/>
      <stop offset=".36" stop-color="#c1a1d5"/>
      <stop offset=".38" stop-color="#c7abd9"/>
      <stop offset=".41" stop-color="#d9c6e5"/>
      <stop offset=".45" stop-color="#f6f2f9"/>
      <stop offset=".46" stop-color="#fff"/>
      <stop offset=".49" stop-color="#f1e8f6"/>
      <stop offset=".53" stop-color="#dfcbeb"/>
      <stop offset=".57" stop-color="#d4bae5"/>
      <stop offset=".6" stop-color="#d1b4e3"/>
      <stop offset=".66" stop-color="#b294d5"/>
      <stop offset=".72" stop-color="#9b7ccb"/>
      <stop offset=".77" stop-color="#8d6ec5"/>
      <stop offset=".82" stop-color="#8969c3"/>
      <stop offset=".89" stop-color="#9371c5"/>
      <stop offset="1" stop-color="#b086cc"/>
    </linearGradient>
    <linearGradient id="linear-gradient-4" x1="-61.08" y1="99.08" x2="78.54" y2="99.08" xlink:href="#linear-gradient-3"/>
    <clipPath id="clippath">
      <path class="cls-1" d="M162.66,27c-5.58,0-11.87,1.92-18.36,5.66-15.42,8.9-29.77,26.89-37.45,46.93l-.77,2.01-2.15,.07c-2.12,.07-4.43,.82-6.87,2.22-9.79,5.65-18.06,19.98-18.06,31.29,0,.09,0,.18,.01,.27l.13,3.53-3.12,.22c-2.71,.19-5.65,1.18-8.74,2.97-12.99,7.5-23.56,25.8-23.56,40.8,0,6.56,2.04,11.35,5.75,13.49,3.71,2.14,8.88,1.51,14.56-1.76L197.11,97.85c15.86-9.16,28.77-31.51,28.77-49.83,0-8.17-2.59-14.16-7.28-16.87-4.7-2.71-11.18-1.95-18.25,2.13h0c-4.36,2.52-8.56,6.07-12.5,10.56l-3.81,4.35-1.72-5.52c-2.22-7.13-6.42-12.09-12.14-14.32-2.3-.9-4.83-1.35-7.53-1.35Z"/>
    </clipPath>
    <linearGradient id="_ÂÁ_Ï_ÌÌ_È_ËÂÌÚ_31" data-name="¡ÂÁ˚ÏˇÌÌ˚È „‡‰ËÂÌÚ 31" x1="-843.44" y1="2040.82" x2="-798.33" y2="2040.82" gradientTransform="translate(-1193.28 1808.82) rotate(60.06) scale(1 -1)" gradientUnits="userSpaceOnUse">
      <stop offset="0" stop-color="#bcbeff"/>
      <stop offset=".17" stop-color="#b5b8fc"/>
      <stop offset=".4" stop-color="#a3a7f5"/>
      <stop offset=".66" stop-color="#868ce9"/>
      <stop offset=".96" stop-color="#5d67d9"/>
      <stop offset="1" stop-color="#5761d7"/>
    </linearGradient>
    <linearGradient id="_ÂÁ_Ï_ÌÌ_È_ËÂÌÚ_85-2" data-name="¡ÂÁ˚ÏˇÌÌ˚È „‡‰ËÂÌÚ 85" x1="-843.44" y1="2040.82" x2="-798.33" y2="2040.82" gradientTransform="translate(-1193.28 1808.82) rotate(60.06) scale(1 -1)" xlink:href="#_ÂÁ_Ï_ÌÌ_È_ËÂÌÚ_85"/>
    <linearGradient id="_ÂÁ_Ï_ÌÌ_È_ËÂÌÚ_31-2" data-name="¡ÂÁ˚ÏˇÌÌ˚È „‡‰ËÂÌÚ 31" x1="-855.45" y1="2042.96" x2="-805.78" y2="2042.96" xlink:href="#_ÂÁ_Ï_ÌÌ_È_ËÂÌÚ_31"/>
    <linearGradient id="_ÂÁ_Ï_ÌÌ_È_ËÂÌÚ_85-3" data-name="¡ÂÁ˚ÏˇÌÌ˚È „‡‰ËÂÌÚ 85" x1="-862.31" y1="2042.96" x2="-772.7" y2="2042.96" gradientTransform="translate(-1193.28 1808.82) rotate(60.06) scale(1 -1)" xlink:href="#_ÂÁ_Ï_ÌÌ_È_ËÂÌÚ_85"/>
    <linearGradient id="_ÂÁ_Ï_ÌÌ_È_ËÂÌÚ_31-3" data-name="¡ÂÁ˚ÏˇÌÌ˚È „‡‰ËÂÌÚ 31" x1="-855.43" y1="2047.73" x2="-810.32" y2="2047.73" xlink:href="#_ÂÁ_Ï_ÌÌ_È_ËÂÌÚ_31"/>
    <linearGradient id="_ÂÁ_Ï_ÌÌ_È_ËÂÌÚ_85-4" data-name="¡ÂÁ˚ÏˇÌÌ˚È „‡‰ËÂÌÚ 85" x1="-855.43" y1="2047.73" x2="-810.32" y2="2047.73" gradientTransform="translate(-1193.28 1808.82) rotate(60.06) scale(1 -1)" xlink:href="#_ÂÁ_Ï_ÌÌ_È_ËÂÌÚ_85"/>
    <linearGradient id="_ÂÁ_Ï_ÌÌ_È_ËÂÌÚ_31-4" data-name="¡ÂÁ˚ÏˇÌÌ˚È „‡‰ËÂÌÚ 31" x1="-867.43" y1="2049.86" x2="-817.76" y2="2049.86" xlink:href="#_ÂÁ_Ï_ÌÌ_È_ËÂÌÚ_31"/>
    <linearGradient id="_ÂÁ_Ï_ÌÌ_È_ËÂÌÚ_85-5" data-name="¡ÂÁ˚ÏˇÌÌ˚È „‡‰ËÂÌÚ 85" x1="-874.29" y1="2049.86" x2="-784.68" y2="2049.86" gradientTransform="translate(-1193.28 1808.82) rotate(60.06) scale(1 -1)" xlink:href="#_ÂÁ_Ï_ÌÌ_È_ËÂÌÚ_85"/>
    <linearGradient id="_ÂÁ_Ï_ÌÌ_È_ËÂÌÚ_31-5" data-name="¡ÂÁ˚ÏˇÌÌ˚È „‡‰ËÂÌÚ 31" x1="-867.42" y1="2054.63" x2="-822.3" y2="2054.63" xlink:href="#_ÂÁ_Ï_ÌÌ_È_ËÂÌÚ_31"/>
    <linearGradient id="_ÂÁ_Ï_ÌÌ_È_ËÂÌÚ_85-6" data-name="¡ÂÁ˚ÏˇÌÌ˚È „‡‰ËÂÌÚ 85" x1="-867.42" y1="2054.63" x2="-822.3" y2="2054.63" gradientTransform="translate(-1193.28 1808.82) rotate(60.06) scale(1 -1)" xlink:href="#_ÂÁ_Ï_ÌÌ_È_ËÂÌÚ_85"/>
    <linearGradient id="_ÂÁ_Ï_ÌÌ_È_ËÂÌÚ_31-6" data-name="¡ÂÁ˚ÏˇÌÌ˚È „‡‰ËÂÌÚ 31" x1="-879.42" y1="2056.77" x2="-829.75" y2="2056.77" xlink:href="#_ÂÁ_Ï_ÌÌ_È_ËÂÌÚ_31"/>
    <linearGradient id="_ÂÁ_Ï_ÌÌ_È_ËÂÌÚ_85-7" data-name="¡ÂÁ˚ÏˇÌÌ˚È „‡‰ËÂÌÚ 85" x1="-886.28" y1="2056.77" x2="-796.67" y2="2056.77" gradientTransform="translate(-1193.28 1808.82) rotate(60.06) scale(1 -1)" xlink:href="#_ÂÁ_Ï_ÌÌ_È_ËÂÌÚ_85"/>
    <linearGradient id="_ÂÁ_Ï_ÌÌ_È_ËÂÌÚ_31-7" data-name="¡ÂÁ˚ÏˇÌÌ˚È „‡‰ËÂÌÚ 31" x1="-879.41" y1="2061.54" x2="-834.29" y2="2061.54" xlink:href="#_ÂÁ_Ï_ÌÌ_È_ËÂÌÚ_31"/>
    <linearGradient id="_ÂÁ_Ï_ÌÌ_È_ËÂÌÚ_85-8" data-name="¡ÂÁ˚ÏˇÌÌ˚È „‡‰ËÂÌÚ 85" x1="-879.41" y1="2061.54" x2="-834.29" y2="2061.54" gradientTransform="translate(-1193.28 1808.82) rotate(60.06) scale(1 -1)" xlink:href="#_ÂÁ_Ï_ÌÌ_È_ËÂÌÚ_85"/>
    <linearGradient id="_ÂÁ_Ï_ÌÌ_È_ËÂÌÚ_31-8" data-name="¡ÂÁ˚ÏˇÌÌ˚È „‡‰ËÂÌÚ 31" x1="-891.41" y1="2063.67" x2="-841.74" y2="2063.67" xlink:href="#_ÂÁ_Ï_ÌÌ_È_ËÂÌÚ_31"/>
    <linearGradient id="_ÂÁ_Ï_ÌÌ_È_ËÂÌÚ_85-9" data-name="¡ÂÁ˚ÏˇÌÌ˚È „‡‰ËÂÌÚ 85" x1="-898.27" y1="2063.67" x2="-808.66" y2="2063.67" gradientTransform="translate(-1193.28 1808.82) rotate(60.06) scale(1 -1)" xlink:href="#_ÂÁ_Ï_ÌÌ_È_ËÂÌÚ_85"/>
    <linearGradient id="_ÂÁ_Ï_ÌÌ_È_ËÂÌÚ_31-9" data-name="¡ÂÁ˚ÏˇÌÌ˚È „‡‰ËÂÌÚ 31" x1="-843.53" y1="1975.15" x2="-798.41" y2="1975.15" xlink:href="#_ÂÁ_Ï_ÌÌ_È_ËÂÌÚ_31"/>
    <linearGradient id="_ÂÁ_Ï_ÌÌ_È_ËÂÌÚ_85-10" data-name="¡ÂÁ˚ÏˇÌÌ˚È „‡‰ËÂÌÚ 85" x1="-843.53" y1="1975.15" x2="-798.41" y2="1975.15" gradientTransform="translate(-1193.28 1808.82) rotate(60.06) scale(1 -1)" xlink:href="#_ÂÁ_Ï_ÌÌ_È_ËÂÌÚ_85"/>
    <linearGradient id="_ÂÁ_Ï_ÌÌ_È_ËÂÌÚ_31-10" data-name="¡ÂÁ˚ÏˇÌÌ˚È „‡‰ËÂÌÚ 31" x1="-855.53" y1="1977.28" x2="-805.86" y2="1977.28" xlink:href="#_ÂÁ_Ï_ÌÌ_È_ËÂÌÚ_31"/>
    <linearGradient id="_ÂÁ_Ï_ÌÌ_È_ËÂÌÚ_85-11" data-name="¡ÂÁ˚ÏˇÌÌ˚È „‡‰ËÂÌÚ 85" x1="-862.39" y1="1977.28" x2="-772.78" y2="1977.28" gradientTransform="translate(-1193.28 1808.82) rotate(60.06) scale(1 -1)" xlink:href="#_ÂÁ_Ï_ÌÌ_È_ËÂÌÚ_85"/>
    <linearGradient id="_ÂÁ_Ï_ÌÌ_È_ËÂÌÚ_31-11" data-name="¡ÂÁ˚ÏˇÌÌ˚È „‡‰ËÂÌÚ 31" x1="-855.52" y1="1982.05" x2="-810.4" y2="1982.05" xlink:href="#_ÂÁ_Ï_ÌÌ_È_ËÂÌÚ_31"/>
    <linearGradient id="_ÂÁ_Ï_ÌÌ_È_ËÂÌÚ_85-12" data-name="¡ÂÁ˚ÏˇÌÌ˚È „‡‰ËÂÌÚ 85" x1="-855.52" y1="1982.05" x2="-810.4" y2="1982.05" gradientTransform="translate(-1193.28 1808.82) rotate(60.06) scale(1 -1)" xlink:href="#_ÂÁ_Ï_ÌÌ_È_ËÂÌÚ_85"/>
    <linearGradient id="_ÂÁ_Ï_ÌÌ_È_ËÂÌÚ_31-12" data-name="¡ÂÁ˚ÏˇÌÌ˚È „‡‰ËÂÌÚ 31" x1="-867.52" y1="1984.19" x2="-817.85" y2="1984.19" xlink:href="#_ÂÁ_Ï_ÌÌ_È_ËÂÌÚ_31"/>
    <linearGradient id="_ÂÁ_Ï_ÌÌ_È_ËÂÌÚ_85-13" data-name="¡ÂÁ˚ÏˇÌÌ˚È „‡‰ËÂÌÚ 85" x1="-874.38" y1="1984.19" x2="-784.77" y2="1984.19" gradientTransform="translate(-1193.28 1808.82) rotate(60.06) scale(1 -1)" xlink:href="#_ÂÁ_Ï_ÌÌ_È_ËÂÌÚ_85"/>
    <linearGradient id="_ÂÁ_Ï_ÌÌ_È_ËÂÌÚ_31-13" data-name="¡ÂÁ˚ÏˇÌÌ˚È „‡‰ËÂÌÚ 31" x1="-867.5" y1="1988.96" x2="-822.39" y2="1988.96" xlink:href="#_ÂÁ_Ï_ÌÌ_È_ËÂÌÚ_31"/>
    <linearGradient id="_ÂÁ_Ï_ÌÌ_È_ËÂÌÚ_85-14" data-name="¡ÂÁ˚ÏˇÌÌ˚È „‡‰ËÂÌÚ 85" x1="-867.5" y1="1988.96" x2="-822.39" y2="1988.96" gradientTransform="translate(-1193.28 1808.82) rotate(60.06) scale(1 -1)" xlink:href="#_ÂÁ_Ï_ÌÌ_È_ËÂÌÚ_85"/>
    <linearGradient id="_ÂÁ_Ï_ÌÌ_È_ËÂÌÚ_31-14" data-name="¡ÂÁ˚ÏˇÌÌ˚È „‡‰ËÂÌÚ 31" x1="-879.51" y1="1991.09" x2="-829.84" y2="1991.09" xlink:href="#_ÂÁ_Ï_ÌÌ_È_ËÂÌÚ_31"/>
    <linearGradient id="_ÂÁ_Ï_ÌÌ_È_ËÂÌÚ_85-15" data-name="¡ÂÁ˚ÏˇÌÌ˚È „‡‰ËÂÌÚ 85" x1="-886.37" y1="1991.09" x2="-796.76" y2="1991.09" gradientTransform="translate(-1193.28 1808.82) rotate(60.06) scale(1 -1)" xlink:href="#_ÂÁ_Ï_ÌÌ_È_ËÂÌÚ_85"/>
    <linearGradient id="_ÂÁ_Ï_ÌÌ_È_ËÂÌÚ_31-15" data-name="¡ÂÁ˚ÏˇÌÌ˚È „‡‰ËÂÌÚ 31" x1="-879.49" y1="1995.86" x2="-834.38" y2="1995.86" xlink:href="#_ÂÁ_Ï_ÌÌ_È_ËÂÌÚ_31"/>
    <linearGradient id="_ÂÁ_Ï_ÌÌ_È_ËÂÌÚ_85-16" data-name="¡ÂÁ˚ÏˇÌÌ˚È „‡‰ËÂÌÚ 85" x1="-879.49" y1="1995.86" x2="-834.38" y2="1995.86" gradientTransform="translate(-1193.28 1808.82) rotate(60.06) scale(1 -1)" xlink:href="#_ÂÁ_Ï_ÌÌ_È_ËÂÌÚ_85"/>
    <linearGradient id="_ÂÁ_Ï_ÌÌ_È_ËÂÌÚ_31-16" data-name="¡ÂÁ˚ÏˇÌÌ˚È „‡‰ËÂÌÚ 31" x1="-891.49" y1="1998" x2="-841.82" y2="1998" xlink:href="#_ÂÁ_Ï_ÌÌ_È_ËÂÌÚ_31"/>
    <linearGradient id="_ÂÁ_Ï_ÌÌ_È_ËÂÌÚ_85-17" data-name="¡ÂÁ˚ÏˇÌÌ˚È „‡‰ËÂÌÚ 85" x1="-898.35" y1="1998" x2="-808.74" y2="1998" gradientTransform="translate(-1193.28 1808.82) rotate(60.06) scale(1 -1)" xlink:href="#_ÂÁ_Ï_ÌÌ_È_ËÂÌÚ_85"/>
    <linearGradient id="_ÂÁ_Ï_ÌÌ_È_ËÂÌÚ_31-17" data-name="¡ÂÁ˚ÏˇÌÌ˚È „‡‰ËÂÌÚ 31" x1="-843.61" y1="1909.48" x2="-798.5" y2="1909.48" xlink:href="#_ÂÁ_Ï_ÌÌ_È_ËÂÌÚ_31"/>
    <linearGradient id="_ÂÁ_Ï_ÌÌ_È_ËÂÌÚ_85-18" data-name="¡ÂÁ˚ÏˇÌÌ˚È „‡‰ËÂÌÚ 85" x1="-843.61" y1="1909.48" x2="-798.5" y2="1909.48" gradientTransform="translate(-1193.28 1808.82) rotate(60.06) scale(1 -1)" xlink:href="#_ÂÁ_Ï_ÌÌ_È_ËÂÌÚ_85"/>
    <linearGradient id="_ÂÁ_Ï_ÌÌ_È_ËÂÌÚ_31-18" data-name="¡ÂÁ˚ÏˇÌÌ˚È „‡‰ËÂÌÚ 31" x1="-855.62" y1="1911.61" x2="-805.95" y2="1911.61" xlink:href="#_ÂÁ_Ï_ÌÌ_È_ËÂÌÚ_31"/>
    <linearGradient id="_ÂÁ_Ï_ÌÌ_È_ËÂÌÚ_85-19" data-name="¡ÂÁ˚ÏˇÌÌ˚È „‡‰ËÂÌÚ 85" x1="-862.48" y1="1911.61" x2="-772.87" y2="1911.61" gradientTransform="translate(-1193.28 1808.82) rotate(60.06) scale(1 -1)" xlink:href="#_ÂÁ_Ï_ÌÌ_È_ËÂÌÚ_85"/>
    <linearGradient id="_ÂÁ_Ï_ÌÌ_È_ËÂÌÚ_31-19" data-name="¡ÂÁ˚ÏˇÌÌ˚È „‡‰ËÂÌÚ 31" x1="-855.6" y1="1916.38" x2="-810.49" y2="1916.38" xlink:href="#_ÂÁ_Ï_ÌÌ_È_ËÂÌÚ_31"/>
    <linearGradient id="_ÂÁ_Ï_ÌÌ_È_ËÂÌÚ_85-20" data-name="¡ÂÁ˚ÏˇÌÌ˚È „‡‰ËÂÌÚ 85" x1="-855.6" y1="1916.38" x2="-810.49" y2="1916.38" gradientTransform="translate(-1193.28 1808.82) rotate(60.06) scale(1 -1)" xlink:href="#_ÂÁ_Ï_ÌÌ_È_ËÂÌÚ_85"/>
    <linearGradient id="_ÂÁ_Ï_ÌÌ_È_ËÂÌÚ_31-20" data-name="¡ÂÁ˚ÏˇÌÌ˚È „‡‰ËÂÌÚ 31" x1="-867.6" y1="1918.52" x2="-817.94" y2="1918.52" xlink:href="#_ÂÁ_Ï_ÌÌ_È_ËÂÌÚ_31"/>
    <linearGradient id="_ÂÁ_Ï_ÌÌ_È_ËÂÌÚ_85-21" data-name="¡ÂÁ˚ÏˇÌÌ˚È „‡‰ËÂÌÚ 85" x1="-874.46" y1="1918.52" x2="-784.85" y2="1918.52" gradientTransform="translate(-1193.28 1808.82) rotate(60.06) scale(1 -1)" xlink:href="#_ÂÁ_Ï_ÌÌ_È_ËÂÌÚ_85"/>
    <linearGradient id="_ÂÁ_Ï_ÌÌ_È_ËÂÌÚ_31-21" data-name="¡ÂÁ˚ÏˇÌÌ˚È „‡‰ËÂÌÚ 31" x1="-867.59" y1="1923.29" x2="-822.47" y2="1923.29" xlink:href="#_ÂÁ_Ï_ÌÌ_È_ËÂÌÚ_31"/>
    <linearGradient id="_ÂÁ_Ï_ÌÌ_È_ËÂÌÚ_85-22" data-name="¡ÂÁ˚ÏˇÌÌ˚È „‡‰ËÂÌÚ 85" x1="-867.59" y1="1923.29" x2="-822.47" y2="1923.29" gradientTransform="translate(-1193.28 1808.82) rotate(60.06) scale(1 -1)" xlink:href="#_ÂÁ_Ï_ÌÌ_È_ËÂÌÚ_85"/>
    <linearGradient id="_ÂÁ_Ï_ÌÌ_È_ËÂÌÚ_31-22" data-name="¡ÂÁ˚ÏˇÌÌ˚È „‡‰ËÂÌÚ 31" x1="-879.59" y1="1925.42" x2="-829.92" y2="1925.42" xlink:href="#_ÂÁ_Ï_ÌÌ_È_ËÂÌÚ_31"/>
    <linearGradient id="_ÂÁ_Ï_ÌÌ_È_ËÂÌÚ_85-23" data-name="¡ÂÁ˚ÏˇÌÌ˚È „‡‰ËÂÌÚ 85" x1="-886.45" y1="1925.42" x2="-796.84" y2="1925.42" gradientTransform="translate(-1193.28 1808.82) rotate(60.06) scale(1 -1)" xlink:href="#_ÂÁ_Ï_ÌÌ_È_ËÂÌÚ_85"/>
    <linearGradient id="_ÂÁ_Ï_ÌÌ_È_ËÂÌÚ_31-23" data-name="¡ÂÁ˚ÏˇÌÌ˚È „‡‰ËÂÌÚ 31" x1="-879.58" y1="1930.19" x2="-834.46" y2="1930.19" xlink:href="#_ÂÁ_Ï_ÌÌ_È_ËÂÌÚ_31"/>
    <linearGradient id="_ÂÁ_Ï_ÌÌ_È_ËÂÌÚ_85-24" data-name="¡ÂÁ˚ÏˇÌÌ˚È „‡‰ËÂÌÚ 85" x1="-879.58" y1="1930.19" x2="-834.46" y2="1930.19" gradientTransform="translate(-1193.28 1808.82) rotate(60.06) scale(1 -1)" xlink:href="#_ÂÁ_Ï_ÌÌ_È_ËÂÌÚ_85"/>
    <linearGradient id="_ÂÁ_Ï_ÌÌ_È_ËÂÌÚ_31-24" data-name="¡ÂÁ˚ÏˇÌÌ˚È „‡‰ËÂÌÚ 31" x1="-891.58" y1="1932.32" x2="-841.91" y2="1932.32" xlink:href="#_ÂÁ_Ï_ÌÌ_È_ËÂÌÚ_31"/>
    <linearGradient id="_ÂÁ_Ï_ÌÌ_È_ËÂÌÚ_85-25" data-name="¡ÂÁ˚ÏˇÌÌ˚È „‡‰ËÂÌÚ 85" x1="-898.44" y1="1932.32" x2="-808.83" y2="1932.32" gradientTransform="translate(-1193.28 1808.82) rotate(60.06) scale(1 -1)" xlink:href="#_ÂÁ_Ï_ÌÌ_È_ËÂÌÚ_85"/>
  </defs>
  <path class="cls-36" d="M162.17,9.26c-4.78,2.76-9.29,6.64-13.31,11.23-5.58-17.92-22.6-23.48-42.74-11.86-16.66,9.62-31.18,28.54-38.86,48.58-2.55,.08-5.38,.92-8.38,2.65-10.87,6.28-19.68,21.54-19.68,34.09,0,.27,.03,.52,.04,.78-3.1,.21-6.53,1.31-10.13,3.39-13.9,8.03-25.18,27.55-25.18,43.6,0,16.05,11.27,22.56,25.18,14.53L162.17,79.43c16.78-9.69,30.39-33.25,30.39-52.63S178.95-.43,162.17,9.26Z"/>
  <path class="cls-64" d="M162.17,9.26c-2.77,1.6-5.45,3.59-7.99,5.86l-14.88-8.6h0c-8.17-5.74-20.01-5.49-33.18,2.11-16.66,9.62-31.18,28.54-38.86,48.58-2.55,.08-5.38,.92-8.38,2.65-10.87,6.28-19.68,21.54-19.68,34.09,0,.27,.03,.52,.03,.78-3.1,.21-6.53,1.31-10.13,3.39-13.9,8.03-25.18,27.55-25.18,43.6,0,7.96,2.77,13.56,7.26,16.22h-.01s.12,.07,.12,.07c0,0,.01,0,.02,.01l36.45,21.16,7.96-38.29,106.45-61.46c16.78-9.69,30.39-33.26,30.39-52.63S178.95-.43,162.17,9.26Z"/>
  <path class="cls-33" d="M220.75,28.68L183.82,7.22h0c-5.51-3.27-13.18-2.86-21.65,2.03-2.77,1.6-5.45,3.59-7.99,5.86l-14.88-8.6h0c-8.17-5.74-20.01-5.49-33.18,2.11-16.66,9.62-31.18,28.54-38.86,48.58-2.55,.08-5.38,.92-8.38,2.65-10.87,6.28-19.68,21.54-19.68,34.09,0,.27,.03,.52,.03,.78-3.1,.21-6.53,1.31-10.13,3.39-13.9,8.03-25.18,27.55-25.18,43.6,0,7.96,2.77,13.56,7.26,16.22h-.01s.12,.07,.12,.07c0,0,.01,0,.02,.01l36.45,21.16,7.96-38.29,106.45-61.46c13.61-7.85,25.12-24.83,28.99-41.3l29.59-9.46Z"/>
  <path class="cls-37" d="M198.73,30.48c-4.78,2.76-9.29,6.64-13.31,11.23-5.58-17.92-22.6-23.48-42.74-11.86-16.66,9.62-31.18,28.54-38.86,48.58-2.55,.08-5.38,.92-8.38,2.65-10.87,6.28-19.68,21.54-19.68,34.09,0,.27,.03,.52,.04,.78-3.1,.21-6.53,1.31-10.13,3.39-13.9,8.03-25.18,27.55-25.18,43.6s11.27,22.56,25.18,14.53L198.73,100.66c16.78-9.69,30.39-33.26,30.39-52.63,0-19.38-13.61-27.23-30.39-17.54Z"/>
  <path class="cls-34" d="M198.73,30.48c-4.78,2.76-9.29,6.64-13.31,11.23-5.58-17.92-22.6-23.48-42.74-11.86-16.66,9.62-31.18,28.54-38.86,48.58-2.55,.08-5.38,.92-8.38,2.65-10.87,6.28-19.68,21.54-19.68,34.09,0,.27,.03,.52,.04,.78-3.1,.21-6.53,1.31-10.13,3.39-13.9,8.03-25.18,27.55-25.18,43.6s11.27,22.56,25.18,14.53L198.73,100.66c16.78-9.69,30.39-33.26,30.39-52.63,0-19.38-13.61-27.23-30.39-17.54Z"/>
  <path class="cls-63" d="M198.73,30.48c-4.78,2.76-9.29,6.64-13.31,11.23-5.58-17.92-22.6-23.48-42.74-11.86-16.66,9.62-31.18,28.54-38.86,48.58-2.55,.08-5.38,.92-8.38,2.65-10.87,6.28-19.68,21.54-19.68,34.09,0,.27,.03,.52,.04,.78-3.1,.21-6.53,1.31-10.13,3.39-13.9,8.03-25.18,27.55-25.18,43.6s11.27,22.56,25.18,14.53L198.73,100.66c16.78-9.69,30.39-33.26,30.39-52.63,0-19.38-13.61-27.23-30.39-17.54Z"/>
  <path class="cls-61" d="M198.73,30.48c-4.78,2.76-9.29,6.64-13.31,11.23-5.58-17.92-22.6-23.48-42.74-11.86-16.66,9.62-31.18,28.54-38.86,48.58-2.55,.08-5.38,.92-8.38,2.65-10.87,6.28-19.68,21.54-19.68,34.09,0,.27,.03,.52,.04,.78-3.1,.21-6.53,1.31-10.13,3.39-13.9,8.03-25.18,27.55-25.18,43.6s11.27,22.56,25.18,14.53L198.73,100.66c16.78-9.69,30.39-33.26,30.39-52.63,0-19.38-13.61-27.23-30.39-17.54Z"/>
  <g>
    <path class="cls-59" d="M198.73,30.48c-4.78,2.76-9.29,6.64-13.31,11.23-.25-.8-.55-1.55-.84-2.3,3.86-4.28,8.15-7.93,12.68-10.55,10.86-6.27,20.37-5.16,25.74,1.64-5.55-5.3-14.33-5.74-24.26-.01Z"/>
    <path class="cls-60" d="M64.18,117.72c3.61-2.08,7.03-3.18,10.13-3.39,0-.26-.04-.51-.04-.78,0-12.55,8.81-27.82,19.68-34.09,3-1.73,5.84-2.57,8.38-2.65,7.68-20.04,22.2-38.96,38.86-48.58,15.69-9.06,29.46-7.64,37.43,1.88-8.13-8.04-21.19-8.77-35.94-.26-16.66,9.62-31.18,28.54-38.86,48.58-2.55,.08-5.38,.92-8.38,2.65-10.87,6.28-19.68,21.54-19.68,34.09,0,.27,.03,.52,.04,.78-3.1,.21-6.53,1.31-10.13,3.39-13.9,8.03-25.18,27.55-25.18,43.6,0,5.59,1.39,9.99,3.76,13.06-3.27-3.02-5.24-8.01-5.24-14.68,0-16.05,11.27-35.58,25.18-43.6Z"/>
  </g>
  <g class="cls-38">
    <g>
      <g>
        <g>
          <path class="cls-35" d="M165.05,104.68l44.36-25.55c.97-.56,1.46-1.28,1.46-1.96h0s0-8,0-8l-1.52,1.36-1.31-.76c.14-.17,.24-.31,.21-.36-.08-.14-.65-1.13-.65-1.13l-31.3-18.48-9.95-5.79-3.89-1.12-45.54,26.17,.13,1.05-1.22,.7-1.95-.87v7.96s0,0,0,0c-.01,.57,.32,1.12,1.02,1.53l44.18,25.5c1.52,.88,4.19,.77,5.95-.24Zm18.01-19.74l-20.09,10.97-1.73-.08-33.55-18.77-9.29-4.8,43.78-25.21c.4-.23,1.01-.26,1.36-.05l42.6,24.59-23.08,13.37Z"/>
          <path class="cls-54" d="M165.05,104.68l44.36-25.55c.97-.56,1.46-1.28,1.46-1.96h0s0-8,0-8l-1.52,1.36-1.31-.76c.14-.17,.24-.31,.21-.36-.08-.14-.65-1.13-.65-1.13l-31.3-18.48-9.95-5.79-3.89-1.12-45.54,26.17,.13,1.05-1.22,.7-1.95-.87v7.96s0,0,0,0c-.01,.57,.32,1.12,1.02,1.53l44.18,25.5c1.52,.88,4.19,.77,5.95-.24Zm18.01-19.74l-20.09,10.97-1.73-.08-33.55-18.77-9.29-4.8,43.78-25.21c.4-.23,1.01-.26,1.36-.05l42.6,24.59-23.08,13.37Z"/>
          <path class="cls-62" d="M161.85,105.51v-9.66s1.12,.05,1.12,.05l20.09-10.97,23.08-13.37-.77-.44c.71-.41,4.76-1.54,5.5-1.97v7.42s0,.58,0,.58h0c0,.68-.48,1.4-1.46,1.96l-44.36,25.55c-.92,.53-2.08,.81-3.2,.83Z"/>
          <path class="cls-43" d="M165.05,96.58l44.36-25.55c1.76-1.01,1.95-2.55,.43-3.43l-44.18-25.5c-1.52-.88-4.19-.77-5.95,.24l-44.36,25.55c-1.76,1.01-1.95,2.55-.43,3.43l44.18,25.5c1.52,.88,4.19,.77,5.95-.24Zm-2.46-1.49c-.4,.23-1.01,.26-1.36,.05l-43.39-25.05c-.35-.2-.3-.55,.1-.78l44.24-25.48c.4-.23,1.01-.26,1.36-.05l43.39,25.05c.35,.2,.3,.55-.1,.78l-44.24,25.48Z"/>
          <path class="cls-56" d="M165.05,96.58l44.36-25.55c1.76-1.01,1.95-2.55,.43-3.43l-44.18-25.5c-1.52-.88-4.19-.77-5.95,.24l-44.36,25.55c-1.76,1.01-1.95,2.55-.43,3.43l44.18,25.5c1.52,.88,4.19,.77,5.95-.24Zm-2.46-1.49c-.4,.23-1.01,.26-1.36,.05l-43.39-25.05c-.35-.2-.3-.55,.1-.78l44.24-25.48c.4-.23,1.01-.26,1.36-.05l43.39,25.05c.35,.2,.3,.55-.1,.78l-44.24,25.48Z"/>
          <g>
            <path class="cls-41" d="M206.93,68.39l-43.39-25.05c-.35-.2-.96-.18-1.36,.06l-44.24,25.48c-.33,.19-.41,.45-.25,.65,.06-.08,.14-.15,.25-.22l44.24-25.48c.4-.23,1.01-.26,1.36-.05l43.39,25.05c.07,.04,.11,.08,.15,.13,.14-.2,.1-.42-.15-.57Z"/>
            <path class="cls-41" d="M209.42,70.59l-44.36,25.55c-1.76,1.01-4.43,1.12-5.95,.24l-44.18-25.5c-.6-.35-.93-.8-1.01-1.28-.1,.64,.23,1.26,1.01,1.71l44.18,25.5c1.52,.88,4.19,.77,5.95-.24l44.36-25.55c1.07-.61,1.55-1.42,1.44-2.16-.1,.61-.58,1.23-1.44,1.72Z"/>
          </g>
          <path class="cls-40" d="M163.53,46.99c-.35-.2-.96-.18-1.36,.05l-42.19,24.3-2.15-1.24c-.35-.2-.3-.55,.1-.78l44.24-25.48c.4-.23,1.01-.26,1.36-.05l43.39,25.05c.35,.2,.3,.55-.1,.78l-2.05,1.18-41.25-23.8Z"/>
          <path class="cls-42" d="M206.83,69.61c.4-.23,.45-.58,.1-.78l-43.39-25.05c-.35-.2-.96-.18-1.36,.05l-44.24,25.48c-.4,.23-.45,.58-.1,.78l43.39,25.05c.35,.2,.96,.18,1.36-.05l44.24-25.48Z"/>
        </g>
        <g>
          <path class="cls-46" d="M165.05,90.85l44.36-25.55c.97-.56,1.46-1.28,1.46-1.96h0s0-8,0-8l-1.52,1.36-1.31-.76c.14-.17,.24-.31,.21-.36-.08-.14-.65-1.13-.65-1.13l-31.3-18.48-9.95-5.79-3.89-1.12-45.54,26.17,.13,1.05-1.22,.7-1.95-.87v7.96s0,0,0,0c-.01,.57,.32,1.12,1.02,1.53l44.18,25.5c1.52,.88,4.19,.77,5.95-.24Zm18.01-19.74l-20.09,10.97-1.73-.08-33.55-18.77-9.29-4.8,43.78-25.21c.4-.23,1.01-.26,1.36-.05l42.6,24.59-23.08,13.37Z"/>
          <path class="cls-58" d="M165.05,90.85l44.36-25.55c.97-.56,1.46-1.28,1.46-1.96h0s0-8,0-8l-1.52,1.36-1.31-.76c.14-.17,.24-.31,.21-.36-.08-.14-.65-1.13-.65-1.13l-31.3-18.48-9.95-5.79-3.89-1.12-45.54,26.17,.13,1.05-1.22,.7-1.95-.87v7.96s0,0,0,0c-.01,.57,.32,1.12,1.02,1.53l44.18,25.5c1.52,.88,4.19,.77,5.95-.24Zm18.01-19.74l-20.09,10.97-1.73-.08-33.55-18.77-9.29-4.8,43.78-25.21c.4-.23,1.01-.26,1.36-.05l42.6,24.59-23.08,13.37Z"/>
          <path class="cls-62" d="M161.85,91.68v-9.66s1.12,.05,1.12,.05l20.09-10.97,23.08-13.37-.77-.44c.71-.41,4.76-1.54,5.5-1.97v7.42s0,.58,0,.58h0c0,.68-.48,1.4-1.46,1.96l-44.36,25.55c-.92,.53-2.08,.81-3.2,.83Z"/>
          <path class="cls-47" d="M165.05,82.75l44.36-25.55c1.76-1.01,1.95-2.55,.43-3.43l-44.18-25.5c-1.52-.88-4.19-.77-5.95,.24l-44.36,25.55c-1.76,1.01-1.95,2.55-.43,3.43l44.18,25.5c1.52,.88,4.19,.77,5.95-.24Zm-2.46-1.49c-.4,.23-1.01,.26-1.36,.05l-43.39-25.05c-.35-.2-.3-.55,.1-.78l44.24-25.48c.4-.23,1.01-.26,1.36-.05l43.39,25.05c.35,.2,.3,.55-.1,.78l-44.24,25.48Z"/>
          <path class="cls-55" d="M165.05,82.75l44.36-25.55c1.76-1.01,1.95-2.55,.43-3.43l-44.18-25.5c-1.52-.88-4.19-.77-5.95,.24l-44.36,25.55c-1.76,1.01-1.95,2.55-.43,3.43l44.18,25.5c1.52,.88,4.19,.77,5.95-.24Zm-2.46-1.49c-.4,.23-1.01,.26-1.36,.05l-43.39-25.05c-.35-.2-.3-.55,.1-.78l44.24-25.48c.4-.23,1.01-.26,1.36-.05l43.39,25.05c.35,.2,.3,.55-.1,.78l-44.24,25.48Z"/>
          <g>
            <path class="cls-41" d="M206.93,54.55l-43.39-25.05c-.35-.2-.96-.18-1.36,.05l-44.24,25.48c-.33,.19-.41,.45-.25,.65,.06-.08,.14-.15,.25-.22l44.24-25.48c.4-.23,1.01-.26,1.36-.06l43.39,25.05c.07,.04,.11,.08,.15,.13,.14-.2,.1-.42-.15-.57Z"/>
            <path class="cls-41" d="M209.42,56.76l-44.36,25.55c-1.76,1.01-4.43,1.12-5.95,.24l-44.18-25.5c-.6-.35-.93-.8-1.01-1.28-.1,.64,.23,1.26,1.01,1.71l44.18,25.5c1.52,.88,4.19,.77,5.95-.24l44.36-25.55c1.07-.61,1.55-1.42,1.44-2.16-.1,.61-.58,1.23-1.44,1.72Z"/>
          </g>
          <path class="cls-40" d="M163.53,33.15c-.35-.2-.96-.18-1.36,.05l-42.19,24.3-2.15-1.24c-.35-.2-.3-.55,.1-.78l44.24-25.48c.4-.23,1.01-.26,1.36-.05l43.39,25.05c.35,.2,.3,.55-.1,.78l-2.05,1.18-41.25-23.8Z"/>
          <path class="cls-42" d="M206.83,55.77c.4-.23,.45-.58,.1-.78l-43.39-25.05c-.35-.2-.96-.18-1.36,.05l-44.24,25.48c-.4,.23-.45,.58-.1,.78l43.39,25.05c.35,.2,.96,.18,1.36-.05l44.24-25.48Z"/>
        </g>
        <g>
          <path class="cls-45" d="M165.05,77.01l44.36-25.55c.97-.56,1.46-1.28,1.46-1.96h0s0-8,0-8l-1.52,1.36-1.31-.76c.14-.17,.24-.31,.21-.36-.08-.14-.65-1.13-.65-1.13l-31.3-18.48-9.95-5.79-3.89-1.12-45.54,26.17,.13,1.05-1.22,.7-1.95-.87v7.96s0,0,0,0c-.01,.57,.32,1.12,1.02,1.53l44.18,25.5c1.52,.88,4.19,.77,5.95-.24Zm18.01-19.74l-20.09,10.97-1.73-.08-33.55-18.77-9.29-4.8,43.78-25.21c.4-.23,1.01-.26,1.36-.05l42.6,24.59-23.08,13.37Z"/>
          <path class="cls-57" d="M165.05,77.01l44.36-25.55c.97-.56,1.46-1.28,1.46-1.96h0s0-8,0-8l-1.52,1.36-1.31-.76c.14-.17,.24-.31,.21-.36-.08-.14-.65-1.13-.65-1.13l-31.3-18.48-9.95-5.79-3.89-1.12-45.54,26.17,.13,1.05-1.22,.7-1.95-.87v7.96s0,0,0,0c-.01,.57,.32,1.12,1.02,1.53l44.18,25.5c1.52,.88,4.19,.77,5.95-.24Zm18.01-19.74l-20.09,10.97-1.73-.08-33.55-18.77-9.29-4.8,43.78-25.21c.4-.23,1.01-.26,1.36-.05l42.6,24.59-23.08,13.37Z"/>
          <path class="cls-62" d="M161.85,77.85v-9.66s1.12,.05,1.12,.05l20.09-10.97,23.08-13.37-.77-.44c.71-.41,4.76-1.54,5.5-1.97v7.42s0,.58,0,.58h0c0,.68-.48,1.4-1.46,1.96l-44.36,25.55c-.92,.53-2.08,.81-3.2,.83Z"/>
          <path class="cls-44" d="M165.05,68.91l44.36-25.55c1.76-1.01,1.95-2.55,.43-3.43l-44.18-25.5c-1.52-.88-4.19-.77-5.95,.24l-44.36,25.55c-1.76,1.01-1.95,2.55-.43,3.43l44.18,25.5c1.52,.88,4.19,.77,5.95-.24Zm-2.46-1.49c-.4,.23-1.01,.26-1.36,.05l-43.39-25.05c-.35-.2-.3-.55,.1-.78l44.24-25.48c.4-.23,1.01-.26,1.36-.05l43.39,25.05c.35,.2,.3,.55-.1,.78l-44.24,25.48Z"/>
          <path class="cls-52" d="M165.05,68.91l44.36-25.55c1.76-1.01,1.95-2.55,.43-3.43l-44.18-25.5c-1.52-.88-4.19-.77-5.95,.24l-44.36,25.55c-1.76,1.01-1.95,2.55-.43,3.43l44.18,25.5c1.52,.88,4.19,.77,5.95-.24Zm-2.46-1.49c-.4,.23-1.01,.26-1.36,.05l-43.39-25.05c-.35-.2-.3-.55,.1-.78l44.24-25.48c.4-.23,1.01-.26,1.36-.05l43.39,25.05c.35,.2,.3,.55-.1,.78l-44.24,25.48Z"/>
          <g>
            <path class="cls-41" d="M206.93,40.72l-43.39-25.05c-.35-.2-.96-.18-1.36,.06l-44.24,25.48c-.33,.19-.41,.45-.25,.65,.06-.08,.14-.15,.25-.22l44.24-25.48c.4-.23,1.01-.26,1.36-.06l43.39,25.05c.07,.04,.11,.08,.15,.13,.14-.2,.1-.42-.15-.57Z"/>
            <path class="cls-41" d="M209.42,42.93l-44.36,25.55c-1.76,1.01-4.43,1.12-5.95,.24l-44.18-25.5c-.6-.35-.93-.8-1.01-1.28-.1,.64,.23,1.26,1.01,1.71l44.18,25.5c1.52,.88,4.19,.77,5.95-.24l44.36-25.55c1.07-.61,1.55-1.42,1.44-2.15-.1,.61-.58,1.23-1.44,1.72Z"/>
          </g>
          <path class="cls-40" d="M163.53,19.32c-.35-.2-.96-.18-1.36,.05l-42.19,24.3-2.15-1.24c-.35-.2-.3-.55,.1-.78l44.24-25.48c.4-.23,1.01-.26,1.36-.05l43.39,25.05c.35,.2,.3,.55-.1,.78l-2.05,1.18-41.25-23.8Z"/>
          <path class="cls-42" d="M206.83,41.94c.4-.23,.45-.58,.1-.78l-43.39-25.05c-.35-.2-.96-.18-1.36,.05l-44.24,25.48c-.4,.23-.45,.58-.1,.78l43.39,25.05c.35,.2,.96,.18,1.36-.05l44.24-25.48Z"/>
        </g>
        <g>
          <path class="cls-49" d="M165.05,63.18l44.36-25.55c.97-.56,1.46-1.28,1.46-1.96h0s0-8,0-8l-1.52,1.36-1.31-.76c.14-.17,.24-.31,.21-.36-.08-.14-.65-1.13-.65-1.13l-31.3-18.48-9.95-5.79-3.89-1.12-45.54,26.17,.13,1.05-1.22,.7-1.95-.87v7.96s0,0,0,0c-.01,.57,.32,1.12,1.02,1.53l44.18,25.5c1.52,.88,4.19,.77,5.95-.24Zm18.01-19.74l-20.09,10.97-1.73-.08-33.55-18.77-9.29-4.8L162.18,5.54c.4-.23,1.01-.26,1.36-.05l42.6,24.59-23.08,13.37Z"/>
          <path class="cls-51" d="M165.05,63.18l44.36-25.55c.97-.56,1.46-1.28,1.46-1.96h0s0-8,0-8l-1.52,1.36-1.31-.76c.14-.17,.24-.31,.21-.36-.08-.14-.65-1.13-.65-1.13l-31.3-18.48-9.95-5.79-3.89-1.12-45.54,26.17,.13,1.05-1.22,.7-1.95-.87v7.96s0,0,0,0c-.01,.57,.32,1.12,1.02,1.53l44.18,25.5c1.52,.88,4.19,.77,5.95-.24Zm18.01-19.74l-20.09,10.97-1.73-.08-33.55-18.77-9.29-4.8L162.18,5.54c.4-.23,1.01-.26,1.36-.05l42.6,24.59-23.08,13.37Z"/>
          <path class="cls-62" d="M161.85,64.01v-9.66s1.12,.05,1.12,.05l20.09-10.97,23.08-13.37-.77-.44c.71-.41,4.76-1.54,5.5-1.97v7.42s0,.58,0,.58h0c0,.68-.48,1.4-1.46,1.96l-44.36,25.55c-.92,.53-2.08,.81-3.2,.83Z"/>
          <path class="cls-50" d="M165.05,55.08l44.36-25.55c1.76-1.01,1.95-2.55,.43-3.43L165.67,.6c-1.52-.88-4.19-.77-5.95,.24l-44.36,25.55c-1.76,1.01-1.95,2.55-.43,3.43l44.18,25.5c1.52,.88,4.19,.77,5.95-.24Zm-2.46-1.49c-.4,.23-1.01,.26-1.36,.05l-43.39-25.05c-.35-.2-.3-.55,.1-.78L162.18,2.33c.4-.23,1.01-.26,1.36-.05l43.39,25.05c.35,.2,.3,.55-.1,.78l-44.24,25.48Z"/>
          <path class="cls-53" d="M165.05,55.08l44.36-25.55c1.76-1.01,1.95-2.55,.43-3.43L165.67,.6c-1.52-.88-4.19-.77-5.95,.24l-44.36,25.55c-1.76,1.01-1.95,2.55-.43,3.43l44.18,25.5c1.52,.88,4.19,.77,5.95-.24Zm-2.46-1.49c-.4,.23-1.01,.26-1.36,.05l-43.39-25.05c-.35-.2-.3-.55,.1-.78L162.18,2.33c.4-.23,1.01-.26,1.36-.05l43.39,25.05c.35,.2,.3,.55-.1,.78l-44.24,25.48Z"/>
          <g>
            <path class="cls-41" d="M206.93,26.89L163.54,1.84c-.35-.2-.96-.18-1.36,.06l-44.24,25.48c-.33,.19-.41,.45-.25,.65,.06-.08,.14-.15,.25-.22L162.18,2.33c.4-.23,1.01-.26,1.36-.05l43.39,25.05c.07,.04,.11,.08,.15,.13,.14-.2,.1-.42-.15-.57Z"/>
            <path class="cls-41" d="M209.42,29.09l-44.36,25.55c-1.76,1.01-4.43,1.12-5.95,.24l-44.18-25.5c-.6-.35-.93-.8-1.01-1.28-.1,.64,.23,1.26,1.01,1.71l44.18,25.5c1.52,.88,4.19,.77,5.95-.24l44.36-25.55c1.07-.61,1.55-1.42,1.44-2.16-.1,.61-.58,1.23-1.44,1.72Z"/>
          </g>
          <path class="cls-40" d="M163.53,5.49c-.35-.2-.96-.18-1.36,.05l-42.19,24.3-2.15-1.24c-.35-.2-.3-.55,.1-.78L162.18,2.33c.4-.23,1.01-.26,1.36-.05l43.39,25.05c.35,.2,.3,.55-.1,.78l-2.05,1.18L163.53,5.49Z"/>
          <path class="cls-42" d="M206.83,28.11c.4-.23,.45-.58,.1-.78L163.54,2.28c-.35-.2-.96-.18-1.36,.05l-44.24,25.48c-.4,.23-.45,.58-.1,.78l43.39,25.05c.35,.2,.96,.18,1.36-.05l44.24-25.48Z"/>
        </g>
      </g>
      <g>
        <g>
          <path class="cls-48" d="M108.1,137.38l44.36-25.55c.97-.56,1.46-1.28,1.46-1.96h0s0-8,0-8l-1.52,1.36-1.31-.76c.14-.17,.24-.31,.21-.36-.08-.14-.65-1.13-.65-1.13l-31.3-18.48-9.95-5.79-3.89-1.12-45.54,26.17,.13,1.05-1.22,.7-1.95-.87v7.96s0,0,0,0c-.01,.57,.32,1.12,1.02,1.53l44.18,25.5c1.52,.88,4.19,.77,5.95-.24Zm18.01-19.74l-20.09,10.97-1.73-.08-33.55-18.77-9.29-4.8,43.78-25.21c.4-.23,1.01-.26,1.36-.05l42.6,24.59-23.08,13.37Z"/>
          <path class="cls-30" d="M108.1,137.38l44.36-25.55c.97-.56,1.46-1.28,1.46-1.96h0s0-8,0-8l-1.52,1.36-1.31-.76c.14-.17,.24-.31,.21-.36-.08-.14-.65-1.13-.65-1.13l-31.3-18.48-9.95-5.79-3.89-1.12-45.54,26.17,.13,1.05-1.22,.7-1.95-.87v7.96s0,0,0,0c-.01,.57,.32,1.12,1.02,1.53l44.18,25.5c1.52,.88,4.19,.77,5.95-.24Zm18.01-19.74l-20.09,10.97-1.73-.08-33.55-18.77-9.29-4.8,43.78-25.21c.4-.23,1.01-.26,1.36-.05l42.6,24.59-23.08,13.37Z"/>
          <path class="cls-62" d="M104.9,138.22v-9.66s1.12,.05,1.12,.05l20.09-10.97,23.08-13.37-.77-.44c.71-.41,4.76-1.54,5.5-1.97v7.42s0,.58,0,.58h0c0,.68-.48,1.4-1.46,1.96l-44.36,25.55c-.92,.53-2.08,.81-3.2,.83Z"/>
          <path class="cls-11" d="M108.1,129.28l44.36-25.55c1.76-1.01,1.95-2.55,.43-3.43l-44.18-25.5c-1.52-.88-4.19-.77-5.95,.24l-44.36,25.55c-1.76,1.01-1.95,2.55-.43,3.43l44.18,25.5c1.52,.88,4.19,.77,5.95-.24Zm-2.46-1.49c-.4,.23-1.01,.26-1.36,.05l-43.39-25.05c-.35-.2-.3-.55,.1-.78l44.24-25.48c.4-.23,1.01-.26,1.36-.05l43.39,25.05c.35,.2,.3,.55-.1,.78l-44.24,25.48Z"/>
          <path class="cls-23" d="M108.1,129.28l44.36-25.55c1.76-1.01,1.95-2.55,.43-3.43l-44.18-25.5c-1.52-.88-4.19-.77-5.95,.24l-44.36,25.55c-1.76,1.01-1.95,2.55-.43,3.43l44.18,25.5c1.52,.88,4.19,.77,5.95-.24Zm-2.46-1.49c-.4,.23-1.01,.26-1.36,.05l-43.39-25.05c-.35-.2-.3-.55,.1-.78l44.24-25.48c.4-.23,1.01-.26,1.36-.05l43.39,25.05c.35,.2,.3,.55-.1,.78l-44.24,25.48Z"/>
          <g>
            <path class="cls-41" d="M149.98,101.09l-43.39-25.05c-.35-.2-.96-.18-1.36,.05l-44.24,25.48c-.33,.19-.41,.45-.25,.65,.06-.08,.14-.15,.25-.22l44.24-25.48c.4-.23,1.01-.26,1.36-.06l43.39,25.05c.07,.04,.11,.08,.15,.13,.14-.2,.1-.42-.15-.57Z"/>
            <path class="cls-41" d="M152.47,103.3l-44.36,25.55c-1.76,1.01-4.43,1.12-5.95,.24l-44.18-25.5c-.6-.35-.93-.8-1.01-1.28-.1,.64,.23,1.26,1.01,1.71l44.18,25.5c1.52,.88,4.19,.77,5.95-.24l44.36-25.55c1.07-.61,1.55-1.42,1.44-2.15-.1,.61-.58,1.23-1.44,1.72Z"/>
          </g>
          <path class="cls-40" d="M106.59,79.69c-.35-.2-.96-.18-1.36,.05l-42.19,24.3-2.15-1.24c-.35-.2-.3-.55,.1-.78l44.24-25.48c.4-.23,1.01-.26,1.36-.05l43.39,25.05c.35,.2,.3,.55-.1,.78l-2.05,1.18-41.25-23.8Z"/>
          <path class="cls-42" d="M149.88,102.31c.4-.23,.45-.58,.1-.78l-43.39-25.05c-.35-.2-.96-.18-1.36,.05l-44.24,25.48c-.4,.23-.45,.58-.1,.78l43.39,25.05c.35,.2,.96,.18,1.36-.05l44.24-25.48Z"/>
        </g>
        <g>
          <path class="cls-12" d="M108.1,123.55l44.36-25.55c.97-.56,1.46-1.28,1.46-1.96h0s0-8,0-8l-1.52,1.36-1.31-.76c.14-.17,.24-.31,.21-.36-.08-.14-.65-1.13-.65-1.13l-31.3-18.48-9.95-5.79-3.89-1.12-45.54,26.17,.13,1.05-1.22,.7-1.95-.87v7.96s0,0,0,0c-.01,.57,.32,1.12,1.02,1.53l44.18,25.5c1.52,.88,4.19,.77,5.95-.24Zm18.01-19.74l-20.09,10.97-1.73-.08-33.55-18.77-9.29-4.8,43.78-25.21c.4-.23,1.01-.26,1.36-.05l42.6,24.59-23.08,13.37Z"/>
          <path class="cls-31" d="M108.1,123.55l44.36-25.55c.97-.56,1.46-1.28,1.46-1.96h0s0-8,0-8l-1.52,1.36-1.31-.76c.14-.17,.24-.31,.21-.36-.08-.14-.65-1.13-.65-1.13l-31.3-18.48-9.95-5.79-3.89-1.12-45.54,26.17,.13,1.05-1.22,.7-1.95-.87v7.96s0,0,0,0c-.01,.57,.32,1.12,1.02,1.53l44.18,25.5c1.52,.88,4.19,.77,5.95-.24Zm18.01-19.74l-20.09,10.97-1.73-.08-33.55-18.77-9.29-4.8,43.78-25.21c.4-.23,1.01-.26,1.36-.05l42.6,24.59-23.08,13.37Z"/>
          <path class="cls-62" d="M104.9,124.38v-9.66s1.12,.05,1.12,.05l20.09-10.97,23.08-13.37-.77-.44c.71-.41,4.76-1.54,5.5-1.97v7.42s0,.58,0,.58h0c0,.68-.48,1.4-1.46,1.96l-44.36,25.55c-.92,.53-2.08,.81-3.2,.83Z"/>
          <path class="cls-9" d="M108.1,115.45l44.36-25.55c1.76-1.01,1.95-2.55,.43-3.43l-44.18-25.5c-1.52-.88-4.19-.77-5.95,.24l-44.36,25.55c-1.76,1.01-1.95,2.55-.43,3.43l44.18,25.5c1.52,.88,4.19,.77,5.95-.24Zm-2.46-1.49c-.4,.23-1.01,.26-1.36,.05l-43.39-25.05c-.35-.2-.3-.55,.1-.78l44.24-25.48c.4-.23,1.01-.26,1.36-.05l43.39,25.05c.35,.2,.3,.55-.1,.78l-44.24,25.48Z"/>
          <path class="cls-24" d="M108.1,115.45l44.36-25.55c1.76-1.01,1.95-2.55,.43-3.43l-44.18-25.5c-1.52-.88-4.19-.77-5.95,.24l-44.36,25.55c-1.76,1.01-1.95,2.55-.43,3.43l44.18,25.5c1.52,.88,4.19,.77,5.95-.24Zm-2.46-1.49c-.4,.23-1.01,.26-1.36,.05l-43.39-25.05c-.35-.2-.3-.55,.1-.78l44.24-25.48c.4-.23,1.01-.26,1.36-.05l43.39,25.05c.35,.2,.3,.55-.1,.78l-44.24,25.48Z"/>
          <g>
            <path class="cls-41" d="M149.98,87.26l-43.39-25.05c-.35-.2-.96-.18-1.36,.06l-44.24,25.48c-.33,.19-.41,.45-.25,.65,.06-.08,.14-.15,.25-.22l44.24-25.48c.4-.23,1.01-.26,1.36-.05l43.39,25.05c.07,.04,.11,.08,.15,.13,.14-.2,.1-.42-.15-.57Z"/>
            <path class="cls-41" d="M152.47,89.46l-44.36,25.55c-1.76,1.01-4.43,1.12-5.95,.24l-44.18-25.5c-.6-.35-.93-.8-1.01-1.28-.1,.64,.23,1.26,1.01,1.71l44.18,25.5c1.52,.88,4.19,.77,5.95-.24l44.36-25.55c1.07-.61,1.55-1.42,1.44-2.15-.1,.61-.58,1.23-1.44,1.72Z"/>
          </g>
          <path class="cls-40" d="M106.59,65.86c-.35-.2-.96-.18-1.36,.05l-42.19,24.3-2.15-1.24c-.35-.2-.3-.55,.1-.78l44.24-25.48c.4-.23,1.01-.26,1.36-.05l43.39,25.05c.35,.2,.3,.55-.1,.78l-2.05,1.18-41.25-23.8Z"/>
          <path class="cls-42" d="M149.88,88.48c.4-.23,.45-.58,.1-.78l-43.39-25.05c-.35-.2-.96-.18-1.36,.05l-44.24,25.48c-.4,.23-.45,.58-.1,.78l43.39,25.05c.35,.2,.96,.18,1.36-.05l44.24-25.48Z"/>
        </g>
        <g>
          <path class="cls-10" d="M108.1,109.72l44.36-25.55c.97-.56,1.46-1.28,1.46-1.96h0s0-8,0-8l-1.52,1.36-1.31-.76c.14-.17,.24-.31,.21-.36-.08-.14-.65-1.13-.65-1.13l-31.3-18.48-9.95-5.79-3.89-1.12-45.54,26.17,.13,1.05-1.22,.7-1.95-.87v7.96s0,0,0,0c-.01,.57,.32,1.12,1.02,1.53l44.18,25.5c1.52,.88,4.19,.77,5.95-.24Zm18.01-19.74l-20.09,10.97-1.73-.08-33.55-18.77-9.29-4.8,43.78-25.21c.4-.23,1.01-.26,1.36-.05l42.6,24.59-23.08,13.37Z"/>
          <path class="cls-22" d="M108.1,109.72l44.36-25.55c.97-.56,1.46-1.28,1.46-1.96h0s0-8,0-8l-1.52,1.36-1.31-.76c.14-.17,.24-.31,.21-.36-.08-.14-.65-1.13-.65-1.13l-31.3-18.48-9.95-5.79-3.89-1.12-45.54,26.17,.13,1.05-1.22,.7-1.95-.87v7.96s0,0,0,0c-.01,.57,.32,1.12,1.02,1.53l44.18,25.5c1.52,.88,4.19,.77,5.95-.24Zm18.01-19.74l-20.09,10.97-1.73-.08-33.55-18.77-9.29-4.8,43.78-25.21c.4-.23,1.01-.26,1.36-.05l42.6,24.59-23.08,13.37Z"/>
          <path class="cls-62" d="M104.9,110.55v-9.66s1.12,.05,1.12,.05l20.09-10.97,23.08-13.37-.77-.44c.71-.41,4.76-1.54,5.5-1.97v7.42s0,.58,0,.58h0c0,.68-.48,1.4-1.46,1.96l-44.36,25.55c-.92,.53-2.08,.81-3.2,.83Z"/>
          <path class="cls-16" d="M108.1,101.62l44.36-25.55c1.76-1.01,1.95-2.55,.43-3.43l-44.18-25.5c-1.52-.88-4.19-.77-5.95,.24l-44.36,25.55c-1.76,1.01-1.95,2.55-.43,3.43l44.18,25.5c1.52,.88,4.19,.77,5.95-.24Zm-2.46-1.49c-.4,.23-1.01,.26-1.36,.05l-43.39-25.05c-.35-.2-.3-.55,.1-.78l44.24-25.48c.4-.23,1.01-.26,1.36-.05l43.39,25.05c.35,.2,.3,.55-.1,.78l-44.24,25.48Z"/>
          <path class="cls-29" d="M108.1,101.62l44.36-25.55c1.76-1.01,1.95-2.55,.43-3.43l-44.18-25.5c-1.52-.88-4.19-.77-5.95,.24l-44.36,25.55c-1.76,1.01-1.95,2.55-.43,3.43l44.18,25.5c1.52,.88,4.19,.77,5.95-.24Zm-2.46-1.49c-.4,.23-1.01,.26-1.36,.05l-43.39-25.05c-.35-.2-.3-.55,.1-.78l44.24-25.48c.4-.23,1.01-.26,1.36-.05l43.39,25.05c.35,.2,.3,.55-.1,.78l-44.24,25.48Z"/>
          <g>
            <path class="cls-41" d="M149.98,73.42l-43.39-25.05c-.35-.2-.96-.18-1.36,.05l-44.24,25.48c-.33,.19-.41,.45-.25,.65,.06-.08,.14-.15,.25-.22l44.24-25.48c.4-.23,1.01-.26,1.36-.06l43.39,25.05c.07,.04,.11,.08,.15,.13,.14-.2,.1-.42-.15-.57Z"/>
            <path class="cls-41" d="M152.47,75.63l-44.36,25.55c-1.76,1.01-4.43,1.12-5.95,.24l-44.18-25.5c-.6-.35-.93-.8-1.01-1.28-.1,.64,.23,1.26,1.01,1.71l44.18,25.5c1.52,.88,4.19,.77,5.95-.24l44.36-25.55c1.07-.61,1.55-1.42,1.44-2.16-.1,.61-.58,1.23-1.44,1.72Z"/>
          </g>
          <path class="cls-40" d="M106.59,52.02c-.35-.2-.96-.18-1.36,.05l-42.19,24.3-2.15-1.24c-.35-.2-.3-.55,.1-.78l44.24-25.48c.4-.23,1.01-.26,1.36-.05l43.39,25.05c.35,.2,.3,.55-.1,.78l-2.05,1.18-41.25-23.8Z"/>
          <path class="cls-42" d="M149.88,74.64c.4-.23,.45-.58,.1-.78l-43.39-25.05c-.35-.2-.96-.18-1.36,.05l-44.24,25.48c-.4,.23-.45,.58-.1,.78l43.39,25.05c.35,.2,.96,.18,1.36-.05l44.24-25.48Z"/>
        </g>
        <g>
          <path class="cls-15" d="M108.1,95.88l44.36-25.55c.97-.56,1.46-1.28,1.46-1.96h0s0-8,0-8l-1.52,1.36-1.31-.76c.14-.17,.24-.31,.21-.36-.08-.14-.65-1.13-.65-1.13l-31.3-18.48-9.95-5.79-3.89-1.12-45.54,26.17,.13,1.05-1.22,.7-1.95-.87v7.96s0,0,0,0c-.01,.57,.32,1.12,1.02,1.53l44.18,25.5c1.52,.88,4.19,.77,5.95-.24Zm18.01-19.74l-20.09,10.97-1.73-.08-33.55-18.77-9.29-4.8,43.78-25.21c.4-.23,1.01-.26,1.36-.05l42.6,24.59-23.08,13.37Z"/>
          <path class="cls-18" d="M108.1,95.88l44.36-25.55c.97-.56,1.46-1.28,1.46-1.96h0s0-8,0-8l-1.52,1.36-1.31-.76c.14-.17,.24-.31,.21-.36-.08-.14-.65-1.13-.65-1.13l-31.3-18.48-9.95-5.79-3.89-1.12-45.54,26.17,.13,1.05-1.22,.7-1.95-.87v7.96s0,0,0,0c-.01,.57,.32,1.12,1.02,1.53l44.18,25.5c1.52,.88,4.19,.77,5.95-.24Zm18.01-19.74l-20.09,10.97-1.73-.08-33.55-18.77-9.29-4.8,43.78-25.21c.4-.23,1.01-.26,1.36-.05l42.6,24.59-23.08,13.37Z"/>
          <path class="cls-62" d="M104.9,96.72v-9.66s1.12,.05,1.12,.05l20.09-10.97,23.08-13.37-.77-.44c.71-.41,4.76-1.54,5.5-1.97v7.42s0,.58,0,.58h0c0,.68-.48,1.4-1.46,1.96l-44.36,25.55c-.92,.53-2.08,.81-3.2,.83Z"/>
          <path class="cls-13" d="M108.1,87.78l44.36-25.55c1.76-1.01,1.95-2.55,.43-3.43l-44.18-25.5c-1.52-.88-4.19-.77-5.95,.24l-44.36,25.55c-1.76,1.01-1.95,2.55-.43,3.43l44.18,25.5c1.52,.88,4.19,.77,5.95-.24Zm-2.46-1.49c-.4,.23-1.01,.26-1.36,.05l-43.39-25.05c-.35-.2-.3-.55,.1-.78l44.24-25.48c.4-.23,1.01-.26,1.36-.05l43.39,25.05c.35,.2,.3,.55-.1,.78l-44.24,25.48Z"/>
          <path class="cls-21" d="M108.1,87.78l44.36-25.55c1.76-1.01,1.95-2.55,.43-3.43l-44.18-25.5c-1.52-.88-4.19-.77-5.95,.24l-44.36,25.55c-1.76,1.01-1.95,2.55-.43,3.43l44.18,25.5c1.52,.88,4.19,.77,5.95-.24Zm-2.46-1.49c-.4,.23-1.01,.26-1.36,.05l-43.39-25.05c-.35-.2-.3-.55,.1-.78l44.24-25.48c.4-.23,1.01-.26,1.36-.05l43.39,25.05c.35,.2,.3,.55-.1,.78l-44.24,25.48Z"/>
          <g>
            <path class="cls-41" d="M149.98,59.59l-43.39-25.05c-.35-.2-.96-.18-1.36,.05l-44.24,25.48c-.33,.19-.41,.45-.25,.65,.06-.08,.14-.15,.25-.22l44.24-25.48c.4-.23,1.01-.26,1.36-.06l43.39,25.05c.07,.04,.11,.08,.15,.13,.14-.2,.1-.42-.15-.57Z"/>
            <path class="cls-41" d="M152.47,61.8l-44.36,25.55c-1.76,1.01-4.43,1.12-5.95,.24l-44.18-25.5c-.6-.35-.93-.8-1.01-1.28-.1,.64,.23,1.26,1.01,1.71l44.18,25.5c1.52,.88,4.19,.77,5.95-.24l44.36-25.55c1.07-.61,1.55-1.42,1.44-2.15-.1,.61-.58,1.23-1.44,1.72Z"/>
          </g>
          <path class="cls-40" d="M106.59,38.19c-.35-.2-.96-.18-1.36,.05l-42.19,24.3-2.15-1.24c-.35-.2-.3-.55,.1-.78l44.24-25.48c.4-.23,1.01-.26,1.36-.05l43.39,25.05c.35,.2,.3,.55-.1,.78l-2.05,1.18-41.25-23.8Z"/>
          <path class="cls-42" d="M149.88,60.81c.4-.23,.45-.58,.1-.78l-43.39-25.05c-.35-.2-.96-.18-1.36,.05l-44.24,25.48c-.4,.23-.45,.58-.1,.78l43.39,25.05c.35,.2,.96,.18,1.36-.05l44.24-25.48Z"/>
        </g>
      </g>
      <g>
        <g>
          <path class="cls-14" d="M51.15,170.09l44.36-25.55c.97-.56,1.46-1.28,1.46-1.96h0s0-8,0-8l-1.52,1.36-1.31-.76c.14-.17,.24-.31,.21-.36-.08-.14-.65-1.13-.65-1.13l-31.3-18.48-9.95-5.79-3.89-1.12L3.04,134.47l.13,1.05-1.22,.7L0,135.35v7.96s0,0,0,0c-.01,.57,.32,1.12,1.02,1.53l44.18,25.5c1.52,.88,4.19,.77,5.95-.24Zm18.01-19.74l-20.09,10.97-1.73-.08-33.55-18.77-9.29-4.8,43.78-25.21c.4-.23,1.01-.26,1.36-.05l42.6,24.59-23.08,13.37Z"/>
          <path class="cls-20" d="M51.15,170.09l44.36-25.55c.97-.56,1.46-1.28,1.46-1.96h0s0-8,0-8l-1.52,1.36-1.31-.76c.14-.17,.24-.31,.21-.36-.08-.14-.65-1.13-.65-1.13l-31.3-18.48-9.95-5.79-3.89-1.12L3.04,134.47l.13,1.05-1.22,.7L0,135.35v7.96s0,0,0,0c-.01,.57,.32,1.12,1.02,1.53l44.18,25.5c1.52,.88,4.19,.77,5.95-.24Zm18.01-19.74l-20.09,10.97-1.73-.08-33.55-18.77-9.29-4.8,43.78-25.21c.4-.23,1.01-.26,1.36-.05l42.6,24.59-23.08,13.37Z"/>
          <path class="cls-62" d="M47.95,170.92v-9.65s1.12,.05,1.12,.05l20.09-10.97,23.08-13.37-.77-.44c.71-.41,4.76-1.54,5.5-1.97v7.42s0,.58,0,.58h0c0,.68-.48,1.4-1.46,1.96l-44.36,25.55c-.92,.53-2.08,.81-3.2,.83Z"/>
          <path class="cls-7" d="M51.16,161.99l44.36-25.55c1.76-1.01,1.95-2.55,.43-3.43l-44.18-25.5c-1.52-.88-4.19-.77-5.95,.24L1.46,133.29c-1.76,1.01-1.95,2.55-.43,3.43l44.18,25.5c1.52,.88,4.19,.77,5.95-.24Zm-2.46-1.49c-.4,.23-1.01,.26-1.36,.05L3.95,135.5c-.35-.2-.3-.55,.1-.78l44.24-25.48c.4-.23,1.01-.26,1.36-.05l43.39,25.05c.35,.2,.3,.55-.1,.78l-44.24,25.48Z"/>
          <path class="cls-32" d="M51.16,161.99l44.36-25.55c1.76-1.01,1.95-2.55,.43-3.43l-44.18-25.5c-1.52-.88-4.19-.77-5.95,.24L1.46,133.29c-1.76,1.01-1.95,2.55-.43,3.43l44.18,25.5c1.52,.88,4.19,.77,5.95-.24Zm-2.46-1.49c-.4,.23-1.01,.26-1.36,.05L3.95,135.5c-.35-.2-.3-.55,.1-.78l44.24-25.48c.4-.23,1.01-.26,1.36-.05l43.39,25.05c.35,.2,.3,.55-.1,.78l-44.24,25.48Z"/>
          <g>
            <path class="cls-41" d="M93.03,133.79l-43.39-25.05c-.35-.2-.96-.18-1.36,.05L4.04,134.28c-.33,.19-.41,.45-.25,.65,.06-.08,.14-.15,.25-.22l44.24-25.48c.4-.23,1.01-.26,1.36-.05l43.39,25.05c.07,.04,.11,.08,.15,.13,.14-.2,.1-.42-.15-.57Z"/>
            <path class="cls-41" d="M95.52,136l-44.36,25.55c-1.76,1.01-4.43,1.12-5.95,.24L1.03,136.29c-.6-.35-.93-.8-1.01-1.28-.1,.64,.23,1.26,1.01,1.71l44.18,25.5c1.52,.88,4.19,.77,5.95-.24l44.36-25.55c1.07-.61,1.55-1.42,1.44-2.16-.1,.61-.58,1.23-1.44,1.72Z"/>
          </g>
          <path class="cls-40" d="M49.64,112.39c-.35-.2-.96-.18-1.36,.05L6.09,136.75l-2.15-1.24c-.35-.2-.3-.55,.1-.78l44.24-25.48c.4-.23,1.01-.26,1.36-.05l43.39,25.05c.35,.2,.3,.55-.1,.78l-2.05,1.18-41.25-23.8Z"/>
          <path class="cls-42" d="M92.94,135.01c.4-.23,.45-.58,.1-.78l-43.39-25.05c-.35-.2-.96-.18-1.36,.05L4.04,134.72c-.4,.23-.45,.58-.1,.78l43.39,25.05c.35,.2,.96,.18,1.36-.05l44.24-25.48Z"/>
        </g>
        <g>
          <path class="cls-8" d="M51.15,156.25l44.36-25.55c.97-.56,1.46-1.28,1.46-1.96h0s0-8,0-8l-1.52,1.36-1.31-.76c.14-.17,.24-.31,.21-.36-.08-.14-.65-1.13-.65-1.13l-31.3-18.48-9.95-5.79-3.89-1.12L3.04,120.63l.13,1.05-1.22,.7L0,121.51v7.96s0,0,0,0c-.01,.57,.32,1.12,1.02,1.53l44.18,25.5c1.52,.88,4.19,.77,5.95-.24Zm18.01-19.74l-20.09,10.97-1.73-.08-33.55-18.77-9.29-4.8,43.78-25.21c.4-.23,1.01-.26,1.36-.05l42.6,24.59-23.08,13.37Z"/>
          <path class="cls-19" d="M51.15,156.25l44.36-25.55c.97-.56,1.46-1.28,1.46-1.96h0s0-8,0-8l-1.52,1.36-1.31-.76c.14-.17,.24-.31,.21-.36-.08-.14-.65-1.13-.65-1.13l-31.3-18.48-9.95-5.79-3.89-1.12L3.04,120.63l.13,1.05-1.22,.7L0,121.51v7.96s0,0,0,0c-.01,.57,.32,1.12,1.02,1.53l44.18,25.5c1.52,.88,4.19,.77,5.95-.24Zm18.01-19.74l-20.09,10.97-1.73-.08-33.55-18.77-9.29-4.8,43.78-25.21c.4-.23,1.01-.26,1.36-.05l42.6,24.59-23.08,13.37Z"/>
          <path class="cls-62" d="M47.95,157.09v-9.66s1.12,.05,1.12,.05l20.09-10.97,23.08-13.37-.77-.44c.71-.41,4.76-1.54,5.5-1.97v7.42s0,.58,0,.58h0c0,.68-.48,1.4-1.46,1.96l-44.36,25.55c-.92,.53-2.08,.81-3.2,.83Z"/>
          <path class="cls-3" d="M51.16,148.15l44.36-25.55c1.76-1.01,1.95-2.55,.43-3.43l-44.18-25.5c-1.52-.88-4.19-.77-5.95,.24L1.46,119.46c-1.76,1.01-1.95,2.55-.43,3.43l44.18,25.5c1.52,.88,4.19,.77,5.95-.24Zm-2.46-1.49c-.4,.23-1.01,.26-1.36,.05L3.95,121.67c-.35-.2-.3-.55,.1-.78l44.24-25.48c.4-.23,1.01-.26,1.36-.05l43.39,25.05c.35,.2,.3,.55-.1,.78l-44.24,25.48Z"/>
          <path class="cls-27" d="M51.16,148.15l44.36-25.55c1.76-1.01,1.95-2.55,.43-3.43l-44.18-25.5c-1.52-.88-4.19-.77-5.95,.24L1.46,119.46c-1.76,1.01-1.95,2.55-.43,3.43l44.18,25.5c1.52,.88,4.19,.77,5.95-.24Zm-2.46-1.49c-.4,.23-1.01,.26-1.36,.05L3.95,121.67c-.35-.2-.3-.55,.1-.78l44.24-25.48c.4-.23,1.01-.26,1.36-.05l43.39,25.05c.35,.2,.3,.55-.1,.78l-44.24,25.48Z"/>
          <g>
            <path class="cls-41" d="M93.03,119.96l-43.39-25.05c-.35-.2-.96-.18-1.36,.05L4.04,120.45c-.33,.19-.41,.45-.25,.65,.06-.08,.14-.15,.25-.22l44.24-25.48c.4-.23,1.01-.26,1.36-.06l43.39,25.05c.07,.04,.11,.08,.15,.13,.14-.2,.1-.42-.15-.57Z"/>
            <path class="cls-41" d="M95.52,122.17l-44.36,25.55c-1.76,1.01-4.43,1.12-5.95,.24L1.03,122.46c-.6-.35-.93-.8-1.01-1.28-.1,.64,.23,1.26,1.01,1.71l44.18,25.5c1.52,.88,4.19,.77,5.95-.24l44.36-25.55c1.07-.61,1.55-1.42,1.44-2.16-.1,.61-.58,1.23-1.44,1.72Z"/>
          </g>
          <path class="cls-40" d="M49.64,98.56c-.35-.2-.96-.18-1.36,.05L6.09,122.91l-2.15-1.24c-.35-.2-.3-.55,.1-.78l44.24-25.48c.4-.23,1.01-.26,1.36-.05l43.39,25.05c.35,.2,.3,.55-.1,.78l-2.05,1.18-41.25-23.8Z"/>
          <path class="cls-42" d="M92.94,121.18c.4-.23,.45-.58,.1-.78l-43.39-25.05c-.35-.2-.96-.18-1.36,.05L4.04,120.88c-.4,.23-.45,.58-.1,.78l43.39,25.05c.35,.2,.96,.18,1.36-.05l44.24-25.48Z"/>
        </g>
        <g>
          <path class="cls-2" d="M51.15,142.42l44.36-25.55c.97-.56,1.46-1.28,1.46-1.96h0s0-8,0-8l-1.52,1.36-1.31-.76c.14-.17,.24-.31,.21-.36-.08-.14-.65-1.13-.65-1.13l-31.3-18.48-9.95-5.79-3.89-1.12L3.04,106.8l.13,1.05-1.22,.7L0,107.68v7.96s0,0,0,0c-.01,.57,.32,1.12,1.02,1.53l44.18,25.5c1.52,.88,4.19,.77,5.95-.24Zm18.01-19.74l-20.09,10.97-1.73-.08L13.8,114.8l-9.29-4.8,43.78-25.21c.4-.23,1.01-.26,1.36-.05l42.6,24.59-23.08,13.37Z"/>
          <path class="cls-28" d="M51.15,142.42l44.36-25.55c.97-.56,1.46-1.28,1.46-1.96h0s0-8,0-8l-1.52,1.36-1.31-.76c.14-.17,.24-.31,.21-.36-.08-.14-.65-1.13-.65-1.13l-31.3-18.48-9.95-5.79-3.89-1.12L3.04,106.8l.13,1.05-1.22,.7L0,107.68v7.96s0,0,0,0c-.01,.57,.32,1.12,1.02,1.53l44.18,25.5c1.52,.88,4.19,.77,5.95-.24Zm18.01-19.74l-20.09,10.97-1.73-.08L13.8,114.8l-9.29-4.8,43.78-25.21c.4-.23,1.01-.26,1.36-.05l42.6,24.59-23.08,13.37Z"/>
          <path class="cls-62" d="M47.95,143.25v-9.66s1.12,.05,1.12,.05l20.09-10.97,23.08-13.37-.77-.44c.71-.41,4.76-1.54,5.5-1.97v7.42s0,.58,0,.58h0c0,.68-.48,1.4-1.46,1.96l-44.36,25.55c-.92,.53-2.08,.81-3.2,.83Z"/>
          <path class="cls-4" d="M51.16,134.32l44.36-25.55c1.76-1.01,1.95-2.55,.43-3.43l-44.18-25.5c-1.52-.88-4.19-.77-5.95,.24L1.46,105.63c-1.76,1.01-1.95,2.55-.43,3.43l44.18,25.5c1.52,.88,4.19,.77,5.95-.24Zm-2.46-1.49c-.4,.23-1.01,.26-1.36,.05L3.95,107.84c-.35-.2-.3-.55,.1-.78l44.24-25.48c.4-.23,1.01-.26,1.36-.05l43.39,25.05c.35,.2,.3,.55-.1,.78l-44.24,25.48Z"/>
          <path class="cls-25" d="M51.16,134.32l44.36-25.55c1.76-1.01,1.95-2.55,.43-3.43l-44.18-25.5c-1.52-.88-4.19-.77-5.95,.24L1.46,105.63c-1.76,1.01-1.95,2.55-.43,3.43l44.18,25.5c1.52,.88,4.19,.77,5.95-.24Zm-2.46-1.49c-.4,.23-1.01,.26-1.36,.05L3.95,107.84c-.35-.2-.3-.55,.1-.78l44.24-25.48c.4-.23,1.01-.26,1.36-.05l43.39,25.05c.35,.2,.3,.55-.1,.78l-44.24,25.48Z"/>
          <g>
            <path class="cls-41" d="M93.03,106.13l-43.39-25.05c-.35-.2-.96-.18-1.36,.06L4.04,106.62c-.33,.19-.41,.45-.25,.65,.06-.08,.14-.15,.25-.22l44.24-25.48c.4-.23,1.01-.26,1.36-.05l43.39,25.05c.07,.04,.11,.08,.15,.13,.14-.2,.1-.42-.15-.57Z"/>
            <path class="cls-41" d="M95.52,108.33l-44.36,25.55c-1.76,1.01-4.43,1.12-5.95,.24L1.03,108.63c-.6-.35-.93-.8-1.01-1.28-.1,.64,.23,1.26,1.01,1.71l44.18,25.5c1.52,.88,4.19,.77,5.95-.24l44.36-25.55c1.07-.61,1.55-1.42,1.44-2.15-.1,.61-.58,1.23-1.44,1.72Z"/>
          </g>
          <path class="cls-40" d="M49.64,84.73c-.35-.2-.96-.18-1.36,.05L6.09,109.08l-2.15-1.24c-.35-.2-.3-.55,.1-.78l44.24-25.48c.4-.23,1.01-.26,1.36-.05l43.39,25.05c.35,.2,.3,.55-.1,.78l-2.05,1.18-41.25-23.8Z"/>
          <path class="cls-42" d="M92.94,107.35c.4-.23,.45-.58,.1-.78l-43.39-25.05c-.35-.2-.96-.18-1.36,.05L4.04,107.05c-.4,.23-.45,.58-.1,.78l43.39,25.05c.35,.2,.96,.18,1.36-.05l44.24-25.48Z"/>
        </g>
        <g>
          <path class="cls-6" d="M51.15,128.59l44.36-25.55c.97-.56,1.46-1.28,1.46-1.96h0s0-8,0-8l-1.52,1.36-1.31-.76c.14-.17,.24-.31,.21-.36-.08-.14-.65-1.13-.65-1.13l-31.3-18.48-9.95-5.79-3.89-1.12L3.04,92.97l.13,1.05-1.22,.7L0,93.85v7.96s0,0,0,0c-.01,.57,.32,1.12,1.02,1.53l44.18,25.5c1.52,.88,4.19,.77,5.95-.24Zm18.01-19.74l-20.09,10.97-1.73-.08L13.8,100.96l-9.29-4.8,43.78-25.21c.4-.23,1.01-.26,1.36-.05l42.6,24.59-23.08,13.37Z"/>
          <path class="cls-26" d="M51.15,128.59l44.36-25.55c.97-.56,1.46-1.28,1.46-1.96h0s0-8,0-8l-1.52,1.36-1.31-.76c.14-.17,.24-.31,.21-.36-.08-.14-.65-1.13-.65-1.13l-31.3-18.48-9.95-5.79-3.89-1.12L3.04,92.97l.13,1.05-1.22,.7L0,93.85v7.96s0,0,0,0c-.01,.57,.32,1.12,1.02,1.53l44.18,25.5c1.52,.88,4.19,.77,5.95-.24Zm18.01-19.74l-20.09,10.97-1.73-.08L13.8,100.96l-9.29-4.8,43.78-25.21c.4-.23,1.01-.26,1.36-.05l42.6,24.59-23.08,13.37Z"/>
          <path class="cls-62" d="M47.95,129.42v-9.65s1.12,.05,1.12,.05l20.09-10.97,23.08-13.37-.77-.44c.71-.41,4.76-1.54,5.5-1.97v7.42s0,.58,0,.58h0c0,.68-.48,1.4-1.46,1.96l-44.36,25.55c-.92,.53-2.08,.81-3.2,.83Z"/>
          <path class="cls-5" d="M51.16,120.49l44.36-25.55c1.76-1.01,1.95-2.55,.43-3.43l-44.18-25.5c-1.52-.88-4.19-.77-5.95,.24L1.46,91.8c-1.76,1.01-1.95,2.55-.43,3.43l44.18,25.5c1.52,.88,4.19,.77,5.95-.24Zm-2.46-1.49c-.4,.23-1.01,.26-1.36,.05L3.95,94c-.35-.2-.3-.55,.1-.78l44.24-25.48c.4-.23,1.01-.26,1.36-.05l43.39,25.05c.35,.2,.3,.55-.1,.78l-44.24,25.48Z"/>
          <path class="cls-17" d="M51.16,120.49l44.36-25.55c1.76-1.01,1.95-2.55,.43-3.43l-44.18-25.5c-1.52-.88-4.19-.77-5.95,.24L1.46,91.8c-1.76,1.01-1.95,2.55-.43,3.43l44.18,25.5c1.52,.88,4.19,.77,5.95-.24Zm-2.46-1.49c-.4,.23-1.01,.26-1.36,.05L3.95,94c-.35-.2-.3-.55,.1-.78l44.24-25.48c.4-.23,1.01-.26,1.36-.05l43.39,25.05c.35,.2,.3,.55-.1,.78l-44.24,25.48Z"/>
          <g>
            <path class="cls-41" d="M93.03,92.29l-43.39-25.05c-.35-.2-.96-.18-1.36,.05L4.04,92.78c-.33,.19-.41,.45-.25,.65,.06-.08,.14-.15,.25-.22l44.24-25.48c.4-.23,1.01-.26,1.36-.05l43.39,25.05c.07,.04,.11,.08,.15,.13,.14-.2,.1-.42-.15-.57Z"/>
            <path class="cls-41" d="M95.52,94.5l-44.36,25.55c-1.76,1.01-4.43,1.12-5.95,.24L1.03,94.79c-.6-.35-.93-.8-1.01-1.28-.1,.64,.23,1.26,1.01,1.71l44.18,25.5c1.52,.88,4.19,.77,5.95-.24l44.36-25.55c1.07-.61,1.55-1.42,1.44-2.16-.1,.61-.58,1.23-1.44,1.72Z"/>
          </g>
          <path class="cls-40" d="M49.64,70.89c-.35-.2-.96-.18-1.36,.05L6.09,95.25l-2.15-1.24c-.35-.2-.3-.55,.1-.78l44.24-25.48c.4-.23,1.01-.26,1.36-.05l43.39,25.05c.35,.2,.3,.55-.1,.78l-2.05,1.18-41.25-23.8Z"/>
          <path class="cls-42" d="M92.94,93.51c.4-.23,.45-.58,.1-.78l-43.39-25.05c-.35-.2-.96-.18-1.36,.05L4.04,93.22c-.4,.23-.45,.58-.1,.78l43.39,25.05c.35,.2,.96,.18,1.36-.05l44.24-25.48Z"/>
        </g>
      </g>
    </g>
  </g>
  <g>
    <path class="cls-39" d="M143.82,71.28c0,.56-.39,1.23-.87,1.51-.48,.28-.87,.05-.87-.5s.39-1.23,.87-1.51c.48-.28,.87-.05,.87,.5Z"/>
    <path class="cls-39" d="M146.86,69.53c0,.56-.39,1.23-.87,1.51-.48,.28-.87,.05-.87-.5s.39-1.23,.87-1.51c.48-.28,.87-.05,.87,.5Z"/>
    <path class="cls-39" d="M149.89,67.77c0,.56-.39,1.23-.87,1.51-.48,.28-.87,.05-.87-.5s.39-1.23,.87-1.51c.48-.28,.87-.05,.87,.5Z"/>
  </g>
  <g>
    <path class="cls-39" d="M143.82,99.08c0,.56-.39,1.23-.87,1.51-.48,.28-.87,.05-.87-.5s.39-1.23,.87-1.51c.48-.28,.87-.05,.87,.5Z"/>
    <path class="cls-39" d="M146.86,97.33c0,.56-.39,1.23-.87,1.51-.48,.28-.87,.05-.87-.5s.39-1.23,.87-1.51c.48-.28,.87-.05,.87,.5Z"/>
    <path class="cls-39" d="M149.89,95.58c0,.56-.39,1.23-.87,1.51-.48,.28-.87,.05-.87-.5s.39-1.23,.87-1.51c.48-.28,.87-.05,.87,.5Z"/>
  </g>
  <g>
    <path class="cls-39" d="M200.34,52.8c0,.56-.39,1.23-.87,1.51-.48,.28-.87,.05-.87-.5s.39-1.23,.87-1.51c.48-.28,.87-.05,.87,.5Z"/>
    <path class="cls-39" d="M203.37,51.05c0,.56-.39,1.23-.87,1.51-.48,.28-.87,.05-.87-.5s.39-1.23,.87-1.51,.87-.05,.87,.5Z"/>
    <path class="cls-39" d="M206.41,49.3c0,.56-.39,1.23-.87,1.51-.48,.28-.87,.05-.87-.5s.39-1.23,.87-1.51c.48-.28,.87-.05,.87,.5Z"/>
  </g>
  <g>
    <path class="cls-39" d="M86.71,145.63c0,.56-.39,1.23-.87,1.51-.48,.28-.87,.05-.87-.5s.39-1.23,.87-1.51c.48-.28,.87-.05,.87,.5Z"/>
    <path class="cls-39" d="M89.74,143.87c0,.56-.39,1.23-.87,1.51-.48,.28-.87,.05-.87-.5s.39-1.23,.87-1.51c.48-.28,.87-.05,.87,.5Z"/>
    <path class="cls-39" d="M92.78,142.12c0,.56-.39,1.23-.87,1.51-.48,.28-.87,.05-.87-.5s.39-1.23,.87-1.51c.48-.28,.87-.05,.87,.5Z"/>
  </g>
</svg>