<?xml version="1.0" encoding="UTF-8"?>
<svg id="Layer_1" data-name="Layer 1" xmlns="http://www.w3.org/2000/svg" xmlns:xlink="http://www.w3.org/1999/xlink" viewBox="0 0 264.49 157.15">
  <defs>
    <style>
      .cls-1 {
        fill: url(#linear-gradient);
      }

      .cls-1, .cls-2, .cls-3 {
        opacity: .95;
      }

      .cls-4 {
        fill: #f4704f;
      }

      .cls-5 {
        fill: #fff;
      }

      .cls-6 {
        fill: #f14c23;
      }

      .cls-7 {
        fill: #8f8f8f;
      }

      .cls-8 {
        fill: #30393f;
      }

      .cls-9 {
        fill: #bfbfbf;
      }

      .cls-10 {
        fill: #d3462a;
      }

      .cls-11 {
        fill: #dcdcdc;
      }

      .cls-12 {
        fill: #d3bd24;
      }

      .cls-13 {
        fill: #1783f5;
      }

      .cls-14 {
        fill: #17252d;
      }

      .cls-15 {
        fill: #41b776;
      }

      .cls-16 {
        fill: #4870ed;
      }

      .cls-17 {
        fill: url(#_ÂÁ_Ï_ÌÌ_È_ËÂÌÚ_15-3);
      }

      .cls-17, .cls-18, .cls-19 {
        opacity: .48;
      }

      .cls-18 {
        fill: url(#_ÂÁ_Ï_ÌÌ_È_ËÂÌÚ_15-2);
      }

      .cls-20 {
        fill: url(#linear-gradient-3);
      }

      .cls-21 {
        fill: url(#linear-gradient-4);
      }

      .cls-19 {
        fill: url(#_ÂÁ_Ï_ÌÌ_È_ËÂÌÚ_15);
      }

      .cls-2 {
        fill: url(#linear-gradient-5);
      }

      .cls-3 {
        fill: url(#linear-gradient-2);
      }
    </style>
    <linearGradient id="linear-gradient" x1="149.89" y1="122.13" x2="434.8" y2="122.13" gradientUnits="userSpaceOnUse">
      <stop offset=".19" stop-color="#7c1dc9"/>
      <stop offset=".44" stop-color="#7d1dc9"/>
      <stop offset=".53" stop-color="#841dc9"/>
      <stop offset=".59" stop-color="#901ec9"/>
      <stop offset=".64" stop-color="#a120ca"/>
      <stop offset=".69" stop-color="#b622cb"/>
      <stop offset=".69" stop-color="#bb23cc"/>
    </linearGradient>
    <linearGradient id="linear-gradient-2" x1="0" y1="111.66" x2="439.75" y2="111.66" gradientUnits="userSpaceOnUse">
      <stop offset=".19" stop-color="#7c1dc9"/>
      <stop offset=".3" stop-color="#921fca"/>
      <stop offset=".44" stop-color="#a821cb"/>
      <stop offset=".57" stop-color="#b622cb"/>
      <stop offset=".69" stop-color="#bb23cc"/>
    </linearGradient>
    <linearGradient id="linear-gradient-3" x1="-1044.99" y1="22.72" x2="-1131.59" y2="38.54" gradientTransform="translate(-970.33) rotate(-180) scale(1 -1)" gradientUnits="userSpaceOnUse">
      <stop offset="0" stop-color="#42e8e0"/>
      <stop offset=".55" stop-color="#4d9bda"/>
      <stop offset="1" stop-color="#5761d7"/>
    </linearGradient>
    <linearGradient id="linear-gradient-4" x1="-1009.77" y1="46.65" x2="-1087.42" y2="90.53" xlink:href="#linear-gradient-3"/>
    <linearGradient id="_ÂÁ_Ï_ÌÌ_È_ËÂÌÚ_15" data-name="¡ÂÁ˚ÏˇÌÌ˚È „‡‰ËÂÌÚ 15" x1="-1205.03" y1="65.09" x2="-1015.97" y2="65.09" gradientTransform="translate(-970.33) rotate(-180) scale(1 -1)" gradientUnits="userSpaceOnUse">
      <stop offset="0" stop-color="#42e8e0"/>
      <stop offset=".15" stop-color="#42e3df"/>
      <stop offset=".33" stop-color="#44d4de"/>
      <stop offset=".52" stop-color="#48bddd"/>
      <stop offset=".72" stop-color="#4d9bda"/>
      <stop offset=".93" stop-color="#5471d8"/>
      <stop offset="1" stop-color="#5761d7"/>
    </linearGradient>
    <linearGradient id="linear-gradient-5" x1="-1234.81" y1="76.63" x2="-970.33" y2="76.63" gradientTransform="translate(-970.33) rotate(-180) scale(1 -1)" xlink:href="#linear-gradient-2"/>
    <linearGradient id="_ÂÁ_Ï_ÌÌ_È_ËÂÌÚ_15-2" data-name="¡ÂÁ˚ÏˇÌÌ˚È „‡‰ËÂÌÚ 15" x1="-1126.85" y1="95.02" x2="-1015.97" y2="95.02" xlink:href="#_ÂÁ_Ï_ÌÌ_È_ËÂÌÚ_15"/>
    <linearGradient id="_ÂÁ_Ï_ÌÌ_È_ËÂÌÚ_15-3" data-name="¡ÂÁ˚ÏˇÌÌ˚È „‡‰ËÂÌÚ 15" x1="-1205.08" y1="104.72" x2="-1126.81" y2="104.72" xlink:href="#_ÂÁ_Ï_ÌÌ_È_ËÂÌÚ_15"/>
  </defs>
  <path class="cls-9" d="M81.56,34.65c.02-.23,.11-.46,.11-.7v-3.81s-.01-.01-.01-.02v-.03c0-2.87-1.81-5.72-5.28-8.02l12.72-7.34,13.44,7.81-20.98,12.11Z"/>
  <path class="cls-9" d="M44.59,42.2c.17,.11,.35,.23,.53,.34,.09,.05,.17,.11,.26,.17,.92,.54,1.92,.99,2.96,1.41,.27,.11,.55,.21,.83,.31,.28,.1,.58,.17,.86,.26,.37,.12,.75,.24,1.13,.34,.69,.19,1.39,.38,2.12,.53,.25,.05,.52,.08,.77,.13,.61,.11,1.21,.23,1.83,.31,.21,.02,.4,.06,.61,.08,.09,.01,.18,0,.27,.02,.78,.07,1.56,.11,2.35,.13,.32,.01,.63,.05,.96,.06,.19,0,.38,0,.57,0,.22,0,.43-.03,.65-.04,.06,0,.12,0,.18,0l-15.83,9.14,.02,7.78-20.17-11.72,17.73-10.24c.19,.16,.38,.32,.59,.47,.24,.18,.52,.35,.78,.52Z"/>
  <polygon class="cls-1" points="264.49 87.1 264.49 90.98 149.89 157.15 149.89 153.27 264.49 87.1"/>
  <polygon class="cls-3" points="149.89 153.27 149.89 157.15 0 70.04 0 66.16 149.89 153.27"/>
  <polygon class="cls-6" points="0 66.16 25.49 51.45 45.66 63.17 45.68 70.1 156.52 134.66 234.75 89.5 234.71 74.78 123.86 10.22 102.54 22.54 89.1 14.73 114.6 0 264.49 87.1 149.89 153.27 0 66.16"/>
  <path class="cls-20" d="M81.69,34.65c.02-.23,.12-.46,.11-.7v-3.81s0-.01,0-.02,0-.02,0-.03c0-2.87-1.81-5.72-5.28-8.02l12.72-7.34,13.44,7.81-20.98,12.11Z"/>
  <path class="cls-21" d="M44.73,42.2c.17,.11,.34,.23,.52,.34,.09,.05,.17,.11,.26,.17,.92,.54,1.93,.99,2.96,1.41,.27,.11,.55,.21,.83,.31,.28,.1,.58,.17,.86,.26,.37,.12,.75,.24,1.13,.34,.69,.19,1.39,.38,2.12,.53,.25,.05,.52,.08,.77,.13,.61,.11,1.21,.23,1.84,.31,.2,.02,.4,.06,.6,.08,.09,.01,.18,0,.27,.02,.78,.07,1.56,.11,2.35,.13,.32,.01,.64,.05,.96,.06,.19,0,.38,0,.57,0,.22,0,.43-.03,.64-.04,.06,0,.12,0,.18,0l-15.83,9.14,.02,7.78-20.17-11.72,17.73-10.24c.19,.16,.39,.32,.59,.47,.25,.18,.52,.35,.78,.52Z"/>
  <polygon class="cls-9" points="45.65 55.39 156.48 119.95 156.52 134.66 45.68 70.1 45.66 63.17 45.64 55.39 45.65 55.39"/>
  <polygon class="cls-7" points="234.71 74.78 234.71 74.78 234.75 89.5 156.52 134.66 156.48 119.95 234.71 74.78"/>
  <polygon class="cls-11" points="123.87 10.23 45.65 55.39 45.64 55.39 61.47 46.25 71.02 40.74 71.09 40.69 78.78 36.25 81.56 34.65 102.54 22.54 123.86 10.22 234.71 74.78 234.71 74.78 123.87 10.23"/>
  <path class="cls-5" d="M45.65,55.39l110.84,64.55,78.22-45.16L123.87,10.23,45.65,55.39Zm86.34-29.87l-.04,6.33h-.01s-16,0-16,0l.02-2.53h11.63s.03-3.81,.03-3.81h4.37Zm17.73,10.3l-.04,6.33h-.01s0,0,0,0h-15.99v-2.54h11.64s.02-3.8,.02-3.8h4.38Zm20.41,18.03l-20.15,11.63-1.5-16.42c6.12-.2,12.32,.75,17.56,2.83,1.43,.57,2.8,1.21,4.08,1.96Zm-20.25,46.14c.73-.42,1.82-.55,2.86-.4-.86-1.21-.45-2.67,1.26-3.64,1.34-.78,3.18-1.09,4.93-.93-.89-1.54-.26-3.31,1.85-4.54,2.98-1.72,7.83-1.73,10.79,0l-1.76,1.01c-2-1.16-5.26-1.16-7.29,0-2.01,1.16-2.02,3.05-.02,4.21l-.41,.24-1.32,.76h-.02s-.26-.15-.26-.15c-1.51-.72-3.76-.68-5.18,.15-1.53,.88-1.53,2.3-.03,3.17l-.6,.34-.72,.42c-.97-.56-2.42-.64-3.24-.16-.82,.47-.69,1.32,.27,1.88l-.72,.41c-1.42-.83-1.61-2.08-.39-2.78Zm-13.69-15.47l11-15.18h-28.39c.04-4.2,2.83-8.41,8.39-11.62,5.16-2.98,11.78-4.58,18.51-4.79l1.49,16.41,20.13-11.62c11.05,6.42,11.01,16.83-.12,23.25-8.4,4.85-20.73,6.04-31.01,3.55Zm-14.9,.07l20.15-11.63-11,15.18c-3.33-.81-6.45-1.98-9.14-3.55Zm-10.45-12.91h28.39s-20.15,11.63-20.15,11.63c-5.52-3.22-8.27-7.42-8.24-11.63Zm-22.45-7.26l38.88-22.45,4.73,2.75-38.88,22.45-4.73-2.75Zm-9.46-5.51l38.87-22.44,4.73,2.75-38.87,22.44-4.74-2.75Zm-9.45-5.49l38.87-22.44,4.73,2.75-38.87,22.44-4.73-2.75Z"/>
  <polygon class="cls-19" points="123.87 10.23 234.71 74.78 156.48 119.95 45.65 55.39 123.87 10.23"/>
  <polygon class="cls-2" points="0 66.16 25.49 51.45 45.66 63.17 45.68 70.1 156.52 134.66 234.75 89.5 234.71 74.78 123.86 10.22 102.54 22.54 89.1 14.73 114.6 0 264.49 87.1 149.89 153.27 0 66.16"/>
  <polygon class="cls-18" points="45.65 55.39 156.48 119.95 156.52 134.66 45.68 70.1 45.66 63.17 45.64 55.39 45.65 55.39"/>
  <polygon class="cls-17" points="234.71 74.78 234.71 74.78 234.75 89.5 156.52 134.66 156.48 119.95 234.71 74.78"/>
  <path class="cls-16" d="M145.7,52.93l1.49,16.41-20-11.62c5.16-2.98,11.78-4.58,18.51-4.79Z"/>
  <path class="cls-15" d="M148.49,49.06c6.12-.2,12.32,.75,17.56,2.83,1.43,.57,2.8,1.21,4.08,1.96l-20.15,11.63-1.5-16.42Z"/>
  <path class="cls-10" d="M167.32,57.72c11.05,6.42,11.01,16.83-.12,23.25l-20.01-11.63,20.13-11.62Z"/>
  <path class="cls-14" d="M167.2,80.97c-8.4,4.85-20.73,6.04-31.01,3.55l11-15.18,20.01,11.63Z"/>
  <path class="cls-4" d="M130.43,88.14c-3.33-.81-6.45-1.98-9.14-3.55l20.15-11.63-11,15.18Z"/>
  <path class="cls-5" d="M119.09,83.32c-5.52-3.22-8.27-7.42-8.24-11.63h28.39s-20.15,11.63-20.15,11.63Z"/>
  <path class="cls-12" d="M127.19,57.72l20,11.62h-28.39c.04-4.2,2.83-8.41,8.39-11.62Z"/>
  <polygon class="cls-8" points="122.54 39.22 83.67 61.66 78.94 58.91 117.81 36.47 122.54 39.22"/>
  <polygon class="cls-8" points="132.01 44.72 93.12 67.17 88.39 64.42 127.27 41.97 132.01 44.72"/>
  <polygon class="cls-8" points="113.09 33.73 74.22 56.16 69.49 53.42 108.36 30.98 113.09 33.73"/>
  <polygon class="cls-6" points="131.94 31.86 115.94 31.85 115.96 29.33 127.59 29.32 127.62 25.52 131.99 25.52 131.95 31.85 131.94 31.86"/>
  <polygon class="cls-6" points="149.66 42.15 149.66 42.16 133.67 42.16 133.67 39.62 145.31 39.62 145.34 35.82 149.72 35.82 149.68 42.16 149.66 42.15"/>
  <path class="cls-13" d="M149.88,99.99c.73-.42,1.82-.55,2.86-.4-.86-1.21-.45-2.67,1.26-3.64,1.34-.78,3.18-1.09,4.93-.93-.89-1.54-.26-3.31,1.85-4.54,2.98-1.72,7.83-1.73,10.79,0l-1.76,1.01c-2-1.16-5.26-1.16-7.29,0-2.01,1.16-2.02,3.05-.02,4.21l-.41,.24-1.32,.76h-.02s-.26-.15-.26-.15c-1.51-.72-3.76-.68-5.18,.15-1.53,.88-1.53,2.3-.03,3.17l-.6,.34-.72,.42c-.97-.56-2.42-.64-3.24-.16-.82,.47-.69,1.32,.27,1.88l-.72,.41c-1.42-.83-1.61-2.08-.39-2.78Z"/>
</svg>