<?xml version="1.0" encoding="UTF-8"?>
<svg xmlns="http://www.w3.org/2000/svg" xmlns:xlink="http://www.w3.org/1999/xlink" viewBox="0 0 194.6 252.5">
  <defs>
    <style>
      .cls-1 {
        fill: url(#Radial_Gradient_1-3);
      }

      .cls-1, .cls-2 {
        mix-blend-mode: color-dodge;
      }

      .cls-3 {
        fill: url(#linear-gradient);
      }

      .cls-4 {
        fill: #fff;
      }

      .cls-5 {
        fill: url(#Radial_Gradient_1-2);
      }

      .cls-6 {
        fill: #c7bcd6;
        mix-blend-mode: multiply;
        opacity: .7;
      }

      .cls-7 {
        fill: url(#New_Gradient_Swatch_copy_26);
      }

      .cls-8 {
        fill: url(#Radial_Gradient_1);
      }

      .cls-9 {
        isolation: isolate;
      }
    </style>
    <linearGradient id="New_Gradient_Swatch_copy_26" data-name="New Gradient Swatch copy 26" x1="-1679.49" y1="124.16" x2="-1661.96" y2="-111.61" gradientTransform="translate(-1589.35) rotate(-180) scale(1 -1)" gradientUnits="userSpaceOnUse">
      <stop offset=".03" stop-color="#7c1dc9"/>
      <stop offset=".21" stop-color="#6e41d1"/>
      <stop offset=".62" stop-color="#4c9be8"/>
      <stop offset="1" stop-color="#2af6ff"/>
    </linearGradient>
    <radialGradient id="Radial_Gradient_1" data-name="Radial Gradient 1" cx="-1724.73" cy="25.19" fx="-1724.73" fy="25.19" r="35.73" gradientTransform="translate(-1589.35) rotate(-180) scale(1 -1)" gradientUnits="userSpaceOnUse">
      <stop offset="0" stop-color="#fff"/>
      <stop offset="1" stop-color="#000"/>
    </radialGradient>
    <radialGradient id="Radial_Gradient_1-2" data-name="Radial Gradient 1" cx="-1652.11" cy="103.03" fx="-1652.11" fy="103.03" r="64.42" xlink:href="#Radial_Gradient_1"/>
    <linearGradient id="linear-gradient" x1="-1762.58" y1="273.08" x2="-1599.83" y2="-29.23" gradientTransform="translate(-1589.35) rotate(-180) scale(1 -1)" gradientUnits="userSpaceOnUse">
      <stop offset=".19" stop-color="#7c1dc9"/>
      <stop offset=".29" stop-color="#921fca"/>
      <stop offset=".43" stop-color="#a821cb"/>
      <stop offset=".55" stop-color="#b622cb"/>
      <stop offset=".66" stop-color="#bb23cc"/>
    </linearGradient>
    <radialGradient id="Radial_Gradient_1-3" data-name="Radial Gradient 1" cx="-1715.29" cy="139.18" fx="-1715.29" fy="139.18" r="103.75" xlink:href="#Radial_Gradient_1"/>
  </defs>
  <g class="cls-9">
    <g id="Layer_1" data-name="Layer 1">
      <path class="cls-7" d="M89.75,36.4v12.45S173.34,.6,173.34,.6c2.95-1.7,6.64,.43,6.64,3.84V158.22S20.5,250.92,20.5,250.92c-3.74,2.17-8.37,2.11-12.05-.17l-3.41-2.11C1.91,246.69,0,243.26,0,239.57V87.51c0-4.31,2.3-8.29,6.03-10.44L83.1,32.57c2.95-1.7,6.64,.43,6.64,3.84Z"/>
      <g class="cls-2">
        <path class="cls-8" d="M175.17,2.12L91.58,50.38v-2.58S173.34,.6,173.34,.6c2.13-1.23,4.63-.45,5.86,1.36-1.23-.56-2.7-.6-4.03,.17Z"/>
        <path class="cls-5" d="M6.03,77.07L83.1,32.57c2.13-1.23,4.63-.45,5.86,1.36-1.23-.56-2.7-.6-4.03,.17L7.86,78.59c-3.73,2.15-6.03,6.14-6.03,10.44V241.1c0,2.76,1.07,5.37,2.92,7.33C1.79,246.45,0,243.14,0,239.57V87.51c0-4.31,2.3-8.29,6.03-10.44Z"/>
      </g>
      <polygon class="cls-4" points="188.2 144.52 8.21 248.44 8.21 111.85 188.2 7.93 188.2 144.52"/>
      <polygon class="cls-6" points="188.2 149.08 11.4 251.15 11.4 123.41 188.2 21.34 188.2 149.08"/>
      <path class="cls-3" d="M186.8,154.62L20.2,250.81c-3.47,2.01-7.74,2.07-11.27,.17l-1.09-.59,1.13,.43c2.72,1.04,5.64-.97,5.64-3.88v-114.37c0-4.31,2.3-8.29,6.03-10.44L187.95,25.53c2.95-1.7,6.64,.43,6.64,3.84v111.75c0,5.57-2.97,10.72-7.8,13.5Z"/>
      <path class="cls-1" d="M8.97,250.82c2.72,1.04,5.64-.97,5.64-3.88v-114.37c0-4.31,2.3-8.29,6.03-10.44L187.95,25.53c1.95-1.13,4.2-.56,5.52,.93-1.21-.51-2.63-.53-3.92,.21L22.24,123.27c-3.73,2.15-6.03,6.14-6.03,10.44v114.37c0,2.17-1.63,3.84-3.58,4.11-1.28-.2-2.53-.59-3.7-1.22l-1.09-.59,1.13,.43Z"/>
    </g>
  </g>
</svg>