<?xml version="1.0" encoding="UTF-8"?>
<svg xmlns="http://www.w3.org/2000/svg" xmlns:xlink="http://www.w3.org/1999/xlink" viewBox="0 0 240.05 250.72">
  <defs>
    <style>
      .cls-1 {
        fill: url(#Radial_Gradient_1-2);
      }

      .cls-1, .cls-2, .cls-3, .cls-4, .cls-5, .cls-6, .cls-7 {
        mix-blend-mode: color-dodge;
      }

      .cls-2 {
        fill: url(#Radial_Gradient_1-5);
      }

      .cls-3 {
        fill: url(#Radial_Gradient_1-4);
      }

      .cls-4 {
        fill: url(#Radial_Gradient_1-7);
      }

      .cls-5 {
        fill: url(#Radial_Gradient_1-3);
      }

      .cls-6 {
        fill: url(#Radial_Gradient_1-6);
      }

      .Graphic_Style_460 {
        fill: url(#linear-gradient);
      }

      .cls-8 {
        mask: url(#mask);
      }

      .cls-9 {
        fill: url(#White_Black_2-2);
      }

      .cls-10 {
        fill: #ebdef3;
      }

      .cls-11 {
        fill: #25054d;
      }

      .cls-12 {
        fill: #231f20;
        opacity: .2;
      }

      .cls-12, .cls-13, .cls-14 {
        mix-blend-mode: multiply;
      }

      .cls-15 {
        fill: url(#New_Gradient_Swatch_copy_8);
      }

      .cls-13 {
        fill: #b086cc;
        opacity: .6;
      }

      .cls-16 {
        fill: url(#New_Gradient_Swatch_copy_57-6);
      }

      .cls-17 {
        fill: url(#New_Gradient_Swatch_copy_57-7);
      }

      .cls-18 {
        fill: url(#New_Gradient_Swatch_copy_57-2);
      }

      .cls-19 {
        fill: url(#New_Gradient_Swatch_copy_57-5);
      }

      .cls-20 {
        fill: url(#New_Gradient_Swatch_copy_57-4);
      }

      .cls-21 {
        fill: url(#New_Gradient_Swatch_copy_57-3);
      }

      .cls-22 {
        fill: url(#New_Gradient_Swatch_copy_57);
      }

      .cls-23 {
        mix-blend-mode: screen;
      }

      .cls-24 {
        fill: url(#linear-gradient-8);
      }

      .cls-25 {
        fill: url(#linear-gradient-9);
      }

      .cls-26 {
        fill: url(#linear-gradient-3);
      }

      .cls-27 {
        fill: url(#linear-gradient-4);
      }

      .cls-28 {
        fill: url(#linear-gradient-6);
      }

      .cls-29 {
        fill: url(#linear-gradient-7);
      }

      .cls-30 {
        fill: url(#linear-gradient-5);
      }

      .cls-31 {
        opacity: .95;
      }

      .cls-32 {
        fill: url(#linear-gradient-14);
      }

      .cls-33 {
        fill: url(#linear-gradient-18);
      }

      .cls-34 {
        fill: url(#linear-gradient-22);
      }

      .cls-35 {
        fill: url(#linear-gradient-20);
      }

      .cls-36 {
        fill: url(#linear-gradient-21);
      }

      .cls-37 {
        fill: url(#linear-gradient-23);
      }

      .cls-38 {
        fill: url(#linear-gradient-15);
      }

      .cls-39 {
        fill: url(#linear-gradient-19);
      }

      .cls-40 {
        fill: url(#linear-gradient-16);
      }

      .cls-41 {
        fill: url(#linear-gradient-17);
      }

      .cls-42 {
        fill: url(#linear-gradient-12);
      }

      .cls-43 {
        fill: url(#linear-gradient-10);
      }

      .cls-44 {
        fill: url(#linear-gradient-11);
      }

      .cls-45 {
        fill: url(#linear-gradient-27);
      }

      .cls-46 {
        fill: url(#linear-gradient-24);
      }

      .cls-47 {
        fill: url(#linear-gradient-26);
      }

      .cls-48 {
        fill: url(#linear-gradient-25);
      }

      .cls-49 {
        fill: url(#linear-gradient-28);
      }

      .cls-50 {
        fill: url(#linear-gradient-29);
      }

      .cls-51 {
        fill: url(#linear-gradient-30);
      }

      .cls-52 {
        isolation: isolate;
      }

      .cls-53 {
        fill: url(#White_Black_2);
      }

      .cls-14 {
        fill: url(#linear-gradient-13);
      }

      .cls-54 {
        mask: url(#mask-3);
      }

      .cls-55 {
        mask: url(#mask-2);
      }

      .cls-56 {
        mask: url(#mask-5);
      }

      .cls-57 {
        mask: url(#mask-4);
      }

      .cls-58 {
        mask: url(#mask-1);
      }

      .cls-59 {
        mask: url(#mask-7);
      }

      .cls-60 {
        mask: url(#mask-6);
      }

      .cls-61 {
        mask: url(#mask-8);
      }

      .cls-62 {
        fill: url(#linear-gradient-2);
        opacity: .7;
      }

      .cls-7 {
        fill: url(#Radial_Gradient_1);
      }
    </style>
    <linearGradient id="linear-gradient" x1="157.2" y1=".74" x2="157.2" y2="248.47" gradientUnits="userSpaceOnUse">
      <stop offset="0" stop-color="#ffe4a7"/>
      <stop offset=".1" stop-color="#fac098"/>
      <stop offset=".2" stop-color="#f49587"/>
      <stop offset=".46" stop-color="#a142b4"/>
      <stop offset=".6" stop-color="#7c1dc9"/>
      <stop offset=".69" stop-color="#741bc0"/>
      <stop offset=".85" stop-color="#5f16a8"/>
      <stop offset="1" stop-color="#45108a"/>
    </linearGradient>
    <linearGradient id="White_Black_2" data-name="White, Black 2" x1="46.41" y1="-25.06" x2="137.68" y2="174.44" gradientUnits="userSpaceOnUse">
      <stop offset="0" stop-color="#fff"/>
      <stop offset="1" stop-color="#000"/>
    </linearGradient>
    <mask id="mask" x="-3.73" y="-45.6" width="221.58" height="306.22" maskUnits="userSpaceOnUse">
      <polygon class="cls-53" points="217.85 -45.6 217.85 134.7 -3.73 260.62 -3.73 72.07 217.85 -45.6"/>
    </mask>
    <linearGradient id="White_Black_2-2" data-name="White, Black 2" x1="52.84" y1="-18.64" x2="144.1" y2="180.86" xlink:href="#White_Black_2"/>
    <mask id="mask-1" x="2.69" y="-39.17" width="221.58" height="306.22" maskUnits="userSpaceOnUse">
      <polygon class="cls-9" points="224.27 -39.17 224.27 141.12 2.69 267.05 2.69 78.5 224.27 -39.17"/>
    </mask>
    <linearGradient id="linear-gradient-2" x1="60.94" y1="46.92" x2="163.9" y2="221.95" gradientUnits="userSpaceOnUse">
      <stop offset="0" stop-color="#dc3daa"/>
      <stop offset=".35" stop-color="#a029bd"/>
      <stop offset=".6" stop-color="#7c1dc9"/>
      <stop offset=".69" stop-color="#741bc0"/>
      <stop offset=".85" stop-color="#5f16a8"/>
      <stop offset="1" stop-color="#45108a"/>
    </linearGradient>
    <linearGradient id="New_Gradient_Swatch_copy_57" data-name="New Gradient Swatch copy 57" x1="77.43" y1="45.49" x2="134.64" y2="142.75" gradientUnits="userSpaceOnUse">
      <stop offset="0" stop-color="#ffe4a7"/>
      <stop offset=".1" stop-color="#fac098"/>
      <stop offset=".2" stop-color="#f49587"/>
      <stop offset=".46" stop-color="#a142b4"/>
      <stop offset=".6" stop-color="#7c1dc9"/>
      <stop offset=".63" stop-color="#7825cb"/>
      <stop offset=".7" stop-color="#6f3ed1"/>
      <stop offset=".78" stop-color="#6065db"/>
      <stop offset=".87" stop-color="#4b9ce8"/>
      <stop offset=".97" stop-color="#31e0f9"/>
      <stop offset="1" stop-color="#2af6ff"/>
    </linearGradient>
    <linearGradient id="New_Gradient_Swatch_copy_8" data-name="New Gradient Swatch copy 8" x1="120.83" y1="-13.85" x2="143.44" y2="13.43" gradientUnits="userSpaceOnUse">
      <stop offset=".04" stop-color="#ffa98c"/>
      <stop offset=".32" stop-color="#feb892"/>
      <stop offset=".86" stop-color="#fee0a3"/>
      <stop offset="1" stop-color="#feeca8"/>
    </linearGradient>
    <linearGradient id="New_Gradient_Swatch_copy_57-2" data-name="New Gradient Swatch copy 57" x1="101.51" y1="24.29" x2="151.52" y2="153.65" xlink:href="#New_Gradient_Swatch_copy_57"/>
    <linearGradient id="New_Gradient_Swatch_copy_57-3" data-name="New Gradient Swatch copy 57" x1="159.93" y1="1.71" x2="209.94" y2="131.08" xlink:href="#New_Gradient_Swatch_copy_57"/>
    <linearGradient id="New_Gradient_Swatch_copy_57-4" data-name="New Gradient Swatch copy 57" x1="187.59" y1="-8.98" x2="237.59" y2="120.39" xlink:href="#New_Gradient_Swatch_copy_57"/>
    <linearGradient id="New_Gradient_Swatch_copy_57-5" data-name="New Gradient Swatch copy 57" x1="58.6" y1="40.87" x2="108.61" y2="170.24" gradientTransform="translate(121.8 -21.54) rotate(59.69)" xlink:href="#New_Gradient_Swatch_copy_57"/>
    <linearGradient id="New_Gradient_Swatch_copy_57-6" data-name="New Gradient Swatch copy 57" x1="24.77" y1="53.95" x2="74.78" y2="183.32" xlink:href="#New_Gradient_Swatch_copy_57"/>
    <linearGradient id="New_Gradient_Swatch_copy_57-7" data-name="New Gradient Swatch copy 57" x1="-7.24" y1="90.92" x2="42.77" y2="220.29" gradientTransform="translate(151.59 63.03) rotate(59.69)" xlink:href="#New_Gradient_Swatch_copy_57"/>
    <linearGradient id="linear-gradient-3" x1="7077.17" y1="2635.74" x2="7077.17" y2="2512.33" gradientTransform="translate(-6884.1 -2483.85)" gradientUnits="userSpaceOnUse">
      <stop offset=".56" stop-color="#fff"/>
      <stop offset=".61" stop-color="#f4f4f4"/>
      <stop offset=".69" stop-color="#d8d8d8"/>
      <stop offset=".8" stop-color="#aaaaab"/>
      <stop offset=".92" stop-color="#6c6b6d"/>
      <stop offset="1" stop-color="#414042"/>
    </linearGradient>
    <mask id="mask-2" x="171.26" y="21.19" width="43.62" height="135.68" maskUnits="userSpaceOnUse">
      <rect class="cls-26" x="171.26" y="21.19" width="43.62" height="135.68" transform="translate(386.14 178.06) rotate(180)"/>
    </mask>
    <linearGradient id="linear-gradient-4" x1="201.5" y1="71.77" x2="191.31" y2="89.42" gradientUnits="userSpaceOnUse">
      <stop offset="0" stop-color="#5513ab"/>
      <stop offset="1" stop-color="#be3bff"/>
    </linearGradient>
    <linearGradient id="linear-gradient-5" x1="195.94" y1="119.4" x2="274.2" y2="113.4" xlink:href="#linear-gradient-4"/>
    <linearGradient id="linear-gradient-6" x1="165.8" y1="115.19" x2="209.78" y2="122.56" xlink:href="#linear-gradient-4"/>
    <radialGradient id="Radial_Gradient_1" data-name="Radial Gradient 1" cx="184.62" cy="100.93" fx="184.62" fy="100.93" r="26.83" gradientUnits="userSpaceOnUse">
      <stop offset="0" stop-color="#fff"/>
      <stop offset="1" stop-color="#000"/>
    </radialGradient>
    <linearGradient id="linear-gradient-7" x1="7099.13" y1="2623.1" x2="7099.13" y2="2499.69" gradientTransform="translate(-6928.03 -2458.57)" xlink:href="#linear-gradient-3"/>
    <mask id="mask-3" x="149.3" y="33.83" width="43.62" height="135.68" maskUnits="userSpaceOnUse">
      <rect class="cls-29" x="149.3" y="33.83" width="43.62" height="135.68" transform="translate(342.21 203.34) rotate(180)"/>
    </mask>
    <linearGradient id="linear-gradient-8" x1="179.53" y1="51.04" x2="169.35" y2="68.69" xlink:href="#linear-gradient-4"/>
    <linearGradient id="linear-gradient-9" x1="173.26" y1="115.42" x2="262.85" y2="108.55" xlink:href="#linear-gradient-4"/>
    <linearGradient id="linear-gradient-10" x1="138.53" y1="110.26" x2="192.7" y2="119.34" xlink:href="#linear-gradient-4"/>
    <radialGradient id="Radial_Gradient_1-2" data-name="Radial Gradient 1" cx="162.65" cy="88.41" fx="162.65" fy="88.41" r="37.8" xlink:href="#Radial_Gradient_1"/>
    <linearGradient id="linear-gradient-11" x1="7118.85" y1="2639.79" x2="7118.85" y2="2484.98" gradientTransform="translate(-6967.46 -2459.96)" xlink:href="#linear-gradient-3"/>
    <mask id="mask-4" x="135.11" y="15.88" width="32.55" height="170.2" maskUnits="userSpaceOnUse">
      <rect class="cls-44" x="135.11" y="15.88" width="32.55" height="170.2" transform="translate(302.78 201.95) rotate(180)"/>
    </mask>
    <linearGradient id="linear-gradient-12" x1="148.11" y1="30.46" x2="197.19" y2="-28.26" gradientUnits="userSpaceOnUse">
      <stop offset="0" stop-color="#ffe4a7"/>
      <stop offset=".1" stop-color="#fac098"/>
      <stop offset=".2" stop-color="#f49587"/>
      <stop offset=".46" stop-color="#a142b4"/>
      <stop offset=".6" stop-color="#7c1dc9"/>
      <stop offset=".63" stop-color="#7825cb"/>
      <stop offset=".7" stop-color="#6f3ed1"/>
      <stop offset=".78" stop-color="#6065db"/>
      <stop offset=".87" stop-color="#4b9ce8"/>
      <stop offset=".97" stop-color="#31e0f9"/>
      <stop offset="1" stop-color="#2af6ff"/>
    </linearGradient>
    <linearGradient id="linear-gradient-13" x1="150.18" y1="104.15" x2="166.7" y2="102.43" gradientUnits="userSpaceOnUse">
      <stop offset="0" stop-color="#bcbec0"/>
      <stop offset="1" stop-color="#fff"/>
    </linearGradient>
    <linearGradient id="linear-gradient-14" x1="145" y1="16.57" x2="145" y2="240.44" xlink:href="#linear-gradient"/>
    <radialGradient id="Radial_Gradient_1-3" data-name="Radial Gradient 1" cx="140.94" cy="64.52" fx="140.94" fy="64.52" r="54.22" xlink:href="#Radial_Gradient_1"/>
    <linearGradient id="linear-gradient-15" x1="7142.24" y1="2610.99" x2="7142.24" y2="2475.73" gradientTransform="translate(-7014.23 -2422.27)" xlink:href="#linear-gradient-3"/>
    <mask id="mask-5" x="106.19" y="45.47" width="43.62" height="148.71" maskUnits="userSpaceOnUse">
      <rect class="cls-38" x="106.19" y="45.47" width="43.62" height="148.71" transform="translate(256.01 239.64) rotate(180)"/>
    </mask>
    <linearGradient id="linear-gradient-16" x1="136.43" y1="47.92" x2="126.24" y2="65.57" xlink:href="#linear-gradient-4"/>
    <linearGradient id="linear-gradient-17" x1="129.56" y1="126.23" x2="228.6" y2="118.64" xlink:href="#linear-gradient-4"/>
    <linearGradient id="linear-gradient-18" x1="91.01" y1="120.29" x2="153.67" y2="130.79" xlink:href="#linear-gradient-4"/>
    <radialGradient id="Radial_Gradient_1-4" data-name="Radial Gradient 1" cx="119.55" cy="92.11" fx="119.55" fy="92.11" r="47.17" xlink:href="#Radial_Gradient_1"/>
    <linearGradient id="linear-gradient-19" x1="7164.2" y1="2585.8" x2="7164.2" y2="2462.39" gradientTransform="translate(-7058.16 -2383.97)" xlink:href="#linear-gradient-3"/>
    <mask id="mask-6" x="84.23" y="71.13" width="43.62" height="135.68" maskUnits="userSpaceOnUse">
      <rect class="cls-39" x="84.23" y="71.13" width="43.62" height="135.68" transform="translate(212.08 277.94) rotate(180)"/>
    </mask>
    <linearGradient id="linear-gradient-20" x1="114.47" y1="98.06" x2="104.28" y2="115.71" xlink:href="#linear-gradient-4"/>
    <linearGradient id="linear-gradient-21" x1="108.4" y1="157.56" x2="194.69" y2="150.94" xlink:href="#linear-gradient-4"/>
    <linearGradient id="linear-gradient-22" x1="75.01" y1="152.68" x2="126.21" y2="161.26" xlink:href="#linear-gradient-4"/>
    <radialGradient id="Radial_Gradient_1-5" data-name="Radial Gradient 1" cx="97.58" cy="133.04" fx="97.58" fy="133.04" r="34.56" xlink:href="#Radial_Gradient_1"/>
    <linearGradient id="linear-gradient-23" x1="7186.22" y1="2573.42" x2="7186.22" y2="2450" gradientTransform="translate(-7102.2 -2359.19)" xlink:href="#linear-gradient-3"/>
    <mask id="mask-7" x="62.21" y="83.52" width="43.62" height="135.68" maskUnits="userSpaceOnUse">
      <rect class="cls-37" x="62.21" y="83.52" width="43.62" height="135.68" transform="translate(168.04 302.72) rotate(180)"/>
    </mask>
    <linearGradient id="linear-gradient-24" x1="92.45" y1="127.75" x2="82.26" y2="145.4" xlink:href="#linear-gradient-4"/>
    <linearGradient id="linear-gradient-25" x1="86.75" y1="178.57" x2="167.16" y2="172.4" xlink:href="#linear-gradient-4"/>
    <linearGradient id="linear-gradient-26" x1="55.73" y1="174.18" x2="101.65" y2="181.87" xlink:href="#linear-gradient-4"/>
    <radialGradient id="Radial_Gradient_1-6" data-name="Radial Gradient 1" cx="75.56" cy="158.47" fx="75.56" fy="158.47" r="28.88" xlink:href="#Radial_Gradient_1"/>
    <linearGradient id="linear-gradient-27" x1="7208.39" y1="2560.78" x2="7208.39" y2="2437.36" gradientTransform="translate(-7146.55 -2333.91)" xlink:href="#linear-gradient-3"/>
    <mask id="mask-8" x="40.03" y="96.16" width="43.62" height="135.68" maskUnits="userSpaceOnUse">
      <rect class="cls-45" x="40.03" y="96.16" width="43.62" height="135.68" transform="translate(123.69 328) rotate(180)"/>
    </mask>
    <linearGradient id="linear-gradient-28" x1="70.27" y1="173.53" x2="60.08" y2="191.18" xlink:href="#linear-gradient-4"/>
    <linearGradient id="linear-gradient-29" x1="65.29" y1="207.72" x2="134.44" y2="202.42" xlink:href="#linear-gradient-4"/>
    <linearGradient id="linear-gradient-30" x1="38.83" y1="204.27" x2="74.63" y2="210.27" xlink:href="#linear-gradient-4"/>
    <radialGradient id="Radial_Gradient_1-7" data-name="Radial Gradient 1" cx="53.39" cy="196.1" fx="53.39" fy="196.1" r="18.57" xlink:href="#Radial_Gradient_1"/>
  </defs>
  <g class="cls-52">
    <g id="Layer_1" data-name="Layer 1">
      <g>
        <g class="cls-8">
          <path class="cls-12" d="M207.26,114.41V9.23l-17.36-.5-28.08,8.92-30-13.41-29.28,32.64-29.04,51.66-29.04,25.38L0,179.97v56.9c0,1.85,.56,3.71,1.8,3.71,.44,0,.98-.18,1.57-.51L201.47,125.69c3.14-1.81,5.79-6.97,5.79-11.28Z"/>
        </g>
        <polygon class="cls-13" points="6.04 186.17 5.98 183.79 48.97 118.92 77.97 93.57 107.04 41.94 132.25 13.83 133.68 15.12 108.56 43.12 79.45 94.9 79.22 95.05 50.37 120.31 6.04 186.17"/>
        <g class="cls-58">
          <path class="cls-62" d="M213.68,120.84V15.65l-17.36-.5-28.08,8.92-30-13.41-29.28,32.64-29.04,51.66-29.04,25.38L6.42,186.39v56.9c0,1.85,.56,3.71,1.8,3.71,.44,0,.98-.18,1.57-.51l198.11-114.38c3.14-1.81,5.79-6.97,5.79-11.28Z"/>
        </g>
        <polygon class="cls-22" points="6.99 186.78 5.85 186.01 50.42 119.82 79.37 94.51 108.44 42.84 138.06 9.82 168.28 23.33 196.23 14.46 196.35 14.46 213.7 14.96 213.66 16.34 196.42 15.84 168.2 24.8 138.42 11.49 109.52 43.7 80.45 95.4 80.37 95.47 51.39 120.79 6.99 186.78"/>
        <g>
          <g class="cls-23">
            <path class="cls-11" d="M79.77,203.39c-.38,0-.69-.31-.69-.69v-2.75c0-.38,.31-.69,.69-.69s.69,.31,.69,.69v2.75c0,.38-.31,.69-.69,.69Zm0-6.88c-.38,0-.69-.31-.69-.69v-2.75c0-.38,.31-.69,.69-.69s.69,.31,.69,.69v2.75c0,.38-.31,.69-.69,.69Zm0-6.88c-.38,0-.69-.31-.69-.69v-2.75c0-.38,.31-.69,.69-.69s.69,.31,.69,.69v2.75c0,.38-.31,.69-.69,.69Zm0-6.88c-.38,0-.69-.31-.69-.69v-2.75c0-.38,.31-.69,.69-.69s.69,.31,.69,.69v2.75c0,.38-.31,.69-.69,.69Zm0-6.88c-.38,0-.69-.31-.69-.69v-2.75c0-.38,.31-.69,.69-.69s.69,.31,.69,.69v2.75c0,.38-.31,.69-.69,.69Zm0-6.88c-.38,0-.69-.31-.69-.69v-2.75c0-.38,.31-.69,.69-.69s.69,.31,.69,.69v2.75c0,.38-.31,.69-.69,.69Zm0-6.88c-.38,0-.69-.31-.69-.69v-2.75c0-.38,.31-.69,.69-.69s.69,.31,.69,.69v2.75c0,.38-.31,.69-.69,.69Zm0-6.88c-.38,0-.69-.31-.69-.69v-2.75c0-.38,.31-.69,.69-.69s.69,.31,.69,.69v2.75c0,.38-.31,.69-.69,.69Zm0-6.88c-.38,0-.69-.31-.69-.69v-2.75c0-.38,.31-.69,.69-.69s.69,.31,.69,.69v2.75c0,.38-.31,.69-.69,.69Zm0-6.88c-.38,0-.69-.31-.69-.69v-2.75c0-.38,.31-.69,.69-.69s.69,.31,.69,.69v2.75c0,.38-.31,.69-.69,.69Zm0-6.88c-.38,0-.69-.31-.69-.69v-2.75c0-.38,.31-.69,.69-.69s.69,.31,.69,.69v2.75c0,.38-.31,.69-.69,.69Zm0-6.88c-.38,0-.69-.31-.69-.69v-2.75c0-.38,.31-.69,.69-.69s.69,.31,.69,.69v2.75c0,.38-.31,.69-.69,.69Zm0-6.88c-.38,0-.69-.31-.69-.69v-2.75c0-.38,.31-.69,.69-.69s.69,.31,.69,.69v2.75c0,.38-.31,.69-.69,.69Zm0-6.88c-.38,0-.69-.31-.69-.69v-2.75c0-.38,.31-.69,.69-.69s.69,.31,.69,.69v2.75c0,.38-.31,.69-.69,.69Zm0-6.88c-.38,0-.69-.31-.69-.69v-2.75c0-.38,.31-.69,.69-.69s.69,.31,.69,.69v2.75c0,.38-.31,.69-.69,.69Z"/>
          </g>
          <g class="cls-23">
            <path class="cls-11" d="M21.06,237.35c-.38,0-.69-.31-.69-.69v-2.75c0-.38,.31-.69,.69-.69s.69,.31,.69,.69v2.75c0,.38-.31,.69-.69,.69Zm0-6.88c-.38,0-.69-.31-.69-.69v-2.75c0-.38,.31-.69,.69-.69s.69,.31,.69,.69v2.75c0,.38-.31,.69-.69,.69Zm0-6.88c-.38,0-.69-.31-.69-.69v-2.75c0-.38,.31-.69,.69-.69s.69,.31,.69,.69v2.75c0,.38-.31,.69-.69,.69Zm0-6.88c-.38,0-.69-.31-.69-.69v-2.75c0-.38,.31-.69,.69-.69s.69,.31,.69,.69v2.75c0,.38-.31,.69-.69,.69Zm0-6.88c-.38,0-.69-.31-.69-.69v-2.75c0-.38,.31-.69,.69-.69s.69,.31,.69,.69v2.75c0,.38-.31,.69-.69,.69Zm0-6.88c-.38,0-.69-.31-.69-.69v-2.75c0-.38,.31-.69,.69-.69s.69,.31,.69,.69v2.75c0,.38-.31,.69-.69,.69Zm0-6.88c-.38,0-.69-.31-.69-.69v-2.75c0-.38,.31-.69,.69-.69s.69,.31,.69,.69v2.75c0,.38-.31,.69-.69,.69Zm0-6.88c-.38,0-.69-.31-.69-.69v-2.75c0-.38,.31-.69,.69-.69s.69,.31,.69,.69v2.75c0,.38-.31,.69-.69,.69Zm0-6.88c-.38,0-.69-.31-.69-.69v-2.75c0-.38,.31-.69,.69-.69s.69,.31,.69,.69v2.75c0,.38-.31,.69-.69,.69Zm0-6.88c-.38,0-.69-.31-.69-.69v-2.75c0-.38,.31-.69,.69-.69s.69,.31,.69,.69v2.75c0,.38-.31,.69-.69,.69Z"/>
          </g>
          <g class="cls-23">
            <path class="cls-11" d="M50.33,219.76c-.38,0-.69-.31-.69-.69v-2.75c0-.38,.31-.69,.69-.69s.69,.31,.69,.69v2.75c0,.38-.31,.69-.69,.69Zm0-6.88c-.38,0-.69-.31-.69-.69v-2.75c0-.38,.31-.69,.69-.69s.69,.31,.69,.69v2.75c0,.38-.31,.69-.69,.69Zm0-6.88c-.38,0-.69-.31-.69-.69v-2.75c0-.38,.31-.69,.69-.69s.69,.31,.69,.69v2.75c0,.38-.31,.69-.69,.69Zm0-6.88c-.38,0-.69-.31-.69-.69v-2.75c0-.38,.31-.69,.69-.69s.69,.31,.69,.69v2.75c0,.38-.31,.69-.69,.69Zm0-6.88c-.38,0-.69-.31-.69-.69v-2.75c0-.38,.31-.69,.69-.69s.69,.31,.69,.69v2.75c0,.38-.31,.69-.69,.69Zm0-6.88c-.38,0-.69-.31-.69-.69v-2.75c0-.38,.31-.69,.69-.69s.69,.31,.69,.69v2.75c0,.38-.31,.69-.69,.69Zm0-6.88c-.38,0-.69-.31-.69-.69v-2.75c0-.38,.31-.69,.69-.69s.69,.31,.69,.69v2.75c0,.38-.31,.69-.69,.69Zm0-6.88c-.38,0-.69-.31-.69-.69v-2.75c0-.38,.31-.69,.69-.69s.69,.31,.69,.69v2.75c0,.38-.31,.69-.69,.69Zm0-6.88c-.38,0-.69-.31-.69-.69v-2.75c0-.38,.31-.69,.69-.69s.69,.31,.69,.69v2.75c0,.38-.31,.69-.69,.69Zm0-6.88c-.38,0-.69-.31-.69-.69v-2.75c0-.38,.31-.69,.69-.69s.69,.31,.69,.69v2.75c0,.38-.31,.69-.69,.69Zm0-6.88c-.38,0-.69-.31-.69-.69v-2.75c0-.38,.31-.69,.69-.69s.69,.31,.69,.69v2.75c0,.38-.31,.69-.69,.69Zm0-6.88c-.38,0-.69-.31-.69-.69v-2.75c0-.38,.31-.69,.69-.69s.69,.31,.69,.69v2.75c0,.38-.31,.69-.69,.69Zm0-6.88c-.38,0-.69-.31-.69-.69v-2.75c0-.38,.31-.69,.69-.69s.69,.31,.69,.69v2.75c0,.38-.31,.69-.69,.69Zm0-6.88c-.38,0-.69-.31-.69-.69v-2.75c0-.38,.31-.69,.69-.69s.69,.31,.69,.69v2.75c0,.38-.31,.69-.69,.69Z"/>
          </g>
          <g class="cls-23">
            <path class="cls-11" d="M109.04,186.75c-.38,0-.69-.31-.69-.69v-2.75c0-.38,.31-.69,.69-.69s.69,.31,.69,.69v2.75c0,.38-.31,.69-.69,.69Zm0-6.88c-.38,0-.69-.31-.69-.69v-2.75c0-.38,.31-.69,.69-.69s.69,.31,.69,.69v2.75c0,.38-.31,.69-.69,.69Zm0-6.88c-.38,0-.69-.31-.69-.69v-2.75c0-.38,.31-.69,.69-.69s.69,.31,.69,.69v2.75c0,.38-.31,.69-.69,.69Zm0-6.88c-.38,0-.69-.31-.69-.69v-2.75c0-.38,.31-.69,.69-.69s.69,.31,.69,.69v2.75c0,.38-.31,.69-.69,.69Zm0-6.88c-.38,0-.69-.31-.69-.69v-2.75c0-.38,.31-.69,.69-.69s.69,.31,.69,.69v2.75c0,.38-.31,.69-.69,.69Zm0-6.88c-.38,0-.69-.31-.69-.69v-2.75c0-.38,.31-.69,.69-.69s.69,.31,.69,.69v2.75c0,.38-.31,.69-.69,.69Zm0-6.88c-.38,0-.69-.31-.69-.69v-2.75c0-.38,.31-.69,.69-.69s.69,.31,.69,.69v2.75c0,.38-.31,.69-.69,.69Zm0-6.88c-.38,0-.69-.31-.69-.69v-2.75c0-.38,.31-.69,.69-.69s.69,.31,.69,.69v2.75c0,.38-.31,.69-.69,.69Zm0-6.88c-.38,0-.69-.31-.69-.69v-2.75c0-.38,.31-.69,.69-.69s.69,.31,.69,.69v2.75c0,.38-.31,.69-.69,.69Zm0-6.88c-.38,0-.69-.31-.69-.69v-2.75c0-.38,.31-.69,.69-.69s.69,.31,.69,.69v2.75c0,.38-.31,.69-.69,.69Zm0-6.88c-.38,0-.69-.31-.69-.69v-2.75c0-.38,.31-.69,.69-.69s.69,.31,.69,.69v2.75c0,.38-.31,.69-.69,.69Zm0-6.88c-.38,0-.69-.31-.69-.69v-2.75c0-.38,.31-.69,.69-.69s.69,.31,.69,.69v2.75c0,.38-.31,.69-.69,.69Zm0-6.88c-.38,0-.69-.31-.69-.69v-2.75c0-.38,.31-.69,.69-.69s.69,.31,.69,.69v2.75c0,.38-.31,.69-.69,.69Zm0-6.88c-.38,0-.69-.31-.69-.69v-2.75c0-.38,.31-.69,.69-.69s.69,.31,.69,.69v2.75c0,.38-.31,.69-.69,.69Zm0-6.88c-.38,0-.69-.31-.69-.69v-2.75c0-.38,.31-.69,.69-.69s.69,.31,.69,.69v2.75c0,.38-.31,.69-.69,.69Zm0-6.88c-.38,0-.69-.31-.69-.69v-2.75c0-.38,.31-.69,.69-.69s.69,.31,.69,.69v2.75c0,.38-.31,.69-.69,.69Zm0-6.88c-.38,0-.69-.31-.69-.69v-2.75c0-.38,.31-.69,.69-.69s.69,.31,.69,.69v2.75c0,.38-.31,.69-.69,.69Zm0-6.88c-.38,0-.69-.31-.69-.69v-2.75c0-.38,.31-.69,.69-.69s.69,.31,.69,.69v2.75c0,.38-.31,.69-.69,.69Zm0-6.88c-.38,0-.69-.31-.69-.69v-2.75c0-.38,.31-.69,.69-.69s.69,.31,.69,.69v2.75c0,.38-.31,.69-.69,.69Zm0-6.88c-.38,0-.69-.31-.69-.69v-2.75c0-.38,.31-.69,.69-.69s.69,.31,.69,.69v2.75c0,.38-.31,.69-.69,.69Z"/>
          </g>
          <g class="cls-23">
            <path class="cls-11" d="M138.3,169.79c-.38,0-.69-.31-.69-.69v-2.75c0-.38,.31-.69,.69-.69s.69,.31,.69,.69v2.75c0,.38-.31,.69-.69,.69Zm0-6.88c-.38,0-.69-.31-.69-.69v-2.75c0-.38,.31-.69,.69-.69s.69,.31,.69,.69v2.75c0,.38-.31,.69-.69,.69Zm0-6.88c-.38,0-.69-.31-.69-.69v-2.75c0-.38,.31-.69,.69-.69s.69,.31,.69,.69v2.75c0,.38-.31,.69-.69,.69Zm0-6.88c-.38,0-.69-.31-.69-.69v-2.75c0-.38,.31-.69,.69-.69s.69,.31,.69,.69v2.75c0,.38-.31,.69-.69,.69Zm0-6.88c-.38,0-.69-.31-.69-.69v-2.75c0-.38,.31-.69,.69-.69s.69,.31,.69,.69v2.75c0,.38-.31,.69-.69,.69Zm0-6.88c-.38,0-.69-.31-.69-.69v-2.75c0-.38,.31-.69,.69-.69s.69,.31,.69,.69v2.75c0,.38-.31,.69-.69,.69Zm0-6.88c-.38,0-.69-.31-.69-.69v-2.75c0-.38,.31-.69,.69-.69s.69,.31,.69,.69v2.75c0,.38-.31,.69-.69,.69Zm0-6.88c-.38,0-.69-.31-.69-.69v-2.75c0-.38,.31-.69,.69-.69s.69,.31,.69,.69v2.75c0,.38-.31,.69-.69,.69Zm0-6.88c-.38,0-.69-.31-.69-.69v-2.75c0-.38,.31-.69,.69-.69s.69,.31,.69,.69v2.75c0,.38-.31,.69-.69,.69Zm0-6.88c-.38,0-.69-.31-.69-.69v-2.75c0-.38,.31-.69,.69-.69s.69,.31,.69,.69v2.75c0,.38-.31,.69-.69,.69Zm0-6.88c-.38,0-.69-.31-.69-.69v-2.75c0-.38,.31-.69,.69-.69s.69,.31,.69,.69v2.75c0,.38-.31,.69-.69,.69Zm0-6.88c-.38,0-.69-.31-.69-.69v-2.75c0-.38,.31-.69,.69-.69s.69,.31,.69,.69v2.75c0,.38-.31,.69-.69,.69Zm0-6.88c-.38,0-.69-.31-.69-.69v-2.75c0-.38,.31-.69,.69-.69s.69,.31,.69,.69v2.75c0,.38-.31,.69-.69,.69Zm0-6.88c-.38,0-.69-.31-.69-.69v-2.75c0-.38,.31-.69,.69-.69s.69,.31,.69,.69v2.75c0,.38-.31,.69-.69,.69Zm0-6.88c-.38,0-.69-.31-.69-.69v-2.75c0-.38,.31-.69,.69-.69s.69,.31,.69,.69v2.75c0,.38-.31,.69-.69,.69Zm0-6.88c-.38,0-.69-.31-.69-.69v-2.75c0-.38,.31-.69,.69-.69s.69,.31,.69,.69v2.75c0,.38-.31,.69-.69,.69Zm0-6.88c-.38,0-.69-.31-.69-.69v-2.75c0-.38,.31-.69,.69-.69s.69,.31,.69,.69v2.75c0,.38-.31,.69-.69,.69Zm0-6.88c-.38,0-.69-.31-.69-.69v-2.75c0-.38,.31-.69,.69-.69s.69,.31,.69,.69v2.75c0,.38-.31,.69-.69,.69Zm0-6.88c-.38,0-.69-.31-.69-.69v-2.75c0-.38,.31-.69,.69-.69s.69,.31,.69,.69v2.75c0,.38-.31,.69-.69,.69Zm0-6.88c-.38,0-.69-.31-.69-.69v-2.75c0-.38,.31-.69,.69-.69s.69,.31,.69,.69v2.75c0,.38-.31,.69-.69,.69Zm0-6.88c-.38,0-.69-.31-.69-.69v-2.75c0-.38,.31-.69,.69-.69s.69,.31,.69,.69v2.75c0,.38-.31,.69-.69,.69Zm0-6.88c-.38,0-.69-.31-.69-.69v-2.75c0-.38,.31-.69,.69-.69s.69,.31,.69,.69v2.75c0,.38-.31,.69-.69,.69Zm0-6.88c-.38,0-.69-.31-.69-.69v-2.75c0-.38,.31-.69,.69-.69s.69,.31,.69,.69v2.75c0,.38-.31,.69-.69,.69Z"/>
          </g>
          <g class="cls-23">
            <path class="cls-11" d="M167.57,152.1c-.38,0-.69-.31-.69-.69v-2.75c0-.38,.31-.69,.69-.69s.69,.31,.69,.69v2.75c0,.38-.31,.69-.69,.69Zm0-6.88c-.38,0-.69-.31-.69-.69v-2.75c0-.38,.31-.69,.69-.69s.69,.31,.69,.69v2.75c0,.38-.31,.69-.69,.69Zm0-6.88c-.38,0-.69-.31-.69-.69v-2.75c0-.38,.31-.69,.69-.69s.69,.31,.69,.69v2.75c0,.38-.31,.69-.69,.69Zm0-6.88c-.38,0-.69-.31-.69-.69v-2.75c0-.38,.31-.69,.69-.69s.69,.31,.69,.69v2.75c0,.38-.31,.69-.69,.69Zm0-6.88c-.38,0-.69-.31-.69-.69v-2.75c0-.38,.31-.69,.69-.69s.69,.31,.69,.69v2.75c0,.38-.31,.69-.69,.69Zm0-6.88c-.38,0-.69-.31-.69-.69v-2.75c0-.38,.31-.69,.69-.69s.69,.31,.69,.69v2.75c0,.38-.31,.69-.69,.69Zm0-6.88c-.38,0-.69-.31-.69-.69v-2.75c0-.38,.31-.69,.69-.69s.69,.31,.69,.69v2.75c0,.38-.31,.69-.69,.69Zm0-6.88c-.38,0-.69-.31-.69-.69v-2.75c0-.38,.31-.69,.69-.69s.69,.31,.69,.69v2.75c0,.38-.31,.69-.69,.69Zm0-6.88c-.38,0-.69-.31-.69-.69v-2.75c0-.38,.31-.69,.69-.69s.69,.31,.69,.69v2.75c0,.38-.31,.69-.69,.69Zm0-6.88c-.38,0-.69-.31-.69-.69v-2.75c0-.38,.31-.69,.69-.69s.69,.31,.69,.69v2.75c0,.38-.31,.69-.69,.69Zm0-6.88c-.38,0-.69-.31-.69-.69v-2.75c0-.38,.31-.69,.69-.69s.69,.31,.69,.69v2.75c0,.38-.31,.69-.69,.69Zm0-6.88c-.38,0-.69-.31-.69-.69v-2.75c0-.38,.31-.69,.69-.69s.69,.31,.69,.69v2.75c0,.38-.31,.69-.69,.69Zm0-6.88c-.38,0-.69-.31-.69-.69v-2.75c0-.38,.31-.69,.69-.69s.69,.31,.69,.69v2.75c0,.38-.31,.69-.69,.69Zm0-6.88c-.38,0-.69-.31-.69-.69v-2.75c0-.38,.31-.69,.69-.69s.69,.31,.69,.69v2.75c0,.38-.31,.69-.69,.69Zm0-6.88c-.38,0-.69-.31-.69-.69v-2.75c0-.38,.31-.69,.69-.69s.69,.31,.69,.69v2.75c0,.38-.31,.69-.69,.69Zm0-6.88c-.38,0-.69-.31-.69-.69v-2.75c0-.38,.31-.69,.69-.69s.69,.31,.69,.69v2.75c0,.38-.31,.69-.69,.69Zm0-6.88c-.38,0-.69-.31-.69-.69v-2.75c0-.38,.31-.69,.69-.69s.69,.31,.69,.69v2.75c0,.38-.31,.69-.69,.69Zm0-6.88c-.38,0-.69-.31-.69-.69v-2.75c0-.38,.31-.69,.69-.69s.69,.31,.69,.69v2.75c0,.38-.31,.69-.69,.69Zm0-6.88c-.38,0-.69-.31-.69-.69v-.22c0-.38,.31-.69,.69-.69s.69,.31,.69,.69v.22c0,.38-.31,.69-.69,.69Z"/>
          </g>
          <g class="cls-23">
            <path class="cls-11" d="M196.84,135.47c-.38,0-.69-.31-.69-.69v-2.75c0-.38,.31-.69,.69-.69s.69,.31,.69,.69v2.75c0,.38-.31,.69-.69,.69Zm0-6.88c-.38,0-.69-.31-.69-.69v-2.75c0-.38,.31-.69,.69-.69s.69,.31,.69,.69v2.75c0,.38-.31,.69-.69,.69Zm0-6.88c-.38,0-.69-.31-.69-.69v-2.75c0-.38,.31-.69,.69-.69s.69,.31,.69,.69v2.75c0,.38-.31,.69-.69,.69Zm0-6.88c-.38,0-.69-.31-.69-.69v-2.75c0-.38,.31-.69,.69-.69s.69,.31,.69,.69v2.75c0,.38-.31,.69-.69,.69Zm0-6.88c-.38,0-.69-.31-.69-.69v-2.75c0-.38,.31-.69,.69-.69s.69,.31,.69,.69v2.75c0,.38-.31,.69-.69,.69Zm0-6.88c-.38,0-.69-.31-.69-.69v-2.75c0-.38,.31-.69,.69-.69s.69,.31,.69,.69v2.75c0,.38-.31,.69-.69,.69Zm0-6.88c-.38,0-.69-.31-.69-.69v-2.75c0-.38,.31-.69,.69-.69s.69,.31,.69,.69v2.75c0,.38-.31,.69-.69,.69Zm0-6.88c-.38,0-.69-.31-.69-.69v-2.75c0-.38,.31-.69,.69-.69s.69,.31,.69,.69v2.75c0,.38-.31,.69-.69,.69Zm0-6.88c-.38,0-.69-.31-.69-.69v-2.75c0-.38,.31-.69,.69-.69s.69,.31,.69,.69v2.75c0,.38-.31,.69-.69,.69Zm0-6.88c-.38,0-.69-.31-.69-.69v-2.75c0-.38,.31-.69,.69-.69s.69,.31,.69,.69v2.75c0,.38-.31,.69-.69,.69Zm0-6.88c-.38,0-.69-.31-.69-.69v-2.75c0-.38,.31-.69,.69-.69s.69,.31,.69,.69v2.75c0,.38-.31,.69-.69,.69Zm0-6.88c-.38,0-.69-.31-.69-.69v-2.75c0-.38,.31-.69,.69-.69s.69,.31,.69,.69v2.75c0,.38-.31,.69-.69,.69Zm0-6.88c-.38,0-.69-.31-.69-.69v-2.75c0-.38,.31-.69,.69-.69s.69,.31,.69,.69v2.75c0,.38-.31,.69-.69,.69Zm0-6.88c-.38,0-.69-.31-.69-.69v-2.75c0-.38,.31-.69,.69-.69s.69,.31,.69,.69v2.75c0,.38-.31,.69-.69,.69Zm0-6.88c-.38,0-.69-.31-.69-.69v-2.75c0-.38,.31-.69,.69-.69s.69,.31,.69,.69v2.75c0,.38-.31,.69-.69,.69Zm0-6.88c-.38,0-.69-.31-.69-.69v-2.75c0-.38,.31-.69,.69-.69s.69,.31,.69,.69v2.75c0,.38-.31,.69-.69,.69Zm0-6.88c-.38,0-.69-.31-.69-.69v-2.75c0-.38,.31-.69,.69-.69s.69,.31,.69,.69v2.75c0,.38-.31,.69-.69,.69Z"/>
          </g>
        </g>
        <g>
          <path class="cls-15" d="M144.7,4.74c0,3.63-2.56,8.05-5.72,9.87-3.16,1.83-5.72,.36-5.72-3.26s2.56-8.05,5.72-9.87c3.16-1.83,5.72-.36,5.72,3.26Z"/>
          <path class="cls-10" d="M136.41,16.09c-2.33,0-3.84-1.86-3.84-4.74,0-3.84,2.72-8.54,6.07-10.47,1.01-.58,1.99-.88,2.91-.88,2.33,0,3.84,1.86,3.84,4.74,0,3.91-2.67,8.51-6.07,10.47-1.01,.58-1.99,.88-2.91,.88Zm5.14-14.71c-.67,0-1.44,.24-2.23,.69-2.97,1.71-5.38,5.87-5.38,9.28,0,2.11,.92,3.36,2.47,3.36,.67,0,1.44-.24,2.23-.69,2.97-1.71,5.38-5.87,5.38-9.28,0-2.1-.92-3.36-2.47-3.36Z"/>
        </g>
        <path class="cls-18" d="M111.92,41.83c0,1.88-1.33,4.16-2.96,5.11s-2.96,.19-2.96-1.69,1.33-4.16,2.96-5.11c1.64-.94,2.96-.19,2.96,1.69Z"/>
        <path class="cls-21" d="M171.44,22.12c0,1.88-1.33,4.16-2.96,5.11s-2.96,.19-2.96-1.69,1.33-4.16,2.96-5.11,2.96-.19,2.96,1.69Z"/>
        <path class="cls-20" d="M200.25,14.4c0,1.88-1.33,4.16-2.96,5.11-1.64,.94-2.96,.19-2.96-1.69s1.33-4.16,2.96-5.11c1.64-.94,2.96-.19,2.96,1.69Z"/>
        <ellipse class="cls-19" cx="79.67" cy="95.38" rx="4.18" ry="2.41" transform="translate(-42.88 116.02) rotate(-59.69)"/>
        <path class="cls-16" d="M53.59,119.13c0,1.88-1.33,4.16-2.96,5.11-1.64,.94-2.96,.19-2.96-1.69s1.33-4.16,2.96-5.11c1.64-.94,2.96-.19,2.96,1.69Z"/>
        <ellipse class="cls-17" cx="20.87" cy="163.63" rx="4.18" ry="2.41" transform="translate(-130.92 99.06) rotate(-59.69)"/>
        <g>
          <g class="cls-55">
            <g>
              <g class="cls-31">
                <polygon class="cls-27" points="194.77 76.37 206.96 83.42 194.77 90.46 182.58 83.42 194.77 76.37"/>
                <g>
                  <polygon class="cls-30" points="206.97 147.59 194.78 154.63 194.78 90.46 206.97 83.42 206.97 147.59"/>
                  <polygon class="cls-28" points="194.78 154.63 182.58 147.59 182.58 83.42 194.78 90.46 194.78 154.63"/>
                </g>
              </g>
              <polygon class="cls-7" points="182.58 83.42 194.72 89.95 206.97 83.42 195.15 90.73 194.78 154.63 194.2 90.64 182.58 83.42"/>
            </g>
          </g>
          <g class="cls-54">
            <g>
              <g class="cls-31">
                <polygon class="cls-24" points="172.81 55.65 185 62.7 172.81 69.74 160.62 62.69 172.81 55.65"/>
                <g>
                  <polygon class="cls-25" points="185.01 160.23 172.81 167.28 172.81 69.74 185.01 62.69 185.01 160.23"/>
                  <polygon class="cls-43" points="172.81 167.28 160.61 160.23 160.61 62.69 172.81 69.74 172.81 167.28"/>
                </g>
              </g>
              <polygon class="cls-1" points="160.61 62.69 172.75 69.23 185.01 62.69 173.18 70 172.81 167.28 172.23 69.92 160.61 62.69"/>
            </g>
          </g>
          <g class="cls-23">
            <g>
              <path class="cls-11" d="M204.59,155.57c-.12,0-.24-.03-.35-.1l-1.19-.7c-.33-.19-.44-.61-.24-.94,.19-.33,.62-.43,.94-.24l1.19,.7c.33,.19,.44,.61,.24,.94-.13,.22-.36,.34-.59,.34Z"/>
              <path class="cls-11" d="M217.68,163.29c-.12,0-.24-.03-.35-.1l-2.62-1.54c-.33-.19-.44-.61-.24-.94,.19-.33,.62-.43,.94-.24l2.62,1.54c.33,.19,.44,.61,.24,.94-.13,.22-.36,.34-.59,.34Zm-6.54-3.86c-.12,0-.24-.03-.35-.1l-2.62-1.54c-.33-.19-.44-.61-.24-.94,.19-.33,.62-.44,.94-.24l2.62,1.54c.33,.19,.44,.61,.24,.94-.13,.22-.36,.34-.59,.34Z"/>
              <path class="cls-11" d="M222.79,166.3c-.12,0-.24-.03-.35-.1l-1.19-.7c-.33-.19-.44-.61-.24-.94,.19-.33,.62-.43,.94-.24l1.19,.7c.33,.19,.44,.61,.24,.94-.13,.22-.36,.34-.59,.34Z"/>
            </g>
            <g>
              <path class="cls-11" d="M182.87,168.12c-.12,0-.24-.03-.35-.1l-1.19-.7c-.33-.19-.44-.61-.24-.94,.19-.33,.62-.43,.94-.24l1.19,.7c.33,.19,.44,.61,.24,.94-.13,.22-.36,.34-.59,.34Z"/>
              <path class="cls-11" d="M195.96,175.84c-.12,0-.24-.03-.35-.1l-2.62-1.54c-.33-.19-.44-.61-.24-.94,.19-.33,.62-.43,.94-.24l2.62,1.54c.33,.19,.44,.61,.24,.94-.13,.22-.36,.34-.59,.34Zm-6.54-3.86c-.12,0-.24-.03-.35-.1l-2.62-1.54c-.33-.19-.44-.61-.24-.94,.19-.33,.62-.44,.94-.24l2.62,1.54c.33,.19,.44,.61,.24,.94-.13,.22-.36,.34-.59,.34Z"/>
              <path class="cls-11" d="M201.07,178.85c-.12,0-.24-.03-.35-.1l-1.19-.7c-.33-.19-.44-.61-.24-.94,.19-.33,.62-.43,.94-.24l1.19,.7c.33,.19,.44,.61,.24,.94-.13,.22-.36,.34-.59,.34Z"/>
            </g>
            <g>
              <path class="cls-11" d="M161.16,180.67c-.12,0-.24-.03-.35-.1l-1.19-.7c-.33-.19-.44-.61-.24-.94,.19-.33,.62-.44,.94-.24l1.19,.7c.33,.19,.44,.61,.24,.94-.13,.22-.36,.34-.59,.34Z"/>
              <path class="cls-11" d="M174.25,188.38c-.12,0-.24-.03-.35-.1l-2.62-1.54c-.33-.19-.44-.61-.24-.94,.19-.33,.61-.43,.94-.24l2.62,1.54c.33,.19,.44,.61,.24,.94-.13,.22-.36,.34-.59,.34Zm-6.54-3.86c-.12,0-.24-.03-.35-.1l-2.62-1.54c-.33-.19-.44-.61-.24-.94,.19-.33,.62-.44,.94-.24l2.62,1.54c.33,.19,.44,.61,.24,.94-.13,.22-.36,.34-.59,.34Z"/>
              <path class="cls-11" d="M179.36,191.4c-.12,0-.24-.03-.35-.1l-1.19-.7c-.33-.19-.44-.61-.24-.94,.19-.33,.61-.43,.94-.24l1.19,.7c.33,.19,.44,.61,.24,.94-.13,.22-.36,.34-.59,.34Z"/>
            </g>
            <g>
              <path class="cls-11" d="M139.44,193.22c-.12,0-.24-.03-.35-.1l-1.19-.7c-.33-.19-.44-.61-.24-.94,.19-.33,.62-.44,.94-.24l1.19,.7c.33,.19,.44,.61,.24,.94-.13,.22-.36,.34-.59,.34Z"/>
              <path class="cls-11" d="M152.53,200.93c-.12,0-.24-.03-.35-.1l-2.62-1.54c-.33-.19-.44-.61-.24-.94,.19-.33,.61-.44,.94-.24l2.62,1.54c.33,.19,.44,.61,.24,.94-.13,.22-.36,.34-.59,.34Zm-6.54-3.86c-.12,0-.24-.03-.35-.1l-2.62-1.54c-.33-.19-.44-.61-.24-.94,.19-.33,.62-.44,.94-.24l2.62,1.54c.33,.19,.44,.61,.24,.94-.13,.22-.36,.34-.59,.34Z"/>
              <path class="cls-11" d="M157.64,203.94c-.12,0-.24-.03-.35-.1l-1.19-.7c-.33-.19-.44-.61-.24-.94,.19-.33,.61-.43,.94-.24l1.19,.7c.33,.19,.44,.61,.24,.94-.13,.22-.36,.34-.59,.34Z"/>
            </g>
            <g>
              <path class="cls-11" d="M117.73,205.77c-.12,0-.24-.03-.35-.1l-1.19-.7c-.33-.19-.44-.61-.24-.94,.19-.33,.62-.44,.94-.24l1.19,.7c.33,.19,.44,.61,.24,.94-.13,.22-.36,.34-.59,.34Z"/>
              <path class="cls-11" d="M130.81,213.48c-.12,0-.24-.03-.35-.1l-2.62-1.54c-.33-.19-.44-.61-.24-.94,.19-.33,.61-.44,.94-.24l2.62,1.54c.33,.19,.44,.61,.24,.94-.13,.22-.36,.34-.59,.34Zm-6.54-3.86c-.12,0-.24-.03-.35-.1l-2.62-1.54c-.33-.19-.44-.61-.24-.94,.19-.33,.62-.44,.94-.24l2.62,1.54c.33,.19,.44,.61,.24,.94-.13,.22-.36,.34-.59,.34Z"/>
              <path class="cls-11" d="M135.93,216.49c-.12,0-.24-.03-.35-.1l-1.19-.7c-.33-.19-.44-.61-.24-.94,.19-.33,.61-.43,.94-.24l1.19,.7c.33,.19,.44,.61,.24,.94-.13,.22-.36,.34-.59,.34Z"/>
            </g>
            <g>
              <path class="cls-11" d="M96.01,218.31c-.12,0-.24-.03-.35-.1l-1.19-.7c-.33-.19-.44-.61-.24-.94,.19-.33,.62-.44,.94-.24l1.19,.7c.33,.19,.44,.61,.24,.94-.13,.22-.36,.34-.59,.34Z"/>
              <path class="cls-11" d="M109.1,226.03c-.12,0-.24-.03-.35-.1l-2.62-1.54c-.33-.19-.44-.61-.24-.94,.19-.33,.61-.44,.94-.24l2.62,1.54c.33,.19,.44,.61,.24,.94-.13,.22-.36,.34-.59,.34Zm-6.54-3.86c-.12,0-.24-.03-.35-.1l-2.62-1.54c-.33-.19-.44-.61-.24-.94,.19-.33,.62-.44,.94-.24l2.62,1.54c.33,.19,.44,.61,.24,.94-.13,.22-.36,.34-.59,.34Z"/>
              <path class="cls-11" d="M114.21,229.04c-.12,0-.24-.03-.35-.1l-1.19-.7c-.33-.19-.44-.61-.24-.94,.19-.33,.61-.44,.94-.24l1.19,.7c.33,.19,.44,.61,.24,.94-.13,.22-.36,.34-.59,.34Z"/>
            </g>
            <g>
              <path class="cls-11" d="M74.29,230.86c-.12,0-.24-.03-.35-.1l-1.19-.7c-.33-.19-.44-.61-.24-.94,.19-.33,.61-.44,.94-.24l1.19,.7c.33,.19,.44,.61,.24,.94-.13,.22-.36,.34-.59,.34Z"/>
              <path class="cls-11" d="M87.38,238.57c-.12,0-.24-.03-.35-.1l-2.62-1.54c-.33-.19-.44-.61-.24-.94,.19-.33,.61-.44,.94-.24l2.62,1.54c.33,.19,.44,.61,.24,.94-.13,.22-.36,.34-.59,.34Zm-6.54-3.86c-.12,0-.24-.03-.35-.1l-2.62-1.54c-.33-.19-.44-.61-.24-.94,.19-.33,.61-.44,.94-.24l2.62,1.54c.33,.19,.44,.61,.24,.94-.13,.22-.36,.34-.59,.34Z"/>
              <path class="cls-11" d="M92.49,241.59c-.12,0-.24-.03-.35-.1l-1.19-.7c-.33-.19-.44-.61-.24-.94,.19-.33,.61-.44,.94-.24l1.19,.7c.33,.19,.44,.61,.24,.94-.13,.22-.36,.34-.59,.34Z"/>
            </g>
          </g>
          <g class="cls-23">
            <g>
              <path class="cls-11" d="M228.74,168.3c2.33-1.35,4.45-1.47,6.36-.36,.3,.17,.53,.33,.69,.48l-.8,.46c-.15-.15-.36-.31-.63-.47-.64-.37-1.29-.55-1.96-.54-.67,.01-1.39,.23-2.17,.65l.05,.03c.35-.05,.7-.05,1.05,.02,.35,.06,.69,.19,1,.37,.54,.31,.8,.65,.77,1.02-.03,.37-.33,.71-.89,1.04-.63,.36-1.29,.54-2.01,.55-.72,0-1.37-.17-1.98-.52-.43-.25-.7-.52-.81-.82-.11-.3-.06-.62,.16-.94,.22-.33,.61-.65,1.16-.97Zm.26,2.26c.33,.19,.69,.28,1.08,.26,.39-.02,.78-.14,1.18-.37,.34-.2,.53-.4,.56-.61,.03-.21-.13-.41-.47-.61-.21-.12-.44-.2-.71-.25-.26-.05-.52-.06-.78-.03-.26,.03-.46,.09-.62,.18-.38,.22-.6,.47-.65,.74-.05,.27,.08,.5,.41,.69Z"/>
              <path class="cls-11" d="M238.22,173.27c-1.03,.6-1.97,.94-2.81,1.04-.84,.1-1.6-.05-2.29-.45-.67-.38-.91-.83-.74-1.32,.17-.5,.76-1.04,1.77-1.62,1.05-.61,1.99-.96,2.83-1.05,.83-.09,1.59,.06,2.28,.45,.67,.39,.92,.83,.74,1.33s-.77,1.04-1.77,1.62Zm-3.09-1.79c-.81,.47-1.31,.85-1.49,1.15-.18,.3-.09,.55,.28,.77,.37,.21,.82,.27,1.34,.16,.52-.1,1.19-.39,1.99-.85,.8-.46,1.29-.84,1.48-1.15,.19-.31,.1-.56-.27-.78-.37-.21-.81-.27-1.33-.16-.52,.1-1.18,.39-1.99,.86Z"/>
              <path class="cls-11" d="M209.89,181.51c.6,.35,.92,.72,.96,1.1,.03,.39-.22,.74-.77,1.06-.64,.37-1.33,.54-2.09,.51-.76-.03-1.51-.25-2.24-.68-.67-.39-1.09-.75-1.26-1.1l.87-.5c.1,.2,.25,.4,.47,.61,.22,.21,.45,.38,.7,.52,.44,.25,.86,.38,1.28,.41,.42,.02,.82-.08,1.19-.29,.71-.41,.61-.88-.3-1.41-.13-.07-.3-.16-.51-.25-.21-.09-.41-.17-.58-.24l-.18-.4,3.14-1.55,3.12,1.8-.85,.49-2.27-1.31-1.61,.77c.11,.05,.25,.1,.41,.17,.16,.07,.34,.16,.54,.27Z"/>
              <path class="cls-11" d="M216.17,186c-1.03,.6-1.97,.94-2.81,1.04-.84,.1-1.6-.05-2.29-.45-.67-.38-.91-.83-.74-1.32,.17-.5,.76-1.04,1.77-1.62,1.05-.61,1.99-.96,2.83-1.05,.83-.09,1.59,.06,2.28,.45,.67,.39,.92,.83,.74,1.33-.18,.5-.77,1.04-1.77,1.62Zm-3.09-1.79c-.81,.47-1.31,.85-1.49,1.15-.18,.3-.09,.55,.28,.77,.37,.21,.82,.27,1.34,.16,.52-.1,1.19-.39,1.99-.85,.8-.46,1.29-.84,1.48-1.15,.19-.31,.1-.56-.27-.78-.37-.21-.81-.27-1.33-.16-.52,.1-1.18,.39-1.99,.86Z"/>
              <path class="cls-11" d="M187.66,196.94l-.81-.47-1.3,.75-.94-.54,1.3-.75-2.74-1.58,.74-.43,6.67-.69,.94,.54-3.88,2.24,.81,.47-.8,.46Zm-.95-1.47l1.5-.86c.53-.31,.98-.55,1.35-.73l-.03-.02c-.26,.06-.59,.12-1.01,.17l-3.64,.38,1.84,1.06Z"/>
              <path class="cls-11" d="M194.12,198.73c-1.03,.6-1.97,.94-2.8,1.04-.84,.1-1.6-.05-2.29-.45-.67-.38-.91-.83-.74-1.32,.17-.5,.76-1.04,1.76-1.62,1.05-.61,1.99-.96,2.83-1.05,.83-.09,1.59,.06,2.28,.45,.67,.39,.92,.83,.74,1.33s-.77,1.04-1.78,1.62Zm-3.09-1.79c-.81,.47-1.31,.85-1.49,1.15-.18,.3-.09,.55,.28,.77,.37,.21,.82,.27,1.34,.16,.52-.1,1.19-.39,1.99-.85,.8-.46,1.29-.84,1.48-1.15,.19-.31,.1-.56-.27-.78-.37-.21-.81-.27-1.33-.16-.52,.1-1.18,.39-2,.86Z"/>
              <path class="cls-11" d="M168.46,207.52c-.38,.22-.8,.33-1.28,.35-.47,.02-.95-.07-1.44-.25l-.03,.02c.42,.31,.63,.6,.64,.88,0,.28-.19,.53-.59,.76-.57,.33-1.22,.47-1.94,.41-.72-.06-1.45-.3-2.2-.73-.66-.38-1.12-.77-1.36-1.16l.85-.49c.13,.22,.3,.43,.52,.63,.22,.2,.45,.38,.72,.53,.47,.27,.9,.42,1.3,.45,.4,.03,.78-.05,1.14-.26,.32-.18,.42-.39,.32-.62-.1-.23-.43-.51-.97-.82l-.52-.3,.78-.45,.53,.31c.96,.55,1.76,.64,2.42,.26,.26-.15,.37-.31,.34-.48-.03-.18-.2-.36-.53-.55-.23-.13-.48-.24-.75-.33-.28-.08-.65-.16-1.12-.22l.2-.66c.95,.08,1.79,.34,2.52,.76,.6,.35,.95,.7,1.03,1.04,.08,.34-.1,.65-.56,.91Z"/>
              <path class="cls-11" d="M172.07,211.46c-1.03,.6-1.97,.94-2.8,1.04-.84,.1-1.6-.05-2.29-.45-.67-.38-.91-.83-.74-1.32,.17-.5,.76-1.04,1.76-1.62,1.05-.61,1.99-.96,2.83-1.05,.83-.09,1.59,.06,2.28,.45,.67,.39,.92,.83,.74,1.33-.18,.5-.77,1.04-1.78,1.62Zm-3.09-1.79c-.81,.47-1.31,.85-1.49,1.15-.18,.3-.09,.55,.28,.77,.37,.21,.82,.27,1.34,.16,.52-.1,1.19-.39,1.99-.85,.8-.46,1.29-.84,1.48-1.15,.19-.31,.1-.56-.27-.78-.37-.21-.81-.27-1.33-.16-.52,.1-1.18,.39-2,.86Z"/>
              <path class="cls-11" d="M142.04,223.02l-4.06-2.35,.72-.42h3.09c.92,0,1.55-.02,1.89-.05,.34-.03,.64-.07,.87-.13,.24-.06,.46-.15,.65-.26,.27-.15,.4-.32,.39-.51,0-.18-.15-.36-.44-.52-.23-.13-.49-.24-.79-.31-.3-.08-.7-.13-1.2-.17l.11-.67c.61,.03,1.14,.1,1.57,.22,.43,.12,.82,.27,1.18,.48,.56,.32,.86,.66,.91,1.02,.05,.36-.17,.68-.66,.97-.27,.15-.57,.27-.91,.36-.34,.08-.74,.14-1.19,.17-.46,.03-1.14,.04-2.04,.02l-2.04-.02-.04,.02,2.84,1.64-.84,.49Z"/>
              <path class="cls-11" d="M150.02,224.19c-1.03,.6-1.97,.94-2.8,1.04-.84,.1-1.6-.05-2.29-.45-.67-.38-.91-.83-.74-1.32,.17-.5,.76-1.04,1.76-1.62,1.05-.61,1.99-.96,2.83-1.05,.83-.09,1.59,.06,2.28,.45,.67,.39,.92,.83,.74,1.33-.18,.5-.77,1.04-1.78,1.62Zm-3.09-1.79c-.81,.47-1.31,.85-1.49,1.15-.18,.3-.09,.55,.28,.77,.37,.21,.82,.27,1.34,.16,.52-.1,1.19-.39,1.99-.85,.8-.46,1.29-.84,1.48-1.15,.19-.31,.1-.56-.27-.78-.37-.21-.81-.27-1.33-.16-.52,.1-1.18,.39-2,.86Z"/>
              <path class="cls-11" d="M118.76,235.04l-.96-.56,3.85-2.22c.46-.26,.83-.47,1.12-.61-.13,0-.28,0-.45,0-.17,0-.73-.04-1.67-.1l.12-.63,3.14,.22,.8,.47-5.96,3.44Z"/>
              <path class="cls-11" d="M127.97,236.92c-1.03,.6-1.97,.94-2.8,1.04-.84,.1-1.6-.05-2.29-.45-.67-.38-.91-.83-.74-1.32,.17-.5,.76-1.04,1.76-1.62,1.05-.61,1.99-.96,2.83-1.05,.83-.09,1.59,.06,2.28,.45,.67,.39,.92,.83,.74,1.33-.18,.5-.77,1.04-1.78,1.62Zm-3.09-1.79c-.81,.47-1.31,.85-1.49,1.15-.18,.3-.09,.55,.28,.77,.37,.21,.82,.27,1.34,.16,.52-.1,1.19-.39,1.99-.85,.8-.46,1.29-.84,1.48-1.15,.19-.31,.1-.56-.27-.78-.37-.21-.81-.27-1.33-.16-.52,.1-1.18,.39-2,.86Z"/>
              <path class="cls-11" d="M105.92,249.65c-1.03,.6-1.97,.94-2.81,1.04-.84,.1-1.6-.05-2.29-.45-.67-.39-.91-.83-.74-1.32,.18-.5,.76-1.04,1.77-1.62,1.05-.61,1.99-.96,2.83-1.05,.83-.09,1.59,.06,2.28,.45,.67,.39,.92,.83,.74,1.33-.18,.5-.77,1.04-1.77,1.62Zm-3.09-1.79c-.81,.47-1.31,.85-1.49,1.15-.18,.3-.08,.55,.29,.77,.37,.21,.82,.27,1.34,.16,.52-.1,1.19-.39,1.99-.85,.8-.46,1.29-.85,1.48-1.15,.19-.31,.09-.56-.27-.78-.37-.21-.81-.27-1.33-.16-.52,.1-1.18,.39-1.99,.86Z"/>
            </g>
          </g>
          <g class="cls-57">
            <g>
              <g class="cls-31">
                <polygon class="cls-42" points="151.1 19.84 163.29 26.89 151.09 33.93 138.9 26.89 151.1 19.84"/>
                <g>
                  <polygon class="Graphic_Style_460" points="163.3 172.92 151.1 179.96 151.1 33.93 163.3 26.89 163.3 172.92"/>
                  <polygon class="cls-14" points="163.3 172.92 151.1 179.96 151.1 33.93 163.3 26.89 163.3 172.92"/>
                  <polygon class="cls-32" points="151.1 179.96 138.9 172.92 138.9 26.89 151.1 33.93 151.1 179.96"/>
                </g>
              </g>
              <polygon class="cls-5" points="138.9 26.89 151.04 33.42 163.3 26.89 151.47 34.2 151.1 179.96 150.52 34.11 138.9 26.89"/>
            </g>
          </g>
          <g class="cls-56">
            <g>
              <g class="cls-31">
                <polygon class="cls-40" points="129.71 52.53 141.9 59.58 129.7 66.62 117.51 59.57 129.71 52.53"/>
                <g>
                  <polygon class="cls-41" points="141.91 184.89 129.71 191.93 129.71 66.62 141.91 59.57 141.91 184.89"/>
                  <polygon class="cls-33" points="129.71 191.93 117.51 184.89 117.51 59.57 129.71 66.62 129.71 191.93"/>
                </g>
              </g>
              <polygon class="cls-3" points="117.51 59.57 129.65 66.11 141.91 59.57 130.08 66.88 129.71 191.93 129.13 66.8 117.51 59.57"/>
            </g>
          </g>
          <g class="cls-60">
            <g>
              <g class="cls-31">
                <polygon class="cls-35" points="107.74 102.67 119.93 109.72 107.74 116.76 95.55 109.71 107.74 102.67"/>
                <g>
                  <polygon class="cls-36" points="119.94 197.53 107.74 204.58 107.74 116.76 119.94 109.71 119.94 197.53"/>
                  <polygon class="cls-34" points="107.75 204.58 95.55 197.53 95.55 109.71 107.75 116.76 107.75 204.58"/>
                </g>
              </g>
              <polygon class="cls-2" points="95.55 109.71 107.68 116.25 119.94 109.71 108.11 117.02 107.75 204.58 107.17 116.94 95.55 109.71"/>
            </g>
          </g>
          <g class="cls-59">
            <g>
              <g class="cls-31">
                <polygon class="cls-46" points="85.72 132.36 97.91 139.4 85.72 146.44 73.53 139.4 85.72 132.36"/>
                <g>
                  <polygon class="cls-48" points="97.92 209.92 85.72 216.96 85.72 146.44 97.92 139.4 97.92 209.92"/>
                  <polygon class="cls-47" points="85.72 216.96 73.53 209.92 73.53 139.4 85.72 146.44 85.72 216.96"/>
                </g>
              </g>
              <polygon class="cls-6" points="73.53 139.4 85.66 145.93 97.92 139.4 86.09 146.71 85.72 216.96 85.14 146.62 73.53 139.4"/>
            </g>
          </g>
          <g class="cls-61">
            <g>
              <g class="cls-31">
                <polygon class="cls-49" points="63.55 178.14 75.74 185.18 63.55 192.22 51.35 185.18 63.55 178.14"/>
                <g>
                  <polygon class="cls-50" points="75.75 222.56 63.55 229.6 63.55 192.22 75.75 185.18 75.75 222.56"/>
                  <polygon class="cls-51" points="63.55 229.6 51.35 222.56 51.35 185.18 63.55 192.22 63.55 229.6"/>
                </g>
              </g>
              <polygon class="cls-4" points="51.35 185.18 63.49 191.71 75.75 185.18 63.92 192.49 63.55 229.6 62.97 192.4 51.35 185.18"/>
            </g>
          </g>
        </g>
      </g>
    </g>
  </g>
</svg>