<?xml version="1.0" encoding="UTF-8"?>
<svg xmlns="http://www.w3.org/2000/svg" xmlns:xlink="http://www.w3.org/1999/xlink" viewBox="0 0 306.71 190.26">
  <defs>
    <style>
      .cls-1 {
        fill: url(#_ÂÁ_Ï_ÌÌ_È_ËÂÌÚ_489-5);
      }

      .cls-2 {
        fill: url(#_ÂÁ_Ï_ÌÌ_È_ËÂÌÚ_489-2);
      }

      .cls-3 {
        fill: url(#_ÂÁ_Ï_ÌÌ_È_ËÂÌÚ_489-6);
      }

      .cls-4 {
        fill: url(#_ÂÁ_Ï_ÌÌ_È_ËÂÌÚ_489-3);
      }

      .cls-5 {
        fill: url(#_ÂÁ_Ï_ÌÌ_È_ËÂÌÚ_489-4);
      }

      .cls-6 {
        fill: url(#_ÂÁ_Ï_ÌÌ_È_ËÂÌÚ_489-7);
      }

      .cls-7 {
        fill: url(#_ÂÁ_Ï_ÌÌ_È_ËÂÌÚ_489-8);
      }

      .cls-8 {
        fill: url(#linear-gradient);
        opacity: .95;
      }

      .cls-9 {
        fill: #f14c23;
      }

      .cls-10, .cls-11 {
        fill: #c0b9c8;
      }

      .cls-12 {
        fill: #556bdf;
      }

      .cls-13 {
        fill: #788eff;
      }

      .cls-11 {
        mix-blend-mode: multiply;
        opacity: .6;
      }

      .cls-14 {
        fill: url(#linear-gradient-3);
      }

      .cls-15 {
        fill: url(#linear-gradient-2);
      }

      .cls-16 {
        isolation: isolate;
      }

      .cls-17 {
        fill: url(#_ÂÁ_Ï_ÌÌ_È_ËÂÌÚ_489);
      }
    </style>
    <linearGradient id="linear-gradient" x1="8.96" y1="115.39" x2="243.21" y2="115.39" gradientUnits="userSpaceOnUse">
      <stop offset=".19" stop-color="#7c1dc9"/>
      <stop offset=".3" stop-color="#921fca"/>
      <stop offset=".44" stop-color="#a821cb"/>
      <stop offset=".57" stop-color="#b622cb"/>
      <stop offset=".69" stop-color="#bb23cc"/>
    </linearGradient>
    <linearGradient id="linear-gradient-2" x1="138.75" y1="30.07" x2="-44.6" y2="128.3" gradientUnits="userSpaceOnUse">
      <stop offset="0" stop-color="#42e8e0"/>
      <stop offset=".32" stop-color="#4ab3dc"/>
      <stop offset=".62" stop-color="#5186d9"/>
      <stop offset=".86" stop-color="#556bd7"/>
      <stop offset="1" stop-color="#5761d7"/>
    </linearGradient>
    <linearGradient id="_ÂÁ_Ï_ÌÌ_È_ËÂÌÚ_489" data-name="¡ÂÁ˚ÏˇÌÌ˚È „‡‰ËÂÌÚ 489" x1="152.68" y1="62.68" x2="182.69" y2="62.68" gradientUnits="userSpaceOnUse">
      <stop offset="0" stop-color="#faf8fc"/>
      <stop offset="1" stop-color="#f8f6fa"/>
    </linearGradient>
    <linearGradient id="_ÂÁ_Ï_ÌÌ_È_ËÂÌÚ_489-2" data-name="¡ÂÁ˚ÏˇÌÌ˚È „‡‰ËÂÌÚ 489" x1="160.86" y1="24.58" x2="188.26" y2="24.58" xlink:href="#_ÂÁ_Ï_ÌÌ_È_ËÂÌÚ_489"/>
    <linearGradient id="_ÂÁ_Ï_ÌÌ_È_ËÂÌÚ_489-3" data-name="¡ÂÁ˚ÏˇÌÌ˚È „‡‰ËÂÌÚ 489" x1="115.42" y1="81.67" x2="154.18" y2="81.67" xlink:href="#_ÂÁ_Ï_ÌÌ_È_ËÂÌÚ_489"/>
    <linearGradient id="_ÂÁ_Ï_ÌÌ_È_ËÂÌÚ_489-4" data-name="¡ÂÁ˚ÏˇÌÌ˚È „‡‰ËÂÌÚ 489" x1="156.85" y1="5.95" x2="177.37" y2="5.95" xlink:href="#_ÂÁ_Ï_ÌÌ_È_ËÂÌÚ_489"/>
    <linearGradient id="_ÂÁ_Ï_ÌÌ_È_ËÂÌÚ_489-5" data-name="¡ÂÁ˚ÏˇÌÌ˚È „‡‰ËÂÌÚ 489" x1="123.61" y1="42.81" x2="162.36" y2="42.81" xlink:href="#_ÂÁ_Ï_ÌÌ_È_ËÂÌÚ_489"/>
    <linearGradient id="_ÂÁ_Ï_ÌÌ_È_ËÂÌÚ_489-6" data-name="¡ÂÁ˚ÏˇÌÌ˚È „‡‰ËÂÌÚ 489" x1="87.16" y1="100.58" x2="116.92" y2="100.58" xlink:href="#_ÂÁ_Ï_ÌÌ_È_ËÂÌÚ_489"/>
    <linearGradient id="_ÂÁ_Ï_ÌÌ_È_ËÂÌÚ_489-7" data-name="¡ÂÁ˚ÏˇÌÌ˚È „‡‰ËÂÌÚ 489" x1="119.59" y1="27.46" x2="140.12" y2="27.46" xlink:href="#_ÂÁ_Ï_ÌÌ_È_ËÂÌÚ_489"/>
    <linearGradient id="_ÂÁ_Ï_ÌÌ_È_ËÂÌÚ_489-8" data-name="¡ÂÁ˚ÏˇÌÌ˚È „‡‰ËÂÌÚ 489" x1="92.73" y1="62.48" x2="125.1" y2="62.48" xlink:href="#_ÂÁ_Ï_ÌÌ_È_ËÂÌÚ_489"/>
    <linearGradient id="linear-gradient-3" x1="103.79" y1="76.47" x2="223.05" y2="62.23" xlink:href="#linear-gradient-2"/>
  </defs>
  <g class="cls-16">
    <g id="Layer_1" data-name="Layer 1">
      <polygon class="cls-8" points="243.21 124.33 141.58 183.01 8.96 106.44 110.58 47.76 243.21 124.33"/>
      <polygon class="cls-15" points="111.07 48.04 9.44 106.72 0 101.27 101.63 42.59 111.07 48.04"/>
      <path class="cls-11" d="M146.05,115.54l1.58-.91c3.2-1.85,2.04-6.73-1.65-6.94l-14.06-.81,19.01-10.97-.51-1.69-15.18,.82-18.95,10.94-23.25-1.34,16.39-9.46-.51-1.69-15.18,.82-16.35,9.44-26.12-1.51-12.37,7.14,26.12,1.51-24.19,13.97,15.96,9.22,9.85,.57-4.43,2.56,8.6,4.96,11.47-6.62,26.5,1.52,3.68-2.13c2.58-1.49,1.65-5.42-1.33-5.59l-16.47-.95,24.88-14.36,26.5,1.52Zm-67.02,11.94l-23.25-1.34,24.87-14.37,23.26,1.34-24.88,14.36Z"/>
      <polygon class="cls-17" points="163.7 71.36 152.68 64.96 171.68 53.99 182.69 60.39 163.7 71.36"/>
      <polygon class="cls-10" points="146.01 115.66 135 109.26 140.57 82.78 151.58 89.19 146.01 115.66"/>
      <polygon class="cls-2" points="171.87 32.51 160.86 26.11 177.25 16.65 188.26 23.05 171.87 32.51"/>
      <polygon class="cls-10" points="154.18 76.86 143.16 70.46 148.75 43.92 159.77 50.32 154.18 76.86"/>
      <polygon class="cls-4" points="126.44 92.87 115.42 86.47 143.16 70.46 154.18 76.86 126.44 92.87"/>
      <polygon class="cls-10" points="108.75 137.17 97.74 130.77 103.31 104.3 114.32 110.7 108.75 137.17"/>
      <polygon class="cls-10" points="162.36 38 151.35 31.6 156.85 5.49 167.86 11.89 162.36 38"/>
      <polygon class="cls-5" points="167.86 11.89 156.85 5.49 166.36 0 177.37 6.4 167.86 11.89"/>
      <polygon class="cls-1" points="134.62 54.02 123.61 47.62 151.35 31.6 162.36 38 134.62 54.02"/>
      <polygon class="cls-10" points="116.92 98.37 105.9 91.97 111.5 65.44 122.51 71.84 116.92 98.37"/>
      <polygon class="cls-3" points="98.17 109.19 87.16 102.79 105.9 91.97 116.92 98.37 98.17 109.19"/>
      <polygon class="cls-10" points="98.2 120.01 87.19 113.61 87.16 102.79 98.17 109.19 98.2 120.01"/>
      <polygon class="cls-10" points="125.1 59.51 114.09 53.11 119.59 27 130.61 33.4 125.1 59.51"/>
      <polygon class="cls-6" points="130.61 33.4 119.59 27 129.1 21.51 140.12 27.91 130.61 33.4"/>
      <polygon class="cls-7" points="103.74 71.85 92.73 65.45 114.09 53.11 125.1 59.51 103.74 71.85"/>
      <polygon class="cls-10" points="103.77 82.66 92.76 76.26 92.73 65.45 103.74 71.85 103.77 82.66"/>
      <path class="cls-14" d="M188.29,33.86l-19.02,10.98-5.58,26.52,19-10.97,.03,10.81-21.63,12.49-5.57,26.47-9.51,5.49,5.57-26.47-27.74,16.01-5.58,26.48-9.51,5.49,5.57-26.47-16.12,9.31-.03-10.81,18.75-10.82,5.59-26.53-18.74,10.82-.03-10.81,21.36-12.33,5.5-26.11,9.51-5.49-5.49,26.11,27.74-16.01,5.5-26.11,9.51-5.49-5.5,26.11,16.39-9.47,.03,10.81Zm-34.12,43l5.59-26.54-27.75,16.03-5.58,26.52,27.74-16.02h0Z"/>
      <path class="cls-9" d="M126.65,188.81c-.93,.43-1.92,.92-2.88,1.44,1.78-.93,3.53-1.73,4.8-2.3-.74,.32-1.41,.62-1.92,.85Z"/>
      <path class="cls-9" d="M141.03,184.04c.53-.11,1.05-.22,1.6-.32-.56,.1-1.07,.21-1.6,.32Z"/>
      <path class="cls-9" d="M158.97,182.93c.96,.08,1.87,.18,2.76,.29-.85-.11-1.76-.2-2.76-.29Z"/>
      <path class="cls-9" d="M154.9,182.74c1.33,.02,2.61,.09,3.83,.17-1.18-.09-2.46-.15-3.83-.17Z"/>
      <path class="cls-9" d="M138.17,184.69c.48-.12,.94-.25,1.44-.35-.49,.11-.96,.23-1.44,.35Z"/>
      <path class="cls-9" d="M135.86,185.32c.28-.08,.55-.16,.85-.24-.29,.08-.56,.16-.85,.24Z"/>
      <path class="cls-9" d="M145.92,183.21s-.01,0-.02,0c1.47-.19,2.88-.3,4.27-.38-1.37,.08-2.77,.19-4.25,.38Z"/>
      <path class="cls-9" d="M164.15,183.57c.18,.03,.38,.06,.55,.09-.17-.03-.37-.06-.55-.09Z"/>
      <path class="cls-9" d="M150.97,182.8c1.24-.05,2.46-.08,3.63-.07-1.15-.01-2.36,0-3.63,.07Z"/>
      <path class="cls-9" d="M168.84,184.49c.23,.06,.43,.11,.65,.17-.22-.06-.43-.12-.65-.17Z"/>
      <path class="cls-9" d="M166.11,183.9h0c.69,.13,1.36,.27,1.97,.4-.65-.14-1.31-.29-1.97-.4Z"/>
      <path class="cls-9" d="M175.89,186.63c-.66-.23-1.68-.59-2.88-.97,2.64,.86,4.8,1.68,6.58,2.46-1.49-.69-2.26-1-3.7-1.5Z"/>
      <path class="cls-13" d="M306.71,150.46c-.3,.15-.6,.31-.89,.48,.12-.08,.24-.15,.36-.21,.17-.1,.35-.19,.53-.27Z"/>
      <path class="cls-12" d="M306.71,150.46c-.3,.15-.6,.31-.89,.48,.12-.08,.24-.15,.36-.21,.17-.1,.35-.19,.53-.27Z"/>
    </g>
  </g>
</svg>