<?xml version="1.0" encoding="UTF-8"?>
<svg xmlns="http://www.w3.org/2000/svg" xmlns:xlink="http://www.w3.org/1999/xlink" viewBox="0 0 222.78 195.05">
  <defs>
    <style>
      .cls-1 {
        fill: none;
      }

      .cls-2 {
        fill: #abb2e2;
        opacity: .05;
      }

      .cls-3 {
        fill: url(#Radial_Gradient_1-2);
      }

      .cls-3, .cls-4, .cls-5, .cls-6 {
        mix-blend-mode: color-dodge;
      }

      .cls-4 {
        fill: url(#Radial_Gradient_1-4);
      }

      .cls-5 {
        fill: url(#Radial_Gradient_1-3);
      }

      .cls-7 {
        fill: #a7addf;
        opacity: .1;
      }

      .cls-8 {
        fill: url(#radial-gradient);
      }

      .cls-8, .cls-9 {
        mix-blend-mode: screen;
        opacity: .5;
      }

      .cls-10 {
        fill: url(#linear-gradient);
      }

      .cls-11 {
        fill: url(#_ÂÁ_Ï_ÌÌ_È_ËÂÌÚ_15);
      }

      .cls-12 {
        clip-path: url(#clippath);
      }

      .cls-13 {
        fill: #00e0de;
      }

      .cls-14 {
        fill: #006d9c;
      }

      .cls-15 {
        fill: #00849e;
      }

      .cls-16 {
        fill: #00719e;
      }

      .cls-17 {
        fill: #fff;
      }

      .cls-18 {
        fill: #caff82;
      }

      .cls-19 {
        fill: #1f45cc;
      }

      .cls-20 {
        fill: #5b58a3;
      }

      .cls-21 {
        fill: #35004d;
      }

      .cls-22 {
        fill: #51a245;
      }

      .cls-23 {
        fill: url(#_ÂÁ_Ï_ÌÌ_È_ËÂÌÚ_15-2);
        opacity: .48;
      }

      .cls-9 {
        fill: url(#White_Black_Radial);
      }

      .cls-24 {
        fill: #a3a9dc;
        opacity: .14;
      }

      .cls-25 {
        fill: #9fa4d8;
        opacity: .19;
      }

      .cls-26 {
        fill: url(#linear-gradient-8);
      }

      .cls-27 {
        fill: url(#linear-gradient-9);
      }

      .cls-28 {
        fill: url(#linear-gradient-3);
      }

      .cls-29 {
        fill: url(#linear-gradient-4);
      }

      .cls-30 {
        fill: url(#linear-gradient-2);
      }

      .cls-31 {
        fill: url(#linear-gradient-6);
      }

      .cls-32 {
        fill: url(#linear-gradient-7);
      }

      .cls-33 {
        fill: url(#linear-gradient-5);
      }

      .cls-34 {
        opacity: .2;
      }

      .cls-35 {
        fill: #afb6e5;
        opacity: 0;
      }

      .cls-36 {
        fill: url(#linear-gradient-10);
      }

      .cls-37 {
        isolation: isolate;
      }

      .cls-6 {
        fill: url(#Radial_Gradient_1);
      }

      .cls-38 {
        fill: #7f80bf;
        opacity: .57;
      }

      .cls-39 {
        fill: #7b7cbc;
        opacity: .62;
      }

      .cls-40 {
        fill: #8385c2;
        opacity: .52;
      }

      .cls-41 {
        fill: #8789c6;
        opacity: .48;
      }

      .cls-42 {
        fill: #6361a9;
        opacity: .9;
      }

      .cls-43 {
        fill: #6765ac;
        opacity: .86;
      }

      .cls-44 {
        fill: #6f6eb3;
        opacity: .76;
      }

      .cls-45 {
        fill: #6b6ab0;
        opacity: .81;
      }

      .cls-46 {
        fill: #7373b6;
        opacity: .71;
      }

      .cls-47 {
        fill: #9397cf;
        opacity: .33;
      }

      .cls-48 {
        fill: #979bd2;
        opacity: .29;
      }

      .cls-49 {
        fill: #9ba0d5;
        opacity: .24;
      }

      .cls-50 {
        fill: #8b8ec9;
        opacity: .43;
      }

      .cls-51 {
        fill: #8f92cc;
        opacity: .38;
      }

      .cls-52 {
        fill: #7777b9;
        opacity: .67;
      }

      .cls-53 {
        fill: #5f5ca6;
        opacity: .95;
      }
    </style>
    <linearGradient id="linear-gradient" x1="-1378.78" y1="84.24" x2="-1443.31" y2="20.09" gradientTransform="translate(-1286.64) rotate(-180) scale(1 -1)" gradientUnits="userSpaceOnUse">
      <stop offset=".11" stop-color="#84efa9"/>
      <stop offset=".14" stop-color="#7fefac"/>
      <stop offset=".49" stop-color="#50f7d8"/>
      <stop offset=".77" stop-color="#33fdf2"/>
      <stop offset=".92" stop-color="#29fffd"/>
    </linearGradient>
    <linearGradient id="_ÂÁ_Ï_ÌÌ_È_ËÂÌÚ_15" data-name="¡ÂÁ˚ÏˇÌÌ˚È „‡‰ËÂÌÚ 15" x1="-1324.81" y1="38.03" x2="-1487.13" y2="94.82" gradientTransform="translate(-1286.64) rotate(-180) scale(1 -1)" gradientUnits="userSpaceOnUse">
      <stop offset="0" stop-color="#42e8e0"/>
      <stop offset=".15" stop-color="#42e3df"/>
      <stop offset=".33" stop-color="#44d4de"/>
      <stop offset=".52" stop-color="#48bddd"/>
      <stop offset=".72" stop-color="#4d9bda"/>
      <stop offset=".93" stop-color="#5471d8"/>
      <stop offset="1" stop-color="#5761d7"/>
    </linearGradient>
    <radialGradient id="Radial_Gradient_1" data-name="Radial Gradient 1" cx="-1331.84" cy="3.97" fx="-1331.84" fy="3.97" r="42.95" gradientTransform="translate(-1286.64) rotate(-180) scale(1 -1)" gradientUnits="userSpaceOnUse">
      <stop offset="0" stop-color="#fff"/>
      <stop offset="1" stop-color="#000"/>
    </radialGradient>
    <radialGradient id="Radial_Gradient_1-2" data-name="Radial Gradient 1" cx="-1430.87" cy="75.49" fx="-1430.87" fy="75.49" r="46.12" xlink:href="#Radial_Gradient_1"/>
    <linearGradient id="linear-gradient-2" x1="-99.47" y1="-337.36" x2="-81.12" y2="-337.36" gradientTransform="translate(-168.2 414.72) rotate(-151.68) scale(1 -1)" gradientUnits="userSpaceOnUse">
      <stop offset=".08" stop-color="#681bb2"/>
      <stop offset=".21" stop-color="#5b5db3"/>
      <stop offset=".34" stop-color="#5097b4"/>
      <stop offset=".43" stop-color="#49bbb5"/>
      <stop offset=".48" stop-color="#47c9b6"/>
      <stop offset=".54" stop-color="#47c2b4"/>
      <stop offset=".61" stop-color="#48b1b1"/>
      <stop offset=".69" stop-color="#4a95ab"/>
      <stop offset=".78" stop-color="#4c6ea4"/>
      <stop offset=".88" stop-color="#4f3d9a"/>
      <stop offset=".94" stop-color="#521993"/>
    </linearGradient>
    <linearGradient id="linear-gradient-3" x1="-1371.15" y1="117.57" x2="-1375.81" y2="136.7" gradientTransform="translate(-1286.64) rotate(-180) scale(1 -1)" gradientUnits="userSpaceOnUse">
      <stop offset="0" stop-color="#3b3aba"/>
      <stop offset=".17" stop-color="#3e33bf"/>
      <stop offset=".57" stop-color="#4528c9"/>
      <stop offset=".59" stop-color="#462aca"/>
      <stop offset=".85" stop-color="#5947dc"/>
      <stop offset="1" stop-color="#6152e3"/>
    </linearGradient>
    <linearGradient id="linear-gradient-4" x1="-95.87" y1="-377.03" x2="-85.01" y2="-377.03" gradientTransform="translate(-168.2 414.72) rotate(-151.68) scale(1 -1)" gradientUnits="userSpaceOnUse">
      <stop offset="0" stop-color="#b9bfea"/>
      <stop offset=".11" stop-color="#e5e9ff"/>
      <stop offset=".17" stop-color="#fff"/>
      <stop offset=".4" stop-color="#dfe3fc"/>
      <stop offset=".7" stop-color="#afb6e5"/>
      <stop offset=".95" stop-color="#b9c0ea"/>
      <stop offset="1" stop-color="#bdc3ec"/>
    </linearGradient>
    <clipPath id="clippath">
      <ellipse class="cls-1" cx="127.81" cy="66.36" rx="61.51" ry="35.51" transform="translate(6.02 143.21) rotate(-59.69)"/>
    </clipPath>
    <linearGradient id="linear-gradient-5" x1="-1373.24" y1="89.33" x2="-1453.99" y2="9.06" gradientTransform="translate(-1286.64) rotate(-180) scale(1 -1)" gradientUnits="userSpaceOnUse">
      <stop offset=".01" stop-color="#29fffd"/>
      <stop offset=".68" stop-color="#68a9f3"/>
      <stop offset="1" stop-color="#8484ef"/>
    </linearGradient>
    <linearGradient id="linear-gradient-6" x1="-1292.87" y1="27.01" x2="-1508.95" y2="102.62" gradientTransform="translate(-1286.64) rotate(-180) scale(1 -1)" gradientUnits="userSpaceOnUse">
      <stop offset="0" stop-color="#00c7c5"/>
      <stop offset=".34" stop-color="#2d9be0"/>
      <stop offset=".66" stop-color="#5277f7"/>
      <stop offset=".71" stop-color="#5a76f6"/>
      <stop offset=".8" stop-color="#7273f5"/>
      <stop offset=".92" stop-color="#9970f4"/>
      <stop offset="1" stop-color="#bb6df3"/>
    </linearGradient>
    <radialGradient id="Radial_Gradient_1-3" data-name="Radial Gradient 1" cx="-1303.36" cy="-20.32" fx="-1303.36" fy="-20.32" r="53.74" xlink:href="#Radial_Gradient_1"/>
    <radialGradient id="Radial_Gradient_1-4" data-name="Radial Gradient 1" cx="-1433.3" cy="76.85" fx="-1433.3" fy="76.85" r="61.93" xlink:href="#Radial_Gradient_1"/>
    <linearGradient id="linear-gradient-7" x1="-1452.19" y1="17.12" x2="-1404.21" y2="128.21" gradientTransform="translate(-1286.64) rotate(-180) scale(1 -1)" gradientUnits="userSpaceOnUse">
      <stop offset=".13" stop-color="#6719b2"/>
      <stop offset=".51" stop-color="#821d93"/>
      <stop offset=".86" stop-color="#691aa5"/>
      <stop offset=".95" stop-color="#631aaa"/>
    </linearGradient>
    <radialGradient id="radial-gradient" cx="-1423.1" cy="51.26" fx="-1423.1" fy="51.26" r="62.49" gradientTransform="translate(-528.77 -1188.24) rotate(-120.31) scale(1 -1)" gradientUnits="userSpaceOnUse">
      <stop offset="0" stop-color="#6cf"/>
      <stop offset="1" stop-color="#5277f7"/>
    </radialGradient>
    <linearGradient id="_ÂÁ_Ï_ÌÌ_È_ËÂÌÚ_15-2" data-name="¡ÂÁ˚ÏˇÌÌ˚È „‡‰ËÂÌÚ 15" x1="-1458.09" y1="66.36" x2="-1370.83" y2="66.36" gradientTransform="translate(-528.77 -1188.24) rotate(-120.31) scale(1 -1)" xlink:href="#_ÂÁ_Ï_ÌÌ_È_ËÂÌÚ_15"/>
    <linearGradient id="linear-gradient-8" x1="-1426.84" y1="1.83" x2="-1368.61" y2="113.29" gradientTransform="translate(-1286.64) rotate(-180) scale(1 -1)" gradientUnits="userSpaceOnUse">
      <stop offset=".1" stop-color="#681bb2"/>
      <stop offset=".17" stop-color="#661fb1"/>
      <stop offset=".24" stop-color="#612dae"/>
      <stop offset=".32" stop-color="#5944aa"/>
      <stop offset=".4" stop-color="#4e64a5"/>
      <stop offset=".49" stop-color="#418d9e"/>
      <stop offset=".53" stop-color="#38a89a"/>
      <stop offset=".59" stop-color="#399e99"/>
      <stop offset=".68" stop-color="#3e8398"/>
      <stop offset=".79" stop-color="#465896"/>
      <stop offset=".93" stop-color="#511d93"/>
      <stop offset=".94" stop-color="#521993"/>
    </linearGradient>
    <linearGradient id="linear-gradient-9" x1="-1456.81" y1="80.9" x2="-1395.95" y2="61.25" xlink:href="#linear-gradient-7"/>
    <linearGradient id="linear-gradient-10" x1="-1446" y1="66.39" x2="-1368.36" y2="66.39" xlink:href="#linear-gradient-8"/>
    <radialGradient id="White_Black_Radial" data-name="White, Black Radial" cx="-1425.19" cy="41.29" fx="-1425.19" fy="41.29" r="34.1" gradientTransform="translate(-1286.64) rotate(-180) scale(1 -1)" gradientUnits="userSpaceOnUse">
      <stop offset="0" stop-color="#fff"/>
      <stop offset="1" stop-color="#000"/>
    </radialGradient>
  </defs>
  <g class="cls-37">
    <g id="Layer_1" data-name="Layer 1">
      <polygon class="cls-16" points="109.32 91.98 98.44 85.76 57.1 51.45 67.98 57.66 109.32 91.98"/>
      <polygon class="cls-19" points="188.11 95.56 177.24 89.35 131.61 56.51 142.48 62.73 188.11 95.56"/>
      <polygon class="cls-10" points="141.82 45.19 130.95 38.98 98.16 67.91 109.03 74.12 141.82 45.19"/>
      <polygon class="cls-13" points="85.56 39.87 74.69 33.66 31.84 20.21 42.72 26.42 85.56 39.87"/>
      <polygon class="cls-15" points="60.27 65.58 49.4 59.36 31.84 20.21 42.72 26.42 60.27 65.58"/>
      <polygon class="cls-11" points="85.56 39.87 77.77 47.68 77.5 47.95 109.03 74.12 141.82 45.19 200.97 87.82 188.11 95.56 142.48 62.73 109.3 92.02 67.96 57.7 67.8 57.87 60.27 65.58 42.72 26.42 85.56 39.87"/>
      <polygon class="cls-6" points="43.02 27.09 32.47 20.61 43.44 26.65 85.56 39.87 84.77 40.66 43.02 27.09"/>
      <polygon class="cls-3" points="141.82 46.23 109.03 75.16 77.5 48.99 77.77 48.71 78.07 48.42 109.03 74.12 141.82 45.19 200.97 87.82 200.18 88.3 141.82 46.23"/>
      <path class="cls-21" d="M49.87,184.01c-1.96,3.64-.6,8.18,3.04,10.14,3.64,1.96,8.18,.6,10.14-3.04,1.96-3.64,.6-8.18-3.04-10.14-3.64-1.96-8.18-.6-10.14,3.04Z"/>
      <path class="cls-30" d="M79.56,126.05l16.2,8.73-30.17,55.49h0s-.02,.04-.03,.07c-1.4,2.61-6.17,2.76-10.64,.35-4.47-2.41-6.96-6.48-5.56-9.08,.01-.02,.03-.04,.04-.06h0s30.17-55.49,30.17-55.49Z"/>
      <path class="cls-28" d="M79.54,126.08c-1.4,2.61,1.09,6.67,5.56,9.08,4.47,2.41,9.24,2.25,10.64-.35,1.4-2.61-1.09-6.67-5.56-9.08-4.47-2.41-9.24-2.25-10.64,.35Z"/>
      <path class="cls-29" d="M89.07,116.45l9.64,5.19-5.76,10.49h0s-.01,.03-.02,.04c-.84,1.55-3.67,1.64-6.33,.21-2.66-1.43-4.14-3.85-3.31-5.4,0-.01,.02-.03,.02-.04h0s5.76-10.49,5.76-10.49Z"/>
      <g class="cls-12">
        <rect class="cls-17" x="77.89" y="3.79" width="100.54" height="135.73" transform="translate(256.31 143.3) rotate(-180)"/>
        <g>
          <g class="cls-34">
            <path class="cls-35" d="M188.04,116.82c-1.51,0-2.87-.33-3.95-.95l-7.46-5.4c-1.44-.83-2.27-2.15-2.27-3.61,0-1.6,.99-3.1,2.73-4.1l25.39-15.52c1.36-.79,3.07-1.22,4.8-1.22,1.51,0,2.87,.33,3.95,.95l7.77,5.22c1.44,.83,2.27,2.15,2.27,3.61,0,1.6-.99,3.1-2.73,4.1l-25.7,15.7c-1.36,.79-3.07,1.22-4.8,1.22Z"/>
            <path class="cls-2" d="M218.63,92.08c1.37,.79,2.26,2.11,2.26,3.5,0,1.53-.84,3.02-2.49,3.97,.08,.04-12.56,7.83-12.64,7.88l-9.26,5.64s-2.77,1.69-2.78,1.69c-1.32,.76-2.96,1.18-4.64,1.18-1.45,0-2.77-.31-3.82-.9-.05,0-7.2-5.15-7.23-5.17-1.37-.79-2.26-2.11-2.26-3.5,0-1.53,.84-3.02,2.49-3.97-.08-.04,12.5-7.8,12.58-7.85l9.18-5.59s2.61-1.59,2.62-1.6c1.32-.76,2.96-1.18,4.64-1.18,1.45,0,2.77,.31,3.82,.9,.05,0,7.49,4.98,7.53,5Z"/>
            <path class="cls-7" d="M218.27,91.96c1.3,.75,2.25,2.07,2.25,3.39,0,1.45-.68,2.94-2.25,3.85,.15,.09-11.86,7.57-12.04,7.67l-8.95,5.43s-2.66,1.62-2.69,1.63c-1.28,.73-2.86,1.13-4.48,1.14-1.4,0-2.68-.29-3.69-.85-.1,0-6.93-4.91-7-4.95-1.3-.75-2.25-2.07-2.25-3.39,0-1.45,.68-2.94,2.25-3.85-.15-.09,11.8-7.54,11.98-7.64l8.87-5.39s2.51-1.53,2.54-1.54c1.28-.73,2.86-1.13,4.48-1.14,1.4,0,2.68,.29,3.69,.85,.1,0,7.22,4.74,7.29,4.78Z"/>
            <path class="cls-24" d="M217.91,91.85c1.23,.71,2.24,2.03,2.24,3.28,0,1.37-.52,2.87-2.01,3.73,.23,.13-11.16,7.31-11.43,7.46l-8.63,5.22s-2.55,1.55-2.6,1.57c-1.23,.7-2.76,1.09-4.32,1.1-1.35,0-2.58-.27-3.56-.8-.14,0-6.67-4.66-6.77-4.72-1.23-.71-2.24-2.03-2.24-3.28,0-1.37,.52-2.87,2.01-3.73-.23-.13,11.11-7.28,11.37-7.43l8.56-5.18s2.4-1.46,2.45-1.48c1.23-.7,2.76-1.09,4.32-1.1,1.35,0,2.58,.27,3.56,.8,.15,0,6.94,4.5,7.05,4.56Z"/>
            <path class="cls-25" d="M217.54,91.74c1.17,.67,2.23,1.99,2.23,3.18,0,1.3-.36,2.79-1.77,3.6,.31,.18-10.46,7.04-10.82,7.25l-8.32,5.01c-.05,.03-2.44,1.48-2.5,1.5-1.19,.67-2.66,1.04-4.16,1.06-1.3,.01-2.48-.25-3.43-.75-.19,0-6.41-4.41-6.54-4.49-1.17-.67-2.23-1.99-2.23-3.18,0-1.3,.36-2.79,1.77-3.6-.31-.18,10.41-7.01,10.76-7.22l8.26-4.98c.05-.03,2.3-1.4,2.36-1.42,1.19-.67,2.66-1.04,4.16-1.06,1.3-.01,2.48,.25,3.43,.75,.19,0,6.67,4.26,6.81,4.34Z"/>
            <path class="cls-49" d="M217.18,91.62c1.1,.63,2.22,1.95,2.22,3.07,0,1.22-.21,2.71-1.53,3.48,.38,.22-9.76,6.78-10.21,7.03l-8.01,4.81c-.07,.04-2.33,1.41-2.41,1.44-1.15,.64-2.56,1-4,1.02-1.24,.01-2.38-.23-3.3-.7-.24,0-6.15-4.17-6.32-4.26-1.1-.63-2.22-1.95-2.22-3.07,0-1.22,.21-2.71,1.53-3.48-.38-.22,9.72-6.75,10.16-7.01l7.95-4.77c.06-.04,2.2-1.33,2.27-1.36,1.15-.64,2.56-1,4-1.02,1.24-.02,2.38,.23,3.3,.7,.24,0,6.39,4.02,6.57,4.12Z"/>
            <path class="cls-48" d="M216.82,91.51c1.03,.59,2.21,1.91,2.21,2.96,0,1.14-.05,2.64-1.29,3.35,.46,.27-9.07,6.51-9.6,6.82l-7.7,4.6c-.08,.05-2.23,1.34-2.32,1.38-1.11,.61-2.46,.95-3.84,.98-1.19,.02-2.29-.21-3.17-.65-.29,0-5.88-3.92-6.09-4.04-1.03-.59-2.21-1.91-2.21-2.96,0-1.15,.05-2.64,1.29-3.35-.46-.27,9.02-6.49,9.55-6.79l7.64-4.56c.08-.04,2.1-1.27,2.19-1.3,1.1-.61,2.46-.96,3.84-.98,1.19-.02,2.29,.21,3.17,.65,.29,0,6.12,3.79,6.32,3.91Z"/>
            <path class="cls-47" d="M216.45,91.4c.96,.55,2.2,1.87,2.2,2.85,0,1.07,.11,2.56-1.05,3.23,.54,.31-8.37,6.25-8.99,6.61l-7.39,4.39c-.1,.06-2.12,1.27-2.23,1.31-1.06,.58-2.36,.91-3.68,.94-1.14,.02-2.19-.19-3.04-.61-.33,0-5.62-3.67-5.86-3.81-.96-.55-2.2-1.87-2.2-2.85,0-1.07-.11-2.56,1.05-3.23-.54-.31,8.33-6.23,8.94-6.58l7.33-4.36c.09-.05,2-1.2,2.1-1.24,1.06-.58,2.36-.91,3.68-.94,1.14-.02,2.19,.19,3.04,.6,.34,0,5.84,3.55,6.08,3.69Z"/>
            <path class="cls-51" d="M216.09,91.28c.89,.51,2.19,1.84,2.19,2.74,0,.99,.27,2.48-.81,3.1,.61,.35-7.67,5.98-8.38,6.39l-7.08,4.18c-.11,.06-2.01,1.21-2.13,1.25-1.02,.55-2.26,.87-3.52,.9-1.09,.02-2.09-.17-2.91-.56-.38,0-5.36-3.42-5.63-3.58-.89-.51-2.19-1.84-2.19-2.74,0-.99-.27-2.48,.81-3.1-.61-.35,7.63-5.96,8.34-6.37l7.03-4.15c.1-.06,1.89-1.14,2.01-1.18,1.02-.55,2.26-.87,3.52-.9,1.09-.02,2.09,.17,2.91,.55,.39,0,5.57,3.31,5.84,3.47Z"/>
            <path class="cls-50" d="M215.73,91.17c.82,.48,2.18,1.8,2.18,2.63s.43,2.41-.56,2.98c.69,.4-6.97,5.72-7.77,6.18l-6.77,3.97c-.12,.07-1.9,1.14-2.04,1.19-.98,.52-2.16,.82-3.36,.85-1.04,.03-1.99-.15-2.78-.51-.43,0-5.1-3.18-5.4-3.35-.82-.48-2.18-1.8-2.18-2.63,0-.92-.43-2.41,.56-2.98-.69-.4,6.93-5.7,7.73-6.16l6.72-3.95c.12-.07,1.79-1.07,1.92-1.12,.98-.52,2.16-.83,3.36-.86,1.04-.03,1.99,.15,2.79,.5,.44,0,5.29,3.07,5.6,3.25Z"/>
            <path class="cls-41" d="M215.36,91.06c.75,.44,2.18,1.76,2.18,2.52,0,.84,.58,2.33-.32,2.85,.77,.44-6.27,5.46-7.16,5.97l-6.45,3.77c-.14,.08-1.79,1.07-1.95,1.12-.93,.49-2.06,.78-3.2,.81-.98,.03-1.9-.13-2.66-.46-.48,0-4.83-2.93-5.17-3.13-.75-.44-2.18-1.76-2.18-2.52,0-.84-.58-2.33,.32-2.85-.77-.44,6.24-5.44,7.12-5.95l6.41-3.74c.13-.07,1.69-1.01,1.83-1.06,.93-.49,2.06-.78,3.21-.82,.98-.03,1.9,.13,2.66,.45,.48,0,5.02,2.83,5.36,3.03Z"/>
            <path class="cls-40" d="M215,90.94c.69,.4,2.17,1.72,2.17,2.42,0,.76,.74,2.25-.08,2.73,.84,.49-5.57,5.19-6.55,5.75l-6.14,3.56c-.15,.09-1.68,1-1.85,1.06-.89,.46-1.96,.73-3.05,.77-.93,.03-1.8-.11-2.53-.41-.52,0-4.57-2.68-4.95-2.9-.69-.4-2.17-1.72-2.17-2.42,0-.76-.74-2.25,.08-2.73-.84-.49,5.54-5.18,6.52-5.74l6.1-3.54c.14-.08,1.59-.94,1.75-1,.89-.47,1.96-.74,3.05-.78,.93-.03,1.8,.11,2.53,.4,.53,0,4.74,2.59,5.12,2.81Z"/>
            <path class="cls-38" d="M214.64,90.83c.62,.36,2.16,1.68,2.16,2.31,0,.69,.9,2.18,.16,2.61,.92,.53-4.88,4.93-5.94,5.54l-5.83,3.35c-.16,.1-1.57,.93-1.76,1-.85,.43-1.86,.69-2.89,.73-.88,.04-1.7-.09-2.4-.36-.57,0-4.31-2.44-4.72-2.67-.62-.36-2.16-1.68-2.16-2.31,0-.69-.9-2.18-.16-2.61-.92-.53,4.85-4.91,5.91-5.53l5.8-3.33c.16-.09,1.48-.88,1.66-.94,.85-.44,1.86-.69,2.89-.74,.88-.04,1.7,.09,2.4,.35,.58,0,4.47,2.35,4.88,2.59Z"/>
            <path class="cls-39" d="M214.27,90.72c.55,.32,2.15,1.64,2.15,2.2,0,.61,1.06,2.1,.4,2.48,1,.57-4.18,4.66-5.33,5.33l-5.52,3.14c-.18,.1-1.47,.86-1.67,.94-.81,.4-1.76,.65-2.73,.69-.83,.04-1.6-.07-2.27-.31-.62,0-4.05-2.19-4.49-2.45-.55-.32-2.15-1.64-2.15-2.2,0-.61-1.06-2.1-.4-2.48-1-.57,4.15-4.65,5.3-5.31l5.49-3.13c.17-.1,1.38-.81,1.57-.88,.8-.41,1.76-.65,2.73-.7,.83-.04,1.6,.07,2.27,.3,.63,0,4.19,2.12,4.64,2.38Z"/>
            <path class="cls-52" d="M213.91,90.6c.48,.28,2.14,1.6,2.14,2.09,0,.53,1.22,2.02,.64,2.36,1.07,.62-3.48,4.4-4.72,5.11l-5.21,2.94c-.19,.11-1.36,.79-1.58,.87-.76,.38-1.66,.6-2.57,.65-.77,.04-1.51-.05-2.14-.26-.67,0-3.79-1.94-4.26-2.22-.48-.28-2.14-1.6-2.14-2.09,0-.53-1.22-2.02-.64-2.36-1.07-.62,3.46-4.39,4.7-5.1l5.18-2.92c.18-.1,1.28-.75,1.48-.83,.76-.38,1.66-.61,2.57-.66,.78-.04,1.51,.05,2.14,.25,.68,0,3.92,1.88,4.4,2.16Z"/>
            <path class="cls-46" d="M213.55,90.49c.41,.24,2.13,1.56,2.13,1.98s1.37,1.95,.88,2.23c1.15,.66-2.78,4.14-4.11,4.9l-4.9,2.73c-.21,.12-1.25,.72-1.48,.81-.72,.35-1.56,.56-2.41,.61-.72,.04-1.41-.03-2.01-.21-.71,0-3.52-1.7-4.03-1.99-.41-.24-2.13-1.56-2.13-1.98,0-.46-1.37-1.95-.88-2.23-1.15-.66,2.76-4.13,4.09-4.89l4.87-2.71c.19-.11,1.18-.68,1.4-.77,.72-.35,1.56-.56,2.41-.62,.72-.05,1.41,.02,2.01,.2,.73,0,3.64,1.64,4.16,1.94Z"/>
            <path class="cls-44" d="M213.18,90.38c.34,.2,2.12,1.52,2.12,1.87s1.53,1.87,1.12,2.11c1.23,.71-2.08,3.87-3.5,4.69l-4.59,2.52c-.22,.13-1.14,.65-1.39,.75-.68,.32-1.46,.51-2.25,.57-.67,.05-1.31,0-1.88-.16-.76,0-3.26-1.45-3.8-1.76-.34-.2-2.12-1.52-2.12-1.87,0-.38-1.53-1.87-1.12-2.11-1.23-.71,2.07-3.86,3.48-4.68l4.57-2.51c.21-.12,1.08-.62,1.31-.71,.68-.32,1.46-.52,2.25-.58,.67-.05,1.31,0,1.88,.15,.78,0,3.36,1.4,3.92,1.72Z"/>
            <path class="cls-45" d="M212.82,90.26c.27,.16,2.11,1.49,2.11,1.76s1.69,1.79,1.36,1.98c1.3,.75-1.39,3.61-2.89,4.48l-4.27,2.31c-.23,.13-1.03,.59-1.3,.68-.63,.29-1.36,.47-2.09,.53-.62,.05-1.21,.01-1.75-.11-.81,0-3-1.2-3.58-1.54-.27-.16-2.11-1.49-2.11-1.76,0-.31-1.69-1.79-1.36-1.98-1.3-.75,1.37-3.6,2.88-4.47l4.26-2.3c.22-.13,.97-.55,1.22-.65,.63-.29,1.36-.48,2.09-.54,.62-.05,1.21-.02,1.75,.1,.82,0,3.09,1.16,3.68,1.5Z"/>
            <path class="cls-43" d="M212.46,90.15c.21,.12,2.1,1.45,2.1,1.66s1.85,1.72,1.6,1.86c1.38,.8-.69,3.34-2.28,4.26l-3.96,2.1c-.25,.14-.92,.52-1.2,.62-.59,.26-1.26,.43-1.93,.49-.57,.05-1.12,.03-1.62-.06-.86,0-2.74-.96-3.35-1.31-.21-.12-2.1-1.45-2.1-1.66,0-.23-1.85-1.72-1.6-1.86-1.38-.8,.68-3.34,2.27-4.26l3.95-2.1c.23-.13,.87-.49,1.13-.59,.59-.26,1.26-.43,1.93-.5,.57-.06,1.12-.04,1.62,.05,.87,0,2.81,.92,3.44,1.28Z"/>
            <path class="cls-42" d="M212.09,90.04c.14,.08,2.09,1.41,2.09,1.55s2,1.64,1.84,1.74c1.46,.84,.01,3.08-1.67,4.05l-3.65,1.9c-.26,.15-.82,.45-1.11,.56-.55,.23-1.16,.38-1.77,.45-.51,.06-1.02,.05-1.49-.01-.9,0-2.47-.71-3.12-1.08-.14-.08-2.09-1.41-2.09-1.55,0-.15-2-1.64-1.84-1.74-1.46-.84-.02-3.08,1.66-4.05l3.64-1.89c.25-.14,.77-.42,1.05-.53,.55-.23,1.16-.39,1.77-.46,.51-.06,1.02-.06,1.49,0,.92,0,2.54,.68,3.2,1.06Z"/>
            <path class="cls-53" d="M211.73,89.92c.07,.04,2.08,1.37,2.08,1.44,0,.08,2.16,1.56,2.08,1.61,1.53,.88,.71,2.81-1.06,3.84l-3.34,1.69c-.27,.16-.71,.38-1.02,.49-.51,.2-1.06,.34-1.61,.41-.46,.06-.92,.07-1.36,.04-.95,0-2.21-.46-2.89-.85-.07-.04-2.08-1.37-2.08-1.44,0-.08-2.16-1.56-2.08-1.61-1.53-.88-.71-2.81,1.06-3.83l3.34-1.69c.26-.15,.67-.36,.96-.47,.5-.2,1.05-.35,1.61-.42,.46-.06,.92-.08,1.36-.05,.97,0,2.26,.45,2.96,.85Z"/>
            <path class="cls-20" d="M206.01,97.99l-4.4-2.82c-1.61-.93-1.41-2.55,.45-3.62l3.03-1.48c1.86-1.07,4.67-1.19,6.27-.26l4.4,2.82c1.61,.93,1.41,2.55-.45,3.62l-3.03,1.48c-1.86,1.07-4.67,1.19-6.27,.26Z"/>
          </g>
          <polygon class="cls-14" points="108.1 99.02 94.49 91.24 31.61 39.09 45.21 46.86 108.1 99.02"/>
          <polygon class="cls-19" points="206.69 103.5 193.08 95.72 135.99 54.64 149.59 62.41 206.69 103.5"/>
          <polygon class="cls-33" points="148.77 40.47 135.16 32.69 94.13 68.9 107.74 76.67 148.77 40.47"/>
          <polygon class="cls-18" points="67.21 24.6 53.61 16.82 0 0 13.6 7.77 67.21 24.6"/>
          <polygon class="cls-22" points="35.57 56.76 21.97 48.99 0 0 13.6 7.77 35.57 56.76"/>
          <polygon class="cls-31" points="67.21 24.6 57.47 34.37 57.13 34.71 107.74 76.67 148.77 40.47 222.78 93.82 206.69 103.5 149.59 62.41 108.07 99.07 45.19 46.91 44.99 47.12 35.57 56.76 13.6 7.77 67.21 24.6"/>
          <polygon class="cls-5" points="13.99 8.6 .78 .5 14.51 8.06 67.21 24.6 66.23 25.59 13.99 8.6"/>
          <polygon class="cls-4" points="148.77 41.77 107.74 77.97 57.13 36.01 57.47 35.67 57.84 35.29 107.74 76.67 148.77 40.47 222.78 93.82 221.8 94.41 148.77 41.77"/>
        </g>
      </g>
      <path class="cls-32" d="M121.37,115.59c25.46-14.7,46.1-50.3,46.1-79.52,0-11.74-3.33-20.65-8.97-26.17,10.73,3.49,17.62,14.55,17.62,31.43,0,29.22-20.64,64.82-46.1,79.52-15.23,8.79-28.74,8.11-37.13-.11,7.84,2.55,17.73,1.06,28.48-5.14Z"/>
      <ellipse class="cls-8" cx="127.81" cy="66.36" rx="61.51" ry="35.51" transform="translate(6.02 143.21) rotate(-59.69)"/>
      <ellipse class="cls-23" cx="127.81" cy="66.36" rx="61.51" ry="35.51" transform="translate(6.02 143.21) rotate(-59.69)"/>
      <path class="cls-26" d="M120.25,9.46c12.52-7.23,23.87-8.06,32.18-3.56,.23,.13,12.16,6.78,12.53,7.35-8.45-6.38-20.97-6.28-34.94,1.78-25.46,14.7-46.1,50.3-46.1,79.52,0,14.91,5.38,25.27,14.02,29.89-.62-.17-1.35-.49-2.25-.99-.25-.14-8.38-5.06-8.62-5.21-8.01-4.89-12.93-15-12.93-29.27,0-29.22,20.64-64.82,46.1-79.52Z"/>
      <path class="cls-27" d="M83.93,94.56c0,29.22,20.64,40.98,46.1,26.28,25.46-14.7,46.1-50.3,46.1-79.52,0-29.22-20.64-40.98-46.1-26.28-25.46,14.7-46.1,50.3-46.1,79.52Zm3.86-1.49c0-26.97,19.06-59.84,42.56-73.41,23.51-13.57,42.56-2.71,42.56,24.27,0,26.97-19.06,59.84-42.56,73.41-23.51,13.57-42.56,2.71-42.56-24.27Z"/>
      <path class="cls-36" d="M127.82,13.94c12.2-7.05,23.29-8,31.54-3.87-7.69-2.15-19-.99-29.33,4.98-25.46,14.7-46.1,50.3-46.1,79.52,0,15.21,7.37,26.12,16.33,30.6-11.25-3.15-18.54-14.35-18.54-31.71,0-29.22,20.64-64.82,46.1-79.52Z"/>
      <path class="cls-9" d="M133.91,51.18c-7.68-7.68-15.93-14.24-24.46-19.64,5.58-6.2,11.8-11.46,18.36-15.25,24.09-13.91,43.63-2.77,43.63,24.87,0,13.91-4.94,29.34-12.92,43.01-6.15-11.55-14.39-22.77-24.61-33Z"/>
    </g>
  </g>
</svg>